<svg width="16" height="17" viewBox="0 0 16 17" fill="none" xmlns="http://www.w3.org/2000/svg">
<path d="M5.86448 13.4293C6.12786 13.3463 6.27413 13.0656 6.19116 12.8022C6.1082 12.5388 5.82743 12.3925 5.56405 12.4755L5.86448 13.4293ZM1.97456 10.3354L1.49095 10.2085L1.23702 11.1757L1.72063 11.3027L1.97456 10.3354ZM9.78568 15.619V16.119H10.7857V15.619H9.78568ZM9.90473 10.2857L9.85129 9.78858C9.65957 9.80919 9.49678 9.9382 9.43293 10.1202C9.36909 10.3021 9.41556 10.5046 9.55236 10.6404L9.90473 10.2857ZM13.3333 6.30667H13.8333L13.8333 6.30505L13.3333 6.30667ZM12.4446 4.16667L11.9785 3.98565C11.9069 4.17015 11.9508 4.37956 12.0906 4.51971L12.4446 4.16667ZM12.3913 2.01533L12.8478 1.81145C12.7876 1.67652 12.6707 1.57516 12.5287 1.53457L12.3913 2.01533ZM10.074 2.86L9.94785 3.34383C10.0834 3.37917 10.2276 3.35601 10.3453 3.28L10.074 2.86ZM5.92597 2.86L5.65476 3.28005C5.77242 3.35602 5.91655 3.37916 6.05208 3.34383L5.92597 2.86ZM3.60863 2.01533L3.47115 1.53461C3.32913 1.57522 3.21233 1.67656 3.15209 1.81145L3.60863 2.01533ZM3.5553 4.16667L3.90933 4.51974C4.04911 4.37959 4.09304 4.17017 4.02138 3.98565L3.5553 4.16667ZM2.66663 6.324H3.16663L3.16663 6.32272L2.66663 6.324ZM6.09521 10.2857L6.44817 10.6399C6.58387 10.5046 6.63036 10.3037 6.56786 10.1226C6.50536 9.94149 6.34486 9.81202 6.15463 9.78926L6.09521 10.2857ZM5.71426 11.8857H6.21426C6.21426 11.8735 6.21381 11.8613 6.21292 11.8491L5.71426 11.8857ZM5.21426 15.619V16.119H6.21426V15.619H5.21426ZM5.56405 12.4755C4.9164 12.6795 4.50095 12.6582 4.22204 12.5661C3.94461 12.4746 3.7335 12.2906 3.53464 12.0314C3.43403 11.9002 3.34159 11.7565 3.24517 11.6004C3.15319 11.4515 3.05019 11.2788 2.94584 11.1249C2.74298 10.8257 2.4486 10.4599 1.97456 10.3354L1.72063 11.3027C1.81792 11.3282 1.93538 11.4165 2.11818 11.6861C2.20667 11.8166 2.28996 11.9569 2.3944 12.126C2.49439 12.2878 2.60849 12.467 2.74121 12.64C3.00903 12.9892 3.37174 13.3385 3.90865 13.5157C4.44407 13.6924 5.08346 13.6753 5.86448 13.4293L5.56405 12.4755ZM10.7857 11.819C10.7857 11.2135 10.832 10.502 10.2571 9.93098L9.55236 10.6404C9.77617 10.8628 9.78568 11.0912 9.78568 11.819H10.7857ZM9.95817 10.7828C10.9155 10.68 11.9099 10.4502 12.6571 9.75599C13.4198 9.04737 13.8333 7.94475 13.8333 6.30667H12.8333C12.8333 7.78458 12.4628 8.57149 11.9764 9.02338C11.4746 9.48967 10.7547 9.69147 9.85129 9.78858L9.95817 10.7828ZM13.8333 6.30505C13.8303 5.37067 13.4585 4.47527 12.7987 3.81362L12.0906 4.51971C12.5642 4.99471 12.8311 5.6375 12.8333 6.30828L13.8333 6.30505ZM12.9107 4.34768C13.0684 3.94175 13.144 3.5086 13.1332 3.07327L12.1335 3.09805C12.141 3.40125 12.0884 3.70293 11.9785 3.98565L12.9107 4.34768ZM13.1332 3.07327C13.1224 2.63794 13.0254 2.20906 12.8478 1.81145L11.9348 2.21922C12.0584 2.49615 12.126 2.79485 12.1335 3.09805L13.1332 3.07327ZM12.3913 2.01533C12.5287 1.53457 12.5282 1.53444 12.5277 1.5343C12.5276 1.53426 12.5271 1.53412 12.5268 1.53403C12.5261 1.53385 12.5255 1.53367 12.5248 1.53348C12.5235 1.53311 12.5221 1.53273 12.5206 1.53235C12.5178 1.53158 12.5148 1.53079 12.5115 1.52998C12.5051 1.52835 12.4979 1.52665 12.4901 1.52493C12.4743 1.52147 12.4556 1.5179 12.434 1.51459C12.3908 1.50794 12.3363 1.50235 12.27 1.50058C12.1372 1.49704 11.9596 1.50889 11.7347 1.55695C11.2855 1.65292 10.6501 1.8926 9.80268 2.44L10.3453 3.28C11.1151 2.78273 11.6384 2.60008 11.9436 2.53488C12.0958 2.50236 12.1943 2.49892 12.2433 2.50023C12.2679 2.50089 12.2807 2.50276 12.2821 2.50297C12.2828 2.50308 12.2808 2.50279 12.276 2.50176C12.2737 2.50124 12.2706 2.50054 12.267 2.4996C12.2651 2.49914 12.2631 2.49862 12.2609 2.49803C12.2598 2.49774 12.2587 2.49744 12.2576 2.49711C12.257 2.49695 12.2564 2.49679 12.2558 2.49662C12.2555 2.49653 12.255 2.4964 12.2549 2.49636C12.2544 2.49623 12.2539 2.49609 12.3913 2.01533ZM10.2001 2.37617C8.75744 2.00013 7.24249 2.00013 5.79985 2.37617L6.05208 3.34383C7.32933 3.01091 8.6706 3.01091 9.94785 3.34383L10.2001 2.37617ZM6.19718 2.43994C5.34943 1.89259 4.71411 1.65292 4.26504 1.55696C4.04013 1.50889 3.86257 1.49704 3.72983 1.50058C3.66358 1.50235 3.60901 1.50795 3.56581 1.51459C3.54423 1.51791 3.52557 1.52148 3.50979 1.52495C3.5019 1.52668 3.49473 1.52838 3.48829 1.53C3.48507 1.53082 3.48204 1.53161 3.47918 1.53238C3.47775 1.53276 3.47637 1.53314 3.47503 1.53351C3.47436 1.5337 3.4737 1.53388 3.47306 1.53406C3.47273 1.53416 3.47226 1.53429 3.4721 1.53434C3.47162 1.53447 3.47115 1.53461 3.60863 2.01533C3.74612 2.49606 3.74565 2.49619 3.74519 2.49632C3.74504 2.49637 3.74458 2.4965 3.74427 2.49658C3.74367 2.49675 3.74308 2.49692 3.74249 2.49708C3.74133 2.4974 3.7402 2.49771 3.73911 2.498C3.73694 2.49859 3.73493 2.49911 3.73308 2.49958C3.72939 2.50051 3.72635 2.50122 3.72398 2.50174C3.71923 2.50278 3.71717 2.50307 3.71788 2.50296C3.71925 2.50275 3.73195 2.50088 3.75654 2.50023C3.80549 2.49892 3.90389 2.50236 4.05606 2.53488C4.36115 2.60007 4.88451 2.78274 5.65476 3.28005L6.19718 2.43994ZM3.15209 1.81145C2.97452 2.20906 2.87754 2.63794 2.86674 3.07327L3.86644 3.09805C3.87395 2.79485 3.9415 2.49615 4.06518 2.21922L3.15209 1.81145ZM2.86674 3.07327C2.85595 3.5086 2.93157 3.94175 3.08922 4.34768L4.02138 3.98565C3.91158 3.70293 3.85892 3.40125 3.86644 3.09805L2.86674 3.07327ZM3.20127 3.81359C2.87211 4.14363 2.61129 4.53537 2.43375 4.96637L3.35838 5.34725C3.48582 5.03787 3.67305 4.75666 3.90933 4.51974L3.20127 3.81359ZM2.43375 4.96637C2.25621 5.39736 2.16544 5.85915 2.16663 6.32528L3.16663 6.32272C3.16577 5.98812 3.23093 5.65663 3.35838 5.34725L2.43375 4.96637ZM2.16663 6.324C2.16663 7.95215 2.5809 9.04504 3.34422 9.74893C4.09011 10.4367 5.08266 10.6681 6.0358 10.7822L6.15463 9.78926C5.2471 9.68065 4.52536 9.47783 4.02213 9.01378C3.53633 8.56581 3.16663 7.78918 3.16663 6.324H2.16663ZM5.74226 9.93156C5.44784 10.225 5.31157 10.598 5.24992 10.94C5.1882 11.2824 5.19427 11.6318 5.21561 11.9223L6.21292 11.8491C6.19426 11.595 6.1938 11.3407 6.23406 11.1174C6.27438 10.8937 6.34859 10.7391 6.44817 10.6399L5.74226 9.93156ZM5.21426 11.8857V15.619H6.21426V11.8857H5.21426ZM10.7857 15.619V11.819H9.78568V15.619H10.7857Z" fill="#445656"/>
</svg>
