<?xml version="1.0" encoding="utf-8"?>
<!-- Generator: Adobe Illustrator 26.0.3, SVG Export Plug-In . SVG Version: 6.00 Build 0)  -->
<svg version="1.1" id="Layer_1" xmlns="http://www.w3.org/2000/svg" xmlns:xlink="http://www.w3.org/1999/xlink" x="0px" y="0px"
	 viewBox="0 0 300 300" style="enable-background:new 0 0 300 300;" xml:space="preserve">
<style type="text/css">
	.st0{fill:#A0DBED;}
	.st1{fill:#805734;}
	.st2{fill:#1EAF94;}
	.st3{fill:#1F8B74;}
	.st4{fill:#BCE5F2;}
	.st5{fill:#090908;}
	.st6{fill:#EEA122;}
	.st7{fill:#231F20;}
	.st8{fill:#6E6E70;}
	.st9{fill:#9B9CA4;}
	.st10{fill:#597676;}
	.st11{fill:#6B7070;}
	.st12{fill:#1B2C27;}
	.st13{fill:#4D3728;}
	.st14{fill:#1C2320;}
	.st15{fill:#FCCBA6;}
	.st16{fill:#535655;}
	.st17{fill:#1B1C28;}
	.st18{fill:#343C4A;}
	.st19{fill:#FCCBA5;}
	.st20{fill:#F2A021;}
	.st21{fill:#F16A24;}
	.st22{fill:#E98152;}
	.st23{fill:#852E1B;}
	.st24{fill:#600D11;}
	.st25{fill:#F59064;}
	.st26{fill:#F9AA75;}
	.st27{fill:#F06568;}
	.st28{fill:none;stroke:#601011;stroke-miterlimit:10;}
	.st29{fill:#F59EAF;}
	.st30{fill:#DF6352;}
	.st31{fill:#84181A;}
	.st32{fill:#F27D7C;}
	.st33{fill:#FFFFFF;}
	.st34{fill:#9D4122;}
	.st35{fill:#803520;}
	.st36{fill:#531514;}
	.st37{fill:#641313;}
	.st38{fill:#7A1B18;}
	.st39{fill:#8D2B1E;}
	.st40{fill:#852C1B;}
	.st41{fill:#9D4022;}
	.st42{fill:#9C4322;}
	.st43{fill:#8B2C1D;}
	.st44{fill:#9A4022;}
	.st45{fill:#601F13;}
	.st46{fill:#411312;}
	.st47{fill:#981D21;}
	.st48{fill:#D02229;}
	.st49{fill:#232824;}
	.st50{fill:#951D1F;}
</style>
<g>
	<g>
		<rect x="-62.22" y="0.77" class="st0" width="422.68" height="299.06"/>
		<g>
			<polygon class="st1" points="-33.46,244.5 -33.46,229.62 -29.96,224.75 -25.25,229.03 -23.03,243.99 			"/>
			<polygon class="st1" points="50.85,238.93 35.97,240.22 34.95,217.39 39.65,212.43 46.66,216.79 			"/>
			<polygon class="st1" points="238.38,214.68 237.31,197.19 240.82,192.62 245.52,196.25 248.9,213.06 			"/>
			<polygon class="st1" points="292.89,204.05 291.82,176.6 302.3,176.25 308.41,200.54 302.09,206.18 			"/>
			<polygon class="st1" points="292.89,204.05 291.82,176.6 302.3,176.25 308.41,200.54 302.09,206.18 			"/>
			<path class="st2" d="M360.73,188.22c-1.66,0.38-3.32,0.75-4.98,1.13c-4.19,0.95-8.38,1.9-12.57,2.85
				c-5.53,1.25-11.06,2.51-16.59,3.76c-15.62,3.54-31.24,7.72-46.97,10.72c-2.19,0.42-4.38,0.82-6.57,1.21
				c-5.54,0.99-11.09,1.94-16.65,2.88c-6.26,1.05-12.53,2.09-18.79,3.11c-5.96,0.97-11.93,1.94-17.89,2.89
				c-4.65,0.74-9.3,1.48-13.95,2.22c-2.32,0.37-4.64,0.73-6.96,1.1c-0.1,0.02-0.19,0.03-0.29,0.05
				c-0.21,0.77-115.87,13.85-115.87,13.85c-2.82,2.44-144.88,10.65-144.88,10.65V300h422.68h0.17l0.1-8.16V188.22z"/>
			<polygon class="st3" points="271.22,179.16 281.65,156.89 271.22,156.89 280.96,138.84 274.64,139.7 287.51,100.32 
				313.16,135.21 303.73,132.26 318.1,155.09 308.8,156.89 326.88,177.02 			"/>
			<polygon class="st3" points="271.22,179.16 281.65,156.89 271.22,156.89 280.96,138.84 274.64,139.7 287.51,100.32 
				313.16,135.21 303.73,132.26 318.1,155.09 308.8,156.89 326.88,177.02 			"/>
			<polygon class="st3" points="223.12,198.7 232.05,183.74 224.83,183.74 232.05,171.04 225.77,171.04 235.17,144.23 
				251.33,169.63 246.12,167.1 256.29,181.43 250.22,182.11 261.51,197.03 			"/>
			<polygon class="st3" points="14.25,218.03 25.28,196.39 16.99,194.77 28.96,178.61 21.61,178.61 37.51,139.53 58.89,175.78 
				49.65,174.24 65.13,195.79 56.58,195.79 71.97,218.03 			"/>
			<polygon class="st3" points="-47.32,231.28 -36.97,215.38 -44.41,215.38 -37.65,203.4 -43.55,203.4 -31.92,176.38 -15.85,202.21 
				-22.35,200.41 -13.28,215.29 -19.27,215.29 -7.98,231.28 			"/>
			<ellipse class="st3" cx="176.44" cy="272.57" rx="9.99" ry="3"/>
			<ellipse class="st3" cx="262.34" cy="290.84" rx="8.83" ry="2.48"/>
			<ellipse class="st3" cx="25.52" cy="278.72" rx="6.92" ry="3"/>
			<ellipse class="st3" cx="15.19" cy="289.42" rx="8.95" ry="1.22"/>
			<ellipse class="st3" cx="287.4" cy="224.56" rx="9.77" ry="2.85"/>
			
				<ellipse transform="matrix(0.9928 -0.1201 0.1201 0.9928 -30.5968 22.1879)" class="st3" cx="168.83" cy="265" rx="93.11" ry="4.17"/>
			<path class="st2" d="M362.03,187.93"/>
		</g>
		<g>
			<path class="st4" d="M-2.34,68c-0.02-0.13-1.32-0.6-1.45-0.67c-1.2-0.6-2.37-1.26-3.5-1.99c-2.93-1.9-5.8-4.34-7.31-7.55
				c-1.39-2.96-1.46-7.04,0.98-9.48c5.65-5.65,14.76-4.5,21.54-1.98c-0.19-0.07,0.13-2.65,0.15-2.85c0.21-2.21,0.62-4.41,1.27-6.54
				c1.66-5.45,5.13-10.23,11.01-11.3c1.07-0.2,2.13-0.49,3.22-0.57c7.54-0.5,13.86,7.7,17.57,13.18c0.05,0.07,3.61-0.94,3.86-0.99
				c2.85-0.54,5.81-0.73,8.69-0.31c5.37,0.78,10.8,4.46,11.77,10.08c0.66,3.85-0.75,7.53-3.91,9.87c-2.74,2.03-6.19,2.99-9.51,3.54
				c0.59-0.1,1.17,3.96,1.19,4.27c0.13,2.38-0.51,4.73-1.58,6.84c-0.76,1.49-1.6,3-2.83,4.15c-1.48,1.37-3.29,1.77-5.23,2.06
				c-1.51,0.23-3.05,0.33-4.57,0.25c-3.76-0.18-7.42-1.49-10.18-4.11c-0.06-0.05-0.65-0.64-0.64-0.65
				c-3.37,3.02-7.48,6.03-11.86,7.33c-3.85,1.15-7.94,0.39-11.4-1.54C0.78,76.74-1.78,72.7-2.34,68z"/>
			<path class="st4" d="M268.65,59.59c-0.02-0.13-1.32-0.6-1.45-0.67c-1.2-0.59-2.37-1.26-3.5-1.99c-2.93-1.9-5.8-4.34-7.31-7.55
				c-1.39-2.96-1.46-7.04,0.98-9.48c5.65-5.65,14.76-4.5,21.54-1.98c-0.19-0.07,0.13-2.65,0.15-2.85c0.21-2.21,0.62-4.41,1.27-6.54
				c1.66-5.45,5.13-10.23,11.01-11.3c1.07-0.2,2.13-0.49,3.22-0.57c7.54-0.5,13.86,7.7,17.57,13.18c0.05,0.07,3.61-0.94,3.86-0.99
				c2.85-0.54,5.81-0.73,8.69-0.31c5.37,0.78,10.8,4.46,11.77,10.08c0.66,3.85-0.75,7.53-3.91,9.87c-2.74,2.03-6.19,2.99-9.51,3.54
				c0.59-0.1,1.17,3.96,1.19,4.27c0.13,2.38-0.51,4.73-1.58,6.84c-0.76,1.49-1.6,3-2.83,4.15c-1.48,1.37-3.29,1.77-5.23,2.06
				c-1.51,0.23-3.05,0.33-4.57,0.25c-3.76-0.18-7.42-1.49-10.18-4.11c-0.06-0.05-0.65-0.64-0.64-0.65
				c-3.37,3.02-7.48,6.03-11.86,7.33c-3.85,1.15-7.94,0.39-11.4-1.54C271.77,68.33,269.21,64.29,268.65,59.59z"/>
			<path class="st4" d="M-30.85,155.92c-0.01-0.07-0.75-0.34-0.82-0.38c-0.68-0.34-1.35-0.72-1.99-1.13
				c-1.66-1.08-3.3-2.47-4.16-4.3c-0.79-1.68-0.83-4.01,0.56-5.4c3.21-3.21,8.4-2.56,12.25-1.13c-0.11-0.04,0.08-1.51,0.09-1.62
				c0.12-1.26,0.35-2.51,0.72-3.72c0.94-3.1,2.92-5.82,6.26-6.43c0.61-0.11,1.21-0.28,1.83-0.32c4.29-0.29,7.89,4.38,9.99,7.5
				c0.03,0.04,2.05-0.54,2.2-0.56c1.62-0.31,3.3-0.42,4.94-0.18c3.06,0.45,6.15,2.54,6.7,5.74c0.38,2.19-0.42,4.28-2.22,5.62
				c-1.56,1.16-3.52,1.7-5.41,2.01c0.34-0.06,0.66,2.25,0.67,2.43c0.08,1.35-0.29,2.69-0.9,3.89c-0.43,0.85-0.91,1.71-1.61,2.36
				c-0.84,0.78-1.87,1.01-2.97,1.17c-0.86,0.13-1.73,0.19-2.6,0.14c-2.14-0.11-4.22-0.85-5.79-2.34c-0.03-0.03-0.37-0.36-0.37-0.37
				c-1.92,1.72-4.25,3.43-6.75,4.17c-2.19,0.65-4.51,0.22-6.49-0.88C-29.08,160.89-30.54,158.6-30.85,155.92z"/>
		</g>
	</g>
	<ellipse transform="matrix(0.866 -0.5 0.5 0.866 -97.938 111.449)" class="st5" cx="159" cy="238.48" rx="4.54" ry="2.83"/>
	<g>
		<polygon class="st6" points="217.89,227.3 223.21,231.28 224.72,225.7 212.31,186.52 205.44,187.93 		"/>
		<polygon class="st6" points="213.42,200.97 208.83,198.64 158.43,204.05 158.09,207.72 159.97,211.83 214.62,206.18 		"/>
		<polygon class="st6" points="116.53,240.39 112.94,241.07 113.46,236.88 155.61,208.32 157.07,209.52 155.7,213.96 		"/>
		<polygon class="st6" points="154.24,196.43 152.11,200.03 155.7,213.96 160.49,213.96 157.07,196.43 		"/>
		<path class="st6" d="M158.08,235.56l-5.04-31.89l5.59,5.23l1.86,2.44l1.93,23.72c0.1,1.25-0.89,2.32-2.14,2.32h-0.07
			C159.15,237.37,158.25,236.61,158.08,235.56z"/>
	</g>
	<g>
		<path class="st7" d="M109.59,213.79c-15.62,0-28.28,12.66-28.28,28.28c0,15.62,12.66,28.28,28.28,28.28
			c15.62,0,28.28-12.66,28.28-28.28C137.87,226.46,125.21,213.79,109.59,213.79z M109.59,264.33c-12.29,0-22.25-9.96-22.25-22.25
			c0-12.29,9.96-22.25,22.25-22.25c12.29,0,22.25,9.96,22.25,22.25C131.85,254.37,121.88,264.33,109.59,264.33z"/>
		<circle class="st8" cx="109.5" cy="241.67" r="7.12"/>
		<circle class="st9" cx="109.5" cy="241.67" r="5.21"/>
		<path class="st10" d="M109.59,219.95c-12.22,0-22.13,9.91-22.13,22.13c0,12.22,9.91,22.13,22.13,22.13s22.13-9.91,22.13-22.13
			C131.72,229.85,121.81,219.95,109.59,219.95z M109.59,263.18c-11.65,0-21.1-9.45-21.1-21.1c0-11.65,9.45-21.1,21.1-21.1
			s21.1,9.45,21.1,21.1C130.69,253.73,121.25,263.18,109.59,263.18z"/>
		<path class="st7" d="M222.07,204.05c-15.62,0-28.28,12.66-28.28,28.28c0,15.62,12.66,28.28,28.28,28.28
			c15.62,0,28.28-12.66,28.28-28.28C250.36,216.71,237.69,204.05,222.07,204.05z M222.07,254.58c-12.29,0-22.25-9.96-22.25-22.25
			c0-12.29,9.96-22.25,22.25-22.25c12.29,0,22.25,9.96,22.25,22.25C244.33,244.62,234.36,254.58,222.07,254.58z"/>
		<circle class="st8" cx="222.07" cy="231.24" r="7.12"/>
		<circle class="st9" cx="222.07" cy="231.24" r="5.21"/>
		<path class="st10" d="M222.07,210.2c-12.22,0-22.13,9.91-22.13,22.13s9.91,22.13,22.13,22.13s22.13-9.91,22.13-22.13
			S234.29,210.2,222.07,210.2z M222.07,253.43c-11.65,0-21.1-9.45-21.1-21.1s9.45-21.1,21.1-21.1s21.1,9.45,21.1,21.1
			S233.73,253.43,222.07,253.43z"/>
	</g>
	<g>
		<path class="st11" d="M205.63,188.31l-4.81-13.02c0,0-7.05,0.38-4.1-6.48c0,0,7.63-7.63,11.48-2.76c0,0,2.63,5.84-0.83,6.93
			l5.13,13.92L205.63,188.31z"/>
		<path class="st12" d="M201.46,169.16c-1.03,0.62-2.08,1.21-3.15,1.75c-2.87,1.44-5.79,2.78-8.72,4.1c-2.24,1-4.5,1.97-6.8,2.81
			c-1.41,0.52-2.82,1.12-4.32,1.31c-1.26,0.16-3.28-0.06-4.23-1.01c-0.74-0.74-0.56-1.98-0.11-2.82c0.63-1.19,1.85-1.41,3.02-1.85
			c3.47-1.33,6.92-2.7,10.35-4.15c7.14-3.02,13.62-7.5,20.09-11.71c1.45-0.95,2.92-1.01,4.06,0.42c0.82,1.02,1.25,2.65,0.42,3.79
			c-0.63,0.85-1.66,1.32-2.49,1.92C206.97,165.59,204.24,167.49,201.46,169.16z"/>
	</g>
	<path class="st13" d="M167.7,188.32c1.57,3.35-2.46,7.71-12.49,10.79c-4.33,1.33-11.83,5.39-15.63,1.12
		c-1.29-1.45-1.78-3.57-1.25-5.43c0.68-2.39,2.76-3.59,4.85-4.57c2.51-1.17,5.29-1.81,8.02-2.24
		C159.61,186.63,166.31,185.36,167.7,188.32z"/>
	<path class="st14" d="M161.49,219.07c-10.39,0-18.81,8.42-18.81,18.81c0,10.39,8.42,18.81,18.81,18.81
		c10.39,0,18.81-8.42,18.81-18.81C180.3,227.49,171.88,219.07,161.49,219.07z M161.49,249.81c-6.59,0-11.94-5.34-11.94-11.94
		c0-6.59,5.34-11.94,11.94-11.94c6.59,0,11.94,5.34,11.94,11.94C173.43,244.47,168.08,249.81,161.49,249.81z"/>
	<path class="st15" d="M149.68,237.75l-1.54-6.16c0,0,14.62-19.07,17.1-19.84l1.71-5.64l6.41,3.93c0,0,0.17,4.28-2.74,6.93
		l-18.56,22.32L149.68,237.75z"/>
	<path class="st15" d="M165.98,226.99l16.5-24.03l-4.53-3.68l7.18-4.96c0,0,5.9,2.31,4.45,7.01l-1.03,4.53l-18.13,26.46
		L165.98,226.99z"/>
	<g>
		<path class="st16" d="M146.12,236.16c0,0-2.74,0.64-1.5,4.15c0,0,3.42,5.43,8.21,8.68c0,0,3.38,0.98,4.62-2.48L146.12,236.16z"/>
		<path class="st14" d="M152.77,245.66c-1.82-1.88-5.04-5.55-6.15-8.99c0,0-1.33-4.7,2.22-6.33c0,0,1.99,3.53,5.57,5.17
			c0.27,0.12,0.5,0.31,0.65,0.55c1.32,2.02,2.76,3.88,4.37,5.53c0.75,0.77,1.05,1.86,0.81,2.9c-0.31,1.32-1.18,2.82-3.51,2.87
			C155.24,247.4,153.82,246.73,152.77,245.66z"/>
	</g>
	<ellipse class="st5" cx="167.55" cy="241.56" rx="4.91" ry="4.4"/>
	<g>
		<path class="st16" d="M164.58,230.77c0,0-2.74,0.64-1.5,4.15c0,0,3.42,5.43,8.21,8.68c0,0,3.38,0.98,4.62-2.48L164.58,230.77z"/>
		<path class="st14" d="M170.73,239.76c-1.82-1.88-5.04-5.55-6.15-8.99c0,0-1.33-4.7,2.22-6.33c0,0,1.99,3.53,5.57,5.17
			c0.27,0.12,0.5,0.31,0.65,0.55c1.32,2.02,2.76,3.88,4.37,5.53c0.75,0.77,1.05,1.86,0.81,2.9c-0.31,1.32-1.18,2.82-3.51,2.87
			C173.19,241.5,171.77,240.84,170.73,239.76z"/>
	</g>
	<path class="st17" d="M159.49,179.39c0,0,24.37,9.83,26.59,14.02c0,0-4.1,8.89-6.58,10.69l-20.86-12.36L159.49,179.39z"/>
	<path class="st18" d="M178.9,207.69l-5.64,2.82l-8.04,1.28l-2.48-0.37c0,0-0.17-4.59-8.98-15.53c0,0-17.36,4.1-19.5-11.03
		l12.91-11.37l14.96,3.25l1.62,8.12C163.76,184.86,177.87,202.56,178.9,207.69z"/>
</g>
<path class="st19" d="M158.53,150.91c0,0,12.89,15.39,37.39,11.93c0,0,3.66-6.22,10.58-2.18c0,0,2.82,2.82-2.12,6.99l-5.26-3.91
	l-7.18,3.14c0,0-18.6,4.3-37.58-10.65l0.51-5.84L158.53,150.91z"/>
<path class="st20" d="M156.87,158.7c0,0,4.36-3.51,5.22-7.27c0,0-10.18-12.14-15.82-14.96l7.27,21.46L156.87,158.7z"/>
<path class="st21" d="M164.14,178.97c0,0-19.79,8.47-34.12,8.59c0,0-14.79-25.01-0.94-52.29l9.24-9.58l9.32,6.84
	C151.3,148.64,156.56,164.78,164.14,178.97z"/>
<path class="st19" d="M176.07,177.11c0,0,2.37,6.99,9.11,4.04c0,0,7.89-5.52-0.38-10.97c0,0-7.02-1.28-9.33,3.14
	c0,0-15.94-0.77-25.24-9.24l-8.98-1.92l4.1,7.82C145.35,169.99,155.35,180.38,176.07,177.11z"/>
<g>
	<path class="st22" d="M134.63,125.17l0.34,8.25c0,0,8.17,1.33,9.66,0l-0.3-7.01L134.63,125.17z"/>
	<g>
		<g>
			<path class="st23" d="M162.41,128.4c0,0,3.61,5.71,9.87,4.3c0,0,11.58-2.1,10.42-19.98c-0.01-0.17,0.38-0.64,0.46-0.79
				c0.38-0.75,0.68-1.54,0.92-2.35c0.85-2.88,0.86-5.96,0.29-8.89c-0.33-1.71-0.86-3.38-1.53-4.99c-0.52-1.26-1.03-2.68-2.02-3.69
				c-1.17-1.19-3.08-1.61-4.68-1.75c-0.53-0.05-3.51-0.14-3.69,0.56C172.46,90.82,162.41,128.4,162.41,128.4z"/>
			
				<ellipse transform="matrix(0.8099 -0.5866 0.5866 0.8099 -41.1282 124.3362)" class="st24" cx="171.26" cy="125.62" rx="7.79" ry="4.73"/>
		</g>
		<g>
			<path class="st25" d="M180.35,109.29c1.16,14.94-9.15,22.33-26.69,21.2c-15.78-1.01-27.95-8.55-27.36-21.25
				c0.54-11.72,12.26-20.77,27.36-21.25C169.43,87.49,179.39,96.94,180.35,109.29z"/>
			<path class="st26" d="M179.12,109.89c0.31,8.41-6.61,16.45-14.96,16.83c-9.14,0.42-21.77-4.35-20.62-13.95
				c0.96-8.06,10.22-16.53,18.84-16.55C170.74,96.21,178.82,101.77,179.12,109.89z"/>
			<g>
				<ellipse class="st27" cx="164.56" cy="108.41" rx="5.11" ry="2.12"/>
				<path class="st28" d="M146.57,108.95c-0.34-1.66-0.44-3.46-0.05-5.11c0.21-0.9,0.69-1.86,1.38-2.48
					c1.59-1.44,3.65-0.32,4.43,1.39c0.87,1.9,0.61,4.23,0.24,6.21"/>
				<path class="st28" d="M172.28,108.95c-0.51-2.52-0.63-6.38,1.85-7.92c1.44-0.89,3.12,0.17,3.82,1.52
					c0.99,1.92,0.71,4.37,0.33,6.4"/>
				<ellipse class="st29" cx="166.92" cy="108.2" rx="1.81" ry="0.75"/>
				<ellipse class="st30" cx="145.63" cy="116.54" rx="6.5" ry="6.24"/>
				<path class="st31" d="M176.05,114.15c3.52,4.92-4.21,12.36-14.13,11.61c-7.66-0.58-14.54-3.72-14.77-7.41
					c-0.51-8.39,5.42-6.23,13.98-4.44C169.23,115.6,173.71,110.87,176.05,114.15z"/>
				<path class="st32" d="M168.79,124.96c-0.75-1.98-3.05-2.38-4.92-2.27c-0.4,0.02-0.8,0.05-1.2,0.13
					c-0.32,0.07-0.62,0.19-0.95,0.23c-0.61,0.08-1.23-0.03-1.83-0.15c-1.16-0.24-2.46-0.68-3.6-0.13c-0.22,0.11-0.42,0.25-0.61,0.41
					c-0.36,0.32-0.66,0.8-0.72,1.29c0,0,0.21,0.11,1.16,0.34c1.53,0.38,4.33,0.97,6.37,1.02c0,0,1.37,0.05,3.02-0.14
					c0.49-0.06,1.05-0.13,1.56-0.24C167.67,125.3,168.23,125.13,168.79,124.96z"/>
				<path class="st33" d="M157.4,114.67c-0.13,1.26-1.43,2.13-3.54,2.09c-2.02-0.03-3.69-0.84-3.66-2.08
					c0.03-1.6,0.49-2.29,1.53-2.43c0.54-0.07,1.16,0.03,2.05,0.13C155.94,112.63,157.6,112.69,157.4,114.67z"/>
				<path class="st33" d="M175.19,114.65c0.28,1.23-2.53,3.64-6.19,3.73c-3.93,0.1-6.37-0.88-6.51-2.07
					c-0.25-2.26,0.36-2.05,2.41-2.05c1,0,1.59-0.16,3.18-0.33c0.73-0.08,2.37-0.41,3.02-0.58
					C173.17,112.84,174.73,112.62,175.19,114.65z"/>
			</g>
		</g>
		<g>
			<g>
				<path class="st34" d="M136.02,105.8c0,0,4.23-2.05,5.71-5.39c0,0,0.58,4.17,5.64-2.44c0,0,0.83,6.61,8.98-2.24
					c0,0,0.26,5.96,5.19,0.77c0,0,1.03,6.29,5.07-0.77c0,0,3.01,6.86,6.29,0.64c0,0,6.03,5.58,7.95,1.48c0,0-0.71-3.14-6.73-6.16
					l-32.07,3.53l-4.43,1.92L136.02,105.8z"/>
				<path class="st35" d="M173.91,91.29l6.33,4.57c0,0-0.21,4.06-7.44-0.81c0,0-2.52,5.86-6.29-0.68c0,0-3.98,6.24-4.75,0.38
					c0,0-4.53,5.47-4.92-0.56c0,0-7.91,7.95-8.94,1.71c0,0-4.1,6.15-5.3,2.39c0,0-4.1,5.78-6.93,4.06l3.29-7.14l22.23-3.93H173.91z"
					/>
			</g>
			<path class="st36" d="M174.54,92.37c0,0-39.93-2.57-38.31,13c0,0-2.22,19.16-1.11,24.29c0,0-1.2,6.07-8.73-0.09
				c-2.29-2.87-4.22-6.31-5.28-9.82c-0.89-2.95-0.52-6.02-0.72-9.06c-0.22-3.39-0.65-6.76-0.86-10.15
				c-0.69-10.8,1.83-23.09,11.49-29.46c0.97-0.64,1.99-1.2,3.05-1.67c3.22-1.43,6.83-2.27,10.25-3.05
				c3.59-0.81,7.27-1.26,10.96-0.92c6.89,0.64,13.19,3.73,17.98,8.71l5.55,15.31l-3.75,2.9"/>
			<path class="st37" d="M134.4,131.04c0,0-10.43-7.18-8.38-16.33c0.08-2.06,0.15-4.13,0.23-6.19c0.14-3.96,0.29-7.92,0.43-11.88
				c0.11-2.93-0.01-5.88,0.54-8.8c0.61-3.19,2.1-5.7,3.85-8.38c0.93-1.42,1.92-2.79,3.2-3.92c1.36-1.2,2.65-2.44,4.1-3.53
				c4.09-3.06,8.83-5.38,13.91-6.13c1.07-0.16,2.15-0.25,3.23-0.26c0.61-0.01,1.21-0.06,1.82-0.03c1.64,0.09,3.26,0.43,4.82,0.93
				c2.42,0.78,4.7,1.96,6.79,3.41c0.87,0.6,1.7,1.26,2.5,1.94c0.81,0.69,1.69,1.37,2.18,2.34c0.58,1.15,0.87,2.49,1.3,3.71
				c0.65,1.85,1.29,3.71,1.94,5.56c0.53,1.53,1.06,3.05,1.59,4.58c0.02,0.07,0.44,1.13,0.4,1.15c0,0-3.75,2.9-3.75,2.9
				s-34.64-0.56-36.1,6.18c0,0-3.85-1.73-3.76,30.17C135.25,128.47,135.25,130.78,134.4,131.04z"/>
		</g>
		<g>
			<ellipse class="st38" cx="123.78" cy="100" rx="9.45" ry="14.34"/>
			<path class="st39" d="M127.75,112.72c-0.67,0.17-1.23-0.39-1.72-0.97c-0.42-0.51-0.72-1.11-0.9-1.74
				c-0.38-1.3-0.35-2.69-0.22-4.02c0.15-1.55,0.63-3.04,0.83-4.58c0.18-1.34,0.15-2.71,0.12-4.06c-0.04-1.92-0.1-3.86-0.58-5.72
				c-0.12-0.47-0.27-0.93-0.28-1.41c-0.02-1.12,1.06-2.02,2.03-2.39c1.39-0.53,2.56,0.67,3.29,1.71c0.41,0.58,0.9,1.43,1.13,2.09
				c0.61,1.73,1.18,3.3,1.5,5.11c0.48,2.76,0.18,5.86-0.47,8.59c-0.61,2.58-2.07,5.57-4.28,7.16
				C128.05,112.61,127.9,112.68,127.75,112.72z"/>
			<ellipse class="st40" cx="118.17" cy="101.75" rx="5.54" ry="10.6"/>
			<ellipse class="st41" cx="119.62" cy="101.46" rx="4.09" ry="10.07"/>
		</g>
		<rect x="154.34" y="81.49" class="st42" width="9.33" height="3.37"/>
		<g>
			<path class="st43" d="M186.97,85.74c-1.17,5.32-7.33,5.58-14.1,3.83c-7.31-1.88-10.52-5.74-9.41-11.18
				c0.87-4.29,6.45-6.19,14.1-3.83C184.06,76.56,187.9,81.5,186.97,85.74z"/>
			<path class="st44" d="M185.41,82.57c-0.39,5.26-5.3,5.75-11.81,4.01c-6.64-1.78-11.28-4.22-10.2-8.19
				c0.95-3.49,6-5.71,12.18-4.77C181.76,74.56,185.67,78.96,185.41,82.57z"/>
			<path class="st45" d="M183.28,82.82c-0.71,2.27-4.87,2.83-9.38,1.59c-4.63-1.27-7.61-4.3-6.8-6.65c0.77-2.25,4.91-2.99,9.38-1.59
				C180.94,77.57,183.99,80.55,183.28,82.82z"/>
			<path class="st46" d="M182.07,83.22c-0.75,2.04-3.33,2.07-7.82,0.96c-4.66-1.15-6.79-3.21-5.99-5.56
				c0.77-2.25,3.8-1.78,8.27-0.38C181,79.64,182.89,80.98,182.07,83.22z"/>
			<path class="st43" d="M132.94,87.81c1.27,5.64,7.99,5.91,15.38,4.06c7.97-2,11.47-6.09,10.26-11.86
				c-0.95-4.54-7.03-6.57-15.38-4.06C136.11,78.08,131.92,83.31,132.94,87.81z"/>
			<path class="st44" d="M134.64,84.44c0.43,5.58,5.78,6.1,12.88,4.25c7.23-1.88,12.3-4.48,11.12-8.69
				c-1.03-3.7-6.54-6.06-13.28-5.06S134.35,80.61,134.64,84.44z"/>
			<path class="st45" d="M136.96,84.64c0.78,2.43,5.3,3.03,10.23,1.7c5.04-1.36,8.3-4.59,7.42-7.11c-0.84-2.41-5.35-3.19-10.23-1.7
				C139.51,79.03,136.18,82.21,136.96,84.64z"/>
			<path class="st46" d="M138.28,85.11c0.82,2.18,3.64,2.22,8.53,1.03c5.08-1.23,7.41-3.43,6.53-5.94c-0.84-2.41-4.15-1.9-9.02-0.41
				C139.45,81.28,137.38,82.72,138.28,85.11z"/>
		</g>
	</g>
</g>
<path class="st47" d="M115.34,156.44c0,0-3.33-0.26-5.73,8.81c0,0-1.31,10.52,3.32,18.04c0,0,5.15,4.62,9.85,1.37L115.34,156.44z"/>
<path class="st48" d="M138.82,183.19c0,0-7.78,9.49-17.44,1.37c0,0-10.95-13.17-6.76-30.01c0,0,2.82-23.17,17.79-22.32
	L138.82,183.19z"/>
<path class="st49" d="M153.25,153.02c0,0,4.1-10.77-4.28-14.88L153.25,153.02z"/>
<path class="st50" d="M126.99,161.38h-3.51c0,0-0.94-23,6.41-29.16l2.65-0.68C132.55,131.54,124.77,141.03,126.99,161.38z"/>
<path class="st49" d="M127.51,175.86c0,0,10.18-4.19,11.37-14.45c0,0,0.51-11.37-6.16-11.63c0,0-6.29,1.13-6.48-3.36
	c0,0-0.19-5.13,8.72-4.43c0,0,10.84-0.58,11.22,15.14c0,0,3.82,18.73-15.17,26.62C130.8,184.46,125.29,178.98,127.51,175.86z"/>
<path class="st20" d="M151.57,162.16c0,0-6.91,9.71-8.11,9.85c-0.29-0.13-0.58-0.57-0.79-0.79c-0.66-0.68-1.31-1.38-1.94-2.08
	c-1.83-2.05-3.58-4.19-5.08-6.5c-1.39-2.12-2.84-4.65-2.76-7.27c0.09-2.77,2.59-5.42,5.47-4.8c2.03,0.44,3.85,1.75,5.42,3.05
	C146.73,156.09,149.24,159.11,151.57,162.16z"/>
</svg>
