<?xml version="1.0" encoding="utf-8"?>
<!-- Generator: Adobe Illustrator 26.0.3, SVG Export Plug-In . SVG Version: 6.00 Build 0)  -->
<svg version="1.1" id="Layer_1" xmlns="http://www.w3.org/2000/svg" xmlns:xlink="http://www.w3.org/1999/xlink" x="0px" y="0px"
	 viewBox="0 0 300 300" style="enable-background:new 0 0 300 300;" xml:space="preserve">
<style type="text/css">
	.st0{fill:#B3DBF2;}
	.st1{fill:url(#SVGID_1_);stroke:#D0D2D3;stroke-miterlimit:10;}
	.st2{fill:url(#SVGID_00000117643147554397753270000003040408799719277986_);stroke:#D0D2D3;stroke-miterlimit:10;}
	.st3{fill:#FFFFFF;}
</style>
<g>
	<rect x="0.29" y="0.77" class="st0" width="299.23" height="299.23"/>
</g>
<g>
	<g>
		<linearGradient id="SVGID_1_" gradientUnits="userSpaceOnUse" x1="39.3883" y1="150" x2="224.591" y2="150">
			<stop  offset="0" style="stop-color:#541F5B"/>
			<stop  offset="0.4553" style="stop-color:#1D7491"/>
			<stop  offset="1" style="stop-color:#112144"/>
		</linearGradient>
		<path class="st1" d="M224.59,111.71c0,14.06-4.01,27.18-10.95,38.29c-12.78-20.44-35.49-34.04-61.37-34.04
			c-25.89,0-48.59,13.6-61.37,34.04c-6.94,11.1-10.95,24.22-10.95,38.29c0,39.58,31.8,71.74,71.24,72.32
			c-0.4,0.01-0.79,0.01-1.18,0.01c-61.09,0-110.61-49.53-110.61-110.61S88.91,39.39,150,39.39c0.4,0,0.79,0,1.18,0.01
			c3.55,0.03,7.06,0.24,10.53,0.6C197.2,44.63,224.59,74.97,224.59,111.71z"/>
	</g>
	
		<linearGradient id="SVGID_00000160170905469511218680000007288253037437059735_" gradientUnits="userSpaceOnUse" x1="79.9403" y1="150.3021" x2="260.6117" y2="150.3021">
		<stop  offset="0" style="stop-color:#112144"/>
		<stop  offset="0.5447" style="stop-color:#1D7491"/>
		<stop  offset="1" style="stop-color:#541F5B"/>
	</linearGradient>
	<path style="fill:url(#SVGID_00000160170905469511218680000007288253037437059735_);stroke:#D0D2D3;stroke-miterlimit:10;" d="
		M260.61,150c0,57.14-43.32,104.15-98.9,110c-3.47,0.36-6.98,0.57-10.53,0.6c-39.45-0.58-71.24-32.73-71.24-72.32
		c0-14.06,4.01-27.18,10.95-38.29c12.78,20.44,35.49,34.04,61.37,34.04c25.88,0,48.59-13.6,61.37-34.04
		c6.94-11.1,10.95-24.22,10.95-38.29c0-36.74-27.4-67.08-62.87-71.71C217.29,45.85,260.61,92.86,260.61,150z"/>
</g>
<path class="st3" d="M162.5,268.6c-3.32,0.44-6.71,0.66-10.15,0.66c-0.39,0-0.78-0.01-1.16-0.01
	C155,269.22,158.77,268.99,162.5,268.6z"/>
</svg>
