<?xml version="1.0" encoding="utf-8"?>
<!-- Generator: Adobe Illustrator 26.0.3, SVG Export Plug-In . SVG Version: 6.00 Build 0)  -->
<svg version="1.1" id="Layer_1" xmlns="http://www.w3.org/2000/svg" xmlns:xlink="http://www.w3.org/1999/xlink" x="0px" y="0px"
	 viewBox="0 0 300 300" style="enable-background:new 0 0 300 300;" xml:space="preserve">
<style type="text/css">
	.st0{fill:#FFFFFF;}
	.st1{fill:#FFFDFD;stroke:#231F20;stroke-miterlimit:10;}
	.st2{fill:#D6B280;}
	.st3{fill:#D5AA79;}
	.st4{fill:#231F20;}
	.st5{fill:none;stroke:#231F20;stroke-linejoin:round;stroke-miterlimit:10;}
	.st6{fill:#D6AF7C;stroke:#231F20;stroke-miterlimit:10;}
	.st7{fill:#FFFBFB;stroke:#231F20;stroke-miterlimit:10;}
	.st8{fill:none;stroke:#231F20;stroke-linecap:round;stroke-linejoin:round;stroke-miterlimit:10;}
	.st9{fill:none;stroke:#231F20;stroke-miterlimit:10;}
	.st10{fill:#341E11;stroke:#231F20;stroke-miterlimit:10;}
	.st11{fill:#D9AD79;}
	.st12{fill:#D9AD79;stroke:#231F20;stroke-linecap:round;stroke-linejoin:round;stroke-miterlimit:10;}
	.st13{fill:#6A3B18;stroke:#231F20;stroke-width:1;stroke-miterlimit:10.0003;}
	.st14{fill:#6A3B18;stroke:#231F20;stroke-miterlimit:10;}
	.st15{fill:none;stroke:#231F20;stroke-width:0.75;stroke-linecap:round;stroke-linejoin:round;stroke-miterlimit:10;}
	.st16{fill:#6A3B18;stroke:#231F20;stroke-width:1;stroke-miterlimit:9.9996;}
</style>
<rect class="st0" width="300" height="300"/>
<g>
	<g>
		<g>
			<path class="st1" d="M244.22,229.57c-2.84,5.17-8.2,8.33-13.24,11.11c-0.61,0.32-1.23,0.68-1.84,1c-0.03,0.03-0.1,0.03-0.13,0.06
				l-0.23,0.1c-5.65,3.1-11.6,5.65-17.61,7.95c-0.87,0.32-1.71,0.65-2.58,0.97l0,0c-4.07,1.45-8.11,2.62-12.4,3.23
				c-0.55,0.1-1.13,0.16-1.68,0.23c-1.29,0.13-2.58,0.26-3.88,0.32c-4.43,0.26-8.88,0.16-13.31,0c-7.62-0.32-15.25-0.84-22.87-1.62
				c-7.59-0.78-15.18-1.81-22.71-3.1c-7.24-1.26-14.44-2.78-21.55-4.68c-0.03,0-0.03,0-0.06,0c-4.78-1.26-9.53-2.68-14.21-4.3
				c-6.85-2.36-13.6-5.07-20.12-8.3c-0.1-0.03-0.19-0.1-0.32-0.16c-2.29-1.13-4.59-2.33-6.82-3.59
				c-7.04-3.94-13.73-8.53-19.87-13.83c-5.01-4.33-9.59-9.14-13.63-14.37c-2.46-3.23-4.72-6.62-6.69-10.18
				c-1.42-2.55-2.71-5.2-3.88-7.98l0,0c-1-2.42-1.91-4.91-2.68-7.46c-1.2-4.04-2.75-8.33-2.23-12.63c0.61-5.07,4.97-8.53,8.88-11.31
				c3.75-2.65,8.04-4.52,12.44-5.75c8.27-2.33,17.02-2.81,25.55-2.62c10.11,0.23,20.22,1.52,30.17,3.29c1.81,0.32,3.62,0.68,5.43,1
				l0,0c8.82,1.74,17.54,3.84,26.23,6.2c5.72,1.42,11.4,3.04,17.06,4.81c9.92,3.04,19.7,6.53,29.4,10.01c8.33,3,16.6,6.2,24.81,9.53
				c0.74,0.29,1.45,0.58,2.2,0.9c8.53,3.49,17.15,6.95,24.78,12.18c6.53,4.49,12.21,10.18,15.89,17.22c1.36,2.62,2.49,5.52,3.13,8.5
				C246.64,220.85,246.48,225.47,244.22,229.57z"/>
			<path class="st2" d="M157.13,197.07c0,4.91-1,9.01-2.94,12.34c-1.91,3.33-4.68,5.94-8.3,7.85l0,0
				c-8.82,4.78-22.48,5.62-39.54,3.81c-22.22-2.39-67.58-30.4-75.46-50.2c-3-7.59,7.56-12.82,22.87-16.44
				c0.94-0.19,1.91-0.42,2.91-0.65c1.49-0.32,3.04-0.65,4.59-0.94c12.99-2.46,28.04-4.04,40.93-5.04l0,0
				c8.82,1.71,17.54,3.81,26.23,6.14c5.72,1.42,11.4,3.04,17.06,4.75C154.06,169.13,157.13,184.51,157.13,197.07z"/>
			<path class="st3" d="M245.06,216.58c-1.94,7.37-8.46,13.86-8.46,13.86c-15.57,13.21-17.09,9.37-17.09,9.37
				c-0.9-1.71,0.9-4.04,3.55-6.27c4.46-3.78,11.27-7.3,11.27-7.3c4.49-8.2-1.52-10.34-1.52-10.34
				c-20.42-6.85-34.79,17.61-36.89,21.48c-0.19,0.32-0.29,0.52-0.29,0.52l-21.03-0.94l-5.78-0.84l-35.66-5.1l-1.36-0.19l0.1-0.06
				l13.92-13.31l8.24-7.88l28.62-27.3c5.94-2.71,11.47-3.94,16.64-4.1c0.74,0.29,1.45,0.58,2.16,0.87
				c8.46,3.46,17.06,6.88,24.65,12.05c6.49,4.43,12.15,10.08,15.8,17.06C243.28,210.77,244.41,213.61,245.06,216.58z"/>
			<g>
				<path class="st4" d="M25.2,163.15c20.64,35.02,59.99,53.78,97.97,63.8c30.27,7.72,61.73,9.66,92.87,10.14
					c-17.93,0.97-35.82,0.87-53.75-0.45C110.39,231.22,50.82,212.58,25.2,163.15L25.2,163.15z"/>
			</g>
			<path class="st3" d="M194.7,254.02c-3.81,0.52-7.66,0.78-11.53,0.71c-1.97-0.03-3.94-0.1-5.94-0.19
				c-7.62-0.32-15.25-0.84-22.87-1.62c-7.59-0.78-15.18-1.81-22.71-3.1c-7.24-1.26-14.44-2.78-21.55-4.68c-0.03,0-0.03,0-0.06,0
				c-4.78-1.26-9.53-2.68-14.21-4.3c-6.85-2.36-13.6-5.07-20.12-8.3c-0.1-0.03-0.19-0.1-0.32-0.16
				c-16.8-8.82-39.86-25.03-50.33-50.04c0.78,0.29,25.62,9.98,41.77,38.28c0,0,64.19,51.56,163.81,17.48c0.39-0.06,0.9-0.16,1.26,0
				c0.23,0.1,0.26,0.29,0.16,0.52c-0.16,0.36-0.55,0.68-0.84,0.94c-0.55,0.45-1.1,0.87-1.71,1.26c-0.81,0.52-1.62,1.03-2.42,1.52
				c-1,0.58-2,1.13-3.04,1.68c-1.16,0.61-2.33,1.2-3.49,1.78c-1.26,0.61-2.55,1.2-3.84,1.78c-1.36,0.58-2.71,1.16-4.07,1.68
				c-1.36,0.55-2.75,1.03-4.13,1.52c-1.36,0.45-2.71,0.9-4.1,1.29C201.25,252.89,197.99,253.57,194.7,254.02z"/>
			<path class="st5" d="M188.75,240.42c0,0,17.8,2.78,25.39,0"/>
			<path class="st5" d="M219.18,234.19c0,0,13.83-1.45,19.83-7.46"/>
			<path class="st5" d="M216.08,232.73c0,0,7.82-0.23,11.92-4.46"/>
			<path class="st5" d="M211.37,231.28c0,0,13.7-0.61,19.35-7.11"/>
			<path class="st5" d="M219.18,206.86c0,0-5.43,10.21-13.34,11.08"/>
			<path class="st5" d="M216.08,204.95c0,0-6.01,10.11-13.83,9.01"/>
			<path class="st5" d="M214.14,200.27c0,0-4.68,9.63-14.92,10.82"/>
			<path class="st5" d="M212.53,194.84c0,0-7.04,12.02-15.21,12.76"/>
			<path class="st5" d="M34.35,189.54c0,0,7.82,11.82,15.15,12.76"/>
			<path class="st5" d="M38.58,198.82c0,0,8.04,9.5,16.7,9.27"/>
			<path class="st5" d="M52.05,147.84c0,0,4.2,18.28,13.12,23.32"/>
			<path class="st5" d="M56.02,148.55c0,0-0.52,8.79,9.11,18.03"/>
			<path class="st5" d="M61.54,147.84c0,0-2.39,7.69,5.17,11.66"/>
			<path class="st5" d="M46.91,208.67c0,0,8.59,7.82,18.22,7.2"/>
			<path class="st5" d="M176.74,246.43c0,0,14.92,3.36,25.49,0"/>
			<path class="st5" d="M183.49,243.55c0,0,14.18,3,25.39,0.61"/>
		</g>
		<g>
			<g>
				<path class="st6" d="M63.06,91.63c0,0-11.21-6.23-12.18,10.21c0,0-2.62,27.88,17.22,35.08l-2.26,11.47l-16.51-13.53l-7.95-23.1
					l2.87-22.35l9.11-8.11l9.46,3.68L63.06,91.63z"/>
				<path class="st7" d="M79.02,90.47c0,0-17.31-22.13-34.27-5.17c0,0-25.81,38.73,29.4,76.98l-7.2-16.96
					c0,0-30.49-11.02-20.74-51.78c0,0,3.62-24.36,26.52,10.82L79.02,90.47z"/>
				<g>
					<path class="st8" d="M50.01,127.91c0,0,2.71,6.75,9.76,10.21"/>
					<path class="st8" d="M51.82,127.91c0,0,5.49,9.11,9.82,10.21"/>
					<path class="st8" d="M53.99,127.91c0,0,3.26,7.14,10.01,10.21"/>
					<path class="st8" d="M47.04,101.03c0,0-1.16-9.66,6.14-12.28"/>
					<path class="st8" d="M48.3,104.72c0,0-1.26-12.08,3.52-12.99"/>
					<path class="st8" d="M50.63,107.98c0,0-3.26-13.89,1.16-14.08"/>
				</g>
			</g>
			<path class="st8" d="M37.96,81.26c0,0-1.62-7.72,7.59-8.37"/>
			<path class="st8" d="M35.35,77.97c0,0,0.65-8.46,8.11-8.2"/>
		</g>
		<path class="st7" d="M77.34,197.81c0,0-25.75-48.58-2.87-108.25l8.17-6.49c0,0,41.12-11.79,99.82,13.7c0,0,52.2,17.09,45.22,38.47
			c0,0-12.99,77.46-71.68,91.39C156,226.66,116.78,232.93,77.34,197.81z"/>
		<path class="st9" d="M225.51,123c3.84,21.9-73.84,3.36-73.84,3.36C70.14,105.2,78.76,86.11,78.76,86.11"/>
		<g>
			<path class="st10" d="M102.83,108.53c0,0,5.65-15.02,26.33-1.81c0.48,0.32,3.46-5.14,3.62-5.49c1.91-4.52,3.68-8.95,8.3-11.31
				c1.49-0.74,3.33-1,4.78-0.23c1.45,0.78,2.29,2.42,2.39,4.07c0.1,1.65-0.48,3.26-1.26,4.68c-0.78,1.39-3.91,4.33-2.52,6.01
				c2.16,2.65,8.95-2.81,10.76-4.1c5.56-3.97,10.76-8.3,15.12-13.6c2.71-3.29,4.46-7.53,7.91-10.18c3.1-2.39,7.49-2.39,10.53,0.06
				c3.29,2.65,3.84,7.79,1.78,11.4c-1.45,2.52-3.94,4.13-5.88,6.23c-2,2.13-3.65,5.3-3.68,8.3c0.94-0.55,2.23-0.71,3.33-0.74
				c1.07-0.03,2.13,0.26,2.94,0.94c1.13,0.97,1.45,2.58,1.29,4.04c-0.39,3.17-2.94,5.1-3.81,7.98c-0.45,1.45,0.9,1.2,1.97,2.2
				c0.97,0.94,1.62,2.23,1.71,3.59c0.06,1.58-0.55,3.1-1.29,4.49c-0.9,1.68-4.75,3.42-3.33,4.72c6.56,5.94-40.93-4.43-59.99-12.08
				C116.75,114.86,108.77,113.7,102.83,108.53z"/>
			<g>
				<circle class="st10" cx="206.65" cy="69.18" r="5.17"/>
				<path class="st10" d="M229.13,85.33c0,3.91-3.46,5.72-7.17,7.07c-6.23,2.29-10.27-0.06-7.17-7.07c1.58-3.59,3.2-7.07,7.17-7.07
					S229.13,81.43,229.13,85.33z"/>
			</g>
			<path class="st8" d="M183.49,79.59c0,2.16-0.94,4.33-2.2,6.07c-2.13,3-6.11,4.94-7.59,8.46c-1.62,3.81,1.03,7.27,4.23,9.08"/>
		</g>
	</g>
	<path class="st11" d="M199.51,143.71c0,0,24-2.52,24.36,1.81c0,0,0.36,7.59-12.18,28.69l-12.18,18.41c0,0,13.89-26.68,10.63-35.73
		C210.17,156.89,210.17,149.65,199.51,143.71z"/>
	<path class="st11" d="M90.55,207.73c0,0,2.71-16.05-3.97-34.08c0,0-20.03-45.64,2.26-52.49c0,0,15.6-1.81,30.4,5.04l-34.63-18.22
		c0,0-13.53-7.95-15.34,11.53c0,0-4.33,26.55-1.97,37.54c0,0,3.42,31.72,10.47,40.22L90.55,207.73z"/>
	<path class="st11" d="M99.53,107.46c0,0,4.49-16.47,32.5-18.86c0,0-17.9-6.95-32.5-7.49c0,0-22.39-0.74-19.06,11.18
		c0,0,5.27,6.95,10.69,10.08L99.53,107.46z"/>
	<path class="st11" d="M184.13,131.98c0,0,24.71-0.36,18.28-14.99c0,0-6.11-12.57-18.93-19.28c0,0,32.27,10.53,40.67,24.29
		c0,0,5.43,9.63-15.15,10.85C209.01,132.85,191.21,133.53,184.13,131.98z"/>
	<path class="st8" d="M203.03,115.28c0,0,2.91-1.39,2.91-2.97"/>
	<path class="st8" d="M205.23,117.12c0,0,3.26-0.71,4.55-2.78"/>
	<path class="st8" d="M205.97,120.38c0,0,5.78-0.61,6.72-3.26"/>
	<path class="st8" d="M207.52,123.87c0,0,7.46-0.97,8.3-3.49"/>
	<path class="st8" d="M208.23,128.91c0,0,11.56-2.42,12.37-6.65"/>
	<path class="st8" d="M213.79,130.85c0,0,8.3-2.04,8.79-4.46"/>
	<path class="st8" d="M218.15,141.19c0,0-1.26,14.31-4.39,16.6"/>
	<path class="st8" d="M71.98,129.98c0,0-3.07,7.04,0,12.08"/>
	<line class="st8" x1="86.77" y1="94.28" x2="96.17" y2="86.17"/>
	<line class="st8" x1="90.55" y1="94.28" x2="99.6" y2="87.24"/>
	<line class="st8" x1="96.17" y1="94.99" x2="106.09" y2="87.24"/>
	<line class="st8" x1="99.6" y1="97.71" x2="111.32" y2="88.15"/>
	<line class="st8" x1="103.67" y1="99.32" x2="117.98" y2="87.24"/>
	<path class="st8" d="M112.39,94.99c0,0,12.44-9.01,18.57-5.78"/>
	<path class="st12" d="M105.44,213.13c0,0,10.63,9.76,32.46,10.82"/>
</g>
<path class="st8" d="M186.88,70.77c0,0,9.56,1.23,9.01,8.82"/>
<path class="st8" d="M191.4,69.18c0,0,6.14,0.84,6.85,5.98"/>
<g>
	<g>
		
			<ellipse transform="matrix(0.7952 -0.6064 0.6064 0.7952 -1.9892 102.6031)" class="st13" cx="150.88" cy="54.25" rx="15.73" ry="3.75"/>
		<path class="st14" d="M164.56,70.41c8.85-6.75,12.6-19.25,10.05-22.64c-2.58-3.36-10.5,3.68-19.35,10.43
			c-8.85,6.75-16.51,11.56-13.92,14.96C143.92,76.55,155.74,77.16,164.56,70.41z"/>
		<path class="st15" d="M155,41.89c0,0,2.87-5.04,7.95-2.39"/>
		<path class="st15" d="M155,38.72c0,0,2.04-3.81,7.95-2.13"/>
		<path class="st15" d="M171.99,51.38c0,0,1.26,5.49-2.26,7.2"/>
	</g>
	<path class="st14" d="M259.01,197.04c1.65,12.08,3.42,21.77-3.88,20.48c-4.36-0.78-11.08-9.17-11.08-20.48
		c0-11.31,6.65-20.48,11.08-20.48C259.56,176.56,257.49,185.86,259.01,197.04z"/>
	<path class="st14" d="M277.07,194.49c0,11.47-7.3,20.8-11.63,20.8s-4.07-9.3-4.07-20.8s-3.52-17.9,0.81-17.9
		S277.07,182.99,277.07,194.49z"/>
	<path class="st15" d="M244.06,180.27c0,0,0.45-6.23,5.69-6.23"/>
	<path class="st15" d="M242.15,177.92c0,0-0.26-5.69,5.85-6.3"/>
	<path class="st15" d="M250.81,207.8c0,0-0.45,5.69,5.14,6.14"/>
	<path class="st15" d="M271.03,205.89c0,0,3.26-3.52,1.81-9.21"/>
	
		<ellipse transform="matrix(0.7952 -0.6064 0.6064 0.7952 -31.4495 184.7915)" class="st13" cx="257.81" cy="138.95" rx="15.73" ry="3.75"/>
	<path class="st14" d="M271.51,155.11c8.85-6.75,12.6-19.25,10.05-22.64c-2.58-3.36-10.5,3.68-19.35,10.43
		c-8.85,6.75-16.51,11.56-13.92,14.96C250.84,161.21,262.66,161.86,271.51,155.11z"/>
	<path class="st15" d="M283.34,126.65c0,0,5.69,1.29,4.62,6.88"/>
	<path class="st15" d="M286.37,125.71c0,0,4.23,0.84,4.33,6.98"/>
	<path class="st15" d="M278.91,136.08c0,0,1.26,5.49-2.26,7.2"/>
	
		<ellipse transform="matrix(0.9446 -0.3281 0.3281 0.9446 -57.4161 75.461)" class="st16" cx="194.91" cy="207.88" rx="15.73" ry="3.75"/>
	<path class="st14" d="M202.9,227.53c10.5-3.65,17.99-14.37,16.6-18.38c-1.39-4.01-11.14,0.23-21.64,3.88
		c-10.5,3.65-19.28,5.85-17.9,9.85C181.36,226.89,192.4,231.18,202.9,227.53z"/>
	<path class="st15" d="M215.89,211.77c0,0-0.52,5.62-4.39,6.14"/>
</g>
</svg>
