<?xml version="1.0" encoding="utf-8"?>
<!-- Generator: Adobe Illustrator 26.0.3, SVG Export Plug-In . SVG Version: 6.00 Build 0)  -->
<svg version="1.1" id="Layer_1" xmlns="http://www.w3.org/2000/svg" xmlns:xlink="http://www.w3.org/1999/xlink" x="0px" y="0px"
	 viewBox="0 0 300 300" style="enable-background:new 0 0 300 300;" xml:space="preserve">
<style type="text/css">
	.st0{fill:url(#SVGID_1_);}
	.st1{fill:#231F20;}
	.st2{fill:url(#SVGID_00000173132832779091733750000004462897858937104274_);}
	.st3{fill:url(#SVGID_00000065788044860560024870000009170008154086504611_);}
	.st4{fill:url(#SVGID_00000176025708429860165990000016328965891372909226_);}
	.st5{fill:url(#SVGID_00000137831297075759174430000010303229789046882697_);}
	.st6{fill:url(#SVGID_00000099660182182882029640000015801495208541037736_);}
	.st7{fill:url(#SVGID_00000039125734498530426300000002469905518915457442_);}
	.st8{fill:url(#SVGID_00000133525168554848690640000013178608548563882118_);}
	.st9{fill:url(#SVGID_00000134231658919124872900000007901237683478833816_);}
	.st10{fill:url(#SVGID_00000079450624624467991680000009369703043652235174_);}
	.st11{fill:url(#SVGID_00000114048026254970015000000015981359444876964259_);}
	.st12{fill:url(#SVGID_00000006691761233220564570000004197971273077689244_);}
	.st13{fill:url(#SVGID_00000017487117853806628230000012251417420762661809_);}
	.st14{fill:url(#SVGID_00000066486124489311200910000008014118752999167394_);}
	.st15{fill:url(#SVGID_00000024707765835662671960000003830245545133886080_);}
	.st16{fill:url(#SVGID_00000132054227697722358580000016432752717144640404_);}
	.st17{fill:url(#SVGID_00000076579447972114299560000006531379047540835727_);}
	.st18{fill:url(#SVGID_00000144310984742917778880000008123162080390438551_);}
	.st19{fill:url(#SVGID_00000090270916062862914830000005236398597630453393_);}
	.st20{fill:url(#SVGID_00000044868295501717115830000016910040152468767382_);}
	.st21{fill:url(#SVGID_00000005983240309198115910000013713627994416289939_);}
	.st22{fill:url(#SVGID_00000023241071100159318860000014648371830469416336_);}
	.st23{fill:url(#SVGID_00000048461936889485862320000014143109069261075084_);}
	.st24{fill:url(#SVGID_00000017513456530813153630000014149312663295764659_);}
	.st25{fill:url(#SVGID_00000150782630489870380050000002029220775347714982_);}
	.st26{fill:url(#SVGID_00000074399766874301935700000015214291020907008652_);}
</style>
<g>
	<g>
		<g>
			<linearGradient id="SVGID_1_" gradientUnits="userSpaceOnUse" x1="82.5132" y1="255.3616" x2="140.8421" y2="255.3616">
				<stop  offset="2.717173e-07" style="stop-color:#F79E6B"/>
				<stop  offset="0.3731" style="stop-color:#F7A16E"/>
				<stop  offset="0.6441" style="stop-color:#F9AA77"/>
				<stop  offset="0.8821" style="stop-color:#FBBA87"/>
				<stop  offset="1" style="stop-color:#FCC592"/>
			</linearGradient>
			<path class="st0" d="M131.7,231.49l-3.26,5.49c0,0,1.96,13.37,1.63,13.85c0,0-19.26-0.96-47.56,20.29c0,0,7.84,6.69,21.55,8.12
				c0,0,22.2-0.24,36.78-25.31l-4.14-0.96c0,0-5.24-11.94-3.82-14.56L131.7,231.49z"/>
			<path class="st1" d="M131.68,231.58c-1.04,1.88-1.91,3.75-2.92,5.59c0,0,0.05-0.25,0.05-0.25c0.64,3.3,1.19,7.01,1.69,10.35
				c0.05,0.66,0.3,2,0.32,2.64c0.03,0.43,0.08,0.94-0.13,1.35c0,0-0.15,0.33-0.15,0.33s-0.51,0-0.51,0
				c-8.59,0.31-16.92,3.37-24.82,6.62c-3.89,1.65-8.01,3.75-11.66,5.86c-3.77,2.19-7.34,4.72-10.83,7.32c0,0,0.02-0.53,0.02-0.53
				c6.13,4.63,13.84,6.83,21.41,7.57c3.19-0.26,7.47-1.3,10.83-2.69c6.17-2.42,11.68-6.36,16.38-11c0.63-0.69,2.28-2.47,2.89-3.14
				c0.57-0.72,2.05-2.63,2.64-3.37c1.13-1.53,2.12-3.16,3.2-4.74c0,0,0.56,1.29,0.56,1.29l-4.12-1.03c0,0-0.41-0.1-0.41-0.1
				c-1.71-4.31-3.44-8.69-3.91-13.34c-0.02-0.66-0.03-1.37,0.34-2.09l-0.04,0.25C132.2,236.19,132.02,233.92,131.68,231.58
				L131.68,231.58z M131.72,231.39c0.47,2.31,1.1,4.69,1.57,7.06c-0.47,1.06-0.07,2.47,0.17,3.61c0.94,3.64,2.47,7.15,3.98,10.59
				c0,0-0.55-0.46-0.55-0.46c0.79,0.18,4.62,0.98,5.36,1.14c-1.28,1.99-2.44,4.07-3.77,6.03c-0.59,0.8-2.07,2.79-2.65,3.55
				c-0.62,0.69-2.31,2.59-2.95,3.31c-1.01,1.01-2.19,2.07-3.23,3.05c-7.21,6.02-16.06,10.28-25.57,10.78
				c-3.95-0.46-7.83-1.46-11.52-2.91c-3.79-1.52-7.41-3.44-10.6-6.03c3.27-2.34,7.85-5.56,11.21-7.68
				c9.23-5.92,19.32-11.03,30.25-12.81c2.2-0.37,4.38-0.61,6.7-0.56l-0.67,0.33c-0.06,0.03-0.1,0.1-0.1,0.16
				c-0.01-0.18,0.01-0.36-0.01-0.55c-0.18-3.56-0.92-9.38-1.28-12.97c0,0-0.02-0.15-0.02-0.15
				C129.22,235.02,130.55,233.19,131.72,231.39L131.72,231.39z"/>
		</g>
		<g>
			
				<linearGradient id="SVGID_00000024712545494256384520000008964177127508624003_" gradientUnits="userSpaceOnUse" x1="154.8225" y1="254.6938" x2="223.3569" y2="254.6938">
				<stop  offset="2.717173e-07" style="stop-color:#F79E6B"/>
				<stop  offset="0.3731" style="stop-color:#F7A16E"/>
				<stop  offset="0.6441" style="stop-color:#F9AA77"/>
				<stop  offset="0.8821" style="stop-color:#FBBA87"/>
				<stop  offset="1" style="stop-color:#FCC592"/>
			</linearGradient>
			<path style="fill:url(#SVGID_00000024712545494256384520000008964177127508624003_);" d="M157.29,235.9l-1.65,3.94
				c0,0,2.5,12.77,2.18,13.49c0,0-3.48,0.72-2.94,3.94c0,0,28.73,21.37,48.43,15.04c0,0,14.99-4,20.05-16.44
				c0,0-49.95-8.95-54.03-7.97l-7.78,2.32l0.27,1.53l-0.82-0.27l-2.69-15.13L157.29,235.9z"/>
			<path class="st1" d="M157.33,236c-0.5,1.38-0.94,2.69-1.43,3.96c0.5,1.36,1.04,4.53,1.5,6.52c0.36,1.79,0.93,4.61,1.1,6.4
				c0.05,0.33-0.04,0.71-0.18,1.01c-0.81,0.18-1.74,0.59-2.26,1.27c-0.44,0.54-0.56,1.23-0.42,1.97c0,0-0.3-0.5-0.3-0.5
				c12.06,7.98,30.28,18.62,45.12,16.07c9.31-2.07,18.58-8.03,22.17-17.14c0,0,0.58,1.06,0.58,1.06
				c-10.98-1.7-35.84-5.82-46.46-7.29c-2.42-0.24-5.1-0.88-7.47-0.56c-2.51,0.7-5.02,1.43-7.54,2.11c0,0,0.49-0.79,0.49-0.79
				l0.23,1.53l0.17,1.1l-1.02-0.36c-0.22-0.08-0.96-0.34-1.18-0.42c0,0-0.06-0.36-0.06-0.36c-0.78-5.06-1.53-10.13-2.21-15.22
				l0.09,0.11C157.95,236.34,157.65,236.17,157.33,236L157.33,236z M157.26,235.81c0.37,0.13,0.78,0.27,1.18,0.43
				c0,0,0.02,0.08,0.02,0.08c1.11,5.01,2.16,10.02,3.17,15.05c0,0-0.43-0.49-0.43-0.49l0.82,0.25l-0.85,0.74
				c-0.08-0.4-0.35-1.72-0.43-2.11c0,0,0.61-0.2,0.61-0.2c2.57-0.85,5.16-1.64,7.74-2.46c2.62-0.36,5.29,0.15,7.9,0.34
				c15.95,1.85,31.7,4.83,47.46,7.84c-2.53,6.7-8.24,11.6-14.49,14.71c-18.14,9.79-40.67-1.3-55.8-12.29
				c-0.61-2.46,1.13-4.59,3.53-5.04c0,0-0.48,0.38-0.48,0.38c-0.02,0.03-0.03,0.08-0.03,0.11l0-0.06c0.02-0.34-0.06-1.04-0.09-1.38
				c-0.38-3.07-1.24-8.71-1.72-11.82c0,0-0.01-0.1-0.01-0.1C155.97,238.42,156.65,237.08,157.26,235.81L157.26,235.81z"/>
		</g>
		<g>
			
				<linearGradient id="SVGID_00000157284830995728853240000001800163197823358128_" gradientUnits="userSpaceOnUse" x1="213.1136" y1="111.5644" x2="284.0309" y2="111.5644">
				<stop  offset="2.024560e-07" style="stop-color:#F69665"/>
				<stop  offset="1" style="stop-color:#FBC28E"/>
			</linearGradient>
			<path style="fill:url(#SVGID_00000157284830995728853240000001800163197823358128_);" d="M214.51,131.35
				c0,0,12.84-12.41,15.89-13.49c0.87-0.31,0.46-2.16,0.36-2.77c-0.32-2.01-0.92-3.99-1.49-5.94c-1.38-4.72-3.03-9.41-3.93-14.26
				c-0.2-1.09-0.5-2.17-0.48-3.29c0.04-1.85,2.1-4.35,3.92-4.73c2.84-0.6,4.97,2.8,5.84,5.02c0.86,2.2,1.32,4.57,1.67,6.9
				c0.14,0.95,0.26,1.91,0.36,2.87c0.06,0.56,0.11,1.12,0.16,1.68c0.02,0.28,0.29,1.49,0.12,1.69c0,0,22.2-26.77,33.3-20.24
				c0,0,13.28,8.05-18.06,14.36c-0.48,0.1-0.28,0.93-0.1,1.15c0.44,0.51,1.39,0.63,2,0.73c1.73,0.29,3.52,0.26,5.27,0.21
				c1.78-0.05,3.55-0.17,5.32-0.32c1.13-0.1,2.26-0.21,3.39-0.33c2.31-0.25,4.39-0.4,6.69-0.11c2,0.25,4.04,0.69,5.85,1.59
				c1.18,0.59,2.31,1.42,2.94,2.61c0.7,1.31,0.52,3.05,0.31,4.47c-0.12,0.81-0.68,1.18-1.46,1.28c-1.42,0.19-2.85,0.03-4.27-0.08
				c-1.63-0.13-3.25-0.35-4.87-0.6c-1.67-0.26-3.33-0.55-4.98-0.87c-1.01-0.19-2.03-0.4-3.04-0.61c-0.39-0.08-3.18-0.42-3.27-0.7
				c0,0,2.18,6.82,2.18,11.18c3.1,1.34,6.08,3.2,8.71,5.31c2.8,2.26,6.29,5.69,6.69,9.5c0.24,2.29-3.32,2.01-4.57,1.58
				c-1.82-0.64-3.45-1.81-4.93-3.02c-2.71-2.2-5.11-4.77-7.38-7.41c-0.09-0.1-0.18-0.2-0.26-0.31c0,0-2.28,1.59-2.41,1.68
				c-1.87,1.22-3.8,2.35-5.82,3.31c-2.21,1.05-4.57,1.96-7.02,2.27c-2.27,0.29-4.42-0.1-6.14-1.66c-0.87-0.79-1.79-1.47-2.71-2.2
				c-0.61-0.48-1.2-0.97-1.77-1.5c-0.63-0.59-1.36-1.17-1.75-1.97c-0.1-0.2-0.18-0.42-0.22-0.64c-0.04-0.19,0-0.45-0.11-0.62
				c-0.24-0.34-0.79-0.07-1.1,0.01c-0.42,0.11-0.82,0.28-1.2,0.47c-0.79,0.4-1.52,0.92-2.27,1.39c-1.25,0.77-2.47,1.61-3.62,2.53
				c-0.53,0.43-1.13,0.82-1.55,1.37c-0.21,0.28-0.3,0.62-0.47,0.92c-0.18,0.33-0.44,0.52-0.71,0.77c-0.27,0.25-0.51,0.54-0.77,0.8
				c-0.69,0.7-1.39,1.4-2.09,2.1c-1.55,1.52-3.11,3.04-4.79,4.42c-0.29,0.24-2.34,2.1-2.73,1.41c-0.16-0.29,0.13-0.87,0.24-1.13
				L214.51,131.35z"/>
			<path class="st1" d="M214.43,131.31c2.27-2.32,4.52-4.51,6.86-6.7c2.84-2.51,5.52-5.42,8.92-7.24c0.24-0.2,0.2-0.62,0.18-1.04
				c-0.23-1.91-0.76-3.81-1.32-5.68c-1.6-5.32-3.59-10.62-4.58-16.11c-0.24-1.2-0.61-2.6-0.26-3.9c0.82-3.05,4.47-6.04,7.54-3.98
				c4.94,3.69,5.15,10.36,5.86,15.93c0.04,0.58,0.14,1.17,0.21,1.77c0.02,0.5,0.11,0.67-0.23,1.22c0,0-1.32-1.1-1.32-1.1
				c3.63-4.24,7.53-8.18,11.78-11.78c4.28-3.55,8.82-7.02,14.21-8.73c2.66-0.86,5.81-0.97,8.36,0.61c1.74,1.16,3.43,3.45,2.52,5.66
				c-2.39,4.94-11.54,6.88-16.48,8.27c-1.46,0.37-2.94,0.67-4.42,1c0.03-0.03-0.02,0.02-0.01,0.15c0.01,0.12,0.04,0.26,0.09,0.36
				c0.44,0.54,1.31,0.55,2.07,0.69c8.22,1.01,16.71-2.56,24.82,0.07c2.8,0.79,5.86,3.1,5.58,6.38c-0.1,1.23,0.09,2.68-0.99,3.55
				c-1.7,1.04-3.87,0.51-5.63,0.48c-4.39-0.42-9.06-1.19-13.34-2.05c-0.53-0.07-1.56-0.24-2.08-0.33c-0.6-0.13-1.45-0.25-1.68-0.95
				c0,0,1.79-0.57,1.79-0.57c0.58,1.86,1.08,3.71,1.49,5.61c0.4,1.9,0.75,3.82,0.78,5.86l-0.6-0.92c6.18,2.82,15.15,8.46,16.06,15.8
				c0.07,0.72-0.31,1.66-0.92,2.08c-6.07,3.61-14.39-6.64-18.03-10.66c0,0,1.52-1.31,1.52-1.31c-0.62,1.07-1.42,2.52-2.6,3.15
				c0,0-0.84,0.53-0.84,0.53c-3.41,2.07-6.92,3.93-10.89,4.84c-2.67,0.63-5.9,0.5-8.1-1.43c0,0-2.98-2.47-2.98-2.47
				c-1.44-1.39-3.74-2.66-3.93-4.89c-0.02-0.21,0,0.01,0.1,0.06c0.16,0.11,0.21,0.05,0.12,0.07c-0.13,0.02-0.61,0.18-0.83,0.27
				c-2.16,0.83-4.46,2.53-6.42,3.91c-0.74,0.62-1.51,0.95-1.88,1.81c-0.34,0.92-1.39,1.59-2.03,2.32c-2.29,2.27-4.8,4.44-7.23,6.54
				c-0.69,0.48-1.37,1.2-2.32,1.21c-0.87-0.19-0.31-1.4-0.18-1.58C213.16,138.06,214.43,131.31,214.43,131.31L214.43,131.31z
				 M214.6,131.4c0,0.02-0.97,6.74-0.97,6.76c-1.45,3.08,3.96-2.49,4.42-2.89c1.86-1.72,3.71-3.68,5.49-5.48
				c0.4-0.4,0.51-1.2,1-1.62c1.5-1.41,3.05-2.51,4.74-3.63c1.33-0.87,2.76-1.93,4.51-2.35c0.22-0.04,0.63-0.1,1.05,0.22
				c0.29,0.22,0.42,0.65,0.42,0.95c0.06,0.45,0.31,0.91,0.65,1.28c1.45,1.52,4.21,3.54,5.86,4.91c4.96,3.76,13.2-1.52,17.68-4.33
				c0.43-0.37,0.6-0.12,1.17-0.06c0.32,0.03,0.68-0.02,1.01-0.13c0,0,1.53-1.31,1.53-1.31c2.4,2.79,4.9,5.47,7.72,7.73
				c2.15,1.63,4.79,3.73,7.49,2.6c0.11-0.11,0.13-0.11,0.13-0.36c-0.13-1.48-0.93-3.1-1.95-4.47c-3.3-4.19-7.97-7.39-12.8-9.59
				c0,0-0.6-0.26-0.6-0.26s0-0.65,0-0.65c-0.08-3.62-1.06-7.39-2.08-10.89c0,0,1.79-0.57,1.79-0.57c-0.04-0.15-0.15-0.32-0.28-0.41
				l-0.07-0.05c-0.04-0.02-0.03-0.01-0.01-0.01c0.74,0.22,1.83,0.36,2.61,0.49c4.28,0.88,8.84,1.73,13.19,2.22
				c1.57,0.08,3.17,0.46,4.54-0.07c0.46-0.51,0.32-1.64,0.42-2.31c0.23-2.72-2.15-4.3-4.49-5.11c-2.51-0.86-5.24-1.23-7.92-1.12
				c-2.76-0.05-19.47,2.47-19.35-1.22c-0.05-0.31,0.17-0.88,0.7-0.91c5.68-1.32,17.5-3.32,20.26-8.79c0.73-1.91-0.75-3.71-2.29-4.77
				c-4.89-2.74-10.61,0.69-14.79,3.45c-4.49,3.12-8.5,6.89-12.29,10.83c-1.9,1.96-3.77,4-5.51,6.08l-1.32-1.1
				c-0.23,0.31-0.11,0.43-0.16,0.05c-0.85-5.29-0.73-12.86-5.25-16.42c-2.34-1.64-5.29,1.68-5.18,3.89c0.11,1.45,0.53,3.11,0.8,4.56
				c1.03,4.64,2.54,9.14,3.79,13.75c0.53,1.94,1.02,3.91,1.22,5.95c0.01,0.44,0.04,0.89-0.19,1.44c-0.11,0.27-0.41,0.57-0.72,0.67
				C224.7,121.83,219.78,126.97,214.6,131.4L214.6,131.4z"/>
		</g>
		<g>
			
				<linearGradient id="SVGID_00000003088771063401388690000004965780191065375876_" gradientUnits="userSpaceOnUse" x1="15.9691" y1="104.137" x2="76.2286" y2="104.137">
				<stop  offset="2.663895e-07" style="stop-color:#F79967"/>
				<stop  offset="1" style="stop-color:#FBBB85"/>
			</linearGradient>
			<path style="fill:url(#SVGID_00000003088771063401388690000004965780191065375876_);" d="M75.34,127.6c0,0-6.73-3.18-11.88-9.18
				l-2.98-2.73v-1.31c0,0,2.65-0.82,3.26-3.06c0,0,1.43-2.69-0.78-5.71c0,0,0.98-3.75,4.73-7.14c0,0,6.53-6.61,2.49-10.65
				c0,0-3.26-4-7.14,0c0,0-4.65,5.92-1.75,13.71c0,0-4.53-5.02-6.7-0.16c0,0-3.32,2.5-5.67,8.52c0,0,3.39-9.79,8.24-11.14
				c0,0-4.24-21.59-16.12-26.65c0,0-3.74-0.54-1.46,4.24l5.11,9.96c0,0,3.32,5.82,1.58,10.45c0,0-14.3-5.92-20.58-5.18
				c0,0-9.39-0.04-9.71,2.94c0,0-2.04,4.08,23.1,4.04c0,0-4.53,10.81-4.69,14.41c0,0-15.92,8.53-14.53,14.65
				c0,0,4.33,0.04,11.47-5.88c0,0,5.47-4.28,8.28-4.57l0.16-0.82l0.53,0.08c0,0-0.98,2.73-0.29,5.02c0,0,2.94,2.37,6.82,0.82
				c0,0,3.96-0.9,10.45-3.92c0,0,15,15.47,16.53,17.86l2.39-5.01L75.34,127.6z"/>
			<path class="st1" d="M75.27,127.66c-4.54-2.13-8.73-5.24-12.12-8.97c0.24,0.22-3.06-2.72-2.99-2.65c0,0-0.16-0.14-0.16-0.14
				c-0.01-0.41-0.01-1.49-0.02-1.89c0.77-0.24,1.56-0.65,2.17-1.19c0.53-0.47,0.91-1.05,1.07-1.69c0.18-0.38,0.31-0.86,0.36-1.34
				c0.19-1.48-0.41-2.91-1.31-4.07c0,0,0.08-0.28,0.08-0.28c0.88-2.88,2.53-5.32,4.67-7.36c2.27-2.43,5.41-6.82,2.55-9.75
				c-1.81-2.05-4.25-1.75-5.84,0.01c-2.57,3.66-3.2,8.68-1.61,12.88c0,0,1.46,4.02,1.46,4.02c-1.58-1.49-3.69-4.62-5.93-5.09
				c-1.23-0.28-1.92,0.69-2.37,1.74c0,0-0.18,0.14-0.18,0.14c-2.47,2.12-4.23,5.13-5.48,8.12c0,0-1.4-0.51-1.4-0.51
				c0.88-2.3,1.92-4.46,3.25-6.52c1.39-2.05,3.02-4.16,5.54-4.92c0,0-0.4,0.64-0.4,0.64c-2.18-9.73-6.31-21.92-15.62-26.45
				c-3.06-0.24-1.51,3.21-0.61,4.76c0,0,3.21,6.19,3.21,6.19c2.3,4.2,4.93,9.17,2.98,14.05c0,0-0.5-0.19-0.5-0.19
				c-8.11-3.06-16.83-6.2-25.56-4.41c-1.31,0.27-3.6,0.71-3.77,2.07c0.07-0.17,0.04-0.11,0.05-0.16c0-0.02,0-0.02,0-0.02
				c0.07,0.12,0.18,0.24,0.36,0.38c2.92,1.65,6.53,1.75,9.84,2.12c4.48,0.35,9.04,0.38,13.56,0.35c-1.14,2.77-2.25,5.6-3.24,8.42
				c-0.81,2.45-1.8,5.11-1.91,7.63c-4.67,2.62-9.53,5.59-13.01,9.71c-1.03,1.29-1.83,2.83-1.54,4.06l-0.99-0.8
				c0.72-0.05,1.67-0.28,2.4-0.55c6.42-2.07,10.55-8.35,17.24-9.78c0,0-0.81,0.73-0.81,0.73c0.09-0.42,0.26-1.26,0.35-1.67
				c0.34,0.06,1.05,0.17,1.38,0.22c0,0,1.07,0.17,1.07,0.17s-0.36,1.03-0.36,1.03c-0.46,1.38-0.7,3.07-0.31,4.46
				c0,0-0.28-0.42-0.28-0.42c1.7,1.27,4.12,1.52,6.1,0.71c3.7-0.93,7.3-2.4,10.79-3.95c4.27,4.56,8.56,9.11,12.7,13.79
				c1.33,1.55,2.69,3.02,3.91,4.73c0,0-0.5,0.03-0.5,0.03s2.49-4.96,2.49-4.96l-0.01,0.12C76.06,131.23,75.27,127.66,75.27,127.66
				L75.27,127.66z M75.42,127.53c0,0,0.98,3.61,0.98,3.61s0.02,0.06,0.02,0.06s-0.03,0.06-0.03,0.06s-2.29,5.05-2.29,5.05
				s-0.19,0.43-0.19,0.43l-0.31-0.4c-5.15-6.03-11.24-11.85-16.77-17.54c0,0,0.77,0.14,0.77,0.14c-1.69,0.81-3.41,1.58-5.16,2.27
				c-1.59,0.64-4.05,1.48-5.28,1.77c-2.51,1.03-5.44,0.73-7.65-0.89c0,0-0.2-0.15-0.2-0.15c-0.64-1.96-0.42-3.93,0.18-5.85
				c0,0,0.71,1.2,0.71,1.2l-0.53-0.08l1.03-0.72c0,0-0.16,0.82-0.16,0.82l-0.12,0.64c-2.81,0.3-5.33,2.32-7.63,3.91
				c-3.38,2.7-6.98,5.43-11.27,6.5c-0.69,0.21-1.63,0.25-2.44,0.27c0,0-0.19-0.83-0.19-0.83c-1.1-6.48,10.21-12.97,15.02-15.81
				c0,0-0.56,0.89-0.56,0.89c0.29-2.78,1.2-5.06,2.06-7.61c0.87-2.41,1.79-4.77,2.78-7.13c0,0,0.91,1.37,0.91,1.37
				c-3.77-0.15-25.39,0.3-23.86-5.41c0.68-2.99,7.12-3.28,10.48-3.32c3.28-0.27,7.28,0.81,10.67,1.81c3.44,1.05,6.79,2.29,10.1,3.66
				c0,0-0.67,0.29-0.67,0.29c1.58-4.39-0.8-8.96-2.85-12.86c0,0-3.17-6.23-3.17-6.23c-1.2-2.03-2.56-6.02,1.38-5.66
				c9.75,4.59,14.22,17.5,16.65,27.32c-3.52,0.95-5.36,4.73-6.89,7.77c-0.49,1.05-0.94,2.15-1.31,3.23l-1.4-0.51
				c0.63-1.66,1.4-3.26,2.34-4.77c1-1.56,2.05-2.93,3.51-4.15c0,0-0.26,0.33-0.26,0.33c1.71-4.1,5.71-2.74,8.11-0.08
				c0,0-1.47,0.89-1.47,0.89c-1.37-3.55-1.36-7.63,0.07-11.17c0.48-1.2,1.04-2.31,1.85-3.41c1.08-1.13,2.57-2.07,4.23-2.05
				c2.69,0.1,4.99,2.17,5.58,4.7c0.55,3.38-1.61,6.39-3.65,8.76c-0.9,0.91-1.85,1.76-2.61,2.79c-1,1.31-1.86,2.82-2.34,4.31
				c0,0-0.1-0.55-0.1-0.55c2.2,2.98,1.55,7.41-1.7,9.14c-0.37,0.2-0.73,0.37-1.17,0.51c0,0,0.36-0.49,0.36-0.49l-0.02,1.31
				c0,0-0.16-0.37-0.16-0.37l2.93,2.78C67,121.97,70.99,125.09,75.42,127.53L75.42,127.53z"/>
		</g>
		<g>
			
				<linearGradient id="SVGID_00000049192473791569271110000016579637143852199298_" gradientUnits="userSpaceOnUse" x1="107.2118" y1="189.2085" x2="180.0998" y2="189.2085">
				<stop  offset="0" style="stop-color:#F5EE7A"/>
				<stop  offset="0.1585" style="stop-color:#F5EF80"/>
				<stop  offset="0.3632" style="stop-color:#F7F190"/>
				<stop  offset="0.5931" style="stop-color:#F9F4AA"/>
				<stop  offset="0.8397" style="stop-color:#FDF9CF"/>
				<stop  offset="1" style="stop-color:#FFFCEB"/>
			</linearGradient>
			<path style="fill:url(#SVGID_00000049192473791569271110000016579637143852199298_);" d="M167.59,182.25
				c0,0-0.33,15.89-15.24,14.91c0,0-11.54-3.16-6.96-22.85c0,0,5.55-16,15.24-27.53c0,0,1.41-1.74,8.16-4.79
				c0,0-4.55-5.82-12.23-1.11c0,0-17.69,13.96-27.38,26.03c0,0-17.19,15.78-14.58,6.2c0,0-2.94-1.09-6.09,7.4
				c0,0-6.42,9.47,9.47,37.87l6.31,18.39c0,0,18.5,3.48,25.9,2.39c0,0,17.52,0.87,29.93-4.35c0,0-4.9-8.6-5.01-10.45
				c0,0,0.98-28.51-1.96-29.71c0,0-3.26,0.11-4.9,3.81l-0.87-0.22c0,0,10.12-10.77,6.31-13.93
				C173.68,184.32,171.5,182.04,167.59,182.25z"/>
			<path class="st1" d="M167.66,182.32c-0.09,4.5-1.74,9.24-5.17,12.3c-2.8,2.48-6.64,3.26-10.28,3.07
				c-9.38-3.49-9.56-15.31-7.59-23.55c3.66-9.96,8.46-19.6,15.26-27.8c2.38-2.36,5.61-3.67,8.57-5.1c0,0-0.31,1.26-0.31,1.26
				c-1.26-1.47-3.27-2.57-5.26-2.69c-2-0.24-4.47,0.76-5.91,1.59c-4.95,3.87-9.77,7.93-14.44,12.15
				c-4.64,4.26-9.12,8.72-13.12,13.58c-3.92,3.35-7.71,6.99-12.48,9.13c-2.76,1.07-3.4-0.88-2.69-3.24c0,0,0.23,0.44,0.23,0.44
				c-2.88,0.04-4.59,4.92-5.52,7.22c-0.94,1.72-1.13,3.97-1.18,5.93c0.03,4.54,1.15,8.99,2.58,13.3c2.13,6.2,5.19,12.32,8.39,18.05
				c0,0,0.04,0.07,0.04,0.07s0.02,0.07,0.02,0.07s6.41,18.36,6.41,18.36s-0.74-0.64-0.74-0.64c8.46,1.34,17.22,2.98,25.77,2.3
				c9.91,0.23,20.19-0.56,29.49-4.22c0,0-0.48,1.41-0.48,1.41c-1.42-2.58-2.8-5.15-4.01-7.83c-0.43-1.03-0.92-1.98-1.03-3.14
				c0.26-7.47,0.41-14.99-0.02-22.46c-0.24-2.18-0.16-4.76-1.26-6.65c0,0,0.25,0.04,0.25,0.04c-0.9,0.06-1.9,0.49-2.63,1.06
				c-0.92,0.7-1.53,1.71-2.01,2.75c-0.6-0.16-1.51-0.4-2.11-0.56c2.05-2.16,4.01-4.46,5.66-6.94c1.04-1.66,2.17-3.46,2.19-5.45
				c-0.02-0.64-0.26-1.25-0.74-1.66C172,182.98,169.77,182.34,167.66,182.32L167.66,182.32z M167.51,182.18
				c2.24-0.26,4.7,0.51,6.31,1.96c2.27,2.2,0.09,5.64-1.11,7.85c-1.44,2.37-3.13,4.54-4.97,6.61c0,0-0.25-0.85-0.25-0.85l0.87,0.21
				l-0.61,0.3c0.24-0.52,0.51-1.04,0.86-1.52c1.08-1.51,2.75-2.56,4.64-2.7c0.54,0.24,0.89,0.73,1.02,1.06
				c1.64,4.52,1.43,9.49,1.71,14.22c0.13,5.03,0.12,10.05,0.01,15.08c0.98,3.04,3.26,6.84,4.97,9.92c0,0,0.57,0.99,0.57,0.99
				c-7.48,3.23-15.63,4.42-23.7,4.84c-2.57,0.12-5.11,0.17-7.71,0.07c-1.18,0.24-4.64,0.27-6.51,0.12
				c-6.57-0.42-13.05-1.43-19.51-2.61c0,0-0.56-0.1-0.56-0.1s-0.18-0.54-0.18-0.54s-6.22-18.42-6.22-18.42l0.06,0.14
				c-3.14-5.88-6.19-12.11-8.19-18.47c-1.85-6.23-3.71-14.21-0.95-19.99c1.1-2.59,3.17-8,6.66-7.58c0,0,0.32,0.08,0.32,0.08
				s-0.09,0.36-0.09,0.36c-1.59,5.28,4.2,1.14,6.09-0.11c2.71-1.91,5.57-4.27,7.89-6.39c3.96-4.94,8.44-9.42,13.01-13.79
				c4.58-4.36,9.3-8.55,14.2-12.57c1.03-0.62,2.1-1.19,3.26-1.54c3.89-1.37,8.29,0.14,10.73,3.47c-2.96,1.37-6.04,2.73-8.58,4.79
				c-0.21,0.15-0.56,0.63-0.74,0.86c-6.32,7.95-11.07,17.17-14.68,26.64c-0.78,3.64-1.52,8.56-0.69,12.55c0.51,4,3.53,8.27,6.94,9.5
				c3.38,0.19,6.93-0.38,9.61-2.59C165.48,191.18,167.07,186.57,167.51,182.18L167.51,182.18z"/>
		</g>
		<g>
			
				<linearGradient id="SVGID_00000149369180767927110820000014964468429265512590_" gradientUnits="userSpaceOnUse" x1="214.1304" y1="152.8173" x2="223.9281" y2="152.8173">
				<stop  offset="0" style="stop-color:#C57A2A"/>
				<stop  offset="1" style="stop-color:#F2901F"/>
			</linearGradient>
			<path style="fill:url(#SVGID_00000149369180767927110820000014964468429265512590_);" d="M219.03,174.85c0,0,3.59-0.16,4.9-20.4
				v-23.67c0,0-12.16,6.12-9.39,24L219.03,174.85z"/>
			<path class="st1" d="M219.09,174.77c0-0.02-0.04-0.03-0.04-0.03l0.03-0.02c1.42-1.11,1.67-3.14,2.13-4.79
				c1.13-5.46,1.51-11.07,1.86-16.62c0.33-7.5,0.82-15.02,0.36-22.53c0,0,0.71,0.44,0.71,0.44c-7.52,4.9-9.89,14.47-8.63,22.97
				C216.85,161.1,218,167.64,219.09,174.77L219.09,174.77z M218.97,174.93c-2.03-7.45-5-15.69-5.85-23.5
				c-0.63-8.49,3.31-17.78,11.34-21.49c0,0-0.04,0.83-0.04,0.83c-0.53,8.01,0.18,16,0.37,24c-0.2,3.32-0.55,6.63-1.16,9.9
				c-0.76,3.42-1.37,7.32-3.89,9.94C219.46,174.77,219.39,174.96,218.97,174.93L218.97,174.93z"/>
		</g>
		<g>
			
				<linearGradient id="SVGID_00000183930532461872885640000017825013229850955672_" gradientUnits="userSpaceOnUse" x1="144.3612" y1="161.1948" x2="218.5142" y2="161.1948">
				<stop  offset="0" style="stop-color:#F3E912"/>
				<stop  offset="1" style="stop-color:#FBD900"/>
			</linearGradient>
			<path style="fill:url(#SVGID_00000183930532461872885640000017825013229850955672_);" d="M217.29,125.64
				c0,0-4.33,10.04-3.35,21.14c0,0,0.08,12,4.57,28.08c0,0-7.26,2.69-26.36,0c0,0-25.67-1.68-31.96-7.89l-0.78-1.16l-1.95-1.81
				l2.2,2.04c0,0,5.75,14.44,7.22,16.4c0,0,1.43,10.73-10.24,14.16c0,0-11.63,2.49-12.28-12.45c0,0,0.62-10.48,6.74-21.95
				c0,0,7.02-16.08,20.32-20.89l10.04-3.26l6.2-0.73L217.29,125.64z"/>
			<path class="st1" d="M217.36,125.57c0.03,0.07-0.02,0.25-0.04,0.27c0,0-0.06,0.16-0.06,0.16s-0.11,0.32-0.11,0.32
				c-1.65,4.86-2.62,9.97-2.78,15.1c0.01,11.5,2.09,22.97,5.21,34.02c-4.7,1.55-9.43,1.53-14.25,1.43
				c-3.21-0.07-6.78-0.42-9.98-0.84c-6.49-0.91-13.26-1.44-19.79-2.89c-5.38-1.26-11.25-2.25-15.58-5.95c0,0-0.02-0.02-0.02-0.02
				l-0.02-0.03l-0.78-1.16c0.24,0.24-1.96-1.79-1.92-1.74c0,0,0.44-0.48,0.44-0.48s2.21,2.03,2.21,2.03s0.06,0.05,0.06,0.05
				c2.32,5.48,4.45,11.28,7.44,16.42c0.35,3.38-0.45,6.79-2.41,9.57c-2.99,4.13-8.55,6.86-13.58,5.25c-5.6-1.5-7.88-7.68-7.98-12.94
				c0.66-7.73,3.24-15.81,6.71-22.36c4.52-9.19,11.43-18.07,21.42-21.5c0,0,9.65-3.03,9.65-3.03s0.09-0.03,0.09-0.03
				s0.07-0.01,0.07-0.01s6.21-0.67,6.21-0.67C196.28,133.19,207.95,129.14,217.36,125.57L217.36,125.57z M217.22,125.71
				c-9.57,3.91-19.96,8.53-29.47,12.36c0,0-6.19,0.8-6.19,0.8c0.81-0.24-9.59,3.24-9.4,3.19c-13.03,4.98-20.19,18.61-24.51,31.1
				c-1.13,3.42-2.03,7.77-2.35,10.95c0.05,6.75,3.69,12.85,11.18,11.72c6.82-1.87,9.98-7,9.99-13.09
				c-2.46-4.38-5.37-12.31-7.04-16.46c0,0-2.19-2.05-2.19-2.05l0.44-0.48c0,0,1.94,1.82,1.94,1.82c0.01,0.01,0.04,0.04,0.05,0.06
				c0,0,0.77,1.17,0.77,1.17c1.76,1.63,4.71,2.82,7.22,3.59c7.95,2.41,16.34,3.21,24.59,3.78c6.46,0.73,13.18,1.32,19.67,0.85
				c2.07-0.17,4.35-0.4,6.29-0.98c0,0-0.54,1.05-0.54,1.05c-2.94-11.01-4.76-22.44-4.32-33.73c0.35-5.19,1.6-10.33,3.58-15.14
				c0,0,0.13-0.31,0.13-0.31l0.07-0.16C217.15,125.67,217.15,125.74,217.22,125.71L217.22,125.71z"/>
		</g>
		<g>
			
				<linearGradient id="SVGID_00000070841366981961928930000003587439263957624761_" gradientUnits="userSpaceOnUse" x1="70.4984" y1="143.4218" x2="141.2053" y2="143.4218">
				<stop  offset="0" style="stop-color:#F4EA11"/>
				<stop  offset="1" style="stop-color:#FBD900"/>
			</linearGradient>
			<path style="fill:url(#SVGID_00000070841366981961928930000003587439263957624761_);" d="M141.21,148.4
				c0,0-18.12,18.28-20.53,18.57c0,0-13.71-1.63-20.32-4.24l-27.67-6.45c0,0-7.89-14.94,6.28-36.4c0,0,11.78,4.33,34.09,17.17
				L141.21,148.4z"/>
			<path class="st1" d="M141.3,148.38c-0.08,0.22-0.2,0.26-0.32,0.41c-1.16,1.3-3.21,3.48-4.44,4.77c-3.19,3.37-6.48,6.63-9.86,9.81
				c-1.54,1.38-3.05,2.81-4.8,3.95c-0.26,0.18-0.63,0.38-1.18,0.49c-6.8-0.85-14.52-1.94-20.53-4.33
				c-8.14-2.14-19.61-5.14-27.72-6.92c-5.49-12.55-1.05-26.92,6.1-37.85c12.04,4.57,24.22,11.15,34.83,17.5
				C121.48,139.56,133.21,144.83,141.3,148.38L141.3,148.38z M141.11,148.42c-8.22-3.02-20.38-7.45-28.42-10.56
				c-11.01-5.96-22.49-12.33-34.04-17.1c0,0,1.11-0.37,1.11-0.37c-0.83,1.34-1.68,2.67-2.49,4.03c-5.31,9.39-8.67,21.33-4.29,31.7
				c0,0-0.21-0.16-0.21-0.16c4.6,1.13,9.22,2.14,13.86,3.13l13.91,2.88c6.53,2.16,13.45,3.17,20.25,4.17c0,0-0.2,0-0.2,0
				c1.85-0.95,3.5-2.54,5.12-3.88c4.8-4.09,10.11-9.11,14.8-13.34c0.05-0.04,0.42-0.38,0.48-0.44
				C141.04,148.44,141.07,148.33,141.11,148.42L141.11,148.42z"/>
		</g>
		<g>
			
				<linearGradient id="SVGID_00000074406062461390228490000001805092142800475297_" gradientUnits="userSpaceOnUse" x1="119.1863" y1="257.6741" x2="138.6656" y2="257.6741">
				<stop  offset="1.331947e-07" style="stop-color:#B14498"/>
				<stop  offset="1" style="stop-color:#92288C"/>
			</linearGradient>
			<path style="fill:url(#SVGID_00000074406062461390228490000001805092142800475297_);" d="M135.46,263.11c0,0,2.5-0.76,3.21-3.32
				c0,0-8.27-9.2-19.48-7.29v0.17C119.19,252.67,128.93,254.02,135.46,263.11z"/>
			<path class="st1" d="M135.49,263.01c1.15-0.79,2.28-1.99,2.5-3.41c0,0,0.16,0.66,0.16,0.66c-2.63-2.26-5.5-4.34-8.53-6.07
				c-3.12-1.72-6.92-1.78-10.29-0.9c0,0,0.67-0.8,0.67-0.8l0.01,0.17c0,0-0.71-0.81-0.71-0.81
				C126.03,252.71,132.53,256.87,135.49,263.01L135.49,263.01z M135.42,263.2c-3.53-3.49-7.4-6.18-11.89-8.18
				c-1.68-0.77-3.46-1.32-5.22-1.72c0.03-0.42,0.08-1.12,0.11-1.54c3.95-0.47,7.77,0.49,11.52,1.58c3.62,0.98,6.84,3.06,9.24,5.98
				c0,0,0.27,0.33,0.27,0.33C138.9,261.51,137.38,262.96,135.42,263.2L135.42,263.2z"/>
		</g>
		<g>
			
				<linearGradient id="SVGID_00000178197557497928619570000003936667563425133500_" gradientUnits="userSpaceOnUse" x1="104.4257" y1="264.5734" x2="130.3775" y2="264.5734">
				<stop  offset="1.331947e-07" style="stop-color:#B14498"/>
				<stop  offset="1" style="stop-color:#92288C"/>
			</linearGradient>
			<path style="fill:url(#SVGID_00000178197557497928619570000003936667563425133500_);" d="M127.11,268.11c0,0,1.85-0.6,3.26-2.72
				c0,0-10.53-2.87-24.19-4.34l-1.77,5.37C104.43,266.41,116.56,266.26,127.11,268.11z"/>
			<path class="st1" d="M127.11,268.01c1.15-0.7,2.14-1.77,2.79-2.94c0,0,0.33,0.89,0.33,0.89c-6.07-0.89-11.98-2.62-17.98-3.83
				c-2.02-0.33-4.06-0.48-6.11-0.56l0.55-0.36c-0.37,1.63-0.95,3.91-1.41,5.49c0,0-0.86-1.18-0.86-1.18
				C112.02,265.21,119.81,265.73,127.11,268.01L127.11,268.01z M127.12,268.21l-11.38-0.41l-5.65-0.23
				c-2.3-0.15-4.64-0.24-6.94-0.28c0.76-2.16,1.83-4.7,2.73-6.83c4.18,0.83,8.36,1.33,12.61,1.65c4.41,0.4,8.69,1.54,12.86,3
				C130.29,266.54,128.92,267.83,127.12,268.21L127.12,268.21z"/>
		</g>
		<g>
			
				<linearGradient id="SVGID_00000137843584954966221130000009860381911766172300_" gradientUnits="userSpaceOnUse" x1="80.908" y1="266.1697" x2="99.8703" y2="266.1697">
				<stop  offset="1.331947e-07" style="stop-color:#B14498"/>
				<stop  offset="1" style="stop-color:#92288C"/>
			</linearGradient>
			<path style="fill:url(#SVGID_00000137843584954966221130000009860381911766172300_);" d="M80.91,270.51v-1.8
				c0,0,11.67-6.64,18.96-6.88l-1.5,4.34C98.37,266.17,89.45,268.82,80.91,270.51z"/>
			<path class="st1" d="M80.84,270.59c-0.11-0.54-0.3-1.33-0.36-2.06c4.17-3.28,9.15-5.14,14.31-6.13c1.87-0.46,3.79-0.96,5.76-1.2
				c-0.4,1.62-0.85,3.67-1.34,5.25c0,0-0.12,0.41-0.12,0.41s-0.47,0.16-0.47,0.16C92.94,269,86.89,270.48,80.84,270.59L80.84,270.59
				z M80.97,270.43c5.44-2.2,11.44-3.78,17.15-5.12c0,0-0.59,0.57-0.59,0.57c0.49-1.25,1.27-2.99,1.84-4.22c0,0,0.51,0.7,0.51,0.7
				c-1.64-0.1-3.32,0.17-4.92,0.66c-1.61,0.47-3.11,1.29-4.61,2.05c-3.01,1.5-6.12,2.75-9.25,4c0,0,0.21-0.35,0.21-0.35
				C81.24,269.2,81.07,269.74,80.97,270.43L80.97,270.43z"/>
		</g>
		<g>
			
				<linearGradient id="SVGID_00000024695245362480006260000003884706767183957181_" gradientUnits="userSpaceOnUse" x1="154.3777" y1="266.5051" x2="224.7539" y2="266.5051">
				<stop  offset="1.331947e-07" style="stop-color:#B14498"/>
				<stop  offset="1" style="stop-color:#92288C"/>
			</linearGradient>
			<path style="fill:url(#SVGID_00000024695245362480006260000003884706767183957181_);" d="M154.59,257.47
				c0,0-2.51,4.28,9.73,10.21v0.87l13.22,4.3c0,0,15.24,4.62,22.36,3.75c0,0,12.08-2.23,15.62-5.22c0,0,12.2-7.63,8.55-15.08
				l-0.34,0.66c0,0-2.45,5.5-7.67,8.49c0,0-8.81,6.15-12.79,7.35c0,0-21.76,1.69-37.42-7.93L154.59,257.47z"/>
			<path class="st1" d="M154.61,257.57c0.02,0,0.05-0.02,0.06-0.04c0,0-0.01,0.01-0.01,0.01s-0.01,0.02-0.01,0.02
				s-0.02,0.05-0.02,0.05l-0.03,0.11c-0.57,4.55,6.92,7.86,10.35,9.53c-0.01,0.27,0.04,1.01,0.03,1.29c0,0-0.46-0.64-0.46-0.64
				c4.26,1.26,8.49,2.58,12.72,3.92c7.32,1.93,14.88,4.37,22.51,4.22c4.31-0.71,8.71-1.63,12.76-3.31c2.47-1.05,4.49-2.77,6.5-4.49
				c3.12-2.83,6.67-7.37,4.48-11.67c0,0,1.15,0.01,1.15,0.01c-1.69,3.93-4.45,7.39-8.14,9.63c-3.86,2.61-8.31,5.87-13.03,7.6
				c-2.29,0.18-4.52,0.17-6.77,0.11c-10.94-0.4-22.25-2.68-31.51-8.77C161.75,262.75,158.29,260.19,154.61,257.57L154.61,257.57z
				 M154.57,257.37c3.6,2.16,7.43,4.38,11.26,6.74c7.45,4.36,16,6.36,24.52,7.25c3.92,0.46,9.59,0.52,12.63,0.43
				c4.5-1.63,8.62-4.54,12.64-7.13c3.88-2.11,6.55-5.92,8.5-9.8c2.1,3.68,1.18,7.31-1.33,10.45c-1.94,2.46-4.59,4.71-7.07,6.3
				c-4.75,3.15-10.38,4.16-15.81,5.54c-7.9,0.67-15.68-1.46-23.2-3.66c-4.37-1.45-8.74-2.93-13.09-4.48c0-0.28,0.03-1.04,0.03-1.34
				c0,0,0.37,0.58,0.37,0.58c-3.55-1.95-10.75-5.78-9.65-10.61C154.44,257.57,154.47,257.42,154.57,257.37L154.57,257.37z"/>
		</g>
		<g>
			
				<linearGradient id="SVGID_00000119096513772204980950000017227673783710920889_" gradientUnits="userSpaceOnUse" x1="160.3853" y1="255.657" x2="178.4023" y2="255.657">
				<stop  offset="1.331947e-07" style="stop-color:#B14498"/>
				<stop  offset="1" style="stop-color:#92288C"/>
			</linearGradient>
			<path style="fill:url(#SVGID_00000119096513772204980950000017227673783710920889_);" d="M160.39,260.57l2.61,1.59l15.41-12.08
				c0,0-0.98-2.05-4.81-0.01c0,0-11.18,6.45-12.9,8.73L160.39,260.57z"/>
			<path class="st1" d="M160.48,260.53c1.05,0.43,1.97,0.78,2.8,1.16l-0.62,0.04c2.37-2.26,4.82-4.43,7.59-6.19
				c2.81-1.69,5.49-3.56,7.84-5.86c0,0-0.14,0.61-0.14,0.61c-1.07-1.04-2.75-0.09-3.88,0.53c0,0-4.35,2.81-4.35,2.81
				c-2.84,1.85-6.09,3.37-8.77,5.37c0,0,0.06-0.14,0.06-0.14L160.48,260.53L160.48,260.53z M160.29,260.61
				c0.01-0.58,0.04-1.24,0.09-1.91c0,0,0.06-0.09,0.06-0.09c2.09-2.93,5.2-4.87,8.16-6.79c2.65-1.33,7.86-5.54,10.26-1.95
				c0,0,0.2,0.39,0.2,0.39c-2.92,1.79-5.5,4.01-7.91,6.44c-2.47,2.36-5.29,4.3-8.18,6.12C162.01,262.11,161.04,261.29,160.29,260.61
				L160.29,260.61z"/>
		</g>
		<g>
			
				<linearGradient id="SVGID_00000071517721714828458780000000270384794074492294_" gradientUnits="userSpaceOnUse" x1="177.0392" y1="253.6231" x2="188.7608" y2="253.6231">
				<stop  offset="1.331947e-07" style="stop-color:#B14498"/>
				<stop  offset="1" style="stop-color:#92288C"/>
			</linearGradient>
			<path style="fill:url(#SVGID_00000071517721714828458780000000270384794074492294_);" d="M177.04,248.72c0,0,0.83,4.18,7.8,9.81
				c0,0,1.92,0.01,3.92-1.74C188.76,256.79,186.67,249.74,177.04,248.72z"/>
			<path class="st1" d="M177.11,248.78c0.03,0,0.05-0.03,0.05-0.05c0.04,0.07,0.14,0.22,0.19,0.3c1.95,2.91,4.45,5.35,6.57,8.15
				c0.36,0.39,0.73,0.76,1.12,1.11c0,0-0.19-0.07-0.19-0.07c0.31,0,0.67-0.07,0.99-0.17c0.99-0.3,1.84-0.99,2.49-1.76
				c0,0-0.2,0.69-0.2,0.69C185.9,252.72,181.44,250.45,177.11,248.78L177.11,248.78z M176.97,248.65
				c5.48-0.94,11.56,2.79,12.53,8.44c-1.42,0.98-3.03,1.63-4.75,1.76c-3.25-2.14-6.45-4.48-7.55-8.44
				C177.06,249.88,176.87,249.17,176.97,248.65L176.97,248.65z"/>
		</g>
		<g>
			
				<linearGradient id="SVGID_00000178172587851228571680000004770490365642255003_" gradientUnits="userSpaceOnUse" x1="189.6082" y1="266.8104" x2="201.3202" y2="266.8104">
				<stop  offset="1.331947e-07" style="stop-color:#B14498"/>
				<stop  offset="1" style="stop-color:#92288C"/>
			</linearGradient>
			<path style="fill:url(#SVGID_00000178172587851228571680000004770490365642255003_);" d="M196.75,272.14l4.57-0.2
				c0,0-3.14-13.26-11.71-9.92C189.61,262.02,191.24,268.8,196.75,272.14z"/>
			<path class="st1" d="M196.77,272.04c1.53-0.43,2.99-0.71,4.51-0.9c0,0-0.73,0.97-0.73,0.97c-1.08-2.56-1.62-5.51-3.3-7.79
				c-1.77-2.3-4.83-2.59-7.29-1.41c0,0,0.59-1.12,0.59-1.12c0.29,0.89,0.72,1.85,1.13,2.74
				C192.94,267.32,194.6,269.88,196.77,272.04L196.77,272.04z M196.72,272.24c-3.16-1.1-5.59-3.82-7-6.8
				c-0.59-1.26-0.96-2.68-1.26-4.08c3.82-1.5,6.65-0.36,9.25,2.56c2.12,2.16,3.92,4.74,4.37,7.83c0,0,0.19,0.99,0.19,0.99
				C200.44,272.73,198.5,272.64,196.72,272.24L196.72,272.24z"/>
		</g>
		<g>
			
				<linearGradient id="SVGID_00000100370065426226450640000013425676920300133007_" gradientUnits="userSpaceOnUse" x1="172.8359" y1="260.5668" x2="211.8896" y2="260.5668">
				<stop  offset="1.331947e-07" style="stop-color:#B14498"/>
				<stop  offset="1" style="stop-color:#92288C"/>
			</linearGradient>
			<path style="fill:url(#SVGID_00000100370065426226450640000013425676920300133007_);" d="M176.15,269.12l-3.32-2.04l0.24-1.27
				c0,0,8.77-5.26,11.14-6.28c0,0,7.43-3.8,11.71-5.02c0,0,11.67-4.51,15.96-1.42l-17.79,7.04l-11.83,4.66
				C182.26,264.8,178.92,268.87,176.15,269.12z"/>
			<path class="st1" d="M176.13,269.22c-1.22-0.57-2.48-1.25-3.75-1.89c0.06-0.54,0.12-1.08,0.19-1.61c0,0,0.03-0.2,0.03-0.2
				s0.21-0.15,0.21-0.15c3.58-2.4,7.11-4.72,11.01-6.65c5.06-2.6,10.56-4.21,15.95-5.77c4.44-1.07,9.64-2.89,13.71,0.26
				c-2.86,1.26-5.75,2.52-8.64,3.7c-6.91,2.88-15.95,6.53-22.12,8.25C180.9,266.99,178.83,269.01,176.13,269.22L176.13,269.22z
				 M176.18,269.02c2.41-0.67,4.19-2.83,5.7-4.7c9.69-4.51,19.66-8.35,29.73-11.93c0,0-0.16,1.31-0.16,1.31
				c-0.88-0.71-2.2-1.02-3.5-1.13c-6.22-0.35-12.22,2.14-17.7,4.86c-5.64,2.86-11.29,5.84-16.91,8.82c0,0,0.24-0.34,0.24-0.34
				c-0.1,0.42-0.21,0.83-0.33,1.25c0,0-0.2-0.44-0.2-0.44C174.07,267.47,175.12,268.2,176.18,269.02L176.18,269.02z"/>
		</g>
		<g>
			<path class="st1" d="M118.46,209.57c2.77,0.03,5.34,1.52,7.31,3.35c1.42,1.46,2.47,3.17,3.99,4.52
				c4.56,3.95,8.27,8.94,9.82,14.83c0,0-0.18,0.09-0.18,0.09c-0.95-0.98-1.75-2.03-2.53-3.09c-3.36-4-5.39-9.06-8.96-12.82
				c-0.97-0.88-2.13-1.54-3.21-2.25c-2.1-1.49-4.01-3.09-6.29-4.44L118.46,209.57L118.46,209.57z"/>
		</g>
		<g>
			<path class="st1" d="M126.89,221.56c1.28,0.11,2.34,0.93,2.9,2.01c0.23,0.56,0.27,1.21,0.5,1.72c0.44,1.07,1.55,1.75,2.04,2.81
				c0.93,1.54,1.18,3.3,0.64,5.11c0,0-0.2,0.04-0.2,0.04c-0.45-0.47-0.78-0.95-1.05-1.44c-0.89-1.42-1.23-3-1.43-4.65
				c-0.06-0.57-0.23-1.11-0.56-1.55c-0.33-0.45-0.89-0.72-1.3-1.08c-0.76-0.75-1.21-1.63-1.65-2.81
				C126.78,221.73,126.89,221.56,126.89,221.56L126.89,221.56z"/>
		</g>
		<g>
			<path class="st1" d="M129.27,178.33c0.53-1.33,1.36-2.4,2.51-3.18c0.58-0.35,1.29-0.55,1.82-0.96c1.5-1.3,2.25-3.35,3.78-4.65
				c0.93-0.9,2.11-1.57,3.08-2.4c0,0,0.2,0,0.2,0c0.13,2.1-1.71,4.04-3.27,5.22c-1,0.88-2.47,1.27-3.35,2.3
				c-0.79,1.08-1.39,2.38-2.68,3.01c-0.59,0.34-1.2,0.66-1.96,0.8L129.27,178.33L129.27,178.33z"/>
		</g>
		<g>
			<path class="st1" d="M111.3,179.36c-0.8,2.26-1.42,5.07,0.57,5.81c1.29-0.18,2.58-0.67,3.84-1.12c4.35-1.37,7.48-4.81,10.53-8.02
				c3.1-3.22,6.17-6.45,9.48-9.47c1.08-1.03,2.22-2.03,3.41-2.98c0,0,0.15,0.13,0.15,0.13c-1.56,2.61-3.37,5.04-5.35,7.32
				c-3.88,4.68-8.95,8.16-13.89,11.59c-2.56,1.76-5.09,4.38-8.46,4.3c-2.74-0.92-2.95-3.79-1.66-5.99c0.33-0.61,0.72-1.16,1.2-1.66
				C111.13,179.25,111.3,179.36,111.3,179.36L111.3,179.36z"/>
		</g>
		<g>
			<path class="st1" d="M246.17,115.72c-0.33,0.24-0.68,0.42-1.03,0.59l0.4-0.54c0.29,0.76,0.48,1.59,0.65,2.38
				c-0.76,0.09-1.76,0.19-2.52,0.22c0,0,0.03-1.03,0.03-1.03c-0.08-1.32,0.5-2.72,0.42-4.05c-0.32-2.56-2.54-4.58-4.74-5.59
				c-1.18-0.63-2.49-0.81-3.82-1.28c0,0-0.02-0.2-0.02-0.2c3.82-1.9,8.44,0.48,8.82,4.82c0.13,2.25,1.53,4.24,1.07,6.53
				c0,0-0.86-0.98-0.86-0.98c0.22,0.01,0.44,0.04,0.65,0.06l-0.8,0.89c0.01-0.72,0.11-1.5,0.24-2.23c0.5,0.05,0.98,0.08,1.49,0.21
				C246.13,115.52,246.17,115.72,246.17,115.72L246.17,115.72z"/>
		</g>
		<g>
			
				<linearGradient id="SVGID_00000181073172719217335380000013261035604698152870_" gradientUnits="userSpaceOnUse" x1="114.5397" y1="156.6644" x2="158.3773" y2="156.6644">
				<stop  offset="0" style="stop-color:#F3E912"/>
				<stop  offset="1" style="stop-color:#FBD900"/>
			</linearGradient>
			<path style="fill:url(#SVGID_00000181073172719217335380000013261035604698152870_);" d="M158.38,137.82l-0.97,2.43
				c0,0-27.71,24.93-29.91,28.11c0,0-9.18,7.34-12.41,7.14c0,0-2.77-2.83,4.09-9.2C119.18,166.31,148.26,142.55,158.38,137.82z"/>
			<path class="st1" d="M158.45,137.75c-0.3,0.81-0.51,1.79-0.9,2.65c-2.4,2.45-4.81,4.88-7.28,7.25
				c-6.08,5.92-12.46,11.79-18.85,17.39c-1.27,1.18-2.62,2.35-3.69,3.62c-1.72,1.24-4.17,3.06-5.93,4.2
				c-2.13,1.29-4.15,2.98-6.74,3.2c0,0-0.22,0-0.22,0l-0.14-0.17c-1.89-2.59-0.06-5.52,1.48-7.61c1.26-1.81,3.77-3.83,5.5-5.23
				c7.63-6.34,15.5-12.38,23.74-17.91C149.65,142.44,153.7,139.55,158.45,137.75L158.45,137.75z M158.31,137.89
				c-8.27,5.28-15.95,11.57-23.72,17.58c-2.15,1.67-12.73,9.87-14.62,11.38c-2.01,1.86-5.84,5.29-4.49,8.27c0,0-0.36-0.16-0.36-0.16
				c3.36-0.29,6.54-2.79,9.3-4.66c0.84-0.57,2.28-1.78,2.76-2.14c1.1-1.44,2.27-2.64,3.44-3.91c3.53-3.74,7.17-7.38,11.01-10.81
				c5.07-4.61,10.26-9.08,15.64-13.33c0,0-0.05,0.07-0.05,0.07C157.55,139.44,157.94,138.71,158.31,137.89L158.31,137.89z"/>
		</g>
		<g>
			
				<linearGradient id="SVGID_00000158013560769454876380000000895484160830717885_" gradientUnits="userSpaceOnUse" x1="75.5781" y1="94.7492" x2="207.8445" y2="94.7492">
				<stop  offset="2.717173e-07" style="stop-color:#F79E6B"/>
				<stop  offset="0.3731" style="stop-color:#F7A16E"/>
				<stop  offset="0.6441" style="stop-color:#F9AA77"/>
				<stop  offset="0.8821" style="stop-color:#FBBA87"/>
				<stop  offset="1" style="stop-color:#FCC592"/>
			</linearGradient>
			<path style="fill:url(#SVGID_00000158013560769454876380000000895484160830717885_);" d="M116.52,139c0,0-1.8-9.89-23.42-19.44
				l2.12-5.96c0,0-20.81-16.73-19.59-24.24c0,0,0.24-9.96,23.75-24.49c0,0,4.24-2.04,13.06-1.14c0,0,8.08,3.02,9.96-2.45
				c0,0,6.77-16.08,12.32-18.85c0,0,4.65-4.08,10.04-2.29c0,0,7.92-3.51,11.34-2.12c0,0,15.26,0.65,20.81,6.28
				c0,0,8.67,12.36,14.92,18.88c0,0,8.57,7.85,16.01,31.2c0,0-11.32,6.26-13.69,6.59l-18.71-11.05c0,0-13.71,8.49-15.34,8.49
				c0,0-5.63,1.88-8.81,2.53l-0.08,0.73l8.37-2.5l-9.27,9.11c0,0,9.63-8.9,9.79-9.88c0,0,15.02-11.02,25.71-3.43
				c0,0,6.69,4.57,6.53,7.59c0,0,1.39,30.28-15.83,29.3l-9.88-6.86c0,0-2.74,13.82-6.74,13.74c0,0-3.46,1.27-10.16-13.17
				c0,0,2.12,10.47,7.35,12.32c0,0-18.01,11.86-21.27,13.22c0,0-15.02,0.71-15.51,0.65c0,0-13.72-0.15-19.27-27.98
				c0,0,7.42,2.07,13.5,11.4C114.54,135.22,115.88,136.67,116.52,139z"/>
			<path class="st1" d="M116.5,138.9c-0.05-0.05-0.12,0.03-0.1,0c0,0-0.03-0.11-0.03-0.11c-0.15-0.54-0.4-1.06-0.64-1.56
				c-4.82-8.56-14.21-13.26-22.83-17.21c0,0-0.42-0.19-0.42-0.19l0.15-0.44c0,0,2.07-5.97,2.07-5.97s0.17,0.62,0.17,0.62
				c-6.19-5.11-12.28-10.45-17.07-16.95c-1.57-2.2-3.27-5.23-2.94-7.74c1.49-8.27,10.39-15.45,16.77-20.3
				c1.98-1.57,5.17-3.49,7.29-4.92c4.35-1.77,9.04-1.65,13.61-1.26c2.35,0.73,5.54,1.46,7.7,0.02c0.48-0.32,0.84-0.77,1.12-1.3
				c2.61-5.91,5.46-11.82,9.6-16.84c0.8-1.01,2.63-2.62,3.31-2.84c2.96-2.37,7.01-3.61,10.7-2.34c0,0-0.44,0.02-0.44,0.02
				c1.85-0.77,3.72-1.41,5.67-1.88c1.76-0.54,4.81-0.76,5.95-0.19c3.72,0.25,7.39,0.8,11.01,1.71c3.59,0.97,7.3,2.16,10.04,4.83
				c4.31,6.04,8.72,12.06,13.65,17.62c1.69,1.79,3.45,3.65,4.81,5.7c5.73,8.26,9.51,17.67,12.61,27.18
				c-3.99,2.17-7.97,4.38-12.15,6.18c-0.63,0.25-1.27,0.52-2.01,0.64c0,0-0.12-0.07-0.12-0.07s-18.75-10.97-18.75-10.97l0.47,0
				c-2.49,1.55-5,3.07-7.53,4.56c-2.24,1.29-4.45,2.62-6.81,3.7c-2.81,0.94-6.52,2.2-9.93,3c0,0,0.5-0.55,0.5-0.55
				s-0.07,0.74-0.07,0.74l-0.81-0.68c1.8-0.54,9.24-2.79,10.92-3.29c-1.09,1.06-9.81,9.73-11.13,11.03c0,0-1-1.05-1-1.05
				c3.12-2.98,6.33-5.91,9.18-9.14c0.13-0.14,0.26-0.34,0.33-0.45c-0.15,0.36,0.29-0.43,0.29-0.41c5.36-3.65,11.5-6.46,18.13-6.34
				c5.1,0.02,9.54,2.94,13,6.46c1.22,1.38,2.52,2.62,2.56,4.74c0.2,10.86-1.74,30.88-16.87,30.3c0,0-0.3-0.02-0.3-0.02
				s-0.24-0.17-0.24-0.17s-9.87-6.87-9.87-6.87s1.61-0.65,1.61-0.65c-2.14,9.67-6.19,22.26-14.72,8.49c-1.57-2.46-2.86-5.07-4.1-7.7
				c0,0,1.89-0.62,1.89-0.62c1.12,4.18,2.48,9.62,6.67,11.65c0,0,1.75,0.65,1.75,0.65l-1.55,1.01c-5.27,3.41-10.54,6.8-15.91,10.06
				c-1.85,1.1-3.62,2.21-5.69,3.18c0,0-0.15,0.01-0.15,0.01c-2.53,0.09-9.18,0.38-11.64,0.45c-0.84,0-2.56,0.1-3.41,0.1
				c-3.2-0.01-6.43-1.94-8.86-4.14c-6.88-6.51-9.65-16.07-11.37-25.06c6.01,1.97,10.72,6.64,14.11,11.84
				C115.43,136.11,116.41,137.57,116.5,138.9L116.5,138.9z M116.54,139.09c-0.61-1.3-1.12-2.73-2.14-3.79
				c-2.49-3.69-5.65-6.98-9.49-9.28c-1.26-0.75-2.61-1.43-3.98-1.86l0.45-0.41c2.27,10.2,7.15,25.36,18.92,27.36
				c4.35-0.15,11.06-0.55,15.46-0.76c5.87-3.41,14.28-8.84,20.8-13.2c0,0,0.2,1.66,0.2,1.66c-5-2.16-6.75-8.18-8.02-13
				c0,0-1.78-8.17-1.78-8.17c2.22,4.39,5.03,10.9,7.66,15c1.33,1.91,2.8,4.45,5.02,5.15c-0.03,0.01,0.03-0.01-0.12,0.03
				c3.32-0.21,5.38-10.12,6.07-12.98c0,0,0.32-1.54,0.32-1.54c0.45,0.31,10.36,7.18,11.17,7.74c0,0-0.54-0.19-0.54-0.19
				c10.02,0.64,13.38-10.96,14.34-19.05c0.38-3.06,0.54-6.2,0.47-9.25c0.04-0.41-0.24-1.05-0.61-1.62
				c-1.26-1.84-3.05-3.31-4.84-4.68c-8.26-6.54-19.61-0.82-25.12,2.63c-2.87,3.73-6.63,6.7-10,9.96c0,0-1-1.05-1-1.05l9.31-9.06
				l0.65,1.11l-8.38,2.47c0,0-0.93,0.27-0.93,0.27c0.04-0.41,0.17-1.28,0.21-1.69c0,0,0.06-0.45,0.06-0.45s0.44-0.09,0.44-0.09
				c2.99-0.6,5.97-1.59,8.94-2.44c2.63-0.88,5.12-2.54,7.57-3.87c2.61-1.51,5.2-3.05,7.78-4.63c0,0,0.23,0.14,0.23,0.14
				c-0.26-0.14,19.56,11.54,18.43,11.07c4.72-1.49,9.17-4.24,13.58-6.52c0,0-0.16,0.39-0.16,0.39c-3.88-11.58-8.5-23.52-17.14-32.42
				c-4.97-5.55-9.42-11.51-13.77-17.55c-2.38-2.27-6.28-3.7-9.68-4.49c-3.58-0.84-7.28-1.31-10.94-1.5
				c-0.81-0.34-1.79-0.34-2.75-0.25c-2.92,0.32-5.77,1.36-8.46,2.52c-3.34-1.22-7.12,0.08-9.76,2.26c-2.29,1.33-3.94,3.82-5.41,6.04
				c-2.63,4.18-4.83,8.72-6.77,13.26c-1.81,4.02-8.1,3.25-10.5,2.25c-4.03-0.43-9.03-0.26-12.5,1.03c0,0-3.65,2.34-3.65,2.34
				c-7.11,4.87-17.94,12.75-19.8,21.52c-0.38,6.99,14.2,19.4,19.48,23.94c0,0-0.13,0.36-0.13,0.36l-2.17,5.94
				c0,0-0.27-0.63-0.27-0.63c8.67,4.14,18.97,9.76,23.03,18.93c0,0,0.16,0.47,0.16,0.47s0.07,0.24,0.07,0.24s0.03,0.12,0.03,0.12
				C116.63,138.91,116.58,139.07,116.54,139.09L116.54,139.09z"/>
		</g>
		<g>
			
				<linearGradient id="SVGID_00000109712500001406299120000009182026884130163638_" gradientUnits="userSpaceOnUse" x1="96.817" y1="269.0119" x2="106.7018" y2="269.0119">
				<stop  offset="1.331947e-07" style="stop-color:#B14498"/>
				<stop  offset="1" style="stop-color:#92288C"/>
			</linearGradient>
			<path style="fill:url(#SVGID_00000109712500001406299120000009182026884130163638_);" d="M99.39,280.58l-2.54-1.16
				c0,0-0.33-10.56,0.98-11.81c0,0,2.67-10.17,8.87-10.17C106.7,257.44,100.75,271.06,99.39,280.58z"/>
			<path class="st1" d="M99.44,280.67c-0.84-0.25-1.97-0.54-2.99-0.92c0,0-0.04-0.32-0.04-0.32c-0.41-3.52-0.69-7.12,0.07-10.62
				c0.2-0.67,0.28-1.12,0.85-1.73c0,0-0.2,0.34-0.2,0.34c1.47-3.4,3.12-6.79,5.93-9.29c1.24-1.09,3.07-1.55,4.76-1.55
				C105.03,264.52,102,272.69,99.44,280.67L99.44,280.67z M99.35,280.5c0.1-8.2,3.15-16.05,6.65-23.36c0,0,0.71,1.08,0.71,1.08
				c-3.55-0.27-6.15,3.14-7.26,6.2c-0.38,1.11-0.71,2.28-0.9,3.39l-0.2,0.34c-0.75,3.62-0.63,7.53-1.04,11.27
				c0,0-0.26-0.39-0.26-0.39C97.73,279.43,98.44,279.96,99.35,280.5L99.35,280.5z"/>
		</g>
		<g>
			
				<linearGradient id="SVGID_00000044883246171508131180000018425373131481622434_" gradientUnits="userSpaceOnUse" x1="76.7183" y1="267.7068" x2="142.9216" y2="267.7068">
				<stop  offset="1.331947e-07" style="stop-color:#B14498"/>
				<stop  offset="1" style="stop-color:#92288C"/>
			</linearGradient>
			<path style="fill:url(#SVGID_00000044883246171508131180000018425373131481622434_);" d="M141.25,253.7l1.47-0.27
				c0,0,1.2,2.88-2.23,6.2c0,0-8.6,9.3-12.02,10.61c0,0-12.3,9.52-18.23,11.75h-9.41c0,0-17.47-4.14-24.1-9.03v-2.67l1.25-2.18
				c0,0-0.65-1.85,6.86,4.08c0,0,7.73,3.97,20.68,4.84c0,0,9.02-0.39,12.11-3.37c0,0,8.56-4.61,13.86-9.47
				C131.47,264.2,141.4,255.85,141.25,253.7z"/>
			<path class="st1" d="M141.17,253.63c0,0,1.51-0.39,1.51-0.39l0.15-0.04c1.55,4.22-2.68,7.34-5.1,10.14
				c-2.8,2.8-5.37,5.83-8.97,7.68c-4.77,3.7-11.89,9.25-18.53,11.63c0,0-9.41-0.27-9.41-0.27c-2.13-0.52-4.23-1.17-6.33-1.77
				c-6.2-1.95-12.57-3.65-18.12-7.19c0,0-0.23-0.16-0.23-0.16l-0.01-0.31c0,0-0.07-2.67-0.07-2.67l0-0.16l0.09-0.17
				c0,0,1.19-2.21,1.19-2.21l-0.05,0.6c-0.08-0.19-0.05-0.31-0.04-0.5c0.63-1.98,3.69,0.58,4.69,1.15c1.18,0.8,2.31,1.65,3.44,2.5
				c0,0-0.14-0.09-0.14-0.09c6.37,2.82,13.42,4.04,20.35,4.56c3.2-0.33,8.38-0.65,11.35-3.02c6.93-3.68,13.42-8.22,19.21-13.53
				c1.75-1.64,3.72-3.18,4.92-5.29c0,0,0.07-0.21,0.07-0.21S141.17,253.63,141.17,253.63L141.17,253.63z M141.33,253.76
				c0.01,0.07,0.02,0.13,0.01,0.2l-0.06,0.26c-0.98,2.29-2.91,4.02-4.55,5.84c-5.49,5.73-11.73,10.6-18.66,14.48
				c0,0,0.22-0.16,0.22-0.16c-0.93,0.9-2,1.41-3.05,1.84c-3.14,1.22-6.42,1.68-9.76,1.89c-1.82-0.15-3.64-0.3-5.44-0.59
				c-5.43-0.88-10.81-2.16-15.77-4.63c-1.95-1.51-3.85-3.28-6.09-4.3c0.27-0.03,0.53-0.32,0.49-0.6c-0.05-0.39-0.06,0.5-0.08,0.49
				c0,0-1.31,2.14-1.31,2.14s0.09-0.33,0.09-0.33l-0.07,2.67l-0.24-0.47c1.65,1.27,3.57,2.25,5.49,3.16
				c5.7,2.64,12.49,4.61,18.26,5.94c0,0,9.41-0.27,9.41-0.27c5.23-2.67,12.28-7.71,17.71-11.75c3.24-1.58,6.19-4.6,8.93-7.08
				c2.36-2.57,6.52-5,5.67-9c0,0,0.2,0.11,0.2,0.11S141.33,253.76,141.33,253.76L141.33,253.76z"/>
		</g>
		<g>
			<path class="st1" d="M152.68,113.47c0,0,26.36-25.14,35.5,3.26c0,0-6.61-8.16-10.12-10.2c0,0,1.31,9.96-7.63,13.39
				c0,0-0.2-1.31,5.35-7.18C175.77,112.74,179.45,95.27,152.68,113.47z"/>
			<g>
				<path class="st1" d="M90.31,103.01c4.3-0.61,8.43,1.87,11.56,4.58c3.19,2.71,5.63,6.34,7.61,10.01c0,0-0.46-0.26-0.46-0.26
					c7.4-1.17,9.81-11.19,11.41-17.37c0,0,0.7-3.11,0.7-3.11s0.02,0.5,0.02,0.5c-1.6-3.97-4.89-7.48-9.07-8.75
					c-4.37-1.27-9.08-0.24-13.36,1.12c0,0-0.08-0.18-0.08-0.18c1.04-0.55,2.11-1.05,3.18-1.58c8.98-3.78,18.11-0.48,21.27,9.06
					c-1.04,4.28-2.51,8.62-4.67,12.46c-2.27,3.68-4.84,7.95-9.4,8.93c0,0-0.25,0.03-0.25,0.03s-0.21-0.29-0.21-0.29
					c-3.58-4.77-7.38-9.88-12.57-12.99c-1.71-1-3.61-1.85-5.64-1.97L90.31,103.01L90.31,103.01z"/>
			</g>
			<path class="st1" d="M136.11,53.24l2.29,0.57v-2.45h0.73c0,0,7.18,18.12,4.24,25.79l-0.82,0.33
				C142.56,77.48,138.64,51.94,136.11,53.24z"/>
			<g>
				<path class="st1" d="M118.74,74.06c0.75,2.02,1.32,3.96,1.66,6.06c0.12,2.09,0.49,4.24,1.9,5.89c1.23,1.6,2.51,3.27,3.88,4.74
					c1.25,1.6,2.74,2.92,4.18,4.61l-0.1,0.17c-5.01-1.22-8.27-5.78-9.43-10.58c-0.88-2.55-2.72-4.79-2.64-7.62
					c-0.05-1.09,0.01-2.19,0.35-3.27C118.54,74.06,118.74,74.06,118.74,74.06L118.74,74.06z"/>
			</g>
			<path class="st1" d="M133.26,66.8c0,0-6.3,2.74-7.59,4.57c0,0-3.67,2.61-4.57,2.61c0,0,0.82,8.57,4.82,13.79l9.71,4.65h2.86v-0.9
				h-1.88C136.6,91.53,142.72,77.08,133.26,66.8z M133.66,90.88c0,0-11.26-6.61-10.61-16.4c0,0,5.39-5.79,10.04-5.47
				c0,0,7.18,4.24,3.18,21.87H133.66z"/>
		</g>
	</g>
	<g>
		<g>
			
				<linearGradient id="SVGID_00000166670781707743420570000014465702919788025247_" gradientUnits="userSpaceOnUse" x1="185.877" y1="136.1976" x2="191.8351" y2="136.1976">
				<stop  offset="1.385225e-07" style="stop-color:#186634"/>
				<stop  offset="1" style="stop-color:#7DC143"/>
			</linearGradient>
			<path style="fill:url(#SVGID_00000166670781707743420570000014465702919788025247_);" d="M191.84,146.14c0,0-4.65,4.28-5.96,4.45
				c0,0,1.92-20.77,0.65-23.14l3.59-5.65L191.84,146.14z"/>
			<path class="st1" d="M191.93,146.18c-1.46,1.77-2.96,3.35-4.84,4.67c-0.38,0.36-1.41,0.59-2.02,0.7c0.1-2.27,0.21-4.55,0.39-6.81
				c0.44-5.25,1.77-10.55,0.93-15.82c-0.07-0.39-0.14-0.78-0.33-1.21c0,0-0.11-0.3-0.11-0.3c1.11-2.04,2.21-4.1,3.41-6.09
				c0,0,1.41-2.34,1.41-2.34s0.26,2.76,0.26,2.76C191.88,129.66,192.33,138.35,191.93,146.18L191.93,146.18z M191.74,146.1
				c-1.48-8.14-2.27-16.09-2.53-24.23c0,0,1.67,0.42,1.67,0.42c-1.24,1.85-2.58,3.65-3.91,5.44l0.02-0.54
				c0.34,0.99,0.28,2.08,0.29,3.1c-0.21,4.82,0.2,9.76-0.06,14.57c-0.13,1.94-0.34,3.86-0.6,5.79c0,0-0.86-0.83-0.86-0.83
				C187.85,149.03,189.83,147.23,191.74,146.1L191.74,146.1z"/>
		</g>
		<g>
			
				<linearGradient id="SVGID_00000056415681863293794680000009279409682780992151_" gradientUnits="userSpaceOnUse" x1="195.5894" y1="111.5969" x2="207.8445" y2="111.5969">
				<stop  offset="1.385225e-07" style="stop-color:#186634"/>
				<stop  offset="1" style="stop-color:#7DC143"/>
			</linearGradient>
			<path style="fill:url(#SVGID_00000056415681863293794680000009279409682780992151_);" d="M196.69,128.06l2.53-1.51l-1.27-12.65
				c0,0,10.73-15.02,9.83-18.77c0,0-3.14,2.08-6.41,8.86c0,0-5.14,10.24-5.79,10.73L196.69,128.06z"/>
			<path class="st1" d="M196.74,127.97c0.89-0.63,1.58-1.27,2.28-1.77l-0.2,0.39c-0.78-4.29-1.37-8.6-1.78-12.94
				c3.57-5.13,8.07-9.95,9.96-16.04c0.23-0.81,0.42-1.73,0.25-2.35c0,0,0.86,0.34,0.86,0.34c-5.14,5.03-6.97,12.46-10.85,18.41
				c-0.3,0.47-0.66,1.11-1.09,1.47c0,0,0.38-0.84,0.38-0.84C196.77,119.08,196.61,123.36,196.74,127.97L196.74,127.97z
				 M196.65,128.15c-0.63-4.05-1.59-9.29-2.01-13.35c0,0,0.38-0.84,0.38-0.84c-0.01-0.01-0.03-0.01-0.03-0.01
				c-0.01,0.02,0.04-0.06,0.04-0.07c0.31-0.52,0.88-1.58,1.17-2.13c1.28-2.49,2.7-5.23,4.03-7.68c1.94-3.78,4.25-7.58,8.01-9.92
				c0.51,2.34-0.64,4.26-1.58,6.21c-2.55,4.75-4.92,9.6-7.97,14.06c0,0,0.16-0.61,0.16-0.61c0.43,4.32,0.72,8.64,0.78,12.98
				C198.62,127.33,197.49,127.76,196.65,128.15L196.65,128.15z"/>
		</g>
		<g>
			
				<linearGradient id="SVGID_00000103260663051999781920000010848557070190121879_" gradientUnits="userSpaceOnUse" x1="190.6105" y1="105.3305" x2="206.0397" y2="105.3305">
				<stop  offset="1.385225e-07" style="stop-color:#186634"/>
				<stop  offset="1" style="stop-color:#7DC143"/>
			</linearGradient>
			<path style="fill:url(#SVGID_00000103260663051999781920000010848557070190121879_);" d="M190.61,119.04c0,0,3.96-1.8,7.59-9.71
				c1.68-1.68,11.86-18.03,6.08-17.71c0,0-4.24-0.53-8.94,10.08C195.34,101.7,190.57,114.56,190.61,119.04z"/>
			<path class="st1" d="M190.66,118.96c-0.01-0.03-0.04-0.04-0.06-0.03c0.02-0.01,0.09-0.07,0.11-0.08c2.7-2.24,4.48-5.4,6.03-8.5
				c0,0,0.64-1.39,0.64-1.39l0.05-0.11c0.51-0.58,1.05-1.34,1.58-2.1c2.43-3.47,5.18-7.03,6.32-11.17c0.44-1.72,0.73-4.19-1.84-3.18
				c-1.97,0.91-3.33,2.74-4.51,4.54c-2.79,4.44-4.2,9.61-6.04,14.48C192.08,113.82,191.22,116.46,190.66,118.96L190.66,118.96z
				 M190.56,119.13c-0.34-2.69,0.36-5.5,0.9-8.14c1.3-5.28,2.7-10.65,5.95-15.11c1.81-2.58,5.3-6.24,8.44-4.32
				c1.83,2.04-1.05,6.89-1.83,9.1c-1.19,2.81-3.56,7.76-5,9.04c-1.8,3.66-4.22,7.42-7.98,9.28
				C190.93,119.02,190.68,119.17,190.56,119.13L190.56,119.13z"/>
		</g>
		<g>
			
				<linearGradient id="SVGID_00000178906948975136530710000003288380639749148595_" gradientUnits="userSpaceOnUse" x1="190.4987" y1="93.9201" x2="197.2483" y2="93.9201">
				<stop  offset="1.385225e-07" style="stop-color:#186634"/>
				<stop  offset="1" style="stop-color:#7DC143"/>
			</linearGradient>
			<path style="fill:url(#SVGID_00000178906948975136530710000003288380639749148595_);" d="M194.16,106.65l-1.85,0.49
				c0,0-5.88-16.6,3.54-26.44C195.85,80.7,199.93,91.42,194.16,106.65z"/>
			<path class="st1" d="M194.23,106.73c-0.63,0.29-1.38,0.61-2.11,0.88c-2.02-4.44-2.96-9.45-2.23-14.3
				c0.97-5.08,2.79-9.91,6.12-13.93c0,0,0.46,1.09,0.46,1.09C199.73,88.97,198.45,98.81,194.23,106.73L194.23,106.73z
				 M194.09,106.58c1.41-6.32,2.36-12.84,2.03-19.31c-0.13-2.13-0.43-4.31-0.91-6.33l1.12,0.23c-3.46,3.03-5.23,7.67-5.04,12.25
				c0.09,4.57,0.43,9.11,1.36,13.61c0,0-0.44-0.23-0.44-0.23C192.8,106.71,193.42,106.65,194.09,106.58L194.09,106.58z"/>
		</g>
		<g>
			
				<linearGradient id="SVGID_00000114755150082221533630000007649893379034676352_" gradientUnits="userSpaceOnUse" x1="144.4799" y1="65.1428" x2="191.8351" y2="65.1428">
				<stop  offset="1.385225e-07" style="stop-color:#186634"/>
				<stop  offset="1" style="stop-color:#7DC143"/>
			</linearGradient>
			<path style="fill:url(#SVGID_00000114755150082221533630000007649893379034676352_);" d="M188.66,97.89
				c-34.7-7.99-29.65-20.84-29.65-20.84c6.53,1.36,24.05,13.49,24.05,13.49l-4.19-10.39c-21.55-11.86-24.05-21.6-24.05-21.6
				c2.29-0.87,11.59,7.07,11.59,7.07c6.31,5.77,10.17,6.37,10.17,6.37c0.49-4.24-7.84-11.59-7.84-11.59l-0.11-0.82
				c-21.62-8.66-24.16-22.64-24.16-22.64c3.54-0.76,19.7,14.36,19.7,14.36c-5.6-6.15-6.24-10.94-6.24-10.94l4.71,2.94l-3.1-7.18
				c-1.63-4.41,1.9-3.7,1.9-3.7c9.74,10.94,11.86,29.27,11.86,29.27l0.71-0.05l3.37,8.49l1.31-0.11l0.6-20.3
				c4.41,0.71,3.65,29.98,3.65,29.98l2.72,8.71l0.92-0.05c0.16-8.27,3.86-20.84,3.86-20.84l1.36-0.27
				c0.22,2.61-1.69,30.25-1.69,30.25L188.66,97.89z"/>
			<path class="st1" d="M188.66,97.99c-9.53-2.19-19.77-4.67-27.01-11.66c-2.5-2.58-4.46-6.41-3.09-10.06
				c4.88,1.1,9,3.71,13.26,6.12c3.99,2.37,7.87,4.86,11.71,7.46l-1.25,1l-4.24-10.37c0,0,0.39,0.44,0.39,0.44
				c-8.74-4.98-20.56-12.49-24.34-22.19c0,0-0.19-0.65-0.19-0.65l0.64-0.22c1.37-0.37,2.51,0.4,3.64,0.95
				c6.65,3.51,11.2,10.44,18.45,12.74c0,0-0.5,0.38-0.5,0.38c0.14-2.22-1.48-4.35-2.78-6.1c-1.49-1.89-3.18-3.65-4.95-5.27
				c-0.01-0.07-0.11-0.85-0.12-0.94c0,0,0.21,0.27,0.21,0.27c-2.66-1.08-5.25-2.33-7.73-3.78c-7.49-4.38-14.55-10.81-16.8-19.49
				c2.32-0.46,4.4,1.4,6.26,2.49c5.1,3.53,9.77,7.59,14.38,11.72c0,0-0.92,0.91-0.92,0.91c-2.94-3.25-5.58-6.89-6.52-11.27
				c0,0-0.31-1.67-0.31-1.67l1.48,0.91c0,0,4.73,2.9,4.73,2.9s-1.18,1.01-1.18,1.01s-2.68-6.09-2.68-6.09
				c-1.45-2.66-1.73-6.69,2.69-5.96c5.59,6.23,8.72,14.07,10.83,22.02c0.67,2.63,1.23,5.24,1.6,7.97l-1.11-0.91
				c0.36-0.03,1.1-0.09,1.47-0.12c0,0,0.29,0.71,0.29,0.71l3.39,8.48c0,0-1.07-0.66-1.07-0.66s1.31-0.11,1.31-0.11L177.65,70
				l0.63-20.29c0,0,0.04-1.18,0.04-1.18s1.15,0.2,1.15,0.2c1.84,0.43,2.33,2.36,2.81,3.84c2.02,8.91,1.65,18.11,1.56,27.17
				c0,0-0.04-0.29-0.04-0.29l2.66,8.73c0,0-0.83-0.57-0.83-0.57s0.93-0.05,0.93-0.05s-0.77,0.8-0.77,0.8
				c0.35-7.33,2.18-14.36,4.2-21.35c0.63-0.12,1.79-0.33,2.42-0.45c-0.01,5.38-0.52,10.54-0.9,15.86
				c-0.01,0.08-1.24,15.13-1.25,15.2c0,0-0.09,0.02-0.09,0.02S188.66,97.99,188.66,97.99L188.66,97.99z M188.66,97.79
				c0,0,1.44-0.4,1.44-0.4l-0.09,0.11l0.72-15.13c0.11-4.4,0.6-10.77,0.5-15.06c0,0,0.7,0.53,0.7,0.53s-1.36,0.29-1.36,0.29
				l0.46-0.42c-1.82,6.99-3.51,14.22-3.64,21.43c-0.4,0.04-1.27,0.08-1.68,0.11c0,0-0.63,0.04-0.63,0.04s-0.2-0.62-0.2-0.62
				s-2.78-8.69-2.78-8.69c-0.06-5.19-0.01-10.44-0.36-15.63c-0.24-3.77-0.48-7.6-1.43-11.23c-0.15-0.71-0.74-2.15-1.18-2.37
				c0,0,1.19-0.98,1.19-0.98l-0.57,20.3l-0.03,0.94c-0.53,0.05-1.71,0.14-2.25,0.19c0,0-0.78,0.07-0.78,0.07l-0.29-0.73l-3.35-8.5
				l1.04,0.65c-0.4,0.03-1.28,0.09-1.69,0.12c-0.66-5.5-2.01-11.02-3.94-16.24c-1.84-4.9-4.28-9.64-7.7-13.54c0,0,0.5,0.29,0.5,0.29
				c-0.32-0.06-0.8-0.01-0.97,0.11c-0.17,0.1-0.27,0.26-0.3,0.67c-0.02,0.93,0.42,1.88,0.81,2.81c0.75,1.76,2.89,6.83,3.59,8.49
				c-1.46-0.93-5.38-3.41-6.89-4.36c0,0,1.18-0.76,1.18-0.76c0.35,1.9,1.28,3.88,2.27,5.59c1.05,1.79,2.31,3.45,3.68,5.01
				c0,0-0.92,0.91-0.92,0.91c-5.64-5.05-11.12-10.7-17.9-14.2c-0.44-0.17-0.93-0.31-1.27-0.25c0,0,0.31-0.47,0.31-0.47
				c0.61,2.67,1.99,5.24,3.59,7.54c4.97,7.05,12.54,11.82,20.49,14.92c0.01,0.11,0.12,0.89,0.14,1.02c0,0-0.11-0.21-0.11-0.21
				c1.8,1.62,3.47,3.34,4.99,5.23c1.55,2.07,3.35,4.34,3.01,7.15c-1.31-0.22-2.51-0.71-3.63-1.28c-5.8-2.99-10.05-8.19-15.83-11.19
				c-0.66-0.34-1.86-0.94-2.45-0.81c0,0,0.45-0.87,0.45-0.87c0.16,0.51,0.47,1.15,0.78,1.71c3.79,6.39,9.9,11.04,15.99,15.11
				c1.85,1.18,5.36,3.28,7.27,4.35c0.81,2.03,4.53,11.38,5.28,13.26c-6.39-4.44-12.93-8.81-19.8-12.48
				c-2.01-1.05-4.09-2.1-6.18-2.62c0,0,0.75-0.41,0.75-0.41c-0.2,0.58-0.27,1.41-0.2,2.13C161.04,90.27,179.53,95.29,188.66,97.79
				L188.66,97.79z"/>
		</g>
		<g>
			
				<linearGradient id="SVGID_00000070837290974031374120000005672471289612342680_" gradientUnits="userSpaceOnUse" x1="150.808" y1="38.6079" x2="189.8457" y2="38.6079">
				<stop  offset="1.385225e-07" style="stop-color:#186634"/>
				<stop  offset="1" style="stop-color:#7DC143"/>
			</linearGradient>
			<path style="fill:url(#SVGID_00000070837290974031374120000005672471289612342680_);" d="M166.56,35.83l1.2,0.17
				c0,0-4.19-6.07-4.95-5.79c0,0-13.49-10.99-11.86-12.19c0,0,4.35-0.44,11.1,6.09c0,0,2.67,2.29,4.41,2.01c0,0-0.93-7.67,0.27-7.4
				c0,0,7.35,1.25,13.39,17.77l4.03,12.71l1.31-0.22c0,0-0.98-6.47,0.82-7.56c0,0,5.5-0.82,2.88,17.79l0,0c0,0-7.07-8.54-9.79-10.88
				l-1.96-2.88c0,0-8.28-5.69-8.94-5.69C168.45,39.75,163.37,35.01,166.56,35.83z"/>
			<path class="st1" d="M166.58,35.73l1.2,0.16l-0.11,0.17c-1.45-1.92-2.89-4.23-4.78-5.62c0,0-0.25-0.04-0.25-0.04
				c-3.46-2.66-6.9-5.34-10.08-8.35c-0.94-1.08-3.7-3.27-2.13-4.73c0,0,0.21-0.15,0.21-0.15c1.02-0.08,1.83,0.08,2.75,0.33
				c3.03,0.87,5.61,2.74,7.91,4.8c0.99,0.98,2.08,2.04,3.31,2.68c0.59,0.32,1.24,0.55,1.73,0.51l-0.53,0.71
				c-0.14-2.33-0.42-4.68,0.03-7.02c0.13-0.35,0.16-0.67,0.66-0.85c1.23,0.05,2.4,0.95,3.35,1.6c5.82,4.63,9.09,11.75,11.54,18.6
				c1.22,3.45,2.4,6.92,3.56,10.4c0,0-0.96-0.59-0.96-0.59s1.3-0.24,1.3-0.24l-0.73,1.01c-0.3-2.43-0.67-4.96,0.21-7.34
				c0.18-0.43,0.58-0.99,1.15-1.3c0.25-0.05,0.61-0.04,0.77-0.01c6.45,1.65,3.79,16.4,3.11,21.29c-3.45-4.34-7.06-8.93-10.88-12.94
				c-0.03-0.03-0.1-0.09-0.11-0.13c0,0-1.84-2.97-1.84-2.97l0.13,0.13l-4.27-3.14c-1.35-0.92-3-2.22-4.46-2.85
				C167.69,39.21,163.38,35.05,166.58,35.73L166.58,35.73z M166.54,35.93c-2.71-0.7,1.5,3.22,2.01,3.72c0,0-0.09-0.04-0.09-0.04
				c0.84,0.27,1.66,0.85,2.41,1.26c1.46,0.87,5.31,3.24,6.8,4.16c0,0,0.06,0.04,0.06,0.04s0.07,0.09,0.07,0.09l2.08,2.8
				c0,0-0.11-0.13-0.11-0.13c3.72,3.18,6.95,7.04,10.17,10.71c0,0-1.82,0.52-1.82,0.52c0.38-3.72,1.99-14.92-1.72-16.68
				c0,0,0.36-0.13,0.36-0.13c-0.09,0.01-0.37,0.51-0.46,1.05c-0.39,2.08-0.12,4.33,0.12,6.43c-0.48,0.07-1.65,0.25-2.14,0.32
				c0,0-0.75,0.11-0.75,0.11s-0.21-0.7-0.21-0.7c-1.92-6.04-3.23-12.41-5.83-18.22c-2.31-4.81-5.65-10.42-10.77-12.12
				c0.15-0.1-0.03,0.08-0.03,0.27c-0.27,2.39,0.2,4.89,0.5,7.28c-1.13,0.26-2.3,0.02-3.18-0.43c-1.43-0.65-2.64-1.65-3.79-2.7
				c-1.65-1.37-3.44-2.67-5.36-3.58c-1.18-0.55-2.54-1.07-3.82-1.09c0,0,0.42-0.16,0.42-0.16c0.14-0.08,0.23-0.35,0.21-0.41
				c0.41,1.01,1.27,1.85,2,2.69c2.89,3.19,6.09,6.14,9.3,9.01c0,0-0.25-0.04-0.25-0.04c0.41-0.05,0.5,0.14,0.66,0.22
				c1.76,1.69,3.04,3.79,4.47,5.75c0,0,0.14,0.21,0.14,0.21s-0.25-0.04-0.25-0.04L166.54,35.93L166.54,35.93z"/>
		</g>
	</g>
</g>
</svg>
