<?xml version="1.0" encoding="utf-8"?>
<!-- Generator: Adobe Illustrator 26.0.3, SVG Export Plug-In . SVG Version: 6.00 Build 0)  -->
<svg version="1.1" id="Layer_1" xmlns="http://www.w3.org/2000/svg" xmlns:xlink="http://www.w3.org/1999/xlink" x="0px" y="0px"
	 viewBox="0 0 595.28 609.89" style="enable-background:new 0 0 595.28 609.89;" xml:space="preserve">
<style type="text/css">
	.st0{fill:#F16127;}
	.st1{fill:#FFFFFF;stroke:#000000;stroke-width:4;stroke-miterlimit:10;}
	.st2{fill:#F5B11E;}
	.st3{fill:#319C47;stroke:#000000;stroke-width:3;stroke-miterlimit:10;}
	.st4{fill:none;stroke:#000000;stroke-width:3;stroke-miterlimit:10;}
	.st5{stroke:#000000;stroke-miterlimit:10;}
</style>
<rect x="-1" y="-1" class="st0" width="596.28" height="611.89"/>
<g>
	<ellipse class="st1" cx="297.64" cy="397.31" rx="159.16" ry="155.06"/>
	<ellipse class="st2" cx="303.59" cy="397.31" rx="149.2" ry="152.92"/>
	
		<ellipse transform="matrix(0.6589 -0.7522 0.7522 0.6589 -81.6341 216.879)" class="st3" cx="198.33" cy="198.45" rx="44.01" ry="52.27"/>
	
		<ellipse transform="matrix(0.8286 -0.5598 0.5598 0.8286 -31.2064 156.8686)" class="st3" cx="240.61" cy="129.4" rx="22.5" ry="36"/>
	
		<ellipse transform="matrix(0.7269 -0.6867 0.6867 0.7269 -22.3204 304.2584)" class="st3" cx="371.4" cy="180.19" rx="61" ry="39.5"/>
	<g>
		<path d="M179.2,178.67c9.4,8.89,19.58,18.77,28.79,27.93c9.8,9.16,19.15,18.85,26.25,30.33c0,0-0.36,0.34-0.36,0.34
			c-2.81-1.94-5.43-4.06-7.98-6.25c-7.76-6.43-14.34-14.01-20.81-21.68c-3.32-3.73-9.95-11.3-13.21-15.08
			c-4.34-5.09-8.74-10.12-13.03-15.25C178.84,179.01,179.2,178.67,179.2,178.67L179.2,178.67z"/>
	</g>
	<g>
		<path d="M232.56,119.48c5,6.12,10.35,12.93,15.12,19.26c3.87,4.76,7.68,9.58,10.05,15.31c0.85,1.88,1.62,3.82,2.17,5.9l-0.41,0.28
			c-4.9-3.86-8.97-8.59-12.1-13.93c-1.69-3.12-4.31-7.49-6.16-10.57c-2.98-5.13-6.25-10.79-9.08-15.97
			C232.15,119.76,232.56,119.48,232.56,119.48L232.56,119.48z"/>
	</g>
	<g>
		<path d="M392.24,162.33c-8.31,10.58-17.56,22.08-26.15,32.51c-8.55,11.02-17.66,21.65-28.78,30.2c0,0-0.38-0.33-0.38-0.33
			c1.75-3.08,3.7-5.99,5.73-8.83c5.93-8.64,13.13-16.2,20.42-23.67c3.53-3.8,10.71-11.43,14.3-15.18c4.83-5,9.61-10.06,14.48-15.02
			C391.87,162,392.24,162.33,392.24,162.33L392.24,162.33z"/>
	</g>
	<line class="st4" x1="378.28" y1="188.76" x2="378.28" y2="188.76"/>
	<path class="st4" d="M379.12,188.21"/>
	<g>
		<path d="M279.34,57.53c8.03,28.38,13.04,57.29,17.29,86.38c4.02,29.13,7.24,58.28,7.39,87.78c-8.05-28.38-13.06-57.28-17.29-86.38
			C282.74,116.18,279.51,87.02,279.34,57.53L279.34,57.53z"/>
	</g>
	<circle class="st5" cx="375.61" cy="499.15" r="4.2"/>
	<circle class="st5" cx="392.1" cy="497.45" r="3.25"/>
	<circle class="st5" cx="383.64" cy="486.13" r="2.92"/>
</g>
</svg>
