<?xml version="1.0" encoding="utf-8"?>
<!-- Generator: Adobe Illustrator 26.0.3, SVG Export Plug-In . SVG Version: 6.00 Build 0)  -->
<svg version="1.1" id="Layer_1" xmlns="http://www.w3.org/2000/svg" xmlns:xlink="http://www.w3.org/1999/xlink" x="0px" y="0px"
	 viewBox="0 0 500 500" style="enable-background:new 0 0 500 500;" xml:space="preserve">
<style type="text/css">
	.st0{fill:#FFFFFF;}
	.st1{fill:none;stroke:#000000;stroke-width:0.75;stroke-linejoin:round;stroke-miterlimit:10;}
	.st2{fill:none;stroke:#333333;stroke-width:0.75;stroke-linejoin:round;stroke-miterlimit:10;}
	.st3{stroke:#000000;stroke-width:0.75;stroke-linejoin:round;stroke-miterlimit:10;}
	.st4{fill:none;stroke:#000000;stroke-width:0.75;stroke-linecap:round;stroke-linejoin:round;stroke-miterlimit:10;}
	.st5{fill:none;stroke:#000000;stroke-width:0.5;stroke-linecap:round;stroke-linejoin:round;}
	.st6{fill:#FFFFFF;stroke:#000000;stroke-linejoin:round;stroke-miterlimit:10;}
</style>
<g>
	<rect x="0" y="1" class="st0" width="499" height="499"/>
</g>
<g>
	<path class="st1" d="M85.96,438.93c0,0,19.82-43.65,16.13-49.3"/>
	<path class="st1" d="M77.63,376.41c0,0,0.67,44.46,6.74,51.19"/>
	<path class="st1" d="M72.92,392.58c0,0,4.72,39.07,8.76,37.05"/>
	<path class="st1" d="M296.5,285.82c-5.37-3.03-10.74-6.07-16.11-9.1c-0.6-0.14-1.25-0.19-1.52,0.15c-0.83,1.05,2.14,5.77,5.98,8.04
		C289.52,287.68,294.73,286.36,296.5,285.82c-1.02,0.31-2.91,4.38-3.57,5.3c-15.49,21.7-36.43,33.2-63.14,35.49
		c-13.19,1.13-27.38,1-39.63-4.64c-12.7-5.85-25.03-19.81-17.55-34.26c0,0,10.1-6.87,10.1-5.49c0,0-16.17,3.43-20.21,7.56
		c0,0-68.71,19.23-76.12,34.34c0,0-11.97,17.92-14.15,24.04c-10.01,28.12-14.33,51.49-15.16,65.45c-0.61,10.31-0.35,18.9,0,24.87"/>
	<path class="st1" d="M443.28,435.35c0,0-18.81-93.28-92.9-123.41c0,0-50.93-25.95-55.23-26.75"/>
	<path class="st1" d="M365.17,438.48c0,0-3.84-55.53,37.14-87.66"/>
	<path class="st1" d="M374.35,435.35c0,0,5.73-35.36,2.36-38.06"/>
	<path class="st1" d="M379.34,435.35c0,0,6.8-47.49,6.13-51.53"/>
	<path class="st1" d="M294.53,302.99"/>
	<path class="st1" d="M270.28,322.53"/>
	<path class="st1" d="M164.53,292.21"/>
	<path class="st2" d="M212.35,416.16c0,0-4.04,8.76,1.35,8.08c0,0,14.59-3.71,35.59-9.27c0,0-15.84,13.18-37.51,18.92
		c-0.75,0.2-1.53,0.28-2.3,0.22c-2.5-0.19-7.23-1.45-5.21-8.53C204.27,425.59,207.64,414.81,212.35,416.16z"/>
	<path class="st2" d="M201.45,402.5c0.42-0.31,1.03-0.58,1.63-0.18c0.42,0.28,0.63,0.79,0.59,1.3l-2.15,30.68
		c-0.06,0.78-0.71,1.39-1.49,1.39h-0.19c-0.87,0-1.56-0.75-1.49-1.62l2.51-30.49C200.89,403.15,201.1,402.76,201.45,402.5z"/>
	<path class="st2" d="M149.75,432.97c0,0,9.3-23.61,10.02-23.61c0.72,0,6.1,0,6.1,0l-1.8,9.3l3.93-9.3h5.37l-10.02,25.04h-5.34
		l3.19-10.02l-5.72,10.02h-6.44L149.75,432.97z"/>
	<polygon class="st2" points="163.42,433.67 167.67,433.67 178,410.09 172.61,410.09 	"/>
	<polygon class="st2" points="179.35,410.09 168.32,434.14 174.17,434.14 176.65,425.59 176.65,434.34 180.69,434.34 183.39,420.87 
		190.8,410.09 185.41,410.09 180.44,418.57 184.06,410.09 	"/>
	<polygon class="st2" points="191.43,410.22 186.08,422.22 181.37,434.34 193.49,434.34 193.49,429.88 188.1,429.63 190.12,424.91 
		196.19,424.91 196.19,420.31 192.14,420.2 194.17,414.81 198.21,414.81 198.17,410.89 	"/>
	<path class="st1" d="M200.23,323.87c-4.72-4.04-25.6-103.73-23.32-102.09s5.81,60.33,5.81,60.33c-1.35,4.72-11.62,8.87-11.62,8.87
		l1.51-3.27l10.33-5.83"/>
	<path class="st1" d="M225.15,179.05c0,0,24.25-12.12,27.62,2.69"/>
	<path class="st1" d="M220.44,178.38c0,0,27.06-16.17,32.73,0"/>
	<path class="st1" d="M279.04,183.09c0,0,16.94-12.8,19.58,0"/>
	<path class="st1" d="M279.04,179.95c0,0,13.84-11.45,20.73-0.67"/>
	<ellipse class="st3" cx="242.33" cy="178.38" rx="3.7" ry="4.04"/>
	<ellipse class="st3" cx="291.84" cy="181.74" rx="3.37" ry="4.04"/>
	<path class="st3" d="M258.83,169.62c0,0-0.67-3.37-4.72-4.04s-42.98-3.59-41.02,5.61C213.09,171.19,239.3,164.9,258.83,169.62z"/>
	<path class="st3" d="M306.66,174.34c0,0,4.06-7.63-24.92-3.14c0,0-0.68-3.59,4.03-4.94c0,0,19.3-3,20.76,0.52"/>
	<path class="st1" d="M184.06,212.73c0,0,3.71,15.05-12.97,5.84c-7.84-4.33-12.97-12.12-15.92-20.39
		c-2.68-7.52-5.45-17.82,0.29-24.66c3.48-4.15,8.98-5.54,13.88-3.21c7.66,3.64,12.25,11.39,15.08,19.05c1.27,3.44,2.24,6.99,3,10.58
		"/>
	<path class="st1" d="M174.85,181.29c-2.02-2.57-4.57-5.03-7.5-6.52c-1.93-0.98-4.2-1.48-6.22-0.47c-2.6,1.3-3.97,4.37-4.8,7
		c-1.49,4.73-0.88,10.04,0.87,14.61c1.68,4.39,3.97,8.61,7.93,11.35c1.13,0.78,2.36,1.41,3.65,1.88c0.63,0.23,1.27,0.41,1.92,0.57"
		/>
	<path class="st1" d="M167.9,199.93c0,0,0.65-14.23,8.08-14.15c0,0,5.11,0.81,2.02,5.39"/>
	<path class="st1" d="M260.62,219.47c0,0-8.2,1.19-5.39-10.78"/>
	<path class="st1" d="M269.14,215.33c0.13,0.53-0.28,1.06-0.8,1.22c-1.97,0.61-7.2,2.02-6.76,0.05
		C261.92,215.01,268.62,213.15,269.14,215.33z"/>
	<path class="st1" d="M278.57,172.7c0,0-4.75,11.86-1.39,26.4c0.37,1.6,0.96,3.14,1.67,4.62c1.8,3.75,5.11,12.33-0.92,14.5"/>
	<path class="st4" d="M284.96,240.83c0,0-4.48-6.27-12.73-4.08c-0.36,0.1-0.74,0.12-1.08-0.04c-1.65-0.76-6.88-3.1-26.53,1.43"/>
	<path class="st4" d="M247.38,239.67c0,0,29.64,4.72,34.36,2.02"/>
	<path class="st4" d="M252.69,246.21c2.19,3.5,20.26,6.52,26.89,1.79"/>
	<path class="st1" d="M187.43,199.93c0.84-7.97,2.58-16.01,5.28-23.55c2.38-6.64,5.83-14.03,12.27-17.59
		c-0.38,0.21-2.9-3.83-3.14-4.25c-4.39-7.77-3.47-16.37,3.79-21.9c3.08-2.35,6.63-4.22,9.98-6.15c3.39-1.95,7.11-3.6,11.08-3.65
		c3.94-0.05,7.71,1.47,11.43,2.77c8.14,2.84,16.9,4.85,25.57,3.98c7.47-0.75,14.67-3.49,21.88-5.45c2.21-0.6,4.3-1.57,6.54-2.08
		c2.87-0.64,5.56-0.71,6.41,2.56c1.57,6.04,2.95,12.12,4.16,18.24c1.17,5.92,2.4,12.07,1.65,18.13c-0.08,0.64-0.19,1.28-0.36,1.9
		c0,0,6.06,6.74,2.69,11.45c0,0-4.72,7.41-3.37,16.17c0,0,0.38,38.67-10.1,60.62c0,0-10.78,24.25-16.84,26.94
		c0,0-14.68,9.43-41.35-1.35c0,0-42.47-17.07-47.85-50.24"/>
	<g id="XMLID_3_">
		<g>
			<path d="M176.91,221.78l3.52,27.85c0,0-9.5-25.9-9.33-31.06L176.91,221.78z"/>
		</g>
		<g>
			<path class="st1" d="M180.43,249.63c0,0-9.5-25.9-9.33-31.06l5.81,3.21L180.43,249.63z"/>
		</g>
	</g>
	<g id="XMLID_2_">
		<g>
			<path d="M311.42,89.05c9.48,17.7,1.37,37.69-2.23,44.95c-1.06,2.13-0.99,4.65,0.14,6.75c0.39,0.71,0.82,1.45,1.23,2.21
				c1.68,2.98,1.43,7.7-0.56,10.5c-2.13,3.02-4.57,7-5.58,8.65l-0.07-0.04c2.38-4.11-4.85-37.15-6.45-39.59
				c-1.22-1.86-34.89,8.71-34.99,7.32c-7.64,1.68-35.76-7.32-35.76-7.32c-5.71-0.93-24.23,12.12-24.23,12.12
				c-11.11,11.2,2.03,24.26,2.03,24.26c-12.67,4.06-17.52,39.67-17.52,39.67c-12.26-40.52-29.35-27.33-29.35-27.33
				c0.84-3.01-0.75-7.47-2.5-11.06c-2.85-5.9-4.74-12.21-5.6-18.7c-2.4-18.19,0.53-25.55,3.58-28.5c1.97-1.9,3.46-4.27,3.92-6.96
				c0.89-5.2,6.72-10.55,11.03-13.88c2.38-1.84,4.38-4.14,5.63-6.88c2.04-4.47,7.08-7.66,10.96-9.53c2.64-1.28,5.58-1.86,8.5-1.62
				c8.6,0.7,12.46-1.78,13.93-3.21c1.48-1.43,3.13-2.67,4.89-3.72c8.6-5.15,16.09-5.4,20.9-4.69c3.21,0.47,6.5,0.31,9.56-0.76
				c3.42-1.21,6.73-0.47,9.28,0.64c2.97,1.29,6.25,1.56,9.45,1.08c6.08-0.93,11.8,2.9,14.93,5.57c1.57,1.33,3.69,1.69,5.67,1.14
				c6.96-1.95,10.86,2.31,12.78,5.68c1.11,1.94,3.24,3.07,5.47,2.89c5.93-0.48,7.83,2.31,8.42,4.44
				C309.46,85.2,310.39,87.15,311.42,89.05z"/>
		</g>
		<g>
			<path class="st5" d="M304.35,162.06c-0.07,0.13-0.16,0.23-0.26,0.3"/>
			<path class="st1" d="M303.96,162.89c0,0,0.17-0.29,0.47-0.78c1-1.65,3.44-5.63,5.58-8.65c1.98-2.8,2.23-7.52,0.56-10.5
				c-0.41-0.75-0.84-1.5-1.23-2.21c-1.14-2.1-1.2-4.62-0.14-6.75c3.6-7.26,11.72-27.25,2.23-44.95c-1.02-1.9-1.95-3.85-2.54-5.93
				c-0.58-2.12-2.48-4.92-8.42-4.44c-2.22,0.18-4.36-0.95-5.47-2.89c-1.92-3.37-5.83-7.64-12.78-5.68
				c-1.98,0.56-4.11,0.19-5.67-1.14c-3.14-2.66-8.86-6.5-14.93-5.57c-3.2,0.48-6.48,0.22-9.45-1.08c-2.55-1.1-5.86-1.85-9.28-0.64
				c-3.06,1.08-6.35,1.23-9.56,0.76c-4.81-0.71-12.31-0.46-20.9,4.69c-1.77,1.05-3.42,2.29-4.89,3.72
				c-1.47,1.43-5.33,3.91-13.93,3.21c-2.92-0.24-5.86,0.34-8.5,1.62c-3.88,1.87-8.92,5.06-10.96,9.53
				c-1.25,2.73-3.25,5.04-5.63,6.88c-4.31,3.33-10.15,8.68-11.03,13.88c-0.46,2.69-1.95,5.06-3.92,6.96
				c-3.05,2.95-5.98,10.31-3.58,28.5c0.86,6.49,2.75,12.8,5.6,18.7c1.75,3.59,3.34,8.05,2.5,11.06c0,0,17.08-13.19,29.35,27.33
				c0,0,4.84-35.61,17.52-39.67c0,0-13.13-13.06-2.03-24.26c0,0,18.52-13.05,24.23-12.12c0,0,28.12,9,35.76,7.32
				c0.11,1.39,33.78-9.19,34.99-7.32c1.6,2.44,8.84,35.48,6.45,39.59"/>
		</g>
	</g>
	<g>
		<g>
			<path d="M304.52,168.39c0,0.07,0,0.14,0,0.21c-0.01,0.21,0.04,0.4,0.13,0.58c0.06,0.19,0.16,0.35,0.31,0.48
				c0.14,0.15,0.3,0.25,0.48,0.31c0.18,0.09,0.37,0.14,0.58,0.13c0.13-0.02,0.27-0.04,0.4-0.05c0.25-0.07,0.47-0.2,0.66-0.39
				c0.08-0.1,0.16-0.2,0.23-0.3c0.14-0.23,0.2-0.49,0.2-0.76c0-0.07,0-0.14,0-0.21c0.01-0.21-0.04-0.4-0.13-0.58
				c-0.06-0.19-0.16-0.35-0.31-0.48c-0.14-0.15-0.3-0.25-0.48-0.31c-0.18-0.09-0.37-0.14-0.58-0.13c-0.13,0.02-0.27,0.04-0.4,0.05
				c-0.25,0.07-0.47,0.2-0.66,0.39c-0.08,0.1-0.16,0.2-0.23,0.3C304.59,167.87,304.52,168.12,304.52,168.39L304.52,168.39z"/>
		</g>
	</g>
	<g>
		<g>
			<path d="M307.23,167.42c-0.02-0.03-0.04-0.06-0.06-0.09c-0.38-0.64-1.19-0.9-1.87-0.61c-0.29,0.12-0.57,0.33-0.72,0.61
				c-0.18,0.34-0.29,0.78-0.15,1.16c0.08,0.2,0.15,0.41,0.23,0.61c0.07,0.19,0.15,0.38,0.19,0.58c-0.02-0.13-0.04-0.27-0.05-0.4
				c0.03,0.27,0.03,0.53,0.1,0.8c0.06,0.25,0.21,0.46,0.31,0.69c-0.05-0.12-0.1-0.24-0.15-0.36c0.14,0.38,0.19,0.81,0.27,1.21
				c0.07,0.35,0.38,0.72,0.69,0.9c0.32,0.19,0.8,0.27,1.16,0.15c0.36-0.12,0.71-0.34,0.9-0.69c0.2-0.37,0.24-0.74,0.15-1.16
				c-0.06-0.28-0.12-0.56-0.18-0.85c-0.08-0.36-0.24-0.67-0.39-1.01c0.05,0.12,0.1,0.24,0.15,0.36c-0.02-0.05-0.03-0.1-0.04-0.16
				c0.02,0.13,0.04,0.27,0.05,0.4c-0.03-0.37-0.07-0.73-0.2-1.09c-0.1-0.26-0.2-0.53-0.29-0.79c-0.91,0.39-1.83,0.77-2.74,1.16
				c0.02,0.03,0.04,0.06,0.06,0.09c0.19,0.33,0.53,0.59,0.9,0.69c0.36,0.1,0.84,0.05,1.16-0.15c0.32-0.21,0.6-0.51,0.69-0.9
				C307.47,168.19,307.44,167.78,307.23,167.42L307.23,167.42z"/>
		</g>
	</g>
	<path class="st1" d="M162.5,295.63c-1.6,14.13,8.81,26.3,21.19,31.49c35.88,15.06,88.08,8.81,110.87-25.61
		c1.82-2.76,3.88-5.8,4.16-9.2"/>
	<ellipse transform="matrix(0.8968 -0.4424 0.4424 0.8968 -108.6315 107.6469)" cx="176.48" cy="286.73" rx="4.61" ry="1.2"/>
	<ellipse class="st6" cx="179.97" cy="284.3" rx="0.9" ry="0.45"/>
	<circle class="st6" cx="181.32" cy="283.41" r="0.45"/>
	<path class="st6" d="M182.21,282.96c0,0-0.1,0-0.22,0s-0.22,0-0.22,0s0.1,0,0.22,0S182.21,282.96,182.21,282.96z"/>
	<ellipse transform="matrix(0.866 -0.5 0.5 0.866 -121.2932 125.5297)" class="st6" cx="173.6" cy="289.1" rx="1.98" ry="0.45"/>
	<ellipse transform="matrix(0.7173 -0.6968 0.6968 0.7173 -115.8369 276.6083)" cx="282.94" cy="281.05" rx="1.9" ry="5.76"/>
	<ellipse transform="matrix(0.2024 -0.9793 0.9793 0.2024 -46.247 512.7556)" cx="291.66" cy="284.77" rx="1.32" ry="4.57"/>
	<ellipse transform="matrix(0.5385 -0.8426 0.8426 0.5385 -105.6802 371.3046)" cx="286.15" cy="282.13" rx="1.7" ry="6.21"/>
	<rect x="286.18" y="284.32" transform="matrix(0.9731 0.2305 -0.2305 0.9731 73.5276 -59.0112)" width="6.4" height="1.87"/>
	<rect x="286.65" y="281.98" transform="matrix(0.866 0.5 -0.5 0.866 180.2646 -106.9942)" width="6.27" height="1.79"/>
	<rect x="279" y="276.3" transform="matrix(0.8426 0.5385 -0.5385 0.8426 193.0725 -107.1805)" width="1.79" height="0.83"/>
</g>
</svg>
