<svg width="348" height="291" viewBox="0 0 348 291" fill="none" xmlns="http://www.w3.org/2000/svg">
<path d="M257.547 93.7099L273.136 83.0801C277.926 79.8139 273.107 73.6078 268.317 76.874C263.13 80.429 257.934 83.9723 252.729 87.5038C247.956 90.7717 252.761 96.9603 257.547 93.7099Z" fill="#8C5E30"/>
<path d="M80.0077 214.761L95.5961 204.132C100.382 200.881 95.5642 194.675 90.7916 197.943C85.5864 201.475 80.3903 205.018 75.2032 208.573C70.417 211.823 75.2178 218.028 80.0077 214.761Z" fill="#8C5E30"/>
<path d="M222.907 215.92L233.006 228.928C236.109 232.925 243.543 227.87 240.44 223.873L230.341 210.864C227.237 206.867 219.804 211.923 222.907 215.92Z" fill="#8C5E30"/>
<path d="M107.865 67.777L117.963 80.7853C121.053 84.7649 128.486 79.7095 125.383 75.7123L115.284 62.7041C112.181 58.7069 104.761 63.7799 107.865 67.777Z" fill="#8C5E30"/>
<path d="M115.18 140.43C120.809 118.172 136.835 96.6003 161.745 91.2106C174.21 88.4877 190.447 91.9425 201.48 96.2666C212.513 100.591 221.34 108.151 226.68 117.853C232.021 127.555 233.6 138.894 231.186 150.227C228.773 161.561 222.494 172.301 213.258 180.89C204.022 189.48 192.457 197.273 179.964 199.802C167.472 202.332 154.701 199.467 143.775 194.959C132.849 190.452 124.188 182.738 119.047 172.934C113.906 163.13 112.551 151.746 115.18 140.43C116.263 135.307 107.612 134.49 106.525 139.629C103.59 152.244 104.962 164.944 110.454 175.993C114.209 180.085 125.287 195.899 137.203 201.353C141.802 203.457 163.025 208.59 177.019 206.46C191.014 204.33 203.779 198.46 214.75 189.523C225.721 180.586 234.363 169.019 238.31 156.534C242.257 144.049 239.753 133.685 235.237 122.204C230.721 110.723 224.414 98.6857 213.081 92.3951C201.749 86.1045 188.143 83.369 174.126 84.5626C141.708 87.1093 121.66 103.25 106.525 139.629C105.241 144.7 113.896 145.502 115.18 140.43Z" fill="#8C5E30"/>
<path d="M267.601 158.537L285.758 160.218C291.315 160.733 293.181 152.77 287.608 152.254L269.45 150.573C263.876 150.057 262.01 158.02 267.601 158.537Z" fill="#8C5E30"/>
<path d="M60.7348 139.383L78.8924 141.064C84.4661 141.58 86.3156 133.616 80.7419 133.1L62.5843 131.418C57.0106 130.902 55.1438 138.865 60.7348 139.383Z" fill="#8C5E30"/>
<path d="M149.662 232.324L145.782 249.033C144.59 254.162 153.245 254.963 154.436 249.834L158.317 233.125C159.508 227.996 150.853 227.195 149.662 232.324Z" fill="#8C5E30"/>
<path d="M193.888 41.8822L190.007 58.5912C188.816 63.7202 197.467 64.5375 198.662 59.3926L202.542 42.6836C203.734 37.5546 195.079 36.7532 193.888 41.8822Z" fill="#8C5E30"/>
</svg>
