<?xml version="1.0" encoding="utf-8"?>
<!-- Generator: Adobe Illustrator 26.0.3, SVG Export Plug-In . SVG Version: 6.00 Build 0)  -->
<svg version="1.1" id="Layer_1" xmlns="http://www.w3.org/2000/svg" xmlns:xlink="http://www.w3.org/1999/xlink" x="0px" y="0px"
	 viewBox="0 0 1289.2 333.1" style="enable-background:new 0 0 1289.2 333.1;" xml:space="preserve">
<style type="text/css">
	.st0{fill:#455756;}
	.st1{opacity:0.7;}
	.st2{fill:#D1AF8F;}
	.st3{fill:#AEC8AD;}
	.st4{opacity:0.7;fill:#455756;enable-background:new    ;}
</style>
<path class="st0" d="M-453.6,397.5c0,3.7-1.2,7.5-2.5,10.9c-1.4,3.7-3.2,7.2-5.5,10.4c-4.5,6.4-10.4,11.6-14.7,18.1
	c-4.2,6.3-5.9,14-9.9,20.4c-1.9,3-4.3,5.8-6.5,8.6c-2.2,2.7-4.1,5.7-5.7,8.9c-0.8,1.6-1.4,3.3-1.8,5c-0.5,2-0.7,4.1-0.8,6.2
	c-0.1,2.1-0.1,4.3-0.3,6.4c-0.1,1.2-0.1,2.5-0.3,3.8c-0.4,0.3-0.9,0.5-1.2,0.7c0-0.1,0-0.3,0-0.4c0.1-0.8,0.1-1.6,0.2-2.4
	c0.1-1.9,0.3-3.8,0.3-5.7c0.1-4,0.4-8,1.8-11.7c2.5-6.6,7.4-11.9,11.6-17.5c2.1-3,3.9-6.3,5.3-9.7c1.5-3.5,2.8-7,4.6-10.3
	c3.8-6.8,9.6-12.1,14.4-18.2c2.5-3.1,4.6-6.4,6.3-10c0.8-1.7,1.4-3.5,2-5.3s1.1-3.7,1.4-5.5c0.1-0.9,0.2-1.8,0.2-2.7
	C-454.7,396.7-453.6,396.8-453.6,397.5z"/>
<path class="st0" d="M-484,455.5c0.1,0,0.1,0,0.2,0c1.2-0.2,2.4-0.5,3.4-1.1s1.9-1.5,2.9-2.2c1.1-0.8,2.4-1.3,3.7-1.4
	c1.4,0,2.8,0.4,4.2,0.6c2.3,0.3,4.6,0.2,6.6-1.1c1.5-0.9,2.7-2.2,3.9-3.4c1.2-1.2,2.5-2.3,4.1-2.8c2.2-0.6,4.6,0,6.8,0.8
	c2.1,0.7,4.2,1.6,6.5,1.3c2-0.3,3.7-1.6,5.2-2.9c1.6-1.5,3.2-3,5.3-3.9c2.4-1.1,5.2-1.1,7.8-1.1c0.1,0,0.1,0,0.2,0s0.1-0.1,0.1-0.2
	s0-0.1,0-0.2s0-0.1-0.1-0.2c-1-1-2.1-1.8-3.2-2.6c-1.1-0.8-2-1.8-3-2.7c-1.8-1.6-4.1-3.3-6.7-3.1c-1.1,0.1-2.2,0.4-3.2,0.9
	c-1.1,0.5-2.2,0.9-3.4,1.3c-1.2,0.4-2.4,0.7-3.7,1c-1.3,0.2-2.6,0.3-4,0.2c-2.7-0.1-5.5-0.5-8.2-0.5c-2.1-0.1-4.2,0.5-6,1.5
	c-1.9,1.2-3.7,2.7-5.3,4.4c-1.8,1.8-3.4,3.6-5,5.5s-3.1,3.9-4.7,5.8c-0.8,1-1.7,2.1-2.5,3.1c-0.4,0.5-0.8,0.9-1.1,1.4
	c-0.3,0.4-0.6,0.8-1.1,1C-484.7,454.9-484.4,455.5-484,455.5z"/>
<path class="st0" d="M-453.6,394.7c1.1-2.6,1.5-5.5,1.1-8.4c-0.2-1.3-0.5-2.5-0.9-3.7c-0.5-1.2-1.1-2.5-1.7-3.6
	c-0.7-1.2-1.3-2.5-1.9-3.8c-0.4-1.2-0.8-2.3-1.2-3.5c-0.4-1.1-1.1-2.1-1.9-2.9c-0.6-0.6-1.3-1-2.1-1.5c-0.8-0.5-1.7-0.9-2.6-1.3
	c-0.7-0.3-1.5-0.4-2.2-0.2c-0.1,0-0.1,0.1-0.2,0.2s0,0.2,0,0.2c0.2,1,1,1.8,1.6,2.5c0.8,0.9,1.5,2,2,3.1c0.9,2.2,0.8,4.6,1.2,6.9
	c0.4,2,1.3,3.8,2.7,5.3c0.7,0.8,1.4,1.7,2,2.5c0.6,0.9,1.1,1.9,1.6,2.9c0.4,0.8,0.8,1.5,1.1,2.3c0.4,0.8,0.6,1.6,0.6,2.5
	c0,0,0,0.1,0,0.2c0,0,0,0.1,0.1,0.1l0,0l0.1,0.1c0,0,0.1,0,0.2,0s0.1,0,0.2-0.1C-453.7,394.8-453.6,394.8-453.6,394.7L-453.6,394.7z
	"/>
<path class="st0" d="M-422.3,407.4c-0.6-0.5-1.4-0.9-2.2-1.1c-0.9-0.3-1.8-0.5-2.7-0.7c-2-0.4-4-0.5-5.9-0.3c-3.2,0.3-6.3,1.4-9,3.1
	c-1.5,0.9-2.8,2.1-4.3,3.1s-3.1,1.9-4.8,2.5c-1.6,0.6-3.1,1.3-4.5,2.1c-1.4,0.8-2.6,1.8-3.8,3c-1.2,1.2-2.3,2.5-3.2,3.9
	c-0.5,0.8-1,1.5-1.6,2.3c-0.4,0.7-1,1.3-1.6,1.8c-0.1,0-0.1,0.1-0.1,0.2s0,0.2,0,0.2c-0.1,0.2,0.1,0.6,0.4,0.5
	c0.9-0.2,1.6-0.8,2.4-1.1c0.8-0.3,1.8-0.6,2.7-1c1.8-0.7,3.6-1.6,5.3-2.6c1.4-0.9,3-1.6,4.6-2s3.3-0.5,4.9-0.5
	c3-0.1,6.1,0.3,8.6-1.7s3.9-5.1,6.4-7.1c1.3-1,2.7-1.7,4.2-2.3c1.3-0.5,2.8-0.7,4-1.5C-422.2,407.9-422,407.6-422.3,407.4z"/>
<path class="st0" d="M-425.5,356.2c0.8-2.4,1.2-4.9,1.1-7.5c-0.1-1.9-0.2-4-1.4-5.6c-0.2-0.2-0.5-0.1-0.6,0.1
	c-0.6,1.3-1.1,2.6-1.7,3.9s-1.2,2.6-1.9,3.8c-1.4,2.5-3,4.9-4.6,7.3c-1.3,1.9-2.6,3.8-4.1,5.6c-1.4,1.7-2.8,3.4-4.2,5.1
	c-2.7,3.4-5.3,6.9-6.8,11c-0.8,2.3-1.1,4.7-1,7.2c0.1,2.6,0.3,5.2-0.3,7.8c-0.3,1.2-0.7,2.5-1.1,3.7c-0.4,1.1-0.9,2.2-1.4,3.2
	c-1.1,1.9-2.5,3.6-3,5.8c-0.1,0.5,0.6,0.7,0.7,0.2c0,0,0,0,0-0.1c0,0,0.1,0,0.1-0.1s0.1-0.1,0.1-0.1c0.8-2.4,3-4.2,4.9-5.8
	c1.9-1.6,3.8-2.8,5.7-4.3c1.6-1.2,3-2.8,4-4.6c1.2-2.3,1.9-4.8,2.7-7.2c0.8-2.5,1.6-5.1,2.6-7.6s2.3-5,3.5-7.4
	C-429.9,366-427.2,361.3-425.5,356.2z"/>
<path class="st0" d="M-466.7,416.5c0,0.7-0.1,1.3-0.1,2c0,0.6-0.1,1.2-0.2,1.7h-0.1c-0.1,0-0.1,0.1-0.2,0.2s0,0.2,0,0.3
	c0,0.1,0.1,0.1,0.2,0.2c0.1,0,0.2,0,0.3,0c1.1-0.5,1.7-1.8,2.2-2.8c0.6-1.2,1-2.4,1.1-3.7c0.1-1.5,0.1-3,0-4.4
	c0-1.4-0.2-2.8-0.5-4.1c-0.3-1-0.7-2.1-1.6-2.6c0,0-0.1,0-0.2,0s-0.1,0-0.2,0s-0.1,0.1-0.1,0.1s-0.1,0.1-0.1,0.2c0,0.8,0,1.5,0,2.3
	c-0.1,0.8-0.2,1.5-0.5,2.3c-0.4,1.4-0.7,2.9-0.7,4.3C-467.1,413.8-466.7,415.1-466.7,416.5z"/>
<path class="st0" d="M-483.5,423.7c0,1.6-0.1,3.1-0.5,4.7c-0.4,1.5-0.5,3-0.5,4.6c0,1.5,0.4,3,1,4.4c0.4,0.7,0.7,1.5,1,2.2
	c0.1,0.4,0.2,0.8,0.3,1.1c0,0.4,0.1,0.7,0.1,1.1c0,0.1,0,0.1,0.1,0.2l0.1,0.1c0.2,0.4,0.9,0.3,0.7-0.2c-0.1-0.4-0.3-0.8-0.4-1.2
	c0-1.7,0.3-3.4,1-4.9c0.7-1.9,1.6-3.7,2.3-5.6c0.7-1.8,1.4-3.6,1.9-5.4c0.4-1.7,0.7-3.4,0.9-5.1c0.3-3.2,0.3-6.6-0.9-9.7
	c-1.2-3-3.7-5.5-6-7.7c-1.3-1.2-2.5-2.5-3.6-3.8c-0.8-0.9-1.4-2.4-2.6-2.9c-0.1,0-0.1,0-0.2,0s-0.1,0-0.2,0.1c0,0-0.1,0.1-0.1,0.2
	s0,0.1,0,0.2c0.1,0.8,0.4,1.5,0.7,2.3c0.3,0.8,0.4,1.7,0.3,2.6s-0.4,1.9-0.6,2.8s-0.3,1.8-0.4,2.6c-0.1,1.6,0.1,3.1,0.7,4.6
	c0.6,1.4,1.5,2.7,2.2,4.1C-484.5,417.6-483.6,420.6-483.5,423.7z"/>
<path class="st0" d="M-501,413.6c0.2,0.9,0.3,1.9,0.4,2.8c0.2,2.1,0.3,4.2,0.2,6.4c-0.2,3.7-0.7,7.3-0.9,11
	c-0.2,3.6,0.1,7.1,0.9,10.6c0.4,1.6,0.8,3.2,1.4,4.8c0.6,1.6,1.3,3.2,2,4.8c0.7,1.6,1.2,3.4,1.5,5.1c0.3,1.8,0.3,3.5,0.6,5.3
	c0,0.1,0,0.2,0,0.2c0,0.1,0.1,0.1,0.2,0.2c0.1,0,0.2,0,0.2,0c0.1,0,0.1-0.1,0.2-0.1c0.9-1.6,1.7-3.3,2.2-5c0.7-2,1.2-4.1,1.7-6.3
	c0.8-3.6,1.1-7.3,1-11c-0.1-1.7-0.4-3.4-0.8-5c-0.5-1.7-1.1-3.5-1.8-5.1c-1.5-3.7-2.8-7.5-4-11.2c-1.1-3.6-2.6-7-4.5-10.2
	c0-0.1-0.1-0.1-0.2-0.2s-0.2,0-0.2,0c-0.1,0-0.1,0.1-0.2,0.1c0,0.1-0.1,0.1-0.1,0.2C-501.2,411.8-501.2,412.7-501,413.6z"/>
<g class="st1">
	<path class="st2" d="M226.8,334.6H-1V231.8c8.4-1.8,17-1.9,25.4-0.3c7.9,1.5,15.6,4.5,21.9,9.8c8.4,7.2,13.3,17.8,19,27.4
		c6.2,10.5,13.6,20.3,23,27.5c15.4,11.8,34.7,15.8,53.3,19.6c21.9,4.5,43.8,8.9,65.7,13.3C213.9,330.5,220.6,331.9,226.8,334.6z"/>
</g>
<g class="st1">
	<g>
		<path class="st3" d="M108.6,361.7H107c-3.4-4.3-6.5-8.8-8.9-13.8c-6.2-12.6-7.8-27.1-9.2-41.1c-0.3-3.2-0.7-6.5-1.1-9.8
			c-3-24.6-11.8-57.8-36-75.8c-22.5-16.7-51.5-15.3-75.3-4.5v-1.5c8.5-3.8,17.6-6.3,26.6-7.4c9-1,17.6-0.6,25.8,1.4
			c8.7,2,16.6,5.7,23.6,10.9C77,238.4,85.9,272,88.9,296.8c0.4,3.2,0.8,6.6,1.1,9.8c1.4,13.9,3,28.3,9.1,40.7
			C101.7,352.5,105,357.2,108.6,361.7z"/>
	</g>
</g>
<path class="st4" d="M1261.8,267.2c2,7.7,3.6,15.4,5.9,23c2,6.3,4.9,12.3,8.7,17.7c4.1,5.7,8.7,11.2,13.6,16.2
	c5.3,5.6,10.8,11,16.5,16.2c5,4.7,10.7,9.8,17.4,11.9c1.9,0.6,0.9,3.5-1,2.9c-6.1-1.9-11.5-6.3-16.2-10.6
	c-5.7-5.2-11.3-10.5-16.6-16c-9.8-10.1-19.5-21-24.3-34.5c-3.1-8.5-4.7-17.5-7-26.2C1258.3,265.9,1261.3,265.3,1261.8,267.2z"/>
<path class="st4" d="M1206.9,152.7c0.9,4,3.9,7.4,5.8,11c2.2,4.2,3.9,8.5,5.3,13c2.2,8,3.9,16.2,5,24.5c1.2,7.7,2.2,15.5,4.9,22.9
	c1.2,3.2,2.7,6.3,4.5,9.2c2.2,3.1,4.7,5.9,7.3,8.5c2.9,3.1,5.7,6.2,8.7,9.3c2.8,2.5,5.1,5.6,6.7,9c0.5,1.2,2.3,0.2,1.8-0.9l-0.2-0.3
	c-1.2-3.7,0.4-7.8,0.9-11.5c0.5-4.5,0.2-9.1-0.8-13.6c-1-4.2-2.2-8.4-3.6-12.5c-1.5-4.5-2.8-9-4.2-13.5c-2.4-7.9-4.5-15.7-8.9-22.9
	c-4.2-6.8-9.7-12.6-15-18.5c-2.9-3.3-6-6.5-9.2-9.6c-2.1-2.2-4.5-5.3-7.9-5.3c-0.2,0-0.3,0-0.5,0.1c-0.1,0.1-0.3,0.2-0.4,0.3
	s-0.1,0.3-0.2,0.4C1206.9,152.4,1206.9,152.6,1206.9,152.7z"/>
<path class="st4" d="M1183.1,238.5c1,2,3.5,3.1,5.3,4.3c2.7,1.9,5.3,4,7.6,6.2c4.7,4.2,9.3,8.5,14.2,12.4c5,4,10.4,7.6,16.1,10.6
	c5.8,3.1,11.8,5.8,17.7,8.5c2.3,1.1,4.7,2.2,7,3.4c2.2,1,4.2,2.6,5.8,4.4c0.1,0.1,0.2,0.2,0.3,0.3c0.1,0.1,0.2,0.1,0.4,0.1
	c0.1,0,0.3,0,0.4-0.1s0.2-0.1,0.3-0.2c0.1,0,0.2-0.1,0.3-0.2c0.1-0.1,0.2-0.2,0.3-0.3c0.1-0.1,0.1-0.2,0.1-0.4s0-0.3,0-0.4
	c-0.5-2.6-2.4-4.8-4.1-6.7c-2.1-2.3-4-4.8-6.2-7.1c-4.3-4.7-9.2-9-13.7-13.5s-9-9-14.3-12.2c-5.6-3.5-12.1-5-18.4-6.3
	c-3.2-0.7-6.4-1.3-9.6-2.2c-2.7-0.7-5.5-2.3-8.4-2.2c-0.2,0-0.4,0-0.5,0.1c-0.2,0.1-0.3,0.2-0.4,0.4c-0.1,0.1-0.2,0.3-0.2,0.5
	C1182.9,238.2,1183,238.3,1183.1,238.5z"/>
<path class="st4" d="M1193.6,292.1c-0.1,0.1-0.2,0.2-0.3,0.3s-0.2,0.3-0.2,0.4c0,0.2,0,0.3,0,0.4c0,0.2,0.1,0.3,0.2,0.4
	c3,3.9,7.9,6.4,12.2,8.7c10.2,5.6,21.1,10.2,33,9.3c5.2-0.4,10.3-1.4,15.5-1.6c2.7,0,5.3,0.2,8,0.4c2.7,0,5.4,0.4,7.9,1.3
	c1.2,0.5,1.8-1.4,0.6-1.9l-0.5-0.2l-0.1-0.2c-4.4-4.4-9.6-8-15.3-10.5c-5.1-2.3-10.4-4-15.9-4.9c-6.2-1.1-12.4-0.9-18.7-1
	c-2.9,0-5.9-0.2-8.8-0.6c-1.9-0.3-3.8-0.7-5.7-1.1C1201.8,290.7,1196.9,289.9,1193.6,292.1z"/>
<path class="st4" d="M1295.9,264.7c4.2-8,6.9-16.7,8-25.6c1.3-9,1.7-18.1,2.3-27.1c0.6-7.8,1.9-15.9,0.3-23.8
	c-0.3-1.4-0.8-4.4-2.7-4.4c-1.4-0.1-2.2,1.6-2.8,2.7c-1.5,3.4-2.6,7.1-3.3,10.8c-1.7,8.1-2.7,16.4-4.3,24.5
	c-1.6,9-4.2,17.8-7.9,26.1c-1.9,4.2-4.5,8-6.5,12.2c-1.9,3.9-3.3,8.1-4.1,12.4c-0.5,3.1-0.8,6.3-1.1,9.4c-0.2,2.5-0.5,5.8,1,8
	c0.1,0.1,0.2,0.2,0.3,0.3c0.1,0.1,0.2,0.1,0.4,0.2c0.1,0.2,0.3,0.3,0.4,0.4c0.2,0.1,0.4,0.1,0.6,0.1s0.4-0.1,0.5-0.2
	c0.2-0.1,0.3-0.3,0.3-0.5c0.7-1.7,1.6-3.3,2.8-4.8C1285.6,278.5,1291.7,272.3,1295.9,264.7z"/>
<path class="st4" d="M1303.8,315.4c4.6-7.8,7.8-16.3,9.4-25.2c1.8-8.9,2.7-18,3.8-26.9c1-7.8,2.8-15.8,1.7-23.8
	c-0.2-1.4-0.5-4.4-2.4-4.5c-1.4-0.1-2.3,1.5-2.9,2.5c-1.7,3.4-3,6.9-3.9,10.6c-2.2,8-3.6,16.2-5.6,24.3c-2.1,8.9-5.2,17.5-9.3,25.7
	c-2.2,4.1-5,7.8-7.2,11.8c-2.1,3.8-3.8,7.9-4.8,12.2c-0.7,3.1-1.2,6.2-1.6,9.3c-0.3,2.5-0.8,5.8,0.6,8c0.1,0.1,0.2,0.2,0.3,0.3
	c0.1,0.1,0.2,0.1,0.4,0.2c0.1,0.2,0.2,0.3,0.4,0.4c0.2,0.1,0.4,0.1,0.6,0.1s0.4-0.1,0.6-0.2s0.3-0.3,0.4-0.5
	c0.8-1.7,1.8-3.2,3.1-4.6C1292.8,328.6,1299.2,322.8,1303.8,315.4z"/>
<path class="st4" d="M1206.7,332.8c-0.2,0.1-0.3,0.2-0.3,0.3c-0.1,0.1-0.2,0.3-0.2,0.4c0,0.2,0,0.3,0,0.5s0.1,0.3,0.2,0.4
	c1,1.2,2.2,2.3,3.7,3c1.5,0.9,2.9,1.9,4.3,3c2.8,2.2,6.1,4,9.6,5c5.7,1.5,11.4,0.2,17-1.2c6.3-1.5,12.8-2.2,19.1-3.7
	c6.3-1.5,12-5.1,18.5-6.5c2.6-0.5,5.2-0.7,7.8-0.5c2.4,0.2,4.9-0.3,7-1.4c0.2-0.1,0.3-0.2,0.4-0.4s0.1-0.3,0.1-0.5
	c0.1-0.2,0.2-0.5,0.2-0.8s-0.2-0.5-0.4-0.7c-4.9-4-11.1-5.7-17.1-6.6c-5.7-0.7-11.5-0.9-17.2-0.6c-5.8,0.2-11.7,0.6-17.5,1.2
	c-6.1,0.6-12.1,1.9-17.9,3.9c-3.1,1.1-6,2.6-9.1,3.7c-1.4,0.5-2.9,0.9-4.5,1C1209.1,332.1,1207.9,332.4,1206.7,332.8z"/>
</svg>
