<?xml version="1.0" encoding="utf-8"?>
<!-- Generator: Adobe Illustrator 26.0.3, SVG Export Plug-In . SVG Version: 6.00 Build 0)  -->
<svg version="1.1" id="Layer_1" xmlns="http://www.w3.org/2000/svg" xmlns:xlink="http://www.w3.org/1999/xlink" x="0px" y="0px"
	 viewBox="0 0 1289.23 647.63" style="enable-background:new 0 0 1289.23 647.63;" xml:space="preserve">
<style type="text/css">
	.st0{opacity:0.7;}
	.st1{fill:#DCD0C8;}
	.st2{fill:#D1AF8F;}
	.st3{fill:#AEC8AD;}
	.st4{opacity:0.7;fill:#9DC09F;}
	.st5{opacity:0.7;fill:#455756;}
	.st6{fill:#455756;}
</style>
<g class="st0">
	<path class="st1" d="M1296.87-0.82v158.63c-7.05,2.47-14.45,3.3-21.96,1.7c-13.04-2.78-23.57-12.52-31.33-23.36
		c-15.62-21.79-22.52-48.69-36.73-71.43c-11.18-17.89-26.89-33.22-34.26-52.98c-1.51-4.04-2.65-8.27-3.06-12.55H1296.87z"/>
</g>
<g class="st0">
	<path class="st2" d="M227.88,650.09H0.1V547.31c8.36-1.77,17.04-1.93,25.43-0.35c7.88,1.48,15.64,4.48,21.87,9.8
		c8.38,7.15,13.27,17.77,18.95,27.44c6.15,10.47,13.6,20.27,23.04,27.49c15.36,11.76,34.65,15.84,53.27,19.62
		c21.91,4.45,43.81,8.9,65.72,13.35C214.98,646.01,221.69,647.39,227.88,650.09z"/>
</g>
<g class="st0">
	<g>
		<path class="st3" d="M1346.13,229.61v1.58h-0.35c-7.29,0-14.94-0.82-22.65-2.43c-43.12-9.03-79.93-37.89-96.07-75.32
			c-3.72-8.62-6.43-17.78-9.06-26.64c-3.47-11.73-7.07-23.85-13-34.7c-9.29-16.97-23.91-30.34-39.34-43.67l-0.83-0.71
			c-7.28-6.29-14.81-12.79-20.65-20.65c-10.67-14.36-14.68-33.21-11.89-50.88h1.59c-2.8,17.32,1.1,35.84,11.57,49.93
			c5.73,7.72,13.19,14.16,20.41,20.39l0.83,0.71c15.54,13.43,30.27,26.91,39.69,44.11c6.02,10.99,9.64,23.2,13.13,35.01
			c2.61,8.82,5.31,17.94,8.99,26.47c15.94,36.96,52.32,65.47,94.94,74.4c7.67,1.61,15.11,2.4,22.15,2.4
			C1345.78,229.61,1345.96,229.61,1346.13,229.61z"/>
	</g>
</g>
<g class="st0">
	<g>
		<path class="st3" d="M109.63,677.17h-1.62c-3.36-4.3-6.48-8.83-8.93-13.77c-6.25-12.62-7.76-27.11-9.23-41.14
			c-0.34-3.21-0.68-6.53-1.08-9.77c-3.04-24.62-11.76-57.77-36.04-75.84c-22.49-16.74-51.52-15.28-75.31-4.49v-1.48
			c8.53-3.82,17.56-6.34,26.64-7.37c8.96-1.02,17.65-0.56,25.83,1.37c8.67,2.05,16.6,5.71,23.56,10.89
			c24.65,18.35,33.48,51.87,36.56,76.75c0.4,3.24,0.75,6.57,1.08,9.79c1.45,13.9,2.96,28.28,9.1,40.67
			C102.74,667.95,106.06,672.67,109.63,677.17z"/>
	</g>
</g>
<path class="st4" d="M1276.9,32.84c1.02,5.81,3.53,11.75,2.32,17.56c-0.05,0.2-0.18,0.37-0.38,0.48c-0.19,0.1-0.44,0.13-0.67,0.08
	c-0.24-0.05-0.44-0.19-0.57-0.36c-0.13-0.18-0.18-0.39-0.13-0.6c1.07-5.1-0.94-10.45-2.03-15.55c-1.15-5.53-1.19-11.11-0.14-16.52
	c1.05-5.55,4.66-10.33,5.4-15.96c0.7-5.44-0.74-11.1-2.67-16.41c-1.06-2.99-2.28-5.98-3.7-8.89c-0.59-1.28-1.34-2.51-2.26-3.65
	c-0.78-0.93-1.63-2-1.62-3.17c0.02-1,1.8-1.01,1.75-0.02c-0.06,0.99,0.92,1.91,1.58,2.7c0.76,0.99,1.4,2.05,1.9,3.15
	c1.31,2.63,2.39,5.31,3.4,8c2.04,5.29,3.62,10.87,3.45,16.37c-0.12,2.75-0.71,5.46-1.75,8.01c-1.05,2.64-2.37,5.19-3.21,7.9
	c-0.8,2.74-1.23,5.55-1.31,8.41C1276.17,27.19,1276.38,30.02,1276.9,32.84z"/>
<path class="st4" d="M1281.31,113.11c-1.36,2.68-2.74,5.34-4.2,7.95c-1.68,2.83-3.05,5.84-4.06,8.98c-0.14,0.59-1.16,0.9-1.49,0.24
	c-1.97-4.56-3.52-9.27-4.61-14.1c-1.29-4.81-2.08-9.74-2.4-14.7c-0.29-4.92-0.03-9.84,0.76-14.68c0.95-5.16,2.4-10.24,4.35-15.12
	c1.07-2.82,2.23-5.61,3.49-8.37c0.6-1.3,1.24-2.59,1.81-3.9c0.53-1.39,1.19-2.74,1.92-4.04c0.13-0.16,0.31-0.27,0.51-0.32
	c0.2-0.05,0.41-0.05,0.61,0.02c0.2,0.07,0.37,0.19,0.49,0.35c0.12,0.16,0.19,0.36,0.2,0.57c-0.5,2.46,0.45,4.66,1.47,6.86
	c1.07,2.17,1.82,4.48,2.2,6.86c0.36,2.53,0.2,5.08,0.46,7.63c0.35,2.45,1.06,4.84,2.07,7.12c0.97,2.2,1.71,4.47,2.22,6.81
	c0.4,2.42,0.37,4.89-0.13,7.3C1286.04,103.75,1283.66,108.53,1281.31,113.11z M1285.7,92.43c-0.41-2.43-1.13-4.82-2.14-7.07
	c-0.98-2.22-1.71-4.53-2.19-6.89c-0.41-2.43-0.24-4.98-0.47-7.46c-0.32-2.77-1.13-5.45-2.39-7.96c-0.72-1.4-1.21-2.91-1.47-4.44
	c-0.67,1.45-1.27,2.97-1.94,4.4c-1.1,2.33-2.13,4.68-3.08,7.07c-2,4.79-3.56,9.75-4.68,14.81c-1.87,9.55-1.63,19.4,0.69,28.88
	c0.58,2.61,1.4,5.21,2.14,7.81c0.59,2.02,1.19,4.06,1.98,6.02c1.69-4.54,4.36-8.66,6.54-12.98c2.39-4.74,4.99-9.47,6.33-14.64
	c0.67-2.44,0.9-4.98,0.65-7.49l0.01-0.06L1285.7,92.43z"/>
<path class="st4" d="M1271.32,32.04c-1.18,2.73-2.26,5.51-3.48,8.24c-2.62,6.12-6.34,11.71-10.95,16.53c-2.11,2.19-4.57,4-7.28,5.39
	c-2.98,1.31-6.11,2.31-9.32,2.94c-6.49,1.59-12.74,4.05-19.29,5.5c-3.64,0.91-7.39,1.24-11.14,1.01c-1.91-0.2-3.79-0.51-5.66-0.93
	c-1.51-0.2-2.98-0.7-4.29-1.46c-0.38-0.26-0.66-0.88-0.22-1.21c1.03-0.85,2.16-1.58,3.28-2.34c1.32-0.93,2.55-1.98,3.7-3.11
	c2.12-2,4.16-4.08,6.3-6.05c4.06-3.72,8-7.6,12.32-11.07c4.36-3.61,9.25-6.56,14.49-8.73c2.67-1,5.41-1.76,8.22-2.29
	c2.87-0.64,5.69-1.51,8.41-2.6c3.17-1.27,6.41-2.32,9.61-3.5c1.39-0.45,2.62-1.3,3.53-2.43c0.58-0.9,1.4-1.65,2.36-2.13
	c0.11-0.12,0.25-0.21,0.4-0.25c0.16-0.04,0.32-0.05,0.48,0c0.15,0.05,0.29,0.14,0.39,0.26c0.1,0.13,0.16,0.28,0.18,0.44
	C1273.52,26.96,1272.37,29.61,1271.32,32.04z M1270.35,27.46c-0.78,0.86-1.73,1.53-2.8,1.97c-2.63,1.2-5.54,1.97-8.26,3
	c-2.75,1.16-5.57,2.16-8.44,3.01c-2.78,0.7-5.63,1.13-8.37,2.03c-10.84,3.52-19.06,11.38-27.15,18.93c-2.38,2.2-4.72,4.46-7.05,6.71
	c-1.07,1.08-2.21,2.11-3.39,3.08c-1.05,0.8-2.17,1.47-3.22,2.22c0.86,0.32,1.75,0.55,2.66,0.7c1.49,0.34,3.01,0.62,4.52,0.81
	c3.35,0.37,6.74,0.2,10.03-0.5c6.23-1.2,12.17-3.48,18.26-5.11c3.05-0.84,6.2-1.42,9.16-2.47c2.88-1.03,5.53-2.6,7.78-4.63
	c4.61-4.28,8.36-9.4,11.05-15.09c1.48-2.98,2.57-6.12,3.97-9.15c1.19-2.23,2.03-4.61,2.5-7.08
	C1271.16,26.33,1270.8,26.94,1270.35,27.46z"/>
<path class="st4" d="M1327.64,95.57c-2.68-0.61-4.82-2.61-7.11-4.04c-2.59-1.58-5.07-3.33-7.44-5.23c-4.5-3.61-8.6-7.7-12.23-12.18
	c-3.69-4.5-6.61-9.58-8.63-15.07c-0.96-2.8-1.79-5.64-2.46-8.52c-0.66-2.73-1.72-5.35-3.15-7.76c-1.44-2.46-3-4.83-4.3-7.39
	c-1.18-2.29-2.44-4.89-2.37-7.59c0-0.19,0.06-0.37,0.18-0.5c0.11-0.15,0.28-0.24,0.46-0.27c0.08-0.12,0.18-0.2,0.3-0.26
	c0.12-0.07,0.25-0.1,0.38-0.1c0.13,0,0.26,0.02,0.38,0.09c0.12,0.05,0.22,0.14,0.3,0.25c1.47,2.05,4.22,2.69,6.1,4.29
	c0.93,0.93,1.93,1.79,2.99,2.57c1.37,0.86,2.88,1.5,4.32,2.26c4.66,2.62,8.69,6.25,11.81,10.63c3.17,4.38,5.5,9.33,6.89,14.59
	c1.51,5.59,2.21,11.4,4.16,16.87c1.16,3.12,2.71,6.08,4.63,8.79c0.9,1.35,1.9,2.64,3,3.84c1.03,1.01,1.94,2.15,2.69,3.38
	c0.11,0.13,0.19,0.31,0.21,0.49c0.01,0.18-0.03,0.37-0.13,0.51c-0.1,0.15-0.25,0.28-0.42,0.33
	C1328,95.63,1327.81,95.63,1327.64,95.57z M1322.14,88.97c-1.7-2.34-3.17-4.83-4.4-7.45c-2.4-5.31-3.24-11.11-4.56-16.76
	c-1.16-5.48-3.29-10.68-6.28-15.38c-2.95-4.58-6.89-8.42-11.52-11.24c-1.6-0.92-3.28-1.63-4.86-2.55c-1.18-0.77-2.28-1.66-3.27-2.68
	c-1.7-1.56-3.97-2.31-5.67-3.83c0.38,1.95,1.08,3.81,2.07,5.52c1.11,2.16,2.37,4.21,3.62,6.28c1.43,2.17,2.57,4.54,3.41,7.01
	c0.83,2.68,1.38,5.45,2.23,8.12c1.69,5.38,4.25,10.44,7.59,14.96c3.37,4.48,7.2,8.57,11.44,12.23c2.54,2.23,5.25,4.29,8.1,6.13
	c1.26,0.82,2.53,1.6,3.77,2.46c0.49,0.35,1,0.69,1.48,1l-0.61-0.66c-0.92-1.01-1.77-2.08-2.55-3.2l0,0.01L1322.14,88.97z"/>
<path class="st4" d="M1343.49,53.37c-1.36,0.09-2.72-0.16-3.95-0.72l-4.48-1.62c-3.31-1.17-6.49-2.64-9.52-4.42
	c-5.49-3.29-10.42-7.42-14.61-12.25c-4.4-5.09-7.8-10.96-12.4-15.88c-2.14-2.3-4.59-4.28-6.59-6.71c-1.86-2.17-3.42-4.57-4.64-7.16
	c-1.17-2.59-2.02-5.33-2.51-8.14c-0.36-2.01-0.82-5.05,1.01-6.5c0.03-0.13,0.1-0.24,0.19-0.34c0.09-0.1,0.2-0.17,0.33-0.2
	c0.13-0.04,0.26-0.05,0.39-0.02c0.13,0.03,0.24,0.1,0.34,0.19c2.05,2.36,4.38,4.46,6.95,6.23c2.57,1.36,5.22,2.55,7.95,3.59
	c5.07,2.16,9.7,5.24,13.62,9.09c8.09,8.25,11.76,19.58,17.5,29.39c1.69,2.87,3.59,5.63,5.66,8.25c0.89,1.11,1.87,2.16,2.93,3.1
	c0.97,0.81,1.77,1.78,2.4,2.86c0.08,0.11,0.13,0.26,0.15,0.39c0.01,0.13-0.01,0.29-0.07,0.41c-0.05,0.12-0.15,0.24-0.27,0.32
	C1343.77,53.31,1343.64,53.36,1343.49,53.37z M1338.12,47.91c-1.89-2.33-3.62-4.78-5.21-7.31c-3-4.81-5.37-10-7.93-15.05
	c-2.58-5.06-5.42-10.32-9.26-14.64c-3.71-4.03-8.21-7.26-13.22-9.5c-2.92-1.39-6.05-2.36-8.86-3.98c-2.59-1.67-4.95-3.7-6.98-6.02
	c-1.16,1.22-0.39,4.2-0.11,5.54c0.47,2.35,1.19,4.66,2.15,6.86c1.19,2.56,2.72,4.94,4.57,7.08c1.91,2.22,4.17,4.08,6.18,6.21
	c4.27,4.46,7.48,9.82,11.36,14.6c3.84,4.76,8.39,8.9,13.5,12.26c3,1.98,6.21,3.63,9.56,4.94c1.7,0.67,3.44,1.24,5.13,1.88
	c0.94,0.4,1.92,0.73,2.93,0.96C1340.8,50.36,1339.22,49.28,1338.12,47.91z"/>
<path class="st4" d="M1279.03-9.02c-1.42,3.61-3.14,7.08-5.12,10.41c-1.6,2.97-3.43,5.79-5.46,8.47
	c-3.98,4.95-9.05,8.91-14.82,11.59c-6.56,3.05-13.59,4.46-20.54,6.2c-7.44,1.95-14.71,4.45-21.76,7.5c-3.02,1.47-6.28,2.43-9.63,2.8
	c-1.45,0.08-4.72,0.49-5.27-1.39c-0.55-1.88,2.72-3.42,3.97-4.18c2.76-1.84,5.25-4.05,7.37-6.59c4.57-5.13,8.41-11.11,13.92-15.27
	c2.66-1.99,5.78-3.29,9.08-3.77c3.74-0.56,7.53-0.47,11.27-1.15c3.2-0.41,6.17-1.87,8.43-4.14c2.32-2.52,3.97-5.65,6.67-7.83
	c2.45-2,5.31-2.17,8.34-1.84c1.53,0.22,3.07,0.34,4.6,0.38c1.57-0.02,3.45-0.02,4.76-0.99c0.97-0.71,1.84-1.57,3.13-1.48
	c0.16,0.01,0.32,0.06,0.45,0.14c0.14,0.09,0.24,0.2,0.33,0.34c0.13,0.07,0.23,0.18,0.28,0.33C1279.07-9.3,1279.07-9.15,1279.03-9.02
	z M1274.98-7.04c-1.38,0.56-2.85,0.82-4.34,0.77c-2.85,0.09-5.69-0.73-8.49-0.51c-3.41,0.26-5.59,2.96-7.49,5.5
	c-1.91,2.54-3.73,5.12-6.58,6.61c-5.97,3.15-12.98,1.84-19.32,3.42c-6.35,1.6-10.9,7.27-14.88,12.15c-3.96,4.88-7.8,9.9-13.12,13.14
	c-0.93,0.58-1.81,1.23-2.66,1.94c-0.02,0.04-0.03,0.09-0.03,0.14l0.28,0.06c0.54,0.14,1.1,0.2,1.66,0.18
	c2.69-0.01,5.34-0.52,7.83-1.51c6.76-2.61,13.39-5.54,20.38-7.58c6.58-1.92,13.39-3.04,19.87-5.32c6.07-2.02,11.6-5.39,16.17-9.86
	c4.66-4.67,7.92-10.54,10.9-16.36c0.46-0.92,0.9-1.83,1.32-2.75c-0.11-0.12-0.18-0.27-0.2-0.42c-0.02-0.16,0.02-0.32,0.09-0.46
	c0.03-0.11,0.11-0.23,0.17-0.32C1276.05-7.78,1275.52-7.39,1274.98-7.04z"/>
<path class="st5" d="M1254.88,582.65c1.99,7.65,3.56,15.39,5.88,22.95c1.98,6.32,4.91,12.3,8.73,17.72
	c4.13,5.73,8.69,11.15,13.61,16.21c5.29,5.6,10.82,10.95,16.49,16.18c5.03,4.66,10.68,9.84,17.36,11.94
	c1.88,0.59,0.87,3.49-1.04,2.88c-6.12-1.93-11.47-6.35-16.19-10.59c-5.71-5.15-11.28-10.48-16.61-15.99
	c-9.78-10.1-19.46-21.02-24.27-34.48c-3.08-8.54-4.7-17.49-6.96-26.24C1251.38,581.35,1254.38,580.81,1254.88,582.65z"/>
<path class="st5" d="M1199.96,468.2c0.88,4.05,3.86,7.44,5.75,11.04c2.16,4.16,3.95,8.53,5.29,13.02
	c2.22,8.05,3.87,16.25,4.96,24.54c1.2,7.7,2.15,15.54,4.87,22.91c1.15,3.23,2.67,6.32,4.52,9.21c2.2,3.06,4.65,5.92,7.33,8.55
	c2.88,3.11,5.71,6.25,8.67,9.27c2.78,2.54,5.05,5.57,6.71,8.96c0.5,1.22,2.3,0.25,1.81-0.94l-0.17-0.35
	c-1.18-3.74,0.42-7.79,0.89-11.54c0.49-4.54,0.24-9.13-0.75-13.58c-0.96-4.23-2.16-8.4-3.62-12.47c-1.48-4.46-2.85-8.96-4.21-13.48
	c-2.38-7.94-4.54-15.74-8.89-22.88c-4.19-6.83-9.71-12.59-15-18.55c-2.95-3.33-6.03-6.45-9.17-9.65c-2.14-2.19-4.54-5.33-7.91-5.33
	c-0.15-0.01-0.32,0.02-0.48,0.08c-0.14,0.06-0.28,0.16-0.38,0.28c-0.08,0.13-0.14,0.27-0.19,0.43
	C1199.94,467.88,1199.94,468.04,1199.96,468.2z"/>
<path class="st5" d="M1176.13,553.97c1,2.02,3.47,3.11,5.29,4.27c2.71,1.88,5.27,3.96,7.64,6.23c4.7,4.16,9.26,8.48,14.15,12.44
	c5,4.03,10.37,7.56,16.06,10.57c5.78,3.09,11.77,5.76,17.72,8.55c2.32,1.08,4.67,2.15,6.96,3.38c2.24,1.04,4.21,2.56,5.8,4.43
	c0.07,0.11,0.18,0.2,0.3,0.27c0.12,0.06,0.25,0.1,0.38,0.1c0.14,0.01,0.27-0.02,0.39-0.07c0.12-0.05,0.23-0.14,0.32-0.23
	c0.13-0.03,0.25-0.08,0.34-0.15c0.11-0.07,0.19-0.17,0.26-0.27c0.07-0.1,0.11-0.23,0.13-0.36c0.02-0.13,0.01-0.26-0.02-0.37
	c-0.5-2.61-2.41-4.76-4.13-6.69c-2.09-2.35-4.02-4.82-6.17-7.11c-4.35-4.71-9.15-8.95-13.69-13.49c-4.54-4.55-8.97-8.97-14.33-12.24
	c-5.64-3.45-12.08-4.96-18.45-6.34c-3.2-0.71-6.43-1.33-9.61-2.15c-2.73-0.7-5.54-2.29-8.38-2.24c-0.17,0-0.36,0.04-0.51,0.12
	c-0.17,0.08-0.29,0.2-0.39,0.36c-0.1,0.14-0.15,0.32-0.16,0.51C1176.01,553.64,1176.04,553.82,1176.13,553.97z"/>
<path class="st5" d="M1186.67,607.55c-0.13,0.08-0.25,0.18-0.34,0.31c-0.09,0.13-0.15,0.26-0.17,0.42
	c-0.03,0.15-0.01,0.31,0.03,0.44c0.04,0.15,0.12,0.28,0.22,0.4c3.04,3.93,7.94,6.4,12.24,8.73c10.22,5.57,21.07,10.21,33.03,9.34
	c5.17-0.37,10.28-1.42,15.48-1.6c2.66,0,5.32,0.15,7.97,0.41c2.69-0.05,5.39,0.38,7.94,1.27c1.2,0.54,1.8-1.36,0.6-1.91l-0.47-0.15
	l-0.08-0.15c-4.39-4.43-9.61-8-15.34-10.52c-5.08-2.3-10.43-3.95-15.91-4.92c-6.19-1.08-12.41-0.94-18.67-1.04
	c-2.95-0.01-5.91-0.23-8.84-0.63c-1.92-0.29-3.83-0.74-5.74-1.08C1194.84,606.22,1190.01,605.34,1186.67,607.55z"/>
<path class="st5" d="M1288.94,580.19c4.15-8,6.88-16.7,8.02-25.64c1.34-8.98,1.72-18.07,2.32-27.1c0.56-7.85,1.91-15.93,0.35-23.81
	c-0.27-1.42-0.75-4.37-2.67-4.41c-1.44-0.06-2.22,1.6-2.75,2.67c-1.52,3.44-2.63,7.06-3.31,10.77c-1.7,8.12-2.66,16.41-4.27,24.55
	c-1.57,9.01-4.23,17.79-7.93,26.13c-1.94,4.17-4.54,8.03-6.52,12.17c-1.93,3.92-3.31,8.1-4.08,12.4c-0.54,3.1-0.82,6.29-1.06,9.41
	c-0.2,2.53-0.47,5.85,1.01,8.01c0.07,0.12,0.18,0.22,0.29,0.28c0.12,0.08,0.24,0.11,0.37,0.15c0.11,0.16,0.26,0.31,0.43,0.38
	c0.18,0.08,0.38,0.12,0.57,0.1c0.19-0.02,0.39-0.11,0.54-0.22c0.15-0.13,0.28-0.29,0.34-0.48c0.68-1.72,1.63-3.35,2.83-4.75
	C1278.68,593.99,1284.76,587.83,1288.94,580.19z"/>
<path class="st5" d="M1296.88,630.91c4.59-7.76,7.78-16.3,9.42-25.17c1.83-8.89,2.71-17.95,3.81-26.94
	c0.98-7.81,2.78-15.81,1.66-23.76c-0.19-1.43-0.51-4.4-2.42-4.55c-1.43-0.14-2.31,1.48-2.89,2.51c-1.7,3.36-3.01,6.9-3.89,10.57
	c-2.15,8.01-3.56,16.24-5.61,24.28c-2.06,8.91-5.2,17.53-9.34,25.66c-2.17,4.06-4.97,7.76-7.18,11.79
	c-2.14,3.81-3.75,7.91-4.76,12.16c-0.71,3.06-1.17,6.24-1.57,9.34c-0.34,2.52-0.79,5.82,0.57,8.05c0.06,0.13,0.17,0.23,0.27,0.29
	c0.11,0.09,0.24,0.13,0.36,0.17c0.1,0.17,0.25,0.32,0.41,0.41c0.18,0.09,0.37,0.14,0.57,0.13c0.19-0.01,0.39-0.08,0.55-0.19
	c0.16-0.12,0.29-0.27,0.37-0.45c0.77-1.68,1.81-3.25,3.08-4.59C1285.88,644.13,1292.31,638.31,1296.88,630.91z"/>
<path class="st5" d="M1199.79,648.26c-0.15,0.08-0.26,0.18-0.35,0.29c-0.09,0.13-0.15,0.26-0.19,0.43
	c-0.03,0.15-0.01,0.31,0.03,0.46c0.04,0.15,0.12,0.28,0.22,0.4c1.01,1.22,2.24,2.26,3.65,3.01c1.5,0.92,2.92,1.93,4.35,2.97
	c2.84,2.25,6.09,3.95,9.56,5.01c5.73,1.51,11.4,0.16,16.99-1.21c6.31-1.54,12.79-2.2,19.08-3.73c6.29-1.53,12.04-5.06,18.47-6.53
	c2.58-0.46,5.21-0.65,7.84-0.55c2.43,0.16,4.86-0.32,7.04-1.38c0.15-0.09,0.28-0.22,0.36-0.37c0.08-0.15,0.12-0.33,0.12-0.5
	c0.14-0.22,0.19-0.5,0.15-0.75c-0.04-0.26-0.18-0.49-0.38-0.68c-4.88-3.99-11.05-5.74-17.14-6.6c-5.71-0.73-11.49-0.93-17.25-0.61
	c-5.84,0.23-11.73,0.59-17.53,1.2c-6.1,0.56-12.13,1.86-17.89,3.88c-3.06,1.1-6.01,2.57-9.06,3.66c-1.44,0.54-2.95,0.86-4.48,0.97
	C1202.14,647.59,1200.93,647.84,1199.79,648.26z"/>
<path class="st4" d="M30.88,28.14C38.54,34,47.8,38.43,53.3,46.68c0.19,0.29,0.24,0.64,0.18,0.98c-0.07,0.33-0.28,0.62-0.56,0.81
	c-0.29,0.19-0.64,0.24-0.96,0.17c-0.33-0.07-0.62-0.28-0.81-0.57c-4.82-7.24-12.92-11.51-19.82-16.43
	c-7.47-5.38-13.92-12.02-19.11-19.62C6.85,4.25,4.86-5.31-0.89-12.84c-5.58-7.25-13.47-12.49-21.43-16.77
	c-4.46-2.45-9.08-4.72-13.79-6.69c-2.04-0.91-4.17-1.57-6.37-1.96c-1.82-0.28-3.88-0.65-5.21-2.06c-1.13-1.21,0.59-3.13,1.67-1.89
	c1.08,1.24,3.08,1.29,4.63,1.54c1.87,0.37,3.71,0.96,5.45,1.74c4.29,1.75,8.42,3.8,12.48,5.94c8.05,4.16,16,9.14,22.15,15.9
	c3.05,3.42,5.58,7.29,7.5,11.45C8.2-1.35,9.84,3.1,12.14,7.24c2.37,4.12,5.18,7.96,8.39,11.45C23.69,22.16,27.15,25.33,30.88,28.14z
	"/>
<path class="st4" d="M100.46,90.73c1.04,3.06,2.05,6.12,2.96,9.2c0.91,3.42,2.2,6.73,3.85,9.87c0.35,0.55-0.18,1.57-0.93,1.33
	c-4.99-1.91-9.77-4.26-14.3-7.05c-4.67-2.62-9.06-5.71-13.1-9.2c-4-3.47-7.59-7.37-10.72-11.61c-3.26-4.61-6.07-9.54-8.36-14.7
	c-1.37-2.95-2.64-5.93-3.82-8.97c-0.54-1.44-1.05-2.9-1.64-4.33c-0.67-1.46-1.22-2.97-1.66-4.51c-0.02-0.22,0.03-0.45,0.14-0.63
	c0.11-0.19,0.27-0.35,0.47-0.45c0.2-0.1,0.42-0.14,0.64-0.11c0.22,0.03,0.43,0.12,0.59,0.27c1.52,2.23,3.92,3.16,6.38,4.02
	c2.47,0.81,4.81,1.97,6.93,3.46c2.22,1.62,4.06,3.66,6.21,5.38c2.15,1.56,4.51,2.82,7.03,3.75c2.42,0.91,4.72,2.04,6.91,3.4
	c2.16,1.51,4.04,3.39,5.52,5.59C96.81,80.06,98.71,85.48,100.46,90.73z M87.85,71.82c-2.18-1.51-4.55-2.75-7.04-3.66
	c-2.44-0.91-4.77-2.08-6.95-3.49c-2.18-1.51-4.01-3.56-6.09-5.24c-2.37-1.83-5.04-3.23-7.91-4.15c-1.61-0.5-3.14-1.26-4.52-2.21
	c0.62,1.6,1.33,3.2,1.93,4.8c0.96,2.6,1.99,5.16,3.12,7.68c2.18,5.14,4.82,10.06,7.87,14.72c5.94,8.61,13.69,15.83,22.72,21.17
	c2.44,1.51,5.06,2.84,7.62,4.22c1.99,1.07,4.02,2.13,6.12,3c-2.22-4.71-3.38-9.86-5.07-14.78c-1.85-5.4-3.54-10.95-6.5-15.87
	c-1.38-2.34-3.15-4.43-5.27-6.13l-0.04-0.06L87.85,71.82z"/>
<path class="st4" d="M30.62,37.51c1.21,2.96,2.54,5.88,3.72,8.87c2.73,6.62,4.25,13.67,4.48,20.84c0.1,3.26-0.36,6.52-1.33,9.64
	c-1.24,3.28-2.82,6.43-4.74,9.38c-3.65,6.19-6.45,12.84-10.26,18.97c-2.03,3.48-4.6,6.62-7.59,9.32c-1.59,1.32-3.24,2.53-4.96,3.66
	c-1.29,1.01-2.77,1.77-4.35,2.2c-0.48,0.1-1.18-0.15-1.09-0.74c0.12-1.43,0.41-2.84,0.66-4.28c0.27-1.71,0.4-3.45,0.39-5.18
	c0.06-3.13-0.01-6.27,0.08-9.39C5.81,94.88,5.79,88.93,6.36,83c0.5-6.07,1.91-12.04,4.17-17.7c1.24-2.8,2.71-5.49,4.41-8.04
	c1.66-2.69,3.11-5.51,4.32-8.42c1.41-3.39,3.03-6.67,4.53-10.02c0.7-1.41,0.97-2.99,0.78-4.54c-0.26-1.12-0.21-2.31,0.14-3.42
	c-0.01-0.17,0.03-0.35,0.11-0.5c0.08-0.15,0.2-0.28,0.36-0.36c0.15-0.08,0.33-0.11,0.5-0.1c0.18,0.02,0.33,0.08,0.47,0.19
	C28.37,32.01,29.54,34.88,30.62,37.51z M26.37,34.82c0.07,1.24-0.13,2.48-0.59,3.64c-1.05,2.93-2.65,5.74-3.9,8.6
	c-1.17,2.99-2.52,5.91-4.02,8.75c-1.55,2.67-3.36,5.17-4.73,7.96c-5.43,10.98-5.57,23.2-5.84,35.1c-0.09,3.49-0.11,6.98-0.14,10.47
	c0.03,1.64-0.04,3.29-0.18,4.92c-0.17,1.4-0.5,2.77-0.71,4.15c0.89-0.42,1.73-0.93,2.53-1.51c1.38-0.89,2.74-1.84,4.02-2.87
	c2.81-2.3,5.22-5.03,7.14-8.09c3.75-5.69,6.47-11.97,9.78-17.88c1.64-2.98,3.56-5.83,4.98-8.9c1.37-2.99,2.15-6.2,2.29-9.47
	c0.17-6.76-0.95-13.49-3.3-19.83c-1.18-3.38-2.77-6.58-4.05-9.93c-0.82-2.59-2.02-5.02-3.57-7.24
	C26.11,33.34,26.31,34.08,26.37,34.82z"/>
<path class="st4" d="M121.78,41.93c-2.48,1.6-5.63,1.75-8.45,2.44c-3.16,0.81-6.37,1.4-9.61,1.79c-6.16,0.75-12.38,0.83-18.56,0.25
	c-6.23-0.55-12.33-2.11-18.06-4.69c-2.88-1.36-5.68-2.87-8.4-4.51c-2.6-1.54-5.41-2.69-8.34-3.41c-2.97-0.74-5.97-1.33-8.91-2.25
	c-2.64-0.82-5.59-1.8-7.61-3.88c-0.14-0.14-0.24-0.32-0.25-0.52c-0.03-0.2,0.03-0.4,0.14-0.55c-0.03-0.15-0.02-0.29,0.02-0.43
	c0.04-0.14,0.11-0.27,0.21-0.37c0.1-0.1,0.21-0.19,0.35-0.23c0.13-0.05,0.28-0.06,0.42-0.04c2.68,0.41,5.24-1.22,7.88-1.46
	c1.41-0.02,2.82-0.14,4.22-0.36c1.69-0.41,3.32-1.09,4.99-1.62c5.52-1.61,11.33-1.99,17.04-1.1c5.75,0.85,11.3,2.78,16.39,5.66
	c5.43,3.04,10.43,6.87,16.1,9.48c3.27,1.46,6.71,2.48,10.24,3.05c1.71,0.32,3.46,0.52,5.2,0.58c1.55-0.04,3.11,0.12,4.62,0.47
	c0.19,0.01,0.38,0.08,0.53,0.21c0.14,0.12,0.26,0.3,0.3,0.49c0.04,0.19,0.02,0.4-0.06,0.57C122.09,41.7,121.95,41.84,121.78,41.93z
	 M112.57,41.2c-3.07-0.46-6.1-1.19-9.04-2.21c-5.88-2.14-10.97-5.86-16.31-9.09c-5.08-3.22-10.68-5.49-16.54-6.72
	c-5.74-1.17-11.65-1.03-17.3,0.42c-1.91,0.53-3.72,1.3-5.61,1.82c-1.48,0.32-2.99,0.5-4.51,0.5c-2.48,0.14-4.76,1.32-7.2,1.49
	c1.78,1.17,3.74,2.03,5.8,2.56c2.49,0.76,5.02,1.34,7.55,1.93c2.74,0.54,5.42,1.43,7.96,2.64c2.68,1.37,5.23,3.03,7.92,4.39
	c5.41,2.75,11.22,4.57,17.2,5.41c5.98,0.77,12,0.9,18,0.39c3.63-0.28,7.24-0.82,10.8-1.62c1.58-0.35,3.13-0.74,4.72-1.05
	c0.64-0.11,1.28-0.25,1.89-0.39l-0.96-0.03c-1.47-0.05-2.93-0.2-4.38-0.45l0.01,0.01L112.57,41.2z"/>
<path class="st4" d="M101.24-1.96c-0.96,1.11-2.16,1.97-3.52,2.5L93.1,2.76c-3.38,1.66-6.91,3-10.55,4.01
	C75.9,8.51,69.02,9.2,62.16,8.8C54.94,8.36,47.87,6.56,40.63,6.4c-3.38-0.08-6.74,0.31-10.11,0.03c-3.06-0.2-6.08-0.81-9-1.81
	c-2.88-1.05-5.61-2.45-8.14-4.18c-1.82-1.23-4.5-3.16-4.24-5.67c-0.08-0.12-0.12-0.26-0.12-0.4C9.02-5.77,9.04-5.9,9.11-6.03
	c0.07-0.13,0.16-0.24,0.28-0.31c0.12-0.08,0.26-0.12,0.4-0.12c3.35,0.19,6.72-0.02,10.02-0.67c2.98-0.96,5.88-2.1,8.73-3.41
	c5.47-2.28,11.31-3.52,17.22-3.65c12.42-0.03,23.89,5.67,35.74,8.62c3.48,0.86,7.02,1.47,10.59,1.84c1.52,0.15,3.06,0.18,4.59,0.08
	c1.35-0.14,2.7-0.03,4,0.3c0.15,0.02,0.29,0.09,0.41,0.18c0.11,0.09,0.21,0.23,0.26,0.36c0.05,0.13,0.08,0.3,0.04,0.45
	C101.4-2.22,101.34-2.08,101.24-1.96z M93-1.93c-3.21-0.3-6.39-0.8-9.53-1.48c-5.95-1.3-11.73-3.38-17.54-5.21
	c-5.82-1.82-12.01-3.58-18.21-3.88c-5.89-0.17-11.75,0.85-17.24,3.03c-3.26,1.21-6.36,2.88-9.72,3.82
	c-3.23,0.74-6.56,1.02-9.87,0.84c0.07,1.81,2.94,3.46,4.17,4.25c2.16,1.41,4.48,2.58,6.89,3.5c2.86,1,5.84,1.62,8.88,1.81
	c3.14,0.2,6.27-0.14,9.42-0.08c6.63,0.07,13.17,1.63,19.76,2.23c6.54,0.62,13.15,0.23,19.58-1.17c3.77-0.82,7.46-2.05,10.98-3.64
	c1.8-0.81,3.53-1.71,5.3-2.54c1.02-0.42,2-0.93,2.94-1.53C96.9-2.15,94.89-1.75,93-1.93z"/>
<path class="st4" d="M4.84,0.74C6.55,4.54,7.93,8.47,9,12.5c1.08,3.46,1.88,6.99,2.41,10.57c0.82,6.78,0.06,13.65-2.22,20.1
	c-2.58,7.34-6.78,13.8-10.66,20.45c-4.09,7.18-7.62,14.65-10.58,22.36c-1.14,3.43-2.85,6.65-5.08,9.51c-1.03,1.18-3.17,4-5.03,3.01
	c-1.86-0.99-0.58-4.66-0.23-6.19c0.66-3.5,0.83-7.07,0.47-10.62c-0.52-7.37-2.23-14.81-1.28-22.17c0.47-3.55,1.81-6.91,3.92-9.81
	c2.38-3.3,5.3-6.14,7.58-9.53c2.09-2.77,3.2-6.15,3.15-9.59c-0.2-3.68-1.37-7.3-1.01-11.01c0.3-3.39,2.32-5.71,4.85-7.79
	c1.32-1.01,2.57-2.1,3.75-3.26c1.16-1.23,2.57-2.67,2.81-4.41c0.19-1.28,0.17-2.59,1.22-3.51C3.2,0.5,3.36,0.42,3.52,0.38
	c0.17-0.04,0.34-0.04,0.51,0C4.18,0.34,4.34,0.35,4.5,0.41C4.65,0.5,4.77,0.6,4.84,0.74z M3.32,5.35c-0.6,1.48-1.51,2.81-2.66,3.91
	c-2.07,2.26-4.84,3.83-6.77,6.15c-2.36,2.81-1.93,6.52-1.4,9.89c0.52,3.38,1.14,6.72,0.14,10.02c-2.06,6.96-8.34,11.36-11.88,17.43
	c-3.54,6.08-2.6,13.84-1.83,20.57c0.78,6.72,1.76,13.44,0.24,19.96c-0.25,1.15-0.41,2.32-0.51,3.51c0.01,0.04,0.04,0.09,0.08,0.13
	l0.26-0.17c0.51-0.31,0.98-0.69,1.39-1.14c2.01-2.07,3.62-4.49,4.72-7.16c3.08-7.16,5.8-14.46,9.48-21.36
	c3.47-6.5,7.72-12.58,10.84-19.27c3.01-6.19,4.57-12.97,4.57-19.84C9.88,20.87,7.82,13.96,5.59,7.3C5.23,6.25,4.85,5.24,4.46,4.21
	C4.29,4.21,4.12,4.15,3.99,4.05C3.86,3.94,3.77,3.8,3.71,3.64c-0.07-0.11-0.1-0.25-0.12-0.37C3.56,3.97,3.46,4.66,3.32,5.35z"/>
<path class="st6" d="M-453.56,397.54c0.05,3.72-1.24,7.46-2.45,10.9c-1.36,3.7-3.22,7.19-5.55,10.38
	c-4.49,6.4-10.37,11.65-14.72,18.14c-4.23,6.33-5.86,13.97-9.91,20.4c-1.92,3.03-4.28,5.78-6.45,8.62c-2.2,2.74-4.11,5.72-5.7,8.86
	c-0.78,1.6-1.38,3.28-1.82,4.99c-0.46,2.04-0.72,4.11-0.78,6.2c-0.09,2.14-0.11,4.27-0.27,6.41c-0.11,1.25-0.15,2.52-0.29,3.76
	c-0.44,0.27-0.85,0.52-1.25,0.74c0.02-0.14,0.04-0.28,0.05-0.42c0.12-0.8,0.15-1.62,0.21-2.4c0.11-1.91,0.28-3.81,0.33-5.72
	c0.11-4.01,0.36-7.95,1.8-11.74c2.51-6.65,7.42-11.92,11.58-17.55c2.15-3.01,3.92-6.27,5.29-9.71c1.45-3.47,2.77-7,4.58-10.31
	c3.76-6.83,9.65-12.08,14.38-18.18c2.46-3.06,4.57-6.4,6.27-9.95c0.76-1.72,1.41-3.48,1.96-5.28c0.61-1.8,1.07-3.66,1.39-5.53
	c0.14-0.9,0.21-1.8,0.2-2.7C-454.7,396.73-453.57,396.81-453.56,397.54z"/>
<path class="st6" d="M-484.03,455.48c0.07,0.04,0.14,0.05,0.22,0.04c1.19-0.16,2.35-0.52,3.43-1.06c1.04-0.62,1.89-1.54,2.9-2.24
	c1.07-0.82,2.35-1.32,3.69-1.42c1.4-0.03,2.79,0.42,4.17,0.64c2.29,0.31,4.6,0.16,6.61-1.06c1.49-0.9,2.68-2.19,3.92-3.4
	c1.24-1.21,2.49-2.31,4.12-2.77c2.25-0.65,4.65,0.03,6.8,0.76c2.14,0.73,4.24,1.65,6.5,1.32c2.05-0.3,3.7-1.63,5.21-2.94
	c1.64-1.45,3.24-3.02,5.28-3.91c2.39-1.06,5.18-1.14,7.75-1.1c0.08,0,0.15-0.01,0.21-0.05c0.06-0.04,0.11-0.09,0.14-0.16
	c0.03-0.07,0.05-0.15,0.04-0.21c-0.01-0.08-0.04-0.14-0.08-0.2c-1-0.95-2.07-1.84-3.18-2.64c-1.06-0.83-2.01-1.77-3.03-2.66
	c-1.84-1.59-4.1-3.33-6.66-3.12c-1.1,0.13-2.18,0.43-3.19,0.9c-1.12,0.46-2.24,0.93-3.39,1.32c-1.21,0.41-2.44,0.74-3.7,0.97
	c-1.32,0.21-2.65,0.27-3.98,0.18c-2.74-0.12-5.47-0.51-8.23-0.55c-2.11-0.06-4.19,0.46-6.02,1.51c-1.94,1.22-3.71,2.7-5.27,4.38
	c-1.76,1.75-3.4,3.62-4.99,5.52c-1.6,1.9-3.12,3.85-4.7,5.78c-0.84,1.05-1.68,2.08-2.54,3.1c-0.39,0.45-0.78,0.9-1.14,1.38
	c-0.27,0.44-0.65,0.8-1.12,1.02C-484.68,454.93-484.42,455.51-484.03,455.48z"/>
<path class="st6" d="M-453.59,394.69c1.14-2.63,1.54-5.53,1.13-8.36c-0.16-1.26-0.46-2.5-0.88-3.69c-0.49-1.25-1.06-2.45-1.73-3.6
	c-0.7-1.22-1.32-2.49-1.86-3.8c-0.44-1.16-0.76-2.33-1.24-3.47c-0.43-1.1-1.09-2.09-1.92-2.9c-0.64-0.56-1.34-1.05-2.09-1.45
	c-0.84-0.5-1.73-0.92-2.65-1.26c-0.68-0.31-1.45-0.38-2.18-0.19c-0.08,0.04-0.13,0.1-0.17,0.18s-0.05,0.16-0.03,0.24
	c0.17,1.04,1,1.76,1.62,2.53c0.81,0.93,1.49,1.98,2.01,3.11c0.93,2.17,0.79,4.6,1.19,6.89c0.42,1.98,1.34,3.82,2.67,5.34
	c0.73,0.8,1.41,1.66,2.04,2.55c0.59,0.94,1.12,1.93,1.6,2.94c0.36,0.77,0.77,1.51,1.12,2.29c0.42,0.76,0.65,1.62,0.65,2.49
	c-0.02,0.05-0.02,0.11,0,0.16c0.01,0.05,0.04,0.1,0.08,0.13l0.03,0.01c0.05,0.04,0.1,0.07,0.15,0.08c0.05,0.02,0.11,0.02,0.18,0
	c0.06-0.01,0.11-0.04,0.16-0.08c0.05-0.04,0.08-0.08,0.11-0.14C-453.61,394.69-453.59,394.7-453.59,394.69z"/>
<path class="st6" d="M-422.26,407.39c-0.63-0.52-1.37-0.92-2.16-1.15c-0.89-0.3-1.8-0.55-2.72-0.74c-1.95-0.4-3.95-0.49-5.93-0.27
	c-3.2,0.33-6.29,1.38-9.05,3.07c-1.5,0.93-2.84,2.06-4.28,3.1c-1.48,1.04-3.09,1.88-4.79,2.48c-1.56,0.56-3.06,1.28-4.49,2.14
	c-1.36,0.84-2.62,1.84-3.78,2.96c-1.19,1.19-2.26,2.49-3.2,3.88c-0.53,0.77-1.05,1.55-1.6,2.31c-0.42,0.68-0.95,1.27-1.57,1.76
	c-0.07,0.04-0.12,0.11-0.15,0.18c-0.03,0.08-0.04,0.16-0.02,0.24c-0.09,0.25,0.08,0.6,0.41,0.5c0.87-0.24,1.59-0.8,2.43-1.1
	c0.84-0.3,1.8-0.64,2.69-0.98c1.82-0.73,3.6-1.6,5.28-2.6c1.43-0.9,2.98-1.58,4.61-2.03c1.63-0.35,3.28-0.53,4.94-0.55
	c2.95-0.09,6.15,0.26,8.64-1.7s3.9-5.13,6.44-7.12c1.28-0.96,2.68-1.74,4.17-2.32c1.32-0.55,2.81-0.66,4.02-1.47
	C-422.19,407.89-422.05,407.58-422.26,407.39z"/>
<path class="st6" d="M-425.54,356.23c0.83-2.4,1.19-4.93,1.08-7.47c-0.09-1.89-0.18-4.04-1.38-5.62c-0.19-0.24-0.53-0.08-0.65,0.13
	c-0.62,1.28-1.12,2.6-1.66,3.91c-0.54,1.31-1.16,2.58-1.86,3.81c-1.41,2.51-3,4.9-4.63,7.26c-1.31,1.92-2.62,3.82-4.06,5.65
	c-1.36,1.73-2.79,3.42-4.17,5.14c-2.71,3.37-5.3,6.93-6.78,11.02c-0.79,2.3-1.12,4.73-1,7.16c0.09,2.6,0.3,5.18-0.3,7.75
	c-0.3,1.25-0.68,2.48-1.11,3.68c-0.36,1.1-0.85,2.17-1.44,3.17c-1.12,1.86-2.5,3.62-3.03,5.76c-0.11,0.47,0.6,0.72,0.72,0.25
	c0.01-0.03,0.01-0.05,0.01-0.08c0.05-0.02,0.08-0.05,0.11-0.08c0.03-0.03,0.06-0.07,0.08-0.11c0.79-2.43,2.96-4.23,4.88-5.8
	c1.92-1.57,3.83-2.78,5.67-4.28c1.63-1.25,2.99-2.82,4-4.61c1.19-2.27,1.92-4.81,2.68-7.23c0.8-2.54,1.57-5.09,2.56-7.56
	c1-2.47,2.27-4.95,3.51-7.37C-429.86,365.97-427.22,361.27-425.54,356.23z"/>
<path class="st6" d="M-466.68,416.5c0.02,0.67-0.06,1.32-0.08,1.98c0.01,0.58-0.06,1.17-0.21,1.74l-0.08,0.05
	c-0.08,0.05-0.14,0.13-0.16,0.22s-0.01,0.18,0.02,0.27c0.04,0.08,0.11,0.14,0.2,0.18c0.08,0.03,0.18,0.03,0.27,0
	c1.06-0.54,1.69-1.77,2.2-2.79c0.6-1.16,0.99-2.42,1.14-3.72c0.11-1.48,0.12-2.96,0.03-4.43c0-1.4-0.18-2.8-0.54-4.15
	c-0.27-0.98-0.68-2.07-1.6-2.6c-0.05-0.03-0.11-0.05-0.18-0.05c-0.06,0-0.13,0.01-0.18,0.04c-0.06,0.03-0.11,0.07-0.14,0.12
	c-0.04,0.05-0.06,0.11-0.07,0.17c-0.03,0.76,0.03,1.51-0.02,2.27c-0.08,0.77-0.24,1.54-0.46,2.3c-0.44,1.39-0.67,2.85-0.66,4.31
	C-467.11,413.79-466.73,415.13-466.68,416.5z"/>
<path class="st6" d="M-483.46,423.69c0.04,1.57-0.11,3.13-0.46,4.67c-0.35,1.5-0.51,3.04-0.46,4.58c0.05,1.53,0.4,3.03,1.03,4.42
	c0.39,0.71,0.71,1.46,0.97,2.24c0.11,0.38,0.18,0.77,0.27,1.15c0.02,0.36,0.07,0.71,0.14,1.06c0.01,0.06,0.03,0.11,0.07,0.16
	c0.04,0.04,0.08,0.08,0.14,0.1c0.18,0.41,0.88,0.26,0.73-0.19c-0.14-0.41-0.26-0.83-0.35-1.25c0-1.69,0.34-3.36,1.02-4.91
	c0.72-1.89,1.56-3.72,2.31-5.6c0.74-1.76,1.37-3.57,1.89-5.4c0.43-1.68,0.74-3.4,0.89-5.12c0.32-3.2,0.31-6.61-0.91-9.66
	c-1.22-3.05-3.69-5.48-6.04-7.74c-1.28-1.22-2.46-2.51-3.63-3.81c-0.83-0.94-1.41-2.39-2.65-2.87c-0.06-0.02-0.13-0.02-0.2-0.02
	c-0.07,0.02-0.13,0.05-0.17,0.08c-0.05,0.04-0.09,0.1-0.11,0.16c-0.02,0.06-0.02,0.13-0.01,0.2c0.13,0.78,0.36,1.55,0.68,2.27
	c0.32,0.83,0.43,1.72,0.33,2.6c-0.11,0.94-0.38,1.86-0.57,2.78c-0.17,0.87-0.3,1.76-0.37,2.65c-0.15,1.56,0.1,3.14,0.73,4.58
	c0.63,1.41,1.5,2.7,2.23,4.07C-484.46,417.58-483.61,420.6-483.46,423.69z"/>
<path class="st6" d="M-500.95,413.59c0.19,0.93,0.3,1.85,0.4,2.78c0.23,2.11,0.31,4.24,0.24,6.36c-0.17,3.67-0.72,7.33-0.91,11
	c-0.18,3.57,0.11,7.15,0.9,10.64c0.36,1.63,0.83,3.24,1.39,4.81c0.58,1.62,1.32,3.16,1.96,4.76c0.68,1.64,1.2,3.35,1.55,5.09
	c0.33,1.75,0.3,3.53,0.56,5.29c-0.01,0.08,0.01,0.17,0.05,0.24c0.05,0.08,0.11,0.13,0.19,0.17c0.08,0.03,0.17,0.04,0.25,0.02
	c0.08-0.02,0.15-0.08,0.21-0.14c0.93-1.59,1.66-3.28,2.17-5.04c0.68-2.05,1.25-4.15,1.69-6.27c0.83-3.61,1.15-7.32,1-11.02
	c-0.11-1.69-0.39-3.36-0.83-4.99c-0.5-1.74-1.12-3.45-1.84-5.12c-1.51-3.67-2.77-7.45-3.95-11.24c-1.09-3.57-2.58-7.01-4.45-10.25
	c-0.04-0.08-0.1-0.13-0.17-0.17s-0.16-0.04-0.24-0.03c-0.08,0.02-0.15,0.06-0.21,0.12c-0.05,0.06-0.09,0.14-0.1,0.22
	C-501.23,411.76-501.17,412.69-500.95,413.59z"/>
</svg>
