<svg width="250" height="304" viewBox="0 0 250 304" fill="none" xmlns="http://www.w3.org/2000/svg">
<g opacity="0.85">
<path d="M211.131 120.485C212.48 118.546 214.393 116.812 214.932 114.496C214.949 114.414 214.927 114.331 214.875 114.259C214.822 114.189 214.737 114.137 214.645 114.118C214.55 114.097 214.455 114.111 214.378 114.153C214.301 114.195 214.246 114.265 214.229 114.347C213.758 116.38 212.128 117.987 210.872 119.652C209.522 121.465 208.566 123.487 208.039 125.632C207.486 127.825 207.992 130.168 207.312 132.337C206.649 134.432 205.174 136.246 203.577 137.846C202.69 138.753 201.74 139.634 200.737 140.452C200.307 140.818 199.829 141.136 199.302 141.397C198.863 141.604 198.372 141.848 198.178 142.274C198.017 142.639 198.663 142.944 198.809 142.575C198.955 142.207 199.466 142.039 199.839 141.862C200.283 141.632 200.693 141.354 201.059 141.039C201.977 140.305 202.824 139.512 203.642 138.706C205.275 137.127 206.79 135.367 207.654 133.342C208.074 132.322 208.316 131.24 208.366 130.138C208.431 129.001 208.379 127.854 208.529 126.729C208.701 125.601 209.017 124.504 209.471 123.454C209.915 122.415 210.469 121.42 211.131 120.485Z" fill="#9DBF9E"/>
<path d="M226.258 92.0716C226.216 90.87 226.162 89.6713 226.071 88.4752C225.936 87.1637 225.946 85.8407 226.108 84.5286C226.158 84.2901 225.837 84.0047 225.607 84.1892C224.123 85.5125 222.766 86.9635 221.558 88.5361C220.279 90.0673 219.16 91.7223 218.211 93.4718C217.276 95.2083 216.543 97.0407 216.014 98.9324C215.488 100.967 215.161 103.056 215.045 105.157C214.959 106.363 214.909 107.572 214.901 108.784C214.902 109.356 214.917 109.932 214.902 110.507C214.86 111.102 214.871 111.703 214.92 112.297C214.94 112.375 214.988 112.449 215.052 112.5C215.115 112.55 215.192 112.588 215.275 112.595C215.359 112.602 215.441 112.588 215.513 112.55C215.584 112.512 215.645 112.451 215.682 112.379C215.916 111.4 216.629 110.761 217.371 110.134C218.126 109.526 218.786 108.812 219.326 108.015C219.884 107.158 220.256 106.203 220.777 105.322C221.318 104.494 221.976 103.742 222.73 103.086C223.453 102.45 224.105 101.75 224.685 100.988C225.239 100.178 225.643 99.2722 225.867 98.3126C226.396 96.2674 226.341 94.13 226.258 92.0716ZM224.366 100.321C223.806 101.136 223.144 101.881 222.398 102.528C221.668 103.168 221.013 103.883 220.44 104.662C219.88 105.477 219.513 106.433 219.013 107.291C218.429 108.244 217.684 109.082 216.805 109.781C216.309 110.169 215.877 110.634 215.524 111.147C215.527 110.507 215.564 109.857 215.561 109.221C215.552 108.19 215.574 107.161 215.632 106.135C215.712 104.058 215.98 101.994 216.426 99.9684C217.355 96.1846 219.101 92.6481 221.541 89.5926C222.192 88.7448 222.926 87.9356 223.635 87.1159C224.188 86.4805 224.753 85.8422 225.369 85.2625C225.219 87.1972 225.495 89.1429 225.556 91.08C225.625 93.2044 225.772 95.3611 225.39 97.464C225.221 98.4618 224.879 99.423 224.366 100.295L224.36 100.32L224.366 100.321Z" fill="#9DBF9E"/>
<path d="M208.97 119.835C209 118.643 209.078 117.451 209.092 116.256C209.17 113.59 208.763 110.933 207.899 108.407C207.502 107.257 206.913 106.184 206.162 105.224C205.299 104.246 204.332 103.357 203.271 102.586C201.182 100.913 199.326 98.9669 197.19 97.3374C196.022 96.3954 194.714 95.6409 193.314 95.0949C192.587 94.8455 191.851 94.6418 191.102 94.4775C190.52 94.2959 189.904 94.2288 189.298 94.2859C189.116 94.3163 188.909 94.495 189.016 94.6874C189.248 95.1711 189.534 95.6239 189.811 96.0909C190.132 96.6519 190.405 97.2399 190.632 97.8446C191.065 98.9276 191.457 100.028 191.902 101.104C192.748 103.138 193.528 105.212 194.511 107.201C195.487 109.248 196.766 111.141 198.304 112.813C199.107 113.625 199.973 114.365 200.903 115.029C201.838 115.746 202.714 116.536 203.519 117.391C204.459 118.385 205.455 119.312 206.421 120.28C206.851 120.679 207.155 121.194 207.295 121.759C207.353 122.185 207.526 122.592 207.794 122.93C207.813 122.992 207.849 123.048 207.898 123.09C207.947 123.132 208.005 123.16 208.072 123.169C208.134 123.177 208.2 123.165 208.258 123.14C208.318 123.11 208.364 123.067 208.397 123.01C208.914 122.049 208.941 120.894 208.97 119.835ZM207.846 121.335C207.707 120.892 207.474 120.488 207.16 120.145C206.408 119.265 205.479 118.496 204.664 117.665C203.861 116.78 203.005 115.941 202.107 115.151C201.216 114.427 200.253 113.794 199.408 113.005C196.064 109.9 194.402 105.662 192.734 101.556C192.241 100.354 191.772 99.1412 191.303 97.9286C191.096 97.3546 190.855 96.7894 190.59 96.2402C190.344 95.7746 190.049 95.341 189.795 94.8896C190.16 94.9192 190.522 94.9854 190.878 95.0821C191.477 95.209 192.075 95.3624 192.656 95.5491C193.937 95.9798 195.139 96.611 196.213 97.4217C198.273 98.908 200.048 100.737 201.984 102.356C202.95 103.175 203.996 103.917 204.896 104.797C205.769 105.655 206.465 106.672 206.943 107.791C207.896 110.124 208.396 112.615 208.414 115.132C208.449 116.464 208.317 117.788 208.315 119.123C208.371 120.132 208.274 121.14 208.03 122.116C207.952 121.882 207.922 121.6 207.846 121.335Z" fill="#9DBF9E"/>
<path d="M240.13 106.245C239.055 106.017 237.939 106.38 236.867 106.513C235.661 106.649 234.465 106.867 233.284 107.158C231.042 107.711 228.864 108.505 226.788 109.523C224.691 110.536 222.772 111.889 221.117 113.542C220.295 114.396 219.517 115.291 218.789 116.223C218.088 117.103 217.262 117.877 216.337 118.513C215.399 119.162 214.434 119.763 213.531 120.473C212.718 121.106 211.821 121.838 211.393 122.829C211.363 122.897 211.352 122.974 211.375 123.043C211.391 123.115 211.436 123.178 211.497 123.217C211.506 123.272 211.528 123.319 211.561 123.363C211.594 123.407 211.634 123.442 211.683 123.463C211.732 123.484 211.781 123.5 211.835 123.495C211.888 123.496 211.939 123.48 211.987 123.453C212.867 122.956 213.974 123.185 214.925 122.921C215.42 122.739 215.927 122.598 216.443 122.49C217.085 122.409 217.743 122.431 218.392 122.394C220.527 122.227 222.602 121.59 224.471 120.524C226.36 119.466 228.041 118.063 229.43 116.386C230.92 114.608 232.154 112.616 233.783 110.958C234.729 110.019 235.792 109.206 236.945 108.543C237.499 108.205 238.082 107.905 238.681 107.655C239.225 107.463 239.747 107.203 240.229 106.881C240.293 106.852 240.352 106.801 240.386 106.739C240.42 106.678 240.437 106.602 240.425 106.53C240.414 106.459 240.381 106.388 240.328 106.34C240.27 106.285 240.203 106.255 240.13 106.245ZM237.02 107.716C236.009 108.282 235.054 108.938 234.165 109.682C232.4 111.206 231.119 113.171 229.686 115.003C228.341 116.796 226.692 118.328 224.814 119.531C222.971 120.699 220.892 121.429 218.736 121.672C218.001 121.739 217.27 121.711 216.54 121.779C215.982 121.862 215.433 122 214.903 122.2C214.022 122.48 213.071 122.368 212.198 122.634C212.663 121.991 213.232 121.433 213.88 120.976C214.648 120.381 215.45 119.846 216.254 119.306C217.139 118.757 217.953 118.092 218.676 117.334C219.43 116.502 220.095 115.589 220.854 114.758C222.375 113.087 224.156 111.684 226.13 110.602C228.109 109.543 230.19 108.702 232.345 108.088C233.645 107.706 234.974 107.415 236.319 107.223C236.914 107.138 237.507 107.067 238.101 106.965C238.339 106.92 238.58 106.881 238.809 106.85L238.478 106.987C237.973 107.198 237.486 107.444 237.014 107.72L237.015 107.715L237.02 107.716Z" fill="#9DBF9E"/>
<path d="M238.779 124.246C238.299 123.985 237.766 123.846 237.221 123.842L235.321 123.677C233.923 123.545 232.519 123.545 231.118 123.677C228.569 123.948 226.084 124.619 223.747 125.666C221.291 126.772 219.068 128.331 216.569 129.344C215.403 129.818 214.182 130.126 213.044 130.669C212.005 131.143 211.033 131.754 210.151 132.489C209.288 133.234 208.52 134.083 207.87 135.021C207.4 135.69 206.721 136.718 207.142 137.555C207.131 137.605 207.136 137.659 207.152 137.71C207.167 137.761 207.195 137.804 207.236 137.839C207.276 137.874 207.323 137.9 207.374 137.911C207.425 137.922 207.479 137.917 207.53 137.902C208.672 137.391 209.874 137.021 211.106 136.81C212.269 136.749 213.433 136.763 214.597 136.845C216.803 136.915 219.001 136.576 221.076 135.839C225.403 134.206 228.647 130.707 232.383 128.111C233.482 127.353 234.634 126.67 235.827 126.069C236.336 125.817 236.869 125.601 237.413 125.436C237.902 125.306 238.356 125.09 238.767 124.8C238.815 124.773 238.857 124.729 238.888 124.683C238.914 124.635 238.932 124.575 238.932 124.523C238.933 124.47 238.919 124.409 238.887 124.359C238.871 124.313 238.831 124.273 238.779 124.246ZM235.905 125.323C234.828 125.852 233.785 126.447 232.783 127.099C230.882 128.339 229.146 129.826 227.365 131.23C225.578 132.632 223.657 134.064 221.537 134.988C219.51 135.825 217.333 136.243 215.134 136.212C213.838 136.223 212.54 136.049 211.243 136.166C210.019 136.336 208.823 136.676 207.694 137.179C207.479 136.539 208.259 135.586 208.586 135.147C209.153 134.371 209.803 133.655 210.521 133.018C211.386 132.29 212.342 131.681 213.373 131.216C214.441 130.732 215.574 130.437 216.663 130C218.964 129.099 221.033 127.693 223.25 126.61C225.446 125.528 227.797 124.791 230.221 124.43C231.645 124.218 233.089 124.158 234.528 124.246C235.26 124.29 235.985 124.375 236.71 124.428C237.121 124.441 237.53 124.485 237.936 124.571C237.292 124.885 236.539 125.012 235.905 125.323Z" fill="#9DBF9E"/>
<path d="M204.854 136.046C204.944 134.496 204.907 132.946 204.747 131.401C204.667 130.054 204.478 128.72 204.19 127.403C203.579 124.936 202.406 122.641 200.761 120.697C198.893 118.483 196.576 116.788 194.345 114.985C191.972 113.024 189.753 110.889 187.706 108.594C186.857 107.55 185.833 106.655 184.682 105.955C184.168 105.682 183.049 104.983 182.532 105.573C182.014 106.163 182.945 107.272 183.271 107.76C183.964 108.893 184.495 110.113 184.838 111.395C185.632 114.028 186.02 116.845 187.321 119.284C187.953 120.457 188.866 121.451 189.983 122.181C191.248 123.016 192.641 123.619 193.881 124.497C194.976 125.185 195.807 126.214 196.246 127.42C196.663 128.728 196.734 130.143 197.35 131.386C197.904 132.527 198.912 133.069 200.07 133.458C200.663 133.637 201.243 133.85 201.806 134.096C202.373 134.37 203.054 134.684 203.367 135.259C203.601 135.68 203.769 136.14 204.255 136.322C204.314 136.345 204.381 136.354 204.441 136.346C204.506 136.338 204.564 136.314 204.619 136.278C204.679 136.274 204.732 136.248 204.778 136.205C204.82 136.156 204.847 136.103 204.854 136.046ZM203.715 134.644C203.309 134.208 202.82 133.866 202.27 133.633C201.25 133.12 200.079 132.94 199.099 132.388C197.905 131.721 197.565 130.372 197.304 129.129C197.038 127.885 196.814 126.64 196.028 125.62C194.39 123.47 191.624 122.767 189.588 121.122C187.552 119.471 186.852 116.646 186.231 114.203C185.614 111.761 185.067 109.291 183.677 107.221C183.437 106.852 183.227 106.468 183.036 106.067C183.035 106.051 183.039 106.031 183.048 106.011L183.16 106.035C183.379 106.076 183.592 106.148 183.793 106.249C184.767 106.704 185.646 107.336 186.381 108.117C188.398 110.204 190.311 112.385 192.507 114.303C194.573 116.109 196.856 117.664 198.83 119.582C200.694 121.34 202.135 123.495 203.043 125.888C203.948 128.37 204.143 131.051 204.246 133.665C204.259 134.076 204.264 134.479 204.262 134.887C204.204 134.912 204.153 134.954 204.121 135.006C204.087 135.062 204.074 135.123 204.077 135.187C204.067 135.233 204.077 135.288 204.083 135.332C203.98 135.093 203.854 134.864 203.715 134.644Z" fill="#9DBF9E"/>
<path d="M38.7084 162.979C40.7609 165.967 42.6462 169.061 44.8279 171.957C46.6675 174.375 48.8644 176.495 51.3578 178.236C54.0337 180.061 56.8463 181.687 59.7578 183.101C62.9126 184.69 66.1358 186.135 69.3969 187.503C72.2932 188.727 75.5392 190.08 78.7472 189.943C79.6518 189.905 79.667 191.311 78.7472 191.349C75.8053 191.471 72.8102 190.399 70.1115 189.312C66.8427 187.982 63.612 186.553 60.4496 185.009C54.657 182.182 48.7732 178.981 44.5998 173.926C41.9392 170.726 39.8411 167.115 37.4997 163.694C36.998 162.964 38.2067 162.265 38.7084 162.979Z" fill="#445656"/>
<path d="M0.0608145 121.474C1.00344 123.123 2.77466 124.195 4.09738 125.51C5.61774 127.03 7.00127 128.695 8.20996 130.474C10.2929 133.69 12.1477 137.05 13.7669 140.524C15.3557 143.724 16.8532 147.023 19.0577 149.874C20.008 151.128 21.095 152.268 22.3037 153.28C23.6872 154.313 25.1544 155.226 26.69 156.009C28.3776 156.974 30.05 157.955 31.7604 158.867C33.3263 159.597 34.7403 160.608 35.9338 161.862C36.3215 162.326 36.9752 161.657 36.5951 161.201L36.4735 161.071C35.4396 159.597 35.5841 157.605 35.2724 155.902C34.8619 153.85 34.1169 151.873 33.0679 150.064C32.0644 148.346 30.9622 146.689 29.7611 145.108C28.4992 143.359 27.2753 141.58 26.059 139.794C23.9229 136.647 21.9008 133.538 19.0121 131.014C16.2375 128.604 13.0295 126.848 9.88996 124.97C8.14154 123.921 6.36272 122.979 4.54588 122.013C3.30679 121.352 1.82443 120.31 0.349683 120.774C0.281267 120.789 0.212851 120.827 0.152036 120.873C0.0988236 120.919 0.0532127 120.979 0.0228054 121.048C0.00760181 121.116 0 121.185 0 121.261C0.00760181 121.337 0.0304072 121.405 0.0608145 121.474Z" fill="#445656"/>
<path d="M1.47476 162.28C2.18933 163.025 3.42082 163.162 4.37865 163.42C5.823 163.869 7.22933 164.424 8.58245 165.093C11.2127 166.263 13.8049 167.525 16.4883 168.582C19.2326 169.654 22.0681 170.46 24.972 170.992C27.9291 171.547 30.9166 171.889 33.9041 172.284C35.0672 172.436 36.2454 172.58 37.4161 172.801C38.5412 172.945 39.6131 173.341 40.5633 173.941C40.6089 173.979 40.6697 174.002 40.7305 174.017C40.7913 174.025 40.8521 174.025 40.913 174.01C40.9738 173.994 41.027 173.964 41.0726 173.926C41.1182 173.888 41.1562 173.835 41.179 173.782C41.2322 173.751 41.2778 173.713 41.3083 173.668C41.3463 173.622 41.3691 173.569 41.3843 173.516C41.3995 173.462 41.3995 173.401 41.3919 173.341C41.3843 173.28 41.3615 173.227 41.3311 173.181C40.7533 172.109 39.6207 171.433 38.602 170.824C37.3629 170.087 36.177 169.274 34.9227 168.567C32.3685 167.107 29.6851 165.914 27.0701 164.553C24.455 163.192 21.9084 161.87 19.111 161.178C16.1691 160.448 13.1435 160.676 10.1636 160.95C8.66607 161.079 7.16852 161.254 5.66336 161.337C4.37105 161.406 2.92671 161.102 1.68761 161.512C1.61159 161.535 1.53557 161.581 1.48236 161.634C1.42155 161.695 1.38354 161.763 1.36073 161.847C1.33793 161.923 1.33793 162.006 1.36073 162.09C1.37594 162.151 1.41394 162.227 1.47476 162.28Z" fill="#445656"/>
<path d="M13.478 184.264C13.4324 184.318 13.3944 184.379 13.3716 184.447C13.3488 184.515 13.3412 184.584 13.3564 184.652C13.364 184.721 13.3944 184.789 13.4324 184.842C13.4704 184.903 13.5236 184.949 13.5844 184.987C15.4545 186.287 17.9403 186.689 20.1448 187.115C25.3825 188.141 30.7721 188.674 35.8806 186.644C38.0927 185.77 40.1832 184.607 42.4333 183.808C43.5964 183.443 44.7823 183.139 45.9758 182.889C47.1464 182.493 48.3855 182.311 49.6246 182.349C50.2252 182.417 50.2252 181.505 49.6246 181.429H49.3966L49.3434 181.376C46.812 180.045 44.0373 179.202 41.179 178.89C38.64 178.586 36.0706 178.601 33.5392 178.936C30.6809 179.316 27.9823 180.236 25.2304 181.057C23.9381 181.459 22.6154 181.771 21.2775 181.999C20.3957 182.136 19.4987 182.204 18.6168 182.318C16.8684 182.554 14.6335 182.835 13.478 184.264Z" fill="#445656"/>
<path d="M49.1533 152.899C50.0883 148.87 50.3088 144.697 49.7995 140.592C49.3738 136.449 48.5072 132.367 47.747 128.285C47.1008 124.735 46.7816 120.987 45.1928 117.665C44.9115 117.064 44.3642 115.81 43.5052 116.008C42.859 116.145 42.6994 116.973 42.5854 117.505C42.3041 119.208 42.2205 120.941 42.3421 122.667C42.5093 126.468 43.0263 130.261 43.2391 134.062C43.566 138.243 43.3835 142.447 42.6918 146.575C42.3041 148.65 41.5895 150.657 41.179 152.725C40.7685 154.686 40.6317 156.7 40.7761 158.7C40.8902 160.136 41.1258 161.588 41.3767 163.002C41.5743 164.15 41.8328 165.655 42.7374 166.446C42.783 166.491 42.8438 166.522 42.897 166.537C42.9578 166.56 43.0187 166.56 43.0795 166.56C43.1479 166.621 43.2315 166.666 43.3151 166.681C43.4063 166.697 43.4976 166.689 43.5812 166.659C43.6648 166.628 43.7408 166.567 43.794 166.499C43.8473 166.423 43.8853 166.339 43.8929 166.248C43.9993 165.404 44.2349 164.576 44.6074 163.816C46.1658 160.197 48.1651 156.769 49.1533 152.899Z" fill="#445656"/>
<path d="M60.4952 165.275C61.4302 161.246 61.6507 157.073 61.1414 152.968C60.7157 148.825 59.8491 144.743 59.0889 140.66C58.4427 137.11 58.1234 133.363 56.5347 130.041C56.2534 129.44 55.7061 128.186 54.8471 128.384C54.2009 128.52 54.0413 129.349 53.9272 129.881C53.646 131.584 53.5624 133.317 53.684 135.043C53.8512 138.844 54.3682 142.637 54.581 146.438C54.9079 150.619 54.7254 154.823 54.0337 158.95C53.646 161.026 52.9314 163.033 52.5209 165.1C52.1104 167.062 51.9736 169.076 52.118 171.075C52.232 172.512 52.4677 173.964 52.7186 175.378C52.9162 176.526 53.1747 178.031 54.0793 178.822C54.1249 178.867 54.1857 178.898 54.2389 178.913C54.2997 178.936 54.3605 178.936 54.4214 178.936C54.4898 178.996 54.5734 179.042 54.657 179.057C54.7482 179.072 54.8395 179.065 54.9231 179.034C55.0067 179.004 55.0827 178.943 55.1359 178.875C55.1891 178.799 55.2272 178.715 55.2348 178.624C55.3412 177.78 55.5768 176.952 55.9493 176.191C57.5077 172.573 59.5146 169.144 60.4952 165.275Z" fill="#445656"/>
<path d="M24.8351 200.259C24.7819 200.312 24.7439 200.373 24.7211 200.434C24.6983 200.502 24.6907 200.57 24.6983 200.646C24.7059 200.715 24.7363 200.783 24.7743 200.844C24.8123 200.905 24.8655 200.95 24.9263 200.988C25.5345 201.384 26.2186 201.665 26.9408 201.802C27.7238 202 28.484 202.243 29.2518 202.501C30.8025 203.094 32.4597 203.391 34.1245 203.375C36.8384 203.246 39.1341 201.87 41.3919 200.502C43.9385 198.959 46.6827 197.773 49.2217 196.237C51.7607 194.702 53.7904 192.36 56.3978 190.832C57.4621 190.278 58.5872 189.829 59.7502 189.51C60.8373 189.244 61.8331 188.696 62.6389 187.936C62.6921 187.875 62.7302 187.799 62.7454 187.723C62.7606 187.647 62.753 187.564 62.7301 187.488C62.7606 187.374 62.7454 187.244 62.6921 187.138C62.6389 187.032 62.5477 186.948 62.4337 186.895C59.7502 185.823 56.8083 185.906 54.0261 186.37C51.4263 186.842 48.872 187.548 46.3939 188.484C43.8701 189.388 41.3463 190.361 38.8909 191.425C36.2986 192.512 33.8433 193.911 31.6007 195.591C30.4148 196.496 29.3278 197.545 28.1419 198.442C27.587 198.875 26.9712 199.225 26.3175 199.483C25.7701 199.643 25.276 199.917 24.8351 200.259Z" fill="#445656"/>
<path d="M60.8905 117.148C59.1041 112.192 56.1622 107.425 56.071 102.013C56.071 101.823 56.147 101.648 56.2762 101.511C56.4055 101.382 56.5879 101.306 56.7703 101.306C56.9604 101.306 57.1352 101.382 57.2645 101.511C57.3937 101.64 57.4697 101.823 57.4697 102.013C57.5457 106.764 60.0011 111.112 61.7191 115.415C63.5588 120.09 64.5622 125.046 64.699 130.071C64.8663 135.218 62.9582 140.197 63.3763 145.351C63.7944 150.33 65.8697 155.066 68.2643 159.384C69.587 161.824 71.0389 164.234 72.6201 166.529C73.2891 167.548 74.0721 168.483 74.9691 169.312C75.7217 169.981 76.5579 170.756 76.7555 171.798C76.9152 172.687 75.562 173.059 75.4328 172.17C75.3036 171.281 74.3989 170.665 73.7604 170.095C73.0078 169.373 72.3389 168.559 71.7687 167.685C70.3168 165.617 69.0245 163.451 67.793 161.269C65.3224 156.982 63.1483 152.344 62.3197 147.426C61.932 144.956 61.9092 142.432 62.2589 139.954C62.5933 137.392 63.1559 134.86 63.3231 132.283C63.4523 129.691 63.2927 127.099 62.8518 124.545C62.4261 122.021 61.7723 119.543 60.8905 117.148Z" fill="#9DBF9E"/>
<path d="M47.4277 67.8504C47.8534 66.1399 48.2943 64.4371 48.7884 62.7495C49.3814 60.9099 49.769 59.0094 49.9363 57.0786C49.9363 56.7213 50.4836 56.4096 50.7573 56.7441C52.4829 59.0931 53.988 61.5865 55.2423 64.2091C56.6107 66.7937 57.7129 69.5075 58.5415 72.305C59.3549 75.0797 59.849 77.9304 60.0315 80.8038C60.1683 83.8826 60.0011 86.9765 59.5298 90.0248C59.2865 91.7809 58.99 93.5293 58.6328 95.2701C58.4579 96.0911 58.2603 96.9121 58.1082 97.7407C57.9866 98.6073 57.789 99.4663 57.5381 100.302C57.4849 100.409 57.3937 100.5 57.2872 100.553C57.1808 100.607 57.0592 100.637 56.9376 100.622C56.8159 100.607 56.7019 100.561 56.6107 100.485C56.5195 100.409 56.451 100.302 56.4206 100.188C56.3826 98.7137 55.554 97.581 54.6798 96.456C53.7828 95.3537 53.053 94.1298 52.5209 92.8223C51.9812 91.4236 51.7379 89.9412 51.259 88.5197C50.7345 87.1666 50.0199 85.8894 49.1381 84.7188C48.2943 83.5861 47.5721 82.385 46.9716 81.1155C46.4242 79.7852 46.1202 78.3637 46.0898 76.9193C45.9529 73.8254 46.6827 70.7771 47.4277 67.8504ZM47.6329 80.2565C48.1879 81.5944 48.91 82.8639 49.7842 84.0194C50.6356 85.1597 51.3578 86.3836 51.9432 87.6759C52.4981 89.0138 52.7338 90.4962 53.1899 91.8797C53.7372 93.4228 54.5506 94.852 55.5996 96.1215C56.1926 96.8285 56.6715 97.6267 57.0212 98.4705C57.2112 97.5506 57.3557 96.608 57.5533 95.6958C57.8802 94.221 58.1614 92.7387 58.3895 91.2487C58.9064 88.246 59.1497 85.2053 59.1269 82.1646C58.9444 76.4556 57.5153 70.8531 54.9459 65.7294C54.2693 64.3155 53.4635 62.932 52.6957 61.5408C52.0952 60.4614 51.4795 59.3743 50.7725 58.3557C50.4 61.176 49.4118 63.8822 48.7352 66.6417C47.9902 69.6672 47.1236 72.7155 47.0324 75.8475C46.9716 77.3298 47.1692 78.8122 47.6405 80.2185V80.2565H47.6329Z" fill="#9DBF9E"/>
<path d="M63.7792 112.921C64.0985 111.203 64.3493 109.47 64.6914 107.752C65.3908 103.906 66.7819 100.219 68.7888 96.8589C69.7086 95.3309 70.8793 93.9702 72.2476 92.8223C73.7832 91.682 75.4404 90.7014 77.1964 89.9184C80.7008 88.1548 83.9544 85.9275 87.5121 84.2399C89.4733 83.244 91.579 82.5599 93.7531 82.2026C94.8706 82.0657 95.9881 81.9973 97.1131 81.9897C98.0026 81.9061 98.9072 81.9973 99.7586 82.2634C100.009 82.3622 100.253 82.6815 100.04 82.9247C99.5609 83.5481 99.0136 84.1106 98.4739 84.696C97.8429 85.4029 97.2728 86.1631 96.7635 86.9613C95.8132 88.3828 94.9162 89.8424 93.9508 91.2487C92.1187 93.9094 90.3703 96.646 88.3559 99.2002C86.3338 101.838 83.924 104.164 81.2102 106.095C79.8114 107.015 78.3443 107.813 76.8087 108.482C75.2503 109.227 73.7528 110.094 72.3388 111.074C70.6892 112.215 68.9788 113.241 67.2988 114.335C66.5615 114.776 65.9685 115.422 65.596 116.19C65.3832 116.783 65.0107 117.315 64.5242 117.718C64.4786 117.802 64.4101 117.87 64.3265 117.916C64.2429 117.961 64.1517 117.984 64.0529 117.977C63.9616 117.969 63.8704 117.931 63.7944 117.878C63.7184 117.817 63.6652 117.741 63.6348 117.65C63.1863 116.114 63.4979 114.449 63.7792 112.921ZM64.9347 115.415C65.2692 114.822 65.7253 114.313 66.2802 113.917C67.6257 112.883 69.1917 112.062 70.6132 111.12C72.0348 110.094 73.5171 109.151 75.0451 108.292C76.5426 107.524 78.1162 106.908 79.5682 106.034C85.3075 102.598 88.9792 97.0261 92.6205 91.644C93.6923 90.0704 94.7338 88.4741 95.7752 86.8777C96.2465 86.1175 96.7635 85.3801 97.3108 84.6732C97.8049 84.0802 98.3598 83.5481 98.8616 82.978C98.3294 82.9095 97.7897 82.8943 97.25 82.9247C96.353 82.9247 95.4483 82.9628 94.5589 83.054C92.5901 83.282 90.6744 83.8218 88.888 84.658C85.4824 86.1631 82.3808 88.246 79.1121 89.9792C77.4777 90.861 75.7521 91.606 74.1937 92.5942C72.6809 93.5597 71.3734 94.8064 70.3472 96.2659C68.2719 99.3219 66.7971 102.743 66.0065 106.346C65.5504 108.246 65.3376 110.185 64.9347 112.1C64.547 113.53 64.3797 115.004 64.433 116.479C64.6154 116.167 64.7446 115.772 64.9347 115.415Z" fill="#9DBF9E"/>
<path d="M23.2235 83.9586C24.8351 83.9586 26.3251 84.8176 27.8226 85.3345C29.5102 85.8971 31.1598 86.5736 32.7638 87.349C35.8121 88.8238 38.6932 90.6254 41.3614 92.7159C44.0601 94.8064 46.4014 97.3302 48.2715 100.204C49.1913 101.678 50.0351 103.199 50.7953 104.757C51.5327 106.232 52.4829 107.593 53.6156 108.786C54.7634 110.002 55.9645 111.158 57.044 112.45C58.017 113.606 59.0813 114.928 59.3929 116.479C59.4157 116.586 59.4082 116.7 59.3549 116.791C59.3093 116.89 59.2257 116.966 59.1269 117.004C59.0965 117.08 59.0509 117.141 58.9901 117.194C58.9292 117.247 58.8608 117.285 58.7848 117.3C58.7088 117.315 58.6328 117.323 58.5567 117.3C58.4807 117.285 58.4123 117.247 58.3515 117.194C57.2416 116.213 55.5844 116.205 54.2997 115.537C53.646 115.126 52.9618 114.769 52.2548 114.457C51.3578 114.145 50.4076 113.978 49.4878 113.727C46.4775 112.838 43.6952 111.295 41.3386 109.197C38.9517 107.106 36.9676 104.582 35.4852 101.754C33.8889 98.7517 32.7258 95.5209 30.8937 92.6475C29.8219 91.0131 28.5448 89.5231 27.0928 88.2232C26.4011 87.5695 25.6561 86.9613 24.8731 86.4216C24.1509 85.9807 23.482 85.4486 22.889 84.8404C22.8054 84.7796 22.737 84.6884 22.7066 84.5895C22.6762 84.4907 22.6762 84.3767 22.7142 84.2779C22.7522 84.1791 22.8206 84.0878 22.9118 84.0346C23.0107 83.9738 23.1171 83.951 23.2235 83.9586ZM27.2373 87.0145C28.5144 88.132 29.6851 89.3635 30.7341 90.7014C32.8018 93.4229 34.0409 96.6308 35.5385 99.6943C36.922 102.674 38.8224 105.373 41.1486 107.669C43.4367 109.904 46.1962 111.584 49.2141 112.587C50.248 112.906 51.3046 113.089 52.3309 113.408C53.1062 113.697 53.8512 114.062 54.5506 114.51C55.7289 115.179 57.1276 115.308 58.2983 115.955C57.827 114.89 57.1808 113.917 56.3902 113.066C55.4704 111.979 54.4822 110.968 53.4939 109.949C52.3917 108.893 51.4262 107.691 50.6205 106.384C49.7919 104.962 49.1153 103.45 48.2791 102.028C46.6067 99.1698 44.4782 96.6156 41.9772 94.4643C39.461 92.3434 36.7319 90.5038 33.828 88.9682C32.0796 88.0256 30.2628 87.2046 28.3928 86.5204C27.5642 86.2163 26.7356 85.9351 25.9146 85.6082C25.5877 85.4714 25.2532 85.3421 24.9339 85.2281L25.3672 85.5246C26.0286 85.9807 26.6519 86.4824 27.2449 87.0221V87.0145H27.2373Z" fill="#9DBF9E"/>
<path d="M19.6887 110.185C20.4565 109.957 21.2623 109.919 22.0453 110.078L24.8199 110.42C26.8648 110.656 28.8793 111.082 30.8482 111.698C34.421 112.861 37.781 114.579 40.8141 116.791C43.9993 119.125 46.7131 122.036 49.9895 124.248C51.5175 125.282 53.1747 126.095 54.6418 127.22C55.9873 128.216 57.196 129.387 58.2375 130.71C59.2485 132.04 60.0923 133.492 60.7385 135.035C61.2098 136.137 61.8711 137.817 61.0121 138.889C61.0121 138.965 60.9893 139.041 60.9513 139.11C60.9133 139.178 60.8601 139.231 60.7917 139.269C60.7233 139.307 60.6473 139.33 60.5712 139.33C60.4952 139.33 60.4192 139.307 60.3508 139.269C58.8684 138.19 57.2568 137.293 55.554 136.616C53.9044 136.175 52.2321 135.841 50.5368 135.605C47.3517 135.035 44.3034 133.88 41.5515 132.192C35.8425 128.536 32.2545 122.53 27.6858 117.673C26.3403 116.251 24.8959 114.921 23.368 113.697C22.7142 113.18 22.0148 112.709 21.2851 112.306C20.6237 111.971 20.0384 111.523 19.5367 110.983C19.4758 110.93 19.4302 110.854 19.3998 110.778C19.377 110.702 19.3694 110.611 19.3846 110.535C19.3998 110.458 19.4378 110.375 19.4986 110.314C19.5367 110.253 19.6051 110.208 19.6887 110.185ZM23.482 112.602C24.8655 113.689 26.1806 114.86 27.4197 116.099C29.7687 118.456 31.806 121.116 33.9345 123.67C36.0706 126.225 38.3891 128.862 41.1486 130.831C43.8016 132.648 46.7968 133.91 49.9591 134.533C51.814 134.944 53.7296 135.088 55.554 135.651C57.2568 136.267 58.8684 137.118 60.3356 138.182C60.8373 137.331 60.0087 135.727 59.6742 134.997C59.0965 133.712 58.3819 132.489 57.5457 131.356C56.5271 130.048 55.3412 128.885 54.0033 127.905C52.6197 126.886 51.0842 126.118 49.655 125.16C46.6295 123.169 44.0905 120.523 41.2398 118.296C38.4196 116.076 35.2724 114.305 31.9048 113.051C29.9283 112.313 27.8758 111.789 25.7853 111.477C24.7211 111.318 23.6568 111.219 22.6002 111.074C22.0072 110.968 21.4067 110.907 20.7986 110.907C21.6272 111.553 22.6686 111.964 23.482 112.602Z" fill="#9DBF9E"/>
<path d="M64.7522 137.422C65.0943 135.172 65.6188 132.96 66.3182 130.793C66.8427 128.885 67.5193 127.03 68.3327 125.229C69.9595 121.876 72.3388 118.942 75.2883 116.654C78.6407 114.047 82.4797 112.321 86.2274 110.413C90.2259 108.322 94.0572 105.935 97.6909 103.267C99.2265 102.028 100.967 101.055 102.83 100.401C103.651 100.166 105.468 99.5043 106.03 100.508C106.593 101.511 104.92 102.819 104.304 103.419C102.967 104.833 101.834 106.422 100.952 108.155C99.0136 111.69 97.5997 115.613 94.9922 118.714C93.7303 120.204 92.1188 121.352 90.2943 122.059C88.2266 122.872 86.0449 123.313 84 124.195C82.2212 124.849 80.716 126.073 79.7202 127.669C78.7244 129.417 78.1922 131.424 76.9303 133.021C75.7901 134.488 74.1785 134.959 72.3997 135.164C71.495 135.24 70.598 135.37 69.7162 135.552C68.8192 135.773 67.7474 136.016 67.124 136.746C66.6603 137.278 66.2802 137.886 65.5276 138C65.4364 138.015 65.3376 138.007 65.254 137.977C65.1627 137.947 65.0867 137.893 65.0183 137.825C64.9347 137.802 64.8663 137.749 64.813 137.673C64.7674 137.589 64.7446 137.506 64.7522 137.422ZM66.8123 135.757C67.5269 135.256 68.3327 134.914 69.1917 134.746C70.8109 134.321 72.5441 134.419 74.1177 133.925C76.0333 133.332 76.9303 131.5 77.6829 129.797C78.4431 128.095 79.1425 126.377 80.5792 125.153C83.5819 122.568 87.7629 122.401 91.1837 120.66C94.6046 118.912 96.467 115.073 98.1014 111.758C99.7282 108.444 101.264 105.069 103.886 102.522C104.342 102.066 104.761 101.58 105.156 101.063C105.163 101.04 105.163 101.009 105.156 100.979H104.989C104.662 100.971 104.335 101.009 104.016 101.093C102.48 101.45 101.028 102.089 99.7358 102.986C96.2085 105.365 92.8029 107.912 89.0704 109.995C85.5584 111.956 81.8107 113.492 78.3975 115.643C75.1895 117.597 72.4681 120.25 70.4384 123.404C68.3859 126.688 67.2912 130.474 66.3486 134.191C66.2042 134.777 66.075 135.354 65.9533 135.94C66.0293 135.993 66.0902 136.069 66.1206 136.153C66.151 136.244 66.151 136.335 66.1282 136.426C66.1282 136.495 66.0978 136.571 66.0749 136.632C66.2954 136.32 66.5463 136.031 66.8123 135.757Z" fill="#9DBF9E"/>
<path d="M170.96 77.1674L112.175 65.2677L90.4196 172.742L149.204 184.641L170.96 77.1674Z" fill="#CDA9A0"/>
<path d="M143.621 119.923C143.621 119.923 132.386 128.992 130.12 128.429C128.501 128.026 123.393 111.546 123.393 111.546L109.664 122.386V171.661L138.627 147.228L144.526 128.148L143.621 119.923Z" fill="#312517"/>
<path d="M119.402 90.5189C119.402 90.5189 146.373 102.355 166.655 74.1522L164.389 43.1673L154.819 18.0509L120.337 18.4614L108.09 53.939C108.075 53.939 112.917 90.002 119.402 90.5189Z" fill="#CDA9A0"/>
<path fill-rule="evenodd" clip-rule="evenodd" d="M154.904 17.9248L164.513 43.1399L166.783 74.1884L166.756 74.2252C156.592 88.3594 144.743 92.4679 135.43 93.0364C130.776 93.3204 126.759 92.7204 123.904 92.0493C122.477 91.7138 121.34 91.3604 120.559 91.0906C120.169 90.9557 119.868 90.8417 119.664 90.7613C119.562 90.7211 119.484 90.6892 119.432 90.6674C119.405 90.6565 119.386 90.6481 119.372 90.6423L119.371 90.6418C118.511 90.5638 117.704 89.9069 116.952 88.8722C116.19 87.8243 115.465 86.3621 114.78 84.6312C113.411 81.1683 112.197 76.6043 111.187 72.0623C110.176 67.519 109.369 62.9924 108.816 59.6021C108.539 57.9068 108.326 56.4953 108.182 55.5076C108.11 55.0137 108.056 54.6258 108.02 54.3611C108.002 54.2288 107.988 54.1273 107.979 54.0587L107.969 53.9804L107.966 53.959L107.966 53.9507L107.965 53.9428C107.965 53.9399 107.972 53.9235 107.986 53.9029L107.972 53.8982L120.247 18.3374L154.904 17.9248ZM119.402 90.5189C119.452 90.4045 119.452 90.4045 119.452 90.4046L119.456 90.4064L119.471 90.4125C119.483 90.4179 119.502 90.426 119.528 90.4367C119.579 90.4579 119.655 90.4891 119.755 90.5287C119.956 90.6079 120.254 90.7206 120.641 90.8543C121.415 91.1216 122.543 91.4726 123.961 91.806C126.798 92.4728 130.791 93.0691 135.415 92.7868C144.65 92.2231 156.415 88.1549 166.527 74.1161L164.266 43.1946L154.733 18.1769L120.426 18.5853L108.218 53.9533L108.227 54.0263C108.236 54.0942 108.249 54.1952 108.267 54.3272C108.303 54.5911 108.358 54.9784 108.43 55.4716C108.573 56.4581 108.786 57.8681 109.063 59.5618C109.616 62.9494 110.422 67.4709 111.431 72.008C112.44 76.5463 113.651 81.095 115.013 84.5393C115.694 86.262 116.41 87.702 117.154 88.7252C117.902 89.7533 118.658 90.3343 119.412 90.3943L119.433 90.396L119.452 90.4046L119.402 90.5189Z" fill="#604642"/>
<path d="M118.117 36.9642L126.411 39.3511C126.867 39.4804 127.361 39.3131 127.634 38.9254L128.303 37.9828L128.463 39.5336C128.509 40.0049 128.851 40.3926 129.314 40.5066L136.072 42.1486C136.544 42.2626 137.03 42.3311 137.517 42.3539L139.63 42.4527C140.086 42.4755 140.535 42.3843 140.945 42.1866L143.994 40.7043L144.647 41.7229C145.065 42.3843 145.704 42.8784 146.441 43.1292L159.813 47.6751L162.869 34.638L160.125 26.1316L148.76 20.9168L130.059 19.1303L118.117 36.9642Z" fill="#5B2D22"/>
<path d="M136.939 48.2377C136.939 47.5231 137.456 46.9074 138.163 46.7933C141.721 46.2232 151.907 44.8245 154.028 47.2799L158.042 50.8831L154.347 49.4236C153.899 49.2487 153.389 49.1499 152.918 49.0359C152.424 48.9066 151.922 48.7926 151.42 48.7014C150.409 48.5113 149.368 48.4049 148.334 48.4581C147.612 48.4961 146.89 48.5646 146.168 48.6102C144.693 48.7014 143.226 48.8078 141.759 48.9446C140.58 49.0511 139.402 49.1651 138.231 49.3475C137.555 49.454 136.939 48.9294 136.939 48.2377Z" fill="#5B2D22"/>
<path d="M128.881 45.8127C128.942 45.4858 128.813 45.1589 128.531 44.9689C126.753 43.7374 120.215 39.3588 118.368 40.1113L117.676 42.3995C117.676 42.3995 119.098 42.2322 127.619 46.4132C128.144 46.6717 128.775 46.3676 128.881 45.8127Z" fill="#5B2D22"/>
<g opacity="0.5">
<path opacity="0.5" d="M129.39 49.6288C129.33 51.0732 129.132 52.5023 128.858 53.9238C128.714 54.6308 128.547 55.3378 128.326 56.0219C128.106 56.7061 127.847 57.3979 127.429 57.9908C127.779 57.3599 127.992 56.6681 128.182 55.9763C128.372 55.2846 128.539 54.5852 128.668 53.8782C128.813 53.1789 128.934 52.4643 129.048 51.7573L129.39 49.6288Z" fill="#604642"/>
</g>
<g opacity="0.5">
<path opacity="0.5" d="M124.86 62.5823C124.563 62.932 124.312 63.312 124.092 63.6997C123.879 64.095 123.697 64.5055 123.613 64.9464C123.522 65.3797 123.552 65.8282 123.697 66.2463C123.826 66.6796 124.122 67.0217 124.419 67.3714C124.077 67.0825 123.719 66.7481 123.56 66.2996C123.377 65.8663 123.347 65.3721 123.431 64.9084C123.643 63.9962 124.183 63.1904 124.86 62.5823Z" fill="#604642"/>
</g>
<path d="M121.773 74.9656C121.773 74.9656 121.88 75.3837 121.941 75.6346C123.225 80.4465 128.577 83.1604 133.647 81.7693C135.654 81.2143 138.079 80.0512 140.025 78.0444C132.773 78.9946 126.509 78.5157 121.773 74.9656Z" fill="#842D23"/>
<path d="M227.765 224.098C227.355 220.563 226.671 213.668 226.314 210.019C226.268 209.563 225.584 208.621 225.941 207.108C226.853 203.307 222.931 189.51 222.52 188.088C222.497 188.005 222.497 187.921 222.513 187.845C222.954 184.911 219.913 173.485 218.826 169.54C218.651 168.894 218.56 168.225 218.506 167.548C218.4 166.149 217.518 163.2 216.941 161.383C216.682 160.585 216.56 159.749 216.621 158.905C216.979 154.245 212.311 141.77 210.775 137.817C210.525 137.179 210.388 136.495 210.304 135.803C210 133.089 206.784 127.106 205.477 124.75C205.188 124.241 204.99 123.678 204.808 123.116C204.207 121.245 201.243 119.322 199.472 118.311C199.456 118.304 199.449 118.296 199.434 118.288C198.803 117.916 198.263 117.369 197.936 116.684C196.18 112.937 183.234 106.582 182.74 106.338C182.732 106.338 182.717 106.331 182.71 106.323L165.476 96.2887L162.679 94.6619C162.61 94.6163 162.534 94.5935 162.451 94.5935L159.577 94.5023L153.937 94.3275C153.747 94.3199 153.557 94.4339 153.465 94.6163C151.048 99.5803 149.277 104.955 147.513 110.322C144.518 119.429 141.531 128.498 135.403 135.423C133.541 137.529 131.382 139.437 128.843 141.086C128.836 141.094 128.828 141.101 128.813 141.109C121.675 145.541 117.912 153.196 111.526 159.239L111.503 159.262C111.047 159.756 110.454 160.539 109.975 161.436C109.732 161.892 109.086 161.756 109.033 161.231C107.718 148.574 107.452 135.59 108.881 122.963C109.633 113.689 111.511 104.415 116.407 95.5438C116.673 94.9736 116.794 94.3427 116.84 93.7041C116.863 93.4 116.642 93.134 116.353 93.1264L108.896 92.8831C108.812 92.8831 108.736 92.9059 108.66 92.9363L102.176 96.1899L95.7752 99.3979C83.6959 105.464 78.5875 112.465 77.9262 113.431C77.873 113.499 77.8045 113.552 77.7285 113.583C74.741 115.012 69.8074 137.924 69.663 138.578C69.663 138.585 69.6554 138.593 69.6554 138.6C67.5193 145.67 66.8199 159.665 66.7287 161.68C66.7211 161.816 66.6755 161.946 66.5843 162.037C65.0107 163.572 61.6583 182.873 61.7647 183.991C61.7799 184.105 61.7571 184.204 61.6963 184.295C60.4496 186.317 60.518 190.186 60.5636 191.144C60.5636 191.281 60.518 191.418 60.4268 191.524C57.6445 194.922 56.5955 230.217 56.6031 231.434C56.6031 231.525 56.5727 231.616 56.5271 231.7C54.6342 235.052 54.7102 244.524 54.7406 246.265C54.7406 246.44 54.657 246.592 54.5278 246.698C51.297 249.154 51.3578 253.958 51.411 254.939C51.411 255.037 51.3958 255.136 51.3502 255.22C50.7573 256.231 50.4912 260.222 50.4152 261.621C50.4 261.879 50.3772 262.13 50.3164 262.373C49.3662 266.265 54.2085 275.061 54.4822 275.547C54.4898 275.562 54.4974 275.577 54.4974 275.593C54.733 276.322 54.9839 276.953 55.2424 277.493C55.2424 277.501 55.2424 277.501 55.2424 277.501C57.1276 281.454 59.469 280.663 60.556 279.994C60.6701 279.926 60.7917 279.903 60.9133 279.941C61.0958 279.979 61.2554 280.139 61.301 280.359L61.8711 283.445C69.9215 288.843 78.5495 293.252 87.6565 296.543C94.0648 298.854 100.716 300.61 107.581 301.758C115.89 303.149 124.16 303.583 132.317 303.142C134.605 303.012 136.886 302.815 139.151 302.556C141.082 302.336 142.998 302.062 144.906 301.735C146.122 301.538 147.331 301.31 148.532 301.066C149.855 300.808 151.17 300.519 152.477 300.207C152.812 299.994 153.146 299.804 153.458 299.637C154.279 299.12 155.115 298.755 155.959 298.482C158.179 297.76 160.459 297.691 162.709 297.288C164.26 297.007 165.796 296.574 167.285 295.661C167.316 295.639 167.339 295.623 167.369 295.608C167.787 295.373 168.243 295.107 168.73 294.81C169.125 294.582 169.536 294.331 169.977 294.065C177.244 289.641 189.612 281.317 190.137 280.693C190.813 279.872 191.923 279.067 192.546 278.649C192.873 278.428 193.177 278.17 193.443 277.881L209.992 259.948C210.699 259.18 211.247 258.268 211.596 257.265C211.756 256.801 212.037 256.421 212.387 256.147C212.744 255.866 213.17 255.699 213.626 255.653C216.796 255.349 225.721 239.682 226.192 238.146C226.276 237.88 226.374 237.629 226.511 237.394C228.488 233.912 227.765 224.098 227.765 224.098ZM183.736 220.472C183.766 220.556 183.774 220.632 183.751 220.715C183.751 220.715 183.751 220.715 183.751 220.723C183.751 220.746 183.751 220.761 183.743 220.784C183.523 221.415 182.71 223.923 182.74 226.036V226.128C182.763 226.766 182.854 227.359 183.067 227.853C183.097 227.929 183.15 227.99 183.211 228.036C183.477 228.241 184.2 228.887 184.146 229.868C184.146 229.868 184.146 229.875 184.146 229.883C184.139 230.043 184.108 230.202 184.047 230.377C183.918 230.788 183.88 231.107 183.895 231.35V231.358C183.895 231.396 183.903 231.434 183.903 231.464C183.911 231.525 183.911 231.578 183.903 231.631C183.903 231.639 183.903 231.639 183.903 231.639C183.865 231.897 183.667 232.095 183.409 232.095H181.28C181.068 232.095 180.878 232.24 180.801 232.452C180.718 232.718 180.611 233.091 180.551 233.403C180.497 233.676 180.247 233.866 179.988 233.828C179.38 233.737 178.422 233.585 177.867 233.501C177.632 233.463 177.472 233.273 177.434 233.03V232.954L177.487 230.476V230.461C177.487 230.347 177.457 230.233 177.396 230.134C177.099 229.67 176.18 227.99 176.104 224.942C176.096 224.851 176.096 224.744 176.096 224.645C176.096 223.931 176.126 223.148 176.233 222.296C176.24 222.289 176.24 222.274 176.24 222.266C176.354 221.817 178.863 211.639 178.863 211.433C178.863 211.335 178.916 210.308 178.969 209.305C178.969 209.267 178.969 209.221 178.985 209.191V209.176C179.076 208.834 179.448 208.697 179.714 208.864C179.798 208.91 179.874 208.986 179.92 209.084C180.847 211.038 182.2 214.01 182.367 215.113C182.39 215.249 182.451 215.371 182.55 215.455L183.629 216.352C183.751 216.458 183.911 216.496 184.063 216.451L184.123 216.435C184.283 216.397 184.435 216.435 184.549 216.527C184.671 216.625 184.754 216.777 184.754 216.96C184.754 217.127 184.678 217.279 184.564 217.386C184.222 217.69 183.538 218.457 183.591 219.628C183.591 219.887 183.645 220.168 183.736 220.472Z" fill="#C48F5A"/>
<path d="M183.766 107.927C183.766 107.927 183.705 109.843 183.424 111.181C183.204 112.253 183.287 113.37 183.645 114.411C184.549 117.026 185.91 121.519 185.401 123.549C185.18 124.423 185.059 125.32 185.142 126.217L186.016 135.947C186.13 137.217 185.317 138.388 184.093 138.737L179.904 139.908C179.502 140.022 179.22 140.394 179.22 140.813C179.22 141.033 179.023 141.193 178.81 141.155L176.012 140.622C175.29 140.486 174.538 140.577 173.869 140.881L162.861 145.883C162.61 145.997 162.36 146.103 162.101 146.202C161.113 146.59 158.255 147.761 157.19 148.802C156.696 149.281 156.118 149.669 155.449 149.874C147.756 152.215 108.235 162.691 107.034 169.547C107.034 169.547 111.268 160.646 144.936 130.482L166.67 101.298L183.766 107.927Z" fill="#BF7D47"/>
<path d="M112.666 122.652L113.465 145.799V163.109L107.976 168.171L108.463 156.495C108.295 155.758 108.242 154.237 107.816 153.614L100.085 139.9L112.666 122.652Z" fill="#BF7D47"/>
<path d="M98.337 287.376C99.8359 287.376 101.051 286.423 101.051 285.247C101.051 284.072 99.8359 283.119 98.337 283.119C96.8382 283.119 95.6232 284.072 95.6232 285.247C95.6232 286.423 96.8382 287.376 98.337 287.376Z" fill="#D4B78B"/>
<path fill-rule="evenodd" clip-rule="evenodd" d="M98.337 283.369C96.9163 283.369 95.8732 284.263 95.8732 285.247C95.8732 286.231 96.9163 287.126 98.337 287.126C99.7578 287.126 100.801 286.231 100.801 285.247C100.801 284.263 99.7578 283.369 98.337 283.369ZM95.3732 285.247C95.3732 283.88 96.7601 282.869 98.337 282.869C99.914 282.869 101.301 283.88 101.301 285.247C101.301 286.614 99.914 287.626 98.337 287.626C96.7601 287.626 95.3732 286.614 95.3732 285.247Z" fill="white"/>
<path d="M103.043 227.458C104.399 227.458 105.498 226.359 105.498 225.003C105.498 223.647 104.399 222.547 103.043 222.547C101.686 222.547 100.587 223.647 100.587 225.003C100.587 226.359 101.686 227.458 103.043 227.458Z" fill="#D4B78B"/>
<path fill-rule="evenodd" clip-rule="evenodd" d="M103.043 222.797C101.825 222.797 100.837 223.785 100.837 225.003C100.837 226.221 101.825 227.208 103.043 227.208C104.261 227.208 105.248 226.221 105.248 225.003C105.248 223.785 104.261 222.797 103.043 222.797ZM100.337 225.003C100.337 223.509 101.548 222.297 103.043 222.297C104.537 222.297 105.748 223.509 105.748 225.003C105.748 226.497 104.537 227.708 103.043 227.708C101.548 227.708 100.337 226.497 100.337 225.003Z" fill="white"/>
<path d="M114.552 170.391C115.908 170.391 117.007 169.292 117.007 167.936C117.007 166.58 115.908 165.48 114.552 165.48C113.196 165.48 112.096 166.58 112.096 167.936C112.096 169.292 113.196 170.391 114.552 170.391Z" fill="#D4B78B"/>
<path fill-rule="evenodd" clip-rule="evenodd" d="M114.552 165.73C113.334 165.73 112.346 166.718 112.346 167.936C112.346 169.154 113.334 170.141 114.552 170.141C115.77 170.141 116.757 169.154 116.757 167.936C116.757 166.718 115.77 165.73 114.552 165.73ZM111.846 167.936C111.846 166.442 113.058 165.23 114.552 165.23C116.046 165.23 117.257 166.442 117.257 167.936C117.257 169.43 116.046 170.641 114.552 170.641C113.058 170.641 111.846 169.43 111.846 167.936Z" fill="white"/>
<path d="M184.321 239.925C191.572 239.925 197.449 232.145 197.449 222.547C197.449 212.95 191.572 205.17 184.321 205.17C177.071 205.17 171.193 212.95 171.193 222.547C171.193 232.145 177.071 239.925 184.321 239.925Z" fill="#C48F5A"/>
<path d="M159.965 140.151C160.931 140.151 161.713 139.137 161.713 137.886C161.713 136.635 160.931 135.62 159.965 135.62C158.999 135.62 158.217 136.635 158.217 137.886C158.217 139.137 158.999 140.151 159.965 140.151Z" fill="#D4B78B"/>
<path fill-rule="evenodd" clip-rule="evenodd" d="M159.965 135.745C159.097 135.745 158.342 136.672 158.342 137.886C158.342 139.1 159.097 140.026 159.965 140.026C160.833 140.026 161.588 139.1 161.588 137.886C161.588 136.672 160.833 135.745 159.965 135.745ZM158.092 137.886C158.092 136.598 158.902 135.495 159.965 135.495C161.028 135.495 161.838 136.598 161.838 137.886C161.838 139.174 161.028 140.276 159.965 140.276C158.902 140.276 158.092 139.174 158.092 137.886Z" fill="white"/>
<path d="M155.951 298.482C155.107 298.755 154.271 299.12 153.45 299.637C153.139 299.805 152.804 299.995 152.47 300.207C151.162 300.519 149.847 300.808 148.524 301.066C147.323 301.31 146.114 301.538 144.898 301.735C143.727 300.185 142.374 298.147 141.546 296.118C140.694 294.042 140.9 291.686 142.002 289.732C143.667 286.798 146.806 280.367 148.327 271.473C148.327 271.473 150.523 272.78 149.771 275.73C149.011 278.687 154.849 294.742 154.849 294.742C154.849 294.742 155.541 296.574 155.951 298.482Z" fill="#666256"/>
<path d="M55.4096 276.756L55.554 272.818C55.6605 270.005 56.223 267.223 57.2492 264.608C58.8608 260.511 61.7039 255.159 65.8013 254.391L63.2243 263.346C63.2243 263.346 61.2326 269.587 61.5291 273.312C61.6203 274.414 61.3846 275.517 60.8525 276.49L60.7005 276.771C60.1911 277.706 60.404 278.869 61.2174 279.561L62.0156 280.23C62.0308 280.215 56.892 284.365 55.4096 276.756Z" fill="#666256"/>
<path d="M90.3551 296.543L90.1803 293.921C90.1195 293.046 90.0511 292.172 90.0511 291.298C90.0283 289.55 89.9522 287.794 89.9674 286.045L89.9979 280.792L90.1499 275.54C90.4236 268.538 90.7276 261.537 91.2446 254.559C91.7463 247.572 92.286 240.594 92.8789 233.616C93.5175 226.645 94.2169 219.674 94.9542 212.711V212.794C95.0151 209.054 95.7448 205.481 96.6038 201.962C97.4704 198.442 98.4739 194.968 99.5381 191.509C100.595 188.05 101.75 184.629 102.974 181.231C104.175 177.826 105.452 174.451 106.775 171.091C105.665 174.527 104.525 177.947 103.476 181.399C102.419 184.85 101.393 188.301 100.405 191.768C99.4317 195.234 98.5195 198.723 97.7593 202.228C97.0295 205.732 96.315 209.29 96.2922 212.771V212.825V212.855C95.608 219.818 94.9923 226.789 94.3841 233.752C93.7303 240.716 93.1298 247.686 92.5673 254.657C92.0503 261.636 91.4422 268.599 91.0241 275.585C90.6288 282.556 90.1879 289.542 90.3551 296.543Z" fill="white"/>
<path d="M169.475 201.977C169.11 201.445 168.927 200.814 168.768 200.198C168.601 199.575 168.494 198.944 168.395 198.313C168.22 197.043 168.129 195.758 168.068 194.481C167.962 191.92 168.053 189.35 168.243 186.796C168.479 184.242 168.806 181.695 169.422 179.194C169.733 177.947 170.106 176.716 170.638 175.538C170.912 174.96 171.216 174.382 171.611 173.873C172.006 173.371 172.478 172.892 173.101 172.687C172.493 172.923 172.052 173.417 171.687 173.926C171.322 174.443 171.048 175.028 170.805 175.606C170.319 176.777 169.984 178.016 169.703 179.255C169.148 181.741 168.821 184.28 168.616 186.819C168.395 189.358 168.312 191.912 168.357 194.466C168.38 195.743 168.441 197.02 168.578 198.282C168.646 198.913 168.722 199.552 168.851 200.175C168.981 200.798 169.133 201.429 169.475 201.977Z" fill="white"/>
<path d="M141.607 22.1178C141.607 22.1178 104.738 14.5312 106.327 61.6549C106.129 89.6827 106.129 79.8004 103.035 93.0503C101.591 109.843 79.9821 141.922 83 167.335L86 165L87.5 168.5L92.5369 159.923L112.75 126.438C115.297 122.219 118.497 118.448 122.131 115.118C126.015 111.561 129.892 103.868 126.73 92.541C126.73 92.541 122.564 91.7124 120.816 87.7291L119.022 84.4299C116.787 80.3097 115.084 75.9159 114.02 71.3548C113.792 70.3818 113.579 69.3783 113.396 68.3825C112.788 65.0377 112.841 61.6093 113.541 58.2873C115.061 51.0351 119.037 34.4328 124.16 30.5635C124.168 30.5711 131.762 21.8442 141.607 22.1178Z" fill="#5B2D22"/>
<path d="M127.855 75.0417L127.315 74.6464C126.821 74.2891 126.213 74.1295 125.605 74.2207L121.393 74.7148C121.393 74.7148 127.026 79.6104 140.824 77.9608C140.824 77.9608 134.811 76.486 132.256 75.4978C131.815 75.3305 131.344 75.2545 130.88 75.2849L129.117 75.4066C128.661 75.437 128.212 75.3077 127.855 75.0417Z" fill="#43211F"/>
<path d="M61.111 276.292C61.111 276.292 59.0433 278.725 62.0688 280.458L61.111 276.292Z" fill="#232222"/>
<path d="M165.21 118.448L172.105 79.4431C172.105 79.4431 175.404 81.8529 176.066 83.8066C176.316 84.5363 176.864 85.1293 177.54 85.5018C179.57 86.6192 183.006 89.0898 182.367 92.8527L181.737 97.9763C181.638 98.7593 182.299 99.4283 183.082 99.3447C186.024 99.0406 192.181 99.1014 192.523 104.932C192.523 104.932 192.524 106.597 192.128 107.631C191.991 107.98 192.007 108.376 192.143 108.733C192.584 109.896 192.63 112.458 184.77 112.823C184.77 112.823 177.084 112.131 165.21 118.448Z" fill="#666256"/>
<path d="M129.695 176.062C129.976 175.864 130.265 175.674 130.538 175.477C130.622 175.416 130.69 175.37 130.751 175.325C130.812 175.272 130.896 175.203 130.987 175.127C132.211 174.116 133.352 172.595 134.5 171.5L137.007 168.103V169.509C137.547 168.947 138.087 168.377 138.619 167.799C144.108 161.801 148.767 155.598 155.335 150.68C155.457 150.588 155.586 150.52 155.708 150.436C156.172 145.328 157.646 140.394 159.95 135.826C162.291 131.173 165.788 127.175 167.597 122.241C168.563 119.603 169.087 117.133 170.714 114.837C172.386 112.465 173.686 109.835 174.56 107.068C176.583 100.629 176.438 93.5141 176.119 86.8397C175.777 79.694 174.895 72.5863 173.701 65.5394C172.812 60.3169 172.037 55.0641 170.623 49.9481C169.961 47.5535 169.216 45.3642 167.871 43.2737C166.518 41.1756 164.921 39.2523 163.523 37.1846C162.01 34.9573 160.497 32.7224 158.984 30.495C158.331 33.513 157.996 36.5765 157.821 39.1307C157.631 41.9966 158.133 44.8549 159.296 47.4851C160.968 51.2784 161.447 56.0903 161.47 60.1877C161.501 65.2049 162.93 70.1841 162.55 75.1937C162.238 79.3139 160.596 83.2288 158.604 86.8549C155.343 92.7919 151.124 98.1968 148.342 104.4C146.601 108.269 145.369 112.443 143.864 116.426C140.664 124.872 137.464 133.317 134.263 141.763C131.2 149.843 128.136 157.932 125.073 166.013C123.978 168.901 124.595 167.611 123.5 170.5L130 168.5L129.695 176.062Z" fill="#5B2D22"/>
<path d="M187.331 42.2778C187.324 42.1638 187.309 42.0422 187.301 41.9282C187.248 41.0692 187.347 40.2025 187.309 39.3435C187.217 37.3975 185.94 31.392 185.591 30.4646C185.218 29.484 184.815 28.511 184.397 27.5531C183.614 25.7667 182.755 24.0107 181.805 22.3079C180.155 19.3356 178.225 16.5077 175.997 13.9459C174.104 11.7718 171.991 9.7877 169.665 8.06969C167.65 6.57973 165.491 5.30263 163.211 4.26118C161.219 3.35656 159.152 2.62679 157.031 2.09466C155.221 1.63855 153.374 1.32688 151.512 1.15204C150.029 1.01521 148.539 0.961992 147.049 1.0076C146.046 1.03801 145.035 1.11403 144.039 1.24326C143.651 1.29647 143.256 1.34968 142.868 1.4333C111.268 7.81883 108.432 42.2018 108.432 42.2018C126.654 7.20308 154.803 29.0203 154.803 29.0203C170.144 38.2869 173.542 74.3879 173.542 74.3879C178.072 71.7881 180.026 62.3694 181.881 62.5747C183.736 62.7799 184.967 55.5734 184.967 55.5734C185.804 54.8588 186.419 54.015 186.868 53.1104C186.875 52.8064 186.875 52.5023 186.875 52.1982C186.875 52.5023 186.875 52.8064 186.868 53.1104C187.765 51.3164 188.031 49.2715 187.985 47.2874C187.962 46.322 187.886 45.349 187.681 44.4063C187.537 43.7146 187.4 43 187.331 42.2778Z" fill="#312517"/>
<path d="M122.42 12.3875C122.42 12.3875 172.014 -13.2762 182.307 61.8677C182.299 61.8677 173.808 -8.2742 122.42 12.3875Z" fill="#666256"/>
<path d="M186.624 52.4871C176.537 -5.68199 133.997 4.23076 133.997 4.23076C131.945 4.89212 125.977 8.89067 125.977 8.89067C125.977 8.89067 133.397 5.88796 142.739 6.4961C179.828 8.88307 184.23 55.7862 184.23 55.7862C186.913 54.6308 186.624 52.6239 186.624 52.6239C186.624 52.6239 186.708 53.1028 186.853 53.9238C186.853 53.8858 186.853 53.8554 186.86 53.8174C186.784 53.3841 186.701 52.9432 186.624 52.4871Z" fill="#666256"/>
<path d="M217.898 195.394C217.952 199.111 216.659 202.851 215.451 206.295C214.09 209.997 212.227 213.486 209.901 216.679C205.409 223.079 199.532 228.325 195.184 234.817C190.958 241.149 189.323 248.789 185.271 255.212C183.356 258.245 180.992 260.99 178.825 263.833C176.621 266.577 174.712 269.549 173.124 272.696C172.348 274.293 171.74 275.973 171.307 277.691C170.843 279.728 170.585 281.803 170.531 283.894C170.44 286.03 170.417 288.166 170.265 290.302C170.159 291.549 170.113 292.818 169.977 294.065C169.536 294.331 169.125 294.582 168.73 294.81C168.753 294.673 168.768 294.529 168.775 294.392C168.897 293.594 168.927 292.773 168.981 291.99C169.095 290.082 169.262 288.181 169.315 286.266C169.429 282.252 169.672 278.314 171.117 274.528C173.625 267.877 178.536 262.609 182.694 256.976C184.846 253.966 186.617 250.704 187.985 247.268C189.43 243.802 190.752 240.267 192.562 236.96C196.324 230.134 202.208 224.881 206.944 218.784C209.407 215.721 211.513 212.384 213.216 208.834C213.976 207.116 214.63 205.352 215.177 203.55C215.785 201.749 216.249 199.894 216.568 198.024C216.712 197.127 216.781 196.222 216.766 195.325C216.758 194.588 217.891 194.664 217.898 195.394Z" fill="#445656"/>
<path d="M187.43 253.342C187.499 253.38 187.575 253.388 187.651 253.38C188.844 253.221 190 252.863 191.079 252.324C192.121 251.708 192.972 250.788 193.975 250.089C195.047 249.268 196.324 248.774 197.67 248.667C199.069 248.637 200.46 249.093 201.843 249.306C204.131 249.617 206.442 249.465 208.457 248.241C209.947 247.337 211.14 246.052 212.379 244.843C213.619 243.635 214.873 242.532 216.5 242.076C218.75 241.43 221.152 242.107 223.296 242.837C225.439 243.566 227.537 244.486 229.795 244.159C231.848 243.863 233.497 242.532 235.002 241.217C236.644 239.765 238.241 238.199 240.278 237.302C242.665 236.246 245.455 236.162 248.024 236.2C248.1 236.2 248.169 236.185 248.237 236.147C248.298 236.109 248.351 236.056 248.382 235.987C248.412 235.919 248.427 235.843 248.42 235.774C248.412 235.698 248.382 235.63 248.336 235.577C247.333 234.627 246.268 233.737 245.151 232.939C244.094 232.11 243.144 231.168 242.125 230.278C240.286 228.69 238.028 226.949 235.466 227.162C234.364 227.291 233.284 227.595 232.273 228.059C231.148 228.522 230.031 228.986 228.883 229.374C227.674 229.784 226.443 230.111 225.188 230.347C223.873 230.552 222.535 230.613 221.205 230.529C218.461 230.408 215.732 230.02 212.98 229.974C210.874 229.913 208.791 230.438 206.959 231.487C205.021 232.711 203.25 234.186 201.684 235.866C199.928 237.614 198.286 239.484 196.697 241.385C195.1 243.285 193.573 245.231 191.999 247.162C191.163 248.211 190.319 249.237 189.46 250.263C189.072 250.712 188.677 251.161 188.32 251.639C188.054 252.08 187.666 252.438 187.202 252.658C186.784 252.787 187.043 253.373 187.43 253.342Z" fill="#445656"/>
<path d="M217.868 192.55C219.008 189.92 219.404 187.024 219.001 184.188C218.841 182.927 218.545 181.687 218.119 180.494C217.632 179.247 217.055 178.046 216.393 176.891C215.694 175.667 215.078 174.397 214.531 173.09C214.09 171.927 213.771 170.756 213.292 169.616C212.858 168.521 212.205 167.525 211.368 166.712C210.73 166.149 210.03 165.663 209.278 165.26C208.434 164.758 207.545 164.34 206.625 164.006C205.941 163.694 205.173 163.626 204.443 163.816C204.367 163.854 204.314 163.914 204.276 163.99C204.238 164.066 204.23 164.15 204.245 164.234C204.413 165.275 205.241 165.997 205.865 166.765C206.678 167.7 207.355 168.749 207.872 169.874C208.799 172.048 208.662 174.473 209.065 176.762C209.483 178.746 210.403 180.585 211.733 182.098C212.463 182.904 213.147 183.755 213.778 184.652C214.371 185.595 214.903 186.583 215.375 187.594C215.739 188.362 216.15 189.107 216.492 189.882C216.91 190.642 217.138 191.501 217.146 192.376C217.131 192.429 217.131 192.482 217.146 192.535C217.161 192.588 217.191 192.634 217.229 192.664L217.26 192.672C217.305 192.71 217.359 192.741 217.412 192.748C217.465 192.763 217.526 192.763 217.587 192.748C217.648 192.733 217.701 192.71 217.746 192.672C217.792 192.634 217.83 192.588 217.853 192.535C217.853 192.55 217.868 192.558 217.868 192.55Z" fill="#445656"/>
<path d="M249.203 205.246C248.572 204.721 247.834 204.326 247.044 204.09C246.154 203.786 245.242 203.535 244.322 203.345C242.376 202.942 240.369 202.851 238.393 203.071C235.192 203.406 232.099 204.455 229.347 206.143C227.849 207.07 226.504 208.203 225.067 209.244C223.592 210.286 221.981 211.122 220.278 211.722C218.719 212.285 217.214 212.999 215.785 213.858C214.424 214.702 213.162 215.698 212.007 216.816C210.821 218.001 209.749 219.301 208.807 220.7C208.274 221.475 207.758 222.251 207.203 223.011C206.785 223.688 206.252 224.281 205.629 224.767C205.561 224.813 205.507 224.873 205.477 224.949C205.447 225.026 205.439 225.109 205.454 225.185C205.363 225.436 205.538 225.786 205.865 225.687C206.731 225.444 207.453 224.889 208.297 224.592C209.141 224.296 210.099 223.954 210.988 223.612C212.813 222.882 214.584 222.015 216.272 221.012C217.701 220.107 219.251 219.431 220.878 218.982C222.505 218.632 224.155 218.45 225.819 218.427C228.769 218.336 231.969 218.686 234.455 216.724C236.941 214.763 238.355 211.593 240.894 209.609C242.171 208.651 243.577 207.868 245.06 207.29C246.375 206.736 247.872 206.629 249.081 205.823C249.271 205.747 249.408 205.436 249.203 205.246Z" fill="#445656"/>
<path d="M245.926 154.093C246.755 151.691 247.12 149.159 247.006 146.62C246.914 144.727 246.823 142.576 245.622 141.003C245.432 140.759 245.09 140.919 244.976 141.132C244.36 142.409 243.859 143.732 243.319 145.039C242.779 146.347 242.163 147.616 241.464 148.848C240.05 151.356 238.461 153.743 236.834 156.107C235.527 158.023 234.212 159.931 232.775 161.756C231.414 163.481 229.985 165.176 228.609 166.894C225.903 170.262 223.311 173.827 221.828 177.909C221.038 180.213 220.703 182.638 220.833 185.07C220.924 187.67 221.137 190.255 220.536 192.817C220.232 194.063 219.86 195.295 219.426 196.496C219.061 197.598 218.575 198.662 217.99 199.666C216.872 201.521 215.489 203.284 214.964 205.42C214.85 205.892 215.565 206.142 215.686 205.671C215.694 205.641 215.694 205.618 215.701 205.595C215.747 205.58 215.785 205.55 215.815 205.519C215.846 205.489 215.876 205.451 215.891 205.405C216.682 202.98 218.856 201.171 220.772 199.605C222.688 198.039 224.603 196.823 226.443 195.325C228.077 194.071 229.43 192.505 230.441 190.711C231.627 188.445 232.365 185.906 233.125 183.482C233.923 180.943 234.698 178.388 235.687 175.918C236.682 173.447 237.96 170.969 239.199 168.552C241.601 163.831 244.239 159.125 245.926 154.093Z" fill="#445656"/>
<path d="M204.778 214.36C204.8 215.029 204.717 215.683 204.694 216.344C204.709 216.93 204.633 217.515 204.489 218.085L204.413 218.131C204.337 218.184 204.276 218.26 204.253 218.351C204.23 218.442 204.238 218.534 204.276 218.617C204.314 218.701 204.39 218.762 204.474 218.8C204.557 218.83 204.656 218.83 204.74 218.8C205.796 218.26 206.427 217.028 206.937 216.01C207.537 214.847 207.925 213.592 208.077 212.292C208.183 210.818 208.198 209.335 208.107 207.861C208.107 206.462 207.925 205.063 207.567 203.71C207.294 202.729 206.891 201.642 205.971 201.11C205.918 201.08 205.857 201.057 205.789 201.057C205.728 201.057 205.659 201.065 205.606 201.095C205.545 201.125 205.5 201.163 205.462 201.217C205.424 201.27 205.401 201.331 205.393 201.391C205.363 202.152 205.424 202.904 205.378 203.664C205.295 204.44 205.142 205.208 204.914 205.96C204.474 207.351 204.245 208.811 204.253 210.27C204.352 211.646 204.732 212.984 204.778 214.36Z" fill="#445656"/>
<path d="M188 221.544C188.038 223.11 187.886 224.676 187.544 226.211C187.195 227.709 187.035 229.252 187.081 230.788C187.134 232.316 187.484 233.813 188.114 235.212C188.502 235.926 188.821 236.671 189.08 237.447C189.186 237.827 189.262 238.215 189.346 238.595C189.369 238.952 189.414 239.302 189.49 239.651C189.498 239.712 189.521 239.765 189.559 239.811C189.597 239.857 189.642 239.895 189.703 239.91C189.886 240.32 190.585 240.168 190.433 239.72C190.289 239.309 190.175 238.891 190.083 238.465C190.083 236.778 190.425 235.105 191.102 233.555C191.824 231.669 192.66 229.83 193.413 227.952C194.15 226.189 194.781 224.387 195.298 222.547C195.731 220.867 196.036 219.149 196.188 217.424C196.507 214.223 196.499 210.818 195.275 207.762C194.051 204.706 191.581 202.281 189.24 200.023C187.962 198.799 186.784 197.514 185.613 196.215C184.785 195.272 184.2 193.828 182.968 193.349C182.907 193.326 182.839 193.326 182.77 193.333C182.702 193.349 182.641 193.379 182.596 193.417C182.542 193.463 182.504 193.516 182.489 193.577C182.466 193.638 182.466 193.706 182.474 193.774C182.603 194.557 182.831 195.325 183.158 196.047C183.477 196.876 183.591 197.765 183.493 198.647C183.379 199.59 183.112 200.51 182.922 201.429C182.748 202.304 182.626 203.193 182.55 204.082C182.398 205.641 182.649 207.222 183.28 208.659C183.911 210.073 184.777 211.357 185.507 212.726C186.997 215.44 187.856 218.457 188 221.544Z" fill="#445656"/>
<path d="M170.516 211.449C170.706 212.384 170.82 213.296 170.919 214.231C171.147 216.344 171.231 218.473 171.155 220.594C170.988 224.265 170.433 227.922 170.243 231.593C170.06 235.166 170.357 238.747 171.14 242.236C171.504 243.87 171.968 245.474 172.531 247.048C173.108 248.667 173.853 250.21 174.492 251.807C175.169 253.449 175.693 255.159 176.043 256.9C176.377 258.648 176.339 260.435 176.605 262.191C176.59 262.274 176.613 262.358 176.651 262.434C176.697 262.51 176.757 262.563 176.841 262.601C176.917 262.632 177.008 262.639 177.092 262.616C177.175 262.594 177.244 262.54 177.297 262.472C178.224 260.883 178.954 259.196 179.471 257.432C180.155 255.379 180.718 253.281 181.159 251.16C181.987 247.55 182.314 243.84 182.155 240.138C182.041 238.45 181.767 236.778 181.326 235.151C180.824 233.41 180.209 231.7 179.486 230.035C177.974 226.363 176.712 222.585 175.533 218.792C174.446 215.219 172.949 211.783 171.079 208.545C171.041 208.469 170.98 208.415 170.904 208.377C170.828 208.339 170.744 208.332 170.661 208.347C170.577 208.362 170.509 208.408 170.448 208.469C170.395 208.53 170.357 208.606 170.349 208.689C170.227 209.617 170.288 210.552 170.516 211.449Z" fill="#445656"/>
<path d="M244.748 267.877C244.413 262.122 242.224 256.626 240.073 251.373C238.872 248.34 237.412 245.421 235.702 242.646C235.405 242.168 235.101 241.673 234.782 241.179C233.718 239.522 232.456 237.88 230.685 237.09L230.388 236.922C229.78 236.542 229.149 236.2 228.503 235.896C225.804 234.642 222.611 234.284 219.662 234.163C218.111 234.064 216.545 234.186 215.025 234.52C213.679 234.862 212.372 235.364 211.125 235.995C206.078 238.473 201.828 242.494 198.59 247.071C198.498 247.2 198.407 247.329 198.316 247.458C196.583 249.944 195.169 252.635 194.105 255.478C193.892 256.086 193.687 256.695 193.496 257.31C193.375 257.698 193.261 258.086 193.154 258.473C192.493 260.807 192.007 263.187 191.702 265.596C191.642 266.06 191.573 266.524 191.512 266.995C191.444 267.482 191.383 267.976 191.33 268.462C191.041 270.925 190.881 273.403 191.056 275.889C191.132 277.516 191.376 279.135 191.778 280.724C192.204 282.153 192.79 283.529 193.535 284.821C196.355 289.808 200.733 293.951 206.207 295.776C208.799 296.665 211.566 296.969 214.287 296.665C217.199 296.247 219.981 295.175 222.429 293.541C225.074 291.853 227.439 289.77 229.962 287.9C232.76 285.84 235.725 284.031 238.499 281.94C240.734 280.245 242.612 278.345 243.668 275.699C244.603 273.198 244.976 270.53 244.748 267.877ZM240.97 278.223C240.027 279.318 238.955 280.298 237.769 281.127C236.485 282.092 235.147 283.012 233.817 283.909C231.232 285.658 228.723 287.474 226.253 289.405C223.927 291.237 221.547 293.054 218.826 294.278C213.831 296.505 208.183 295.95 203.424 293.381C201.06 292.089 198.962 290.355 197.252 288.273C195.336 286.068 193.861 283.514 192.911 280.747C192.493 279.242 192.235 277.698 192.151 276.14C192.014 274.498 192.007 272.856 192.136 271.214C192.242 269.755 192.394 268.31 192.584 266.858C192.66 266.303 192.736 265.741 192.828 265.186C193.025 263.916 193.246 262.662 193.504 261.4C193.778 260.1 194.12 258.823 194.523 257.576C194.667 257.128 194.819 256.687 194.979 256.254C196.203 252.909 197.913 249.754 200.049 246.896C200.437 246.371 200.847 245.854 201.266 245.353C204.732 241.172 209.217 237.5 214.432 235.797C217.298 234.862 220.415 235.189 223.341 235.615C224.732 235.774 226.101 236.101 227.416 236.595C228.054 236.862 228.678 237.158 229.278 237.508L229.552 237.66C229.582 237.721 229.62 237.774 229.666 237.812C229.712 237.857 229.772 237.888 229.826 237.903C230.114 238.009 230.388 238.139 230.654 238.283C230.814 238.397 230.958 238.519 231.087 238.663C231.179 238.77 231.308 238.838 231.452 238.846C231.931 239.256 232.365 239.712 232.752 240.206C233.132 240.7 233.505 241.21 233.855 241.719C235.139 243.551 236.249 245.49 237.199 247.519C238.59 250.378 239.723 253.35 240.848 256.315C242.65 261.035 244.163 266.243 243.623 271.351C243.41 273.852 242.49 276.239 240.97 278.223Z" fill="#F7D1BC"/>
<path d="M233.68 249.693C232.372 246.835 230.578 243.802 227.948 241.94C227.834 241.863 227.72 241.78 227.606 241.704C227.591 241.666 227.575 241.635 227.553 241.605C227.112 241.081 226.542 240.685 225.903 240.434C222.414 238.8 218.468 238.435 214.744 239.416C210.882 240.556 207.362 242.608 204.458 245.398C203.827 245.999 203.227 246.63 202.657 247.284C201.889 248.15 201.182 249.055 200.528 250.005C200.27 250.355 200.019 250.72 199.783 251.084C198.909 252.46 198.217 253.943 197.731 255.509C197.404 256.793 197.168 258.101 197.031 259.416C196.925 260.389 196.872 261.37 196.872 262.35C196.75 264.631 196.781 266.927 196.963 269.207C197.161 271.351 198.141 273.343 199.7 274.817C201.349 276.33 203.151 277.676 205.074 278.824C208.807 281.203 213.276 283.309 217.822 282.51C222.193 281.727 225.31 278.177 228.1 275C229.742 273.153 231.247 271.184 232.608 269.124C233.976 267.162 235.01 264.981 235.671 262.685C236.698 258.413 235.436 253.608 233.68 249.693ZM233.391 265.65C231.338 269.739 228.282 273.282 225.181 276.619C223.851 278.139 222.285 279.424 220.536 280.435C218.712 281.393 216.636 281.781 214.592 281.537C210.297 281.058 206.465 278.611 203.029 276.132C201.418 274.969 199.707 273.723 198.772 271.944C197.761 270.005 197.898 267.664 197.898 265.536C197.913 261.385 197.792 256.809 199.874 253.046C200.984 251.046 202.322 249.192 203.873 247.519C204.846 246.463 205.903 245.482 207.028 244.585C209.924 242.297 213.619 240.351 217.351 239.978C218.385 239.887 219.419 239.902 220.445 240.031H220.453C221.258 240.123 222.057 240.29 222.84 240.51C223.577 240.693 224.299 240.928 225.006 241.202L225.47 241.385C225.455 241.499 225.47 241.605 225.531 241.704C225.584 241.803 225.675 241.871 225.781 241.917C226.595 242.282 227.355 242.761 228.024 243.353C230.791 245.718 232.6 249.283 233.71 252.681C234.432 254.764 234.85 256.945 234.942 259.15C234.972 261.415 234.44 263.65 233.391 265.65Z" fill="#F7D1BC"/>
<path d="M227.211 249.921C227.013 248.576 226.542 247.284 225.812 246.136C225.105 245.117 224.307 244.174 223.433 243.3C222.741 242.464 221.783 241.894 220.711 241.689C219.426 241.468 218.088 241.825 216.849 242.175C216.051 242.411 215.283 242.662 214.531 242.958C213.155 243.498 211.87 244.174 210.669 245.14C209.863 245.786 209.111 246.531 208.442 247.344C206.693 249.458 205.492 252.042 205.409 254.771C205.279 259.12 208.358 262.769 212.379 264.198C213.672 264.646 215.048 264.821 216.416 264.707C217.784 264.593 219.107 264.19 220.301 263.529C222.703 262.358 224.679 260.465 225.956 258.124C227.211 255.577 227.644 252.719 227.211 249.921ZM224.185 258.93C222.71 260.876 220.711 262.358 218.415 263.194C217.138 263.635 215.77 263.772 214.424 263.597C213.079 263.415 211.794 262.921 210.677 262.16H210.669C207.651 260.222 205.971 257.037 206.632 253.464C207.233 250.172 209.43 247.246 212.151 245.36C213.717 244.357 215.435 243.612 217.245 243.171C218.256 242.814 219.335 242.654 220.407 242.723C220.97 242.829 221.509 243.049 221.981 243.376C222.452 243.703 222.847 244.129 223.136 244.623C223.204 244.714 223.296 244.783 223.402 244.813C223.98 245.421 224.504 246.083 224.976 246.782C225.728 248.006 226.169 249.389 226.26 250.818C226.564 253.684 225.827 256.558 224.185 258.93Z" fill="#F7D1BC"/>
<path d="M220.627 250.955C219.419 250.91 218.21 251.191 217.131 251.769C216.12 252.377 215.238 253.198 214.561 254.178C213.421 255.737 211.642 258.238 212.653 260.245C213.208 261.393 214.538 262.016 215.724 262.138C217.047 262.244 218.37 261.985 219.563 261.393C220.719 260.845 221.684 259.941 222.323 258.816C222.976 257.728 223.44 256.52 224.139 255.456C224.193 255.387 224.215 255.304 224.231 255.22C225.189 253.053 222.718 250.993 220.627 250.955ZM223.083 255.174C223.052 255.22 223.022 255.273 223.007 255.334C221.882 257.234 221.243 259.477 219.13 260.45C218.134 260.929 217.032 261.149 215.937 261.073C215.048 260.997 213.816 260.549 213.504 259.553C213.246 258.717 213.657 257.766 213.991 257.029C214.409 256.216 214.896 255.448 215.458 254.733C216.013 253.928 216.728 253.251 217.556 252.749C218.453 252.255 219.457 252.012 220.468 252.042C221.851 252.058 224.337 253.494 223.083 255.174Z" fill="#F7D1BC"/>
<path d="M127.277 122.887L128.471 125.312C128.874 126.095 129.284 126.901 129.816 127.525C130.075 127.829 130.394 128.041 130.607 127.988C130.652 127.981 130.751 127.943 130.865 127.897L131.177 127.768L131.808 127.517C132.652 127.19 133.503 126.878 134.385 126.635C133.632 127.152 132.849 127.608 132.051 128.041L131.451 128.361L131.146 128.513C131.055 128.558 130.949 128.619 130.774 128.672C130.447 128.771 130.097 128.68 129.854 128.536C129.603 128.391 129.413 128.209 129.246 128.026C128.607 127.266 128.235 126.415 127.916 125.548C127.612 124.689 127.384 123.8 127.277 122.887Z" fill="white"/>
<path d="M150.668 48.5721C150.668 48.5721 153.686 48.8838 155.693 49.9557Z" fill="#E5E5E5"/>
<path d="M150.668 48.5721C151.542 48.5949 152.409 48.7546 153.268 48.9598C154.112 49.1879 154.955 49.4768 155.7 49.9557C154.081 49.2791 152.378 48.9294 150.668 48.5721Z" fill="white"/>
<path d="M118.664 40.0353C118.664 40.0353 119.379 39.9213 120.504 40.385Z" fill="#E5E5E5"/>
<path d="M118.664 40.0353C118.976 39.9213 119.31 39.9593 119.622 40.0125C119.774 40.0505 119.934 40.0961 120.078 40.1569C120.23 40.2178 120.367 40.2938 120.496 40.385C119.873 40.271 119.303 40.1113 118.664 40.0353Z" fill="white"/>
<path d="M140.322 42.4831C140.884 42.0878 141.477 41.7457 142.078 41.4265C142.686 41.1148 143.294 40.8259 143.933 40.5751L143.948 40.5675C144.009 40.5446 144.077 40.5675 144.108 40.6283C144.305 40.9932 144.503 41.3656 144.662 41.7533C144.374 41.4417 144.123 41.1148 143.872 40.7803L144.047 40.8335C143.454 41.1756 142.846 41.4797 142.23 41.7609C141.614 42.0346 140.983 42.2855 140.322 42.4831Z" fill="#E5E5E5"/>
<path d="M82.9966 110.048C82.168 110.861 81.423 111.728 80.7084 112.617C80.0015 113.514 79.3325 114.427 78.7396 115.4C78.139 116.358 77.5841 117.353 77.0976 118.38C76.5959 119.406 76.1778 120.47 75.7368 121.55C75.8889 120.402 76.1245 119.246 76.5502 118.152C76.9379 117.042 77.4853 116 78.0934 114.997C78.7168 114.001 79.4465 113.074 80.2599 112.23C81.0733 111.386 81.9779 110.633 82.9966 110.048Z" fill="white"/>
<path d="M159.638 81.7161C159.395 82.195 158.977 82.5523 158.612 82.9247C158.232 83.2972 157.836 83.6545 157.434 84.0042C156.62 84.6884 155.769 85.3345 154.902 85.9503C153.161 87.1818 151.306 88.2536 149.391 89.1962C147.46 90.1085 145.468 90.8991 143.408 91.4616C141.356 92.0317 139.235 92.389 137.114 92.4726C139.212 92.1533 141.28 91.6896 143.287 91.0359C145.293 90.3973 147.262 89.6143 149.148 88.6793C151.056 87.7823 152.88 86.7181 154.659 85.5854C155.548 85.0152 156.415 84.4147 157.259 83.7838C157.684 83.4721 158.103 83.1528 158.513 82.8107C158.901 82.4686 159.349 82.157 159.638 81.7161Z" fill="#E5E5E5"/>
<path d="M106.076 150.474C106.722 151.197 107.201 152.048 107.588 152.937C107.976 153.827 108.242 154.769 108.432 155.72C108.577 156.678 108.691 157.651 108.645 158.616C108.653 159.103 108.577 159.581 108.539 160.06C108.47 160.539 108.379 161.011 108.28 161.482C108.333 160.516 108.394 159.566 108.349 158.616C108.333 157.666 108.219 156.716 108.052 155.788C107.893 154.853 107.634 153.941 107.307 153.044C106.996 152.154 106.6 151.28 106.076 150.474Z" fill="white"/>
<path d="M185.431 129.379C185.743 130.337 185.948 131.325 186.1 132.329C186.244 133.332 186.305 134.343 186.252 135.362C186.161 136.365 185.986 137.43 185.347 138.289C185.028 138.707 184.58 139.034 184.07 139.171C183.561 139.3 183.044 139.277 182.55 139.163C183.546 139.262 184.595 138.95 185.112 138.114C185.644 137.316 185.819 136.312 185.872 135.332C185.956 134.343 185.895 133.348 185.811 132.352C185.72 131.363 185.591 130.368 185.431 129.379Z" fill="white"/>
<path d="M155.442 149.866C156.278 149.213 157.167 148.65 158.08 148.11C158.992 147.586 159.919 147.084 160.908 146.689C160.071 147.35 159.182 147.905 158.27 148.445C157.35 148.969 156.422 149.463 155.442 149.866Z" fill="white"/>
<path d="M158.422 32.0534L158.779 32.2967L159.091 32.5931C159.304 32.7832 159.478 33.0112 159.676 33.2241C160.056 33.6574 160.406 34.1059 160.756 34.562C161.432 35.4818 162.086 36.4321 162.686 37.4051C163.91 39.3435 165.013 41.358 166.016 43.4257C166.989 45.501 167.84 47.6371 168.578 49.8036C169.315 51.9778 169.862 54.2051 170.265 56.4628C169.786 54.2203 169.194 52.0082 168.456 49.8417C167.696 47.6827 166.829 45.5618 165.841 43.5017C164.86 41.434 163.781 39.4196 162.58 37.4735C161.987 36.4929 161.348 35.5426 160.679 34.6152C160.345 34.1515 160.003 33.6878 159.638 33.2545C159.448 33.0416 159.281 32.806 159.076 32.6083L158.771 32.3043L158.422 32.0534Z" fill="#E5E5E5"/>
<path d="M125.977 39.2751C126.137 39.3207 126.297 39.3435 126.456 39.3663C126.616 39.3816 126.768 39.3892 126.912 39.3587C127.216 39.3283 127.475 39.1459 127.726 38.933C127.657 39.0851 127.558 39.2295 127.422 39.3359C127.285 39.45 127.118 39.5184 126.943 39.5488C126.593 39.5868 126.236 39.488 125.977 39.2751Z" fill="#E5E5E5"/>
</g>
</svg>
