<?xml version="1.0" encoding="utf-8"?>
<!-- Generator: Adobe Illustrator 26.0.3, SVG Export Plug-In . SVG Version: 6.00 Build 0)  -->
<svg version="1.1" id="Layer_1" xmlns="http://www.w3.org/2000/svg" xmlns:xlink="http://www.w3.org/1999/xlink" x="0px" y="0px"
	 viewBox="0 0 300 300" style="enable-background:new 0 0 300 300;" xml:space="preserve">
<style type="text/css">
	.st0{fill:#98D5DE;}
	.st1{fill:#80CEDF;}
	.st2{fill:#FFFFFF;}
	.st3{fill:#D6EDF4;}
	.st4{fill:#FFFFF9;stroke:#754C28;stroke-miterlimit:10;}
	.st5{fill:#FFFFFF;stroke:#754C28;stroke-miterlimit:10;}
	.st6{fill:#F7D093;stroke:#754C28;stroke-miterlimit:10;}
	.st7{fill:#FFFFFB;stroke:#8A5D3B;stroke-miterlimit:10;}
	.st8{fill:#FADAA1;stroke:#754C28;stroke-miterlimit:10;}
	.st9{fill:none;}
	.st10{fill:#FCD098;stroke:#754C28;stroke-miterlimit:10;}
	.st11{fill:#F8C86A;stroke:#754C28;stroke-miterlimit:10;}
	.st12{fill:#EDA654;}
	.st13{fill:#FFFFFF;stroke:#8A5D3B;stroke-miterlimit:10;}
	.st14{fill:#F5BC7E;stroke:#8A5D3B;stroke-miterlimit:10;}
	.st15{fill:#F8D19F;stroke:#8A5D3B;stroke-miterlimit:10;}
	.st16{fill:#7C4925;}
	.st17{fill:#F27362;}
	.st18{fill:#F8BD80;}
	.st19{fill:#6A3A17;}
	.st20{fill:#FAC768;stroke:#754C28;stroke-miterlimit:10;}
	.st21{opacity:0.23;fill:#C3996B;}
	.st22{fill:#F7DE7C;}
	.st23{fill:#FFC96D;}
	.st24{opacity:0.49;fill:#D6EAF5;}
	.st25{fill:#FFC62E;stroke:#754C28;stroke-miterlimit:10;}
	.st26{fill:#F8EB86;}
</style>
<g>
	<g>
		<g>
			<rect x="-65.94" y="-2.23" class="st0" width="431.68" height="305.23"/>
			<path class="st1" d="M299.38,78.27c0,21.98-28.17,43.26-49.97,43.26s-22.55-20.7-22.55-42.68s25.11-49.9,46.91-49.9
				S299.38,56.29,299.38,78.27z"/>
			<path class="st1" d="M35.17,269.26c0,8.58-9.93,15.14-18.51,15.14s-21.64-9.36-21.64-17.94c0-8.58,11.49-16.58,20.07-16.58
				S35.17,260.68,35.17,269.26z"/>
			<path class="st1" d="M-18.61,192.67c0,0,21.34-40.71,47.78-45.43c0,0,10.34-3.53,18.59,5.37c0,0-5.76,48.7,3.01,57.08
				c0,0,0.13,23.04-11.52,25.66c0,0-22.52,13.09-40.58,3.67C-1.33,239.02-27.9,223.04-18.61,192.67z"/>
			<path class="st1" d="M198.23,82.11c0,40.45-65.53,67.95-107.61,67.95s-52.24-28.67-52.24-69.12S90.95,8.28,133.03,8.28
				S198.23,41.66,198.23,82.11z"/>
			<path class="st1" d="M322.95,206.42c0,14.61-10.53,21.21-25.14,21.21c-14.61,0-21.99-9.11-21.99-23.71s14.2-31.54,28.8-31.54
				C319.23,172.38,322.95,191.81,322.95,206.42z"/>
			<path class="st1" d="M124.94,167.15c-0.04-0.25-7.78,9.28-12.44,23.2c-5.25,15.7-6.83,37.41,9.94,58.78
				c0,0,29.13,42.34,82.07,31.58c0,0,43.78-14.11,44.78-46.7S144.25,297.68,124.94,167.15z"/>
			<circle class="st2" cx="91.11" cy="57.44" r="3.05"/>
			<circle class="st2" cx="50.78" cy="90.43" r="3.05"/>
			<circle class="st2" cx="290.68" cy="212.11" r="3.05"/>
			<circle class="st2" cx="275.82" cy="261.95" r="3.05"/>
			<circle class="st2" cx="340.19" cy="170.2" r="3.05"/>
			<circle class="st2" cx="327.97" cy="31.43" r="3.05"/>
			<circle class="st2" cx="331.02" cy="265" r="3.05"/>
			<circle class="st2" cx="64.44" cy="282.46" r="3.05"/>
			<circle class="st2" cx="287.63" cy="143.12" r="3.05"/>
			<circle class="st2" cx="331.02" cy="93.48" r="3.05"/>
			<circle class="st2" cx="260.07" cy="97.8" r="3.05"/>
			<circle class="st2" cx="108.9" cy="261.95" r="3.05"/>
			<circle class="st2" cx="176.73" cy="66.54" r="3.05"/>
			<circle class="st2" cx="242.35" cy="60.13" r="3.05"/>
			<circle class="st2" cx="187.72" cy="14.65" r="3.05"/>
			<circle class="st2" cx="76.17" cy="170.2" r="3.05"/>
			<circle class="st2" cx="236.24" cy="164.09" r="3.05"/>
			<circle class="st2" cx="214.03" cy="261.95" r="3.05"/>
		</g>
		<circle class="st2" cx="-30.65" cy="36.4" r="3.05"/>
		<circle class="st2" cx="-14.55" cy="65.86" r="3.05"/>
		<circle class="st2" cx="12.04" cy="34.48" r="3.05"/>
		<circle class="st2" cx="-33.7" cy="102.78" r="3.05"/>
		<circle class="st2" cx="-36.34" cy="178.3" r="3.05"/>
		<circle class="st2" cx="-13.95" cy="221.23" r="3.05"/>
		<circle class="st2" cx="25.38" cy="192" r="3.05"/>
		<circle class="st2" cx="-21.07" cy="261.43" r="3.05"/>
		<path class="st2" d="M-22.04,151.61c0,0-10.08,3.43-11.52-4.04c-1.69-8.75,12.18-9.77,12.18-9.77s1.44-21.37,19.9-21.63
			c0,0,14.4,0.13,15.71,14.34c0,0,6.55-3,9.95,0.91c0,0,3.93,5.73,1.05,9.38c0,0,7.85,4.17,5.63,10.67c0,0-3.53,9.14-12.57,4.97
			c0,0-2.14,6.08-9.56,7.3c0,0-9.69-0.13-12.44-7.43c0,0-1.97,5.24-10.7,4.54C-14.41,160.84-21.13,159.43-22.04,151.61z"/>
		<path class="st3" d="M-32.67,149.99c0,0,10.15-2.53,13.26-6.85c0,0,10.94,10.3,21.65,1.96c0,0,6.5,7.89,18.4,1.94
			c0,0,2.77,5.52,9.97,4.82c0,0-2.12,8.21-12.13,5.11c0,0-5.21,7.68-11.06,6.93c0,0-6.77,0.49-10.98-6.98c0,0-4.9,5.07-10.06,4.45
			c0,0-7.54-0.24-8.37-9.32C-21.98,152.06-30.08,155.32-32.67,149.99z"/>
		<path class="st2" d="M39.4,234.23c0,0-6.69,2.28-7.64-2.68c-1.12-5.8,8.08-6.49,8.08-6.49s0.96-14.18,13.2-14.35
			c0,0,9.56,0.09,10.42,9.51c0,0,4.34-1.99,6.6,0.61c0,0,2.61,3.8,0.69,6.23c0,0,5.21,2.77,3.73,7.08c0,0-2.35,6.07-8.34,3.3
			c0,0-1.42,4.04-6.34,4.84c0,0-6.43-0.09-8.25-4.93c0,0-1.31,3.47-7.1,3.01C44.46,240.35,40.01,239.42,39.4,234.23z"/>
		<path class="st3" d="M32.34,233.16c0,0,6.73-1.68,8.8-4.55c0,0,7.26,6.83,14.37,1.3c0,0,4.31,5.24,12.21,1.29
			c0,0,1.84,3.66,6.62,3.2c0,0-1.41,5.45-8.05,3.39c0,0-3.46,5.1-7.34,4.6c0,0-4.49,0.32-7.29-4.63c0,0-3.25,3.37-6.67,2.95
			c0,0-5-0.16-5.56-6.18C39.44,234.53,34.06,236.69,32.34,233.16z"/>
		<path class="st2" d="M285.57,182.91c0,0-6.69,2.28-7.64-2.68c-1.12-5.8,8.08-6.49,8.08-6.49s0.96-14.18,13.2-14.35
			c0,0,9.56,0.09,10.42,9.51c0,0,4.34-1.99,6.6,0.61c0,0,2.61,3.8,0.69,6.23c0,0,5.21,2.77,3.73,7.08c0,0-2.35,6.07-8.34,3.3
			c0,0-1.42,4.04-6.34,4.84c0,0-6.43-0.09-8.25-4.93c0,0-1.31,3.47-7.1,3.01C290.64,189.03,286.18,188.1,285.57,182.91z"/>
		<path class="st3" d="M278.52,181.84c0,0,6.73-1.68,8.8-4.55c0,0,7.26,6.83,14.37,1.3c0,0,4.31,5.24,12.21,1.29
			c0,0,1.84,3.66,6.62,3.2c0,0-1.41,5.45-8.05,3.39c0,0-3.46,5.1-7.34,4.6c0,0-4.49,0.32-7.29-4.63c0,0-3.25,3.37-6.67,2.95
			c0,0-5-0.16-5.56-6.18C285.61,183.21,280.24,185.37,278.52,181.84z"/>
		<path class="st3" d="M31.83,48.7c0,0,3.72,6.68,8.72,3.21c0,0,6.64,11.59,14.28,0.2c0,0,10.07,8.2,12.5-3.13
			c0,0,6.59,2.94,7.18-1.29C74.51,47.68,51.6,34.49,31.83,48.7z"/>
		<path class="st2" d="M34.77,41.63c0,0-1.32-10.6,7.64-6.68c0,0,3.43-10.6,11.07-9.69c0,0,9.36-2.75,13.18,14.4
			c0,0,11.47,1.83,7.78,8.38c0,0-7.51-2.75-9.23-4.58c0,0-6.72,7.46-13.97,0.92c0,0-7.38,6.68-12.26,1.44c0,0-4.88,4.84-7.12,2.88
			C31.87,48.7,29.23,43.59,34.77,41.63z"/>
		<g>
			<path class="st3" d="M266.55,68.74c0,0,4.4,8.53,10.89,4.41c0,0,7.88,14.81,18.06,0.9c0,0,12.37,10.73,15.96-3.35
				c0,0,8.2,3.98,9.15-1.29C320.61,69.42,292.22,51.87,266.55,68.74z"/>
			<path class="st2" d="M270.59,60.03c0,0-1.19-13.33,9.98-8.01c0,0,4.82-13.12,14.45-11.62c0,0,11.97-3.01,16.03,18.63
				c0,0,14.43,2.82,9.46,10.84c0,0-9.38-3.79-11.47-6.16c0,0-8.85,9.03-17.72,0.51c0,0-9.64,8.02-15.58,1.24
				c0,0-6.39,5.84-9.14,3.28C266.6,68.74,263.5,62.23,270.59,60.03z"/>
		</g>
	</g>
	<path class="st4" d="M105.56,169.9c0,0-11.65,12.54,8.12,45.44c0,0,4.58,0.4,8.38-10.11c0,0-0.79,9.17,6.81-0.13l2.36-35.2H105.56z
		"/>
	<path class="st5" d="M166.67,151.39c0,0,16.89-3.93,26.18-1.31c0,0,17.67,2.62,27.88,21.08c0,0-1.31,3.14-17.02-1.83
		c0,0,7.85,5.24,6.41,7.85c0,0-1.44,3.4-14.01-1.44c0,0,4.06,5.63-0.52,8.64c0,0-6.55,1.31-13.35-3.14c0,0,2.49,3.53-2.75,5.89
		c0,0-7.33,0.13-15.19-3.4l-16.76-3.14l1.96-18.59L166.67,151.39z"/>
	<g>
		<path class="st6" d="M177.42,165.5c0,0,1.52-10.6,3.04-10.6s1.31,6.28,1.31,6.28s4.56-7.99,5.74-6.94
			c1.18,1.05-2.59,6.97-2.87,7.13c-0.28,0.16,5.98-5.27,7.05-4.68c1.07,0.59,0.03,4.84-4.25,7.07c-4.29,2.23,5.05-3.11,5.84-1.51
			s-4.32,5.99-9.57,6.28l-4.82,1.25L177.42,165.5z"/>
		<path class="st7" d="M150.43,178.74l-5.95-11.52c0,0,24.61,1.57,28.07-7.07c0,0,18.94,11.52,13.41,18.59
			C185.97,178.74,175.04,183.2,150.43,178.74z"/>
	</g>
	<g>
		<path class="st8" d="M104.23,202.49l-7.59,4.45c0,0-4.01,0.79-2.53-1.83c1.48-2.62,4.1-2.62,4.1-2.62l-7.16,1.05
			c0,0-2.53-0.35-0.7-2.09s7.16-2.71,7.16-2.71h-6.46c0,0-4.17-1.09-0.79-2.97h7.59l-3.58-2.72c0,0-1.57-1.82,1.31-1.39
			c2.88,0.44,6.28,2.01,6.28,2.01l4.01,2.62L104.23,202.49z"/>
		<path class="st9" d="M129.54,194.72"/>
		<path class="st9" d="M125.44,193.05"/>
		<path class="st7" d="M122.47,172.35c0,0-11.61,20.6-20.68,17.98c0,0-0.17,18.5,8.73,20.51c0,0,10.62-7.51,13-14.02
			c1.01-2.75,5.49-11.92,6.02-14l0,0L122.47,172.35z"/>
	</g>
	<g>
		<g>
			<path class="st10" d="M177.41,233.77c0,0,6.78,3.84,18.46,3.1c11.68-0.74,5.88-6.5,2.79-6.18s-0.19,0.08-0.19,0.08
				s-2.71-1.59-12.26-4.67C186.22,226.11,179.3,233.38,177.41,233.77z"/>
			<path class="st10" d="M189.12,214.92c0,0,6.89,1.7,17.12-1.67c10.23-3.36,3.78-6.92,1.1-5.92c-2.68,1-0.15,0.11-0.15,0.11
				s-2.77-0.72-11.95-1.12C195.24,206.33,190.72,214.15,189.12,214.92z"/>
			<g>
				
					<ellipse transform="matrix(0.948 -0.3184 0.3184 0.948 -65.5964 76.2557)" class="st11" cx="200.47" cy="238.79" rx="5.02" ry="8.47"/>
				
					<ellipse transform="matrix(0.866 -0.5 0.5 0.866 -78.1333 134.1838)" class="st11" cx="211.32" cy="212.89" rx="4.51" ry="8.47"/>
				<path class="st12" d="M201.58,245.82c0,0,0.85-11.62,0.39-12.76c-0.46-1.14,3.62,4.79,3.4,8.26
					C205.38,241.32,205.18,247.07,201.58,245.82z"/>
				<path class="st12" d="M213.56,220.01c0,0-1.5-11.56-2.18-12.58c-0.68-1.03,4.22,4.03,4.7,7.47
					C216.08,214.89,217.34,220.51,213.56,220.01z"/>
			</g>
		</g>
		<path class="st13" d="M158.65,246.16c0,0,41.72-19.46,39.27-51.76c0,0-42.24-7.33-51.67-32.64l-14.31-4.36l-10.65,12.92
			C121.29,170.32,127.05,231.94,158.65,246.16z"/>
	</g>
	<g>
		<g>
			
				<ellipse transform="matrix(0.938 -0.3467 0.3467 0.938 -46.5229 39.6665)" class="st14" cx="87.61" cy="149.87" rx="8.9" ry="11.01"/>
			
				<ellipse transform="matrix(0.1661 -0.9861 0.9861 0.1661 2.7833 286.3234)" class="st14" cx="170.68" cy="141.52" rx="11.01" ry="9.48"/>
			<g>
				<g>
					<g>
						<path class="st15" d="M167.91,132.55c8.55,17.98-18.68,41.72-41.72,41.72c-32.47,0-41.72-20.77-41.72-41.72
							c0-23.04,18.68-41.72,41.72-41.72S158.02,111.74,167.91,132.55z"/>
						<g>
							<g>
								
									<ellipse transform="matrix(0.961 -0.2764 0.2764 0.961 -34.5682 36.4255)" class="st16" cx="111.93" cy="140.84" rx="3.83" ry="6.32"/>
								<circle class="st2" cx="110.28" cy="138.37" r="1.83"/>
							</g>
							<g>
								
									<ellipse transform="matrix(0.961 -0.2764 0.2764 0.961 -31.9486 43.723)" class="st16" cx="139.13" cy="135.2" rx="3.83" ry="6.32"/>
								<circle class="st2" cx="137.48" cy="132.73" r="1.83"/>
							</g>
							
								<ellipse transform="matrix(0.9268 -0.3757 0.3757 0.9268 -49.2496 50.2275)" class="st17" cx="104.18" cy="151.42" rx="4.17" ry="3.03"/>
							
								<ellipse transform="matrix(0.9268 -0.3757 0.3757 0.9268 -41.4621 66.3135)" class="st17" cx="149.33" cy="139.49" rx="4.17" ry="3.03"/>
						</g>
					</g>
					<path class="st18" d="M124.02,139.54c0,0,0.59,2.26,0.98,2.95c0,0,3.27,0.85,5.04,0c0,0-0.51,4.17-5.43,3.27
						C124.61,145.76,121.45,144.64,124.02,139.54"/>
				</g>
				<path class="st19" d="M119.79,153.76c-0.13-0.17,0.08-0.38,0.25-0.26c2.36,1.74,8.92,5.51,12.94,2.54
					c5.14-3.8,4.21-8.95,4.34-10.08c0.13-1.13,0.79,0.74,0.79,0.74s1.06,6.96-2.69,9.98c-0.2,0.16,0.21-0.15,0,0
					C133.95,157.68,126.33,162.06,119.79,153.76z"/>
			</g>
		</g>
		<path class="st20" d="M97.99,147.67c0,0-4.19,5.06-6.98-0.44c0,0-7.42-12.39-0.52-28.1c0,0,3.14,4.1,1.57,7.51
			c0,0,5.15,2.38,4.54-2.88c0,0-3.75-12.57,2.27-15.19c0,0,3.87,11.69,8.12,12.83c0,0,10.91,3.32,13.35-2.62
			c0,0-8.37,0.42-10.74-3.32c0,0-3.58-5.32,8.38-9.25c0,0,9.95,8.81,10.3,10.56c0,0,1.05,2.44-1.22,4.36c0,0,7.51,1.75,6.55-6.63
			c0,0,2.01,7.77,10.91,13c0,0,17.02,4.71,8.47-6.11c0,0,0.17,4.36-4.63,3.4c0,0-0.87-8.38,2.36-6.72c0,0,12.22,9.43,12.57,16.23
			c0,0,0.26,18.07-5.67,8.81c0,0-5.24,5.41,2.88,8.2c0,0,14.66,2.53,15.27-15.1c0,0,7.16,3.49,7.59,0.17c0,0-4.88-2.13-5.24-4.8
			c0,0,2.01-22.26-7.33-30.46c0,0,6.55,3.84,7.59-4.97c0,0-3.49,4.19-6.37,2.18c0,0-11.96-24.7-25.48-19.29c0,0,7.51-4.36,4.89-5.59
			c0,0-8.38,3.4-10.65,2.62c0,0-14.66-4.31-22.52-2.09c0,0-16.76,5.5-16.23,11.17c0,0-3.67-5.85,0.87-8.29c0,0-5.06-1.75-5.76,7.42
			c0,0-12.39-4.36-14.4,2.09c0,0,6.63,0.35,6.72,1.57c0,0-9.51,7.16-9.51,17.19c0,0-5.5,7.59-9.6,7.77c0,0,1.66,2.79,5.06,0.87
			c0,0-9.78,16.41-3.4,19.64c0,0,0.52,12.57-2.71,13.53c0,0,5.67,1.13,6.98-5.32C76.26,141.64,84.55,165.21,97.99,147.67z"/>
		<path class="st21" d="M98.09,147.18c0,0-2.74,7.42-10.82,5.7c-8.08-1.71-5.97-17.52-5.97-17.52l-4.85,0.83
			c0,0,1.6-16.73,10.34-23.13l-3.38-1.37c0,0,17.21-12.01,19.54-18.25l1.23,4.21c0,0,13.36-8.93,24.59-7.95
			c0,0-0.49,13.22,14.43,4.96c0,0,10.52,4.24,4.98,14.23c0,0,13.53-3.56,18.13,10.27l-2.38,1.27c0,0,6.23,10.19,5.08,16.19
			c0,0,11.19-4.52,9.59-9.92c0,0-1.79,5.08,5.05,10.17c0,0-1.37,3.51-7.98,0.12c0,0,1.22,12.46-10.19,14.75
			c0,0-8.72,12.68-10.8,12.12c0,0-2.37-29.5-14.21-32.85c0,0-3.19-5.74-11.58-4.47l-1.67-1.89c0,0-16.76,8.61-27.29-2.44l-3.02,8.07
			c0,0-0.7,2.61-4.44-0.6C92.48,129.69,89.26,144.51,98.09,147.18z"/>
	</g>
	<g>
		<path class="st22" d="M135.95,83.57c0,1.55-3.11,2.81-6.94,2.81c-3.83,0-6.94-1.26-6.94-2.81c0-1.55,4.02-1.77,7.85-1.77
			C133.76,81.8,135.95,82.01,135.95,83.57z"/>
		<path class="st22" d="M159.5,91.26c4.09,4.09,8.19,6.59,6.43,8.35c-1.76,1.76-4.55,0.95-8.64-3.14
			c-4.09-4.09-10.47-8.32-8.7-10.08C150.35,84.62,155.41,87.17,159.5,91.26z"/>
		<path class="st22" d="M89.25,97.44c0.91-1.39,1.75-3.87,3.39-2.81c1.64,1.06,0.48,3.34-0.42,4.73c-0.91,1.39-2.67,2.88-4.31,1.81
			C86.26,100.11,88.34,98.83,89.25,97.44z"/>
		<path class="st22" d="M76.11,121.84c0.62-1.54,1.12-4.08,2.48-3.53c1.36,0.55,0.6,2.98-0.02,4.52c-0.62,1.54-1.91,3.4-3.27,2.85
			C73.94,125.14,75.49,123.39,76.11,121.84z"/>
	</g>
	<path class="st23" d="M145.08,235.65c0,0,18.61-18.24,22.83-23.58c0,0,13.64-22.18,11.53-22.32l3.93,1.06
		c0,0-5.93,16.74-11.59,22.52c0,0-19.31,21.85-24.77,24.18L145.08,235.65z"/>
	<path class="st23" d="M148.61,239.23c0,0,22.16-22.08,24.17-25.51c0,0,15.11-20.02,13.16-21.82l6.98,1.67
		c0,0-4.97,16.13-13.29,23.73c0,0-21.15,22.87-27.46,24.53L148.61,239.23z"/>
	<path class="st24" d="M127.01,173.5l-2.29-3.7l-2.24,3.7c0,0,0.12,47.52,34.64,72.69c0,0,26.04-8.69,33.02-31.17
		c0,0-21.56,5.75-38.5-11.37C151.63,203.65,129.56,182.57,127.01,173.5z"/>
	<g>
		<path class="st25" d="M131.22,40.4c-17.22,0-31.18,5.55-31.18,12.39c0,6.84,13.96,12.39,31.18,12.39
			c17.22,0,31.18-5.55,31.18-12.39C162.4,45.95,148.44,40.4,131.22,40.4z M131.48,57.9c-13.1,0-23.72-3.3-23.72-7.37
			c0-4.07,10.62-7.37,23.72-7.37c13.1,0,23.72,3.3,23.72,7.37C155.2,54.6,144.58,57.9,131.48,57.9z"/>
		
			<ellipse transform="matrix(0.9867 -0.1626 0.1626 0.9867 -7.8426 24.5502)" class="st26" cx="146.01" cy="60.17" rx="5.43" ry="0.96"/>
		
			<ellipse transform="matrix(0.8378 -0.546 0.546 0.8378 -5.1268 94.6311)" class="st26" cx="156.69" cy="55.94" rx="3.17" ry="0.96"/>
		<path class="st26" d="M106.88,54.32c1.77,1.64,4.28,3.52,3.81,4.03s-3.76-0.55-5.52-2.19c-1.77-1.64-2.32-4.16-1.85-4.67
			C103.79,50.98,105.11,52.68,106.88,54.32z"/>
	</g>
</g>
</svg>
