<?xml version="1.0" encoding="utf-8"?>
<!-- Generator: Adobe Illustrator 26.0.3, SVG Export Plug-In . SVG Version: 6.00 Build 0)  -->
<svg version="1.1" id="Layer_1" xmlns="http://www.w3.org/2000/svg" xmlns:xlink="http://www.w3.org/1999/xlink" x="0px" y="0px"
	 viewBox="0 0 708.66 603.51" style="enable-background:new 0 0 708.66 603.51;" xml:space="preserve">
<style type="text/css">
	.st0{fill:none;}
	.st1{fill:none;stroke:#231F20;stroke-width:5.76;}
	.st2{fill:#231F20;}
	.st3{fill:#BBF9C1;}
	.st4{fill:#A2E0AA;}
	.st5{fill:#89CE8F;}
	.st6{fill:#F9F9F9;}
	.st7{fill:#DF443C;}
	.st8{fill:#B82325;}
	.st9{fill:#A3040C;}
	.st10{fill:#B22F42;}
	.st11{fill:#313130;}
	.st12{fill:#3C3C3B;}
	.st13{fill:#D9D9D5;}
	.st14{fill:#80807E;}
	.st15{fill:#202020;}
	.st16{fill:#EBC1BF;stroke:#7C5D5B;stroke-width:0.25;stroke-miterlimit:10;}
	.st17{opacity:0.2;fill:#663D44;}
	.st18{fill:#D36C6E;stroke:url(#_x36__dpi_90_x25_);stroke-width:0.5;stroke-miterlimit:10;}
	.st19{opacity:0.2;fill:#202020;}
	.st20{fill:#EBC1BF;}
	.st21{fill:#7C5D5B;}
	.st22{opacity:0.3;}
	.st23{opacity:0.5;fill:#FFFFFF;}
	.st24{opacity:0.2;fill:#FFFFFF;}
	.st25{opacity:0.5;fill:#202020;}
	.st26{fill:#402124;}
	.st27{fill:#1C1215;}
	.st28{opacity:0.2;fill:#7A2328;}
	.st29{fill:url(#_x31_0_lpi_80_x25_);}
	.st30{fill:#EBC1BF;stroke:#7C5D5B;stroke-width:0.5;stroke-miterlimit:10;}
	
		.st31{fill:none;stroke:url(#_x36__dpi_90_x25_);stroke-width:0.5;stroke-linecap:round;stroke-linejoin:round;stroke-miterlimit:10;}
	.st32{fill:none;stroke:#3030C1;stroke-width:0.5;stroke-miterlimit:10;}
	.st33{fill:none;stroke:#492830;stroke-width:0.5;stroke-linecap:round;stroke-linejoin:round;stroke-miterlimit:10;}
	.st34{opacity:0.2;}
	.st35{fill:#392726;}
	.st36{opacity:0.5;fill:#663D44;}
	.st37{fill:#EDE2E5;}
	.st38{opacity:0.7;fill:#392726;}
	.st39{opacity:0.3;fill:#202020;}
	.st40{opacity:0.15;}
	.st41{font-family:'MVBoli';}
	.st42{font-size:3.6751px;}
</style>
<pattern  y="656.08" width="72" height="72" patternUnits="userSpaceOnUse" id="_x31_0_lpi_80_x25_" viewBox="72.25 -72 72 72" style="overflow:visible;">
	<g>
		<rect x="72.25" y="-72" class="st0" width="72" height="72"/>
		<g>
			<line class="st1" x1="144" y1="-3.6" x2="216.5" y2="-3.6"/>
			<line class="st1" x1="144" y1="-18" x2="216.5" y2="-18"/>
			<line class="st1" x1="144" y1="-32.4" x2="216.5" y2="-32.4"/>
			<line class="st1" x1="144" y1="-46.8" x2="216.5" y2="-46.8"/>
			<line class="st1" x1="144" y1="-61.2" x2="216.5" y2="-61.2"/>
			<line class="st1" x1="144" y1="-10.8" x2="216.5" y2="-10.8"/>
			<line class="st1" x1="144" y1="-25.2" x2="216.5" y2="-25.2"/>
			<line class="st1" x1="144" y1="-39.6" x2="216.5" y2="-39.6"/>
			<line class="st1" x1="144" y1="-54" x2="216.5" y2="-54"/>
			<line class="st1" x1="144" y1="-68.4" x2="216.5" y2="-68.4"/>
		</g>
		<g>
			<line class="st1" x1="72" y1="-3.6" x2="144.5" y2="-3.6"/>
			<line class="st1" x1="72" y1="-18" x2="144.5" y2="-18"/>
			<line class="st1" x1="72" y1="-32.4" x2="144.5" y2="-32.4"/>
			<line class="st1" x1="72" y1="-46.8" x2="144.5" y2="-46.8"/>
			<line class="st1" x1="72" y1="-61.2" x2="144.5" y2="-61.2"/>
			<line class="st1" x1="72" y1="-10.8" x2="144.5" y2="-10.8"/>
			<line class="st1" x1="72" y1="-25.2" x2="144.5" y2="-25.2"/>
			<line class="st1" x1="72" y1="-39.6" x2="144.5" y2="-39.6"/>
			<line class="st1" x1="72" y1="-54" x2="144.5" y2="-54"/>
			<line class="st1" x1="72" y1="-68.4" x2="144.5" y2="-68.4"/>
		</g>
		<g>
			<line class="st1" x1="0" y1="-3.6" x2="72.5" y2="-3.6"/>
			<line class="st1" x1="0" y1="-18" x2="72.5" y2="-18"/>
			<line class="st1" x1="0" y1="-32.4" x2="72.5" y2="-32.4"/>
			<line class="st1" x1="0" y1="-46.8" x2="72.5" y2="-46.8"/>
			<line class="st1" x1="0" y1="-61.2" x2="72.5" y2="-61.2"/>
			<line class="st1" x1="0" y1="-10.8" x2="72.5" y2="-10.8"/>
			<line class="st1" x1="0" y1="-25.2" x2="72.5" y2="-25.2"/>
			<line class="st1" x1="0" y1="-39.6" x2="72.5" y2="-39.6"/>
			<line class="st1" x1="0" y1="-54" x2="72.5" y2="-54"/>
			<line class="st1" x1="0" y1="-68.4" x2="72.5" y2="-68.4"/>
		</g>
	</g>
</pattern>
<pattern  y="656.08" width="48" height="48" patternUnits="userSpaceOnUse" id="_x36__dpi_90_x25_" viewBox="10.8 -58.8 48 48" style="overflow:visible;">
	<g>
		<rect x="10.8" y="-58.8" class="st0" width="48" height="48"/>
		<g>
			<path class="st2" d="M34.8,0c5.96,0,10.8-4.83,10.8-10.8c0-5.96-4.84-10.8-10.8-10.8c-5.96,0-10.8,4.84-10.8,10.8
				C24-4.83,28.83,0,34.8,0z"/>
			<circle class="st2" cx="58.8" cy="-10.8" r="10.8"/>
			<path class="st2" d="M34.8-24c5.96,0,10.8-4.83,10.8-10.8c0-5.96-4.84-10.8-10.8-10.8c-5.96,0-10.8,4.84-10.8,10.8
				C24-28.83,28.83-24,34.8-24z"/>
			<circle class="st2" cx="58.8" cy="-34.8" r="10.8"/>
			<path class="st2" d="M46.8-12c5.96,0,10.8-4.83,10.8-10.8c0-5.96-4.84-10.8-10.8-10.8c-5.96,0-10.8,4.84-10.8,10.8
				C36-16.83,40.83-12,46.8-12z"/>
			<path class="st2" d="M22.8-12c5.96,0,10.8-4.83,10.8-10.8c0-5.96-4.84-10.8-10.8-10.8c-5.96,0-10.8,4.84-10.8,10.8
				C12-16.83,16.83-12,22.8-12z"/>
			<path class="st2" d="M46.8-36c5.96,0,10.8-4.83,10.8-10.8c0-5.96-4.84-10.8-10.8-10.8c-5.96,0-10.8,4.84-10.8,10.8
				C36-40.83,40.83-36,46.8-36z"/>
			<path class="st2" d="M22.8-36c5.96,0,10.8-4.83,10.8-10.8c0-5.96-4.84-10.8-10.8-10.8c-5.96,0-10.8,4.84-10.8,10.8
				C12-40.83,16.83-36,22.8-36z"/>
		</g>
		<g>
			<circle class="st2" cx="10.8" cy="-10.8" r="10.8"/>
			<circle class="st2" cx="10.8" cy="-34.8" r="10.8"/>
		</g>
		<g>
			<path class="st2" d="M34.8-48c5.96,0,10.8-4.83,10.8-10.8c0-5.96-4.84-10.8-10.8-10.8c-5.96,0-10.8,4.84-10.8,10.8
				C24-52.83,28.83-48,34.8-48z"/>
			<circle class="st2" cx="58.8" cy="-58.8" r="10.8"/>
		</g>
		<g>
			<circle class="st2" cx="10.8" cy="-58.8" r="10.8"/>
		</g>
	</g>
</pattern>
<rect x="-76.75" class="st3" width="862.16" height="603.51"/>
<path class="st4" d="M592.37,432.04v-1.06c0-4.77-3.88-8.64-8.64-8.64h-0.5H162.86h-26.07h4.54c-4.77,0-8.64,3.88-8.64,8.64v1.06
	c0,4.76,3.88,8.64,8.64,8.64h-4.54h18.48c4.77,0,8.64,3.88,8.64,8.64v1.06c0,4.77-3.88,8.64-8.64,8.64h-40.94h-13.41
	c-4.77,0-8.64,3.88-8.64,8.64v1.06c0,4.77,3.88,8.64,8.64,8.64h13.41h72.49c4.77,0,8.64,3.88,8.64,8.64v1.06
	c0,4.76-3.88,8.64-8.64,8.64h-58.35h-14.13h-13.41c-4.77,0-8.64,3.88-8.64,8.64v1.06c0,4.77,3.88,8.65,8.64,8.65h13.41h77.57
	c4.77,0,8.64,3.88,8.64,8.64v1.06c0,4.77-3.88,8.64-8.64,8.64h-42.44l0,0h4.54c-4.77,0-8.64,3.88-8.64,8.64v1.06
	c0,4.76,3.88,8.64,8.64,8.64h-4.54h37.5h366.91h13.03c4.76,0,8.64-3.88,8.64-8.64v-1.06c0-4.77-3.88-8.64-8.64-8.64h-39.16h-0.5
	c-4.77,0-8.64-3.88-8.64-8.64v-1.06c0-4.77,3.88-8.64,8.64-8.64h74.82h14.67c4.77,0,8.64-3.88,8.64-8.65v-1.06
	c0-4.77-3.88-8.64-14.1-8.64h-14.67h-64.41c-4.77,0-8.64-3.88-8.64-8.64v-1.06c0-4.77,3.88-8.64,8.64-8.64h69.87h11.35
	c4.77,0,8.64-3.88,8.64-8.64v-1.06c0-4.77-3.88-8.64-8.64-8.64h-11.35h-40.01c-4.77,0-8.64-3.88-8.64-8.64v-1.06
	c0-4.77,3.88-8.64,8.64-8.64h0.5c0,0,0,0,0,0h21.19C588.49,440.69,592.37,436.81,592.37,432.04z"/>
<g>
	<path class="st4" d="M42.73,404.58l269.7-271.72c0,0,42.19-55.27,94.92,0l263.67,275.6L42.73,404.58z"/>
	<path class="st5" d="M356.55,108.61c-26.77,1.35-44.45,24.5-44.45,24.5L42.4,404.83l314.15,1.94V108.61z"/>
	<path class="st6" d="M406.64,132.38c-52.2-54.17-93.97,0-93.97,0l-39.11,39.02h13.72v12.4l0.05,0.49c0,9.34,6.83,16.92,15.26,16.92
		c8.42,0,15.26-7.57,15.26-16.92l0.04-0.49v-12.4h0.02l0.02-0.24c0-7.87,5.75-14.25,12.85-14.25c7.1,0,12.85,6.38,12.85,14.25
		l0.02,0.24h0.02v0.18l0,0v12.22l0.05,0.49c0,9.34,6.83,16.92,15.26,16.92c8.42,0,15.26-7.57,15.26-16.92l0.04-0.49v-12.4h0.02
		l0.02-0.24c0-7.87,5.75-14.25,12.85-14.25c7.1,0,12.85,6.38,12.85,14.25l0.02,0.24h0.02v0.18v0v12.22l0.05,0.49
		c0,9.34,6.83,16.92,15.25,16.92c8.42,0,15.26-7.57,15.26-16.92l0.04-0.49v-12.4h13.72L406.64,132.38z"/>
</g>
<g>
	<g>
		<g>
			<polygon class="st7" points="104.58,298.13 104.58,241.2 93.17,253.28 93.17,298.13 			"/>
			<path class="st8" d="M104.65,298.2H93.1v-44.95l0.02-0.02l11.53-12.21V298.2z M93.24,298.06h11.27v-56.68L93.24,253.3V298.06z"/>
		</g>
		<g>
			<rect x="93.17" y="357.2" class="st7" width="11.41" height="55.01"/>
			<path class="st8" d="M104.65,412.28H93.1v-55.15h11.55V412.28z M93.24,412.14h11.27v-54.87H93.24V412.14z"/>
		</g>
		<g>
			<rect x="93.17" y="300.22" class="st7" width="11.41" height="54.9"/>
			<path class="st8" d="M104.65,355.19H93.1v-55.04h11.55V355.19z M93.24,355.04h11.27v-54.76H93.24V355.04z"/>
		</g>
	</g>
	<g>
		<g>
			<polygon class="st7" points="119.77,339.97 119.77,311.2 113.71,317.81 113.71,339.97 			"/>
			<path class="st8" d="M119.84,340.04h-6.2v-22.26l0.02-0.02l6.18-6.74V340.04z M113.78,339.9h5.92v-28.52l-5.92,6.45V339.9z"/>
		</g>
		<g>
			<rect x="113.71" y="392.52" class="st7" width="6.06" height="19.7"/>
			<path class="st8" d="M119.84,412.28h-6.2v-19.84h6.2V412.28z M113.78,412.14h5.92v-19.55h-5.92V412.14z"/>
		</g>
		<g>
			<rect x="113.71" y="341.83" class="st7" width="6.06" height="48.83"/>
			<path class="st8" d="M119.84,390.73h-6.2v-48.97h6.2V390.73z M113.78,390.59h5.92V341.9h-5.92V390.59z"/>
		</g>
	</g>
	<g>
		<g>
			<rect x="125.88" y="274.28" class="st7" width="11.41" height="54.9"/>
			<path class="st8" d="M137.37,329.25h-11.55v-55.04h11.55V329.25z M125.95,329.11h11.27v-54.76h-11.27V329.11z"/>
		</g>
		<g>
			<polygon class="st7" points="137.3,272.19 137.3,241.2 125.88,253.28 125.88,272.19 			"/>
			<path class="st8" d="M137.37,272.26h-11.55v-19.02l0.02-0.02l11.53-12.21V272.26z M125.95,272.12h11.27v-30.75l-11.27,11.93
				V272.12z"/>
		</g>
		<g>
			<rect x="125.88" y="389.21" class="st7" width="11.41" height="23"/>
			<path class="st8" d="M137.37,412.28h-11.55v-23.14h11.55V412.28z M125.95,412.14h11.27v-22.86h-11.27V412.14z"/>
		</g>
		<g>
			<rect x="125.88" y="331.27" class="st7" width="11.41" height="55.85"/>
			<path class="st8" d="M137.37,387.2h-11.55v-56h11.55V387.2z M125.95,387.06h11.27v-55.71h-11.27V387.06z"/>
		</g>
	</g>
	<g>
		<g>
			<polygon class="st7" points="152.49,339.97 152.49,286.75 146.43,293.61 146.43,339.97 			"/>
			<path class="st8" d="M152.56,340.04h-6.2v-46.46l0.02-0.02l6.19-7V340.04z M146.5,339.9h5.92v-52.96l-5.92,6.7V339.9z"/>
		</g>
		<g>
			<rect x="146.43" y="341.83" class="st7" width="6.06" height="48.83"/>
			<path class="st8" d="M152.56,390.73h-6.2v-48.97h6.2V390.73z M146.5,390.59h5.92V341.9h-5.92V390.59z"/>
		</g>
		<g>
			<rect x="146.43" y="392.52" class="st7" width="6.06" height="19.7"/>
			<path class="st8" d="M152.56,412.28h-6.2v-19.84h6.2V412.28z M146.5,412.14h5.92v-19.55h-5.92V412.14z"/>
		</g>
	</g>
	<g>
		<g>
			<path class="st8" d="M137.34,330.92l-0.1-0.6c0.06-0.01,5.73-0.96,12.09-4.9c5.86-3.63,13.53-10.62,16.78-23.31l0.59,0.15
				c-3.3,12.89-11.11,19.99-17.07,23.68C143.17,329.95,137.4,330.91,137.34,330.92z"/>
		</g>
		<g>
			<path class="st9" d="M166.37,301.73c0,0-4.99-6.17,0-14.98C166.37,286.75,172.19,296,166.37,301.73z"/>
			<path class="st8" d="M166.35,302.18l-0.21-0.26c-0.05-0.06-5.06-6.43-0.03-15.32l0.25-0.44l0.27,0.43
				c0.06,0.09,5.88,9.52-0.04,15.36L166.35,302.18z M166.38,287.37c-3.86,7.26-0.81,12.64,0.03,13.89
				C170.89,296.48,167.41,289.24,166.38,287.37z"/>
		</g>
		<g>
			<path class="st9" d="M164.16,309.65c0,0,1.71-7.92,11.36-8.91C175.52,300.75,171.96,311.21,164.16,309.65z"/>
			<path class="st8" d="M165.72,310.11c-0.53,0-1.07-0.05-1.62-0.16l-0.3-0.06l0.06-0.3c0.02-0.08,1.87-8.15,11.62-9.15l0.47-0.05
				l-0.15,0.45C175.68,301.22,172.57,310.11,165.72,310.11z M164.54,309.42c0.4,0.06,0.79,0.09,1.18,0.09
				c5.57,0,8.61-6.59,9.34-8.41C167.21,302.14,164.96,308.01,164.54,309.42z"/>
		</g>
		<g>
			<path class="st9" d="M162.5,311.39c0,0-7.43-1.97-8.18-12.22C154.32,299.17,164.12,303.14,162.5,311.39z"/>
			<path class="st8" d="M162.74,311.76l-0.31-0.08c-0.08-0.02-7.65-2.14-8.4-12.48l-0.04-0.49l0.45,0.18
				c0.1,0.04,10.01,4.16,8.36,12.55L162.74,311.76z M154.67,299.66c0.81,8.29,6.23,10.82,7.6,11.33
				C163.33,304.31,156.52,300.55,154.67,299.66z"/>
		</g>
	</g>
	<g>
		<g>
			<path class="st8" d="M151.02,374.74l-0.32-0.51c0.04-0.03,4.39-2.76,8.38-8.15c3.68-4.97,7.81-13.27,6.6-24.66l0.6-0.06
				c1.23,11.59-2.98,20.05-6.73,25.1C155.49,371.94,151.07,374.71,151.02,374.74z"/>
		</g>
		<g>
			<path class="st9" d="M165.81,341.43c0,0-4.74-6.38,0.58-14.97C166.39,326.46,171.84,335.96,165.81,341.43z"/>
			<path class="st8" d="M165.76,341.88l-0.2-0.27c-0.05-0.07-4.8-6.64,0.56-15.31l0.27-0.43l0.25,0.44
				c0.06,0.1,5.51,9.77-0.64,15.34L165.76,341.88z M166.37,327.08c-4.13,7.09-1.3,12.59-0.5,13.88
				C170.53,336.37,167.32,329,166.37,327.08z"/>
		</g>
		<g>
			<path class="st9" d="M166.58,345.73c0,0,1.29-8.01,10.87-9.57C177.45,336.16,174.46,346.81,166.58,345.73z"/>
			<path class="st8" d="M167.69,346.11c-0.38,0-0.77-0.03-1.15-0.08l-0.31-0.04l0.05-0.3c0.01-0.08,1.44-8.24,11.12-9.82l0.47-0.08
				l-0.13,0.46C177.72,336.34,174.88,346.11,167.69,346.11z M166.95,345.47c0.25,0.02,0.5,0.04,0.75,0.04
				c5.86,0,8.67-7.06,9.32-8.96C169.23,338.04,167.3,344.03,166.95,345.47z"/>
		</g>
		<g>
			<path class="st9" d="M165.57,351.47c0,0-7.59,1.1-11.87-8.12C153.7,343.34,164.19,343.18,165.57,351.47z"/>
			<path class="st8" d="M164.81,351.81c-2.26,0-7.89-0.81-11.38-8.34l-0.2-0.42l0.51-0.01c1.1,0,10.76,0.23,12.12,8.38l0.05,0.31
				l-0.31,0.04C165.6,351.77,165.31,351.81,164.81,351.81z M154.19,343.65c3.36,6.8,8.52,7.55,10.62,7.55c0.16,0,0.3-0.01,0.4-0.01
				C163.86,344.5,156.28,343.74,154.19,343.65z"/>
		</g>
	</g>
	<g>
		<g>
			<path class="st8" d="M104.63,371.72l-0.1-0.6c0.06-0.01,5.73-0.96,12.09-4.9c5.86-3.63,13.53-10.62,16.78-23.3l0.59,0.15
				c-3.3,12.89-11.11,19.99-17.07,23.68C110.46,370.74,104.69,371.71,104.63,371.72z"/>
		</g>
		<g>
			<path class="st9" d="M133.66,342.53c0,0-4.99-6.17,0-14.98C133.66,327.55,139.48,336.8,133.66,342.53z"/>
			<path class="st8" d="M133.63,342.98l-0.21-0.26c-0.05-0.06-5.06-6.43-0.03-15.32l0.25-0.44l0.27,0.43
				c0.06,0.09,5.88,9.52-0.04,15.35L133.63,342.98z M133.67,328.17c-3.86,7.26-0.81,12.64,0.03,13.89
				C138.18,337.28,134.69,330.04,133.67,328.17z"/>
		</g>
		<g>
			<path class="st9" d="M131.44,350.45c0,0,1.71-7.92,11.36-8.9C142.8,341.55,139.24,352.01,131.44,350.45z"/>
			<path class="st8" d="M133,350.91c-0.53,0-1.07-0.05-1.62-0.16l-0.3-0.06l0.06-0.3c0.02-0.08,1.87-8.14,11.62-9.14l0.47-0.05
				l-0.15,0.45C142.96,342.02,139.86,350.91,133,350.91z M131.82,350.21c0.4,0.06,0.8,0.1,1.18,0.1c5.57,0,8.61-6.59,9.34-8.4
				C134.39,342.94,132.23,348.78,131.82,350.21z"/>
		</g>
		<g>
			<path class="st9" d="M129.79,352.18c0,0-7.43-1.97-8.18-12.21C121.61,339.97,131.4,343.94,129.79,352.18z"/>
			<path class="st8" d="M130.02,352.56l-0.31-0.08c-0.08-0.02-7.65-2.14-8.41-12.48l-0.04-0.48l0.45,0.18
				c0.1,0.04,10.01,4.16,8.36,12.55L130.02,352.56z M121.95,340.46c0.81,8.31,6.23,10.82,7.6,11.33
				C130.61,345.11,123.81,341.35,121.95,340.46z"/>
		</g>
	</g>
	<g>
		<g>
			<path class="st8" d="M104.76,310.96l-0.32-0.51c0.12-0.07,11.8-7.52,10.22-22.39l0.6-0.06
				C116.89,303.24,104.88,310.88,104.76,310.96z"/>
		</g>
		<g>
			<path class="st9" d="M114.84,288.04c0,0-3.25-4.37,0.4-10.26C115.23,277.79,118.97,284.3,114.84,288.04z"/>
			<path class="st8" d="M114.8,288.49l-0.2-0.27c-0.03-0.05-3.33-4.6,0.38-10.6l0.27-0.43l0.25,0.44c0.04,0.07,3.81,6.76-0.45,10.63
				L114.8,288.49z M115.22,278.41c-2.58,4.57-0.92,8.14-0.32,9.16C117.8,284.58,115.93,279.91,115.22,278.41z"/>
		</g>
		<g>
			<path class="st9" d="M115.37,290.99c0,0,0.88-5.49,7.45-6.56C122.82,284.43,120.77,291.73,115.37,290.99z"/>
			<path class="st8" d="M116.13,291.34c-0.26,0-0.53-0.02-0.8-0.06l-0.31-0.04l0.05-0.3c0.01-0.06,1-5.71,7.7-6.81l0.47-0.08
				l-0.13,0.46C123.03,284.79,121.13,291.34,116.13,291.34z M115.74,290.73c0.13,0.01,0.27,0.01,0.4,0.01c3.8,0,5.71-4.44,6.24-5.92
				C117.34,285.86,116.02,289.6,115.74,290.73z"/>
		</g>
		<g>
			<path class="st9" d="M114.68,294.92c0,0-5.2,0.75-8.13-5.57C106.54,289.36,113.73,289.24,114.68,294.92z"/>
			<path class="st8" d="M114.16,295.25c-1.57,0-5.47-0.56-7.88-5.77l-0.2-0.42l0.5-0.01c0.3,0,7.44,0.07,8.4,5.82l0.05,0.3
				l-0.31,0.04C114.71,295.22,114.5,295.25,114.16,295.25z M107.03,289.67c2.28,4.48,5.72,4.98,7.12,4.98c0.06,0,0.11,0,0.16,0
				C113.38,290.38,108.63,289.76,107.03,289.67z"/>
		</g>
	</g>
	<g>
		<g>
			<path class="st8" d="M137.17,283.93l-0.1-0.6c0.14-0.02,14.31-2.49,18.24-17.82l0.59,0.15
				C151.87,281.38,137.32,283.9,137.17,283.93z"/>
		</g>
		<g>
			<path class="st9" d="M155.58,265.29c0,0-3.17-3.91,0-9.51C155.58,255.79,159.27,261.66,155.58,265.29z"/>
			<path class="st8" d="M155.55,265.74l-0.21-0.26c-0.03-0.04-3.26-4.14-0.03-9.85l0.25-0.44l0.27,0.43
				c0.04,0.06,3.78,6.12-0.04,9.88L155.55,265.74z M155.59,256.42c-2.17,4.27-0.57,7.46,0.03,8.4
				C158.14,261.97,156.31,257.8,155.59,256.42z"/>
		</g>
		<g>
			<path class="st9" d="M154.17,270.32c0,0,1.09-5.03,7.21-5.65C161.38,264.67,159.12,271.31,154.17,270.32z"/>
			<path class="st8" d="M155.16,270.72c-0.34,0-0.7-0.04-1.05-0.11l-0.3-0.06l0.06-0.3c0.01-0.05,1.21-5.25,7.47-5.89l0.47-0.05
				l-0.15,0.45C161.59,265.01,159.59,270.72,155.16,270.72z M154.56,270.08c0.2,0.03,0.41,0.04,0.6,0.04c3.31,0,5.19-3.76,5.75-5.09
				C156.34,265.72,154.9,269.04,154.56,270.08z"/>
		</g>
		<g>
			<path class="st9" d="M153.12,271.42c0,0-4.72-1.25-5.19-7.75C147.93,263.67,154.15,266.19,153.12,271.42z"/>
			<path class="st8" d="M153.36,271.79l-0.31-0.08c-0.05-0.01-4.93-1.38-5.42-8.02l-0.04-0.48l0.45,0.18
				c0.06,0.03,6.44,2.68,5.38,8.09L153.36,271.79z M148.28,264.17c0.55,4.89,3.6,6.46,4.6,6.85
				C153.41,267.12,149.62,264.85,148.28,264.17z"/>
		</g>
	</g>
	<g>
		<g>
			<path class="st8" d="M120.57,329.55l-0.32-0.51c0.1-0.06,10.09-6.43,8.74-19.14l0.6-0.06
				C130.98,322.93,120.67,329.48,120.57,329.55z"/>
		</g>
		<g>
			<path class="st9" d="M129.18,309.88c0,0-2.78-3.75,0.34-8.79C129.52,301.09,132.72,306.67,129.18,309.88z"/>
			<path class="st8" d="M129.14,310.33l-0.2-0.27c-0.03-0.04-2.87-3.97,0.32-9.13l0.27-0.43l0.25,0.44c0.03,0.06,3.28,5.83-0.4,9.16
				L129.14,310.33z M129.5,301.72c-2.11,3.8-0.79,6.76-0.26,7.68C131.61,306.91,130.13,303.06,129.5,301.72z"/>
		</g>
		<g>
			<path class="st9" d="M129.63,312.41c0,0,0.76-4.7,6.38-5.62C136.02,306.79,134.26,313.05,129.63,312.41z"/>
			<path class="st8" d="M130.29,312.76c-0.23,0-0.46-0.02-0.69-0.05l-0.31-0.04l0.05-0.3c0.01-0.05,0.86-4.93,6.63-5.87l0.47-0.08
				l-0.13,0.46C136.24,307.11,134.6,312.76,130.29,312.76z M130.01,312.14c0.09,0.01,0.19,0.01,0.28,0.01
				c3.17,0,4.79-3.64,5.28-4.97C131.46,308.07,130.28,311.15,130.01,312.14z"/>
		</g>
		<g>
			<path class="st9" d="M129.04,315.78c0,0-4.46,0.64-6.97-4.77C122.07,311.01,128.23,310.91,129.04,315.78z"/>
			<path class="st8" d="M128.59,316.1c-1.35,0-4.71-0.48-6.79-4.97l-0.2-0.42l0.47-0.01h0c0.31,0,6.44,0.06,7.27,5.02l0.05,0.3
				l-0.31,0.04C129.08,316.08,128.89,316.1,128.59,316.1z M122.56,311.33c1.94,3.76,4.84,4.17,6.03,4.17c0.03,0,0.06,0,0.09,0
				C127.87,311.98,123.98,311.42,122.56,311.33z"/>
		</g>
	</g>
</g>
<path class="st9" d="M668.96,403.76l-0.33-0.03H39.7v0.03c-6.27,0-11.36,5.08-11.36,11.36c0,6.27,5.09,11.36,11.36,11.36v0.03
	h628.93l0.33-0.03c6.27,0,11.36-5.09,11.36-11.36C680.32,408.85,675.23,403.76,668.96,403.76z"/>
<g>
	<path class="st9" d="M436.02,272.88c4.71,2.65,9.43,5.31,14.14,7.96c-63.81,115.62-110.95,198.53-202.77,301.48
		c-14.36,16.1-25.83,15.22-29.76,11.42C309.76,489.27,372.89,387.28,436.02,272.88z"/>
	<path class="st10" d="M446.31,278.81C382.5,394.43,335.36,477.34,243.54,580.29c-11.04,12.38-20.36,14.72-25.87,13.42
		c-0.01,0.01-0.02,0.03-0.04,0.04c3.93,3.8,15.4,4.68,29.76-11.42c91.82-102.95,138.97-185.86,202.77-301.48
		c-4.71-2.66-9.42-5.31-14.14-7.96c-0.02,0.03-0.04,0.07-0.06,0.1C439.41,274.92,442.86,276.86,446.31,278.81z"/>
	<g>
		<path class="st11" d="M478.65,191.26c1.12-2.12,3.25-3.19,4.76-2.4l9.25,4.89c1.51,0.8,1.82,3.16,0.7,5.28l-40.92,77.44
			c-1.12,2.12-3.25,3.19-4.76,2.39l-9.25-4.89c-1.51-0.8-1.82-3.16-0.7-5.28L478.65,191.26z"/>
		<path class="st12" d="M451.3,282.97c0.84-0.45,1.64-1.27,2.21-2.34l0.25-0.48c1.12-2.12,0.9-4.44-0.5-5.18l-14.76-7.8
			c-1.4-0.74-3.44,0.38-4.56,2.51l-0.25,0.48c-0.57,1.07-0.79,2.2-0.69,3.14c-1.69-0.83-3.59-0.44-4.31,0.9l-0.16,0.31
			c-0.73,1.38,0.07,3.22,1.79,4.13l18.09,9.56c1.71,0.9,3.69,0.52,4.42-0.85l0.16-0.31C453.69,285.69,452.93,283.9,451.3,282.97z"/>
		<g>
			<polygon class="st13" points="444.12,262.62 450.19,262.91 453.84,267.76 447.78,267.47 			"/>
			<polygon class="st13" points="447.08,257.02 453.15,257.31 456.8,262.16 450.74,261.87 			"/>
			<polygon class="st13" points="450.04,251.42 456.11,251.71 459.76,256.56 453.7,256.27 			"/>
			<polygon class="st13" points="453,245.81 459.07,246.11 462.73,250.95 456.66,250.66 			"/>
			<polygon class="st13" points="455.96,240.21 462.03,240.5 465.69,245.35 459.62,245.06 			"/>
			<polygon class="st13" points="458.92,234.61 464.99,234.9 468.65,239.75 462.58,239.46 			"/>
			<polygon class="st13" points="461.88,229 467.95,229.3 471.61,234.14 465.54,233.85 			"/>
			<polygon class="st13" points="464.85,223.4 470.91,223.69 474.57,228.54 468.5,228.25 			"/>
			<polygon class="st13" points="467.81,217.8 473.87,218.09 477.53,222.94 471.46,222.65 			"/>
			<polygon class="st13" points="470.77,212.2 476.83,212.48 480.49,217.33 474.43,217.04 			"/>
			<polygon class="st13" points="473.73,206.59 479.8,206.88 483.45,211.73 477.39,211.44 			"/>
			<polygon class="st13" points="476.69,200.99 482.76,201.28 486.41,206.13 480.35,205.84 			"/>
		</g>
		<path class="st14" d="M492.16,201.28l1.19-2.25c1.12-2.12,0.81-4.48-0.7-5.28l-9.25-4.89c-1.51-0.8-3.64,0.28-4.76,2.4l-1.19,2.25
			L492.16,201.28z"/>
	</g>
	
		<rect x="438.12" y="259.34" transform="matrix(0.4672 -0.8841 0.8841 0.4672 -13.5159 539.6392)" class="st11" width="5.76" height="43.38"/>
</g>
<g>
	<g>
		<path class="st5" d="M217.29,448.01l0.11,0.01h36.13v-0.01c1.99,0,3.6-1.61,3.6-3.6c0-1.99-1.61-3.6-3.6-3.6v-0.01H217.4
			l-0.11,0.01c-1.99,0-3.6,1.61-3.6,3.6C213.7,446.39,215.31,448.01,217.29,448.01z"/>
	</g>
</g>
<g>
	<g>
		<path class="st5" d="M160.41,471.11l0.11,0.01h36.13v-0.01c1.99,0,3.6-1.61,3.6-3.6c0-1.99-1.61-3.6-3.6-3.6v-0.01h-36.13
			l-0.11,0.01c-1.99,0-3.6,1.61-3.6,3.6C156.82,469.5,158.43,471.11,160.41,471.11z"/>
	</g>
</g>
<g>
	<g>
		<path class="st5" d="M340.69,448.01l0.11,0.01h36.13v-0.01c1.99,0,3.6-1.61,3.6-3.6c0-1.99-1.61-3.6-3.6-3.6v-0.01H340.8
			l-0.11,0.01c-1.99,0-3.6,1.61-3.6,3.6C337.09,446.39,338.71,448.01,340.69,448.01z"/>
	</g>
</g>
<g>
	<g>
		<path class="st5" d="M466.03,448.01l0.1,0.01h36.13v-0.01c1.99,0,3.6-1.61,3.6-3.6c0-1.99-1.61-3.6-3.6-3.6v-0.01h-36.13
			l-0.1,0.01c-1.99,0-3.6,1.61-3.6,3.6C462.43,446.39,464.04,448.01,466.03,448.01z"/>
	</g>
</g>
<g>
	<g>
		<path class="st5" d="M274.91,471.11l0.11,0.01h36.13v-0.01c1.99,0,3.6-1.61,3.6-3.6c0-1.99-1.61-3.6-3.6-3.6v-0.01h-36.13
			l-0.11,0.01c-1.99,0-3.6,1.61-3.6,3.6C271.31,469.5,272.92,471.11,274.91,471.11z"/>
	</g>
</g>
<g>
	<g>
		<path class="st5" d="M403.87,471.11l0.11,0.01h36.13v-0.01c1.99,0,3.6-1.61,3.6-3.6c0-1.99-1.61-3.6-3.6-3.6v-0.01h-36.13
			l-0.11,0.01c-1.99,0-3.6,1.61-3.6,3.6C400.28,469.5,401.89,471.11,403.87,471.11z"/>
	</g>
</g>
<g>
	<g>
		<path class="st5" d="M216.33,508.74l0.11,0.01h36.13v-0.01c1.99,0,3.6-1.61,3.6-3.6c0-1.99-1.61-3.6-3.6-3.6v-0.01h-36.13
			l-0.11,0.01c-1.99,0-3.6,1.61-3.6,3.6C212.73,507.13,214.34,508.74,216.33,508.74z"/>
	</g>
</g>
<g>
	<g>
		<path class="st5" d="M339.72,508.74l0.11,0.01h36.13v-0.01c1.99,0,3.6-1.61,3.6-3.6c0-1.99-1.61-3.6-3.6-3.6v-0.01h-36.13
			l-0.11,0.01c-1.99,0-3.6,1.61-3.6,3.6C336.13,507.13,337.74,508.74,339.72,508.74z"/>
	</g>
</g>
<g>
	<g>
		<path class="st5" d="M465.06,508.74l0.11,0.01h36.13v-0.01c1.99,0,3.6-1.61,3.6-3.6c0-1.99-1.61-3.6-3.6-3.6v-0.01h-36.13
			l-0.11,0.01c-1.99,0-3.6,1.61-3.6,3.6C461.46,507.13,463.07,508.74,465.06,508.74z"/>
	</g>
</g>
<g>
	<g>
		<path class="st5" d="M273.94,531.85l0.11,0.01h36.13v-0.01c1.99,0,3.6-1.61,3.6-3.6s-1.61-3.6-3.6-3.6v-0.01h-36.13l-0.11,0.01
			c-1.99,0-3.6,1.61-3.6,3.6S271.95,531.85,273.94,531.85z"/>
	</g>
</g>
<g>
	<g>
		<path class="st5" d="M402.9,531.85l0.11,0.01h36.13v-0.01c1.99,0,3.6-1.61,3.6-3.6s-1.61-3.6-3.6-3.6v-0.01h-36.13l-0.11,0.01
			c-1.99,0-3.6,1.61-3.6,3.6S400.92,531.85,402.9,531.85z"/>
	</g>
</g>
<g>
	<g>
		<path class="st5" d="M107.94,508.74l0.11,0.01h36.13v-0.01c1.99,0,3.6-1.61,3.6-3.6c0-1.99-1.61-3.6-3.6-3.6v-0.01h-36.13
			l-0.11,0.01c-1.99,0-3.6,1.61-3.6,3.6C104.35,507.13,105.96,508.74,107.94,508.74z"/>
	</g>
</g>
<g>
	<g>
		<path class="st5" d="M575.07,508.98l0.11,0.01h36.13v-0.01c1.99,0,3.6-1.61,3.6-3.6c0-1.99-1.61-3.6-3.6-3.6v-0.01h-36.13
			l-0.11,0.01c-1.99,0-3.6,1.61-3.6,3.6C571.47,507.37,573.09,508.98,575.07,508.98z"/>
	</g>
</g>
<g>
	<g>
		<path class="st5" d="M514.46,471.11l0.11,0.01h36.13v-0.01c1.99,0,3.6-1.61,3.6-3.6c0-1.99-1.61-3.6-3.6-3.6v-0.01h-36.13
			l-0.11,0.01c-1.99,0-3.6,1.61-3.6,3.6C510.86,469.5,512.47,471.11,514.46,471.11z"/>
	</g>
</g>
<g>
	<path class="st15" d="M411.45,227.23c0,0,10.92,3.62-1.47,25.23c0,0,10.49-20.59,1.05-22.9L411.45,227.23z"/>
	<path class="st15" d="M411.36,229.12c0,0,5.12,3.68,2.08,8.44c0,0,0.93-5.28-2.41-6.82L411.36,229.12z"/>
	<path class="st16" d="M178.52,446.29c-1.61,6.38-3.29,12.75-5,19.11c-4.52,16.82-8.72,33.75-11.74,50.91
		c-3.03,17.18-4.22,34.55-6.44,51.81c-1.02,7.93-2.12,15.86-3.36,23.76c-0.55,3.5-0.61,8.45-2.39,11.62c12.76,0,25.52,0,38.28,0.01
		c5.41-17.43,10.93-34.83,16.55-52.19c2.79-8.63,6.22-17.25,8.52-26.02c2.19-8.35,3.92-16.94,5.85-25.4c0.4-1.75,0.81-3.5,1.23-5.24
		l0.78-42.78C220.79,451.88,178.52,446.29,178.52,446.29z"/>
	<path class="st16" d="M505.48,474.05c0.67,0.03,2.19,10.46,2.32,11.17c3.48,19.82,3.33,40.1,1.63,60.09
		c-0.38,4.45-6.31,58.19-5.94,58.19c0,0-33.91,0-33.91,0s-0.22-20.3-2.22-22.74l-8.2-45.88l-3.1-31.47l-1.23-33.69
		C454.83,469.72,505.48,474.04,505.48,474.05z"/>
	<path class="st17" d="M175.59,457.63c0,0,10.16,5.15,44.97,10.14l0.24-7.81l-41.4-9.14l-3.81,1.16V457.63z"/>
	<path class="st17" d="M458.27,485.2c0,0,20.26,6.72,49.52,0.01l-1.44-7.15l-46.88-2.55L458.27,485.2z"/>
	<polygon class="st16" points="325.64,269.81 319.21,283.77 319.21,311.03 400.77,313.76 401.86,289.76 389.8,268.37 	"/>
	<path class="st17" d="M324.58,271.33c0.1,0,1.26,3.13,1.35,3.33c1.27,2.73,2.84,5.32,4.66,7.71c5.79,7.61,14,12.59,23.48,13.96
		c5.49,0.8,11.32,0.63,16.65-1.21c5.47-1.89,10.13-5.67,14.11-9.79c2.98-3.09,5.62-6.51,8.04-10.05l-3.37-5.61
		C389.51,269.69,324.6,271.33,324.58,271.33z"/>
	<path class="st18" d="M319.64,266.43c-3.43,5.54-5.76,12.25-12.39,14.22c-6.81,2.02-13.63,4.05-20.44,6.07
		c-6.49,1.93-13.34,3.23-19.57,5.83c-3.99,1.66-8.08,1.18-12.07,2.51c-4.56,1.52-8.94,3.65-13.38,5.49
		c-1.35,0.56-2.71,1.12-3.89,1.96c-1.1,0.78-2.02,1.77-2.93,2.77c-6.43,7.05-12.68,14.45-17.86,22.48
		c-5.25,8.13-9.73,16.73-14.63,25.07c-6.69,11.39-13.34,22.8-19.82,34.31c-4.83,8.57-9.3,17.19-13.39,26.08
		c0,0-7.98,17.29-7.98,17.29l-8.42,12.41c0,0,6.79,10.22,67.67,23.51c0.24,11.76,0.15,23.54-0.24,35.29
		c-0.29,8.6-0.69,17.23-1.78,25.77c-1.48,11.59-5.14,23.03-7.51,34.48c-1.65,7.98-3.17,15.99-4.56,24.02
		c-0.99,5.7-3.78,11.68-3.26,17.54h255.99l-1.11-31.6l1.11-23.27l0.49-11.02c0,0-6.43-42.36-0.35-55.23
		c20.62,3.94,45.96,4.38,63.08-9.25c4.82-3.84,8.93-8.45,13.49-12.53c-0.15,0.1-0.9,0.54-0.9,0.7
		c-6.68-18.4-13.12-36.93-20.18-55.18c-2.72-7.04-5.57-14.13-8.67-20.98c-3.16-6.98-7.2-13.29-9.26-20.77
		c-1.49-5.39-2.11-11.05-4.29-16.19c-1.16-2.73-2.74-5.26-4.38-7.74c-1.68-2.54-3.43-5.02-5.18-7.51c-0.53-0.76-1.06-1.51-1.59-2.27
		c-5.05-7.18-8.85-15.12-17.03-18.68c-7.89-3.47-15.81-6.89-23.72-10.34c-8.06-3.51-17.13-6.37-24.73-10.78
		c-3.2-1.86-4.72-7.12-6.68-10.32c-3.48-5.66-7.58-11.12-12.7-15.4l-5.45,9.73l5.57,8.68c7.93,13.47-31.42,52.48-42.45,34.8
		c0,0-30.63-12.02-31.66-39.04l2.59-6.22l-4.51-8.39C320.63,264.7,319.64,266.43,319.64,266.43z"/>
	<path class="st19" d="M234.58,381.01c-0.36-0.02-1.56,4.68-1.54,4.98c0.14,3.31,1.25,6.59,3.83,8.78c3.3,2.81,8.44,2.55,12.58,2.7
		c11.55,0.43,23.1,0.86,34.65,1.29c2.94,0.11,5.92,0.21,8.77-0.49c4.59-1.14,7.41-4.59,9.16-8.82l0.66-3.72
		C302.7,385.73,234.73,381.02,234.58,381.01z"/>
	<path class="st19" d="M405.96,390.79c0.72,1.45,0.57,2.55,1.28,4c0.8,1.61,1.27,3.38,2.24,4.9c1.18,1.84,2.96,2.21,4.99,2.86
		c7.33,2.34,15.15,3.16,22.77,4.03c5.67,0.65,11.37,1.14,17.07,1.46c2.59,0.15,5.18,0.24,7.76,0.44c1.95,0.15,4.27,0.43,5.8-1.1
		c0.7-0.7,4.78-8.26,3.87-8.38C471.75,399.01,405.96,390.79,405.96,390.79z"/>
	<path class="st16" d="M408.32,210.81c0.76-1.59,1.63-3.12,2.66-4.58c0.15-0.21,0.31-0.43,0.55-0.54c0.99-0.46,1.59,1.57,1.7,2.21
		c0.17,1.01,0.01,2.03-0.09,3.05c-0.27,2.72-0.11,5.47-0.21,8.2c-0.15,4.16-0.92,8.26-1.77,12.32c-0.75,3.58,0.28,7.36-1.02,10.87
		c-0.99,2.68-2.88,4.89-5.29,6.41l-3.99-16.4c1.56-4.79,3.12-9.58,4.68-14.36C406.35,215.53,407.22,213.11,408.32,210.81z"/>
	<path class="st16" d="M404.17,225.26c0,40.52-20.42,68.49-45.45,68.49s-45.2-27.97-45.2-68.49s-10.44-64.57,45.32-73.36
		C389.79,147.02,404.17,184.74,404.17,225.26z"/>
	<g>
		<path class="st20" d="M344.74,234.38c0,0-5.04,10.83,3.61,11.27"/>
		<path class="st21" d="M344.74,234.38c-1.16,3.47-2.71,9.32,1.86,10.86c0.55,0.22,1.15,0.3,1.75,0.41
			C341.68,245.88,342.37,238.56,344.74,234.38L344.74,234.38z"/>
	</g>
	<g>
		<path class="st20" d="M363.46,232.44c0,0,7.49,12.99-2.93,13.21"/>
		<path class="st21" d="M363.46,232.44c3.06,4.52,5.38,13.6-2.93,13.21c0.71-0.09,1.43-0.17,2.09-0.4
			C368.25,243.42,365.12,236.24,363.46,232.44L363.46,232.44z"/>
	</g>
	<g>
		<path class="st20" d="M349.41,242.59c0,0,4.77,6.54,8.75,0"/>
		<path class="st21" d="M349.41,242.59c2.22,2.39,5.37,3.93,7.87,1.03c0,0,0.88-1.03,0.88-1.03
			C356.08,247.06,351.79,246.4,349.41,242.59L349.41,242.59z"/>
	</g>
	<g class="st22">
		<path class="st20" d="M343.58,218.06c0,0-11.17,5.31-17.82,2.98"/>
		<path class="st21" d="M343.58,218.06c-5.37,2.62-11.9,5-17.82,2.98C331.82,222.36,337.92,220.05,343.58,218.06L343.58,218.06z"/>
	</g>
	<g class="st22">
		<path class="st20" d="M366.85,217.39c0,0,11.44,4.87,18.75,0.88"/>
		<path class="st21" d="M366.85,217.39c5.99,1.86,12.74,3.46,18.75,0.88C379.84,221.52,372.59,219.91,366.85,217.39L366.85,217.39z"
			/>
	</g>
	<g>
		<path class="st20" d="M323.19,215.18c0.24-0.07,6.26-9.81,19.58-1.66"/>
		<path class="st21" d="M323.19,215.18c4.89-6.96,13.25-6.08,19.58-1.66c0,0-2.44-1.2-2.44-1.2
			C334.37,209.49,327.59,209.84,323.19,215.18L323.19,215.18z"/>
	</g>
	<g>
		<path class="st20" d="M366.39,212.29c0,0,9.43-8.73,20.29,0.57"/>
		<path class="st21" d="M366.39,212.29c5.05-4.73,12.5-5.24,18.13-1.2c0.75,0.55,1.45,1.17,2.16,1.77c-1.11-0.76-2.3-1.63-3.51-2.23
			C377.88,207.64,371.1,208.6,366.39,212.29L366.39,212.29z"/>
	</g>
	<path class="st23" d="M323.87,217.32c0,0,8.3-10.17,19.66-1.05C343.85,216.53,332.78,219.88,323.87,217.32z"/>
	<path class="st24" d="M386.55,214.76c0.18,0.21-3.75,1.09-8.82,1.33c-0.55,0.03-1.12,0.05-1.69,0.05
		c-3.47,0.05-7.29-0.24-10.61-1.26c0.01-0.08,4.34-4.26,10.61-4.27c0.01,0,0.01,0,0.01,0c0.51,0,1.03,0.03,1.56,0.09
		C380.35,211.01,383.38,212.16,386.55,214.76z"/>
	<path class="st15" d="M346.5,208.66l0.26-2.42c0.04-0.33-0.15-0.64-0.46-0.77c-2.94-1.22-5.94-2.33-8.97-3.31
		c-3.74-1.21-7.81-2.51-11.78-2.45c-1.06,0.02-2.44,0.08-3.23,0.86c-0.31,0.31-0.57,0.67-0.92,0.94c-0.21,0.17-0.46,0.3-0.69,0.44
		c-1.67,1.02-2.92,2.71-3.08,4.69c-0.05,0.63,0.64,1.03,1.17,0.69c2.25-1.48,8.82-3.48,26.73,1.98
		C345.98,209.43,346.45,209.13,346.5,208.66z"/>
	<path class="st15" d="M348.97,247.12l-12.07,9.6c-0.18,0.14-0.33,0.32-0.44,0.53c-0.33,0.65-1.08,2.2-1.44,3.81
		c-0.33,1.47,1.25,2.6,2.46,1.74l13.84-9.92c0.28-0.2,0.49-0.48,0.59-0.8c0.27-0.85,0.57-2.6-0.66-4.58
		C350.77,246.7,349.7,246.54,348.97,247.12z"/>
	<path class="st15" d="M356.8,247.54c-1.32,1.17-2.36,3.11,0.82,5.48c0.52,0.39,1.16,0.64,1.82,0.69c1.81,0.13,5.92,0.51,12.98,7.45
		c1.07,1.05,3.28,1.7,4.58,0.92c1.11-0.67,1.93-1.6-0.04-3.95c-0.08-0.09-0.16-0.18-0.24-0.26c-1-0.97-7.65-7.19-16.36-10.84
		C359.18,246.51,357.76,246.69,356.8,247.54z"/>
	<path class="st25" d="M347.07,242.61c-0.34,0.48-0.47,1.08,0.13,1.7c0.46,0.47,1.16,0.61,1.76,0.37c0.79-0.32,1.65-0.97,0.5-2.2
		C348.81,241.78,347.62,241.83,347.07,242.61z"/>
	<path class="st25" d="M358.79,241.55c0.81,0.04,2.19,0.24,2.92,1.08c0.31,0.36,0.06,0.93-0.41,0.96c-1.08,0.08-2.83,0-3.13-1.34
		C358.09,241.88,358.4,241.53,358.79,241.55z"/>
	<path class="st15" d="M352.1,268.6l7.1-0.23c0,0,2.39,3.54-0.6,5.62c-1.41,0.98-3.27,1.14-4.86,0.49
		C352.04,273.77,350.34,272.19,352.1,268.6z"/>
	<g>
		<path class="st2" d="M323.8,217.39c5.22-6.63,13.8-6.86,19.78-1.08c-0.73-0.57-1.5-1.1-2.31-1.54
			C335.15,211.09,328.66,212.37,323.8,217.39L323.8,217.39z"/>
	</g>
	<g>
		<path class="st2" d="M365.44,214.88c4.95-5.03,13.25-6.37,19-1.92c0.79,0.58,1.51,1.27,2.25,1.92c-0.81-0.56-1.55-1.2-2.38-1.71
			C378.45,209.12,370.71,210.46,365.44,214.88L365.44,214.88z"/>
	</g>
	<path class="st26" d="M337.09,215.06c0,1.57-1.47,3.14-3.29,3.14s-3.29-1.57-3.29-3.14s1.47-2.52,3.29-2.52
		S337.09,213.49,337.09,215.06z"/>
	<path class="st26" d="M379.35,213.19c0,1.05-0.65,1.99-1.62,2.5c-0.49,0.26-1.06,0.41-1.67,0.41h-0.02
		c-1.81-0.01-3.27-1.34-3.27-2.91s1.41-2.58,3.22-2.58h0.05c0.57,0.01,1.11,0.11,1.58,0.31
		C378.64,211.32,379.35,212.13,379.35,213.19z"/>
	<path class="st27" d="M319.8,261.23c-0.3-0.05-2.09-5.46-2.22-5.91c-0.79-2.79-1.43-5.62-1.95-8.47
		c-0.89-4.84-1.45-9.74-1.85-14.64c-0.41-4.89-0.1-9.66,0.1-14.55c0.23-5.64,0.41-11.41,0.67-17.09c0.26-5.65,0.11-11.69,1.83-17.12
		c1.48-4.67,4.11-9.15,8.59-11.48c4.69-2.44,10-2.4,15.14-2.57c5.46-0.18,10.43-0.25,15.55-2.52c6.01-2.67,13.31-2.47,19.73-1.52
		c4.55,0.67,9.18,2.07,12.86,4.91c5.17,3.99,6.43,9.48,7.11,15.72c0.17,1.53,0.3,3.06,0.48,4.59c0.52,4.42,1.44,8.93,3.96,12.6
		c3.29,4.78,3.43,11.14,4,16.71c0.69,6.77-0.2,13.59-1.53,20.22c-1.55,7.7-4.01,15.29-5.09,23.07c0.03-0.22,2.27-1.22,2.55-1.44
		c0.81-0.63,1.55-1.35,2.21-2.14c1.93-2.29,2.61-5.11,3.38-7.96c0.8-2.98,1.43-6.01,1.87-9.06c1.12-7.66,0.68-15.24,0.31-22.93
		c-0.11-2.31-0.14-4.47,0.53-6.72c0.7-2.35,1.81-4.56,2.31-6.96c0.71-3.4,0.12-6.93,0.29-10.4c0.19-3.89,1.21-7.68,0.69-11.59
		c-0.53-4-2.09-7.76-3.35-11.57c-0.78-2.36-1.6-4.84-3.03-6.9c-1.4-2.02-3.54-3.27-5.33-4.9c-2.61-2.38-4.01-5.62-6.92-7.76
		c-2.97-2.19-6.42-3.62-9.73-5.19c-4.9-2.32-10.06-4.07-15.39-5.06c-4.34-0.8-8.52-1.13-12.85-0.31c-4.18,0.79-8.21,2.2-12.21,3.59
		c-4.48,1.56-9.27,3.71-11.95,7.8c-2.52,3.85-7.26,5.27-9.95,8.95c-1.47,2.01-2.08,4.5-3.18,6.74c-1.5,3.04-3.84,5.55-5.41,8.54
		c-1.76,3.36-1.81,7.26-2.19,10.96c-0.04,0.4-0.1,0.8-0.17,1.2c-1.55,8.92-0.86,17.33,1.98,25.96l0.5,11.1
		C312.2,225.51,308.45,259.24,319.8,261.23z"/>
	<path class="st15" d="M391.46,147.31c0,0,18.17-0.35,9.81,16.84l-1.05-0.77C400.22,163.38,410.08,151.08,391.46,147.31z"/>
	<path class="st15" d="M308.63,163.6c0,0-7.64,9.14,6.76,14.16C315.39,177.76,298.21,173.25,308.63,163.6z"/>
	<path class="st15" d="M316.61,165.38c0,0-11.31,5.2-1.61,12.24C315,177.62,303.64,170.81,316.61,165.38z"/>
	<path class="st28" d="M343.49,264.57c2.48,1.86,12.22,7.79,25.43-1.45c0.38-0.27,0.27-0.86-0.19-0.95l-3.56-0.77
		c-0.7-0.15-1.41-0.2-2.12-0.16c-2.69,0.17-9.79,0.58-13.46,0.41c-1.46-0.06-2.9,0.27-4.17,0.99l-1.86,1.04
		C343.22,263.88,343.18,264.35,343.49,264.57z"/>
	<path class="st28" d="M343.05,261.47l6.47-6.2c0.13-0.12,0.31-0.18,0.49-0.14l4.49,0.96c0.11,0.02,0.22,0.01,0.32-0.03l3.53-1.44
		c0.16-0.06,0.34-0.05,0.48,0.04L369,260.7c0.48,0.28,0.27,1.02-0.29,1.01c-2.38-0.04-6.54-0.44-9.77-2.45
		c-0.15-0.09-0.32-0.11-0.48-0.04l-2.62,1.06c-0.1,0.04-0.21,0.05-0.31,0.03l-3.48-0.7c-0.14-0.03-0.27,0-0.39,0.07
		c-0.96,0.6-5.56,3.36-8.37,2.71C342.87,262.29,342.74,261.76,343.05,261.47z"/>
	<path class="st29" d="M317.93,495.54c0.45,2.39-0.47,4.57-2.05,4.86c-1.58,0.29-3.22-1.4-3.67-3.8c-0.45-2.39,0.47-4.57,2.05-4.86
		C315.84,491.44,317.48,493.14,317.93,495.54z"/>
	<circle class="st29" cx="313.16" cy="555" r="3.82"/>
	<path class="st29" d="M302.02,333.57c-0.16,1.98,0.47,3.65,1.42,3.73c0.95,0.08,1.84-1.47,2.01-3.45c0.16-1.98-0.47-3.65-1.42-3.73
		C303.08,330.04,302.18,331.58,302.02,333.57z"/>
	<path class="st30" d="M409.08,211.67l1.88-1.95c0.32-0.33,0.87-0.11,0.87,0.35l0.05,9.56"/>
	<path class="st15" d="M322.55,279.31c0.64,2.99-4.46,11.05-5.6,13.85c-0.37,0.9-0.73,1.81-0.86,2.77c-0.13,0.97-0.01,1.95,0.1,2.92
		c2.31,19.1,4.93,38.17,6.82,57.32c1.95,19.72,1.44,38.91,1.44,58.63c-1.18,15.17-4.05,30.16-4.67,45.38
		c-0.64,15.67,0.32,31.34,0.77,46.99c0.23,8.04-0.32,96.32-1.26,96.32c0,0,40.78,0,40.78,0c2.36-11.92,3.3-23.7,4.77-35.77
		c3.15-25.88,11.49-51.08,13.64-76.98c2.23-26.73,0.02-53.58,1.79-80.29c1.77-26.71,5.58-53.29,11.38-79.43
		c2.14-9.62,5.32-19.07,7.1-28.76c0.64-3.46,0.97-7.15,0.35-10.64c-0.22-1.26-0.44-2.55-0.96-3.73c-0.68-1.54-2-2.11-3.17-0.53
		c-0.35,0.48-0.59,1.03-0.84,1.56c-2.56,5.43-6.99,9.8-12.15,12.78c-0.59,0.34-1.19,0.66-1.79,0.96c-3.14,1.57-6.52,2.67-9.96,3.33
		c-3.52,0.68-7.13,0.91-10.71,0.74c-3.61-0.17-7.2-0.76-10.68-1.74c-3.44-0.98-6.77-2.35-9.88-4.13c-3.04-1.74-5.86-3.88-8.29-6.4
		c-2.43-2.52-4.45-5.41-5.93-8.58C323.77,283.8,323.03,281.58,322.55,279.31z"/>
	<polygon class="st29" points="375.6,547.63 374.38,557.16 373.5,557.16 374.55,547.18 	"/>
	<line class="st31" x1="368.73" y1="561.92" x2="364.3" y2="601.82"/>
	<path class="st31" d="M380.48,574.78c0,0-1.55,26.6-2.44,27.04"/>
	<path class="st31" d="M162.83,433.11c0,0,35.16,16.7,56.07,21.1"/>
	<path class="st31" d="M526.43,455.1c0,0-15.18,20.17-62.94,18.17"/>
	<path class="st29" d="M395.99,383.62l-2.44,7.76h0.66l2.55-7.2C396.77,384.17,397.1,383.4,395.99,383.62z"/>
	<polygon class="st29" points="409.96,340.29 408.41,346.05 409.18,346.05 410.62,340.73 	"/>
	<path class="st32" d="M424.81,316.57"/>
	<path class="st31" d="M321.53,270.14c0,0-8.42,10.08-11.19,23.16"/>
	<line class="st33" x1="445.16" y1="522.58" x2="446.64" y2="601.82"/>
	<g class="st34">
		<path class="st35" d="M218.91,337.74c0,0-7.63,47.93,0.64,77.19c0.02,0.07,0.04,0.13,0.08,0.19c0.7,1.21,8.13,14.78-24.05-6.77
			c-0.48-0.32-1.13-0.06-1.25,0.5c-0.17,0.83-0.25,1.89,0.32,2.36c0,0,24,16.79,26.21,11.8c0,0,2.98,0.66,0.95-8.11
			c-0.01-0.02-0.01-0.04-0.01-0.07C221.59,413.39,214.81,362.97,218.91,337.74z"/>
		<path class="st35" d="M447.31,315.88c2.97,4.65,7.79,13.88,6.1,22.71c-0.01,0.03-0.01,0.06-0.01,0.1
			c-0.05,1.29-1.23,29.59,0.36,31.97l-4.3-34.33c0-0.02,0-0.03-0.01-0.05l-3.63-19.8C445.67,315.6,446.83,315.13,447.31,315.88z"/>
		<path class="st35" d="M491.86,366.58c-0.44,16.53-2.78,55.45-14.76,74.38c-0.17,0.27-0.17,0.62,0.01,0.88l2.08,3.08
			c0.34,0.5,1.09,0.47,1.38-0.06c2.84-5.16,14.1-27.49,16.25-61.46c0-0.07,0-0.14-0.01-0.22l-3.34-16.74
			C493.28,365.5,491.89,365.61,491.86,366.58z"/>
		<path class="st35" d="M487.73,361.68c-2.28,20.66-7.51,58.94-16.07,72.72c-0.48,0.78-1.68,0.28-1.48-0.61l15.95-72.37
			C486.35,360.42,487.85,360.66,487.73,361.68z"/>
		<path class="st35" d="M238.2,551.86c-6.41,18.29-16.53,45.19-21.51,48.03c-0.66,0.38-1.42-0.36-1.11-1.06l21.11-47.57
			C237.11,550.31,238.54,550.87,238.2,551.86z"/>
		<path class="st35" d="M218.15,536.64c0.26-0.9,1.59-0.71,1.59,0.23v47.38l-1.66-47.24c0-0.09,0.01-0.17,0.03-0.26L218.15,536.64z"
			/>
		<path class="st35" d="M290.03,304.02c-3.43,8.29-15.9,40.01-12.87,55.23c0.18,0.89,1.46,0.85,1.6-0.05
			c1.64-10.67,7.03-42.74,13.81-50.71c0.19-0.22,0.25-0.51,0.17-0.79l-1.18-3.63C291.33,303.36,290.32,303.32,290.03,304.02z"/>
		<path class="st35" d="M417.35,494.35c2.07,6.34,9.77,30.53,12.82,49.28c0.17,1.04-1.38,1.33-1.6,0.3
			c-3.41-15.94-9.24-40.8-13.66-47.43c-0.18-0.27-0.17-0.62,0.01-0.89l0.98-1.46C416.28,493.59,417.14,493.7,417.35,494.35z"/>
	</g>
	<path class="st31" d="M400.76,302c0,0,9.53,9.64,22.72,13.8"/>
	<path class="st18" d="M238.04,369.52c8.12-0.55,41.35-2.33,65.24,3.67c1.08,0.27,1.85,1.23,1.91,2.34
		c0.26,5.36-0.71,20.43-19.68,22.19c-0.18,0.02-0.36,0.01-0.54-0.01c-2.99-0.34-30.63-3.37-38.8-1.8c0,0-17.2,2.71-10.45-24.46
		C235.99,370.38,236.93,369.59,238.04,369.52z"/>
	<path class="st18" d="M406.12,389.95c-0.26,0.8-0.22,1.66,0.12,2.43c0.95,2.17,3.38,6.48,8.15,8.19c6.42,2.3,15.28,4.12,20.46,3.99
		c0.11,0,0.21,0,0.32,0.01l29.59,2.31c0,0,4.93,0.79,7.48-6.71c0.12-0.34,0.17-0.71,0.17-1.07v-12.79c0-1.73-1.29-3.19-3.01-3.39
		c-10.06-1.18-42.66-4.83-57.28-4.28c-1.42,0.05-2.65,1-3.09,2.36L406.12,389.95z"/>
	<path class="st33" d="M234.15,392.76l-4.38,55.02c0,0,4.43,11.52,11.52,10.86c0,0,33.25,3.55,34.35,2.22
		c3.06-0.21,6.21-0.84,9.08-1.9c5.23-1.94,8.03-7.47,8.45-12.79c0.01,0.42,0.03,0.85,0.04,1.27c0.86-7.69,1.86-15.35,2.77-23.04
		c0.88-7.52,1.74-15.06,2.93-22.54c0.15-0.92,0.21-4.46,1.11-5.06"/>
	<path class="st33" d="M405.3,397.75c0.38,15.87,0.99,31.95-0.3,47.79c-0.18,2.26-0.41,4.55-0.05,6.79c0.54,3.36,2.45,6.48,5.19,8.5
		c2.77,2.03,6.2,2.9,9.54,3.69c6.79,1.59,13.65,3.02,20.61,3.63c3.45,0.3,6.93,0.41,10.39,0.22c1.89-0.1,7,0.05,7.59-2.52"/>
	<path class="st33" d="M238.63,367.22l7.87-2.55c0,0,44.22,0.44,56.18,5.1"/>
	<path class="st33" d="M412.64,375.22c0,0,56.35,2.24,59.43,4.74"/>
	<line class="st33" x1="313.16" y1="473.93" x2="303.35" y2="601.82"/>
	<path class="st33" d="M383.36,490.56l1.33,90.87c0,0-1.11,16.05-2.88,19.06"/>
	<path class="st33" d="M469.39,407.01c-1.04,5.51-2.1,10.99-2.89,16.54c-1.57,10.95-3.1,21.91-4.4,32.9
		c-0.51,4.37-1.23,8.86-1.17,13.27"/>
	<path class="st33" d="M477.06,332.09c3.08,12.11,3.76,25.44,1.67,37.74c-0.93,5.48-2.52,10.87-5.01,15.85"/>
	<polyline class="st33" points="237.3,318.35 228,360.68 221.79,446.29 	"/>
	<line class="st33" x1="424.81" y1="301.17" x2="460.93" y2="312.81"/>
	<path class="st33" d="M303.35,288.87c0,0-14.3,0.33-18.28,5.98l-31.92,3.77"/>
	<path class="st33" d="M303.35,353.81c0,0-4.43-2.17,10.86,53.11"/>
	<path class="st33" d="M315.07,411.88c0,0,5.35,41.89,3.57,50.98"/>
	<path class="st33" d="M311.99,303.16l-13.13,8.31c0,0,1.99,6.26,1.16,6.87c-0.83,0.61,0-0.89,0-0.89s18.95,10.11,10.31,21.18"/>
	<path class="st36" d="M347.65,261.7c1.5-0.68,2.9-1.41,4.21-2.18l3.98,0.75l2.76-1.14c1.63,0.9,3.51,1.58,5.61,2.1
		C364.2,261.23,353.83,262.02,347.65,261.7z"/>
	<path class="st37" d="M397.99,268.44c3.68,3.81,15.33,17.28,24.73,43.71c0.32,0.9-0.55,1.76-1.45,1.43
		c-4.05-1.52-12.88-5.46-19.62-12.94c-0.18-0.2-0.28-0.44-0.29-0.71c-0.07-2.04-0.52-11.37-2.88-15.35l-4.77-9.24
		c-0.16-0.3-0.17-0.66-0.03-0.97l2.48-5.61C396.49,268.05,397.44,267.87,397.99,268.44z"/>
	<path class="st37" d="M323.15,271.93l0.3,0.42c0.22,0.31,0.27,0.7,0.13,1.05l-8.01,20.91c-0.25,0.65-1.02,0.92-1.62,0.56
		l-1.96-1.17c-0.41-0.24-0.62-0.72-0.52-1.19c0.55-2.67,2.85-11.71,9.88-20.62C321.81,271.3,322.71,271.31,323.15,271.93z"/>
	<polygon class="st29" points="416.39,306.16 414.84,307.6 421.82,312.81 	"/>
	<path class="st15" d="M301.09,305.26c0.65-4.11,2.62-12.47,7.75-12.07c0.4,0.03,0.71,0.38,0.71,0.78v2.8
		c0,0.19-0.07,0.37-0.19,0.51c-0.57,0.65-2.2,2.63-2.26,3.86c-0.01,0.18-0.1,0.35-0.23,0.48l-4.47,4.32
		C301.86,306.46,300.97,306,301.09,305.26z"/>
	<circle class="st29" cx="264.45" cy="387.11" r="3.99"/>
	<ellipse class="st29" cx="441.83" cy="395.92" rx="3.32" ry="3.74"/>
	<path class="st33" d="M238.63,386.61c0,0,1.22,4.99,3.55,4.49l45.77,2.49c0,0,8.42-2.22,7.42-4.32"/>
	<path class="st33" d="M412.06,392.76c0,0,2.66,5.27,8.87,5.49c0,0,36.67,5.56,42.68,4.77c0.22-0.03,0.4-0.07,0.54-0.12
		c3.77-1.33,4.99-3.24,4.99-3.24"/>
	<path class="st33" d="M389.13,451.98c-2.83,11.2-5.66,22.41-8.65,33.57"/>
	<path class="st33" d="M402.87,400.18c-3.62,12.42-6.91,24.94-10.11,37.47"/>
	<path class="st33" d="M424.81,316.57c-4.73,19.22-11.24,38.75-15.33,58.42"/>
	<path class="st38" d="M459.29,482.38c-0.95,0.25-7.23,44.67-1.02,83.24l1.37-28.01C457.24,528.6,455.41,482.28,459.29,482.38z"/>
	<path class="st23" d="M341.42,146.69c0,0-4.8,16.91,1.52,22.58C342.93,169.26,338.46,164.43,341.42,146.69z"/>
	<path class="st23" d="M345.55,147.56c0,0-6.94,13.76-0.12,21.7C345.42,169.26,340,165.65,345.55,147.56z"/>
	<path class="st23" d="M337.48,153.37c-0.28,0.58-0.81,10.51,5.46,15.89C342.93,169.26,334.32,163.4,337.48,153.37z"/>
	<path class="st39" d="M301.98,320.24c1.34,5.58,4.12,22.94,2.66,31.15c-0.16,0.88-2.55,0.54-3.08-0.19
		c-2.74-3.81-7.85-14.45-2.08-30.83C299.71,319.76,301.83,319.6,301.98,320.24z"/>
	<path class="st15" d="M376.05,205.55c-4.36,0.35-9.52,1.46-15.44,3.85c-0.2,0.08-0.43-0.05-0.46-0.26l-0.72-4.37
		c-0.03-0.16,0.07-0.32,0.21-0.38c3.76-1.35,7.6-2.47,11.37-3.76c1.65-0.56,3.33-1.09,5.04-1.48
		C376.05,201.24,376.05,203.38,376.05,205.55z"/>
	<path class="st15" d="M392.94,208.66c-1.85-1.08-7.07-3.57-15.51-3.19c-0.09-2.26-0.2-4.45-0.31-6.53c0.75-0.15,1.5-0.26,2.26-0.33
		c1.32-0.12,2.68-0.21,3.95,0.19c1.38,0.44,2.62,1.15,3.91,1.78c1.24,0.61,2.63,0.88,3.85,1.48c1.08,0.53,0.92,1.54,1.25,2.63
		c0.36,1.19,0.76,2.39,1.11,3.59C393.53,208.56,393.21,208.82,392.94,208.66z"/>
	<path class="st19" d="M377.62,210.7c-0.53-0.07-1.05-0.09-1.56-0.09c-0.01,0-0.01,0-0.01,0c0.01-1.69,0.01-3.38,0.01-5.06
		c0-2.17,0-4.31-0.01-6.39c0-6.44,0.22-9.81,0.18-13.98c0,0,0.39,4.44,0.9,13.76c0.11,2.08,0.22,4.27,0.31,6.53
		C377.5,207.18,377.56,208.93,377.62,210.7z"/>
	<path class="st19" d="M376.2,236.49c0,0-0.17-6.53-0.16-20.35c0.57-0.01,1.14-0.03,1.69-0.05
		C377.88,226.27,377.72,230.72,376.2,236.49z"/>
	<g class="st40">
		<path class="st20" d="M341.54,242.59c0,0-7.04,5.92-6.52,14.05"/>
		<path class="st21" d="M341.54,242.59c-3.08,2.99-5.53,6.8-6.31,11.07c-0.14,0.96-0.22,2.01-0.21,2.98
			C334.55,251.23,337.53,246.02,341.54,242.59L341.54,242.59z"/>
	</g>
	<g class="st40">
		<path class="st20" d="M368.2,241.94c0,0,11.57,9.45,10.44,16.59"/>
		<path class="st21" d="M368.2,241.94c4.52,3.84,11.15,10.15,10.44,16.59C378.97,252.02,372.58,246.11,368.2,241.94L368.2,241.94z"
			/>
	</g>
	
		<ellipse transform="matrix(0.1943 -0.981 0.981 0.1943 89.7475 596.8016)" class="st27" cx="408.16" cy="243.77" rx="0.92" ry="0.77"/>
	
		<ellipse transform="matrix(0.1943 -0.981 0.981 0.1943 128.0886 571.3132)" class="st27" cx="411.81" cy="207.69" rx="0.92" ry="0.77"/>
	<text transform="matrix(0.9928 -0.1201 0.1201 0.9928 459.9258 505.2679)"><tspan x="0" y="0" class="st41 st42">STOP WATERING</tspan><tspan x="1.02" y="4.41" class="st41 st42">DEAD FLOWERS</tspan></text>
</g>
<circle class="st0" cx="354.33" cy="301.7" r="300.04"/>
</svg>
