<?xml version="1.0" encoding="utf-8"?>
<!-- Generator: Adobe Illustrator 26.0.3, SVG Export Plug-In . SVG Version: 6.00 Build 0)  -->
<svg version="1.1" id="Layer_1" xmlns="http://www.w3.org/2000/svg" xmlns:xlink="http://www.w3.org/1999/xlink" x="0px" y="0px"
	 viewBox="0 0 300 300" style="enable-background:new 0 0 300 300;" xml:space="preserve">
<style type="text/css">
	.st0{fill:#C1B49A;}
	.st1{fill:#9A8479;}
	.st2{fill:#EE4036;}
	.st3{fill:#404041;}
	.st4{fill:#6D6E70;stroke:#929497;stroke-width:5;stroke-miterlimit:10;}
	.st5{fill:#929497;}
	.st6{fill:#808184;}
	.st7{fill:#D0D2D3;}
</style>
<g>
	<path class="st0" d="M235.18,156.25H64.82V52.76c0-7.9,6.4-14.3,14.3-14.3h141.75c7.9,0,14.3,6.4,14.3,14.3V156.25z"/>
	<path class="st1" d="M220.88,214.02H79.12c-7.9,0-14.3-6.4-14.3-14.3v-43.48h170.35v43.48
		C235.18,207.62,228.77,214.02,220.88,214.02z"/>
	<circle class="st2" cx="86.16" cy="91.84" r="11.72"/>
	<circle class="st3" cx="204.12" cy="95.12" r="8.43"/>
	<g>
		<circle class="st3" cx="150" cy="100.52" r="39.18"/>
		<circle class="st4" cx="150" cy="100.52" r="25.11"/>
		<path class="st5" d="M168.35,101.67c0,10.13-8.22,18.35-18.35,18.35s-18.35-8.22-18.35-18.35s8.22,0,18.35,0
			S168.35,91.54,168.35,101.67z"/>
	</g>
	<path class="st3" d="M105.4,64.13H78.83c-2.42,0-4.38-1.96-4.38-4.38v-5c0-2.42,1.96-4.38,4.38-4.38h26.57
		c2.42,0,4.38,1.96,4.38,4.38v5C109.78,62.17,107.82,64.13,105.4,64.13z"/>
	<g>
		<path class="st3" d="M219.1,74.91h-18.81c-2.3,0-4.17-1.87-4.17-4.17V51.93c0-2.3,1.87-4.17,4.17-4.17h18.81
			c2.3,0,4.17,1.87,4.17,4.17v18.81C223.27,73.05,221.41,74.91,219.1,74.91z"/>
		<circle class="st6" cx="217.97" cy="70.36" r="2.32"/>
		<polyline class="st6" points="199.1,72.68 199.1,49.99 220.3,49.99 		"/>
		<circle class="st5" cx="209.7" cy="61.34" r="5.58"/>
	</g>
	<path class="st3" d="M175.04,38.46h-50.09v-2.21c0-1.25,1.01-2.26,2.26-2.26h45.58c1.25,0,2.26,1.01,2.26,2.26V38.46z"/>
	<rect x="79.7" y="178.44" class="st3" width="143.57" height="13.39"/>
	<rect x="84.35" y="182.31" class="st7" width="131.3" height="83.69"/>
	<rect x="93.46" y="178.44" class="st3" width="113.07" height="54.68"/>
</g>
</svg>
