<?xml version="1.0" encoding="utf-8"?>
<!-- Generator: Adobe Illustrator 26.0.3, SVG Export Plug-In . SVG Version: 6.00 Build 0)  -->
<svg version="1.1" id="Layer_1" xmlns="http://www.w3.org/2000/svg" xmlns:xlink="http://www.w3.org/1999/xlink" x="0px" y="0px"
	 viewBox="0 0 300 300" style="enable-background:new 0 0 300 300;" xml:space="preserve">
<style type="text/css">
	.st0{fill:#21201F;}
	.st1{fill:url(#SVGID_1_);}
	.st2{fill:url(#SVGID_00000074414192965147345640000007571877420501432974_);}
	.st3{fill:url(#SVGID_00000040539590138261162610000004926886306891346854_);}
	.st4{fill:url(#SVGID_00000110458733502854693880000011400282612811588493_);}
	.st5{fill:url(#SVGID_00000179630874362558624650000011893608441444770956_);}
	.st6{fill:url(#SVGID_00000134211612626644181670000010673025810146439068_);}
	.st7{fill:url(#SVGID_00000090291058513461847060000009853681180791074437_);}
	.st8{fill:url(#SVGID_00000133501646836438053150000001521382411018534068_);}
	.st9{fill:url(#SVGID_00000127748194521004241490000016891799834871872955_);}
	.st10{fill:url(#SVGID_00000120546619027734346700000007117397869910331825_);}
	.st11{fill:url(#SVGID_00000080166491235148223460000012877986540969428105_);}
	.st12{fill:url(#SVGID_00000044857435702983413920000016677016836855059357_);}
	.st13{fill:#C79B6E;}
	.st14{fill:none;stroke:#2F2B2C;stroke-miterlimit:10;}
	.st15{fill:#302C2D;}
	.st16{fill:#FFFFFF;}
	.st17{fill:url(#SVGID_00000031920751285316676070000017463662213009856149_);}
	.st18{fill:#AEAFAE;}
	.st19{fill:url(#SVGID_00000156569255862443594850000017733993417797729170_);}
	.st20{fill:url(#SVGID_00000119802568381221174370000009124873892337019269_);}
	.st21{fill:#BDBBBC;}
	.st22{fill:#603813;}
	.st23{fill:#221D53;}
	.st24{opacity:0.5;fill:#FFFFFF;enable-background:new    ;}
	.st25{fill:none;stroke:#CCA67B;stroke-width:2;stroke-miterlimit:10;}
	.st26{fill:#D2AE80;}
	.st27{fill:#522F16;}
	.st28{font-family:'Gabriola';}
	.st29{font-size:31.2835px;}
	.st30{font-size:25.0267px;}
</style>
<rect x="-6.37" y="-44.36" class="st0" width="322.65" height="375.34"/>
<g>
	
		<linearGradient id="SVGID_1_" gradientUnits="userSpaceOnUse" x1="154.9501" y1="219.2231" x2="154.9501" y2="344.3564" gradientTransform="matrix(1 0 0 -1 0 300)">
		<stop  offset="0" style="stop-color:#381710"/>
		<stop  offset="0.1993" style="stop-color:#422013"/>
		<stop  offset="0.678" style="stop-color:#57321A"/>
		<stop  offset="1" style="stop-color:#5E381C"/>
	</linearGradient>
	<rect x="62.02" y="-44.36" class="st1" width="185.87" height="125.13"/>
	<g>
		
			<linearGradient id="SVGID_00000012469359398940231880000012853499877530689438_" gradientUnits="userSpaceOnUse" x1="70.8176" y1="226.9885" x2="70.8176" y2="344.3564" gradientTransform="matrix(1 0 0 -1 0 300)">
			<stop  offset="0" style="stop-color:#220F10"/>
			<stop  offset="0.2135" style="stop-color:#2D1712"/>
			<stop  offset="0.6837" style="stop-color:#422415"/>
			<stop  offset="1" style="stop-color:#492916"/>
		</linearGradient>
		
			<rect x="68.26" y="-44.36" style="fill:url(#SVGID_00000012469359398940231880000012853499877530689438_);" width="5.11" height="117.37"/>
		
			<linearGradient id="SVGID_00000044888663577551789100000001968743112094505352_" gradientUnits="userSpaceOnUse" x1="87.6356" y1="226.9885" x2="87.6356" y2="344.3564" gradientTransform="matrix(1 0 0 -1 0 300)">
			<stop  offset="0" style="stop-color:#220F10"/>
			<stop  offset="0.2135" style="stop-color:#2D1712"/>
			<stop  offset="0.6837" style="stop-color:#422415"/>
			<stop  offset="1" style="stop-color:#492916"/>
		</linearGradient>
		
			<rect x="85.08" y="-44.36" style="fill:url(#SVGID_00000044888663577551789100000001968743112094505352_);" width="5.11" height="117.37"/>
		
			<linearGradient id="SVGID_00000152260311857399487690000007747770891743859342_" gradientUnits="userSpaceOnUse" x1="104.4678" y1="226.9885" x2="104.4678" y2="344.3564" gradientTransform="matrix(1 0 0 -1 0 300)">
			<stop  offset="0" style="stop-color:#220F10"/>
			<stop  offset="0.2135" style="stop-color:#2D1712"/>
			<stop  offset="0.6837" style="stop-color:#422415"/>
			<stop  offset="1" style="stop-color:#492916"/>
		</linearGradient>
		
			<rect x="101.92" y="-44.36" style="fill:url(#SVGID_00000152260311857399487690000007747770891743859342_);" width="5.11" height="117.37"/>
		
			<linearGradient id="SVGID_00000141414616828682422790000010161660261919787429_" gradientUnits="userSpaceOnUse" x1="121.2857" y1="226.9885" x2="121.2857" y2="344.3564" gradientTransform="matrix(1 0 0 -1 0 300)">
			<stop  offset="0" style="stop-color:#220F10"/>
			<stop  offset="0.2135" style="stop-color:#2D1712"/>
			<stop  offset="0.6837" style="stop-color:#422415"/>
			<stop  offset="1" style="stop-color:#492916"/>
		</linearGradient>
		
			<rect x="118.73" y="-44.36" style="fill:url(#SVGID_00000141414616828682422790000010161660261919787429_);" width="5.11" height="117.37"/>
		
			<linearGradient id="SVGID_00000162345644490996219690000011348388250629484712_" gradientUnits="userSpaceOnUse" x1="138.1179" y1="226.9885" x2="138.1179" y2="344.3564" gradientTransform="matrix(1 0 0 -1 0 300)">
			<stop  offset="0" style="stop-color:#220F10"/>
			<stop  offset="0.2135" style="stop-color:#2D1712"/>
			<stop  offset="0.6837" style="stop-color:#422415"/>
			<stop  offset="1" style="stop-color:#492916"/>
		</linearGradient>
		
			<rect x="135.57" y="-44.36" style="fill:url(#SVGID_00000162345644490996219690000011348388250629484712_);" width="5.11" height="117.37"/>
		
			<linearGradient id="SVGID_00000000933478712117413220000003178805805931623591_" gradientUnits="userSpaceOnUse" x1="154.9359" y1="226.9885" x2="154.9359" y2="344.3564" gradientTransform="matrix(1 0 0 -1 0 300)">
			<stop  offset="0" style="stop-color:#220F10"/>
			<stop  offset="0.2135" style="stop-color:#2D1712"/>
			<stop  offset="0.6837" style="stop-color:#422415"/>
			<stop  offset="1" style="stop-color:#492916"/>
		</linearGradient>
		
			<rect x="152.38" y="-44.36" style="fill:url(#SVGID_00000000933478712117413220000003178805805931623591_);" width="5.11" height="117.37"/>
		
			<linearGradient id="SVGID_00000151517203732941924650000000687478293062226564_" gradientUnits="userSpaceOnUse" x1="171.7681" y1="226.9885" x2="171.7681" y2="344.3564" gradientTransform="matrix(1 0 0 -1 0 300)">
			<stop  offset="0" style="stop-color:#220F10"/>
			<stop  offset="0.2135" style="stop-color:#2D1712"/>
			<stop  offset="0.6837" style="stop-color:#422415"/>
			<stop  offset="1" style="stop-color:#492916"/>
		</linearGradient>
		
			<rect x="169.22" y="-44.36" style="fill:url(#SVGID_00000151517203732941924650000000687478293062226564_);" width="5.11" height="117.37"/>
		
			<linearGradient id="SVGID_00000129900088256697716770000015265969423290510003_" gradientUnits="userSpaceOnUse" x1="188.6003" y1="226.9885" x2="188.6003" y2="344.3564" gradientTransform="matrix(1 0 0 -1 0 300)">
			<stop  offset="0" style="stop-color:#220F10"/>
			<stop  offset="0.2135" style="stop-color:#2D1712"/>
			<stop  offset="0.6837" style="stop-color:#422415"/>
			<stop  offset="1" style="stop-color:#492916"/>
		</linearGradient>
		
			<rect x="186.05" y="-44.36" style="fill:url(#SVGID_00000129900088256697716770000015265969423290510003_);" width="5.11" height="117.37"/>
		
			<linearGradient id="SVGID_00000096055012017335009080000011238515704853261707_" gradientUnits="userSpaceOnUse" x1="205.4182" y1="226.9885" x2="205.4182" y2="344.3564" gradientTransform="matrix(1 0 0 -1 0 300)">
			<stop  offset="0" style="stop-color:#220F10"/>
			<stop  offset="0.2135" style="stop-color:#2D1712"/>
			<stop  offset="0.6837" style="stop-color:#422415"/>
			<stop  offset="1" style="stop-color:#492916"/>
		</linearGradient>
		
			<rect x="202.87" y="-44.36" style="fill:url(#SVGID_00000096055012017335009080000011238515704853261707_);" width="5.11" height="117.37"/>
		
			<linearGradient id="SVGID_00000050650430968169954180000007852207092651351178_" gradientUnits="userSpaceOnUse" x1="222.2504" y1="226.9885" x2="222.2504" y2="344.3564" gradientTransform="matrix(1 0 0 -1 0 300)">
			<stop  offset="0" style="stop-color:#220F10"/>
			<stop  offset="0.2135" style="stop-color:#2D1712"/>
			<stop  offset="0.6837" style="stop-color:#422415"/>
			<stop  offset="1" style="stop-color:#492916"/>
		</linearGradient>
		
			<rect x="219.7" y="-44.36" style="fill:url(#SVGID_00000050650430968169954180000007852207092651351178_);" width="5.11" height="117.37"/>
		
			<linearGradient id="SVGID_00000048477162770157808980000012995921234841600415_" gradientUnits="userSpaceOnUse" x1="239.0683" y1="226.9885" x2="239.0683" y2="344.3564" gradientTransform="matrix(1 0 0 -1 0 300)">
			<stop  offset="0" style="stop-color:#220F10"/>
			<stop  offset="0.2135" style="stop-color:#2D1712"/>
			<stop  offset="0.6837" style="stop-color:#422415"/>
			<stop  offset="1" style="stop-color:#492916"/>
		</linearGradient>
		
			<rect x="236.52" y="-44.36" style="fill:url(#SVGID_00000048477162770157808980000012995921234841600415_);" width="5.11" height="117.37"/>
	</g>
</g>
<rect x="62.02" y="69.06" class="st13" width="185.65" height="13.63"/>
<g>
	<path class="st14" d="M124.37,326.41c0.27-4.3,0.59-8.59,1.04-12.89c0.39-3.63,1.3-7.16,1.93-10.75c0.49-2.79,1.07-5.78,0.8-8.62
		c-0.04-0.44-0.1-0.97-0.31-1.39c-0.09-0.19-0.29-0.27-0.49-0.21c-1.96,0.53-12.84,4.12-10.81,18.46c0,0,1.52,11.03,7.51,15.02"/>
	<path class="st14" d="M126.43,326.12c-0.16,0.03-0.37-4.26-0.37-4.49c0.01-3.32,0.61-6.62,1.66-9.77c0.5-1.52,1.04-2.93,1.32-4.53
		c0.26-1.59,0.39-3.19,0.57-4.79c0.36-3.1,0.59-6.21,0.64-9.32c0.01-0.39,0.47-0.56,0.73-0.27c2.2,2.56,8.61,11.13,6.08,21.58
		C137.05,314.54,135.36,324.52,126.43,326.12z"/>
	<circle class="st15" cx="119.82" cy="315.84" r="0.44"/>
	<circle class="st15" cx="119.18" cy="314.98" r="0.2"/>
	<circle class="st15" cx="118.99" cy="314.25" r="0.2"/>
	<circle class="st15" cx="135.29" cy="309.69" r="0.49"/>
	<circle class="st15" cx="135.29" cy="310.69" r="0.26"/>
	<circle class="st15" cx="135.55" cy="311.47" r="0.17"/>
	<path class="st15" d="M133.43,299.37c0,0,4.15,4.75,2.12,9.05c0,0-0.36,0.46-0.39-0.2c-0.01-0.66-0.14-6.35-1.96-8.27
		C133.22,299.94,132.96,299.45,133.43,299.37z"/>
	<path class="st15" d="M120.74,317.99c0,0,0.14-1.22,0.66,0c0,0,1.32,3.16,2.12,4.22c0,0,0.21,0.67-0.41,0.5
		C123.09,322.69,121.22,320.93,120.74,317.99z"/>
</g>
<g>
	<path class="st14" d="M82.97,319.4c3.25-2.85,6.51-5.65,9.87-8.35c2.85-2.29,5.99-4.13,8.98-6.22c2.32-1.62,4.86-3.32,6.66-5.52
		c0.29-0.34,0.61-0.76,0.76-1.2c0.06-0.19-0.01-0.4-0.19-0.5c-1.76-1.02-11.98-6.18-20.69,5.38c0,0-6.74,8.85-5.33,15.92"/>
	<path class="st14" d="M84.61,320.66c-0.13-0.09,2.75-3.27,2.92-3.43c2.36-2.33,5.12-4.25,8.08-5.72c1.43-0.72,2.82-1.33,4.13-2.26
		c1.32-0.93,2.53-1.97,3.79-2.97c2.45-1.93,4.81-3.98,7.06-6.12c0.27-0.26,0.73-0.06,0.7,0.33c-0.26,3.36-1.8,13.96-11,19.55
		C100.31,320,92.06,325.87,84.61,320.66z"/>
	<circle class="st15" cx="87.24" cy="308.73" r="0.44"/>
	<circle class="st15" cx="87.4" cy="307.66" r="0.2"/>
	<circle class="st15" cx="87.77" cy="307" r="0.2"/>
	<circle class="st15" cx="102.52" cy="315.34" r="0.49"/>
	<circle class="st15" cx="101.81" cy="316.04" r="0.26"/>
	<circle class="st15" cx="101.44" cy="316.77" r="0.17"/>
	<path class="st15" d="M108.52,306.73c0,0-0.43,6.29-4.91,7.88c0,0-0.57,0.07-0.13-0.41c0.44-0.49,4.4-4.58,4.48-7.22
		C107.95,306.99,108.12,306.45,108.52,306.73z"/>
	<path class="st15" d="M86.37,310.88c0,0,0.96-0.76,0.47,0.47c0,0-1.3,3.16-1.49,4.48c0,0-0.33,0.63-0.64,0.06
		C84.7,315.88,84.61,313.31,86.37,310.88z"/>
</g>
<g>
	<path class="st14" d="M65.36,282.39c3.25-2.85,6.51-5.65,9.87-8.35c2.85-2.29,5.99-4.13,8.98-6.22c2.32-1.62,4.86-3.32,6.66-5.52
		c0.29-0.34,0.61-0.76,0.76-1.2c0.06-0.19-0.01-0.4-0.19-0.5c-1.76-1.02-11.98-6.18-20.69,5.38c0,0-6.74,8.85-5.33,15.92"/>
	<path class="st14" d="M67.02,283.65c-0.13-0.09,2.75-3.27,2.92-3.43c2.36-2.33,5.12-4.25,8.08-5.72c1.43-0.72,2.82-1.33,4.13-2.26
		c1.32-0.93,2.53-1.97,3.79-2.97c2.45-1.93,4.81-3.98,7.06-6.12c0.27-0.26,0.73-0.06,0.7,0.33c-0.26,3.36-1.8,13.96-11,19.55
		C82.72,282.99,74.47,288.86,67.02,283.65z"/>
	<circle class="st15" cx="69.65" cy="271.72" r="0.44"/>
	<circle class="st15" cx="69.81" cy="270.66" r="0.2"/>
	<circle class="st15" cx="70.18" cy="269.99" r="0.2"/>
	<circle class="st15" cx="84.93" cy="278.33" r="0.49"/>
	<circle class="st15" cx="84.22" cy="279.03" r="0.26"/>
	<circle class="st15" cx="83.85" cy="279.77" r="0.17"/>
	<path class="st15" d="M90.93,269.72c0,0-0.43,6.29-4.91,7.88c0,0-0.57,0.07-0.13-0.41c0.46-0.49,4.4-4.58,4.48-7.22
		C90.36,269.98,90.53,269.45,90.93,269.72z"/>
	<path class="st15" d="M68.78,273.88c0,0,0.96-0.76,0.47,0.47c0,0-1.3,3.16-1.49,4.48c0,0-0.33,0.63-0.64,0.06
		C67.11,278.87,67.02,276.3,68.78,273.88z"/>
</g>
<g>
	<path class="st14" d="M189.69,303.16c-4.03-1.52-8.05-3.07-12.03-4.75c-3.36-1.43-6.48-3.33-9.72-4.98
		c-2.53-1.29-5.22-2.72-8.02-3.27c-0.44-0.09-0.96-0.19-1.43-0.1c-0.2,0.03-0.34,0.2-0.36,0.4c-0.07,2.03,0.21,13.49,14.52,15.7
		c0,0,10.98,1.76,16.55-2.82"/>
	<path class="st14" d="M190.01,301.1c-0.01,0.16-4.18-0.89-4.4-0.94c-3.17-0.97-6.16-2.5-8.87-4.42c-1.32-0.93-2.5-1.86-3.95-2.57
		c-1.44-0.72-2.93-1.3-4.4-1.94c-2.86-1.24-5.78-2.36-8.74-3.33c-0.36-0.11-0.4-0.61-0.04-0.77c3.09-1.36,13.16-5.01,22.42,0.46
		C182.01,287.57,191.08,292.07,190.01,301.1z"/>
	<circle class="st15" cx="178.25" cy="304.43" r="0.44"/>
	<circle class="st15" cx="177.25" cy="304.79" r="0.2"/>
	<circle class="st15" cx="176.48" cy="304.76" r="0.2"/>
	<circle class="st15" cx="176.87" cy="287.83" r="0.49"/>
	<circle class="st15" cx="177.82" cy="288.13" r="0.26"/>
	<circle class="st15" cx="178.64" cy="288.1" r="0.17"/>
	<path class="st15" d="M166.46,286.61c0,0,5.75-2.59,9.27,0.6c0,0,0.33,0.47-0.3,0.3c-0.63-0.17-6.12-1.72-8.48-0.53
		C166.94,286.98,166.38,287.08,166.46,286.61z"/>
	<path class="st15" d="M180.57,304.17c0,0-1.13-0.49,0.19-0.63c0,0,3.4-0.34,4.65-0.8c0,0,0.72-0.01,0.36,0.54
		C185.76,303.29,183.53,304.57,180.57,304.17z"/>
</g>
<g>
	<path class="st14" d="M158.39,267.95c-4.03-1.52-8.05-3.07-12.03-4.75c-3.36-1.43-6.48-3.33-9.72-4.98
		c-2.53-1.29-5.22-2.72-8.02-3.27c-0.44-0.09-0.96-0.19-1.43-0.1c-0.2,0.03-0.34,0.2-0.36,0.4c-0.07,2.03,0.21,13.49,14.52,15.7
		c0,0,10.98,1.76,16.55-2.82"/>
	<path class="st14" d="M158.7,265.89c-0.01,0.16-4.18-0.89-4.4-0.94c-3.17-0.97-6.16-2.5-8.87-4.42c-1.32-0.93-2.5-1.86-3.95-2.57
		c-1.44-0.72-2.93-1.3-4.4-1.94c-2.86-1.24-5.78-2.36-8.74-3.33c-0.36-0.11-0.4-0.61-0.04-0.77c3.09-1.36,13.16-5.01,22.42,0.46
		C150.71,252.36,159.78,256.86,158.7,265.89z"/>
	<circle class="st15" cx="146.95" cy="269.22" r="0.44"/>
	<circle class="st15" cx="145.95" cy="269.58" r="0.2"/>
	<circle class="st15" cx="145.18" cy="269.55" r="0.2"/>
	<circle class="st15" cx="145.56" cy="252.62" r="0.49"/>
	<circle class="st15" cx="146.52" cy="252.92" r="0.26"/>
	<circle class="st15" cx="147.33" cy="252.89" r="0.17"/>
	<path class="st15" d="M135.15,251.4c0,0,5.75-2.59,9.27,0.6c0,0,0.33,0.47-0.3,0.3s-6.12-1.72-8.48-0.53
		C135.64,251.77,135.08,251.87,135.15,251.4z"/>
	<path class="st15" d="M149.27,268.96c0,0-1.13-0.49,0.19-0.63c0,0,3.4-0.34,4.65-0.8c0,0,0.72-0.01,0.36,0.54
		C154.46,268.08,152.23,269.36,149.27,268.96z"/>
</g>
<g>
	<path class="st14" d="M108.92,245.21c-3.02-3.07-6.01-6.18-8.9-9.38c-2.45-2.72-4.46-5.75-6.72-8.61
		c-1.74-2.23-3.59-4.66-5.89-6.35c-0.36-0.27-0.79-0.57-1.24-0.7c-0.2-0.06-0.4,0.04-0.49,0.21c-0.92,1.82-5.49,12.31,6.54,20.36
		c0,0,9.22,6.22,16.19,4.42"/>
	<path class="st14" d="M110.08,243.48c-0.09,0.14-3.42-2.56-3.59-2.72c-2.46-2.22-4.52-4.88-6.18-7.75c-0.8-1.39-1.49-2.75-2.49-4
		c-1-1.26-2.12-2.42-3.17-3.62c-2.07-2.33-4.23-4.58-6.52-6.71c-0.29-0.26-0.1-0.73,0.29-0.72c3.38,0.07,14.03,1.02,20.14,9.87
		C108.54,227.85,114.86,235.76,110.08,243.48z"/>
	<circle class="st15" cx="98.01" cy="241.55" r="0.44"/>
	<circle class="st15" cx="96.95" cy="241.45" r="0.2"/>
	<circle class="st15" cx="96.27" cy="241.1" r="0.2"/>
	<circle class="st15" cx="103.76" cy="225.9" r="0.49"/>
	<circle class="st15" cx="104.5" cy="226.58" r="0.26"/>
	<circle class="st15" cx="105.25" cy="226.9" r="0.17"/>
	<path class="st15" d="M94.82,220.41c0,0,6.31,0.07,8.15,4.46c0,0,0.1,0.57-0.4,0.14s-4.82-4.13-7.47-4.06
		C95.11,220.95,94.56,220.81,94.82,220.41z"/>
	<path class="st15" d="M100.23,242.28c0,0-0.82-0.92,0.44-0.49c0,0,3.23,1.13,4.55,1.23c0,0,0.66,0.29,0.09,0.64
		C105.3,243.68,102.74,243.89,100.23,242.28z"/>
</g>
<g>
	<path class="st14" d="M235.34,321.13c-3.02-3.07-6.01-6.18-8.9-9.38c-2.45-2.72-4.46-5.75-6.72-8.61
		c-1.74-2.23-3.59-4.66-5.89-6.35c-0.36-0.27-0.79-0.57-1.24-0.7c-0.2-0.06-0.4,0.04-0.49,0.21c-0.92,1.82-5.49,12.31,6.54,20.36
		c0,0,9.22,6.22,16.19,4.42"/>
	<path class="st14" d="M236.5,319.42c-0.09,0.14-3.42-2.56-3.59-2.72c-2.46-2.22-4.52-4.88-6.18-7.75c-0.8-1.39-1.49-2.75-2.49-4
		c-1-1.26-2.12-2.42-3.17-3.62c-2.07-2.33-4.23-4.58-6.52-6.71c-0.29-0.26-0.1-0.73,0.29-0.72c3.38,0.07,14.03,1.02,20.14,9.87
		C234.97,303.77,241.28,311.68,236.5,319.42z"/>
	<circle class="st15" cx="224.45" cy="317.47" r="0.44"/>
	<circle class="st15" cx="223.37" cy="317.37" r="0.2"/>
	<circle class="st15" cx="222.7" cy="317.03" r="0.2"/>
	<circle class="st15" cx="230.18" cy="301.84" r="0.49"/>
	<circle class="st15" cx="230.92" cy="302.5" r="0.26"/>
	<circle class="st15" cx="231.68" cy="302.83" r="0.17"/>
	<path class="st15" d="M221.26,296.34c0,0,6.31,0.07,8.15,4.46c0,0,0.1,0.57-0.4,0.14c-0.5-0.43-4.82-4.13-7.47-4.06
		C221.54,296.88,220.98,296.75,221.26,296.34z"/>
	<path class="st15" d="M226.65,318.22c0,0-0.82-0.92,0.44-0.49c0,0,3.23,1.13,4.55,1.23c0,0,0.66,0.29,0.09,0.64
		C231.72,319.6,229.16,319.83,226.65,318.22z"/>
</g>
<g>
	<path class="st14" d="M228.42,288.48c0.51-4.28,1.06-8.55,1.74-12.81c0.59-3.6,1.69-7.08,2.52-10.63c0.64-2.76,1.39-5.72,1.26-8.57
		c-0.01-0.44-0.04-0.97-0.24-1.4c-0.09-0.19-0.27-0.29-0.47-0.24c-1.99,0.41-13.04,3.42-11.8,17.83c0,0,0.92,11.08,6.68,15.4"/>
	<path class="st14" d="M230.49,288.31c-0.16,0.01-0.14-4.28-0.13-4.5c0.2-3.32,0.97-6.58,2.19-9.67c0.59-1.49,1.22-2.87,1.56-4.45
		c0.36-1.57,0.57-3.16,0.83-4.75c0.51-3.07,0.92-6.16,1.16-9.28c0.03-0.39,0.5-0.53,0.74-0.23c2.06,2.67,7.99,11.58,4.89,21.88
		C241.74,277.33,239.52,287.2,230.49,288.31z"/>
	<circle class="st15" cx="224.47" cy="277.69" r="0.44"/>
	<circle class="st15" cx="223.87" cy="276.79" r="0.2"/>
	<circle class="st15" cx="223.72" cy="276.04" r="0.2"/>
	<circle class="st15" cx="240.25" cy="272.38" r="0.49"/>
	<circle class="st15" cx="240.21" cy="273.38" r="0.26"/>
	<circle class="st15" cx="240.42" cy="274.17" r="0.17"/>
	<path class="st15" d="M238.96,261.97c0,0,3.89,4.98,1.62,9.15c0,0-0.39,0.44-0.37-0.21s0.21-6.35-1.5-8.37
		C238.72,262.54,238.47,262.03,238.96,261.97z"/>
	<path class="st15" d="M225.26,279.87c0,0,0.2-1.22,0.66,0.04c0,0,1.14,3.22,1.89,4.32c0,0,0.19,0.69-0.44,0.47
		C227.36,284.71,225.59,282.85,225.26,279.87z"/>
</g>
<g>
	<path class="st14" d="M189.22,267.03c1.47-4.05,2.97-8.09,4.6-12.08c1.39-3.38,3.25-6.51,4.86-9.78c1.24-2.55,2.65-5.25,3.17-8.07
		c0.09-0.44,0.17-0.96,0.09-1.43c-0.04-0.2-0.2-0.34-0.4-0.34c-2.03-0.04-13.49,0.37-15.53,14.7c0,0-1.62,11.01,3.02,16.52"/>
	<path class="st14" d="M191.28,267.33c-0.16-0.01,0.83-4.19,0.9-4.42c0.94-3.17,2.43-6.19,4.32-8.91c0.92-1.32,1.83-2.52,2.53-3.98
		c0.7-1.44,1.27-2.95,1.89-4.43c1.2-2.87,2.3-5.81,3.23-8.77c0.11-0.37,0.61-0.4,0.77-0.06c1.4,3.07,5.16,13.09-0.19,22.42
		C204.72,259.18,200.32,268.31,191.28,267.33z"/>
	<circle class="st15" cx="187.82" cy="255.62" r="0.44"/>
	<circle class="st15" cx="187.45" cy="254.62" r="0.2"/>
	<circle class="st15" cx="187.46" cy="253.85" r="0.2"/>
	<circle class="st15" cx="204.4" cy="254.03" r="0.49"/>
	<circle class="st15" cx="204.11" cy="254.99" r="0.26"/>
	<circle class="st15" cx="204.15" cy="255.81" r="0.17"/>
	<path class="st15" d="M205.5,243.59c0,0,2.66,5.72-0.5,9.28c0,0-0.47,0.34-0.31-0.3c0.17-0.64,1.64-6.14,0.43-8.48
		C205.13,244.09,205.01,243.54,205.5,243.59z"/>
	<path class="st15" d="M188.11,257.92c0,0,0.47-1.13,0.63,0.19c0,0,0.39,3.4,0.86,4.63c0,0,0.01,0.72-0.54,0.36
		C189.05,263.11,187.74,260.9,188.11,257.92z"/>
</g>
<g>
	<path class="st14" d="M209.11,203.99c3.36-2.7,6.75-5.36,10.21-7.92c2.95-2.17,6.16-3.88,9.24-5.82c2.39-1.52,4.99-3.1,6.91-5.23
		c0.3-0.33,0.64-0.73,0.82-1.17c0.07-0.19,0-0.4-0.17-0.5c-1.72-1.09-11.71-6.69-20.91,4.48c0,0-7.11,8.55-6.02,15.67"/>
	<path class="st14" d="M210.72,205.31c-0.13-0.1,2.89-3.15,3.06-3.3c2.46-2.23,5.29-4.02,8.32-5.38c1.46-0.66,2.87-1.2,4.23-2.09
		c1.34-0.87,2.62-1.86,3.92-2.8c2.52-1.83,4.98-3.76,7.32-5.82c0.29-0.26,0.73-0.03,0.69,0.36c-0.4,3.35-2.4,13.86-11.83,19.05
		C226.43,205.34,217.94,210.84,210.72,205.31z"/>
	<circle class="st15" cx="213.85" cy="193.51" r="0.44"/>
	<circle class="st15" cx="214.06" cy="192.45" r="0.2"/>
	<circle class="st15" cx="214.46" cy="191.81" r="0.2"/>
	<circle class="st15" cx="228.84" cy="200.78" r="0.49"/>
	<circle class="st15" cx="228.11" cy="201.45" r="0.26"/>
	<circle class="st15" cx="227.71" cy="202.16" r="0.17"/>
	<path class="st15" d="M235.2,192.44c0,0-0.7,6.28-5.25,7.67c0,0-0.59,0.04-0.11-0.41c0.47-0.46,4.59-4.39,4.78-7.02
		C234.63,192.67,234.83,192.14,235.2,192.44z"/>
	<path class="st15" d="M212.9,195.63c0,0,0.99-0.72,0.44,0.49c0,0-1.44,3.1-1.69,4.4c0,0-0.36,0.61-0.66,0.03
		C211,200.55,211.05,197.97,212.9,195.63z"/>
</g>
<g>
	<path class="st14" d="M76.8,187.2c4.16-1.13,8.32-2.23,12.53-3.2c3.56-0.82,7.19-1.1,10.8-1.66c2.79-0.44,5.82-0.86,8.41-2.05
		c0.41-0.19,0.89-0.41,1.22-0.74c0.14-0.14,0.16-0.36,0.04-0.53c-1.13-1.67-8.08-10.81-20.97-4.22c0,0-9.92,5.02-11.76,11.98"/>
	<path class="st14" d="M77.75,189.06c-0.09-0.14,3.9-1.73,4.13-1.82c3.15-1.07,6.46-1.57,9.77-1.62c1.6-0.01,3.12,0.04,4.71-0.23
		c1.59-0.27,3.15-0.66,4.71-1.02c3.05-0.67,6.06-1.46,9.02-2.42c0.36-0.11,0.69,0.27,0.49,0.6c-1.7,2.92-7.72,11.76-18.43,12.76
		C92.15,195.34,82.17,197,77.75,189.06z"/>
	<circle class="st15" cx="85.33" cy="179.47" r="0.44"/>
	<circle class="st15" cx="85.93" cy="178.6" r="0.2"/>
	<circle class="st15" cx="86.56" cy="178.17" r="0.2"/>
	<circle class="st15" cx="96.17" cy="192.11" r="0.49"/>
	<circle class="st15" cx="95.22" cy="192.42" r="0.26"/>
	<circle class="st15" cx="94.58" cy="192.93" r="0.17"/>
	<path class="st15" d="M105.33,186.99c0,0-3.15,5.48-7.87,4.95c0,0-0.56-0.19,0.07-0.43c0.61-0.23,5.96-2.2,7.18-4.53
		C104.72,186.98,105.1,186.56,105.33,186.99z"/>
	<path class="st15" d="M83.6,181.04c0,0,1.2-0.26,0.21,0.63c0,0-2.56,2.27-3.3,3.38c0,0-0.57,0.43-0.61-0.23
		C79.91,184.8,80.96,182.44,83.6,181.04z"/>
</g>
<g>
	<path class="st14" d="M83.04,149.42c4.16-1.13,8.32-2.23,12.53-3.2c3.56-0.82,7.19-1.1,10.8-1.66c2.79-0.44,5.82-0.86,8.41-2.05
		c0.41-0.19,0.89-0.41,1.22-0.74c0.14-0.14,0.16-0.36,0.04-0.53c-1.13-1.67-8.08-10.81-20.97-4.22c0,0-9.92,5.02-11.76,11.98"/>
	<path class="st14" d="M83.98,151.27c-0.09-0.14,3.9-1.73,4.13-1.82c3.15-1.07,6.46-1.57,9.77-1.62c1.6-0.01,3.12,0.04,4.71-0.23
		c1.59-0.27,3.15-0.66,4.71-1.02c3.05-0.67,6.06-1.46,9.02-2.42c0.36-0.11,0.69,0.27,0.49,0.6c-1.7,2.92-7.72,11.76-18.43,12.76
		C98.38,157.56,88.4,159.22,83.98,151.27z"/>
	<circle class="st15" cx="91.56" cy="141.68" r="0.44"/>
	<circle class="st15" cx="92.16" cy="140.81" r="0.2"/>
	<circle class="st15" cx="92.81" cy="140.38" r="0.2"/>
	<circle class="st15" cx="102.42" cy="154.33" r="0.49"/>
	<circle class="st15" cx="101.47" cy="154.64" r="0.26"/>
	<circle class="st15" cx="100.81" cy="155.14" r="0.17"/>
	<path class="st15" d="M111.57,149.21c0,0-3.15,5.48-7.87,4.95c0,0-0.56-0.19,0.07-0.43c0.63-0.24,5.96-2.2,7.18-4.53
		C110.95,149.19,111.34,148.78,111.57,149.21z"/>
	<path class="st15" d="M89.85,143.26c0,0,1.2-0.26,0.21,0.63c0,0-2.56,2.27-3.3,3.38c0,0-0.57,0.43-0.61-0.23
		C86.14,147.02,87.2,144.66,89.85,143.26z"/>
</g>
<g>
	<path class="st14" d="M94.55,92.95c-2.8,3.27-5.63,6.54-8.57,9.68c-2.49,2.67-5.33,4.95-7.99,7.45c-2.06,1.93-4.33,3.99-5.81,6.44
		c-0.23,0.39-0.5,0.84-0.59,1.3c-0.03,0.2,0.07,0.39,0.26,0.47c1.89,0.74,12.76,4.39,19.71-8.29c0,0,5.39-9.74,2.99-16.52"/>
	<path class="st14" d="M92.72,91.95c0.14,0.07-2.25,3.63-2.39,3.82c-2,2.65-4.46,4.93-7.18,6.82c-1.32,0.92-2.6,1.72-3.76,2.83
		c-1.16,1.12-2.23,2.32-3.33,3.49c-2.13,2.27-4.19,4.62-6.11,7.08c-0.23,0.3-0.72,0.16-0.74-0.21c-0.23-3.38-0.23-14.07,8.07-20.92
		C77.27,94.85,84.61,87.86,92.72,91.95z"/>
	<circle class="st15" cx="91.85" cy="104.13" r="0.44"/>
	<circle class="st15" cx="91.85" cy="105.2" r="0.2"/>
	<circle class="st15" cx="91.56" cy="105.9" r="0.2"/>
	<circle class="st15" cx="75.77" cy="99.78" r="0.49"/>
	<circle class="st15" cx="76.37" cy="98.98" r="0.26"/>
	<circle class="st15" cx="76.63" cy="98.21" r="0.17"/>
	<path class="st15" d="M71.07,109.16c0,0-0.47-6.29,3.73-8.51c0,0,0.56-0.16,0.19,0.39c-0.37,0.54-3.69,5.16-3.39,7.79
		C71.6,108.82,71.51,109.38,71.07,109.16z"/>
	<path class="st15" d="M92.39,101.87c0,0-0.84,0.89-0.53-0.4c0,0,0.83-3.32,0.83-4.65c0,0,0.23-0.67,0.63-0.14
		C93.33,96.68,93.78,99.21,92.39,101.87z"/>
</g>
<g>
	<path class="st14" d="M236.13,137.91c-3.99-1.6-7.98-3.26-11.91-5.03c-3.33-1.5-6.39-3.48-9.61-5.21
		c-2.49-1.34-5.16-2.83-7.94-3.46c-0.44-0.1-0.96-0.2-1.42-0.14c-0.2,0.03-0.34,0.19-0.36,0.39c-0.11,2.02-0.1,13.49,14.14,16.05
		c0,0,10.94,2,16.62-2.43"/>
	<path class="st14" d="M236.5,135.86c-0.03,0.16-4.16-0.97-4.38-1.06c-3.15-1.04-6.09-2.65-8.75-4.62
		c-1.29-0.96-2.46-1.92-3.89-2.66c-1.43-0.74-2.9-1.37-4.36-2.05c-2.83-1.3-5.72-2.5-8.65-3.53c-0.36-0.13-0.39-0.63-0.03-0.77
		c3.12-1.29,13.26-4.69,22.4,0.99C228.82,122.15,237.77,126.87,236.5,135.86z"/>
	<circle class="st15" cx="224.66" cy="138.92" r="0.44"/>
	<circle class="st15" cx="223.64" cy="139.25" r="0.2"/>
	<circle class="st15" cx="222.89" cy="139.22" r="0.2"/>
	<circle class="st15" cx="223.66" cy="122.29" r="0.49"/>
	<circle class="st15" cx="224.62" cy="122.61" r="0.26"/>
	<circle class="st15" cx="225.43" cy="122.61" r="0.17"/>
	<path class="st15" d="M213.28,120.83c0,0,5.82-2.46,9.25,0.82c0,0,0.33,0.49-0.31,0.3c-0.63-0.19-6.08-1.86-8.47-0.73
		C213.76,121.22,213.21,121.31,213.28,120.83z"/>
	<path class="st15" d="M226.98,138.72c0,0-1.12-0.51,0.2-0.63c0,0,3.4-0.26,4.66-0.69c0,0,0.72,0,0.34,0.56
		C232.2,137.95,229.94,139.18,226.98,138.72z"/>
</g>
<g>
	<path class="st14" d="M184.4,167.45c4.09-1.34,8.19-2.66,12.34-3.85c3.52-1,7.12-1.47,10.7-2.22c2.77-0.59,5.76-1.16,8.29-2.49
		c0.4-0.21,0.86-0.46,1.17-0.82c0.13-0.16,0.14-0.37,0.03-0.53c-1.22-1.62-8.62-10.37-21.15-3.13c0,0-9.65,5.52-11.13,12.57"/>
	<path class="st14" d="M185.43,169.26c-0.09-0.14,3.8-1.94,4.03-2.03c3.07-1.23,6.36-1.9,9.68-2.12c1.6-0.1,3.12-0.11,4.69-0.47
		c1.57-0.34,3.1-0.83,4.65-1.26c3-0.83,5.98-1.77,8.9-2.89c0.36-0.13,0.7,0.23,0.51,0.57c-1.56,3-7.11,12.14-17.75,13.7
		C200.15,174.78,190.25,176.95,185.43,169.26z"/>
	<circle class="st15" cx="192.5" cy="159.29" r="0.44"/>
	<circle class="st15" cx="193.06" cy="158.37" r="0.2"/>
	<circle class="st15" cx="193.67" cy="157.92" r="0.2"/>
	<circle class="st15" cx="204" cy="171.34" r="0.49"/>
	<circle class="st15" cx="203.07" cy="171.72" r="0.26"/>
	<circle class="st15" cx="202.44" cy="172.25" r="0.17"/>
	<path class="st15" d="M212.88,165.77c0,0-2.86,5.63-7.59,5.35c0,0-0.56-0.16,0.04-0.43c0.6-0.27,5.83-2.5,6.94-4.91
		C212.26,165.78,212.62,165.35,212.88,165.77z"/>
	<path class="st15" d="M190.87,160.95c0,0,1.19-0.33,0.24,0.61c0,0-2.43,2.4-3.12,3.53c0,0-0.54,0.46-0.61-0.2
		C187.38,164.9,188.31,162.49,190.87,160.95z"/>
</g>
<g>
	<path class="st14" d="M147.78,237.16c3.1-2.99,6.24-5.95,9.45-8.81c2.73-2.43,5.79-4.42,8.68-6.64c2.25-1.73,4.69-3.55,6.41-5.83
		c0.27-0.36,0.57-0.79,0.7-1.24c0.06-0.2-0.03-0.4-0.21-0.49c-1.8-0.93-12.27-5.61-20.42,6.35c0,0-6.31,9.17-4.58,16.16"/>
	<path class="st14" d="M149.49,238.33c-0.14-0.09,2.59-3.4,2.75-3.58c2.25-2.45,4.91-4.48,7.81-6.11c1.4-0.79,2.76-1.46,4.02-2.46
		c1.26-0.99,2.45-2.09,3.65-3.15c2.35-2.05,4.62-4.19,6.76-6.45c0.26-0.27,0.73-0.09,0.72,0.29c-0.1,3.38-1.14,14.03-10.05,20.04
		C165.14,236.93,157.17,243.18,149.49,238.33z"/>
	<circle class="st15" cx="151.54" cy="226.29" r="0.44"/>
	<circle class="st15" cx="151.65" cy="225.22" r="0.2"/>
	<circle class="st15" cx="152" cy="224.54" r="0.2"/>
	<circle class="st15" cx="167.13" cy="232.17" r="0.49"/>
	<circle class="st15" cx="166.46" cy="232.9" r="0.26"/>
	<circle class="st15" cx="166.11" cy="233.65" r="0.17"/>
	<path class="st15" d="M172.7,223.29c0,0-0.13,6.31-4.53,8.11c0,0-0.57,0.1-0.14-0.4c0.43-0.5,4.18-4.79,4.12-7.42
		C172.16,223.57,172.3,223.03,172.7,223.29z"/>
	<path class="st15" d="M150.78,228.48c0,0,0.93-0.8,0.49,0.44c0,0-1.16,3.22-1.27,4.53c0,0-0.3,0.64-0.64,0.09
		C149.35,233.55,149.15,230.99,150.78,228.48z"/>
</g>
<g>
	<path class="st14" d="M190.14,188.15c0.21,4.3,0.39,8.61,0.43,12.91c0.03,3.66-0.47,7.26-0.7,10.9c-0.17,2.83-0.41,5.86,0.19,8.67
		c0.1,0.44,0.21,0.96,0.47,1.34c0.11,0.17,0.31,0.24,0.5,0.16c1.89-0.74,12.28-5.56,8.64-19.56c0,0-2.76-10.78-9.17-14.06"/>
	<path class="st14" d="M188.12,188.68c0.16-0.04,0.86,4.19,0.89,4.42c0.37,3.3,0.14,6.65-0.53,9.9c-0.33,1.57-0.72,3.03-0.79,4.65
		c-0.09,1.6-0.03,3.22-0.03,4.82c0,3.12,0.13,6.24,0.41,9.34c0.03,0.39-0.41,0.61-0.69,0.34c-2.47-2.29-9.82-10.07-8.49-20.75
		C178.9,201.39,179.43,191.28,188.12,188.68z"/>
	<circle class="st15" cx="195.86" cy="198.13" r="0.44"/>
	<circle class="st15" cx="196.59" cy="198.92" r="0.2"/>
	<circle class="st15" cx="196.87" cy="199.63" r="0.2"/>
	<circle class="st15" cx="181.19" cy="206.01" r="0.49"/>
	<circle class="st15" cx="181.07" cy="205.02" r="0.26"/>
	<circle class="st15" cx="180.73" cy="204.28" r="0.17"/>
	<path class="st15" d="M184.2,216.06c0,0-4.66-4.25-3.13-8.75c0,0,0.3-0.5,0.4,0.16c0.1,0.66,0.86,6.29,2.89,7.99
		C184.36,215.46,184.67,215.92,184.2,216.06z"/>
	<path class="st15" d="M194.7,196.11c0,0,0,1.23-0.66,0.07c0,0-1.67-2.99-2.59-3.95c0,0-0.3-0.64,0.36-0.54
		C191.83,191.71,193.88,193.24,194.7,196.11z"/>
</g>
<g>
	<path class="st14" d="M129.24,188.13c-0.8,4.23-1.64,8.47-2.62,12.66c-0.83,3.56-2.16,6.95-3.23,10.44
		c-0.83,2.7-1.77,5.61-1.84,8.47c-0.01,0.44-0.01,0.97,0.14,1.42c0.07,0.19,0.26,0.3,0.46,0.27c2-0.29,13.24-2.53,12.97-17
		c0,0-0.16-11.13-5.62-15.82"/>
	<path class="st14" d="M127.17,188.18c0.16-0.01-0.14,4.28-0.17,4.5c-0.41,3.29-1.42,6.49-2.83,9.5c-0.69,1.44-1.4,2.79-1.86,4.33
		s-0.77,3.12-1.16,4.68c-0.73,3.03-1.34,6.09-1.79,9.18c-0.06,0.37-0.54,0.5-0.76,0.17c-1.87-2.8-7.19-12.1-3.4-22.17
		C115.21,198.37,118.09,188.66,127.17,188.18z"/>
	<circle class="st15" cx="132.46" cy="199.17" r="0.44"/>
	<circle class="st15" cx="132.99" cy="200.1" r="0.2"/>
	<circle class="st15" cx="133.11" cy="200.86" r="0.2"/>
	<circle class="st15" cx="116.36" cy="203.39" r="0.49"/>
	<circle class="st15" cx="116.47" cy="202.41" r="0.26"/>
	<circle class="st15" cx="116.32" cy="201.61" r="0.17"/>
	<path class="st15" d="M116.95,213.88c0,0-3.55-5.22-1-9.24c0,0,0.41-0.41,0.36,0.24s-0.63,6.32,0.93,8.44
		C117.23,213.33,117.43,213.85,116.95,213.88z"/>
	<path class="st15" d="M131.82,196.94c0,0-0.29,1.19-0.66-0.09c0,0-0.93-3.29-1.59-4.43c0,0-0.13-0.7,0.47-0.44
		C130.05,191.98,131.7,193.95,131.82,196.94z"/>
</g>
<g>
	
		<ellipse transform="matrix(0.5236 -0.8519 0.8519 0.5236 -117.3231 224.8586)" class="st16" cx="142.41" cy="217.34" rx="10.41" ry="43.92"/>
	
		<linearGradient id="SVGID_00000083054797430122380400000013267479209090266522_" gradientUnits="userSpaceOnUse" x1="-258.4485" y1="2029.3052" x2="-258.4485" y2="2049.0361" gradientTransform="matrix(0.8519 0.5236 0.5236 -0.8519 -704.7198 2089.3896)">
		<stop  offset="0" style="stop-color:#FFFFFF"/>
		<stop  offset="0.122" style="stop-color:#E9E9E9"/>
		<stop  offset="0.2743" style="stop-color:#D6D4D5"/>
		<stop  offset="0.4472" style="stop-color:#C8C6C7"/>
		<stop  offset="0.6562" style="stop-color:#BFBEBF"/>
		<stop  offset="1" style="stop-color:#BDBBBC"/>
	</linearGradient>
	<path style="fill:url(#SVGID_00000083054797430122380400000013267479209090266522_);" d="M180.31,239.77
		c-2.85,4.63-21.92-1.89-42.59-14.6c-20.66-12.7-35.11-26.76-32.25-31.4s21.92,1.89,42.59,14.6
		C168.71,221.07,183.16,235.13,180.31,239.77z"/>
	
		<ellipse transform="matrix(0.5236 -0.8519 0.8519 0.5236 -116.6252 224.9818)" class="st18" cx="142.87" cy="216.78" rx="5.72" ry="28.71"/>
</g>
<linearGradient id="SVGID_00000084518196986291533140000003452600501075003813_" gradientUnits="userSpaceOnUse" x1="-3459.366" y1="1802.9916" x2="-3438.1682" y2="1802.9916" gradientTransform="matrix(-0.8391 -0.5869 0.5744 -0.8212 -3791.894 -382.0213)">
	<stop  offset="0" style="stop-color:#BDBBBC"/>
	<stop  offset="1" style="stop-color:#DADAD9"/>
</linearGradient>
<path style="fill:url(#SVGID_00000084518196986291533140000003452600501075003813_);" d="M141.69,174.63l-3.15,0.9
	c0,0-9.61-11.31-8.49-19.71c0,0,1.39-14.3,14.77-2.52l2.1,3.19c-1.14,0.3-2.3,0.61-3.45,0.92c-3.29-3.12-6.89-4-8.35-2.79
	c-1.49,1.23-0.96,4.76-0.74,5.49c0.31,1.07,0.69,2.17,1.13,3.3C137.25,167.96,139.51,171.69,141.69,174.63z"/>
<linearGradient id="SVGID_00000181054266710544741630000011202943935092270210_" gradientUnits="userSpaceOnUse" x1="-3481.9182" y1="1775.8708" x2="-3481.9182" y2="1821.9911" gradientTransform="matrix(-0.8391 -0.5869 0.5744 -0.8212 -3791.894 -382.0213)">
	<stop  offset="0" style="stop-color:#BDBBBC"/>
	<stop  offset="1" style="stop-color:#FFFFFF"/>
</linearGradient>
<path style="fill:url(#SVGID_00000181054266710544741630000011202943935092270210_);" d="M204.05,184.76
	c0,0-19.21,27.04-40.37,24.11c0,0-16.45-2.39-23.5-16.45c0,0-10.67-15.07,8.37-46.49"/>
<path class="st16" d="M148.25,146.38c-0.74,1.06,0.4,3.33,2.96,6.32c4.1,4.81,11.86,11.48,21.29,18.09
	c9.88,6.91,19.21,12.04,25.1,14.09c3.26,1.13,5.46,1.3,6.16,0.33c0.13-0.19,0.2-0.43,0.21-0.69c0.19-3.59-10.21-13.76-24.47-23.73
	c-14.27-9.98-27.37-16.26-30.69-14.84C148.56,146.03,148.38,146.18,148.25,146.38z"/>
<path class="st21" d="M148.78,145.57c-0.63,0.89,0.03,2.6,1.72,4.86c3.62,4.88,12,12.33,22.47,19.65
	c10.77,7.54,20.89,12.94,26.64,14.52c2.43,0.66,4.09,0.64,4.68-0.2c1.97-2.82-8.87-13.79-24.18-24.51
	C164.77,149.16,150.74,142.76,148.78,145.57z"/>
<path class="st22" d="M150.65,150.05c-0.09,0.11-0.13,0.24-0.17,0.39c3.62,4.88,12,12.33,22.47,19.65
	c10.77,7.54,20.89,12.94,26.64,14.52c0.07-0.06,0.13-0.11,0.17-0.19c1.73-2.47-7.87-12.17-21.44-21.65
	C164.78,153.27,152.38,147.58,150.65,150.05z"/>
<path class="st23" d="M191.17,198.72c0,0-6.06,2.76-28.16-13.39c0,0-22.72-15.09-23.11-21.91c0,0,2.32,6.32,23.63,21.17
	C163.52,184.59,182.97,198.49,191.17,198.72z"/>
<path class="st23" d="M198.89,190.87c0,0-4.55,2.79-29.37-14.69c0,0-22.25-14.87-25.04-23.02c0,0,5.86,9.44,25.64,22.18
	C170.12,175.32,191.34,190.49,198.89,190.87z"/>
<path class="st23" d="M200.26,189.81c0,0-4.56,2.77-29.67-14.9c0,0-22.51-15.06-25.37-23.25c0,0,5.96,9.51,25.96,22.41
	C171.17,174.06,192.65,189.39,200.26,189.81z"/>
<path class="st24" d="M195.53,187.71l-5.81-2.86c0,0-12.16,18.59-21.29,20.71C168.43,205.55,182.19,206,195.53,187.71z"/>
<g>
	<path class="st25" d="M164.05,18.3L164.05,18.3c0.7,4.56,6.85,5.53,8.94,1.42l0,0c2.45-4.85,9.8-2.46,8.92,2.9l0,0
		c-0.74,4.56,4.81,7.38,8.07,4.1l0,0c3.82-3.85,10.08,0.69,7.59,5.52l0,0c-2.12,4.1,2.29,8.51,6.39,6.39l0,0
		c4.83-2.49,9.37,3.78,5.52,7.59l0,0c-3.27,3.26-0.46,8.8,4.1,8.07l0,0c5.36-0.87,7.75,6.48,2.9,8.92l0,0
		c-4.12,2.09-3.15,8.22,1.42,8.94l0,0c5.36,0.83,5.36,8.57,0,9.4l0,0c-4.56,0.7-5.53,6.85-1.42,8.94l0,0
		c4.85,2.45,2.46,9.8-2.9,8.92l0,0c-4.56-0.74-7.38,4.81-4.1,8.07l0,0c3.85,3.82-0.69,10.08-5.52,7.59l0,0
		c-4.1-2.12-8.51,2.29-6.39,6.39l0,0c2.49,4.83-3.78,9.37-7.59,5.52l0,0c-3.26-3.27-8.8-0.46-8.07,4.1l0,0
		c0.87,5.36-6.48,7.75-8.92,2.9l0,0c-2.09-4.12-8.22-3.15-8.94,1.42l0,0c-0.83,5.36-8.57,5.36-9.4,0l0,0
		c-0.7-4.56-6.85-5.53-8.94-1.42l0,0c-2.45,4.85-9.8,2.46-8.92-2.9l0,0c0.74-4.56-4.81-7.38-8.07-4.1l0,0
		c-3.82,3.85-10.08-0.69-7.59-5.52l0,0c2.12-4.1-2.29-8.51-6.39-6.39l0,0c-4.83,2.49-9.37-3.78-5.52-7.59l0,0
		c3.27-3.26,0.46-8.8-4.1-8.07l0,0c-5.36,0.87-7.75-6.48-2.9-8.92l0,0c4.12-2.09,3.15-8.22-1.42-8.94l0,0
		c-5.36-0.83-5.36-8.57,0-9.4l0,0c4.56-0.7,5.53-6.85,1.42-8.94l0,0c-4.85-2.45-2.46-9.8,2.9-8.92l0,0c4.56,0.74,7.38-4.81,4.1-8.07
		l0,0c-3.85-3.82,0.69-10.08,5.52-7.59l0,0c4.1,2.12,8.51-2.29,6.39-6.39l0,0c-2.49-4.83,3.78-9.37,7.59-5.52l0,0
		c3.26,3.27,8.8,0.46,8.07-4.1l0,0c-0.87-5.36,6.48-7.75,8.92-2.9l0,0c2.09,4.12,8.22,3.15,8.94-1.42l0,0
		C155.49,12.93,163.22,12.93,164.05,18.3z"/>
	<path class="st26" d="M163.32,27.39L163.32,27.39c0.6,3.86,5.79,4.68,7.55,1.2l0,0c2.07-4.09,8.28-2.07,7.54,2.45l0,0
		c-0.63,3.85,4.06,6.24,6.81,3.48l0,0c3.23-3.26,8.51,0.59,6.42,4.66l0,0c-1.79,3.48,1.93,7.19,5.41,5.41l0,0
		c4.08-2.1,7.92,3.19,4.66,6.42l0,0c-2.77,2.75-0.39,7.44,3.48,6.81l0,0c4.53-0.73,6.55,5.48,2.45,7.54l0,0
		c-3.49,1.76-2.66,6.95,1.2,7.55l0,0c4.53,0.7,4.53,7.24,0,7.94l0,0c-3.86,0.6-4.68,5.79-1.2,7.55l0,0
		c4.09,2.07,2.07,8.28-2.45,7.54l0,0c-3.85-0.63-6.24,4.06-3.48,6.81l0,0c3.26,3.23-0.59,8.51-4.66,6.42l0,0
		c-3.48-1.79-7.19,1.93-5.41,5.41l0,0c2.1,4.08-3.19,7.92-6.42,4.66l0,0c-2.75-2.77-7.44-0.39-6.81,3.48l0,0
		c0.73,4.53-5.48,6.55-7.54,2.45l0,0c-1.76-3.49-6.95-2.66-7.55,1.2l0,0c-0.7,4.53-7.24,4.53-7.94,0l0,0
		c-0.6-3.86-5.79-4.68-7.55-1.2l0,0c-2.07,4.09-8.28,2.07-7.54-2.45l0,0c0.63-3.85-4.06-6.24-6.81-3.48l0,0
		c-3.23,3.26-8.51-0.59-6.42-4.66l0,0c1.79-3.48-1.93-7.19-5.41-5.41l0,0c-4.08,2.1-7.92-3.19-4.66-6.42l0,0
		c2.77-2.75,0.39-7.44-3.48-6.81l0,0c-4.53,0.73-6.55-5.48-2.45-7.54l0,0c3.49-1.76,2.66-6.95-1.2-7.55l0,0
		c-4.53-0.7-4.53-7.24,0-7.94l0,0c3.86-0.6,4.68-5.79,1.2-7.55l0,0c-4.09-2.07-2.07-8.28,2.45-7.54l0,0
		c3.85,0.63,6.24-4.06,3.48-6.81l0,0c-3.26-3.23,0.59-8.51,4.66-6.42l0,0c3.48,1.79,7.19-1.93,5.41-5.41l0,0
		c-2.1-4.08,3.19-7.92,6.42-4.66l0,0c2.75,2.77,7.44,0.39,6.81-3.48l0,0c-0.73-4.53,5.48-6.55,7.54-2.45l0,0
		c1.76,3.49,6.95,2.66,7.55-1.2l0,0C156.09,22.87,162.62,22.87,163.32,27.39z"/>
	<path class="st25" d="M164.05,18.3L164.05,18.3c0.7,4.56,6.85,5.53,8.94,1.42l0,0c2.45-4.85,9.8-2.46,8.92,2.9l0,0
		c-0.74,4.56,4.81,7.38,8.07,4.1l0,0c3.82-3.85,10.08,0.69,7.59,5.52l0,0c-2.12,4.1,2.29,8.51,6.39,6.39l0,0
		c4.83-2.49,9.37,3.78,5.52,7.59l0,0c-3.27,3.26-0.46,8.8,4.1,8.07l0,0c5.36-0.87,7.75,6.48,2.9,8.92l0,0
		c-4.12,2.09-3.15,8.22,1.42,8.94l0,0c5.36,0.83,5.36,8.57,0,9.4l0,0c-4.56,0.7-5.53,6.85-1.42,8.94l0,0
		c4.85,2.45,2.46,9.8-2.9,8.92l0,0c-4.56-0.74-7.38,4.81-4.1,8.07l0,0c3.85,3.82-0.69,10.08-5.52,7.59l0,0
		c-4.1-2.12-8.51,2.29-6.39,6.39l0,0c2.49,4.83-3.78,9.37-7.59,5.52l0,0c-3.26-3.27-8.8-0.46-8.07,4.1l0,0
		c0.87,5.36-6.48,7.75-8.92,2.9l0,0c-2.09-4.12-8.22-3.15-8.94,1.42l0,0c-0.83,5.36-8.57,5.36-9.4,0l0,0
		c-0.7-4.56-6.85-5.53-8.94-1.42l0,0c-2.45,4.85-9.8,2.46-8.92-2.9l0,0c0.74-4.56-4.81-7.38-8.07-4.1l0,0
		c-3.82,3.85-10.08-0.69-7.59-5.52l0,0c2.12-4.1-2.29-8.51-6.39-6.39l0,0c-4.83,2.49-9.37-3.78-5.52-7.59l0,0
		c3.27-3.26,0.46-8.8-4.1-8.07l0,0c-5.36,0.87-7.75-6.48-2.9-8.92l0,0c4.12-2.09,3.15-8.22-1.42-8.94l0,0
		c-5.36-0.83-5.36-8.57,0-9.4l0,0c4.56-0.7,5.53-6.85,1.42-8.94l0,0c-4.85-2.45-2.46-9.8,2.9-8.92l0,0c4.56,0.74,7.38-4.81,4.1-8.07
		l0,0c-3.85-3.82,0.69-10.08,5.52-7.59l0,0c4.1,2.12,8.51-2.29,6.39-6.39l0,0c-2.49-4.83,3.78-9.37,7.59-5.52l0,0
		c3.26,3.27,8.8,0.46,8.07-4.1l0,0c-0.87-5.36,6.48-7.75,8.92-2.9l0,0c2.09,4.12,8.22,3.15,8.94-1.42l0,0
		C155.49,12.93,163.22,12.93,164.05,18.3z"/>
	<path class="st13" d="M162.61,36.37L162.61,36.37c0.49,3.16,4.73,3.83,6.18,0.97l0,0c1.69-3.35,6.78-1.7,6.18,2l0,0
		c-0.51,3.15,3.32,5.11,5.58,2.85l0,0c2.65-2.66,6.96,0.47,5.25,3.82l0,0c-1.46,2.85,1.59,5.88,4.42,4.42l0,0
		c3.33-1.72,6.48,2.6,3.82,5.25l0,0c-2.27,2.25-0.31,6.08,2.85,5.58l0,0c3.7-0.6,5.36,4.48,2,6.18l0,0
		c-2.85,1.44-2.17,5.69,0.97,6.18l0,0c3.7,0.57,3.7,5.92,0,6.49l0,0c-3.16,0.49-3.83,4.73-0.97,6.18l0,0c3.35,1.69,1.7,6.78-2,6.18
		l0,0c-3.15-0.51-5.11,3.32-2.85,5.58l0,0c2.66,2.65-0.47,6.96-3.82,5.25l0,0c-2.85-1.46-5.88,1.59-4.42,4.42l0,0
		c1.72,3.33-2.6,6.48-5.25,3.82l0,0c-2.25-2.27-6.08-0.31-5.58,2.85l0,0c0.6,3.7-4.48,5.36-6.18,2l0,0
		c-1.44-2.85-5.69-2.17-6.18,0.97l0,0c-0.57,3.7-5.92,3.7-6.49,0l0,0c-0.49-3.16-4.73-3.83-6.18-0.97l0,0
		c-1.69,3.35-6.78,1.7-6.18-2l0,0c0.51-3.15-3.32-5.11-5.58-2.85l0,0c-2.65,2.66-6.96-0.47-5.25-3.82l0,0
		c1.46-2.85-1.59-5.88-4.42-4.42l0,0c-3.33,1.72-6.48-2.6-3.82-5.25l0,0c2.27-2.25,0.31-6.08-2.85-5.58l0,0
		c-3.7,0.6-5.36-4.48-2-6.18l0,0c2.85-1.44,2.17-5.69-0.97-6.18l0,0c-3.7-0.57-3.7-5.92,0-6.49l0,0c3.16-0.49,3.83-4.73,0.97-6.18
		l0,0c-3.35-1.69-1.7-6.78,2-6.18l0,0c3.15,0.51,5.11-3.32,2.85-5.58l0,0c-2.66-2.65,0.47-6.96,3.82-5.25l0,0
		c2.85,1.46,5.88-1.59,4.42-4.42l0,0c-1.72-3.33,2.6-6.48,5.25-3.82l0,0c2.25,2.27,6.08,0.31,5.58-2.85l0,0
		c-0.6-3.7,4.48-5.36,6.18-2l0,0c1.44,2.85,5.69,2.17,6.18-0.97l0,0C156.69,32.65,162.04,32.65,162.61,36.37z"/>
</g>
<text transform="matrix(1 0 0 1 129.5998 74.9759)" class="st27 st28 st29">Cofee</text>
<text transform="matrix(1 0 0 1 141.1696 100.6458)" class="st27 st28 st30">Shop</text>
<g>
	<g>
		<path class="st27" d="M207.38,232.21c-0.04,0.09-2.09-1.32-2.19-1.4c-1.52-1.17-2.82-2.59-3.9-4.18c-0.51-0.76-0.97-1.5-1.62-2.19
			c-0.63-0.67-1.33-1.3-1.99-1.93c-1.3-1.24-2.65-2.45-4.05-3.56c-0.17-0.14-0.09-0.41,0.13-0.43c1.94-0.11,8.11-0.06,12.03,4.76
			C205.78,223.29,209.79,227.55,207.38,232.21z"/>
		<circle class="st26" cx="202.95" cy="222.4" r="0.27"/>
		<circle class="st26" cx="203.41" cy="222.74" r="0.14"/>
		<circle class="st26" cx="203.85" cy="222.9" r="0.1"/>
		<path class="st26" d="M197.56,219.64c0,0,3.63-0.24,4.89,2.19c0,0,0.09,0.33-0.23,0.1c-0.31-0.23-2.96-2.16-4.48-1.99
			C197.76,219.94,197.43,219.88,197.56,219.64z"/>
	</g>
	<g>
		<path class="st27" d="M206.74,233.02c-1.84-1.67-3.68-3.35-5.45-5.09c-1.5-1.47-2.76-3.16-4.16-4.73
			c-1.09-1.22-2.23-2.56-3.62-3.45c-0.21-0.14-0.47-0.3-0.74-0.36c-0.11-0.03-0.23,0.03-0.27,0.14c-0.46,1.07-2.75,7.28,4.46,11.5
			c0,0,5.52,3.26,9.48,1.99"/>
		<circle class="st26" cx="200.35" cy="231.28" r="0.26"/>
		<circle class="st26" cx="199.72" cy="231.27" r="0.11"/>
		<circle class="st26" cx="199.32" cy="231.09" r="0.11"/>
		<path class="st26" d="M201.64,231.64c0,0-0.5-0.5,0.24-0.3c0,0,1.9,0.53,2.66,0.56c0,0,0.39,0.14,0.07,0.37
			C204.61,232.25,203.15,232.48,201.64,231.64z"/>
	</g>
</g>
<g>
	<g>
		<path class="st27" d="M207.44,257.31c-0.04,0.09-2.12-1.27-2.22-1.34c-1.54-1.13-2.89-2.53-3.99-4.08
			c-0.54-0.76-1.02-1.49-1.66-2.15c-0.64-0.66-1.36-1.26-2.03-1.89c-1.33-1.22-2.7-2.37-4.13-3.46c-0.17-0.13-0.1-0.41,0.11-0.43
			c1.94-0.16,8.11-0.24,12.13,4.48C205.64,248.43,209.73,252.59,207.44,257.31z"/>
		<circle class="st26" cx="202.79" cy="247.6" r="0.27"/>
		<circle class="st26" cx="203.25" cy="247.93" r="0.14"/>
		<circle class="st26" cx="203.71" cy="248.07" r="0.1"/>
		<path class="st26" d="M197.35,244.95c0,0,3.63-0.33,4.93,2.07c0,0,0.09,0.33-0.23,0.11s-3-2.09-4.52-1.89
			C197.53,245.25,197.22,245.21,197.35,244.95z"/>
	</g>
	<g>
		<path class="st27" d="M206.83,258.12c-1.87-1.63-3.75-3.26-5.56-4.96c-1.53-1.44-2.83-3.09-4.28-4.63
			c-1.12-1.2-2.29-2.5-3.69-3.38c-0.21-0.13-0.49-0.29-0.74-0.34c-0.11-0.01-0.23,0.04-0.27,0.14c-0.44,1.09-2.57,7.34,4.72,11.4
			c0,0,5.59,3.15,9.52,1.77"/>
		<circle class="st26" cx="200.39" cy="256.54" r="0.26"/>
		<circle class="st26" cx="199.76" cy="256.54" r="0.11"/>
		<circle class="st26" cx="199.36" cy="256.36" r="0.11"/>
		<path class="st26" d="M201.69,256.86c0,0-0.51-0.49,0.23-0.3c0,0,1.92,0.49,2.67,0.5c0,0,0.39,0.13,0.09,0.37
			C204.68,257.41,203.21,257.67,201.69,256.86z"/>
	</g>
</g>
<g>
	<g>
		<path class="st27" d="M216.74,265.16c0.09,0.01-0.61,2.39-0.66,2.52c-0.64,1.8-1.6,3.49-2.77,4.99c-0.57,0.73-1.13,1.39-1.59,2.2
			c-0.44,0.82-0.83,1.66-1.23,2.49c-0.79,1.62-1.52,3.26-2.15,4.95c-0.07,0.2-0.37,0.21-0.44,0c-0.7-1.82-2.55-7.71,0.84-12.9
			C208.74,269.42,211.56,264.32,216.74,265.16z"/>
		<circle class="st26" cx="208.76" cy="272.4" r="0.27"/>
		<circle class="st26" cx="208.94" cy="271.85" r="0.14"/>
		<circle class="st26" cx="208.96" cy="271.38" r="0.1"/>
		<path class="st26" d="M207.79,278.36c0,0-1.34-3.39,0.59-5.32c0,0,0.29-0.19,0.17,0.19c-0.11,0.36-1.14,3.48-0.53,4.88
			C208.01,278.09,208.06,278.42,207.79,278.36z"/>
	</g>
	<g>
		<path class="st27" d="M217.71,265.52c-1.02,2.26-2.06,4.52-3.17,6.75c-0.94,1.89-2.16,3.6-3.22,5.41c-0.83,1.4-1.76,2.9-2.17,4.49
			c-0.07,0.26-0.14,0.54-0.11,0.82c0.01,0.11,0.1,0.2,0.21,0.21c1.16,0.11,7.77,0.37,9.58-7.78c0,0,1.42-6.26-1.02-9.62"/>
		<circle class="st26" cx="218.01" cy="272.15" r="0.26"/>
		<circle class="st26" cx="218.18" cy="272.74" r="0.11"/>
		<circle class="st26" cx="218.14" cy="273.18" r="0.11"/>
		<path class="st26" d="M217.95,270.81c0,0-0.33,0.63-0.36-0.13c0,0-0.07-1.97-0.29-2.7c0,0,0.01-0.41,0.33-0.19
			C217.64,267.79,218.3,269.12,217.95,270.81z"/>
	</g>
</g>
</svg>
