<?xml version="1.0" encoding="utf-8"?>
<!-- Generator: Adobe Illustrator 26.0.3, SVG Export Plug-In . SVG Version: 6.00 Build 0)  -->
<svg version="1.1" id="Layer_1" xmlns="http://www.w3.org/2000/svg" xmlns:xlink="http://www.w3.org/1999/xlink" x="0px" y="0px"
	 viewBox="0 0 300 300" style="enable-background:new 0 0 300 300;" xml:space="preserve">
<style type="text/css">
	.st0{fill:#FFFFFF;stroke:#231F20;stroke-miterlimit:10;}
	.st1{fill:#0F0D0C;}
	.st2{fill:#341E11;}
	.st3{fill:none;stroke:#231F20;stroke-width:2;stroke-miterlimit:10;}
	.st4{fill:#341E11;stroke:#231F20;stroke-miterlimit:10;}
	.st5{fill:#FFFDFD;stroke:#231F20;stroke-miterlimit:10;}
	.st6{fill:#D6B280;}
	.st7{fill:#D5AA79;}
	.st8{fill:#231F20;}
	.st9{fill:none;stroke:#231F20;stroke-linejoin:round;stroke-miterlimit:10;}
	.st10{fill:#D6AF7C;stroke:#231F20;stroke-miterlimit:10;}
	.st11{fill:#FFFBFB;stroke:#231F20;stroke-miterlimit:10;}
	.st12{fill:none;stroke:#231F20;stroke-linecap:round;stroke-linejoin:round;stroke-miterlimit:10;}
	.st13{fill:none;stroke:#231F20;stroke-miterlimit:10;}
	.st14{fill:#D9AD79;}
	.st15{fill:#D9AD79;stroke:#231F20;stroke-linecap:round;stroke-linejoin:round;stroke-miterlimit:10;}
	.st16{fill:#6A3B18;stroke:#231F20;stroke-miterlimit:10;}
	.st17{fill:none;stroke:#231F20;stroke-width:0.75;stroke-linecap:round;stroke-linejoin:round;stroke-miterlimit:10;}
	.st18{fill:none;stroke:#231F20;stroke-width:0.5;stroke-linecap:round;stroke-linejoin:round;stroke-miterlimit:10;}
	.st19{fill:#21201F;}
	.st20{fill:url(#SVGID_1_);}
	.st21{fill:url(#SVGID_00000162340229676077968620000005842210471827743626_);}
	.st22{fill:url(#SVGID_00000150085296062531333420000017872763366367852720_);}
	.st23{fill:url(#SVGID_00000148659619063596043280000002607832282678479279_);}
	.st24{fill:url(#SVGID_00000154428268005209699710000013820527344372064412_);}
	.st25{fill:url(#SVGID_00000153696035080483778920000010432625377533982081_);}
	.st26{fill:url(#SVGID_00000097502917391487225430000011673924273997038469_);}
	.st27{fill:url(#SVGID_00000072963305396453855930000003457419391641236116_);}
	.st28{fill:url(#SVGID_00000179612737780306609780000000536596690706973351_);}
	.st29{fill:url(#SVGID_00000128467694660949591200000002074975467760977039_);}
	.st30{fill:url(#SVGID_00000129192562843419446900000006660109658611383471_);}
	.st31{fill:url(#SVGID_00000159438461861631888640000007657685728481726115_);}
	.st32{fill:#C79B6E;}
	.st33{fill:none;stroke:#2F2B2C;stroke-miterlimit:10;}
	.st34{fill:#302C2D;}
	.st35{fill:#FFFFFF;}
	.st36{fill:url(#SVGID_00000150801759656609706060000017616662579833542292_);}
	.st37{fill:#AEAFAE;}
	.st38{fill:url(#SVGID_00000138573287382762678520000006278952506297745572_);}
	.st39{fill:url(#SVGID_00000163793497483975129420000018092817006391936647_);}
	.st40{fill:#BDBBBC;}
	.st41{fill:#603813;}
	.st42{fill:#221D53;}
	.st43{opacity:0.5;fill:#FFFFFF;}
	.st44{fill:none;stroke:#CCA67B;stroke-width:2;stroke-miterlimit:10;}
	.st45{fill:#D2AE80;}
	.st46{fill:#522F16;}
	.st47{font-family:'Gabriola';}
	.st48{font-size:21.8751px;}
	.st49{font-size:17.5px;}
	.st50{font-family:'MyriadPro-Regular';}
	.st51{font-size:21.5046px;}
</style>
<g>
	<rect x="12.11" y="19.07" class="st0" width="129.61" height="260.39"/>
	<circle class="st1" cx="37.1" cy="216.29" r="3.87"/>
	<circle class="st1" cx="115.85" cy="216.29" r="3.87"/>
	<path class="st2" d="M12.14,52.98c0,0.67,1.85,1.27,2.29,1.33c3.81,0.52,5.35-3.59,7.56-5.77c1.43-1.41,3.48-1.3,4.95,0.01
		c1.51,1.34,2.18,3.49,2.6,5.4c0.32,1.46,0.42,2.96,0.29,4.45c-0.12,1.45-0.63,2.8-0.2,4.25c0.47,1.62,2.33,3.11,4.08,2.57
		c1.35-0.42,2.03-1.99,2.05-3.41c0.03-1.42-0.42-2.81-0.5-4.22c-0.14-2.58,2.06-2.62,3.97-1.97c1.05,0.36,2.06,0.85,3.03,1.39
		c1.34,0.74,2.48,1.65,4.13,1.4c0.8-0.12,1.57-0.47,2.37-0.39c1.93,0.18,3.05,2.26,3.77,3.82c0.87,1.88,2.35,3.13,4.49,3.32
		c3.05,0.27,5.25-1.73,7.97-2.64c1.61-0.54,3.55-0.84,5.06,0.12c1.92,1.22,2.43,4.04,2.39,6.14c0,0-0.15,7.45,6.25,9.08
		c0,0,4.91,1.04,7.59-6.4c0.44-1.24,0.87-2.42,1.69-3.47c0.64-0.83,1.47-1.54,2.47-1.86c1.35-0.44,2.73,0.25,4.1,0.1
		c0.75-0.08,1.5-0.28,2.2-0.56c1.24-0.51,2.33-1.34,3.2-2.36c0.83-0.97,1.2-2.36,2.41-2.92c2.23-1.05,4.54-1.76,6.81-2.68
		c0.76-0.31,1.43-0.78,1.75-1.57c0.22-0.53,0.25-1.11,0.36-1.67c0.63-3.36,5.12-4.89,8.02-3.88c1.72,0.6,3.09,1.9,4.58,2.95
		c1.37,0.97,3.08,1.56,4.76,1.42c0.84-0.07,1.61-0.34,2.33-0.76c0.6-0.35,0.98-1.2,1.72-1.29c0.55-0.07,1.11,0.36,1.43,0.78
		c0.69,0.91,0.52,2.22,0.28,3.27c-0.4,1.75-1.6,3.28-1.15,5.18c0.34,1.41,1.61,2.54,3.05,2.7s2.94-0.65,3.58-1.94
		c0.64-1.28,0.44-2.75,0.32-4.12c-0.1-1.19-0.08-2.38-0.03-3.57c0.04-1.06,0.08-2.11,0.44-3.13c0.08-0.21,0.17-0.44,0.37-0.55
		c0.19-0.11,0.46-0.06,0.64,0.02c-0.08-0.63,0.05-1.25,0.05-1.88c0-0.78,0-1.56,0-2.34c0-2.14,0-4.28,0-6.42c0-4.88,0-9.76,0-14.64
		c0-2.4,0-4.8,0-7.2H12.14C12.14,19.03,12.14,52.98,12.14,52.98z"/>
	<path class="st2" d="M11.83,271.57c0-0.18,1.59-0.42,1.73-0.44c1.09-0.14,2.32,0.67,3.33,0.03c0.54-0.34,0.95-1.04,1.47-1.44
		c0.63-0.48,1.34-0.86,2.12-1.02c0.52-0.1,1.06-0.11,1.58-0.21c2.56-0.52,3.76-2.92,4.33-5.23c0.32-1.3,0.55-2.63,1.12-3.84
		c0.76-1.61,2.3-2.97,4.17-2.86c1.95,0.11,3.37,1.76,5.26,2.21c2.41,0.58,4.53,0.67,6.68,2.06c1.99,1.28,3.41,3.3,3.87,5.64
		c0.06,0.33,0.11,0.66,0.07,0.99c-0.03,0.31-0.14,0.61-0.23,0.91c-0.37,1.32-0.64,3.56,0.9,4.27c2.55,1.17,4.84-1.41,7.16-1.88
		c0.99-0.2,2.05-0.08,2.99,0.26c1.54,0.56,2.26,1.83,3.59,2.65c1.61,1.01,3.88,0.63,5.53-0.09c1.3-0.57,2.48-1.39,3.49-2.38
		c0.66-0.65,1.22-1.52,2.12-1.86c1.48-0.56,2.85-0.77,3.23-2.54c0.11-0.53,0.18-1.07,0.41-1.55c0.87-1.79,3.62-2.84,5.36-1.79
		c0.67,0.41,1.16,1.19,1.06,1.97c-0.07,0.52-0.38,0.98-0.72,1.38c-0.54,0.64-1.18,1.19-1.9,1.63c-0.91,0.55-1.28,1.61-1.1,2.66
		c0.22,1.32,1.43,1.87,2.65,2.03c1.34,0.17,2.37-1.56,2.92-2.51c0.62-1.08,1.82-1.54,3.06-1.49c1.4,0.06,2.21,0.63,3.29,1.38
		c0.53,0.37,1.19,0.49,1.82,0.59c1.77,0.27,3.78,0.41,5.11-1.01c0.48-0.51,0.8-1.14,1.2-1.72c2.83-4.05,10.38-1.42,13.57,0.81
		c1.63,1.14,3.68,0.47,4.64-1.17c0.08-0.14,0.16-0.29,0.27-0.41c0.13-0.13,0.3-0.22,0.47-0.29c1.26-0.54,2.75,0.15,3.75-0.86
		c0.58-0.59,0.68-1.46,0.39-2.22c-0.15-0.38-0.39-0.72-0.54-1.1c-1.5-3.89,2.85-8.7,6.51-5.47c1.19,1.05,1.84,2.59,2.24,4.13
		c0.33,1.29,0.51,2.64,1.16,3.8c0.18,0.33,0.41,0.65,0.75,0.81c0.89,0.42,1.67-0.34,2.14-0.99c1.84-2.54,4.13-3.72,7.1-2.02v16.16
		H11.83C11.83,279.5,11.83,271.58,11.83,271.57z"/>
	<g>
		<path class="st3" d="M16.43,48.27c0,0,1.64-7.22,10.57-4.54"/>
		<path class="st3" d="M62.14,60.22c0,0,4.8-4.91,10.61,4.02"/>
		<path class="st3" d="M83.25,67.59c0,0,1.56-6.59,10.39-4.24"/>
		<path class="st3" d="M125.58,48.94c0,0,4.51-4.91,10.05,3.8"/>
		<path class="st3" d="M126.92,262.48c0,0,3.46,8.15,9.6,5.36"/>
		<path class="st3" d="M44.5,265.46c0,0-3.46,7.3,5.14,8.76"/>
	</g>
	<circle class="st4" cx="65.88" cy="70.24" r="4.17"/>
	<circle class="st4" cx="124.05" cy="69.25" r="4.17"/>
	<circle class="st4" cx="121.81" cy="61.39" r="2.95"/>
	<path class="st4" d="M117.01,69.25c0,1.63-1.32,2.95-2.95,2.95s-2.95-1.32-2.95-2.95c0-1.63,1.32-4.17,2.95-4.17
		S117.01,67.62,117.01,69.25z"/>
	<g>
		<g>
			<g>
				<path class="st5" d="M109.7,149.9c-0.88,1.6-2.54,2.58-4.1,3.44c-0.19,0.1-0.38,0.21-0.57,0.31c-0.01,0.01-0.03,0.01-0.04,0.02
					l-0.07,0.03c-1.75,0.96-3.59,1.75-5.45,2.46c-0.27,0.1-0.53,0.2-0.8,0.3h0c-1.26,0.45-2.51,0.81-3.84,1
					c-0.17,0.03-0.35,0.05-0.52,0.07c-0.4,0.04-0.8,0.08-1.2,0.1c-1.37,0.08-2.75,0.05-4.12,0c-2.36-0.1-4.72-0.26-7.08-0.5
					c-2.35-0.24-4.7-0.56-7.03-0.96c-2.24-0.39-4.47-0.86-6.67-1.45c-0.01,0-0.01,0-0.02,0c-1.48-0.39-2.95-0.83-4.4-1.33
					c-2.12-0.73-4.21-1.57-6.23-2.57c-0.03-0.01-0.06-0.03-0.1-0.05c-0.71-0.35-1.42-0.72-2.11-1.11c-2.18-1.22-4.25-2.64-6.15-4.28
					c-1.55-1.34-2.97-2.83-4.22-4.45c-0.76-1-1.46-2.05-2.07-3.15c-0.44-0.79-0.84-1.61-1.2-2.47l0,0
					c-0.31-0.75-0.59-1.52-0.83-2.31c-0.37-1.25-0.85-2.58-0.69-3.91c0.19-1.57,1.54-2.64,2.75-3.5c1.16-0.82,2.49-1.4,3.85-1.78
					c2.56-0.72,5.27-0.87,7.91-0.81c3.13,0.07,6.26,0.47,9.34,1.02c0.56,0.1,1.12,0.21,1.68,0.31c0,0,0,0,0,0
					c2.73,0.54,5.43,1.19,8.12,1.92c1.77,0.44,3.53,0.94,5.28,1.49c3.07,0.94,6.1,2.02,9.1,3.1c2.58,0.93,5.14,1.92,7.68,2.95
					c0.23,0.09,0.45,0.18,0.68,0.28c2.64,1.08,5.31,2.15,7.67,3.77c2.02,1.39,3.78,3.15,4.92,5.33c0.42,0.81,0.77,1.71,0.97,2.63
					C110.45,147.2,110.4,148.63,109.7,149.9z"/>
				<path class="st6" d="M82.74,139.84c0,1.52-0.31,2.79-0.91,3.82c-0.59,1.03-1.45,1.84-2.57,2.43l0,0
					c-2.73,1.48-6.96,1.74-12.24,1.18c-6.88-0.74-20.92-9.41-23.36-15.54c-0.93-2.35,2.34-3.97,7.08-5.09
					c0.29-0.06,0.59-0.13,0.9-0.2c0.46-0.1,0.94-0.2,1.42-0.29c4.02-0.76,8.68-1.25,12.67-1.56c0,0,0,0,0,0
					c2.73,0.53,5.43,1.18,8.12,1.9c1.77,0.44,3.53,0.94,5.28,1.47C81.79,131.19,82.74,135.95,82.74,139.84z"/>
				<path class="st7" d="M109.96,145.88c-0.6,2.28-2.62,4.29-2.62,4.29c-4.82,4.09-5.29,2.9-5.29,2.9c-0.28-0.53,0.28-1.25,1.1-1.94
					c1.38-1.17,3.49-2.26,3.49-2.26c1.39-2.54-0.47-3.2-0.47-3.2c-6.32-2.12-10.77,5.45-11.42,6.65c-0.06,0.1-0.09,0.16-0.09,0.16
					l-6.51-0.29l-1.79-0.26l-11.04-1.58l-0.42-0.06l0.03-0.02l4.31-4.12l2.55-2.44l8.86-8.45c1.84-0.84,3.55-1.22,5.15-1.27
					c0.23,0.09,0.45,0.18,0.67,0.27c2.62,1.07,5.28,2.13,7.63,3.73c2.01,1.37,3.76,3.12,4.89,5.28
					C109.41,144.08,109.76,144.96,109.96,145.88z"/>
				<g>
					<path class="st8" d="M41.9,129.34c6.39,10.84,18.57,16.65,30.33,19.75c9.37,2.39,19.11,2.99,28.75,3.14
						c-5.55,0.3-11.09,0.27-16.64-0.14C68.27,150.41,49.83,144.64,41.9,129.34L41.9,129.34z"/>
				</g>
				<path class="st7" d="M94.37,157.47c-1.18,0.16-2.37,0.24-3.57,0.22c-0.61-0.01-1.22-0.03-1.84-0.06
					c-2.36-0.1-4.72-0.26-7.08-0.5c-2.35-0.24-4.7-0.56-7.03-0.96c-2.24-0.39-4.47-0.86-6.67-1.45c-0.01,0-0.01,0-0.02,0
					c-1.48-0.39-2.95-0.83-4.4-1.33c-2.12-0.73-4.21-1.57-6.23-2.57c-0.03-0.01-0.06-0.03-0.1-0.05
					c-5.2-2.73-12.34-7.75-15.58-15.49c0.24,0.09,7.93,3.09,12.93,11.85c0,0,19.87,15.96,50.71,5.41c0.12-0.02,0.28-0.05,0.39,0
					c0.07,0.03,0.08,0.09,0.05,0.16c-0.05,0.11-0.17,0.21-0.26,0.29c-0.17,0.14-0.34,0.27-0.53,0.39c-0.25,0.16-0.5,0.32-0.75,0.47
					c-0.31,0.18-0.62,0.35-0.94,0.52c-0.36,0.19-0.72,0.37-1.08,0.55c-0.39,0.19-0.79,0.37-1.19,0.55
					c-0.42,0.18-0.84,0.36-1.26,0.52c-0.42,0.17-0.85,0.32-1.28,0.47c-0.42,0.14-0.84,0.28-1.27,0.4
					C96.4,157.12,95.39,157.33,94.37,157.47z"/>
				<path class="st9" d="M92.53,153.26c0,0,5.51,0.86,7.86,0"/>
				<path class="st9" d="M101.95,151.33c0,0,4.28-0.45,6.14-2.31"/>
				<path class="st9" d="M100.99,150.88c0,0,2.42-0.07,3.69-1.38"/>
				<path class="st9" d="M99.53,150.43c0,0,4.24-0.19,5.99-2.2"/>
				<path class="st9" d="M101.95,142.87c0,0-1.68,3.16-4.13,3.43"/>
				<path class="st9" d="M100.99,142.28c0,0-1.86,3.13-4.28,2.79"/>
				<path class="st9" d="M100.39,140.83c0,0-1.45,2.98-4.62,3.35"/>
				<path class="st9" d="M99.89,139.15c0,0-2.18,3.72-4.71,3.95"/>
				<path class="st9" d="M44.73,137.51c0,0,2.42,3.66,4.69,3.95"/>
				<path class="st9" d="M46.04,140.38c0,0,2.49,2.94,5.17,2.87"/>
				<path class="st9" d="M50.21,124.6c0,0,1.3,5.66,4.06,7.22"/>
				<path class="st9" d="M51.44,124.82c0,0-0.16,2.72,2.82,5.58"/>
				<path class="st9" d="M53.15,124.6c0,0-0.74,2.38,1.6,3.61"/>
				<path class="st9" d="M48.62,143.43c0,0,2.66,2.42,5.64,2.23"/>
				<path class="st9" d="M88.81,155.12c0,0,4.62,1.04,7.89,0"/>
				<path class="st9" d="M90.9,154.23c0,0,4.39,0.93,7.86,0.19"/>
			</g>
			<g>
				<g>
					<path class="st10" d="M53.62,107.2c0,0-3.47-1.93-3.77,3.16c0,0-0.81,8.63,5.33,10.86l-0.7,3.55l-5.11-4.19l-2.46-7.15
						l0.89-6.92l2.82-2.51l2.93,1.14L53.62,107.2z"/>
					<path class="st11" d="M58.56,106.84c0,0-5.36-6.85-10.61-1.6c0,0-7.99,11.99,9.1,23.83l-2.23-5.25c0,0-9.44-3.41-6.42-16.03
						c0,0,1.12-7.54,8.21,3.35L58.56,106.84z"/>
					<g>
						<path class="st12" d="M49.58,118.43c0,0,0.84,2.09,3.02,3.16"/>
						<path class="st12" d="M50.14,118.43c0,0,1.7,2.82,3.04,3.16"/>
						<path class="st12" d="M50.81,118.43c0,0,1.01,2.21,3.1,3.16"/>
						<path class="st12" d="M48.66,110.11c0,0-0.36-2.99,1.9-3.8"/>
						<path class="st12" d="M49.05,111.25c0,0-0.39-3.74,1.09-4.02"/>
						<path class="st12" d="M49.77,112.26c0,0-1.01-4.3,0.36-4.36"/>
					</g>
				</g>
				<path class="st12" d="M45.85,103.99c0,0-0.5-2.39,2.35-2.59"/>
				<path class="st12" d="M45.04,102.97c0,0,0.2-2.62,2.51-2.54"/>
			</g>
			<path class="st11" d="M58.04,140.07c0,0-7.97-15.04-0.89-33.51l2.53-2.01c0,0,12.73-3.65,30.9,4.24c0,0,16.16,5.29,14,11.91
				c0,0-4.02,23.98-22.19,28.29C82.39,149,70.25,150.94,58.04,140.07z"/>
			<path class="st13" d="M103.91,116.91c1.19,6.78-22.86,1.04-22.86,1.04c-25.24-6.55-22.57-12.46-22.57-12.46"/>
			<g>
				<path class="st4" d="M65.93,112.43c0,0,1.75-4.65,8.15-0.56c0.15,0.1,1.07-1.59,1.12-1.7c0.59-1.4,1.14-2.77,2.57-3.5
					c0.46-0.23,1.03-0.31,1.48-0.07c0.45,0.24,0.71,0.75,0.74,1.26c0.03,0.51-0.15,1.01-0.39,1.45c-0.24,0.43-1.21,1.34-0.78,1.86
					c0.67,0.82,2.77-0.87,3.33-1.27c1.72-1.23,3.33-2.57,4.68-4.21c0.84-1.02,1.38-2.33,2.45-3.15c0.96-0.74,2.32-0.74,3.26,0.02
					c1.02,0.82,1.19,2.41,0.55,3.53c-0.45,0.78-1.22,1.28-1.82,1.93c-0.62,0.66-1.13,1.64-1.14,2.57c0.29-0.17,0.69-0.22,1.03-0.23
					c0.33-0.01,0.66,0.08,0.91,0.29c0.35,0.3,0.45,0.8,0.4,1.25c-0.12,0.98-0.91,1.58-1.18,2.47c-0.14,0.45,0.28,0.37,0.61,0.68
					c0.3,0.29,0.5,0.69,0.53,1.11c0.02,0.49-0.17,0.96-0.4,1.39c-0.28,0.52-1.47,1.06-1.03,1.46c2.03,1.84-12.67-1.37-18.57-3.74
					C70.24,114.39,67.77,114.03,65.93,112.43z"/>
				<g>
					<circle class="st4" cx="98.07" cy="100.25" r="1.6"/>
					<path class="st4" d="M105.03,105.25c0,1.21-1.07,1.77-2.22,2.19c-1.93,0.71-3.18-0.02-2.22-2.19c0.49-1.11,0.99-2.19,2.22-2.19
						C104.04,103.06,105.03,104.04,105.03,105.25z"/>
				</g>
				<path class="st12" d="M90.9,103.47c0,0.67-0.29,1.34-0.68,1.88c-0.66,0.93-1.89,1.53-2.35,2.62c-0.5,1.18,0.32,2.25,1.31,2.81"
					/>
			</g>
		</g>
		<path class="st14" d="M95.86,123.32c0,0,7.43-0.78,7.54,0.56c0,0,0.11,2.35-3.77,8.88l-3.77,5.7c0,0,4.3-8.26,3.29-11.06
			C99.16,127.4,99.16,125.16,95.86,123.32z"/>
		<path class="st14" d="M62.13,143.14c0,0,0.84-4.97-1.23-10.55c0,0-6.2-14.13,0.7-16.25c0,0,4.83-0.56,9.41,1.56l-10.72-5.64
			c0,0-4.19-2.46-4.75,3.57c0,0-1.34,8.22-0.61,11.62c0,0,1.06,9.82,3.24,12.45L62.13,143.14z"/>
		<path class="st14" d="M64.91,112.1c0,0,1.39-5.1,10.06-5.84c0,0-5.54-2.15-10.06-2.32c0,0-6.93-0.23-5.9,3.46
			c0,0,1.63,2.15,3.31,3.12L64.91,112.1z"/>
		<path class="st14" d="M91.1,119.69c0,0,7.65-0.11,5.66-4.64c0,0-1.89-3.89-5.86-5.97c0,0,9.99,3.26,12.59,7.52
			c0,0,1.68,2.98-4.69,3.36C98.8,119.96,93.29,120.17,91.1,119.69z"/>
		<path class="st12" d="M96.95,114.52c0,0,0.9-0.43,0.9-0.92"/>
		<path class="st12" d="M97.63,115.09c0,0,1.01-0.22,1.41-0.86"/>
		<path class="st12" d="M97.86,116.1c0,0,1.79-0.19,2.08-1.01"/>
		<path class="st12" d="M98.34,117.18c0,0,2.31-0.3,2.57-1.08"/>
		<path class="st12" d="M98.56,118.74c0,0,3.58-0.75,3.83-2.06"/>
		<path class="st12" d="M100.28,119.34c0,0,2.57-0.63,2.72-1.38"/>
		<path class="st12" d="M101.63,122.54c0,0-0.39,4.43-1.36,5.14"/>
		<path class="st12" d="M56.38,119.07c0,0-0.95,2.18,0,3.74"/>
		<line class="st12" x1="60.96" y1="108.02" x2="63.87" y2="105.51"/>
		<line class="st12" x1="62.13" y1="108.02" x2="64.93" y2="105.84"/>
		<line class="st12" x1="63.87" y1="108.24" x2="66.94" y2="105.84"/>
		<line class="st12" x1="64.93" y1="109.08" x2="68.56" y2="106.12"/>
		<line class="st12" x1="66.19" y1="109.58" x2="70.62" y2="105.84"/>
		<path class="st12" d="M68.89,108.24c0,0,3.85-2.79,5.75-1.79"/>
		<path class="st15" d="M66.74,144.81c0,0,3.29,3.02,10.05,3.35"/>
	</g>
	<path class="st12" d="M91.95,100.74c0,0,2.96,0.38,2.79,2.73"/>
	<path class="st12" d="M93.35,100.25c0,0,1.9,0.26,2.12,1.85"/>
	<g>
		<g>
			
				<ellipse transform="matrix(0.7952 -0.6064 0.6064 0.7952 -41.4359 68.578)" class="st16" cx="80.8" cy="95.63" rx="4.87" ry="1.16"/>
			<path class="st16" d="M85.04,100.63c2.74-2.09,3.9-5.96,3.11-7.01c-0.8-1.04-3.25,1.14-5.99,3.23c-2.74,2.09-5.11,3.58-4.31,4.63
				S82.31,102.72,85.04,100.63z"/>
			<path class="st17" d="M82.08,91.8c0,0,0.89-1.56,2.46-0.74"/>
			<path class="st17" d="M82.08,90.82c0,0,0.63-1.18,2.46-0.66"/>
			<path class="st17" d="M87.34,94.74c0,0,0.39,1.7-0.7,2.23"/>
		</g>
		<path class="st16" d="M114.28,139.83c0.51,3.74,1.06,6.74-1.2,6.34c-1.35-0.24-3.43-2.84-3.43-6.34c0-3.5,2.06-6.34,3.43-6.34
			S113.81,136.37,114.28,139.83z"/>
		<path class="st16" d="M119.87,139.04c0,3.55-2.26,6.44-3.6,6.44c-1.34,0-1.26-2.88-1.26-6.44s-1.09-5.54,0.25-5.54
			S119.87,135.48,119.87,139.04z"/>
		<path class="st17" d="M109.65,134.64c0,0,0.14-1.93,1.76-1.93"/>
		<path class="st17" d="M109.06,133.91c0,0-0.08-1.76,1.81-1.95"/>
		<path class="st17" d="M111.74,143.16c0,0-0.14,1.76,1.59,1.9"/>
		<path class="st17" d="M118,142.57c0,0,1.01-1.09,0.56-2.85"/>
		
			<ellipse transform="matrix(0.7952 -0.6064 0.6064 0.7952 -50.5552 94.0209)" class="st16" cx="113.9" cy="121.85" rx="4.87" ry="1.16"/>
		<path class="st16" d="M118.15,126.85c2.74-2.09,3.9-5.96,3.11-7.01c-0.8-1.04-3.25,1.14-5.99,3.23c-2.74,2.09-5.11,3.58-4.31,4.63
			C111.75,128.74,115.41,128.94,118.15,126.85z"/>
		<path class="st17" d="M121.81,118.04c0,0,1.76,0.4,1.43,2.13"/>
		<path class="st17" d="M122.75,117.75c0,0,1.31,0.26,1.34,2.16"/>
		<path class="st17" d="M120.44,120.96c0,0,0.39,1.7-0.7,2.23"/>
		
			<ellipse transform="matrix(0.9446 -0.3281 0.3281 0.9446 -41.7527 38.9132)" class="st16" cx="94.44" cy="143.19" rx="4.87" ry="1.16"/>
		<path class="st16" d="M96.91,149.27c3.25-1.13,5.57-4.45,5.14-5.69c-0.43-1.24-3.45,0.07-6.7,1.2c-3.25,1.13-5.97,1.81-5.54,3.05
			C90.24,149.07,93.66,150.4,96.91,149.27z"/>
		<path class="st17" d="M100.93,144.39c0,0-0.16,1.74-1.36,1.9"/>
	</g>
	<path class="st16" d="M61.4,233.12c-1.17,3.58-1.99,6.53-3.85,5.18c-1.11-0.81-1.85-4.05-0.33-7.2c1.53-3.15,4.62-4.8,5.86-4.2
		C64.32,227.49,62.48,229.79,61.4,233.12z"/>
	<path class="st16" d="M66.77,234.84c-1.55,3.2-4.84,4.81-6.05,4.22c-1.21-0.59,0.13-3.14,1.68-6.34c1.55-3.2,1.44-5.46,2.64-4.88
		C66.25,228.42,68.32,231.64,66.77,234.84z"/>
	<path class="st17" d="M59.49,226.42c0,0,0.97-1.67,2.42-0.97"/>
	<path class="st17" d="M59.28,225.51c0,0,0.69-1.62,2.49-0.97"/>
	<path class="st17" d="M57.66,235c0,0-0.89,1.52,0.6,2.4"/>
	<path class="st17" d="M63.54,237.2c0,0,1.38-0.54,1.74-2.32"/>
	<path class="st17" d="M22.32,243.23c0,0,1.56-0.9,2.5,0.6"/>
	<path class="st17" d="M22.82,242.38c0,0,1.14-0.7,2.45,0.68"/>
	<g>
		
			<ellipse transform="matrix(0.6186 -0.7857 0.7857 0.6186 -134.6953 177.481)" class="st16" cx="115.46" cy="227.48" rx="4.87" ry="1.16"/>
		<path class="st16" d="M120.82,231.26c2.13-2.71,2.29-6.75,1.26-7.56c-1.03-0.81-2.86,1.91-4.99,4.62s-4.05,4.74-3.02,5.56
			C115.09,234.69,118.69,233.97,120.82,231.26z"/>
		<path class="st17" d="M121.57,224.99c0,0,0.8,1.55-0.12,2.34"/>
	</g>
	<g>
		<path class="st16" d="M115.96,249.84c-2.79-2.54-5.14-4.49-3.14-5.63c1.19-0.68,4.45-0.03,6.7,2.66s2.48,6.19,1.43,7.07
			C119.89,254.81,118.55,252.19,115.96,249.84z"/>
		<path class="st16" d="M112.18,254.03c-2.28-2.73-2.39-6.39-1.36-7.25c1.03-0.86,2.81,1.4,5.09,4.13c2.28,2.73,4.39,3.55,3.36,4.41
			C118.24,256.19,114.46,256.76,112.18,254.03z"/>
		<path class="st17" d="M115.78,245.66c0,0-1.02-1.44-2.44-0.44"/>
		<path class="st17" d="M111.35,250.12c0,0-0.07,1.48,1.4,2.54"/>
	</g>
	
		<ellipse transform="matrix(0.6186 -0.7857 0.7857 0.6186 -175.094 142.2811)" class="st16" cx="59" cy="251.49" rx="4.87" ry="1.16"/>
	<path class="st16" d="M64.36,255.28c2.13-2.71,2.29-6.75,1.26-7.56c-1.03-0.81-2.86,1.91-4.99,4.62c-2.13,2.71-4.05,4.74-3.02,5.56
		S62.23,257.98,64.36,255.28z"/>
	<path class="st17" d="M65.12,249c0,0,0.8,1.55-0.12,2.34"/>
	<path class="st16" d="M24.73,249.5c1.53,2.85,3.12,4.41,1.76,4.75c-0.9,0.23-3.36-0.05-4.66-2.88s-1.35-5.99-0.5-6.38
		C22.18,244.6,23.26,246.76,24.73,249.5z"/>
	<path class="st16" d="M27.78,247.62c1.72,2.25,1.59,4.77,0.72,5.46c-0.8,0.64-2.34-0.82-3.63-3.33c-1.4-2.73-3.21-5.03-2.59-5.38
		C23.25,243.82,26.07,245.37,27.78,247.62z"/>
	<path class="st18" d="M21.57,246.14c0,0-0.48,1.17,0,2.33"/>
	<path class="st18" d="M26.63,247.59c0,0,2.42,1.86,1.6,4.65"/>
	<g>
		<path class="st17" d="M70.48,266.47c0,0-1.56,0.9-2.5-0.6"/>
		<path class="st17" d="M69.98,267.32c0,0-1.14,0.7-2.45-0.68"/>
		<path class="st16" d="M69.85,261.06c1.53,2.85,3.12,4.41,1.76,4.75c-0.9,0.23-3.36-0.05-4.66-2.88c-1.3-2.83-1.35-5.99-0.5-6.38
			C67.29,256.16,68.38,258.31,69.85,261.06z"/>
		<path class="st16" d="M72.9,259.18c1.72,2.25,1.59,4.77,0.72,5.46c-0.8,0.64-2.34-0.82-3.63-3.33c-1.4-2.73-3.21-5.03-2.59-5.38
			C68.36,255.37,71.18,256.93,72.9,259.18z"/>
		<path class="st18" d="M66.69,257.7c0,0-0.48,1.17,0,2.33"/>
	</g>
	<g>
		<path class="st16" d="M127.02,236.66c-1.35,3.21-3.03,5.71-1.75,6.25c1.29,0.54,4.84-1.2,6.19-4.4c1.35-3.21,0.32-6.9-0.96-7.44
			S128.37,233.45,127.02,236.66z"/>
		<path class="st16" d="M125.51,236.73c-1.34,2.58-1.78,4.94-1.38,5.15s1.51-1.81,2.85-4.39c1.34-2.58,1.88-4.91,1.48-5.12
			C128.05,232.16,126.85,234.15,125.51,236.73z"/>
		<path class="st18" d="M130.8,236.03c0,0,0.41,3.85-3.35,4.9"/>
		<path class="st18" d="M130.81,230.28c0,0,1.77-0.54,1.87,0.93"/>
		<path class="st18" d="M131.06,229.41c0,0,1.68-0.5,2.01,0.99"/>
	</g>
</g>
<g>
	<rect x="159.25" y="18.54" class="st19" width="130.41" height="262.46"/>
	<g>
		<linearGradient id="SVGID_1_" gradientUnits="userSpaceOnUse" x1="224.4522" y1="106.0416" x2="224.4522" y2="18.5414">
			<stop  offset="0" style="stop-color:#381710"/>
			<stop  offset="0.1993" style="stop-color:#422013"/>
			<stop  offset="0.678" style="stop-color:#57321A"/>
			<stop  offset="1" style="stop-color:#5E381C"/>
		</linearGradient>
		<rect x="159.47" y="18.54" class="st20" width="129.97" height="87.5"/>
		<g>
			
				<linearGradient id="SVGID_00000170994700211451245580000011741678831656576440_" gradientUnits="userSpaceOnUse" x1="165.6223" y1="100.6094" x2="165.6223" y2="18.5414">
				<stop  offset="0" style="stop-color:#220F10"/>
				<stop  offset="0.2135" style="stop-color:#2D1712"/>
				<stop  offset="0.6837" style="stop-color:#422415"/>
				<stop  offset="1" style="stop-color:#492916"/>
			</linearGradient>
			
				<rect x="163.84" y="18.54" style="fill:url(#SVGID_00000170994700211451245580000011741678831656576440_);" width="3.57" height="82.07"/>
			
				<linearGradient id="SVGID_00000054984990890586764830000017819206791823741832_" gradientUnits="userSpaceOnUse" x1="177.3883" y1="100.6094" x2="177.3883" y2="18.5414">
				<stop  offset="0" style="stop-color:#220F10"/>
				<stop  offset="0.2135" style="stop-color:#2D1712"/>
				<stop  offset="0.6837" style="stop-color:#422415"/>
				<stop  offset="1" style="stop-color:#492916"/>
			</linearGradient>
			
				<rect x="175.6" y="18.54" style="fill:url(#SVGID_00000054984990890586764830000017819206791823741832_);" width="3.57" height="82.07"/>
			
				<linearGradient id="SVGID_00000135656862329144558140000015797748262322664339_" gradientUnits="userSpaceOnUse" x1="189.1543" y1="100.6094" x2="189.1543" y2="18.5414">
				<stop  offset="0" style="stop-color:#220F10"/>
				<stop  offset="0.2135" style="stop-color:#2D1712"/>
				<stop  offset="0.6837" style="stop-color:#422415"/>
				<stop  offset="1" style="stop-color:#492916"/>
			</linearGradient>
			
				<rect x="187.37" y="18.54" style="fill:url(#SVGID_00000135656862329144558140000015797748262322664339_);" width="3.57" height="82.07"/>
			
				<linearGradient id="SVGID_00000151518461621863829230000012564078306766795649_" gradientUnits="userSpaceOnUse" x1="200.9203" y1="100.6094" x2="200.9203" y2="18.5414">
				<stop  offset="0" style="stop-color:#220F10"/>
				<stop  offset="0.2135" style="stop-color:#2D1712"/>
				<stop  offset="0.6837" style="stop-color:#422415"/>
				<stop  offset="1" style="stop-color:#492916"/>
			</linearGradient>
			
				<rect x="199.13" y="18.54" style="fill:url(#SVGID_00000151518461621863829230000012564078306766795649_);" width="3.57" height="82.07"/>
			
				<linearGradient id="SVGID_00000053532190177656150350000001246531921905889427_" gradientUnits="userSpaceOnUse" x1="212.6862" y1="100.6094" x2="212.6862" y2="18.5414">
				<stop  offset="0" style="stop-color:#220F10"/>
				<stop  offset="0.2135" style="stop-color:#2D1712"/>
				<stop  offset="0.6837" style="stop-color:#422415"/>
				<stop  offset="1" style="stop-color:#492916"/>
			</linearGradient>
			
				<rect x="210.9" y="18.54" style="fill:url(#SVGID_00000053532190177656150350000001246531921905889427_);" width="3.57" height="82.07"/>
			
				<linearGradient id="SVGID_00000050646393784773068370000007662487790940548531_" gradientUnits="userSpaceOnUse" x1="224.4522" y1="100.6094" x2="224.4522" y2="18.5414">
				<stop  offset="0" style="stop-color:#220F10"/>
				<stop  offset="0.2135" style="stop-color:#2D1712"/>
				<stop  offset="0.6837" style="stop-color:#422415"/>
				<stop  offset="1" style="stop-color:#492916"/>
			</linearGradient>
			
				<rect x="222.66" y="18.54" style="fill:url(#SVGID_00000050646393784773068370000007662487790940548531_);" width="3.57" height="82.07"/>
			
				<linearGradient id="SVGID_00000182510237977256253340000003902203912536096439_" gradientUnits="userSpaceOnUse" x1="236.2182" y1="100.6094" x2="236.2182" y2="18.5414">
				<stop  offset="0" style="stop-color:#220F10"/>
				<stop  offset="0.2135" style="stop-color:#2D1712"/>
				<stop  offset="0.6837" style="stop-color:#422415"/>
				<stop  offset="1" style="stop-color:#492916"/>
			</linearGradient>
			
				<rect x="234.43" y="18.54" style="fill:url(#SVGID_00000182510237977256253340000003902203912536096439_);" width="3.57" height="82.07"/>
			
				<linearGradient id="SVGID_00000039833609874528839240000011266119047319000709_" gradientUnits="userSpaceOnUse" x1="247.9842" y1="100.6094" x2="247.9842" y2="18.5414">
				<stop  offset="0" style="stop-color:#220F10"/>
				<stop  offset="0.2135" style="stop-color:#2D1712"/>
				<stop  offset="0.6837" style="stop-color:#422415"/>
				<stop  offset="1" style="stop-color:#492916"/>
			</linearGradient>
			
				<rect x="246.2" y="18.54" style="fill:url(#SVGID_00000039833609874528839240000011266119047319000709_);" width="3.57" height="82.07"/>
			
				<linearGradient id="SVGID_00000120527633710787248300000006845497396297586608_" gradientUnits="userSpaceOnUse" x1="259.7502" y1="100.6094" x2="259.7502" y2="18.5414">
				<stop  offset="0" style="stop-color:#220F10"/>
				<stop  offset="0.2135" style="stop-color:#2D1712"/>
				<stop  offset="0.6837" style="stop-color:#422415"/>
				<stop  offset="1" style="stop-color:#492916"/>
			</linearGradient>
			
				<rect x="257.96" y="18.54" style="fill:url(#SVGID_00000120527633710787248300000006845497396297586608_);" width="3.57" height="82.07"/>
			
				<linearGradient id="SVGID_00000083808950259016841000000014893337449978641056_" gradientUnits="userSpaceOnUse" x1="271.5162" y1="100.6094" x2="271.5162" y2="18.5414">
				<stop  offset="0" style="stop-color:#220F10"/>
				<stop  offset="0.2135" style="stop-color:#2D1712"/>
				<stop  offset="0.6837" style="stop-color:#422415"/>
				<stop  offset="1" style="stop-color:#492916"/>
			</linearGradient>
			
				<rect x="269.73" y="18.54" style="fill:url(#SVGID_00000083808950259016841000000014893337449978641056_);" width="3.57" height="82.07"/>
			
				<linearGradient id="SVGID_00000133524118632170154840000003222715888803058621_" gradientUnits="userSpaceOnUse" x1="283.2822" y1="100.6094" x2="283.2822" y2="18.5414">
				<stop  offset="0" style="stop-color:#220F10"/>
				<stop  offset="0.2135" style="stop-color:#2D1712"/>
				<stop  offset="0.6837" style="stop-color:#422415"/>
				<stop  offset="1" style="stop-color:#492916"/>
			</linearGradient>
			
				<rect x="281.49" y="18.54" style="fill:url(#SVGID_00000133524118632170154840000003222715888803058621_);" width="3.57" height="82.07"/>
		</g>
	</g>
	<rect x="159.47" y="97.85" class="st32" width="129.82" height="9.53"/>
	<g>
		<path class="st33" d="M203.07,277.8c0.19-3.01,0.41-6.01,0.73-9.01c0.27-2.54,0.91-5.01,1.35-7.52c0.34-1.95,0.75-4.04,0.56-6.03
			c-0.03-0.31-0.07-0.68-0.22-0.97c-0.06-0.13-0.2-0.19-0.34-0.15c-1.37,0.37-8.98,2.88-7.56,12.91c0,0,1.06,7.71,5.25,10.5"/>
		<path class="st33" d="M204.51,277.6c-0.11,0.02-0.26-2.98-0.26-3.14c0.01-2.32,0.43-4.63,1.16-6.83c0.35-1.06,0.73-2.05,0.92-3.17
			c0.18-1.11,0.27-2.23,0.4-3.35c0.25-2.17,0.41-4.34,0.45-6.52c0.01-0.27,0.33-0.39,0.51-0.19c1.54,1.79,6.02,7.78,4.25,15.09
			C211.94,269.5,210.76,276.48,204.51,277.6z"/>
		<circle class="st34" cx="199.89" cy="270.41" r="0.31"/>
		<circle class="st34" cx="199.44" cy="269.81" r="0.14"/>
		<circle class="st34" cx="199.31" cy="269.3" r="0.14"/>
		<circle class="st34" cx="210.71" cy="266.11" r="0.34"/>
		<circle class="st34" cx="210.71" cy="266.81" r="0.18"/>
		<circle class="st34" cx="210.89" cy="267.35" r="0.12"/>
		<path class="st34" d="M209.41,258.89c0,0,2.9,3.32,1.48,6.33c0,0-0.25,0.32-0.27-0.14c-0.01-0.46-0.1-4.44-1.37-5.78
			C209.26,259.29,209.08,258.95,209.41,258.89z"/>
		<path class="st34" d="M200.53,271.91c0,0,0.1-0.85,0.46,0c0,0,0.92,2.21,1.48,2.95c0,0,0.15,0.47-0.29,0.35
			C202.18,275.2,200.87,273.97,200.53,271.91z"/>
	</g>
	<g>
		<path class="st33" d="M174.12,272.9c2.27-1.99,4.55-3.95,6.9-5.84c1.99-1.6,4.19-2.89,6.28-4.35c1.62-1.13,3.4-2.32,4.66-3.86
			c0.2-0.24,0.43-0.53,0.53-0.84c0.04-0.13-0.01-0.28-0.13-0.35c-1.23-0.71-8.38-4.32-14.47,3.76c0,0-4.71,6.19-3.73,11.13"/>
		<path class="st33" d="M175.27,273.78c-0.09-0.06,1.92-2.29,2.04-2.4c1.65-1.63,3.58-2.97,5.65-4c1-0.5,1.97-0.93,2.89-1.58
			c0.92-0.65,1.77-1.38,2.65-2.08c1.71-1.35,3.36-2.78,4.94-4.28c0.19-0.18,0.51-0.04,0.49,0.23c-0.18,2.35-1.26,9.76-7.69,13.67
			C186.25,273.32,180.48,277.42,175.27,273.78z"/>
		<circle class="st34" cx="177.11" cy="265.44" r="0.31"/>
		<circle class="st34" cx="177.22" cy="264.69" r="0.14"/>
		<circle class="st34" cx="177.48" cy="264.23" r="0.14"/>
		<circle class="st34" cx="187.79" cy="270.06" r="0.34"/>
		<circle class="st34" cx="187.3" cy="270.55" r="0.18"/>
		<circle class="st34" cx="187.04" cy="271.06" r="0.12"/>
		<path class="st34" d="M191.99,264.04c0,0-0.3,4.4-3.43,5.51c0,0-0.4,0.05-0.09-0.29s3.08-3.2,3.13-5.05
			C191.59,264.22,191.71,263.84,191.99,264.04z"/>
		<path class="st34" d="M176.5,266.94c0,0,0.67-0.53,0.33,0.33c0,0-0.91,2.21-1.04,3.13c0,0-0.23,0.44-0.45,0.04
			C175.33,270.44,175.27,268.64,176.5,266.94z"/>
	</g>
	<g>
		<path class="st33" d="M161.81,247.02c2.27-1.99,4.55-3.95,6.9-5.84c1.99-1.6,4.19-2.89,6.28-4.35c1.62-1.13,3.4-2.32,4.66-3.86
			c0.2-0.24,0.43-0.53,0.53-0.84c0.04-0.13-0.01-0.28-0.13-0.35c-1.23-0.71-8.38-4.32-14.47,3.76c0,0-4.71,6.19-3.73,11.13"/>
		<path class="st33" d="M162.97,247.9c-0.09-0.06,1.92-2.29,2.04-2.4c1.65-1.63,3.58-2.97,5.65-4c1-0.5,1.97-0.93,2.89-1.58
			c0.92-0.65,1.77-1.38,2.65-2.08c1.71-1.35,3.36-2.78,4.94-4.28c0.19-0.18,0.51-0.04,0.49,0.23c-0.18,2.35-1.26,9.76-7.69,13.67
			C173.95,247.44,168.18,251.54,162.97,247.9z"/>
		<circle class="st34" cx="164.81" cy="239.56" r="0.31"/>
		<circle class="st34" cx="164.92" cy="238.82" r="0.14"/>
		<circle class="st34" cx="165.18" cy="238.35" r="0.14"/>
		<circle class="st34" cx="175.49" cy="244.18" r="0.34"/>
		<circle class="st34" cx="175" cy="244.67" r="0.18"/>
		<circle class="st34" cx="174.74" cy="245.19" r="0.12"/>
		<path class="st34" d="M179.69,238.16c0,0-0.3,4.4-3.43,5.51c0,0-0.4,0.05-0.09-0.29c0.32-0.34,3.08-3.2,3.13-5.05
			C179.29,238.34,179.41,237.97,179.69,238.16z"/>
		<path class="st34" d="M164.2,241.07c0,0,0.67-0.53,0.33,0.33c0,0-0.91,2.21-1.04,3.13c0,0-0.23,0.44-0.45,0.04
			C163.03,244.56,162.97,242.76,164.2,241.07z"/>
	</g>
	<g>
		<path class="st33" d="M248.75,261.54c-2.82-1.06-5.63-2.15-8.41-3.32c-2.35-1-4.53-2.33-6.8-3.48c-1.77-0.9-3.65-1.9-5.61-2.29
			c-0.31-0.06-0.67-0.13-1-0.07c-0.14,0.02-0.24,0.14-0.25,0.28c-0.05,1.42,0.15,9.43,10.15,10.98c0,0,7.68,1.23,11.57-1.97"/>
		<path class="st33" d="M248.97,260.1c-0.01,0.11-2.92-0.62-3.08-0.66c-2.22-0.68-4.31-1.75-6.2-3.09c-0.92-0.65-1.75-1.3-2.76-1.8
			c-1.01-0.5-2.05-0.91-3.08-1.36c-2-0.87-4.04-1.65-6.11-2.33c-0.25-0.08-0.28-0.43-0.03-0.54c2.16-0.95,9.2-3.5,15.68,0.32
			C243.38,250.64,249.72,253.79,248.97,260.1z"/>
		<circle class="st34" cx="240.75" cy="262.43" r="0.31"/>
		<circle class="st34" cx="240.05" cy="262.68" r="0.14"/>
		<circle class="st34" cx="239.51" cy="262.66" r="0.14"/>
		<circle class="st34" cx="239.78" cy="250.82" r="0.34"/>
		<circle class="st34" cx="240.45" cy="251.03" r="0.18"/>
		<circle class="st34" cx="241.02" cy="251.01" r="0.12"/>
		<path class="st34" d="M232.5,249.97c0,0,4.02-1.81,6.48,0.42c0,0,0.23,0.33-0.21,0.21c-0.44-0.12-4.28-1.2-5.93-0.37
			C232.84,250.23,232.45,250.3,232.5,249.97z"/>
		<path class="st34" d="M242.37,262.25c0,0-0.79-0.34,0.13-0.44c0,0,2.38-0.24,3.25-0.56c0,0,0.5-0.01,0.25,0.38
			C246,261.63,244.44,262.53,242.37,262.25z"/>
	</g>
	<g>
		<path class="st33" d="M226.86,236.92c-2.82-1.06-5.63-2.15-8.41-3.32c-2.35-1-4.53-2.33-6.8-3.48c-1.77-0.9-3.65-1.9-5.61-2.29
			c-0.31-0.06-0.67-0.13-1-0.07c-0.14,0.02-0.24,0.14-0.25,0.28c-0.05,1.42,0.15,9.43,10.15,10.98c0,0,7.68,1.23,11.57-1.97"/>
		<path class="st33" d="M227.08,235.48c-0.01,0.11-2.92-0.62-3.08-0.66c-2.22-0.68-4.31-1.75-6.2-3.09c-0.92-0.65-1.75-1.3-2.76-1.8
			c-1.01-0.5-2.05-0.91-3.08-1.36c-2-0.87-4.04-1.65-6.11-2.33c-0.25-0.08-0.28-0.43-0.03-0.54c2.16-0.95,9.2-3.5,15.68,0.32
			C221.49,226.02,227.83,229.17,227.08,235.48z"/>
		<circle class="st34" cx="218.86" cy="237.81" r="0.31"/>
		<circle class="st34" cx="218.16" cy="238.06" r="0.14"/>
		<circle class="st34" cx="217.62" cy="238.04" r="0.14"/>
		<circle class="st34" cx="217.89" cy="226.2" r="0.34"/>
		<circle class="st34" cx="218.56" cy="226.41" r="0.18"/>
		<circle class="st34" cx="219.13" cy="226.39" r="0.12"/>
		<path class="st34" d="M210.61,225.35c0,0,4.02-1.81,6.48,0.42c0,0,0.23,0.33-0.21,0.21c-0.44-0.12-4.28-1.2-5.93-0.37
			C210.95,225.61,210.56,225.68,210.61,225.35z"/>
		<path class="st34" d="M220.48,237.63c0,0-0.79-0.34,0.13-0.44c0,0,2.38-0.24,3.25-0.56c0,0,0.5-0.01,0.25,0.38
			C224.11,237.01,222.55,237.91,220.48,237.63z"/>
	</g>
	<g>
		<path class="st33" d="M192.27,221.02c-2.11-2.15-4.2-4.32-6.22-6.56c-1.71-1.9-3.12-4.02-4.7-6.02c-1.22-1.56-2.51-3.26-4.12-4.44
			c-0.25-0.19-0.55-0.4-0.87-0.49c-0.14-0.04-0.28,0.03-0.34,0.15c-0.64,1.27-3.84,8.61,4.57,14.24c0,0,6.45,4.35,11.32,3.09"/>
		<path class="st33" d="M193.08,219.81c-0.06,0.1-2.39-1.79-2.51-1.9c-1.72-1.55-3.16-3.41-4.32-5.42c-0.56-0.97-1.04-1.92-1.74-2.8
			c-0.7-0.88-1.48-1.69-2.22-2.53c-1.45-1.63-2.96-3.2-4.56-4.69c-0.2-0.18-0.07-0.51,0.2-0.5c2.36,0.05,9.81,0.71,14.08,6.9
			C192,208.88,196.42,214.41,193.08,219.81z"/>
		<circle class="st34" cx="184.64" cy="218.46" r="0.31"/>
		<circle class="st34" cx="183.9" cy="218.39" r="0.14"/>
		<circle class="st34" cx="183.42" cy="218.15" r="0.14"/>
		<circle class="st34" cx="188.66" cy="207.52" r="0.34"/>
		<circle class="st34" cx="189.18" cy="207.99" r="0.18"/>
		<circle class="st34" cx="189.7" cy="208.22" r="0.12"/>
		<path class="st34" d="M182.41,203.68c0,0,4.41,0.05,5.7,3.12c0,0,0.07,0.4-0.28,0.1s-3.37-2.89-5.22-2.84
			C182.61,204.06,182.23,203.96,182.41,203.68z"/>
		<path class="st34" d="M186.19,218.97c0,0-0.57-0.64,0.31-0.34c0,0,2.26,0.79,3.18,0.86c0,0,0.46,0.2,0.06,0.45
			C189.74,219.95,187.95,220.1,186.19,218.97z"/>
	</g>
	<g>
		<path class="st33" d="M280.67,274.11c-2.11-2.15-4.2-4.32-6.22-6.56c-1.71-1.9-3.12-4.02-4.7-6.02c-1.22-1.56-2.51-3.26-4.12-4.44
			c-0.25-0.19-0.55-0.4-0.87-0.49c-0.14-0.04-0.28,0.03-0.34,0.15c-0.64,1.27-3.84,8.61,4.57,14.24c0,0,6.45,4.35,11.32,3.09"/>
		<path class="st33" d="M281.48,272.91c-0.06,0.1-2.39-1.79-2.51-1.9c-1.72-1.55-3.16-3.41-4.32-5.42c-0.56-0.97-1.04-1.92-1.74-2.8
			c-0.7-0.88-1.48-1.69-2.22-2.53c-1.45-1.63-2.96-3.2-4.56-4.69c-0.2-0.18-0.07-0.51,0.2-0.5c2.36,0.05,9.81,0.71,14.08,6.9
			C280.41,261.97,284.82,267.5,281.48,272.91z"/>
		<circle class="st34" cx="273.05" cy="271.55" r="0.31"/>
		<circle class="st34" cx="272.3" cy="271.48" r="0.14"/>
		<circle class="st34" cx="271.83" cy="271.24" r="0.14"/>
		<circle class="st34" cx="277.06" cy="260.62" r="0.34"/>
		<circle class="st34" cx="277.58" cy="261.08" r="0.18"/>
		<circle class="st34" cx="278.11" cy="261.31" r="0.12"/>
		<path class="st34" d="M270.82,256.77c0,0,4.41,0.05,5.7,3.12c0,0,0.07,0.4-0.28,0.1c-0.35-0.3-3.37-2.89-5.22-2.84
			C271.02,257.15,270.63,257.06,270.82,256.77z"/>
		<path class="st34" d="M274.59,272.07c0,0-0.57-0.64,0.31-0.34c0,0,2.26,0.79,3.18,0.86c0,0,0.46,0.2,0.06,0.45
			C278.14,273.04,276.35,273.2,274.59,272.07z"/>
	</g>
	<g>
		<path class="st33" d="M275.83,251.28c0.36-2.99,0.74-5.98,1.22-8.96c0.41-2.52,1.18-4.95,1.76-7.43c0.45-1.93,0.97-4,0.88-5.99
			c-0.01-0.31-0.03-0.68-0.17-0.98c-0.06-0.13-0.19-0.2-0.33-0.17c-1.39,0.29-9.12,2.39-8.25,12.47c0,0,0.64,7.75,4.67,10.77"/>
		<path class="st33" d="M277.28,251.16c-0.11,0.01-0.1-2.99-0.09-3.15c0.14-2.32,0.68-4.6,1.53-6.76c0.41-1.04,0.85-2.01,1.09-3.11
			c0.25-1.1,0.4-2.21,0.58-3.32c0.36-2.15,0.64-4.31,0.81-6.49c0.02-0.27,0.35-0.37,0.52-0.16c1.44,1.87,5.59,8.1,3.42,15.3
			C285.14,243.48,283.59,250.38,277.28,251.16z"/>
		<circle class="st34" cx="273.07" cy="243.73" r="0.31"/>
		<circle class="st34" cx="272.65" cy="243.1" r="0.14"/>
		<circle class="st34" cx="272.54" cy="242.58" r="0.14"/>
		<circle class="st34" cx="284.1" cy="240.02" r="0.34"/>
		<circle class="st34" cx="284.07" cy="240.72" r="0.18"/>
		<circle class="st34" cx="284.22" cy="241.27" r="0.12"/>
		<path class="st34" d="M283.2,232.74c0,0,2.72,3.48,1.13,6.4c0,0-0.27,0.31-0.26-0.15s0.15-4.44-1.05-5.85
			C283.03,233.14,282.86,232.78,283.2,232.74z"/>
		<path class="st34" d="M273.62,245.26c0,0,0.14-0.85,0.46,0.03c0,0,0.8,2.25,1.32,3.02c0,0,0.13,0.48-0.31,0.33
			C275.09,248.64,273.85,247.34,273.62,245.26z"/>
	</g>
	<g>
		<path class="st33" d="M248.42,236.28c1.03-2.83,2.08-5.66,3.22-8.45c0.97-2.36,2.27-4.55,3.4-6.84c0.87-1.78,1.85-3.67,2.22-5.64
			c0.06-0.31,0.12-0.67,0.06-1c-0.03-0.14-0.14-0.24-0.28-0.24c-1.42-0.03-9.43,0.26-10.86,10.28c0,0-1.13,7.7,2.11,11.55"/>
		<path class="st33" d="M249.86,236.49c-0.11-0.01,0.58-2.93,0.63-3.09c0.66-2.22,1.7-4.33,3.02-6.23c0.64-0.92,1.28-1.76,1.77-2.78
			c0.49-1.01,0.89-2.06,1.32-3.1c0.84-2.01,1.61-4.06,2.26-6.13c0.08-0.26,0.43-0.28,0.54-0.04c0.98,2.15,3.61,9.15-0.13,15.68
			C259.26,230.79,256.18,237.17,249.86,236.49z"/>
		<circle class="st34" cx="247.44" cy="228.3" r="0.31"/>
		<circle class="st34" cx="247.18" cy="227.6" r="0.14"/>
		<circle class="st34" cx="247.19" cy="227.06" r="0.14"/>
		<circle class="st34" cx="259.03" cy="227.19" r="0.34"/>
		<circle class="st34" cx="258.83" cy="227.86" r="0.18"/>
		<circle class="st34" cx="258.86" cy="228.43" r="0.12"/>
		<path class="st34" d="M259.8,219.89c0,0,1.86,4-0.35,6.49c0,0-0.33,0.24-0.22-0.21c0.12-0.45,1.15-4.29,0.3-5.93
			C259.54,220.24,259.46,219.85,259.8,219.89z"/>
		<path class="st34" d="M247.64,229.91c0,0,0.33-0.79,0.44,0.13c0,0,0.27,2.38,0.6,3.24c0,0,0.01,0.5-0.38,0.25
			C248.3,233.54,247.38,231.99,247.64,229.91z"/>
	</g>
	<g>
		<path class="st33" d="M262.33,192.2c2.35-1.89,4.72-3.75,7.14-5.54c2.06-1.52,4.31-2.71,6.46-4.07c1.67-1.06,3.49-2.17,4.83-3.66
			c0.21-0.23,0.45-0.51,0.57-0.82c0.05-0.13,0-0.28-0.12-0.35c-1.2-0.76-8.19-4.68-14.62,3.13c0,0-4.97,5.98-4.21,10.96"/>
		<path class="st33" d="M263.45,193.12c-0.09-0.07,2.02-2.2,2.14-2.31c1.72-1.56,3.7-2.81,5.82-3.76c1.02-0.46,2.01-0.84,2.96-1.46
			c0.94-0.61,1.83-1.3,2.74-1.96c1.76-1.28,3.48-2.63,5.12-4.07c0.2-0.18,0.51-0.02,0.48,0.25c-0.28,2.34-1.68,9.69-8.27,13.32
			C274.44,193.14,268.5,196.99,263.45,193.12z"/>
		<circle class="st34" cx="265.64" cy="184.87" r="0.31"/>
		<circle class="st34" cx="265.79" cy="184.13" r="0.14"/>
		<circle class="st34" cx="266.07" cy="183.68" r="0.14"/>
		<circle class="st34" cx="276.12" cy="189.95" r="0.34"/>
		<circle class="st34" cx="275.61" cy="190.42" r="0.18"/>
		<circle class="st34" cx="275.33" cy="190.92" r="0.12"/>
		<path class="st34" d="M280.57,184.12c0,0-0.49,4.39-3.67,5.36c0,0-0.41,0.03-0.08-0.29s3.21-3.07,3.34-4.91
			C280.17,184.28,280.31,183.91,280.57,184.12z"/>
		<path class="st34" d="M264.98,186.35c0,0,0.69-0.5,0.31,0.34c0,0-1.01,2.17-1.18,3.08c0,0-0.25,0.43-0.46,0.02
			C263.65,189.79,263.68,187.99,264.98,186.35z"/>
	</g>
	<g>
		<path class="st33" d="M169.81,180.46c2.91-0.79,5.82-1.56,8.76-2.24c2.49-0.57,5.03-0.77,7.55-1.16c1.95-0.31,4.07-0.6,5.88-1.43
			c0.29-0.13,0.62-0.29,0.85-0.52c0.1-0.1,0.11-0.25,0.03-0.37c-0.79-1.17-5.65-7.56-14.66-2.95c0,0-6.94,3.51-8.22,8.38"/>
		<path class="st33" d="M170.47,181.76c-0.06-0.1,2.73-1.21,2.89-1.27c2.2-0.75,4.52-1.1,6.83-1.13c1.12-0.01,2.18,0.03,3.29-0.16
			c1.11-0.19,2.2-0.46,3.29-0.71c2.13-0.47,4.24-1.02,6.31-1.69c0.25-0.08,0.48,0.19,0.34,0.42c-1.19,2.04-5.4,8.22-12.89,8.92
			C180.54,186.15,173.56,187.31,170.47,181.76z"/>
		<circle class="st34" cx="175.77" cy="175.05" r="0.31"/>
		<circle class="st34" cx="176.19" cy="174.44" r="0.14"/>
		<circle class="st34" cx="176.63" cy="174.14" r="0.14"/>
		<circle class="st34" cx="183.35" cy="183.89" r="0.34"/>
		<circle class="st34" cx="182.69" cy="184.11" r="0.18"/>
		<circle class="st34" cx="182.24" cy="184.46" r="0.12"/>
		<path class="st34" d="M189.76,180.31c0,0-2.2,3.83-5.5,3.46c0,0-0.39-0.13,0.05-0.3c0.43-0.16,4.17-1.54,5.02-3.17
			C189.33,180.3,189.6,180.01,189.76,180.31z"/>
		<path class="st34" d="M174.56,176.15c0,0,0.84-0.18,0.15,0.44c0,0-1.79,1.59-2.31,2.36c0,0-0.4,0.3-0.43-0.16
			C171.98,178.78,172.72,177.13,174.56,176.15z"/>
	</g>
	<g>
		<path class="st33" d="M174.17,154.04c2.91-0.79,5.82-1.56,8.76-2.24c2.49-0.57,5.03-0.77,7.55-1.16c1.95-0.31,4.07-0.6,5.88-1.43
			c0.29-0.13,0.62-0.29,0.85-0.52c0.1-0.1,0.11-0.25,0.03-0.37c-0.79-1.17-5.65-7.56-14.66-2.95c0,0-6.94,3.51-8.22,8.38"/>
		<path class="st33" d="M174.83,155.33c-0.06-0.1,2.73-1.21,2.89-1.27c2.2-0.75,4.52-1.1,6.83-1.13c1.12-0.01,2.18,0.03,3.29-0.16
			c1.11-0.19,2.2-0.46,3.29-0.71c2.13-0.47,4.24-1.02,6.31-1.69c0.25-0.08,0.48,0.19,0.34,0.42c-1.19,2.04-5.4,8.22-12.89,8.92
			C184.9,159.73,177.92,160.89,174.83,155.33z"/>
		<circle class="st34" cx="180.13" cy="148.63" r="0.31"/>
		<circle class="st34" cx="180.55" cy="148.02" r="0.14"/>
		<circle class="st34" cx="181" cy="147.72" r="0.14"/>
		<circle class="st34" cx="187.72" cy="157.47" r="0.34"/>
		<circle class="st34" cx="187.06" cy="157.69" r="0.18"/>
		<circle class="st34" cx="186.6" cy="158.04" r="0.12"/>
		<path class="st34" d="M194.12,153.89c0,0-2.2,3.83-5.5,3.46c0,0-0.39-0.13,0.05-0.3s4.17-1.54,5.02-3.17
			C193.69,153.88,193.96,153.59,194.12,153.89z"/>
		<path class="st34" d="M178.93,149.73c0,0,0.84-0.18,0.15,0.44c0,0-1.79,1.59-2.31,2.36c0,0-0.4,0.3-0.43-0.16
			C176.34,152.36,177.08,150.71,178.93,149.73z"/>
	</g>
	<g>
		<path class="st33" d="M182.22,114.55c-1.96,2.29-3.94,4.57-5.99,6.77c-1.74,1.87-3.73,3.46-5.59,5.21
			c-1.44,1.35-3.03,2.79-4.06,4.5c-0.16,0.27-0.35,0.59-0.41,0.91c-0.02,0.14,0.05,0.27,0.18,0.33c1.32,0.52,8.92,3.07,13.78-5.8
			c0,0,3.77-6.81,2.09-11.55"/>
		<path class="st33" d="M180.94,113.85c0.1,0.05-1.57,2.54-1.67,2.67c-1.4,1.85-3.12,3.45-5.02,4.77c-0.92,0.64-1.82,1.2-2.63,1.98
			c-0.81,0.78-1.56,1.62-2.33,2.44c-1.49,1.59-2.93,3.23-4.27,4.95c-0.16,0.21-0.5,0.11-0.52-0.15c-0.16-2.36-0.16-9.84,5.64-14.63
			C170.14,115.88,175.27,110.99,180.94,113.85z"/>
		<circle class="st34" cx="180.33" cy="122.37" r="0.31"/>
		<circle class="st34" cx="180.33" cy="123.12" r="0.14"/>
		<circle class="st34" cx="180.13" cy="123.61" r="0.14"/>
		<circle class="st34" cx="169.09" cy="119.33" r="0.34"/>
		<circle class="st34" cx="169.51" cy="118.77" r="0.18"/>
		<circle class="st34" cx="169.69" cy="118.23" r="0.12"/>
		<path class="st34" d="M165.8,125.89c0,0-0.33-4.4,2.61-5.95c0,0,0.39-0.11,0.13,0.27c-0.26,0.38-2.58,3.61-2.37,5.45
			C166.17,125.65,166.11,126.04,165.8,125.89z"/>
		<path class="st34" d="M180.71,120.79c0,0-0.59,0.62-0.37-0.28c0,0,0.58-2.32,0.58-3.25c0,0,0.16-0.47,0.44-0.1
			C181.37,117.16,181.68,118.93,180.71,120.79z"/>
	</g>
	<g>
		<path class="st33" d="M281.22,145.99c-2.79-1.12-5.58-2.28-8.33-3.52c-2.33-1.05-4.47-2.43-6.72-3.64
			c-1.74-0.94-3.61-1.98-5.55-2.42c-0.31-0.07-0.67-0.14-0.99-0.1c-0.14,0.02-0.24,0.13-0.25,0.27c-0.08,1.41-0.07,9.43,9.89,11.22
			c0,0,7.65,1.4,11.62-1.7"/>
		<path class="st33" d="M281.48,144.56c-0.02,0.11-2.91-0.68-3.06-0.74c-2.2-0.73-4.26-1.85-6.12-3.23
			c-0.9-0.67-1.72-1.34-2.72-1.86c-1-0.52-2.03-0.96-3.05-1.43c-1.98-0.91-4-1.75-6.05-2.47c-0.25-0.09-0.27-0.44-0.02-0.54
			c2.18-0.9,9.27-3.28,15.66,0.69C276.11,134.97,282.37,138.27,281.48,144.56z"/>
		<circle class="st34" cx="273.2" cy="146.7" r="0.31"/>
		<circle class="st34" cx="272.49" cy="146.93" r="0.14"/>
		<circle class="st34" cx="271.96" cy="146.91" r="0.14"/>
		<circle class="st34" cx="272.5" cy="135.07" r="0.34"/>
		<circle class="st34" cx="273.17" cy="135.29" r="0.18"/>
		<circle class="st34" cx="273.74" cy="135.29" r="0.12"/>
		<path class="st34" d="M265.24,134.05c0,0,4.07-1.72,6.47,0.57c0,0,0.23,0.34-0.22,0.21c-0.44-0.13-4.25-1.3-5.92-0.51
			C265.58,134.32,265.19,134.38,265.24,134.05z"/>
		<path class="st34" d="M274.82,146.56c0,0-0.78-0.36,0.14-0.44c0,0,2.38-0.18,3.26-0.48c0,0,0.5,0,0.24,0.39
			C278.47,146.02,276.89,146.88,274.82,146.56z"/>
	</g>
	<g>
		<path class="st33" d="M245.05,166.65c2.86-0.94,5.73-1.86,8.63-2.69c2.46-0.7,4.98-1.03,7.48-1.55c1.94-0.41,4.03-0.81,5.8-1.74
			c0.28-0.15,0.6-0.32,0.82-0.57c0.09-0.11,0.1-0.26,0.02-0.37c-0.85-1.13-6.03-7.25-14.79-2.19c0,0-6.75,3.86-7.78,8.79"/>
		<path class="st33" d="M245.77,167.91c-0.06-0.1,2.66-1.36,2.82-1.42c2.15-0.86,4.45-1.33,6.77-1.48c1.12-0.07,2.18-0.08,3.28-0.33
			c1.1-0.24,2.17-0.58,3.25-0.88c2.1-0.58,4.18-1.24,6.22-2.02c0.25-0.09,0.49,0.16,0.36,0.4c-1.09,2.1-4.97,8.49-12.41,9.58
			C256.06,171.77,249.14,173.29,245.77,167.91z"/>
		<circle class="st34" cx="250.71" cy="160.94" r="0.31"/>
		<circle class="st34" cx="251.1" cy="160.3" r="0.14"/>
		<circle class="st34" cx="251.53" cy="159.98" r="0.14"/>
		<circle class="st34" cx="258.75" cy="169.37" r="0.34"/>
		<circle class="st34" cx="258.1" cy="169.63" r="0.18"/>
		<circle class="st34" cx="257.66" cy="170" r="0.12"/>
		<path class="st34" d="M264.96,165.47c0,0-2,3.94-5.31,3.74c0,0-0.39-0.11,0.03-0.3c0.42-0.19,4.08-1.75,4.85-3.43
			C264.53,165.48,264.78,165.18,264.96,165.47z"/>
		<path class="st34" d="M249.57,162.1c0,0,0.83-0.23,0.17,0.43c0,0-1.7,1.68-2.18,2.47c0,0-0.38,0.32-0.43-0.14
			C247.13,164.86,247.78,163.18,249.57,162.1z"/>
	</g>
	<g>
		<path class="st33" d="M219.44,215.39c2.17-2.09,4.36-4.16,6.61-6.16c1.91-1.7,4.05-3.09,6.07-4.64c1.57-1.21,3.28-2.48,4.48-4.08
			c0.19-0.25,0.4-0.55,0.49-0.87c0.04-0.14-0.02-0.28-0.15-0.34c-1.26-0.65-8.58-3.92-14.28,4.44c0,0-4.41,6.41-3.2,11.3"/>
		<path class="st33" d="M220.64,216.21c-0.1-0.06,1.81-2.38,1.92-2.5c1.57-1.71,3.43-3.13,5.46-4.27c0.98-0.55,1.93-1.02,2.81-1.72
			c0.88-0.69,1.71-1.46,2.55-2.2c1.64-1.43,3.23-2.93,4.73-4.51c0.18-0.19,0.51-0.06,0.5,0.2c-0.07,2.36-0.8,9.81-7.03,14.01
			C231.58,215.23,226.01,219.6,220.64,216.21z"/>
		<circle class="st34" cx="222.07" cy="207.79" r="0.31"/>
		<circle class="st34" cx="222.15" cy="207.04" r="0.14"/>
		<circle class="st34" cx="222.39" cy="206.57" r="0.14"/>
		<circle class="st34" cx="232.97" cy="211.9" r="0.34"/>
		<circle class="st34" cx="232.5" cy="212.41" r="0.18"/>
		<circle class="st34" cx="232.26" cy="212.94" r="0.12"/>
		<path class="st34" d="M236.87,205.69c0,0-0.09,4.41-3.17,5.67c0,0-0.4,0.07-0.1-0.28c0.3-0.35,2.92-3.35,2.88-5.19
			C236.49,205.89,236.59,205.51,236.87,205.69z"/>
		<path class="st34" d="M221.54,209.32c0,0,0.65-0.56,0.34,0.31c0,0-0.81,2.25-0.89,3.17c0,0-0.21,0.45-0.45,0.06
			C220.54,212.87,220.4,211.08,221.54,209.32z"/>
	</g>
	<g>
		<path class="st33" d="M249.06,181.12c0.15,3.01,0.27,6.02,0.3,9.03c0.02,2.56-0.33,5.08-0.49,7.62c-0.12,1.98-0.29,4.1,0.13,6.06
			c0.07,0.31,0.15,0.67,0.33,0.94c0.08,0.12,0.22,0.17,0.35,0.11c1.32-0.52,8.59-3.89,6.04-13.68c0,0-1.93-7.54-6.41-9.83"/>
		<path class="st33" d="M247.65,181.49c0.11-0.03,0.6,2.93,0.62,3.09c0.26,2.31,0.1,4.65-0.37,6.92c-0.23,1.1-0.5,2.12-0.55,3.25
			c-0.06,1.12-0.02,2.25-0.02,3.37c0,2.18,0.09,4.36,0.29,6.53c0.02,0.27-0.29,0.43-0.48,0.24c-1.73-1.6-6.87-7.04-5.94-14.51
			C241.2,190.38,241.57,183.31,247.65,181.49z"/>
		<circle class="st34" cx="253.06" cy="188.1" r="0.31"/>
		<circle class="st34" cx="253.57" cy="188.65" r="0.14"/>
		<circle class="st34" cx="253.77" cy="189.15" r="0.14"/>
		<circle class="st34" cx="242.8" cy="193.61" r="0.34"/>
		<circle class="st34" cx="242.72" cy="192.92" r="0.18"/>
		<circle class="st34" cx="242.48" cy="192.4" r="0.12"/>
		<path class="st34" d="M244.91,200.64c0,0-3.26-2.97-2.19-6.12c0,0,0.21-0.35,0.28,0.11c0.07,0.46,0.6,4.4,2.02,5.59
			C245.02,200.22,245.24,200.54,244.91,200.64z"/>
		<path class="st34" d="M252.25,186.69c0,0,0,0.86-0.46,0.05c0,0-1.17-2.09-1.81-2.76c0,0-0.21-0.45,0.25-0.38
			C250.24,183.61,251.68,184.68,252.25,186.69z"/>
	</g>
	<g>
		<path class="st33" d="M206.48,181.11c-0.56,2.96-1.15,5.92-1.83,8.85c-0.58,2.49-1.51,4.86-2.26,7.3
			c-0.58,1.89-1.24,3.92-1.29,5.92c-0.01,0.31-0.01,0.68,0.1,0.99c0.05,0.13,0.18,0.21,0.32,0.19c1.4-0.2,9.26-1.77,9.07-11.89
			c0,0-0.11-7.78-3.93-11.06"/>
		<path class="st33" d="M205.03,181.14c0.11-0.01-0.1,2.99-0.12,3.15c-0.29,2.3-0.99,4.54-1.98,6.64c-0.48,1.01-0.98,1.95-1.3,3.03
			c-0.32,1.08-0.54,2.18-0.81,3.27c-0.51,2.12-0.94,4.26-1.25,6.42c-0.04,0.26-0.38,0.35-0.53,0.12c-1.31-1.96-5.03-8.46-2.38-15.5
			C196.67,188.27,198.68,181.48,205.03,181.14z"/>
		<circle class="st34" cx="208.73" cy="188.83" r="0.31"/>
		<circle class="st34" cx="209.1" cy="189.48" r="0.14"/>
		<circle class="st34" cx="209.18" cy="190.01" r="0.14"/>
		<circle class="st34" cx="197.47" cy="191.78" r="0.34"/>
		<circle class="st34" cx="197.55" cy="191.09" r="0.18"/>
		<circle class="st34" cx="197.44" cy="190.53" r="0.12"/>
		<path class="st34" d="M197.88,199.11c0,0-2.48-3.65-0.7-6.46c0,0,0.29-0.29,0.25,0.17s-0.44,4.42,0.65,5.9
			C198.08,198.73,198.22,199.09,197.88,199.11z"/>
		<path class="st34" d="M208.28,187.27c0,0-0.2,0.83-0.46-0.06c0,0-0.65-2.3-1.11-3.1c0,0-0.09-0.49,0.33-0.31
			C207.04,183.8,208.2,185.18,208.28,187.27z"/>
	</g>
	<g>
		
			<ellipse transform="matrix(0.5236 -0.8519 0.8519 0.5236 -68.9476 279.7609)" class="st35" cx="215.7" cy="201.54" rx="7.28" ry="30.71"/>
		
			<linearGradient id="SVGID_00000163774210376392302740000001674423312184268705_" gradientUnits="userSpaceOnUse" x1="-197.1029" y1="-1758.2749" x2="-197.1029" y2="-1772.0684" gradientTransform="matrix(0.8519 0.5236 -0.5236 0.8519 -540.3829 1808.1633)">
			<stop  offset="0" style="stop-color:#FFFFFF"/>
			<stop  offset="0.122" style="stop-color:#E9E9E9"/>
			<stop  offset="0.2743" style="stop-color:#D6D4D5"/>
			<stop  offset="0.4472" style="stop-color:#C8C6C7"/>
			<stop  offset="0.6562" style="stop-color:#BFBEBF"/>
			<stop  offset="1" style="stop-color:#BDBBBC"/>
		</linearGradient>
		<path style="fill:url(#SVGID_00000163774210376392302740000001674423312184268705_);" d="M242.19,217.22
			c-1.99,3.24-15.33-1.32-29.78-10.21c-14.45-8.88-24.55-18.71-22.55-21.96s15.33,1.32,29.78,10.21
			C234.08,204.14,244.18,213.97,242.19,217.22z"/>
		
			<ellipse transform="matrix(0.5236 -0.8519 0.8519 0.5236 -68.4534 279.8496)" class="st37" cx="216.02" cy="201.14" rx="4" ry="20.08"/>
	</g>
	
		<linearGradient id="SVGID_00000136393185785498731560000018128310325161679266_" gradientUnits="userSpaceOnUse" x1="-3428.3232" y1="-1516.9281" x2="-3413.4976" y2="-1516.9281" gradientTransform="matrix(-0.8391 -0.5869 -0.5744 0.8212 -3529.4583 -599.6232)">
		<stop  offset="0" style="stop-color:#BDBBBC"/>
		<stop  offset="1" style="stop-color:#DADAD9"/>
	</linearGradient>
	<path style="fill:url(#SVGID_00000136393185785498731560000018128310325161679266_);" d="M215.18,171.67l-2.2,0.63
		c0,0-6.72-7.91-5.94-13.78c0,0,0.97-10,10.33-1.76l1.47,2.23c-0.8,0.21-1.61,0.43-2.41,0.64c-2.3-2.18-4.82-2.8-5.84-1.95
		c-1.04,0.86-0.67,3.33-0.52,3.84c0.22,0.75,0.48,1.52,0.79,2.31C212.08,167,213.66,169.61,215.18,171.67z"/>
	
		<linearGradient id="SVGID_00000167366319925773544060000014844590794358533015_" gradientUnits="userSpaceOnUse" x1="-3444.0466" y1="-1497.9178" x2="-3444.0466" y2="-1530.1682" gradientTransform="matrix(-0.8391 -0.5869 -0.5744 0.8212 -3529.4583 -599.6232)">
		<stop  offset="0" style="stop-color:#BDBBBC"/>
		<stop  offset="1" style="stop-color:#FFFFFF"/>
	</linearGradient>
	<path style="fill:url(#SVGID_00000167366319925773544060000014844590794358533015_);" d="M258.79,178.75
		c0,0-13.43,18.91-28.23,16.86c0,0-11.5-1.67-16.43-11.5c0,0-7.46-10.54,5.85-32.51"/>
	<path class="st35" d="M219.77,151.91c-0.52,0.74,0.28,2.33,2.07,4.42c2.87,3.36,8.29,8.03,14.89,12.65
		c6.91,4.83,13.43,8.42,17.55,9.85c2.28,0.79,3.82,0.91,4.31,0.23c0.09-0.13,0.14-0.3,0.15-0.48c0.13-2.51-7.14-9.62-17.11-16.59
		c-9.98-6.98-19.14-11.37-21.46-10.38C219.99,151.67,219.86,151.77,219.77,151.91z"/>
	<path class="st40" d="M220.14,151.35c-0.44,0.62,0.02,1.82,1.2,3.4c2.53,3.41,8.39,8.62,15.71,13.74
		c7.53,5.27,14.61,9.05,18.63,10.15c1.7,0.46,2.86,0.45,3.27-0.14c1.38-1.97-6.2-9.64-16.91-17.14
		C231.32,153.86,221.51,149.38,220.14,151.35z"/>
	<path class="st41" d="M221.45,154.48c-0.06,0.08-0.09,0.17-0.12,0.27c2.53,3.41,8.39,8.62,15.71,13.74
		c7.53,5.27,14.61,9.05,18.63,10.15c0.05-0.04,0.09-0.08,0.12-0.13c1.21-1.73-5.5-8.51-14.99-15.14
		C231.33,156.73,222.66,152.75,221.45,154.48z"/>
	<path class="st42" d="M249.78,188.51c0,0-4.24,1.93-19.69-9.36c0,0-15.89-10.55-16.16-15.32c0,0,1.62,4.42,16.52,14.8
		C230.45,178.63,244.05,188.35,249.78,188.51z"/>
	<path class="st42" d="M255.18,183.02c0,0-3.18,1.95-20.54-10.27c0,0-15.56-10.4-17.51-16.1c0,0,4.1,6.6,17.93,15.51
		C235.06,172.15,249.9,182.76,255.18,183.02z"/>
	<path class="st42" d="M256.14,182.28c0,0-3.19,1.94-20.75-10.42c0,0-15.74-10.53-17.74-16.26c0,0,4.17,6.65,18.15,15.67
		C235.8,171.27,250.82,181.99,256.14,182.28z"/>
	<path class="st43" d="M252.83,180.81l-4.06-2c0,0-8.5,13-14.89,14.48C233.88,193.29,243.5,193.6,252.83,180.81z"/>
	<g>
		<path class="st44" d="M230.82,62.35L230.82,62.35c0.49,3.19,4.79,3.87,6.25,0.99l0,0c1.71-3.39,6.85-1.72,6.24,2.03v0
			c-0.52,3.19,3.36,5.16,5.64,2.87l0,0c2.67-2.69,7.05,0.48,5.31,3.86l0,0c-1.48,2.87,1.6,5.95,4.47,4.47l0,0
			c3.38-1.74,6.55,2.64,3.86,5.31l0,0c-2.29,2.28-0.32,6.15,2.87,5.64l0,0c3.75-0.61,5.42,4.53,2.03,6.24l0,0
			c-2.88,1.46-2.2,5.75,0.99,6.25h0c3.75,0.58,3.75,5.99,0,6.57l0,0c-3.19,0.49-3.87,4.79-0.99,6.25l0,0
			c3.39,1.71,1.72,6.85-2.03,6.24h0c-3.19-0.52-5.16,3.36-2.87,5.64l0,0c2.69,2.67-0.48,7.05-3.86,5.31l0,0
			c-2.87-1.48-5.95,1.6-4.47,4.47l0,0c1.74,3.38-2.64,6.55-5.31,3.86l0,0c-2.28-2.29-6.15-0.32-5.64,2.87v0
			c0.61,3.75-4.53,5.42-6.24,2.03l0,0c-1.46-2.88-5.75-2.2-6.25,0.99l0,0c-0.58,3.75-5.99,3.75-6.57,0v0
			c-0.49-3.19-4.79-3.87-6.25-0.99l0,0c-1.71,3.39-6.85,1.72-6.24-2.03l0,0c0.52-3.19-3.36-5.16-5.64-2.87l0,0
			c-2.67,2.69-7.05-0.48-5.31-3.86l0,0c1.48-2.87-1.6-5.95-4.47-4.47l0,0c-3.38,1.74-6.55-2.64-3.86-5.31l0,0
			c2.29-2.28,0.32-6.15-2.87-5.64h0c-3.75,0.61-5.42-4.53-2.03-6.24l0,0c2.88-1.46,2.2-5.75-0.99-6.25l0,0
			c-3.75-0.58-3.75-5.99,0-6.57h0c3.19-0.49,3.87-4.79,0.99-6.25l0,0c-3.39-1.71-1.72-6.85,2.03-6.24l0,0
			c3.19,0.52,5.16-3.36,2.87-5.64l0,0c-2.69-2.67,0.48-7.05,3.86-5.31l0,0c2.87,1.48,5.95-1.6,4.47-4.47l0,0
			c-1.74-3.38,2.64-6.55,5.31-3.86l0,0c2.28,2.29,6.15,0.32,5.64-2.87l0,0c-0.61-3.75,4.53-5.42,6.24-2.03l0,0
			c1.46,2.88,5.75,2.2,6.25-0.99v0C224.83,58.6,230.24,58.6,230.82,62.35z"/>
		<path class="st45" d="M230.31,68.71L230.31,68.71c0.42,2.7,4.05,3.27,5.28,0.84l0,0c1.45-2.86,5.79-1.45,5.27,1.71v0
			c-0.44,2.69,2.84,4.36,4.76,2.43l0,0c2.26-2.28,5.95,0.41,4.49,3.26v0c-1.25,2.43,1.35,5.03,3.78,3.78l0,0
			c2.85-1.47,5.54,2.23,3.26,4.49l0,0c-1.94,1.92-0.27,5.2,2.43,4.76l0,0c3.17-0.51,4.58,3.83,1.71,5.27l0,0
			c-2.44,1.23-1.86,4.86,0.84,5.28l0,0c3.17,0.49,3.17,5.06,0,5.55h0c-2.7,0.42-3.27,4.05-0.84,5.28l0,0
			c2.86,1.45,1.45,5.79-1.71,5.27l0,0c-2.69-0.44-4.36,2.84-2.43,4.76l0,0c2.28,2.26-0.41,5.95-3.26,4.49l0,0
			c-2.43-1.25-5.03,1.35-3.78,3.78v0c1.47,2.85-2.23,5.54-4.49,3.26l0,0c-1.92-1.94-5.2-0.27-4.76,2.43v0
			c0.51,3.17-3.83,4.58-5.27,1.71l0,0c-1.23-2.44-4.86-1.86-5.28,0.84v0c-0.49,3.17-5.06,3.17-5.55,0l0,0
			c-0.42-2.7-4.05-3.27-5.28-0.84v0c-1.45,2.86-5.79,1.45-5.27-1.71v0c0.44-2.69-2.84-4.36-4.76-2.43l0,0
			c-2.26,2.28-5.95-0.41-4.49-3.26l0,0c1.25-2.43-1.35-5.03-3.78-3.78l0,0c-2.85,1.47-5.54-2.23-3.26-4.49l0,0
			c1.94-1.92,0.27-5.2-2.43-4.76l0,0c-3.17,0.51-4.58-3.83-1.71-5.27l0,0c2.44-1.23,1.86-4.86-0.84-5.28h0
			c-3.17-0.49-3.17-5.06,0-5.55l0,0c2.7-0.42,3.27-4.05,0.84-5.28l0,0c-2.86-1.45-1.45-5.79,1.71-5.27l0,0
			c2.69,0.44,4.36-2.84,2.43-4.76l0,0c-2.28-2.26,0.41-5.95,3.26-4.49l0,0c2.43,1.25,5.03-1.35,3.78-3.78l0,0
			c-1.47-2.85,2.23-5.54,4.49-3.26l0,0c1.92,1.94,5.2,0.27,4.76-2.43v0c-0.51-3.17,3.83-4.58,5.27-1.71v0
			c1.23,2.44,4.86,1.86,5.28-0.84l0,0C225.25,65.55,229.82,65.55,230.31,68.71z"/>
		<path class="st44" d="M230.82,62.35L230.82,62.35c0.49,3.19,4.79,3.87,6.25,0.99l0,0c1.71-3.39,6.85-1.72,6.24,2.03v0
			c-0.52,3.19,3.36,5.16,5.64,2.87l0,0c2.67-2.69,7.05,0.48,5.31,3.86l0,0c-1.48,2.87,1.6,5.95,4.47,4.47l0,0
			c3.38-1.74,6.55,2.64,3.86,5.31l0,0c-2.29,2.28-0.32,6.15,2.87,5.64l0,0c3.75-0.61,5.42,4.53,2.03,6.24l0,0
			c-2.88,1.46-2.2,5.75,0.99,6.25h0c3.75,0.58,3.75,5.99,0,6.57l0,0c-3.19,0.49-3.87,4.79-0.99,6.25l0,0
			c3.39,1.71,1.72,6.85-2.03,6.24h0c-3.19-0.52-5.16,3.36-2.87,5.64l0,0c2.69,2.67-0.48,7.05-3.86,5.31l0,0
			c-2.87-1.48-5.95,1.6-4.47,4.47l0,0c1.74,3.38-2.64,6.55-5.31,3.86l0,0c-2.28-2.29-6.15-0.32-5.64,2.87v0
			c0.61,3.75-4.53,5.42-6.24,2.03l0,0c-1.46-2.88-5.75-2.2-6.25,0.99l0,0c-0.58,3.75-5.99,3.75-6.57,0v0
			c-0.49-3.19-4.79-3.87-6.25-0.99l0,0c-1.71,3.39-6.85,1.72-6.24-2.03l0,0c0.52-3.19-3.36-5.16-5.64-2.87l0,0
			c-2.67,2.69-7.05-0.48-5.31-3.86l0,0c1.48-2.87-1.6-5.95-4.47-4.47l0,0c-3.38,1.74-6.55-2.64-3.86-5.31l0,0
			c2.29-2.28,0.32-6.15-2.87-5.64h0c-3.75,0.61-5.42-4.53-2.03-6.24l0,0c2.88-1.46,2.2-5.75-0.99-6.25l0,0
			c-3.75-0.58-3.75-5.99,0-6.57h0c3.19-0.49,3.87-4.79,0.99-6.25l0,0c-3.39-1.71-1.72-6.85,2.03-6.24l0,0
			c3.19,0.52,5.16-3.36,2.87-5.64l0,0c-2.69-2.67,0.48-7.05,3.86-5.31l0,0c2.87,1.48,5.95-1.6,4.47-4.47l0,0
			c-1.74-3.38,2.64-6.55,5.31-3.86l0,0c2.28,2.29,6.15,0.32,5.64-2.87l0,0c-0.61-3.75,4.53-5.42,6.24-2.03l0,0
			c1.46,2.88,5.75,2.2,6.25-0.99v0C224.83,58.6,230.24,58.6,230.82,62.35z"/>
		<path class="st32" d="M229.81,74.99L229.81,74.99c0.34,2.21,3.31,2.68,4.32,0.68v0c1.18-2.34,4.74-1.19,4.32,1.4l0,0
			c-0.36,2.2,2.32,3.57,3.9,1.99l0,0c1.85-1.86,4.87,0.33,3.67,2.67l0,0c-1.02,1.99,1.11,4.11,3.09,3.09l0,0
			c2.33-1.2,4.53,1.82,2.67,3.67l0,0c-1.59,1.57-0.22,4.25,1.99,3.9h0c2.59-0.42,3.75,3.13,1.4,4.32l0,0
			c-1.99,1.01-1.52,3.98,0.68,4.32h0c2.59,0.4,2.59,4.14,0,4.54l0,0c-2.21,0.34-2.68,3.31-0.68,4.32l0,0
			c2.34,1.18,1.19,4.74-1.4,4.32l0,0c-2.2-0.36-3.57,2.32-1.99,3.9l0,0c1.86,1.85-0.33,4.87-2.67,3.67l0,0
			c-1.99-1.02-4.11,1.11-3.09,3.09l0,0c1.2,2.33-1.82,4.53-3.67,2.67l0,0c-1.57-1.59-4.25-0.22-3.9,1.99l0,0
			c0.42,2.59-3.13,3.75-4.32,1.4v0c-1.01-1.99-3.98-1.52-4.32,0.68v0c-0.4,2.59-4.14,2.59-4.54,0l0,0
			c-0.34-2.21-3.31-2.68-4.32-0.68l0,0c-1.18,2.34-4.74,1.19-4.32-1.4v0c0.36-2.2-2.32-3.57-3.9-1.99l0,0
			c-1.85,1.86-4.87-0.33-3.67-2.67v0c1.02-1.99-1.11-4.11-3.09-3.09l0,0c-2.33,1.2-4.53-1.82-2.67-3.67l0,0
			c1.59-1.57,0.22-4.25-1.99-3.9l0,0c-2.59,0.42-3.75-3.13-1.4-4.32l0,0c1.99-1.01,1.52-3.98-0.68-4.32l0,0
			c-2.59-0.4-2.59-4.14,0-4.54h0c2.21-0.34,2.68-3.31,0.68-4.32l0,0c-2.34-1.18-1.19-4.74,1.4-4.32h0c2.2,0.36,3.57-2.32,1.99-3.9
			l0,0c-1.86-1.85,0.33-4.87,2.67-3.67l0,0c1.99,1.02,4.11-1.11,3.09-3.09v0c-1.2-2.33,1.82-4.53,3.67-2.67l0,0
			c1.57,1.59,4.25,0.22,3.9-1.99v0c-0.42-2.59,3.13-3.75,4.32-1.4l0,0c1.01,1.99,3.98,1.52,4.32-0.68l0,0
			C225.67,72.39,229.41,72.39,229.81,74.99z"/>
	</g>
	<text transform="matrix(1 0 0 1 206.7285 101.9834)" class="st46 st47 st48">Cofee</text>
	<text transform="matrix(1 0 0 1 214.8193 119.9331)" class="st46 st47 st49">Shop</text>
	<g>
		<g>
			<path class="st46" d="M261.12,211.93c-0.03,0.06-1.46-0.92-1.53-0.98c-1.06-0.82-1.97-1.81-2.73-2.92
				c-0.36-0.53-0.68-1.05-1.13-1.53c-0.44-0.47-0.93-0.91-1.39-1.35c-0.91-0.87-1.85-1.71-2.83-2.49c-0.12-0.1-0.06-0.29,0.09-0.3
				c1.36-0.08,5.67-0.04,8.41,3.33C260,205.69,262.8,208.67,261.12,211.93z"/>
			<circle class="st45" cx="258.02" cy="205.07" r="0.19"/>
			<circle class="st45" cx="258.34" cy="205.31" r="0.1"/>
			<circle class="st45" cx="258.65" cy="205.42" r="0.07"/>
			<path class="st45" d="M254.25,203.14c0,0,2.54-0.17,3.42,1.53c0,0,0.06,0.23-0.16,0.07s-2.07-1.51-3.13-1.39
				C254.39,203.35,254.16,203.31,254.25,203.14z"/>
		</g>
		<g>
			<path class="st46" d="M260.67,212.5c-1.29-1.17-2.57-2.34-3.81-3.56c-1.05-1.03-1.93-2.21-2.91-3.31
				c-0.76-0.85-1.56-1.79-2.53-2.41c-0.15-0.1-0.33-0.21-0.52-0.25c-0.08-0.02-0.16,0.02-0.19,0.1c-0.32,0.75-1.92,5.09,3.12,8.04
				c0,0,3.86,2.28,6.63,1.39"/>
			<circle class="st45" cx="256.2" cy="211.28" r="0.18"/>
			<circle class="st45" cx="255.76" cy="211.27" r="0.08"/>
			<circle class="st45" cx="255.48" cy="211.15" r="0.08"/>
			<path class="st45" d="M257.1,211.53c0,0-0.35-0.35,0.17-0.21c0,0,1.33,0.37,1.86,0.39c0,0,0.27,0.1,0.05,0.26
				C259.18,211.96,258.16,212.12,257.1,211.53z"/>
		</g>
	</g>
	<g>
		<g>
			<path class="st46" d="M261.16,229.48c-0.03,0.06-1.48-0.89-1.55-0.94c-1.08-0.79-2.02-1.77-2.79-2.85
				c-0.38-0.53-0.71-1.04-1.16-1.5c-0.45-0.46-0.95-0.88-1.42-1.32c-0.93-0.85-1.89-1.66-2.89-2.42c-0.12-0.09-0.07-0.29,0.08-0.3
				c1.36-0.11,5.67-0.17,8.48,3.13C259.9,223.27,262.76,226.18,261.16,229.48z"/>
			<circle class="st45" cx="257.91" cy="222.69" r="0.19"/>
			<circle class="st45" cx="258.23" cy="222.92" r="0.1"/>
			<circle class="st45" cx="258.55" cy="223.02" r="0.07"/>
			<path class="st45" d="M254.1,220.84c0,0,2.54-0.23,3.45,1.45c0,0,0.06,0.23-0.16,0.08c-0.22-0.15-2.1-1.46-3.16-1.32
				C254.23,221.05,254.01,221.02,254.1,220.84z"/>
		</g>
		<g>
			<path class="st46" d="M260.73,230.05c-1.31-1.14-2.62-2.28-3.89-3.47c-1.07-1.01-1.98-2.16-2.99-3.24
				c-0.78-0.84-1.6-1.75-2.58-2.36c-0.15-0.09-0.34-0.2-0.52-0.24c-0.08-0.01-0.16,0.03-0.19,0.1c-0.31,0.76-1.8,5.13,3.3,7.97
				c0,0,3.91,2.2,6.66,1.24"/>
			<circle class="st45" cx="256.23" cy="228.94" r="0.18"/>
			<circle class="st45" cx="255.79" cy="228.94" r="0.08"/>
			<circle class="st45" cx="255.51" cy="228.82" r="0.08"/>
			<path class="st45" d="M257.14,229.17c0,0-0.36-0.34,0.16-0.21c0,0,1.34,0.34,1.87,0.35c0,0,0.27,0.09,0.06,0.26
				C259.23,229.55,258.2,229.73,257.14,229.17z"/>
		</g>
	</g>
	<g>
		<g>
			<path class="st46" d="M267.66,234.97c0.06,0.01-0.43,1.67-0.46,1.76c-0.45,1.26-1.12,2.44-1.94,3.49
				c-0.4,0.51-0.79,0.97-1.11,1.54c-0.31,0.57-0.58,1.16-0.86,1.74c-0.55,1.13-1.06,2.28-1.5,3.46c-0.05,0.14-0.26,0.15-0.31,0
				c-0.49-1.27-1.78-5.39,0.59-9.02C262.07,237.95,264.04,234.38,267.66,234.97z"/>
			<circle class="st45" cx="262.08" cy="240.03" r="0.19"/>
			<circle class="st45" cx="262.21" cy="239.65" r="0.1"/>
			<circle class="st45" cx="262.22" cy="239.32" r="0.07"/>
			<path class="st45" d="M261.4,244.2c0,0-0.94-2.37,0.41-3.72c0,0,0.2-0.13,0.12,0.13c-0.08,0.25-0.8,2.43-0.37,3.41
				C261.56,244.01,261.59,244.24,261.4,244.2z"/>
		</g>
		<g>
			<path class="st46" d="M268.34,235.22c-0.71,1.58-1.44,3.16-2.22,4.72c-0.66,1.32-1.51,2.52-2.25,3.78
				c-0.58,0.98-1.23,2.03-1.52,3.14c-0.05,0.18-0.1,0.38-0.08,0.57c0.01,0.08,0.07,0.14,0.15,0.15c0.81,0.08,5.43,0.26,6.7-5.44
				c0,0,0.99-4.38-0.71-6.73"/>
			<circle class="st45" cx="268.55" cy="239.86" r="0.18"/>
			<circle class="st45" cx="268.67" cy="240.27" r="0.08"/>
			<circle class="st45" cx="268.64" cy="240.58" r="0.08"/>
			<path class="st45" d="M268.51,238.92c0,0-0.23,0.44-0.25-0.09c0,0-0.05-1.38-0.2-1.89c0,0,0.01-0.29,0.23-0.13
				C268.29,236.81,268.75,237.74,268.51,238.92z"/>
		</g>
	</g>
</g>
<text transform="matrix(1 0 0 1 41.111 181.7441)" class="st8 st50 st51">coffee</text>
<text transform="matrix(1 0 0 1 55.2391 202.624)" class="st8 st50 st51">rira</text>
</svg>
