<?xml version="1.0" encoding="utf-8"?>
<!-- Generator: Adobe Illustrator 26.0.3, SVG Export Plug-In . SVG Version: 6.00 Build 0)  -->
<svg version="1.1" id="Layer_1" xmlns="http://www.w3.org/2000/svg" xmlns:xlink="http://www.w3.org/1999/xlink" x="0px" y="0px"
	 viewBox="0 0 480 420" style="enable-background:new 0 0 480 420;" xml:space="preserve">
<style type="text/css">
	.st0{fill:none;}
	.st1{fill:none;stroke:#000000;stroke-width:0.3;stroke-linecap:square;}
	.st2{stroke:#000000;stroke-width:0.5;stroke-miterlimit:10;}
	.st3{fill:#E5C7B1;stroke:#FFFFFF;stroke-width:0.5;stroke-miterlimit:10;}
	.st4{fill:#EDBC7C;}
	.st5{opacity:0.1;fill:url(#Lines);}
	.st6{fill:#1A1A1A;stroke:#FFFFFF;stroke-width:0.5;stroke-miterlimit:10;}
	.st7{fill:#EDBC7C;stroke:#FFFFFF;stroke-width:0.5;stroke-miterlimit:10;}
	.st8{fill:#1A1A1A;}
	.st9{fill:#E5C7B1;}
	.st10{fill:none;stroke:#FFFFFF;stroke-width:0.5;stroke-miterlimit:10;}
	.st11{fill:#A62320;stroke:#1A1A1A;stroke-width:0.25;stroke-miterlimit:10;}
	.st12{fill:#A62320;stroke:#FFFFFF;stroke-width:0.5;stroke-miterlimit:10;}
	.st13{fill:#C3BBB8;stroke:#1A1A1A;stroke-width:0.25;stroke-miterlimit:10;}
	.st14{fill:none;stroke:#FF7BAC;stroke-width:0.25;stroke-miterlimit:10;}
	.st15{fill:none;stroke:#1A1A1A;stroke-width:0.25;stroke-miterlimit:10;}
	.st16{fill:#C3BBB8;}
	.st17{fill:#E5C7B1;stroke:#1A1A1A;stroke-width:0.25;stroke-miterlimit:10;}
	.st18{fill:#191412;stroke:#FFFFFF;stroke-width:0.25;stroke-miterlimit:10;}
	.st19{opacity:0.5;}
	.st20{fill:#CEB195;stroke:#1A1A1A;stroke-width:0.25;stroke-miterlimit:10;}
	.st21{fill:none;stroke:#E2BD9F;stroke-width:0.5;stroke-miterlimit:10;}
	.st22{fill:#333333;}
	.st23{fill:#CEB195;}
	.st24{fill:#FFFFFF;}
	.st25{font-family:'CourierNewPS-ItalicMT';}
	.st26{font-size:8.5211px;}
</style>
<pattern  x="-80" y="-30" width="72" height="72" patternUnits="userSpaceOnUse" id="Lines" viewBox="29.71 -73.78 72 72" style="overflow:visible;">
	<g>
		<rect x="29.71" y="-73.78" class="st0" width="72" height="72"/>
		<g>
			<line class="st1" x1="59.15" y1="-0.15" x2="59.15" y2="-3.65"/>
		</g>
		<g>
			<line class="st1" x1="100.71" y1="-64.15" x2="123.4" y2="-64.15"/>
			<line class="st1" x1="107.9" y1="-59.9" x2="100.71" y2="-59.9"/>
			<line class="st1" x1="100.71" y1="-48.4" x2="124.65" y2="-48.4"/>
			<line class="st1" x1="100.71" y1="-39.15" x2="131.4" y2="-39.15"/>
			<line class="st1" x1="100.71" y1="-23.4" x2="132.65" y2="-23.4"/>
			<line class="st1" x1="100.71" y1="-14.65" x2="103.4" y2="-14.65"/>
			<line class="st1" x1="100.71" y1="-20.4" x2="137.4" y2="-20.4"/>
			<line class="st1" x1="110.9" y1="-31.9" x2="100.71" y2="-31.9"/>
			<line class="st1" x1="100.71" y1="-7.4" x2="110.9" y2="-7.4"/>
			<line class="st1" x1="100.71" y1="-10.4" x2="124.9" y2="-10.4"/>
		</g>
		<g>
			<line class="st1" x1="28.71" y1="-64.15" x2="51.4" y2="-64.15"/>
			<line class="st1" x1="41.65" y1="-69.9" x2="85.4" y2="-69.9"/>
			<line class="st1" x1="45.9" y1="-64.15" x2="45.9" y2="-69.9"/>
			<line class="st1" x1="64.15" y1="-68.15" x2="95.65" y2="-68.15"/>
			<line class="st1" x1="50.15" y1="-66.4" x2="89.65" y2="-66.4"/>
			<line class="st1" x1="78.65" y1="-56.9" x2="98.9" y2="-56.9"/>
			<line class="st1" x1="91.9" y1="-56.9" x2="91.9" y2="-60.4"/>
			<line class="st1" x1="100.4" y1="-59.9" x2="94.15" y2="-59.9"/>
			<line class="st1" x1="35.9" y1="-59.9" x2="28.71" y2="-59.9"/>
			<line class="st1" x1="34.65" y1="-56.9" x2="58.9" y2="-56.9"/>
			<line class="st1" x1="67.9" y1="-64.15" x2="100.9" y2="-64.15"/>
			<line class="st1" x1="48.65" y1="-59.9" x2="72.9" y2="-59.9"/>
			<line class="st1" x1="81.15" y1="-51.65" x2="102.71" y2="-51.65"/>
			<line class="st1" x1="80.9" y1="-50.4" x2="102.71" y2="-50.4"/>
			<line class="st1" x1="36.9" y1="-51.65" x2="55.65" y2="-51.65"/>
			<line class="st1" x1="36.65" y1="-50.4" x2="49.15" y2="-50.4"/>
			<line class="st1" x1="51.4" y1="-54.65" x2="75.65" y2="-54.65"/>
			<line class="st1" x1="63.15" y1="-48.4" x2="83.4" y2="-48.4"/>
			<line class="st1" x1="76.4" y1="-48.4" x2="76.4" y2="-51.9"/>
			<line class="st1" x1="28.71" y1="-48.4" x2="52.65" y2="-48.4"/>
			<line class="st1" x1="33.65" y1="-48.4" x2="33.65" y2="-51.9"/>
			<line class="st1" x1="87.65" y1="-48.4" x2="100.15" y2="-48.4"/>
			<line class="st1" x1="59.4" y1="-51.65" x2="63.15" y2="-51.65"/>
			<line class="st1" x1="28.71" y1="-39.15" x2="59.4" y2="-39.15"/>
			<line class="st1" x1="49.65" y1="-44.9" x2="93.4" y2="-44.9"/>
			<line class="st1" x1="53.9" y1="-39.15" x2="53.9" y2="-44.9"/>
			<line class="st1" x1="72.15" y1="-43.15" x2="102.71" y2="-43.15"/>
			<line class="st1" x1="58.15" y1="-41.4" x2="97.65" y2="-41.4"/>
			<line class="st1" x1="86.65" y1="-31.9" x2="102.71" y2="-31.9"/>
			<line class="st1" x1="99.9" y1="-31.9" x2="99.9" y2="-35.4"/>
			<line class="st1" x1="85.65" y1="-34.9" x2="83.65" y2="-34.9"/>
			<line class="st1" x1="43.9" y1="-34.9" x2="37.65" y2="-34.9"/>
			<line class="st1" x1="42.65" y1="-31.9" x2="66.9" y2="-31.9"/>
			<line class="st1" x1="76.4" y1="-39.15" x2="102.71" y2="-39.15"/>
			<line class="st1" x1="56.65" y1="-34.9" x2="80.9" y2="-34.9"/>
			<line class="st1" x1="89.15" y1="-26.65" x2="102.71" y2="-26.65"/>
			<line class="st1" x1="88.9" y1="-25.4" x2="102.71" y2="-25.4"/>
			<line class="st1" x1="44.9" y1="-26.65" x2="63.65" y2="-26.65"/>
			<line class="st1" x1="44.65" y1="-25.4" x2="57.15" y2="-25.4"/>
			<line class="st1" x1="59.4" y1="-29.65" x2="83.65" y2="-29.65"/>
			<line class="st1" x1="71.15" y1="-23.4" x2="91.4" y2="-23.4"/>
			<line class="st1" x1="84.4" y1="-23.4" x2="84.4" y2="-26.9"/>
			<line class="st1" x1="28.71" y1="-23.4" x2="60.65" y2="-23.4"/>
			<line class="st1" x1="41.65" y1="-23.4" x2="41.65" y2="-26.9"/>
			<line class="st1" x1="95.65" y1="-23.4" x2="102.71" y2="-23.4"/>
			<line class="st1" x1="67.4" y1="-26.65" x2="71.15" y2="-26.65"/>
			<line class="st1" x1="28.71" y1="-14.65" x2="31.4" y2="-14.65"/>
			<line class="st1" x1="28.71" y1="-20.4" x2="65.4" y2="-20.4"/>
			<line class="st1" x1="44.15" y1="-18.65" x2="75.65" y2="-18.65"/>
			<line class="st1" x1="31.46" y1="-16.9" x2="69.65" y2="-16.9"/>
			<line class="st1" x1="58.65" y1="-7.4" x2="78.9" y2="-7.4"/>
			<line class="st1" x1="71.9" y1="-7.4" x2="71.9" y2="-10.9"/>
			<line class="st1" x1="81.4" y1="-10.4" x2="75.15" y2="-10.4"/>
			<line class="st1" x1="38.9" y1="-31.9" x2="28.71" y2="-31.9"/>
			<line class="st1" x1="28.71" y1="-7.4" x2="38.9" y2="-7.4"/>
			<line class="st1" x1="48.4" y1="-14.65" x2="81.4" y2="-14.65"/>
			<line class="st1" x1="28.71" y1="-10.4" x2="52.9" y2="-10.4"/>
			<line class="st1" x1="88.65" y1="-14.65" x2="102.71" y2="-14.65"/>
			<line class="st1" x1="67.15" y1="-5.15" x2="91.15" y2="-5.15"/>
			<line class="st1" x1="92.15" y1="-10.4" x2="102.71" y2="-10.4"/>
			<line class="st1" x1="31.4" y1="-5.15" x2="55.65" y2="-5.15"/>
			<line class="st1" x1="59.15" y1="-0.15" x2="59.15" y2="-3.65"/>
			<line class="st1" x1="92.15" y1="-18.9" x2="102.71" y2="-18.9"/>
			<line class="st1" x1="94.9" y1="-5.15" x2="98.65" y2="-5.15"/>
			<line class="st1" x1="45.9" y1="-72.15" x2="66.15" y2="-72.15"/>
			<line class="st1" x1="59.15" y1="-72.15" x2="59.15" y2="-75.65"/>
			<line class="st1" x1="32.4" y1="-69.65" x2="36.15" y2="-69.65"/>
		</g>
		<g>
			<line class="st1" x1="9.15" y1="-51.65" x2="30.71" y2="-51.65"/>
			<line class="st1" x1="8.9" y1="-50.4" x2="30.71" y2="-50.4"/>
			<line class="st1" x1="0.15" y1="-43.15" x2="30.71" y2="-43.15"/>
			<line class="st1" x1="14.65" y1="-31.9" x2="30.71" y2="-31.9"/>
			<line class="st1" x1="4.4" y1="-39.15" x2="30.71" y2="-39.15"/>
			<line class="st1" x1="17.15" y1="-26.65" x2="30.71" y2="-26.65"/>
			<line class="st1" x1="16.9" y1="-25.4" x2="30.71" y2="-25.4"/>
			<line class="st1" x1="23.65" y1="-23.4" x2="30.71" y2="-23.4"/>
			<line class="st1" x1="16.65" y1="-14.65" x2="30.71" y2="-14.65"/>
			<line class="st1" x1="20.15" y1="-10.4" x2="30.71" y2="-10.4"/>
			<line class="st1" x1="20.15" y1="-18.9" x2="30.71" y2="-18.9"/>
		</g>
		<g>
			<line class="st1" x1="59.15" y1="-72.15" x2="59.15" y2="-75.65"/>
		</g>
	</g>
</pattern>
<g>
	<polygon class="st2" points="240,15.06 44.87,384.52 435.13,384.52 	"/>
	<path class="st3" d="M424.67,384.38c-0.4,0.37-7.69,0.14-8.87,0.2c-4.38,0.18-8.77,0.16-13.16,0.08c-2.82-0.05-14.2-0.13-14.49-0.1
		c-1.28,0.09-2.44,0.14-3.49,0.87c-1.52,1.05,0.17,2.47,1.13,3.14c1.8,1.25,3.72,1.49,5.82,1.84c1.1,0.18,2.2,0.36,3.3,0.54
		c1.33,0.23,2.65,0.44,3.97,0.67c0,0,0.59,0.33,0.6,0.84c0,0.06-0.01,0.11-0.02,0.17c-0.02,0.06-0.05,0.11-0.07,0.17
		c-0.33,0.7-1.55,1.12-2.33,1.35c-0.23,0.07-0.48,0.15-0.74,0.22c-0.17,0.05-0.36,0.1-0.56,0.15c-1.83,0.52-3.72,0.86-5.61,1.03
		c-1.42,0.14-2.84,0.16-4.24,0.08c-0.23-0.01-0.47-0.02-0.69-0.05c-3.48-0.29-6.98-0.58-10.46-0.86c-0.23-0.02-0.45-0.05-0.68-0.07
		l-0.08-0.01c-1.41-0.18-2.76-0.54-4.07-1.02c-2.02-0.7-3.96-1.67-5.88-2.63c-0.81-0.4-1.63-0.82-2.45-1.25
		c-2.5-1.28-5-2.76-7.11-4.59c-0.07-0.06-0.12-0.11-0.19-0.17c-0.23-0.2-0.48-0.39-0.69-0.6c-0.03-0.03-0.07-0.06-0.08-0.09
		c-0.37-0.35-0.7-0.71-1-1.07l-51.78-41.35l-1.12-1.91l-7.43-12.58l16.38-6.39l11.23,7.02l5.58,5.59c0,0,0.96,0.96,0.96,0.96
		c2.66,2.67,5.31,5.34,7.97,8c4.8,4.82,9.6,9.64,14.4,14.47c5.35,5.37,10.59,10.58,17.95,13.15c1.88,0.66,3.75,0.38,5.67-0.01
		c6.43-1.3,12.8-2.7,19.32-3.46c4.49-0.53,8.98-0.82,13.5-0.82c0.41,0,0.81,0,1.2,0.02c0.29,0,0.59,0.01,0.88,0.02
		c0.48,0.02,0.94,0.05,1.4,0.08c0.39,0.02,0.76,0.06,1.13,0.09c0.08,0,0.16,0.01,0.24,0.02c0.44,0.05,0.9,0.09,1.33,0.15
		c0.44,0.05,0.87,0.11,1.29,0.18c0.42,0.07,0.83,0.15,1.24,0.23c0.03,0,0.08,0.01,0.11,0.02c0.34,0.07,0.67,0.14,0.99,0.22
		c0.03,0.01,0.07,0.01,0.09,0.02c0.46,0.11,0.91,0.24,1.34,0.37c0.14,0.05,0.28,0.09,0.42,0.14c0.49,0.16,0.94,0.33,1.37,0.52
		c0.18,0.08,0.35,0.16,0.52,0.24c0.59,0.27,1.13,0.59,1.62,0.93c0.16,0.1,0.31,0.22,0.45,0.33c0.88,0.68,1.59,1.49,2.08,2.42
		c0.01,0.02,0.01,0.03,0.02,0.06c0.03,0.02,0.07,0.05,0.11,0.09c0.03,0.02,0.06,0.03,0.08,0.06c0.68,0.59,2.91,2.79,1.47,5.35
		c0,0,2.14,2.19-0.06,4.62C424.53,382.05,425.9,383.24,424.67,384.38z"/>
	
		<ellipse transform="matrix(0.2234 -0.9747 0.9747 0.2234 -47.3563 315.7322)" class="st4" cx="174.45" cy="187.58" rx="41.3" ry="33.32"/>
	<path class="st5" d="M142.93,176.56c-6.68,21.77,2.01,44.36,19.42,50.45c17.41,6.09,36.94-6.63,43.62-28.4s-2.01-44.36-19.42-50.45
		S149.62,154.79,142.93,176.56z"/>
	<path class="st6" d="M166.58,215.66c-6.62-2.83-13.4-6.74-17.94-12.55c-5.65-7.24-5.3-16.02-2.82-24.48
		c4.48-15.34,16.93-27.89,33.02-30.36c2.2-0.34,4.43-0.48,6.66-0.45c-17.14-5.23-36.02,7.4-42.57,28.73
		c-6.68,21.77,2.01,44.36,19.42,50.45c2.11,0.74,4.26,1.2,6.4,1.4C168.07,223.67,172.03,217.99,166.58,215.66z"/>
	<path class="st7" d="M196.43,130.33c0,0-47.59,48.17-33.9,104.56l23.48-6.01c0,0-34.1-31.08,22.33-92.86L196.43,130.33z"/>
	<path class="st5" d="M200.83,130.33c0,0-47.59,48.17-33.9,104.56l23.48-6.01c0,0-34.1-31.08,22.33-92.86L200.83,130.33z"/>
	<path class="st8" d="M199.03,143.42c0,0-37.07,25.1-31.27,94.4l15.33,8.49l34.48-65.25L199.03,143.42z"/>
	<path class="st9" d="M209.31,154.74c0,0-6.69,51.99,23.34,68.6l25.3-4.35c0,0-6.86-39.34-10.74-49.78L209.31,154.74z"/>
	<path class="st10" d="M204.19,159.56c0,0-26.52,21.27-20.65,53.86"/>
	<path class="st8" d="M399.49,392.45v0.01c0,0.06-0.01,0.11-0.02,0.17c-0.02,0.06-0.05,0.11-0.07,0.17
		c-0.23,0.4-0.86,0.86-2.33,1.35c-0.23,0.07-0.48,0.15-0.74,0.22c-0.17,0.05-0.36,0.1-0.56,0.15c-1.35,0.35-3.18,0.7-5.61,1.03
		c-1.42,0.14-2.84,0.16-4.24,0.08l-11.83-0.98l-0.08-0.01c-1.41-0.18-2.76-0.54-4.07-1.02c-1.47-0.6-3.6-1.52-5.88-2.63
		c-0.81-0.4-1.63-0.82-2.45-1.25c-2.59-1.37-5.16-2.95-7.11-4.59c-0.07-0.06-0.12-0.11-0.19-0.17c-0.24-0.19-0.45-0.4-0.67-0.6
		c-0.03-0.02-0.07-0.06-0.1-0.09c-0.37-0.35-0.7-0.71-1-1.07l-51.78-41.35l-1.12-1.91l0.66-1.72l19.52-10.22l5.58,5.59l0.96,0.96
		l-12.22,10.2l40.42,35.07c0,0,2.52,2.06,7.07,4.54c6.81,3.7,18.14,8.31,32.31,8.31C395.75,392.69,397.61,392.61,399.49,392.45z"/>
	<path class="st8" d="M213.83,199.98c-0.03,1.25,10.59,18.29,28.59,16.58c0,0,9.6-0.48,12.43-14.42l22.71,22.95l3.39,62.64
		l-19.85,32.18l-30.9-25.04l-32.48-66.01L213.83,199.98z"/>
	<path class="st11" d="M208.84,169.97c0,0-0.19,0.21-0.5,0.61C208.39,170.02,208.55,169.8,208.84,169.97z"/>
	<path class="st12" d="M325.1,293.41c-1.66-1.28-3.65-2.11-5.16-3.6c-1.54-1.51-2.99-3.16-4.33-4.85c-3.18-4-5.72-8.49-7.71-13.19
		c-1.01-2.39-1.89-4.83-2.67-7.3c-4.32-13.77-5.29-28.27-8.16-42.35c-2.52-12.33-6.29-24.45-16.89-32.21
		c-3.52-2.58-7.39-4.65-11.35-6.45c-2.05-0.93-4.13-1.79-6.23-2.61c-1.17-0.46-4.78-1.1-5.51-2.05c0,0-2.22-4.1-2.22-4.1
		l-16.45,1.36c0.16,0.16,0.31,0.32,0.46,0.48c3.64,3.85,6.33,8.59,8.67,13.31c2.96,5.97,5.37,12.2,7.54,18.5
		c2.35,6.81,4.39,13.73,6.24,20.68c1.76,6.58,3.34,13.21,4.79,19.87c2.12,9.88,4.39,19.63,4.28,29.8
		c-0.05,4.99-0.63,9.98-0.98,14.96c-0.05,0.69-0.7,8.18-0.67,8.18c-1-0.21-1.73-1.22-2.48-1.84c-0.87-0.71-1.7-1.46-2.52-2.23
		c-1.77-1.68-3.42-3.48-4.99-5.35c-1.73-2.06-3.36-4.21-4.92-6.41c-1.68-2.38-3.28-4.82-4.81-7.3c-1.63-2.64-3.18-5.32-4.68-8.04
		c-1.56-2.84-3.07-5.71-4.52-8.61c-1.49-2.99-2.93-6-4.33-9.03c-1.42-3.08-2.78-6.17-4.11-9.29c-1.33-3.11-2.62-6.24-3.87-9.38
		c-1.23-3.09-2.43-6.2-3.6-9.32c-1.13-3.02-2.23-6.05-3.3-9.09c-1.02-2.89-2.01-5.8-2.97-8.71c-0.9-2.71-1.77-5.44-2.61-8.17
		c-0.77-2.48-1.51-4.97-2.23-7.47c-0.63-2.19-1.24-4.39-1.82-6.6c-0.49-1.85-0.95-3.71-1.38-5.58c-0.34-1.46-0.65-2.92-0.92-4.4
		c-0.18-1.01-0.35-2.03-0.42-3.06c-0.01-0.2-0.14-0.89-0.01-1.06c-2.15,2.65-10.47,13.48-11.18,22.37
		c-18.35,8.51-29.64,27.77-37.48,45.58c-19.68,42.35-16.14,89.13-19.78,134.38c-0.44,3.18-1.09,8.74-3.51,11.21l71.71-0.25l0.1,0
		c0,0,4.24-0.08,4.23-0.07l37.53,0.09c0,0,4.5,0.01,4.51,0.01l0.09-0.01l3.97,0.01c0,0,1.37,0.01,1.38,0.01l12.85,0.02
		c0,0,3.68,0.02,3.69,0.02l3.12,0l15.93,0.04c-4.06-3.85-6.67-7.44-8.13-10.82l-0.01-0.05c-0.87-2.05-1.33-4.02-1.41-5.94
		c-0.14-2.27,26.75-30.3,35.97-41.5c3.06-3.72,4.51-9.14,5.39-13.81c0.41-2.17,0.59-4.38,0.65-6.59
		C328.02,301.46,328.84,296.29,325.1,293.41z"/>
	<path class="st8" d="M327.25,312c0.41-2.17,0.53-3.88,0.59-6.08c0.12-4.12,1.28-9.44-2.46-12.32c-1.66-1.28-3.58-2-5.08-3.48
		c-1.54-1.51-3.19-3.29-4.53-4.98c-3.18-4-6.03-8.16-7.95-12.83c-0.88-2.15-1.43-3.27-2.21-5.74c-0.11-0.35-0.78-2.35-0.88-2.7
		c-4.65,4.81-1.43,11.96,1.31,17.44c4.26,6.39,12.78,9.59,17.04,14.91c7.19,9.24-0.21,23.04-4.51,33.52
		c1.07-1.23,2.77-2.98,3.58-3.97C324.6,322.77,326.36,316.67,327.25,312z"/>
	<path class="st8" d="M216.81,356.57c0,0,45.72,15.67,63.29-6.28c0.4-0.5,0.34,0.4,0.88,0.75l7.7,5.53l-2.69,7.01
		c0,0-35.23,18.76-69.92,4.68L216.81,356.57z"/>
	<path class="st8" d="M220.18,292.83c0,0-3.19,6.32-3.15,33.75C217.03,326.58,211.47,302.72,220.18,292.83z"/>
	<path class="st8" d="M276.32,378.69l-0.01,0c-0.81,0.33-1.65,0.67-2.54,1.01c-0.94,0.35-1.91,0.72-2.94,1.07l-0.01,0
		c-3.18,1.1-10,2.97-10,2.97l-2.11-0.02c0.09,0.08,0.23,0.31,0.32,0.41c-1.06,0.24-2.13,0.47-3.24,0.69
		c-0.03,0.01-0.07,0.01-0.09,0.01c-1.24,0.26-2.51,0.48-3.8,0.68c-0.59-0.57-1.15-1.12-1.7-1.66l-37.26,0
		c1.39-2.8,2.03-7.74,2.69-12.83c1.48,0.82,11.68,6.41,29,5.97c1.02-0.02,2.17,0.16,3.22,0.1c0,0,0,0,0.01-0.01l0.01,0
		c1.37-0.07,2.77-0.19,4.18-0.35c4.7-0.51,9.52-1.43,14.31-2.94c0.9-0.27,1.81-0.58,2.7-0.9c0.86-0.31,1.7-0.63,2.55-1
		c5.16-2.11,10.49-6.76,15.22-10.56c-1.63,4.54-0.99,8.94,0.18,12.13C287,373.46,283.55,375.75,276.32,378.69z"/>
	<circle class="st13" cx="221.99" cy="309.27" r="5.92"/>
	<path class="st14" d="M204.89,177.28"/>
	<path class="st13" d="M289.53,402.21c0,0-6.97-4.86-16.54-18.2c-0.71-0.99-1.44-2.03-2.17-3.12l-0.01,0
		c-1.45-2.13-2.94-4.46-4.47-6.98c-1.86-3.05-3.77-6.39-5.7-10.03c-0.31-0.58-1.08-0.71-1.55-0.25l-8.83,8.67
		c-0.74,0.72-0.76,1.9-0.04,2.65c0.49,0.51,1.11,1.15,1.82,1.9c1.77,1.86,4.15,4.37,6.72,7.13c0.09,0.08,0.17,0.17,0.25,0.27
		c7.67,8.26,16.95,18.65,17,20.7c0,0-14.53-10.13-24.13-19.32c-0.59-0.57-1.15-1.12-1.7-1.66c-2.36-2.39-4.29-4.67-5.44-6.64
		c-0.2-0.33-0.37-0.65-0.52-0.96c-0.44-0.93-0.37-2.02,0.16-2.9c1.21-2.03,4.31-6.47,11.63-13.93c0.53-0.54,0.59-1.38,0.13-1.98
		l-32.84-42.59l3.85-2.96c0,0,26,33.69,44.44,60.01c1.64,2.34,3.22,4.61,4.71,6.8l0.01,0c1.22,1.81,2.39,3.55,3.49,5.22
		C285.92,393.3,289.92,400.26,289.53,402.21z"/>
	<circle class="st11" cx="221.99" cy="309.27" r="2.57"/>
	<g>
		<path class="st15" d="M224.19,316.16c0,0,2.18-0.42,3.87-2.99"/>
		<path class="st15" d="M225.37,317.8c0,0,2.3-0.27,3.98-2.84"/>
		<path class="st15" d="M227.42,320.35c0,0,2.2-0.3,3.88-2.87"/>
		<path class="st15" d="M229.26,322.79c0,0,2.21-0.27,3.89-2.84"/>
		<path class="st15" d="M231.08,324.92c0,0,2.21-0.13,3.89-2.7"/>
		<path class="st15" d="M232.62,327.14c0,0,2.23-0.26,3.91-2.82"/>
		<path class="st15" d="M234.34,329.39c0,0,2.15-0.24,3.83-2.81"/>
		<path class="st15" d="M235.71,331.11c0,0,2.3-0.27,3.98-2.84"/>
		<path class="st15" d="M237.53,333.37c0,0,1.98-0.2,3.67-2.77"/>
		<path class="st15" d="M239.03,335.47c0,0,2.07-0.22,3.75-2.79"/>
		<path class="st15" d="M240.7,337.63c0,0,2.12-0.27,3.8-2.84"/>
		<path class="st15" d="M242.47,339.85c0,0,1.99-0.21,3.68-2.77"/>
		<path class="st15" d="M244.15,342.03c0,0,2.05-0.27,3.73-2.84"/>
		<path class="st15" d="M245.92,344.32c0,0,1.78-0.28,3.46-2.85"/>
		<path class="st15" d="M247.31,346.12c0,0,1.87-0.23,3.55-2.8"/>
		<path class="st15" d="M249.02,348.34c0,0,1.75-0.14,3.43-2.71"/>
	</g>
	<g>
		<path class="st16" d="M245.86,375.26c0,0,22.68,22.45,26.39,25.75"/>
		<path d="M245.86,375.26c8.73,8.36,17.69,17.35,26.39,25.75C263.33,392.83,254.37,383.84,245.86,375.26L245.86,375.26z"/>
	</g>
	<g>
		<path d="M263.65,365.14l11.34,16.25c3.33,4.64,7.93,11.77,11.55,16.08c-1.98-2.06-4.3-5.54-6.03-7.85
			C274.93,381.8,268.92,373.11,263.65,365.14L263.65,365.14z"/>
	</g>
	<path class="st17" d="M200.79,145.51c0,0-11.53,14.22,6.98,23.91c0,0,6.29,3.62,11.74,1.81c0,0,18.21,14.32,41.4,5.2
		c0,0,10.49-2.85,16.94-22.78l-30.63-53.8c-1.15-0.41-39.71,30.76-39.71,30.76L200.79,145.51z"/>
	<polyline class="st8" points="264.21,298.33 258.83,303.02 268.04,311.72 268.72,301.92 	"/>
	<line class="st0" x1="325.39" y1="333.62" x2="362.11" y2="370.33"/>
	<path class="st8" d="M200.61,160.21c-0.02,0.02-0.03,0.04-0.05,0.05c-0.17,0.14-0.41,0.17-0.62,0.12c-0.27-0.06-0.5-0.25-0.66-0.48
		s-0.24-0.5-0.29-0.77c-0.1-0.61-0.02-1.25,0.25-1.81c0.18-0.38,0.44-0.73,0.8-0.95c0.38-0.24,0.85-0.33,1.31-0.3
		s0.89,0.17,1.31,0.35c0.89,0.38,1.7,0.94,2.47,1.52c0.51,0.38,1.01,0.78,1.47,1.22c0.64,0.63,1.12,1.43,1.68,2.13
		c0.48,0.6,0.97,1.19,1.48,1.76c0.43,0.48,0.91,0.99,1.51,1.25c0.13,0.06,0.27,0.1,0.41,0.11c0.12,0.01,0.27-0.07,0.38-0.03
		c0.03,0.01,0.07,0.02,0.09,0.06c0.04,0.07,0,0.15-0.03,0.21c-0.16,0.29-0.61,0.43-0.9,0.5c-1.79,0.45-3.79-0.44-5.32-1.28
		c-0.05-0.03-0.1-0.06-0.16-0.09c-0.72-0.41-1.2-1.14-1.29-1.96l-0.1-0.88c-0.1-0.89-0.63-1.71-1.46-2.04
		c-0.89-0.36-1.61,0.25-2.05,0.99C200.76,160,200.7,160.12,200.61,160.21z"/>
	<path class="st8" d="M222,155.03l22.81,3.35l-0.02,0.72l-6.5-0.95l4.06,4.97c0.36,0.44,0.33,1.1-0.1,1.48
		c-0.62,0.55-1.76,0.98-3.67-0.08c0,0-1.01,3.16-9.74,1.66c0,0-6.35-1.01-6.68-2.54C222.16,163.65,221.13,161.09,222,155.03z"/>
	<path class="st8" d="M254.89,178.64c0,0,6.66,1.5,11.79,3.77c0,0-10.99,18.85-12.03,23.1c0,0-5.77-16.63-10.86-22.96l9.32-7.21
		L254.89,178.64z"/>
	<path class="st8" d="M212.3,182.73c0.22,0.08,6.8,17.21,36.88,0.02c0,0,21.39-7.72,26.52-19.86c0,0,2.97-15.74,2.68-15.75
		c-0.29-0.01-10.34-6.97-10.34-6.97s7.58,8.15-10.26,16.73c-0.43,0.21-0.73,0.62-0.77,1.1l-1.1,12.32c0,0-1.76,1.12-3.83-0.23
		c0,0-0.46,1.15,2.2,1.79c0,0-2.31,5.81-5.71,6.02c0,0-12.63,3.44-29.06-6.64c0,0-6.9,0.98-11.23-1.68c0,0-2.36,13.16,0.94,22.85
		c1.19,3.48,4.6,12.53,7.86,14.03l-1.18-3.94C215.91,202.5,211.72,189.7,212.3,182.73"/>
	<path class="st18" d="M283.35,95.33c2.16-1.69,22.08,0.25,22.08,0.25c-3.67-8.58-29.79-15.25-29.79-15.25
		c0.47-3.47,15.48-9.41,15.48-9.41c-4.14-4.73-29.12-1.82-29.12-1.82c-0.69-3.68,11.64-10.74,11.64-10.74
		c-2.99-4.32-37.1,9.39-37.1,9.39c-0.34-1.94,10.49-11.35,10.49-11.35c-11.78,0.12-27.4,15.98-27.4,15.98l-0.89-11.8
		c-3.7,1.27-7.94,11.6-7.94,11.86c-3.4-1.13-5.67-2.27-7.94-3.4c2.2,3.29,1.13,11.26,1.13,11.34c0-0.08-16.73,5.55-16.73,5.55
		l10.56,2.56c-13.49,7.03-17.1,38.23-17.1,38.23c1.5-6.53,7.34-8.33,7.34-8.33c-6.18,8.36,0.23,23.76,0.23,23.76
		c0.13-5.79,2.74-9.98,2.74-9.98l-1.32,15.42l5.74-6.05c-2.41,4.19,1.92,16.58,1.92,16.58c1.93-16.76,13.79,5.6,13.79,5.6l1.04-3.07
		l3.07,9.34c1.01-2.1,1.43-20.44,1.31-15.23c-0.01,0.3,0.01,0.62,0.04,0.96c0.53,5.52,5.95,15.59,5.95,15.59
		c-1.37-16.06,1.79-35.88,1.79-35.88c-0.93,6.93,5.96,26.4,5.96,26.4c-2.78-13.39,1.99-36.26,1.99-36.26
		c2.83,19.76,12.13,35.23,12.13,35.23c-3.16-13.78-4.54-37.95-4.54-37.95c17.27,21.64,20.83,35.04,20.83,35.04
		c0.28-3.86-2.51-17.05-2.51-17.05c2.12,0.05,7.05,12.71,7.05,12.71c1.42-2.86,2.93-9.97,2.93-9.97c5.81,7.86,6.37,25.44,6.37,25.44
		c1.8-2.86,4.98-14.95,4.98-14.95l2.54,7.01l5.55-14.55l8.99,12.18l-5.25-31.98c2.69,0.64,13.11,9.18,13.11,9.18
		C296.64,108.7,283.35,95.33,283.35,95.33z"/>
	<path class="st8" d="M271.6,371.89c0,0-0.04,0.43-7.78,2.64l5.82,6.62l7.66-2.88L271.6,371.89z"/>
	<g class="st19">
		<g>
			<path class="st8" d="M197.15,194.87c13.46,40.44,35.09,84.95,67.3,113.59C231.9,279.87,210.4,235.58,197.15,194.87L197.15,194.87
				z"/>
		</g>
		<g>
			<path class="st8" d="M260.22,199.4c2.17,1.63,4,4.08,5.48,6.35c1.53,2.29,2.88,4.88,4,7.41c7.9,18.02,10.19,38.11,11.37,57.59
				c0.4,4.91,0.4,11.87,0.5,16.85c0.07,2.08,0.06,6.34-0.02,8.43c-0.04,9.68-0.85,23.92-1.5,33.67c0.57-9.84,1.3-23.97,1.34-33.67
				c0.08-2.11,0.08-6.31,0-8.42c-0.12-5.02-0.13-11.91-0.54-16.84c-1.22-19.46-3.39-39.53-11.25-57.55
				c-1.1-2.53-2.43-5.13-3.94-7.43C264.19,203.51,262.38,201.05,260.22,199.4L260.22,199.4z"/>
		</g>
		<g>
			<path class="st8" d="M267.8,314.08c-0.72,14.15-0.73,28.33,0.02,42.48C266.75,342.44,266.77,328.22,267.8,314.08L267.8,314.08z"
				/>
		</g>
		<g>
			<path class="st8" d="M164.46,236.36c14.94-2.06,26.38,12.02,33.12,23.62c7.01,12.57,11.5,26.37,14.98,40.28
				c-3.67-13.85-8.13-27.64-15.19-40.16C190.69,248.5,179.35,234.5,164.46,236.36L164.46,236.36z"/>
		</g>
		<g>
			<path class="st8" d="M215.93,315.06c1.17,18.84,1.89,37.86-0.41,56.64C217.51,352.89,216.79,333.92,215.93,315.06L215.93,315.06z
				"/>
		</g>
	</g>
	<path class="st20" d="M262.63,163.68l-0.21-4.74c-0.03-0.63,0.35-1.2,0.93-1.43l7.08-2.79L262.63,163.68z"/>
	<path class="st21" d="M268.23,143.58c0,0,5.54,6.75,6.37,25.44"/>
	<g class="st19">
		<path class="st8" d="M286.34,221.13c-3.27,34.16-4.38,84.99,13.29,115.08C281.65,306.11,282.77,255.4,286.34,221.13L286.34,221.13
			z"/>
	</g>
	<path class="st8" d="M139.94,375.62c-0.74,5.58-2.89,8.46-2.89,8.46s23.09-0.11,33.58-0.18
		C140.77,382.16,139.94,375.62,139.94,375.62z"/>
	<path class="st8" d="M291.87,205.45c0,0-3.5,1.45-5.6,16.59c0,0-0.54-16.39,4.54-18.89L291.87,205.45z"/>
	<path class="st8" d="M284.08,215.16c0,0,0.92,0.8,2.19,6.88C286.27,222.04,286.96,218.71,284.08,215.16z"/>
	<path class="st8" d="M205.92,278.67c0,0,11.74,30.66,11.07,68.94C216.98,347.61,223.3,317.06,205.92,278.67z"/>
	<path class="st8" d="M286.54,293.94c0.03-1,9.69,35.63,32.6,34.86c1.54-0.21-43.81,48.23-39.98,25.47
		C279.16,354.27,286.3,303.25,286.54,293.94z"/>
	<g>
		<g>
			<g>
				<path class="st8" d="M221.4,311.87c-1.24,2-1.54,4.59-1.7,6.89c-0.21,3.02,0,6.05,0.2,9.06c0.01,0.16,0.26,0.16,0.25,0
					c-0.19-2.86-0.38-5.73-0.23-8.6c0.13-2.39,0.4-5.15,1.69-7.23C221.7,311.86,221.49,311.73,221.4,311.87L221.4,311.87z"/>
			</g>
		</g>
		<g>
			<g>
				<path class="st8" d="M221.53,311.96c-1.3,1.07-1.97,2.8-2.37,4.38c-0.53,2.04-0.63,4.15-0.74,6.24c-0.01,0.16,0.24,0.16,0.25,0
					c0.1-2.01,0.21-4.04,0.69-6c0.39-1.6,1.04-3.37,2.35-4.45C221.83,312.04,221.65,311.86,221.53,311.96L221.53,311.96z"/>
			</g>
		</g>
		<g>
			<g>
				<path class="st8" d="M221.45,312.03c-0.45,5.07-0.58,10.18,0.03,15.24c0.02,0.16,0.27,0.16,0.25,0
					c-0.61-5.06-0.48-10.17-0.03-15.24C221.71,311.87,221.46,311.87,221.45,312.03L221.45,312.03z"/>
			</g>
		</g>
		<g>
			<g>
				<path class="st8" d="M221.56,311.79c0.11,2.82,0.22,5.65,0.42,8.47c0.18,2.56,0.26,5.27,0.98,7.74
					c0.04,0.15,0.29,0.09,0.24-0.07c-0.73-2.53-0.81-5.31-0.99-7.92c-0.19-2.74-0.3-5.48-0.4-8.23
					C221.81,311.63,221.56,311.63,221.56,311.79L221.56,311.79z"/>
			</g>
		</g>
		<g>
			<g>
				<path class="st8" d="M221.57,311.87c0.36,2.34,0.72,4.68,1.13,7.01c0.39,2.25,0.71,4.59,1.43,6.76
					c0.05,0.15,0.29,0.09,0.24-0.07c-0.72-2.17-1.05-4.51-1.43-6.76c-0.4-2.33-0.77-4.67-1.13-7.01
					C221.79,311.65,221.54,311.72,221.57,311.87L221.57,311.87z"/>
			</g>
		</g>
	</g>
	<g>
		<path class="st22" d="M402.59,369.3c6.6,0,13.55,0.21,19.72,2.75C416.03,369.81,409.2,369.61,402.59,369.3L402.59,369.3z"/>
	</g>
	<g>
		<path class="st22" d="M399.48,374.1c8.04,0.11,16.49,0.14,24.03,3.21C415.86,374.54,407.52,374.52,399.48,374.1L399.48,374.1z"/>
	</g>
	<g>
		<path class="st22" d="M399.16,379.17c4.08-0.1,8.16,0.08,12.24,0.34c4.02,0.46,8.26,0.64,11.94,2.47
			c-3.75-1.63-7.94-1.83-11.96-2.22C407.32,379.41,403.24,379.29,399.16,379.17L399.16,379.17z"/>
	</g>
	<g>
		<path class="st22" d="M395.01,391.4c-0.55,0.2-0.95,0.81-0.95,1.38c-0.01,0.58,0.48,1.05,0.95,1.44c-0.29-0.13-0.58-0.28-0.8-0.53
			C393.41,392.98,393.95,391.46,395.01,391.4L395.01,391.4z"/>
	</g>
	<g>
		<path class="st22" d="M421.63,382.08c-0.23,0.28-0.52,0.62-0.48,0.98c0.03,0.34,0.37,0.6,0.68,0.87
			C420.72,383.7,420.61,382.49,421.63,382.08L421.63,382.08z"/>
	</g>
	<g>
		<path class="st22" d="M419.44,368.74c-0.23,0.28-0.52,0.62-0.48,0.98c0.03,0.34,0.37,0.6,0.68,0.87
			C418.53,370.36,418.41,369.15,419.44,368.74L419.44,368.74z"/>
	</g>
	<g>
		<path class="st22" d="M421.93,377.32c-1.02,1.06-1.59,2.43-0.31,3.55C420.01,380.02,420.61,378.09,421.93,377.32L421.93,377.32z"
			/>
	</g>
	<g>
		<path class="st22" d="M421.05,372.4c-1.42,1.07-1.14,2.4,0,3.58c0,0-0.43-0.34-0.43-0.34
			C419.45,374.65,419.63,372.99,421.05,372.4L421.05,372.4z"/>
	</g>
	<g>
		<path class="st23" d="M189.73,147.58c2.05-2.35,4.14-4.66,6.27-6.94c-0.65,1.65-0.92,3.44-0.88,5.24
			c-0.01,3.64,0.86,7.3,1.89,10.78c0,0,0.68,2.1,0.68,2.1l-0.84-2.05c-1.73-4.82-3.11-10.21-1.58-15.27c0,0,0.36,0.23,0.36,0.23
			C193.7,143.68,191.73,145.64,189.73,147.58L189.73,147.58z"/>
	</g>
	<path class="st21" d="M303.96,345.01"/>
	<path class="st21" d="M320.21,328.1"/>
	<path class="st15" d="M243.67,209.98"/>
	<g>
		<g>
			<path class="st16" d="M257.95,178.78c-11.39,4.54-13.67,17.06-19.07,26.04l4.09,1.39c1.2-4.96,4.2-21.67,15.21-27.22
				L257.95,178.78z"/>
			<path class="st8" d="M257.95,178.79c-10.89,4.25-13.69,17.21-19.05,25.97c0,0,4.1,1.36,4.1,1.36s-0.11,0.06-0.11,0.06
				c2.24-10.12,5.4-22.03,15.28-27.22c0,0,0,0.03,0,0.03L257.95,178.79L257.95,178.79z M257.96,178.77l0.23,0.21l0.02,0.02
				c0,0-0.02,0.01-0.02,0.01c-9.74,5.42-12.77,17.21-15.15,27.32c0,0-0.09-0.03-0.09-0.03l-4.08-1.41
				C244.04,195.79,246.88,182.84,257.96,178.77L257.96,178.77z"/>
		</g>
		<g>
			<path class="st16" d="M242.33,208.12c0,0-3.81,13.49-1.91,18.16C240.43,226.29,243.72,212.53,242.33,208.12z"/>
			<path class="st8" d="M242.33,208.14c-1.27,5.86-3.16,12.48-1.97,18.14C241.44,220.34,243.18,214.18,242.33,208.14L242.33,208.14z
				 M242.33,208.11c0.81,3,0.29,6.14-0.07,9.17c-0.46,3.11-1.06,6.2-1.83,9.25c-1.04-3.03-0.5-6.3-0.15-9.4
				C240.75,214.07,241.42,211.08,242.33,208.11L242.33,208.11z"/>
		</g>
		<g>
			<path class="st16" d="M241.29,209.98c0,0,3.72,11.39,6.81,13.6C248.1,223.58,246.1,210.31,241.29,209.98z"/>
			<path class="st8" d="M241.3,209.99c1.33,3.47,2.75,7.3,4.5,10.56c0.62,1.11,1.34,2.2,2.33,2.98c0,0-0.1,0.06-0.1,0.06
				C247.2,219.81,245.67,210.89,241.3,209.99L241.3,209.99z M241.28,209.97c4.62,0.62,6.25,9.92,6.91,13.76
				c-1.09-0.83-1.77-2.01-2.47-3.14C243.8,217.25,242.4,213.66,241.28,209.97L241.28,209.97z"/>
		</g>
		<g>
			
				<ellipse transform="matrix(0.1465 -0.9892 0.9892 0.1465 -1.6043 414.9768)" class="st16" cx="239.68" cy="208.42" rx="5.52" ry="3.07"/>
			<path class="st8" d="M242.72,208.87c-0.15,2.43-2.73,7.26-5.3,4.12c-1.87-2.68-0.94-10.09,3.08-10.15
				C242.97,203.5,243.01,206.81,242.72,208.87L242.72,208.87z M242.7,208.87c0.45-2.21-0.65-7.36-3.74-5.32
				c-2.53,1.91-3.75,9.05-0.07,10.24C241.24,213.78,242.35,210.86,242.7,208.87L242.7,208.87z"/>
		</g>
		<g>
			
				<ellipse transform="matrix(0.8333 -0.5528 0.5528 0.8333 -74.4426 169.7011)" class="st16" cx="244.2" cy="208.3" rx="2.28" ry="4.37"/>
			<path class="st8" d="M246.11,207.03c0.71,1.11,1.38,2.42,1.24,3.79c-0.22,1.84-2.12,1.62-3.25,0.71
				c-1.75-1.33-3.24-3.47-3.07-5.75C241.73,202.59,245.24,205.37,246.11,207.03L246.11,207.03z M246.09,207.04
				c-3.28-4.5-6.66-2.33-3.74,2.48C245.53,214.23,249.01,211.8,246.09,207.04L246.09,207.04z"/>
		</g>
		<g>
			<path class="st16" d="M239.79,204.68c0,0-1.82,3.84-0.3,6.3"/>
			<path class="st8" d="M239.8,204.68c-0.23,1.06-0.78,2.04-0.81,3.14c-0.05,1.09,0.14,2.17,0.49,3.16
				c-0.71-0.88-0.83-2.1-0.62-3.17C239.08,206.76,239.12,205.51,239.8,204.68L239.8,204.68z"/>
		</g>
		<g>
			<path class="st16" d="M241.96,204.68c0,0,2.89,3.21,3.17,4.76"/>
			<path class="st8" d="M241.97,204.67c0.81,0.58,1.21,1.49,1.86,2.21c0.59,0.72,1.31,1.63,1.3,2.56c-0.31-0.77-0.99-1.76-1.41-2.48
				C243.25,206.12,242.35,205.52,241.97,204.67L241.97,204.67z"/>
		</g>
		<g>
			<path class="st16" d="M236.85,203.4c-1.79-1.09-3.63-2.11-5.5-3.05c-4.96-2.5-10.13-4.2-15.38-5.94
				c-2.75-0.91-15.53-2.02-18.97-1.58c0.38-0.04,3.61,0.05,5.39,0.27c2.88,0.35,5.6,1.31,8.34,2.21c2.84,0.93,5.68,1.89,8.51,2.88
				c6.11,2.12,12.21,4.37,17.9,7.44c0.13,0.07,0.27,0.14,0.42,0.15c0.29,0,0.53-0.27,0.58-0.56
				C238.3,204.43,237.53,203.81,236.85,203.4z"/>
			<path class="st8" d="M236.85,203.41c-6.76-4.04-14.12-6.83-21.64-9.11c-5.98-1.07-12.14-1.72-18.21-1.41c0,0-0.01-0.12-0.01-0.12
				c1.94-0.01,3.85,0.06,5.77,0.29c5.71,0.94,11.05,3.32,16.55,5.02c5.45,1.87,10.86,3.93,16.01,6.55c0.35,0.19,1.56,0.81,1.91,1.01
				c0.79,0.46,1.17-0.77,0.69-1.29C237.65,203.95,237.25,203.66,236.85,203.41L236.85,203.41z M236.86,203.39
				c0.76,0.41,1.86,1.43,1.05,2.28c-0.39,0.37-0.98-0.16-1.34-0.31c-5.54-2.89-11.45-4.98-17.33-7.05
				c-5.48-1.71-10.82-4.07-16.49-5.08c-1.89-0.25-3.83-0.34-5.73-0.34c0,0-0.01-0.12-0.01-0.12c6.1-0.23,12.25,0.33,18.26,1.35
				C222.81,196.3,230.13,199.3,236.86,203.39L236.86,203.39z"/>
		</g>
		<g>
			
				<ellipse transform="matrix(0.9966 -0.0828 0.0828 0.9966 -16.1044 20.5863)" class="st16" cx="240.01" cy="204.35" rx="3.42" ry="2.05"/>
			<path class="st8" d="M243.42,204.06c-0.08,2.95-6.25,3.34-6.89,0.57C236.57,201.69,242.88,201.2,243.42,204.06L243.42,204.06z
				 M243.4,204.06c-0.49-2.57-6.63-2.01-6.73,0.56C237.07,207.28,243.35,206.64,243.4,204.06L243.4,204.06z"/>
		</g>
	</g>
	<polygon class="st8" points="285.81,367.01 287.43,364.85 292.2,359.12 301.87,348.31 305.03,344.86 309.25,340.13 313.41,335.46 
		310.42,334.2 295.7,349.41 282.08,360.46 	"/>
	<rect x="56.62" y="376.3" class="st0" width="25.57" height="6.7"/>
	<text transform="matrix(1 0 0 1 56.6167 381.5225)" class="st24 st25 st26">Sh.D</text>
</g>
</svg>
