<?xml version="1.0" encoding="utf-8"?>
<!-- Generator: Adobe Illustrator 26.0.3, SVG Export Plug-In . SVG Version: 6.00 Build 0)  -->
<svg version="1.1" id="Layer_1" xmlns="http://www.w3.org/2000/svg" xmlns:xlink="http://www.w3.org/1999/xlink" x="0px" y="0px"
	 viewBox="0 0 1289.2 333.1" style="enable-background:new 0 0 1289.2 333.1;" xml:space="preserve">
<style type="text/css">
	.st0{opacity:0.7;}
	.st1{fill:#DCD0C8;}
	.st2{fill:#AEC8AD;}
	.st3{opacity:0.7;fill:#9DC09F;enable-background:new    ;}
	.st4{fill:#455756;}
</style>
<g class="st0">
	<path class="st1" d="M1296.9-0.8v158.6c-7.1,2.5-14.4,3.3-22,1.7c-13-2.8-23.6-12.5-31.3-23.4c-15.6-21.8-22.5-48.7-36.7-71.4
		c-11.2-17.9-26.9-33.2-34.3-53c-1.5-4-2.7-8.3-3.1-12.6L1296.9-0.8L1296.9-0.8z"/>
</g>
<g class="st0">
	<g>
		<path class="st2" d="M1346.1,229.6v1.6h-0.3c-7.3,0-14.9-0.8-22.7-2.4c-43.1-9-79.9-37.9-96.1-75.3c-3.7-8.6-6.4-17.8-9.1-26.6
			c-3.5-11.7-7.1-23.8-13-34.7c-9.3-17-23.9-30.3-39.3-43.7l-0.8-0.7c-7.3-6.3-14.8-12.8-20.7-20.6c-10.7-14.4-14.7-33.2-11.9-50.9
			h1.6c-2.8,17.3,1.1,35.8,11.6,49.9c5.7,7.7,13.2,14.2,20.4,20.4l0.8,0.7c15.5,13.4,30.3,26.9,39.7,44.1c6,11,9.6,23.2,13.1,35
			c2.6,8.8,5.3,17.9,9,26.5c15.9,37,52.3,65.5,94.9,74.4c7.7,1.6,15.1,2.4,22.2,2.4C1345.8,229.6,1346,229.6,1346.1,229.6z"/>
	</g>
</g>
<path class="st3" d="M1276.9,32.8c1,5.8,3.5,11.8,2.3,17.6c-0.1,0.2-0.2,0.4-0.4,0.5c-0.2,0.1-0.4,0.1-0.7,0.1
	c-0.2,0-0.4-0.2-0.6-0.4c-0.1-0.2-0.2-0.4-0.1-0.6c1.1-5.1-0.9-10.5-2-15.5c-1.2-5.5-1.2-11.1-0.1-16.5c1.1-5.6,4.7-10.3,5.4-16
	c0.7-5.4-0.7-11.1-2.7-16.4c-1.1-3-2.3-6-3.7-8.9c-0.6-1.3-1.3-2.5-2.3-3.6c-0.8-0.9-1.6-2-1.6-3.2c0-1,1.8-1,1.8,0
	c-0.1,1,0.9,1.9,1.6,2.7c0.8,1,1.4,2,1.9,3.1c1.3,2.6,2.4,5.3,3.4,8c2,5.3,3.6,10.9,3.4,16.4c-0.1,2.8-0.7,5.5-1.8,8
	c-1.1,2.6-2.4,5.2-3.2,7.9c-0.8,2.7-1.2,5.6-1.3,8.4C1276.2,27.2,1276.4,30,1276.9,32.8z"/>
<path class="st3" d="M1281.3,113.1c-1.4,2.7-2.7,5.3-4.2,7.9c-1.7,2.8-3.1,5.8-4.1,9c-0.1,0.6-1.2,0.9-1.5,0.2
	c-2-4.6-3.5-9.3-4.6-14.1c-1.3-4.8-2.1-9.7-2.4-14.7c-0.3-4.9,0-9.8,0.8-14.7c0.9-5.2,2.4-10.2,4.3-15.1c1.1-2.8,2.2-5.6,3.5-8.4
	c0.6-1.3,1.2-2.6,1.8-3.9c0.5-1.4,1.2-2.7,1.9-4c0.1-0.2,0.3-0.3,0.5-0.3s0.4,0,0.6,0s0.4,0.2,0.5,0.3s0.2,0.4,0.2,0.6
	c-0.5,2.5,0.4,4.7,1.5,6.9c1.1,2.2,1.8,4.5,2.2,6.9c0.4,2.5,0.2,5.1,0.5,7.6c0.3,2.4,1.1,4.8,2.1,7.1c1,2.2,1.7,4.5,2.2,6.8
	c0.4,2.4,0.4,4.9-0.1,7.3C1286,103.8,1283.7,108.5,1281.3,113.1z M1285.7,92.4c-0.4-2.4-1.1-4.8-2.1-7.1c-1-2.2-1.7-4.5-2.2-6.9
	c-0.4-2.4-0.2-5-0.5-7.5c-0.3-2.8-1.1-5.4-2.4-8c-0.7-1.4-1.2-2.9-1.5-4.4c-0.7,1.5-1.3,3-1.9,4.4c-1.1,2.3-2.1,4.7-3.1,7.1
	c-2,4.8-3.6,9.8-4.7,14.8c-1.9,9.6-1.6,19.4,0.7,28.9c0.6,2.6,1.4,5.2,2.1,7.8c0.6,2,1.2,4.1,2,6c1.7-4.5,4.4-8.7,6.5-13
	c2.4-4.7,5-9.5,6.3-14.6C1285.7,97.5,1285.9,95,1285.7,92.4L1285.7,92.4L1285.7,92.4z"/>
<path class="st3" d="M1271.3,32c-1.2,2.7-2.3,5.5-3.5,8.2c-2.6,6.1-6.3,11.7-10.9,16.5c-2.1,2.2-4.6,4-7.3,5.4
	c-3,1.3-6.1,2.3-9.3,2.9c-6.5,1.6-12.7,4.1-19.3,5.5c-3.6,0.9-7.4,1.2-11.1,1c-1.9-0.2-3.8-0.5-5.7-0.9c-1.5-0.2-3-0.7-4.3-1.5
	c-0.4-0.3-0.7-0.9-0.2-1.2c1-0.8,2.2-1.6,3.3-2.3c1.3-0.9,2.6-2,3.7-3.1c2.1-2,4.2-4.1,6.3-6c4.1-3.7,8-7.6,12.3-11.1
	c4.4-3.6,9.2-6.6,14.5-8.7c2.7-1,5.4-1.8,8.2-2.3c2.9-0.6,5.7-1.5,8.4-2.6c3.2-1.3,6.4-2.3,9.6-3.5c1.4-0.5,2.6-1.3,3.5-2.4
	c0.6-0.9,1.4-1.6,2.4-2.1c0.1-0.1,0.2-0.2,0.4-0.2c0.2,0,0.3,0,0.5,0c0.2,0,0.3,0.1,0.4,0.3c0.1,0.1,0.2,0.3,0.2,0.4
	C1273.5,27,1272.4,29.6,1271.3,32z M1270.3,27.5c-0.8,0.9-1.7,1.5-2.8,2c-2.6,1.2-5.5,2-8.3,3c-2.8,1.2-5.6,2.2-8.4,3
	c-2.8,0.7-5.6,1.1-8.4,2c-10.8,3.5-19.1,11.4-27.2,18.9c-2.4,2.2-4.7,4.5-7.1,6.7c-1.1,1.1-2.2,2.1-3.4,3.1
	c-1.1,0.8-2.2,1.5-3.2,2.2c0.9,0.3,1.8,0.6,2.7,0.7c1.5,0.3,3,0.6,4.5,0.8c3.3,0.4,6.7,0.2,10-0.5c6.2-1.2,12.2-3.5,18.3-5.1
	c3.1-0.8,6.2-1.4,9.2-2.5c2.9-1,5.5-2.6,7.8-4.6c4.6-4.3,8.4-9.4,11.1-15.1c1.5-3,2.6-6.1,4-9.2c1.2-2.2,2-4.6,2.5-7.1
	C1271.2,26.3,1270.8,26.9,1270.3,27.5z"/>
<path class="st3" d="M1327.6,95.6c-2.7-0.6-4.8-2.6-7.1-4c-2.6-1.6-5.1-3.3-7.4-5.2c-4.5-3.6-8.6-7.7-12.2-12.2
	c-3.7-4.5-6.6-9.6-8.6-15.1c-1-2.8-1.8-5.6-2.5-8.5c-0.7-2.7-1.7-5.3-3.2-7.8c-1.4-2.5-3-4.8-4.3-7.4c-1.2-2.3-2.4-4.9-2.4-7.6
	c0-0.2,0.1-0.4,0.2-0.5c0.1-0.1,0.3-0.2,0.5-0.3c0.1-0.1,0.2-0.2,0.3-0.3c0.1-0.1,0.2-0.1,0.4-0.1s0.3,0,0.4,0.1
	c0.1,0,0.2,0.1,0.3,0.2c1.5,2,4.2,2.7,6.1,4.3c0.9,0.9,1.9,1.8,3,2.6c1.4,0.9,2.9,1.5,4.3,2.3c4.7,2.6,8.7,6.2,11.8,10.6
	c3.2,4.4,5.5,9.3,6.9,14.6c1.5,5.6,2.2,11.4,4.2,16.9c1.2,3.1,2.7,6.1,4.6,8.8c0.9,1.3,1.9,2.6,3,3.8c1,1,1.9,2.2,2.7,3.4
	c0.1,0.1,0.2,0.3,0.2,0.5c0,0.2,0,0.4-0.1,0.5c-0.1,0.2-0.2,0.3-0.4,0.3C1328,95.6,1327.8,95.6,1327.6,95.6z M1322.1,89
	c-1.7-2.3-3.2-4.8-4.4-7.4c-2.4-5.3-3.2-11.1-4.6-16.8c-1.2-5.5-3.3-10.7-6.3-15.4c-2.9-4.6-6.9-8.4-11.5-11.2
	c-1.6-0.9-3.3-1.6-4.9-2.5c-1.2-0.8-2.3-1.7-3.3-2.7c-1.7-1.6-4-2.3-5.7-3.8c0.4,2,1.1,3.8,2.1,5.5c1.1,2.2,2.4,4.2,3.6,6.3
	c1.4,2.2,2.6,4.5,3.4,7c0.8,2.7,1.4,5.5,2.2,8.1c1.7,5.4,4.2,10.4,7.6,15c3.4,4.5,7.2,8.6,11.4,12.2c2.5,2.2,5.2,4.3,8.1,6.1
	c1.3,0.8,2.5,1.6,3.8,2.5c0.5,0.3,1,0.7,1.5,1l-0.6-0.7C1323.8,91.1,1322.9,90,1322.1,89L1322.1,89L1322.1,89z"/>
<path class="st3" d="M1343.5,53.4c-1.4,0.1-2.7-0.2-3.9-0.7l-4.5-1.6c-3.3-1.2-6.5-2.6-9.5-4.4c-5.5-3.3-10.4-7.4-14.6-12.2
	c-4.4-5.1-7.8-11-12.4-15.9c-2.1-2.3-4.6-4.3-6.6-6.7c-1.9-2.2-3.4-4.6-4.6-7.2c-1.2-2.6-2-5.3-2.5-8.1c-0.4-2-0.8-5.1,1-6.5
	c0-0.1,0.1-0.2,0.2-0.3s0.2-0.2,0.3-0.2c0.1,0,0.3-0.1,0.4,0s0.2,0.1,0.3,0.2c2.1,2.4,4.4,4.5,6.9,6.2c2.6,1.4,5.2,2.5,7.9,3.6
	c5.1,2.2,9.7,5.2,13.6,9.1c8.1,8.2,11.8,19.6,17.5,29.4c1.7,2.9,3.6,5.6,5.7,8.2c0.9,1.1,1.9,2.2,2.9,3.1c1,0.8,1.8,1.8,2.4,2.9
	c0.1,0.1,0.1,0.3,0.2,0.4c0,0.1,0,0.3-0.1,0.4c-0.1,0.1-0.2,0.2-0.3,0.3C1343.8,53.3,1343.6,53.4,1343.5,53.4z M1338.1,47.9
	c-1.9-2.3-3.6-4.8-5.2-7.3c-3-4.8-5.4-10-7.9-15c-2.6-5.1-5.4-10.3-9.3-14.6c-3.7-4-8.2-7.3-13.2-9.5c-2.9-1.4-6.1-2.4-8.9-4
	c-2.6-1.7-4.9-3.7-7-6c-1.2,1.2-0.4,4.2-0.1,5.5c0.5,2.3,1.2,4.7,2.2,6.9c1.2,2.6,2.7,4.9,4.6,7.1c1.9,2.2,4.2,4.1,6.2,6.2
	c4.3,4.5,7.5,9.8,11.4,14.6c3.8,4.8,8.4,8.9,13.5,12.3c3,2,6.2,3.6,9.6,4.9c1.7,0.7,3.4,1.2,5.1,1.9c0.9,0.4,1.9,0.7,2.9,1
	C1340.8,50.4,1339.2,49.3,1338.1,47.9z"/>
<path class="st3" d="M1279-9c-1.4,3.6-3.1,7.1-5.1,10.4c-1.6,3-3.4,5.8-5.5,8.5c-4,4.9-9.1,8.9-14.8,11.6c-6.6,3-13.6,4.5-20.5,6.2
	c-7.4,2-14.7,4.5-21.8,7.5c-3,1.5-6.3,2.4-9.6,2.8c-1.4,0.1-4.7,0.5-5.3-1.4s2.7-3.4,4-4.2c2.8-1.8,5.2-4,7.4-6.6
	c4.6-5.1,8.4-11.1,13.9-15.3c2.7-2,5.8-3.3,9.1-3.8c3.7-0.6,7.5-0.5,11.3-1.2c3.2-0.4,6.2-1.9,8.4-4.1c2.3-2.5,4-5.7,6.7-7.8
	c2.4-2,5.3-2.2,8.3-1.8c1.5,0.2,3.1,0.3,4.6,0.4c1.6,0,3.4,0,4.8-1c1-0.7,1.8-1.6,3.1-1.5c0.2,0,0.3,0.1,0.4,0.1
	c0.1,0.1,0.2,0.2,0.3,0.3c0.1,0.1,0.2,0.2,0.3,0.3C1279.1-9.3,1279.1-9.1,1279-9z M1275-7c-1.4,0.6-2.8,0.8-4.3,0.8
	c-2.8,0.1-5.7-0.7-8.5-0.5c-3.4,0.3-5.6,3-7.5,5.5c-1.9,2.5-3.7,5.1-6.6,6.6c-6,3.2-13,1.8-19.3,3.4c-6.3,1.6-10.9,7.3-14.9,12.1
	c-4,4.9-7.8,9.9-13.1,13.1c-0.9,0.6-1.8,1.2-2.7,1.9c0,0,0,0.1,0,0.1l0.3,0.1c0.5,0.1,1.1,0.2,1.7,0.2c2.7,0,5.3-0.5,7.8-1.5
	c6.8-2.6,13.4-5.5,20.4-7.6c6.6-1.9,13.4-3,19.9-5.3c6.1-2,11.6-5.4,16.2-9.9c4.7-4.7,7.9-10.5,10.9-16.4c0.5-0.9,0.9-1.8,1.3-2.8
	c-0.1-0.1-0.2-0.3-0.2-0.4c0-0.2,0-0.3,0.1-0.5c0-0.1,0.1-0.2,0.2-0.3C1276.1-7.8,1275.5-7.4,1275-7z"/>
<path class="st3" d="M30.9,28.1c7.7,5.9,16.9,10.3,22.4,18.5c0.2,0.3,0.2,0.6,0.2,1c-0.1,0.3-0.3,0.6-0.6,0.8
	c-0.3,0.2-0.6,0.2-1,0.2c-0.3-0.1-0.6-0.3-0.8-0.6c-4.8-7.2-12.9-11.5-19.8-16.4c-7.5-5.4-13.9-12-19.1-19.6
	C6.8,4.2,4.9-5.3-0.9-12.8c-5.6-7.2-13.5-12.5-21.4-16.8c-4.5-2.5-9.1-4.7-13.8-6.7c-2-0.9-4.2-1.6-6.4-2c-1.8-0.3-3.9-0.7-5.2-2.1
	c-1.1-1.2,0.6-3.1,1.7-1.9c1.1,1.2,3.1,1.3,4.6,1.5c1.9,0.4,3.7,1,5.5,1.7c4.3,1.8,8.4,3.8,12.5,5.9c8.1,4.2,16,9.1,22.1,15.9
	c3,3.4,5.6,7.3,7.5,11.4c2,4.3,3.6,8.7,5.9,12.9c2.4,4.1,5.2,8,8.4,11.4C23.7,22.2,27.1,25.3,30.9,28.1z"/>
<path class="st3" d="M100.5,90.7c1,3.1,2.1,6.1,3,9.2c0.9,3.4,2.2,6.7,3.8,9.9c0.3,0.6-0.2,1.6-0.9,1.3c-5-1.9-9.8-4.3-14.3-7.1
	c-4.7-2.6-9.1-5.7-13.1-9.2c-4-3.5-7.6-7.4-10.7-11.6c-3.3-4.6-6.1-9.5-8.4-14.7c-1.4-2.9-2.6-5.9-3.8-9c-0.5-1.4-1-2.9-1.6-4.3
	c-0.7-1.5-1.2-3-1.7-4.5c0-0.2,0-0.5,0.1-0.6c0.1-0.2,0.3-0.3,0.5-0.5c0.2-0.1,0.4-0.1,0.6-0.1s0.4,0.1,0.6,0.3
	c1.5,2.2,3.9,3.2,6.4,4c2.5,0.8,4.8,2,6.9,3.5c2.2,1.6,4.1,3.7,6.2,5.4c2.2,1.6,4.5,2.8,7,3.7c2.4,0.9,4.7,2,6.9,3.4
	c2.2,1.5,4,3.4,5.5,5.6C96.8,80.1,98.7,85.5,100.5,90.7z M87.8,71.8c-2.2-1.5-4.6-2.8-7-3.7c-2.4-0.9-4.8-2.1-6.9-3.5
	c-2.2-1.5-4-3.6-6.1-5.2c-2.4-1.8-5-3.2-7.9-4.2c-1.6-0.5-3.1-1.3-4.5-2.2c0.6,1.6,1.3,3.2,1.9,4.8c1,2.6,2,5.2,3.1,7.7
	c2.2,5.1,4.8,10.1,7.9,14.7C74.2,88.9,82,96.1,91,101.4c2.4,1.5,5.1,2.8,7.6,4.2c2,1.1,4,2.1,6.1,3c-2.2-4.7-3.4-9.9-5.1-14.8
	c-1.8-5.4-3.5-10.9-6.5-15.9C91.8,75.7,90,73.6,87.8,71.8L87.8,71.8L87.8,71.8z"/>
<path class="st3" d="M30.6,37.5c1.2,3,2.5,5.9,3.7,8.9c2.7,6.6,4.2,13.7,4.5,20.8c0.1,3.3-0.4,6.5-1.3,9.6c-1.2,3.3-2.8,6.4-4.7,9.4
	c-3.6,6.2-6.5,12.8-10.3,19c-2,3.5-4.6,6.6-7.6,9.3c-1.6,1.3-3.2,2.5-5,3.7c-1.3,1-2.8,1.8-4.3,2.2c-0.5,0.1-1.2-0.2-1.1-0.7
	c0.1-1.4,0.4-2.8,0.7-4.3c0.3-1.7,0.4-3.4,0.4-5.2c0.1-3.1,0-6.3,0.1-9.4C5.8,94.9,5.8,88.9,6.4,83c0.5-6.1,1.9-12,4.2-17.7
	c1.2-2.8,2.7-5.5,4.4-8c1.7-2.7,3.1-5.5,4.3-8.4c1.4-3.4,3-6.7,4.5-10c0.7-1.4,1-3,0.8-4.5c-0.3-1.1-0.2-2.3,0.1-3.4
	c0-0.2,0-0.4,0.1-0.5s0.2-0.3,0.4-0.4c0.1-0.1,0.3-0.1,0.5-0.1c0.2,0,0.3,0.1,0.5,0.2C28.4,32,29.5,34.9,30.6,37.5z M26.4,34.8
	c0.1,1.2-0.1,2.5-0.6,3.6c-1,2.9-2.6,5.7-3.9,8.6c-1.2,3-2.5,5.9-4,8.8c-1.5,2.7-3.4,5.2-4.7,8C7.7,74.8,7.6,87,7.3,98.9
	c-0.1,3.5-0.1,7-0.1,10.5c0,1.6,0,3.3-0.2,4.9c-0.2,1.4-0.5,2.8-0.7,4.2c0.9-0.4,1.7-0.9,2.5-1.5c1.4-0.9,2.7-1.8,4-2.9
	c2.8-2.3,5.2-5,7.1-8.1c3.8-5.7,6.5-12,9.8-17.9c1.6-3,3.6-5.8,5-8.9c1.4-3,2.2-6.2,2.3-9.5c0.2-6.8-1-13.5-3.3-19.8
	c-1.2-3.4-2.8-6.6-4-9.9c-0.8-2.6-2-5-3.6-7.2C26.1,33.3,26.3,34.1,26.4,34.8z"/>
<path class="st3" d="M121.8,41.9c-2.5,1.6-5.6,1.8-8.4,2.4c-3.2,0.8-6.4,1.4-9.6,1.8c-6.2,0.8-12.4,0.8-18.6,0.2
	c-6.2-0.5-12.3-2.1-18.1-4.7c-2.9-1.4-5.7-2.9-8.4-4.5c-2.6-1.5-5.4-2.7-8.3-3.4c-3-0.7-6-1.3-8.9-2.2c-2.6-0.8-5.6-1.8-7.6-3.9
	c-0.1-0.1-0.2-0.3-0.2-0.5c0-0.2,0-0.4,0.1-0.5c0-0.1,0-0.3,0-0.4s0.1-0.3,0.2-0.4s0.2-0.2,0.3-0.2c0.1,0,0.3-0.1,0.4,0
	c2.7,0.4,5.2-1.2,7.9-1.5c1.4,0,2.8-0.1,4.2-0.4c1.7-0.4,3.3-1.1,5-1.6c5.5-1.6,11.3-2,17-1.1c5.8,0.9,11.3,2.8,16.4,5.7
	c5.4,3,10.4,6.9,16.1,9.5c3.3,1.5,6.7,2.5,10.2,3c1.7,0.3,3.5,0.5,5.2,0.6c1.6,0,3.1,0.1,4.6,0.5c0.2,0,0.4,0.1,0.5,0.2
	c0.1,0.1,0.3,0.3,0.3,0.5c0,0.2,0,0.4-0.1,0.6C122.1,41.7,121.9,41.8,121.8,41.9z M112.6,41.2c-3.1-0.5-6.1-1.2-9-2.2
	c-5.9-2.1-11-5.9-16.3-9.1c-5.1-3.2-10.7-5.5-16.5-6.7c-5.7-1.2-11.7-1-17.3,0.4c-1.9,0.5-3.7,1.3-5.6,1.8c-1.5,0.3-3,0.5-4.5,0.5
	c-2.5,0.1-4.8,1.3-7.2,1.5c1.8,1.2,3.7,2,5.8,2.6c2.5,0.8,5,1.3,7.5,1.9c2.7,0.5,5.4,1.4,8,2.6c2.7,1.4,5.2,3,7.9,4.4
	c5.4,2.8,11.2,4.6,17.2,5.4c6,0.8,12,0.9,18,0.4c3.6-0.3,7.2-0.8,10.8-1.6c1.6-0.3,3.1-0.7,4.7-1c0.6-0.1,1.3-0.2,1.9-0.4l-1,0
	C115.5,41.6,114,41.4,112.6,41.2L112.6,41.2L112.6,41.2z"/>
<path class="st3" d="M101.2-2c-1,1.1-2.2,2-3.5,2.5l-4.6,2.2c-3.4,1.7-6.9,3-10.6,4c-6.6,1.7-13.5,2.4-20.4,2
	c-7.2-0.4-14.3-2.2-21.5-2.4c-3.4-0.1-6.7,0.3-10.1,0c-3.1-0.2-6.1-0.8-9-1.8c-2.9-1-5.6-2.5-8.1-4.2c-1.8-1.2-4.5-3.2-4.2-5.7
	C9.1-5.3,9-5.5,9-5.6C9-5.8,9-5.9,9.1-6s0.2-0.2,0.3-0.3c0.1-0.1,0.3-0.1,0.4-0.1c3.4,0.2,6.7,0,10-0.7c3-1,5.9-2.1,8.7-3.4
	c5.5-2.3,11.3-3.5,17.2-3.7c12.4,0,23.9,5.7,35.7,8.6c3.5,0.9,7,1.5,10.6,1.8c1.5,0.2,3.1,0.2,4.6,0.1c1.3-0.1,2.7,0,4,0.3
	c0.2,0,0.3,0.1,0.4,0.2c0.1,0.1,0.2,0.2,0.3,0.4s0.1,0.3,0,0.5C101.4-2.2,101.3-2.1,101.2-2z M93-1.9c-3.2-0.3-6.4-0.8-9.5-1.5
	c-5.9-1.3-11.7-3.4-17.5-5.2c-5.8-1.8-12-3.6-18.2-3.9c-5.9-0.2-11.8,0.9-17.2,3c-3.3,1.2-6.4,2.9-9.7,3.8c-3.2,0.7-6.6,1-9.9,0.8
	C11-3,13.8-1.4,15.1-0.6C17.2,0.8,19.5,2,22,2.9c2.9,1,5.8,1.6,8.9,1.8c3.1,0.2,6.3-0.1,9.4-0.1C46.9,4.7,53.4,6.3,60,6.9
	c6.5,0.6,13.2,0.2,19.6-1.2c3.8-0.8,7.5-2,11-3.6c1.8-0.8,3.5-1.7,5.3-2.5c1-0.4,2-0.9,2.9-1.5C96.9-2.2,94.9-1.8,93-1.9z"/>
<path class="st3" d="M4.8,0.7C6.6,4.5,7.9,8.5,9,12.5c1.1,3.5,1.9,7,2.4,10.6c0.8,6.8,0.1,13.7-2.2,20.1C6.6,50.5,2.4,57-1.5,63.6
	C-5.6,70.8-9.1,78.3-12.1,86c-1.1,3.4-2.8,6.7-5.1,9.5c-1,1.2-3.2,4-5,3s-0.6-4.7-0.2-6.2c0.7-3.5,0.8-7.1,0.5-10.6
	c-0.5-7.4-2.2-14.8-1.3-22.2c0.5-3.5,1.8-6.9,3.9-9.8c2.4-3.3,5.3-6.1,7.6-9.5c2.1-2.8,3.2-6.2,3.1-9.6c-0.2-3.7-1.4-7.3-1-11
	c0.3-3.4,2.3-5.7,4.8-7.8c1.3-1,2.6-2.1,3.8-3.3c1.2-1.2,2.6-2.7,2.8-4.4C2,2.8,2,1.5,3.1,0.6c0.1-0.1,0.3-0.2,0.5-0.2
	c0.2,0,0.3,0,0.5,0c0.2,0,0.3,0,0.5,0C4.7,0.5,4.8,0.6,4.8,0.7z M3.3,5.3C2.7,6.8,1.8,8.2,0.7,9.3c-2.1,2.3-4.8,3.8-6.8,6.1
	c-2.4,2.8-1.9,6.5-1.4,9.9c0.5,3.4,1.1,6.7,0.1,10c-2.1,7-8.3,11.4-11.9,17.4c-3.5,6.1-2.6,13.8-1.8,20.6c0.8,6.7,1.8,13.4,0.2,20
	c-0.2,1.2-0.4,2.3-0.5,3.5c0,0,0,0.1,0.1,0.1l0.3-0.2c0.5-0.3,1-0.7,1.4-1.1c2-2.1,3.6-4.5,4.7-7.2c3.1-7.2,5.8-14.5,9.5-21.4
	C-2,60.6,2.3,54.5,5.4,47.8c3-6.2,4.6-13,4.6-19.8C9.9,20.9,7.8,14,5.6,7.3C5.2,6.2,4.8,5.2,4.5,4.2C4.3,4.2,4.1,4.2,4,4.1
	C3.9,3.9,3.8,3.8,3.7,3.6C3.6,3.5,3.6,3.4,3.6,3.3C3.6,4,3.5,4.7,3.3,5.3z"/>
<path class="st4" d="M-453.6,397.5c0,3.7-1.2,7.5-2.5,10.9c-1.4,3.7-3.2,7.2-5.5,10.4c-4.5,6.4-10.4,11.6-14.7,18.1
	c-4.2,6.3-5.9,14-9.9,20.4c-1.9,3-4.3,5.8-6.5,8.6c-2.2,2.7-4.1,5.7-5.7,8.9c-0.8,1.6-1.4,3.3-1.8,5c-0.5,2-0.7,4.1-0.8,6.2
	c-0.1,2.1-0.1,4.3-0.3,6.4c-0.1,1.2-0.1,2.5-0.3,3.8c-0.4,0.3-0.9,0.5-1.2,0.7c0-0.1,0-0.3,0-0.4c0.1-0.8,0.1-1.6,0.2-2.4
	c0.1-1.9,0.3-3.8,0.3-5.7c0.1-4,0.4-8,1.8-11.7c2.5-6.6,7.4-11.9,11.6-17.5c2.1-3,3.9-6.3,5.3-9.7c1.5-3.5,2.8-7,4.6-10.3
	c3.8-6.8,9.6-12.1,14.4-18.2c2.5-3.1,4.6-6.4,6.3-10c0.8-1.7,1.4-3.5,2-5.3c0.6-1.8,1.1-3.7,1.4-5.5c0.1-0.9,0.2-1.8,0.2-2.7
	C-454.7,396.7-453.6,396.8-453.6,397.5z"/>
<path class="st4" d="M-484,455.5c0.1,0,0.1,0,0.2,0c1.2-0.2,2.4-0.5,3.4-1.1c1-0.6,1.9-1.5,2.9-2.2c1.1-0.8,2.4-1.3,3.7-1.4
	c1.4,0,2.8,0.4,4.2,0.6c2.3,0.3,4.6,0.2,6.6-1.1c1.5-0.9,2.7-2.2,3.9-3.4c1.2-1.2,2.5-2.3,4.1-2.8c2.2-0.6,4.6,0,6.8,0.8
	c2.1,0.7,4.2,1.6,6.5,1.3c2-0.3,3.7-1.6,5.2-2.9c1.6-1.5,3.2-3,5.3-3.9c2.4-1.1,5.2-1.1,7.8-1.1c0.1,0,0.1,0,0.2,0
	c0.1,0,0.1-0.1,0.1-0.2c0-0.1,0-0.1,0-0.2c0-0.1,0-0.1-0.1-0.2c-1-1-2.1-1.8-3.2-2.6c-1.1-0.8-2-1.8-3-2.7c-1.8-1.6-4.1-3.3-6.7-3.1
	c-1.1,0.1-2.2,0.4-3.2,0.9c-1.1,0.5-2.2,0.9-3.4,1.3c-1.2,0.4-2.4,0.7-3.7,1c-1.3,0.2-2.6,0.3-4,0.2c-2.7-0.1-5.5-0.5-8.2-0.5
	c-2.1-0.1-4.2,0.5-6,1.5c-1.9,1.2-3.7,2.7-5.3,4.4c-1.8,1.8-3.4,3.6-5,5.5c-1.6,1.9-3.1,3.9-4.7,5.8c-0.8,1-1.7,2.1-2.5,3.1
	c-0.4,0.5-0.8,0.9-1.1,1.4c-0.3,0.4-0.6,0.8-1.1,1C-484.7,454.9-484.4,455.5-484,455.5z"/>
<path class="st4" d="M-453.6,394.7c1.1-2.6,1.5-5.5,1.1-8.4c-0.2-1.3-0.5-2.5-0.9-3.7c-0.5-1.2-1.1-2.5-1.7-3.6
	c-0.7-1.2-1.3-2.5-1.9-3.8c-0.4-1.2-0.8-2.3-1.2-3.5c-0.4-1.1-1.1-2.1-1.9-2.9c-0.6-0.6-1.3-1-2.1-1.5c-0.8-0.5-1.7-0.9-2.6-1.3
	c-0.7-0.3-1.5-0.4-2.2-0.2c-0.1,0-0.1,0.1-0.2,0.2s0,0.2,0,0.2c0.2,1,1,1.8,1.6,2.5c0.8,0.9,1.5,2,2,3.1c0.9,2.2,0.8,4.6,1.2,6.9
	c0.4,2,1.3,3.8,2.7,5.3c0.7,0.8,1.4,1.7,2,2.5c0.6,0.9,1.1,1.9,1.6,2.9c0.4,0.8,0.8,1.5,1.1,2.3c0.4,0.8,0.6,1.6,0.6,2.5
	c0,0,0,0.1,0,0.2c0,0,0,0.1,0.1,0.1l0,0c0,0,0.1,0.1,0.1,0.1c0,0,0.1,0,0.2,0c0.1,0,0.1,0,0.2-0.1
	C-453.7,394.8-453.6,394.8-453.6,394.7C-453.6,394.7-453.6,394.7-453.6,394.7z"/>
<path class="st4" d="M-422.3,407.4c-0.6-0.5-1.4-0.9-2.2-1.1c-0.9-0.3-1.8-0.5-2.7-0.7c-2-0.4-4-0.5-5.9-0.3c-3.2,0.3-6.3,1.4-9,3.1
	c-1.5,0.9-2.8,2.1-4.3,3.1c-1.5,1-3.1,1.9-4.8,2.5c-1.6,0.6-3.1,1.3-4.5,2.1c-1.4,0.8-2.6,1.8-3.8,3c-1.2,1.2-2.3,2.5-3.2,3.9
	c-0.5,0.8-1,1.5-1.6,2.3c-0.4,0.7-1,1.3-1.6,1.8c-0.1,0-0.1,0.1-0.1,0.2c0,0.1,0,0.2,0,0.2c-0.1,0.2,0.1,0.6,0.4,0.5
	c0.9-0.2,1.6-0.8,2.4-1.1c0.8-0.3,1.8-0.6,2.7-1c1.8-0.7,3.6-1.6,5.3-2.6c1.4-0.9,3-1.6,4.6-2c1.6-0.4,3.3-0.5,4.9-0.5
	c3-0.1,6.1,0.3,8.6-1.7s3.9-5.1,6.4-7.1c1.3-1,2.7-1.7,4.2-2.3c1.3-0.5,2.8-0.7,4-1.5C-422.2,407.9-422,407.6-422.3,407.4z"/>
<path class="st4" d="M-425.5,356.2c0.8-2.4,1.2-4.9,1.1-7.5c-0.1-1.9-0.2-4-1.4-5.6c-0.2-0.2-0.5-0.1-0.6,0.1
	c-0.6,1.3-1.1,2.6-1.7,3.9s-1.2,2.6-1.9,3.8c-1.4,2.5-3,4.9-4.6,7.3c-1.3,1.9-2.6,3.8-4.1,5.6c-1.4,1.7-2.8,3.4-4.2,5.1
	c-2.7,3.4-5.3,6.9-6.8,11c-0.8,2.3-1.1,4.7-1,7.2c0.1,2.6,0.3,5.2-0.3,7.8c-0.3,1.2-0.7,2.5-1.1,3.7c-0.4,1.1-0.9,2.2-1.4,3.2
	c-1.1,1.9-2.5,3.6-3,5.8c-0.1,0.5,0.6,0.7,0.7,0.2c0,0,0,0,0-0.1c0,0,0.1,0,0.1-0.1s0.1-0.1,0.1-0.1c0.8-2.4,3-4.2,4.9-5.8
	c1.9-1.6,3.8-2.8,5.7-4.3c1.6-1.2,3-2.8,4-4.6c1.2-2.3,1.9-4.8,2.7-7.2c0.8-2.5,1.6-5.1,2.6-7.6c1-2.5,2.3-5,3.5-7.4
	C-429.9,366-427.2,361.3-425.5,356.2z"/>
<path class="st4" d="M-466.7,416.5c0,0.7-0.1,1.3-0.1,2c0,0.6-0.1,1.2-0.2,1.7l-0.1,0c-0.1,0-0.1,0.1-0.2,0.2s0,0.2,0,0.3
	c0,0.1,0.1,0.1,0.2,0.2c0.1,0,0.2,0,0.3,0c1.1-0.5,1.7-1.8,2.2-2.8c0.6-1.2,1-2.4,1.1-3.7c0.1-1.5,0.1-3,0-4.4
	c0-1.4-0.2-2.8-0.5-4.1c-0.3-1-0.7-2.1-1.6-2.6c0,0-0.1,0-0.2,0c-0.1,0-0.1,0-0.2,0c-0.1,0-0.1,0.1-0.1,0.1c0,0-0.1,0.1-0.1,0.2
	c0,0.8,0,1.5,0,2.3c-0.1,0.8-0.2,1.5-0.5,2.3c-0.4,1.4-0.7,2.9-0.7,4.3C-467.1,413.8-466.7,415.1-466.7,416.5z"/>
<path class="st4" d="M-483.5,423.7c0,1.6-0.1,3.1-0.5,4.7c-0.4,1.5-0.5,3-0.5,4.6c0,1.5,0.4,3,1,4.4c0.4,0.7,0.7,1.5,1,2.2
	c0.1,0.4,0.2,0.8,0.3,1.1c0,0.4,0.1,0.7,0.1,1.1c0,0.1,0,0.1,0.1,0.2c0,0,0.1,0.1,0.1,0.1c0.2,0.4,0.9,0.3,0.7-0.2
	c-0.1-0.4-0.3-0.8-0.4-1.2c0-1.7,0.3-3.4,1-4.9c0.7-1.9,1.6-3.7,2.3-5.6c0.7-1.8,1.4-3.6,1.9-5.4c0.4-1.7,0.7-3.4,0.9-5.1
	c0.3-3.2,0.3-6.6-0.9-9.7c-1.2-3-3.7-5.5-6-7.7c-1.3-1.2-2.5-2.5-3.6-3.8c-0.8-0.9-1.4-2.4-2.6-2.9c-0.1,0-0.1,0-0.2,0
	c-0.1,0-0.1,0-0.2,0.1c0,0-0.1,0.1-0.1,0.2s0,0.1,0,0.2c0.1,0.8,0.4,1.5,0.7,2.3c0.3,0.8,0.4,1.7,0.3,2.6c-0.1,0.9-0.4,1.9-0.6,2.8
	c-0.2,0.9-0.3,1.8-0.4,2.6c-0.1,1.6,0.1,3.1,0.7,4.6c0.6,1.4,1.5,2.7,2.2,4.1C-484.5,417.6-483.6,420.6-483.5,423.7z"/>
<path class="st4" d="M-501,413.6c0.2,0.9,0.3,1.9,0.4,2.8c0.2,2.1,0.3,4.2,0.2,6.4c-0.2,3.7-0.7,7.3-0.9,11
	c-0.2,3.6,0.1,7.1,0.9,10.6c0.4,1.6,0.8,3.2,1.4,4.8c0.6,1.6,1.3,3.2,2,4.8c0.7,1.6,1.2,3.4,1.5,5.1c0.3,1.8,0.3,3.5,0.6,5.3
	c0,0.1,0,0.2,0,0.2c0,0.1,0.1,0.1,0.2,0.2c0.1,0,0.2,0,0.2,0c0.1,0,0.1-0.1,0.2-0.1c0.9-1.6,1.7-3.3,2.2-5c0.7-2,1.2-4.1,1.7-6.3
	c0.8-3.6,1.1-7.3,1-11c-0.1-1.7-0.4-3.4-0.8-5c-0.5-1.7-1.1-3.5-1.8-5.1c-1.5-3.7-2.8-7.5-4-11.2c-1.1-3.6-2.6-7-4.5-10.2
	c0-0.1-0.1-0.1-0.2-0.2s-0.2,0-0.2,0c-0.1,0-0.1,0.1-0.2,0.1c0,0.1-0.1,0.1-0.1,0.2C-501.2,411.8-501.2,412.7-501,413.6z"/>
</svg>
