<?xml version="1.0" encoding="utf-8"?>
<!-- Generator: Adobe Illustrator 26.0.3, SVG Export Plug-In . SVG Version: 6.00 Build 0)  -->
<svg version="1.1" id="Layer_1" xmlns="http://www.w3.org/2000/svg" xmlns:xlink="http://www.w3.org/1999/xlink" x="0px" y="0px"
	 viewBox="0 0 500 500" style="enable-background:new 0 0 500 500;" xml:space="preserve">
<style type="text/css">
	.st0{fill:#E5E4DC;}
	.st1{fill:#445656;}
	.st2{fill:#9DBF9E;}
	.st3{fill:#CDA9A0;}
	.st4{fill:#312517;}
	.st5{fill:#CDA9A0;stroke:#604642;stroke-width:0.25;stroke-miterlimit:10;}
	.st6{fill:#5B2D22;}
	.st7{opacity:0.5;}
	.st8{fill:#604642;}
	.st9{fill:#842D23;}
	.st10{fill:#C48F5A;}
	.st11{fill:#BF7D47;}
	.st12{fill:#D4B78B;stroke:#FFFFFF;stroke-width:0.5;stroke-miterlimit:10;}
	.st13{fill:#D4B78B;stroke:#FFFFFF;stroke-width:0.25;stroke-miterlimit:10;}
	.st14{fill:#666256;}
	.st15{fill:#FFFFFF;}
	.st16{fill:#43211F;}
	.st17{fill:#232222;}
	.st18{fill:#E5E5E5;}
</style>
<rect class="st0" width="500" height="500"/>
<g>
	<path class="st1" d="M133.18,264.71c2.79,4.06,5.35,8.27,8.32,12.2c2.5,3.29,5.49,6.17,8.88,8.53c3.64,2.48,7.46,4.69,11.42,6.62
		c4.29,2.16,8.67,4.12,13.1,5.98c3.94,1.66,8.35,3.5,12.71,3.32c1.23-0.05,1.25,1.86,0,1.92c-4,0.16-8.07-1.29-11.74-2.77
		c-4.44-1.81-8.83-3.75-13.14-5.85c-7.87-3.84-15.87-8.19-21.54-15.06c-3.61-4.35-6.46-9.26-9.65-13.9
		C130.85,264.7,132.49,263.74,133.18,264.71z"/>
	<path class="st1" d="M80.65,208.3c1.28,2.24,3.68,3.69,5.49,5.48c2.07,2.07,3.94,4.33,5.59,6.75c2.83,4.37,5.36,8.93,7.56,13.66
		c2.16,4.35,4.2,8.83,7.19,12.71c1.29,1.71,2.77,3.26,4.41,4.63c1.88,1.4,3.88,2.65,5.97,3.71c2.29,1.31,4.56,2.65,6.89,3.88
		c2.13,0.99,4.05,2.37,5.67,4.07c0.53,0.63,1.42-0.28,0.9-0.9l-0.16-0.17c-1.4-2.01-1.2-4.72-1.64-7.03
		c-0.56-2.79-1.57-5.47-2.99-7.94c-1.36-2.33-2.86-4.58-4.49-6.74c-1.72-2.38-3.38-4.8-5.03-7.23c-2.9-4.27-5.65-8.51-9.58-11.93
		c-3.77-3.28-8.13-5.66-12.4-8.21c-2.37-1.43-4.8-2.71-7.26-4.02c-1.69-0.9-3.7-2.31-5.7-1.68c-0.1,0.02-0.19,0.07-0.26,0.14
		c-0.08,0.07-0.14,0.15-0.18,0.24c-0.04,0.09-0.06,0.19-0.05,0.29C80.57,208.11,80.6,208.21,80.65,208.3z"/>
	<path class="st1" d="M82.56,263.77c0.97,1.01,2.65,1.2,3.94,1.55c1.96,0.61,3.88,1.37,5.72,2.27c3.58,1.59,7.09,3.31,10.74,4.74
		c3.73,1.45,7.59,2.55,11.53,3.27c4.02,0.76,8.08,1.22,12.14,1.76c1.58,0.21,3.19,0.41,4.77,0.7c1.52,0.2,2.99,0.73,4.28,1.55
		c0.07,0.05,0.14,0.09,0.22,0.1c0.08,0.02,0.17,0.01,0.25-0.01c0.08-0.02,0.15-0.06,0.22-0.12c0.06-0.06,0.11-0.12,0.14-0.2
		c0.07-0.04,0.13-0.09,0.18-0.15c0.05-0.06,0.08-0.13,0.1-0.21s0.02-0.16,0.01-0.23s-0.04-0.15-0.08-0.22
		c-0.78-1.46-2.32-2.38-3.71-3.2c-1.68-1-3.3-2.11-5-3.07c-3.47-1.98-7.12-3.6-10.67-5.45c-3.55-1.85-7.01-3.65-10.82-4.59
		c-4-0.99-8.11-0.69-12.16-0.31c-2.04,0.18-4.07,0.41-6.12,0.52c-1.76,0.09-3.72-0.32-5.41,0.23c-0.11,0.03-0.21,0.09-0.28,0.17
		c-0.08,0.08-0.13,0.18-0.16,0.28c-0.03,0.11-0.03,0.22,0,0.33C82.43,263.59,82.48,263.69,82.56,263.77z"/>
	<path class="st1" d="M98.88,293.65c-0.07,0.07-0.12,0.15-0.14,0.24c-0.03,0.09-0.04,0.19-0.02,0.28c0.01,0.09,0.05,0.18,0.1,0.26
		c0.05,0.08,0.13,0.14,0.21,0.19c2.54,1.77,5.92,2.31,8.91,2.9c7.12,1.4,14.45,2.12,21.38-0.64c3.01-1.19,5.85-2.77,8.9-3.85
		c1.58-0.49,3.19-0.91,4.81-1.25c1.59-0.53,3.27-0.78,4.96-0.73c0.81,0.1,0.81-1.15,0-1.25h-0.31l-0.07-0.07
		c-3.44-1.81-7.21-2.96-11.1-3.38c-3.45-0.41-6.94-0.39-10.39,0.06c-3.88,0.51-7.55,1.77-11.3,2.88c-1.76,0.54-3.56,0.97-5.37,1.28
		c-1.2,0.19-2.42,0.28-3.61,0.43C103.49,291.32,100.45,291.7,98.88,293.65z"/>
	<path class="st1" d="M147.37,251.01c1.28-5.48,1.57-11.15,0.88-16.73c-0.58-5.63-1.76-11.18-2.79-16.73
		c-0.88-4.83-1.31-9.92-3.47-14.43c-0.39-0.81-1.12-2.53-2.29-2.26c-0.88,0.19-1.1,1.31-1.25,2.04c-0.38,2.32-0.5,4.67-0.33,7.02
		c0.23,5.17,0.93,10.32,1.22,15.49c0.45,5.68,0.2,11.39-0.74,17.01c-0.53,2.82-1.49,5.55-2.06,8.36c-0.56,2.66-0.74,5.4-0.55,8.12
		c0.16,1.95,0.47,3.92,0.82,5.84c0.27,1.56,0.62,3.61,1.85,4.68c0.06,0.06,0.14,0.1,0.22,0.13s0.17,0.04,0.25,0.03
		c0.09,0.08,0.2,0.14,0.32,0.16c0.12,0.02,0.24,0.01,0.36-0.03c0.11-0.04,0.21-0.12,0.29-0.22c0.07-0.1,0.12-0.22,0.13-0.34
		c0.14-1.15,0.47-2.27,0.97-3.31C143.31,260.93,146.03,256.27,147.37,251.01z"/>
	<path class="st1" d="M162.79,267.83c1.28-5.48,1.57-11.15,0.88-16.73c-0.58-5.63-1.76-11.18-2.79-16.73
		c-0.88-4.83-1.31-9.92-3.47-14.43c-0.39-0.81-1.12-2.53-2.29-2.26c-0.88,0.19-1.1,1.31-1.25,2.04c-0.38,2.32-0.5,4.67-0.33,7.02
		c0.23,5.17,0.93,10.32,1.22,15.49c0.45,5.68,0.2,11.39-0.74,17.01c-0.53,2.82-1.49,5.55-2.06,8.36c-0.56,2.66-0.74,5.4-0.55,8.12
		c0.16,1.95,0.47,3.92,0.82,5.84c0.27,1.56,0.62,3.61,1.85,4.68c0.06,0.06,0.14,0.1,0.22,0.13s0.17,0.04,0.25,0.03
		c0.09,0.08,0.2,0.14,0.32,0.16c0.12,0.02,0.24,0.01,0.36-0.03c0.11-0.04,0.21-0.12,0.29-0.22c0.07-0.1,0.12-0.22,0.13-0.34
		c0.14-1.15,0.47-2.27,0.97-3.31C158.73,277.75,161.45,273.09,162.79,267.83z"/>
	<path class="st1" d="M114.32,315.39c-0.07,0.07-0.12,0.15-0.15,0.24s-0.04,0.19-0.03,0.28c0.01,0.1,0.05,0.19,0.1,0.27
		c0.05,0.08,0.13,0.15,0.21,0.2c0.83,0.54,1.76,0.92,2.74,1.11c1.07,0.27,2.1,0.59,3.14,0.95c2.11,0.81,4.36,1.21,6.62,1.19
		c3.69-0.18,6.81-2.04,9.88-3.91c3.46-2.1,7.19-3.71,10.64-5.8c3.46-2.09,6.21-5.27,9.75-7.35c1.45-0.76,2.98-1.36,4.56-1.8
		c1.47-0.36,2.83-1.1,3.92-2.14c0.07-0.08,0.12-0.18,0.14-0.29c0.02-0.11,0.01-0.22-0.02-0.32c0.04-0.16,0.02-0.33-0.05-0.47
		c-0.07-0.15-0.2-0.26-0.35-0.33c-3.65-1.46-7.64-1.34-11.43-0.71c-3.54,0.64-7.01,1.6-10.37,2.87c-3.43,1.23-6.86,2.55-10.2,4
		c-3.53,1.48-6.86,3.38-9.91,5.67c-1.61,1.23-3.09,2.66-4.71,3.87c-0.76,0.58-1.59,1.06-2.48,1.41
		C115.59,314.55,114.92,314.91,114.32,315.39z"/>
	<path class="st2" d="M163.33,202.42c-2.42-6.74-6.43-13.21-6.55-20.57c0-0.25,0.1-0.5,0.28-0.68s0.42-0.28,0.68-0.28
		c0.25,0,0.5,0.1,0.68,0.28s0.28,0.42,0.28,0.68c0.11,6.46,3.44,12.37,5.78,18.22c2.5,6.35,3.87,13.09,4.05,19.92
		c0.23,7-2.37,13.76-1.8,20.77c0.57,6.77,3.39,13.2,6.64,19.07c1.8,3.31,3.78,6.59,5.92,9.72c0.91,1.39,1.98,2.66,3.19,3.78
		c1.02,0.91,2.16,1.97,2.42,3.38c0.22,1.2-1.62,1.72-1.8,0.51c-0.18-1.21-1.41-2.05-2.27-2.83c-1.02-0.99-1.93-2.09-2.7-3.28
		c-1.97-2.81-3.73-5.76-5.41-8.72c-3.36-5.83-6.31-12.13-7.44-18.82c-0.53-3.36-0.56-6.79-0.08-10.16
		c0.46-3.48,1.22-6.92,1.45-10.42c0.17-3.52-0.04-7.05-0.64-10.52C165.41,209.04,164.52,205.68,163.33,202.42z"/>
	<path class="st2" d="M145.02,135.42c0.58-2.32,1.17-4.64,1.85-6.93c0.81-2.5,1.33-5.09,1.56-7.7c0-0.49,0.74-0.91,1.12-0.45
		c2.35,3.19,4.39,6.59,6.1,10.15c1.86,3.52,3.36,7.2,4.48,11.01c1.1,3.77,1.78,7.64,2.02,11.55c0.19,4.19-0.04,8.39-0.68,12.53
		c-0.33,2.39-0.73,4.77-1.22,7.13c-0.24,1.12-0.51,2.23-0.71,3.36c-0.17,1.18-0.43,2.34-0.78,3.48c-0.08,0.14-0.2,0.26-0.34,0.34
		c-0.15,0.08-0.31,0.11-0.48,0.09s-0.32-0.08-0.45-0.19c-0.13-0.11-0.22-0.25-0.26-0.4c-0.05-2.01-1.17-3.55-2.37-5.07
		c-1.22-1.49-2.21-3.16-2.94-4.94c-0.73-1.91-1.06-3.92-1.72-5.85c-0.72-1.84-1.69-3.58-2.88-5.16c-1.14-1.54-2.13-3.18-2.95-4.9
		c-0.75-1.81-1.16-3.74-1.2-5.7C143.02,143.53,144.02,139.4,145.02,135.42z M145.3,152.27c0.75,1.82,1.74,3.54,2.93,5.12
		c1.15,1.55,2.14,3.22,2.93,4.97c0.76,1.81,1.07,3.83,1.69,5.72c0.74,2.09,1.85,4.04,3.28,5.76c0.8,0.96,1.45,2.04,1.93,3.19
		c0.26-1.25,0.45-2.53,0.72-3.77c0.44-2.01,0.82-4.02,1.14-6.04c0.7-4.08,1.04-8.21,1-12.35c-0.25-7.76-2.19-15.38-5.68-22.34
		c-0.92-1.92-2.01-3.8-3.06-5.69c-0.81-1.47-1.65-2.94-2.61-4.33c-0.51,3.83-1.85,7.51-2.77,11.26c-1.02,4.11-2.19,8.26-2.31,12.51
		c-0.09,2.01,0.19,4.03,0.82,5.94L145.3,152.27L145.3,152.27z"/>
	<path class="st2" d="M167.25,196.68c0.44-2.33,0.78-4.69,1.24-7.02c0.95-5.22,2.84-10.24,5.57-14.81c1.25-2.08,2.84-3.93,4.7-5.49
		c2.09-1.55,4.34-2.88,6.72-3.95c4.77-2.4,9.19-5.42,14.02-7.72c2.67-1.35,5.53-2.29,8.49-2.77c1.52-0.18,3.04-0.28,4.57-0.29
		c1.21-0.12,2.44,0.01,3.6,0.37c0.34,0.14,0.67,0.57,0.38,0.9c-0.65,0.85-1.4,1.61-2.13,2.4c-0.86,0.96-1.64,1.99-2.32,3.08
		c-1.29,1.93-2.51,3.91-3.83,5.83c-2.49,3.62-4.87,7.34-7.6,10.8c-2.75,3.58-6.02,6.74-9.71,9.38c-1.9,1.25-3.9,2.33-5.98,3.25
		c-2.12,1.01-4.15,2.19-6.07,3.53c-2.24,1.55-4.57,2.95-6.85,4.43c-1,0.6-1.8,1.48-2.31,2.52c-0.29,0.81-0.8,1.53-1.46,2.08
		c-0.06,0.11-0.15,0.21-0.27,0.27c-0.11,0.06-0.24,0.09-0.37,0.08c-0.13-0.01-0.25-0.06-0.35-0.14s-0.18-0.19-0.22-0.31
		C166.45,201.01,166.87,198.75,167.25,196.68z M168.82,200.06c0.45-0.8,1.08-1.49,1.83-2.03c1.83-1.41,3.96-2.52,5.89-3.81
		c1.93-1.4,3.95-2.68,6.03-3.84c2.04-1.04,4.17-1.88,6.15-3.06c7.8-4.67,12.79-12.24,17.74-19.56c1.45-2.14,2.87-4.31,4.28-6.48
		c0.64-1.03,1.34-2.03,2.09-2.99c0.67-0.8,1.42-1.53,2.11-2.3c-0.73-0.09-1.46-0.12-2.19-0.07c-1.22,0-2.45,0.05-3.65,0.17
		c-2.67,0.31-5.28,1.04-7.71,2.18c-4.63,2.04-8.84,4.87-13.29,7.23c-2.22,1.19-4.57,2.21-6.69,3.55c-2.06,1.31-3.83,3-5.23,4.99
		c-2.82,4.16-4.83,8.8-5.9,13.7c-0.62,2.59-0.91,5.22-1.45,7.82c-0.52,1.94-0.76,3.94-0.69,5.95
		C168.38,201.08,168.56,200.55,168.82,200.06z"/>
	<path class="st2" d="M112.12,157.31c2.19,0,4.22,1.17,6.25,1.87c2.29,0.77,4.54,1.68,6.72,2.74c4.14,2.01,8.06,4.45,11.69,7.29
		c3.67,2.84,6.85,6.28,9.4,10.18c1.25,2,2.4,4.07,3.44,6.19c1,2.01,2.29,3.85,3.83,5.47c1.56,1.65,3.19,3.23,4.66,4.98
		c1.32,1.57,2.77,3.36,3.19,5.47c0.03,0.14,0.02,0.29-0.05,0.43c-0.07,0.13-0.18,0.24-0.31,0.29c-0.04,0.1-0.1,0.19-0.18,0.26
		c-0.08,0.07-0.18,0.12-0.28,0.15s-0.21,0.03-0.31,0c-0.1-0.02-0.2-0.07-0.28-0.14c-1.51-1.33-3.76-1.34-5.5-2.25
		c-0.89-0.56-1.82-1.05-2.78-1.47c-1.22-0.42-2.51-0.65-3.76-0.99c-4.09-1.2-7.88-3.3-11.08-6.15c-3.25-2.84-5.94-6.27-7.96-10.11
		c-2.17-4.08-3.75-8.47-6.24-12.37c-1.45-2.23-3.19-4.25-5.16-6.02c-0.94-0.89-1.95-1.71-3.01-2.45c-0.98-0.6-1.89-1.33-2.7-2.15
		c-0.12-0.08-0.21-0.2-0.25-0.34s-0.04-0.29,0.01-0.43s0.14-0.25,0.26-0.33C111.84,157.33,111.98,157.3,112.12,157.31z
		 M117.58,161.46c1.74,1.51,3.33,3.19,4.75,5.02c2.81,3.7,4.5,8.06,6.53,12.23c1.88,4.05,4.46,7.72,7.63,10.84
		c3.11,3.04,6.86,5.33,10.96,6.68c1.4,0.44,2.84,0.68,4.24,1.12c1.05,0.39,2.06,0.89,3.01,1.5c1.6,0.91,3.5,1.09,5.1,1.96
		c-0.64-1.45-1.52-2.77-2.59-3.93c-1.25-1.48-2.59-2.85-3.94-4.23c-1.5-1.44-2.81-3.07-3.9-4.84c-1.12-1.93-2.05-3.98-3.18-5.92
		c-2.27-3.88-5.17-7.36-8.57-10.28c-3.42-2.88-7.13-5.39-11.08-7.47c-2.38-1.29-4.85-2.4-7.38-3.33c-1.12-0.41-2.26-0.79-3.37-1.24
		c-0.44-0.18-0.9-0.36-1.33-0.52l0.58,0.4c0.89,0.62,1.75,1.3,2.55,2.03v-0.02H117.58z"/>
	<path class="st2" d="M107.32,192.95c1.04-0.31,2.14-0.36,3.21-0.14l3.77,0.47c2.78,0.32,5.52,0.9,8.19,1.74
		c4.85,1.58,9.42,3.91,13.54,6.92c4.32,3.17,8.02,7.13,12.47,10.14c2.08,1.4,4.33,2.51,6.32,4.04c1.83,1.36,3.48,2.95,4.88,4.74
		c1.38,1.81,2.52,3.78,3.39,5.88c0.64,1.5,1.54,3.78,0.37,5.24c0,0.11-0.03,0.21-0.08,0.3s-0.13,0.17-0.22,0.22s-0.2,0.08-0.3,0.08
		c-0.11,0-0.21-0.03-0.3-0.08c-2.01-1.47-4.2-2.68-6.52-3.6c-2.24-0.6-4.52-1.05-6.82-1.37c-4.33-0.77-8.47-2.34-12.22-4.64
		c-7.76-4.97-12.64-13.14-18.84-19.74c-1.83-1.93-3.79-3.74-5.87-5.41c-0.89-0.71-1.84-1.34-2.84-1.89c-0.89-0.45-1.7-1.06-2.37-1.8
		c-0.09-0.07-0.15-0.17-0.19-0.28s-0.04-0.22-0.02-0.33c0.02-0.11,0.07-0.21,0.15-0.3C107.11,193.05,107.21,192.99,107.32,192.95z
		 M112.47,196.24c1.88,1.48,3.67,3.07,5.35,4.76c3.2,3.21,5.96,6.82,8.86,10.29c2.9,3.47,6.06,7.05,9.81,9.74
		c3.61,2.47,7.68,4.18,11.97,5.04c2.52,0.56,5.13,0.76,7.6,1.51c2.32,0.83,4.51,1.99,6.5,3.44c0.68-1.15-0.44-3.33-0.9-4.32
		c-0.78-1.75-1.75-3.41-2.9-4.95c-1.38-1.78-3-3.36-4.81-4.69c-1.88-1.39-3.96-2.43-5.91-3.73c-4.12-2.7-7.57-6.31-11.44-9.33
		c-3.83-3.02-8.11-5.43-12.69-7.13c-2.69-1-5.48-1.71-8.32-2.14c-1.44-0.22-2.9-0.35-4.33-0.55c-0.81-0.15-1.63-0.22-2.45-0.22
		C109.95,194.82,111.37,195.38,112.47,196.24z"/>
	<path class="st2" d="M168.57,229.97c0.47-3.05,1.18-6.07,2.12-9.01c0.71-2.59,1.63-5.12,2.73-7.56c2.21-4.56,5.45-8.54,9.45-11.65
		c4.56-3.55,9.77-5.89,14.87-8.48c5.43-2.84,10.64-6.09,15.58-9.72c2.09-1.69,4.45-3,6.98-3.89c1.11-0.32,3.58-1.22,4.35,0.15
		c0.77,1.36-1.51,3.14-2.34,3.95c-1.82,1.92-3.35,4.08-4.56,6.44c-2.63,4.8-4.56,10.14-8.1,14.35c-1.71,2.03-3.9,3.59-6.38,4.55
		c-2.81,1.11-5.78,1.7-8.55,2.9c-2.41,0.88-4.46,2.55-5.82,4.73c-1.36,2.38-2.08,5.11-3.79,7.27c-1.55,1.99-3.74,2.64-6.16,2.91
		c-1.23,0.1-2.44,0.27-3.65,0.53c-1.22,0.3-2.67,0.63-3.52,1.62c-0.63,0.72-1.15,1.55-2.17,1.7c-0.13,0.02-0.26,0.01-0.38-0.03
		s-0.23-0.11-0.32-0.21c-0.11-0.03-0.21-0.11-0.28-0.2C168.59,230.21,168.56,230.09,168.57,229.97z M171.37,227.72
		c0.97-0.68,2.07-1.15,3.24-1.37c2.2-0.58,4.56-0.45,6.69-1.12c2.61-0.81,3.82-3.29,4.85-5.61s1.99-4.65,3.94-6.32
		c4.08-3.51,9.76-3.74,14.41-6.11c4.65-2.37,7.18-7.59,9.4-12.1c2.22-4.51,4.29-9.09,7.86-12.55c0.62-0.62,1.19-1.29,1.72-1.98
		c0.01-0.04,0.01-0.07,0-0.11h-0.23c-0.45-0.01-0.89,0.04-1.32,0.16c-2.08,0.48-4.06,1.36-5.82,2.57c-4.8,3.24-9.43,6.7-14.5,9.53
		c-4.78,2.66-9.86,4.75-14.5,7.67c-4.36,2.65-8.06,6.26-10.82,10.55c-2.79,4.46-4.28,9.61-5.56,14.66c-0.2,0.79-0.37,1.58-0.54,2.37
		c0.11,0.07,0.19,0.17,0.23,0.29s0.05,0.25,0.01,0.37c0,0.09-0.05,0.19-0.07,0.28C170.67,228.48,171.01,228.09,171.37,227.72z"/>
	
		<rect x="183.68" y="172.26" transform="matrix(0.1984 -0.9801 0.9801 0.1984 -1.8184 423.8219)" class="st3" width="149.04" height="81.53"/>
	<path class="st4" d="M275.77,206.19c0,0-15.27,12.33-18.35,11.56c-2.2-0.55-9.14-22.95-9.14-22.95l-18.66,14.74v66.97l39.37-33.2
		l8.02-25.93L275.77,206.19z"/>
	<path class="st5" d="M242.85,166.22c0,0,36.66,16.09,64.22-22.25l-3.08-42.11l-13.01-34.14l-46.87,0.56l-16.65,48.22
		C227.46,116.51,234.03,165.52,242.85,166.22z"/>
	<path class="st6" d="M241.11,93.43l11.28,3.25c0.62,0.18,1.29-0.05,1.66-0.58l0.91-1.28l0.22,2.1c0.07,0.64,0.53,1.17,1.15,1.32
		l9.18,2.23c0.64,0.16,1.3,0.25,1.96,0.28l2.87,0.14c0.62,0.03,1.23-0.1,1.79-0.37l4.14-2.01l0.89,1.38
		c0.57,0.89,1.43,1.57,2.44,1.91l18.18,6.18l4.15-17.72l-3.73-11.57l-15.44-7.09l-25.41-2.43L241.11,93.43z"/>
	<path class="st6" d="M266.69,108.76c0-0.98,0.7-1.81,1.67-1.96c4.83-0.78,18.68-2.68,21.56,0.66l5.46,4.9l-5.02-1.99
		c-0.61-0.24-1.3-0.37-1.94-0.53c-0.67-0.17-1.35-0.33-2.04-0.46c-1.37-0.26-2.79-0.4-4.19-0.33c-0.98,0.05-1.96,0.15-2.94,0.21
		c-2,0.13-4,0.27-5.99,0.45c-1.6,0.14-3.21,0.3-4.8,0.55C267.52,110.41,266.69,109.7,266.69,108.76z"/>
	<path class="st6" d="M255.73,105.46L255.73,105.46c0.09-0.44-0.1-0.89-0.48-1.15c-2.42-1.68-11.3-7.62-13.82-6.6l-0.94,3.11
		c0,0,1.94-0.23,13.52,5.45C254.73,106.63,255.59,106.22,255.73,105.46z"/>
	<g class="st7">
		<path class="st8" d="M256.43,110.65c-0.32,3.85-0.67,7.98-2.66,11.37C255.45,118.54,255.78,114.42,256.43,110.65L256.43,110.65z"
			/>
	</g>
	<g class="st7">
		<path class="st8" d="M250.27,128.26c-1.59,1.78-2.64,4.65-0.59,6.51C247.28,133.09,248.37,129.84,250.27,128.26L250.27,128.26z"/>
	</g>
	<path class="st9" d="M246.07,145.09c0,0,0.14,0.57,0.23,0.9c1.75,6.54,9.02,10.23,15.91,8.34c2.73-0.75,6.03-2.34,8.67-5.06
		C261.02,150.56,252.51,149.92,246.07,145.09z"/>
	<path class="st10" d="M390.13,347.79c-0.56-4.8-1.49-14.18-1.97-19.14c-0.06-0.62-0.99-1.9-0.51-3.96
		c1.24-5.17-4.09-23.92-4.65-25.85c-0.03-0.11-0.03-0.23-0.01-0.33c0.6-3.99-3.53-19.52-5.01-24.88c-0.24-0.88-0.36-1.79-0.43-2.71
		c-0.14-1.9-1.34-5.91-2.13-8.38c-0.35-1.08-0.52-2.22-0.43-3.37c0.49-6.33-5.86-23.29-7.95-28.66c-0.34-0.87-0.53-1.8-0.64-2.74
		c-0.41-3.69-4.78-11.82-6.56-15.02c-0.39-0.69-0.66-1.46-0.91-2.22c-0.82-2.54-4.85-5.16-7.25-6.53c-0.02-0.01-0.03-0.02-0.05-0.03
		c-0.86-0.51-1.59-1.25-2.04-2.18c-2.39-5.09-19.98-13.73-20.65-14.06c-0.01,0-0.03-0.01-0.04-0.02l-23.42-13.64l-3.8-2.21
		c-0.09-0.06-0.2-0.09-0.31-0.09l-3.91-0.12l-7.67-0.24c-0.26-0.01-0.52,0.14-0.64,0.39c-3.29,6.75-5.69,14.05-8.09,21.35
		c-4.07,12.38-8.13,24.7-16.46,34.12c-2.53,2.86-5.47,5.46-8.92,7.7c-0.01,0.01-0.02,0.02-0.04,0.03
		c-9.7,6.02-14.82,16.43-23.5,24.64l-0.03,0.03c-0.62,0.67-1.43,1.74-2.08,2.96c-0.33,0.62-1.21,0.43-1.28-0.28
		c-1.79-17.2-2.15-34.85-0.21-52.01c1.02-12.61,3.57-25.21,10.23-37.27c0.36-0.77,0.53-1.63,0.59-2.5c0.03-0.41-0.27-0.77-0.66-0.79
		l-10.14-0.33c-0.11,0-0.22,0.03-0.32,0.07l-8.81,4.42l-8.7,4.36c-16.42,8.25-23.36,17.76-24.26,19.07
		c-0.07,0.09-0.17,0.17-0.27,0.21c-4.06,1.94-10.77,33.08-10.96,33.97c0,0.01-0.01,0.02-0.01,0.03c-2.9,9.61-3.85,28.63-3.98,31.37
		c-0.01,0.19-0.07,0.36-0.2,0.49c-2.14,2.09-6.7,28.32-6.55,29.84c0.02,0.15-0.01,0.29-0.09,0.41c-1.69,2.75-1.6,8.01-1.54,9.31
		c0,0.19-0.06,0.37-0.19,0.52c-3.78,4.62-5.21,52.59-5.2,54.24c0,0.12-0.04,0.25-0.1,0.36c-2.57,4.56-2.47,17.43-2.43,19.8
		c0,0.24-0.11,0.44-0.29,0.59c-4.39,3.34-4.31,9.87-4.24,11.2c0,0.13-0.02,0.27-0.08,0.38c-0.81,1.37-1.17,6.8-1.27,8.7
		c-0.02,0.35-0.05,0.69-0.13,1.02c-1.29,5.29,5.29,17.24,5.66,17.91c0.01,0.02,0.02,0.04,0.02,0.06c0.32,0.99,0.66,1.85,1.01,2.58
		c0,0.01,0,0.01,0,0.01c2.56,5.37,5.74,4.3,7.22,3.39c0.15-0.09,0.32-0.12,0.49-0.07c0.25,0.05,0.46,0.27,0.53,0.57l0.77,4.19
		c10.94,7.34,22.67,13.33,35.05,17.8c8.71,3.14,17.75,5.53,27.08,7.09c11.29,1.89,22.53,2.48,33.62,1.88
		c3.11-0.18,6.21-0.44,9.29-0.8c2.62-0.3,5.23-0.67,7.82-1.12c1.65-0.27,3.3-0.58,4.93-0.91c1.8-0.35,3.59-0.74,5.36-1.17
		c0.45-0.29,0.91-0.55,1.33-0.77c1.12-0.7,2.25-1.2,3.4-1.57c3.02-0.98,6.12-1.07,9.18-1.62c2.11-0.38,4.19-0.97,6.22-2.21
		c0.04-0.03,0.07-0.05,0.11-0.07c0.57-0.32,1.19-0.68,1.85-1.08c0.54-0.31,1.1-0.65,1.69-1.01c9.88-6.01,26.69-17.33,27.4-18.17
		c0.92-1.12,2.43-2.21,3.28-2.78c0.44-0.3,0.86-0.65,1.22-1.04l22.49-24.37c0.96-1.04,1.7-2.28,2.18-3.65
		c0.22-0.63,0.6-1.15,1.07-1.52c0.49-0.38,1.06-0.61,1.68-0.67c4.31-0.41,16.44-21.71,17.08-23.8c0.11-0.36,0.25-0.7,0.43-1.02
		C391.12,361.13,390.13,347.79,390.13,347.79z M330.29,342.86c0.04,0.11,0.05,0.22,0.02,0.33c0,0,0,0,0,0.01
		c0,0.03,0,0.05-0.01,0.08c-0.3,0.86-1.41,4.27-1.36,7.14v0.12c0.03,0.87,0.15,1.67,0.44,2.35c0.04,0.1,0.11,0.19,0.2,0.25
		c0.36,0.28,1.34,1.16,1.27,2.49c0,0,0,0.01,0,0.02c-0.01,0.22-0.05,0.43-0.13,0.67c-0.18,0.56-0.23,0.99-0.21,1.32v0.01
		c0,0.05,0.01,0.1,0.01,0.14c0.01,0.08,0.01,0.15,0,0.23c0,0.01,0,0.01,0,0.01c-0.05,0.35-0.32,0.62-0.67,0.62h-2.89
		c-0.29,0-0.55,0.2-0.65,0.49c-0.11,0.36-0.26,0.87-0.34,1.29c-0.07,0.37-0.41,0.63-0.76,0.58c-0.83-0.12-2.13-0.33-2.88-0.44
		c-0.32-0.05-0.54-0.31-0.59-0.64v-0.1l0.07-3.37v-0.02c0-0.15-0.04-0.31-0.12-0.44c-0.4-0.63-1.65-2.91-1.76-7.06
		c-0.01-0.12-0.01-0.27-0.01-0.4c0-0.97,0.04-2.04,0.19-3.19c0.01-0.01,0.01-0.03,0.01-0.04c0.15-0.61,3.56-14.44,3.56-14.72
		c0-0.13,0.07-1.53,0.14-2.89c0-0.05,0-0.11,0.02-0.16v-0.02c0.12-0.46,0.63-0.65,0.99-0.42c0.11,0.06,0.22,0.17,0.28,0.3
		c1.26,2.66,3.1,6.7,3.33,8.19c0.03,0.19,0.11,0.35,0.25,0.46l1.47,1.22c0.17,0.14,0.38,0.2,0.59,0.13l0.08-0.02
		c0.22-0.05,0.42,0,0.58,0.12c0.17,0.13,0.28,0.34,0.28,0.59c0,0.23-0.1,0.43-0.26,0.58c-0.46,0.41-1.39,1.46-1.32,3.05
		C330.09,342.06,330.17,342.44,330.29,342.86z"/>
	<path class="st11" d="M330.34,189.89c0,0-0.08,2.6-0.46,4.42c-0.3,1.46-0.18,2.98,0.3,4.39c1.23,3.56,3.07,9.66,2.39,12.42
		c-0.3,1.19-0.46,2.41-0.35,3.63l1.18,13.22c0.15,1.73-0.95,3.32-2.62,3.79l-5.7,1.59c-0.55,0.15-0.93,0.66-0.93,1.23l0,0
		c0,0.3-0.27,0.52-0.56,0.46l-3.8-0.72c-0.98-0.19-2-0.07-2.91,0.35l-14.96,6.8c-0.34,0.16-0.69,0.3-1.04,0.44
		c-1.34,0.53-5.23,2.12-6.68,3.53c-0.68,0.66-1.46,1.18-2.36,1.45c-10.46,3.18-64.17,17.42-65.81,26.74c0,0,5.76-12.1,51.51-53.1
		l29.54-39.66L330.34,189.89z"/>
	<path class="st11" d="M233.7,209.9l1.09,31.46v23.52l-7.46,6.89l0.66-15.87c-0.23-1-0.29-3.07-0.88-3.91l-14.09-30.27L233.7,209.9z
		"/>
	<ellipse class="st12" cx="214.22" cy="430.9" rx="3.68" ry="2.89"/>
	<circle class="st12" cx="220.62" cy="349.02" r="3.34"/>
	<circle class="st12" cx="236.25" cy="271.45" r="3.34"/>
	<ellipse class="st10" cx="331.09" cy="345.68" rx="17.85" ry="23.62"/>
	<ellipse class="st13" cx="297.98" cy="230.6" rx="2.37" ry="3.08"/>
	<path class="st14" d="M292.53,448.89c-1.15,0.37-2.28,0.87-3.4,1.57c-0.42,0.23-0.88,0.49-1.33,0.77
		c-1.78,0.42-3.56,0.82-5.36,1.17c-1.63,0.33-3.28,0.64-4.93,0.91c-1.59-2.11-3.43-4.88-4.56-7.64c-1.16-2.82-0.88-6.02,0.62-8.68
		c2.26-3.99,6.53-12.73,8.6-24.82c0,0,2.99,1.78,1.96,5.79c-1.03,4.02,6.9,25.84,6.9,25.84S291.97,446.3,292.53,448.89z"/>
	<path class="st14" d="M155.88,419.35l0.2-5.35c0.14-3.82,0.91-7.6,2.31-11.16c2.19-5.57,6.06-12.85,11.62-13.89l-3.5,12.17
		c0,0-2.71,8.48-2.3,13.55c0.12,1.5-0.19,3-0.92,4.32l-0.21,0.38c-0.7,1.27-0.4,2.85,0.71,3.79l1.08,0.91
		C164.88,424.06,157.89,429.7,155.88,419.35z"/>
	<g>
		<path class="st15" d="M203.37,446.25c-1.27-18.93,0.08-38.17,1.24-57.07c1.32-18.99,3-37.95,5.05-56.88
			c0.03-4.48,1.09-10.01,2.24-14.61c2.38-9.55,5.34-18.92,8.65-28.17c1.63-4.63,3.36-9.22,5.16-13.79c-1.51,4.67-3.06,9.32-4.5,14
			c-2.85,9.36-5.69,18.75-7.78,28.31c-1.01,4.8-1.97,9.66-2,14.44c-0.93,9.46-1.77,18.93-2.6,28.41
			C206.48,389.3,203.3,417.73,203.37,446.25L203.37,446.25z"/>
	</g>
	<g>
		<path class="st15" d="M310.91,317.71c-3.71-7.12-2.04-31.7,2.9-38.19c0.54-0.68,1.18-1.33,2.02-1.61
			c-0.82,0.32-1.42,0.99-1.92,1.69C309.57,285.75,307.75,310.94,310.91,317.71L310.91,317.71z"/>
	</g>
	<path class="st6" d="M244.77,162.45l-2.44-4.48c-3.04-5.6-5.35-11.57-6.8-17.77c-0.31-1.34-0.61-2.73-0.86-4.11
		c-0.82-4.52-0.73-9.15,0.21-13.65c2.07-9.85,7.47-32.43,14.44-37.69c0,0,10.32-11.86,23.71-11.49c0,0-50.11-10.31-47.95,53.74
		c-0.26,38.09-0.26,24.66-4.47,42.67c-0.67,7.79-6.59,37.11-11.41,51.54c-0.47,1.41,0.54,2.91,2.03,2.95
		c3.93,0.11,8.37-2.24,12.26-1.03c2.76,0.86,5.47,1.56,8.14,2.5c1.63,0.58,3.43-0.21,4.13-1.79c3.1-6.93,7.2-20.87,10.8-24.17
		c5.28-4.84,10.55-15.29,6.25-30.69C252.81,168.99,247.15,167.86,244.77,162.45z"/>
	<path class="st16" d="M254.34,145.19l-0.74-0.54c-0.67-0.49-1.5-0.7-2.32-0.58l-5.72,0.67c0,0,7.66,6.66,26.41,4.42
		c0,0-8.18-2.01-11.64-3.35c-0.6-0.23-1.24-0.33-1.88-0.29l-2.4,0.17C255.43,145.73,254.83,145.55,254.34,145.19z"/>
	<path class="st17" d="M163.63,418.73c0,0-2.81,3.31,1.3,5.66L163.63,418.73z"/>
	<path class="st14" d="M305.12,204.19l9.37-53.02c0,0,4.48,3.28,5.38,5.93c0.34,0.99,1.08,1.8,2,2.31c2.76,1.51,7.43,4.88,6.56,9.99
		l-0.85,6.97c-0.13,1.06,0.76,1.97,1.83,1.86c4-0.42,12.37-0.33,12.83,7.59c0,0,0,2.27-0.54,3.67c-0.18,0.48-0.16,1.01,0.02,1.5
		c0.6,1.58,0.66,5.06-10.02,5.56C331.7,196.54,321.26,195.61,305.12,204.19z"/>
	<path class="st6" d="M271.96,227.25c2.9,2.54,11.12-0.52,14.77,0c4.49,0.63,5.31-2.18,9.79-1.52c1.25,0.18,3.17,3.06,4.78,4.31
		c0.51,0.4,1.27,0.21,1.51-0.4c1.67-4.26,4.6-17.76,5.53-20.3c1.32-3.59,2.03-6.94,4.23-10.06c2.27-3.22,4.04-6.79,5.22-10.55
		c2.63-8.39,2.57-17.63,2.17-26.38c-0.44-9.68-1.48-19.32-3.14-28.86c-1.3-7.49-2.36-15.05-4.39-22.39
		c-0.9-3.25-1.91-6.23-3.74-9.07c-1.84-2.85-4.01-5.47-5.91-8.27c-1.62-2.38-3.23-4.77-4.85-7.15c-0.49-0.73-1.62-0.49-1.78,0.38
		c-0.56,3.11-0.89,6.17-1.08,8.86c-0.3,4.12,0.38,8.25,2.02,12.04c2.23,5.13,2.87,11.61,2.9,17.13c0.04,6.82,1.98,13.58,1.47,20.4
		c-0.42,5.6-2.66,10.92-5.36,15.85c-4.43,8.07-10.16,15.42-13.95,23.85c-2.36,5.26-4.04,10.93-6.09,16.34
		c-0.82,2.17-6.91,14.54-10.44,21.98c-1.07,2.25,0.91,4.74,3.34,4.21C270.5,227.31,271.77,227.08,271.96,227.25z"/>
	<path class="st4" d="M335.18,100.66c-0.01-0.16-0.03-0.32-0.04-0.48c-0.07-1.17,0.06-2.34,0.01-3.52
		c-0.13-2.65-1.86-10.81-2.34-12.06c-0.51-1.33-1.05-2.65-1.62-3.96c-1.06-2.43-2.23-4.81-3.52-7.13c-2.25-4.04-4.86-7.88-7.9-11.37
		c-2.57-2.96-5.45-5.65-8.6-7.98c-2.74-2.02-5.68-3.76-8.77-5.17c-2.7-1.23-5.52-2.22-8.4-2.94c-2.46-0.62-4.97-1.04-7.5-1.28
		c-2.01-0.19-4.04-0.26-6.06-0.19c-1.37,0.04-2.73,0.14-4.09,0.32c-0.53,0.07-1.06,0.15-1.59,0.26
		c-42.95,8.67-46.8,55.41-46.8,55.41c24.76-47.58,63.03-17.92,63.03-17.92c20.85,12.59,25.46,61.67,25.46,61.67
		c6.16-3.53,8.81-16.34,11.33-16.06c2.52,0.28,4.2-9.51,4.2-9.51c1.13-0.97,1.97-2.12,2.59-3.35c0.01-0.41,0.01-0.83,0.01-1.24
		c0,0.41,0,0.83-0.01,1.24c1.22-2.43,1.58-5.22,1.52-7.92c-0.03-1.31-0.14-2.64-0.42-3.92
		C335.46,102.61,335.27,101.64,335.18,100.66z"/>
	<path class="st14" d="M246.95,60.03c0,0,67.4-34.89,81.4,67.25C328.34,127.28,316.8,31.95,246.95,60.03z"/>
	<path class="st14" d="M334.22,114.54c-13.71-79.06-71.53-65.59-71.53-65.59c-2.79,0.89-10.9,6.34-10.9,6.34s10.09-4.08,22.78-3.26
		c50.42,3.25,56.39,67,56.39,67c3.65-1.57,3.25-4.3,3.25-4.3s0.11,0.65,0.31,1.77c0-0.05,0-0.09,0.01-0.14
		C334.43,115.75,334.33,115.15,334.22,114.54z"/>
	<path class="st1" d="M376.72,308.77c0.07,5.05-1.68,10.14-3.33,14.82c-1.85,5.03-4.38,9.77-7.54,14.11
		c-6.11,8.7-14.09,15.83-20,24.65c-5.74,8.61-7.97,18.99-13.47,27.72c-2.6,4.12-5.82,7.85-8.76,11.72c-3,3.73-5.59,7.77-7.75,12.05
		c-1.05,2.17-1.88,4.45-2.47,6.79c-0.63,2.77-0.98,5.59-1.05,8.43c-0.12,2.9-0.15,5.81-0.36,8.71c-0.14,1.69-0.21,3.42-0.39,5.11
		c-0.6,0.36-1.16,0.7-1.69,1.01c0.03-0.19,0.05-0.38,0.06-0.57c0.17-1.08,0.21-2.2,0.28-3.27c0.15-2.59,0.38-5.18,0.45-7.78
		c0.15-5.46,0.49-10.81,2.45-15.95c3.41-9.04,10.08-16.2,15.74-23.86c2.92-4.09,5.33-8.52,7.19-13.19
		c1.96-4.71,3.76-9.52,6.22-14.01c5.11-9.28,13.11-16.42,19.55-24.7c3.35-4.16,6.21-8.7,8.52-13.52c1.03-2.34,1.92-4.73,2.67-7.18
		c0.83-2.45,1.46-4.97,1.89-7.51c0.2-1.22,0.29-2.45,0.27-3.67C375.17,307.68,376.71,307.78,376.72,308.77z"/>
	<path class="st1" d="M335.32,387.53c0.09,0.05,0.2,0.06,0.3,0.05c1.62-0.22,3.2-0.71,4.66-1.44c1.42-0.84,2.58-2.09,3.94-3.04
		c1.46-1.12,3.2-1.79,5.02-1.93c1.9-0.04,3.8,0.58,5.67,0.87c3.11,0.43,6.25,0.21,8.99-1.45c2.02-1.23,3.65-2.98,5.33-4.62
		c1.69-1.64,3.39-3.14,5.6-3.77c3.06-0.88,6.32,0.04,9.23,1.03s5.77,2.24,8.83,1.8c2.79-0.4,5.03-2.21,7.08-4
		c2.23-1.98,4.4-4.1,7.17-5.32c3.25-1.43,7.04-1.55,10.52-1.5c0.1,0,0.2-0.02,0.29-0.07c0.09-0.05,0.16-0.13,0.2-0.22
		s0.06-0.19,0.05-0.29s-0.05-0.2-0.12-0.27c-1.36-1.3-2.81-2.5-4.33-3.59c-1.43-1.13-2.73-2.4-4.11-3.61
		c-2.5-2.16-5.57-4.53-9.05-4.24c-1.5,0.17-2.97,0.58-4.34,1.22c-1.53,0.63-3.05,1.26-4.61,1.79c-1.64,0.56-3.32,1-5.02,1.32
		c-1.79,0.28-3.61,0.36-5.42,0.25c-3.73-0.17-7.44-0.69-11.18-0.75c-2.86-0.09-5.69,0.63-8.18,2.06c-2.63,1.67-5.05,3.67-7.17,5.96
		c-2.39,2.38-4.62,4.92-6.78,7.5c-2.17,2.58-4.25,5.23-6.39,7.85c-1.14,1.42-2.28,2.82-3.45,4.21c-0.53,0.61-1.06,1.22-1.55,1.87
		c-0.36,0.6-0.89,1.08-1.52,1.38C334.44,386.78,334.79,387.58,335.32,387.53z"/>
	<path class="st1" d="M376.69,304.91c1.55-3.57,2.09-7.51,1.54-11.36c-0.21-1.71-0.62-3.4-1.2-5.02c-0.66-1.69-1.45-3.33-2.35-4.9
		c-0.95-1.67-1.79-3.39-2.53-5.16c-0.6-1.58-1.03-3.17-1.68-4.72c-0.58-1.49-1.48-2.84-2.62-3.95c-0.87-0.77-1.82-1.43-2.84-1.97
		c-1.15-0.68-2.35-1.25-3.61-1.71c-0.93-0.42-1.97-0.51-2.97-0.26c-0.1,0.05-0.18,0.14-0.23,0.24c-0.05,0.1-0.06,0.22-0.04,0.33
		c0.23,1.41,1.36,2.39,2.2,3.45c1.1,1.27,2.02,2.69,2.73,4.23c1.26,2.96,1.08,6.25,1.63,9.37c0.56,2.7,1.82,5.2,3.63,7.25
		c0.99,1.1,1.92,2.26,2.78,3.47c0.81,1.28,1.53,2.62,2.17,4c0.5,1.04,1.05,2.06,1.52,3.11c0.57,1.03,0.88,2.2,0.89,3.39
		c-0.02,0.07-0.02,0.15,0,0.22s0.06,0.13,0.12,0.18l0.04,0.01c0.06,0.05,0.13,0.09,0.21,0.11s0.16,0.02,0.23,0
		c0.08-0.02,0.15-0.05,0.21-0.1c0.06-0.05,0.11-0.11,0.15-0.18C376.67,304.9,376.69,304.92,376.69,304.91z"/>
	<path class="st1" d="M419.28,322.16c-0.86-0.72-1.86-1.25-2.93-1.57c-1.21-0.41-2.45-0.75-3.7-1.01c-2.65-0.55-5.37-0.68-8.06-0.37
		c-4.35,0.45-8.56,1.88-12.3,4.17c-2.04,1.26-3.86,2.8-5.81,4.22c-2.01,1.42-4.2,2.55-6.51,3.37c-2.12,0.77-4.17,1.74-6.1,2.9
		c-1.85,1.15-3.57,2.5-5.13,4.02c-1.62,1.61-3.07,3.38-4.35,5.28c-0.72,1.05-1.43,2.11-2.18,3.15c-0.57,0.92-1.29,1.72-2.14,2.39
		c-0.09,0.06-0.17,0.15-0.21,0.25c-0.04,0.1-0.06,0.21-0.03,0.32c-0.12,0.35,0.11,0.81,0.56,0.68c1.18-0.33,2.16-1.09,3.31-1.49
		s2.45-0.87,3.66-1.33c2.48-0.99,4.88-2.17,7.18-3.54c1.94-1.22,4.05-2.15,6.27-2.76c2.21-0.47,4.46-0.72,6.71-0.75
		c4.01-0.13,8.36,0.35,11.73-2.31c3.37-2.66,5.3-6.97,8.75-9.67c1.74-1.3,3.64-2.36,5.66-3.15c1.78-0.75,3.83-0.9,5.47-1.99
		C419.37,322.85,419.56,322.42,419.28,322.16z"/>
	<path class="st1" d="M414.83,252.64c1.13-3.26,1.62-6.71,1.47-10.16c-0.13-2.57-0.25-5.5-1.88-7.64c-0.25-0.34-0.73-0.11-0.88,0.18
		c-0.84,1.73-1.52,3.53-2.25,5.31s-1.57,3.51-2.52,5.18c-1.92,3.41-4.08,6.66-6.29,9.87c-1.78,2.61-3.57,5.19-5.52,7.68
		c-1.85,2.35-3.79,4.65-5.67,6.99c-3.68,4.57-7.2,9.42-9.22,14.97c-1.07,3.13-1.53,6.43-1.35,9.73c0.12,3.53,0.41,7.04-0.4,10.53
		c-0.41,1.69-0.92,3.37-1.51,5c-0.5,1.5-1.16,2.95-1.96,4.31c-1.52,2.52-3.4,4.92-4.11,7.83c-0.16,0.64,0.82,0.99,0.98,0.34
		c0.01-0.04,0.01-0.07,0.02-0.1c0.06-0.02,0.11-0.06,0.16-0.1c0.04-0.04,0.08-0.1,0.1-0.16c1.07-3.3,4.03-5.75,6.63-7.88
		c2.61-2.13,5.2-3.78,7.71-5.81c2.22-1.7,4.06-3.84,5.43-6.27c1.61-3.08,2.61-6.53,3.65-9.82c1.09-3.45,2.13-6.92,3.48-10.28
		s3.09-6.73,4.77-10.02C408.94,265.87,412.53,259.48,414.83,252.64z"/>
	<path class="st1" d="M358.89,334.55c0.03,0.9-0.08,1.79-0.12,2.69c0.02,0.8-0.08,1.6-0.28,2.37l-0.1,0.06
		c-0.11,0.07-0.18,0.17-0.22,0.3c-0.03,0.12-0.02,0.25,0.04,0.37c0.06,0.11,0.15,0.2,0.27,0.25s0.25,0.05,0.36,0
		c1.44-0.73,2.29-2.4,2.99-3.79c0.81-1.58,1.34-3.29,1.55-5.05c0.15-2,0.16-4.02,0.04-6.02c0-1.91-0.25-3.8-0.73-5.64
		c-0.37-1.34-0.92-2.82-2.17-3.53c-0.07-0.05-0.16-0.07-0.24-0.08c-0.09,0-0.17,0.01-0.25,0.05c-0.08,0.04-0.15,0.1-0.2,0.17
		c-0.05,0.07-0.08,0.15-0.09,0.24c-0.04,1.03,0.04,2.06-0.02,3.09c-0.11,1.06-0.32,2.1-0.63,3.12c-0.6,1.9-0.9,3.87-0.9,5.86
		C358.31,330.86,358.84,332.68,358.89,334.55z"/>
	<path class="st1" d="M336.09,344.31c0.05,2.13-0.16,4.26-0.62,6.34c-0.48,2.04-0.69,4.13-0.63,6.22c0.08,2.07,0.55,4.11,1.4,6.01
		c0.52,0.97,0.96,1.99,1.31,3.04c0.14,0.52,0.25,1.05,0.36,1.57c0.03,0.48,0.09,0.96,0.2,1.44c0.01,0.08,0.05,0.15,0.1,0.22
		c0.05,0.06,0.12,0.11,0.19,0.14c0.25,0.55,1.2,0.35,0.99-0.25c-0.19-0.56-0.35-1.13-0.48-1.71c0-2.3,0.47-4.57,1.38-6.67
		c0.98-2.56,2.11-5.07,3.14-7.62c1-2.4,1.86-4.85,2.57-7.35c0.59-2.28,1-4.61,1.21-6.97c0.44-4.35,0.43-8.98-1.24-13.13
		s-5.02-7.45-8.21-10.52c-1.73-1.67-3.34-3.41-4.93-5.17c-1.12-1.29-1.92-3.24-3.59-3.9c-0.09-0.03-0.18-0.04-0.27-0.02
		c-0.09,0.02-0.17,0.06-0.24,0.12c-0.07,0.06-0.12,0.14-0.15,0.22c-0.03,0.09-0.04,0.18-0.02,0.27c0.17,1.06,0.48,2.1,0.93,3.09
		c0.44,1.12,0.59,2.34,0.45,3.53c-0.15,1.28-0.51,2.53-0.77,3.79c-0.24,1.19-0.41,2.39-0.5,3.61c-0.21,2.12,0.13,4.27,1,6.22
		c0.86,1.92,2.04,3.67,3.03,5.52C334.73,336.02,335.89,340.12,336.09,344.31z"/>
	<path class="st1" d="M312.33,330.6c0.26,1.27,0.41,2.51,0.55,3.78c0.31,2.87,0.42,5.76,0.33,8.65c-0.23,4.99-0.98,9.96-1.24,14.95
		c-0.25,4.86,0.16,9.72,1.22,14.47c0.49,2.22,1.12,4.4,1.89,6.54c0.79,2.2,1.8,4.3,2.66,6.46c0.92,2.24,1.63,4.56,2.11,6.93
		c0.45,2.38,0.4,4.81,0.76,7.19c-0.02,0.11,0.01,0.23,0.06,0.33c0.06,0.1,0.15,0.18,0.25,0.22c0.11,0.04,0.23,0.05,0.34,0.02
		s0.21-0.1,0.28-0.19c1.26-2.16,2.25-4.46,2.96-6.85c0.93-2.79,1.69-5.64,2.29-8.52c1.12-4.91,1.58-9.95,1.35-14.99
		c-0.15-2.29-0.53-4.56-1.13-6.78c-0.68-2.37-1.52-4.7-2.5-6.96c-2.06-5-3.77-10.12-5.37-15.28c-1.48-4.86-3.51-9.53-6.05-13.93
		c-0.05-0.1-0.14-0.18-0.24-0.23c-0.1-0.05-0.22-0.06-0.33-0.04s-0.21,0.08-0.29,0.16c-0.07,0.08-0.12,0.19-0.13,0.3
		C311.94,328.1,312.02,329.37,312.33,330.6z"/>
	<g>
		<path class="st15" d="M253.55,210.22l1.61,3.3c0.55,1.07,1.1,2.16,1.82,3.01c0.35,0.42,0.79,0.71,1.09,0.64
			c0.41-0.13,1.2-0.5,1.63-0.65c1.14-0.45,2.3-0.87,3.49-1.21c-1.03,0.7-2.1,1.31-3.18,1.9c-0.27,0.14-0.95,0.52-1.22,0.64
			C255.64,219.43,253.81,212.38,253.55,210.22L253.55,210.22z"/>
	</g>
	<g>
		<path class="st18" d="M285.35,109.21c0,0,4.1,0.42,6.83,1.88"/>
		<path class="st15" d="M285.35,109.21c2.36,0.13,4.79,0.65,6.83,1.88C289.99,110.17,287.67,109.69,285.35,109.21L285.35,109.21z"/>
	</g>
	<g>
		<path class="st18" d="M241.85,97.61c0,0,0.98-0.16,2.5,0.47"/>
		<path class="st15" d="M241.85,97.61c0.84-0.25,1.78,0,2.5,0.47C243.49,97.93,242.71,97.71,241.85,97.61L241.85,97.61z"/>
	</g>
	<g>
		<path class="st18" d="M271.29,100.94c1.55-1.06,3.21-1.89,4.93-2.6c0.08-0.03,0.17,0,0.21,0.08c0.27,0.5,0.54,1,0.76,1.53
			c-0.39-0.42-0.73-0.87-1.07-1.33l0.23,0.07C274.74,99.6,273.06,100.38,271.29,100.94L271.29,100.94z"/>
	</g>
	<g>
		<path class="st15" d="M193.37,192.77c-4.47,4.38-7.69,9.77-9.86,15.63C184.3,202.15,187.96,196.1,193.37,192.77L193.37,192.77z"/>
	</g>
	<g>
		<path class="st18" d="M297.54,154.26c-1.66,2.35-4.17,4.03-6.45,5.75c-7.1,4.93-15.46,8.48-24.17,8.88
			c8.55-1.24,16.63-4.68,23.85-9.36C293.12,157.93,295.66,156.4,297.54,154.26L297.54,154.26z"/>
	</g>
	<g>
		<path class="st15" d="M224.74,247.72c3.39,4.08,4.12,9.9,3,14.97C228.17,257.54,227.53,252.16,224.74,247.72L224.74,247.72z"/>
	</g>
	<g>
		<path class="st15" d="M332.59,219.04c1.04,3.58,2.68,11.63-1.85,13.31c-0.69,0.18-1.4,0.14-2.06,0c0.68,0.04,1.37,0.01,1.99-0.23
			C334.66,230.34,333.01,222.56,332.59,219.04L332.59,219.04z"/>
	</g>
	<g>
		<path class="st15" d="M291.84,246.89c2.3-1.73,4.78-3.18,7.42-4.32C296.96,244.31,294.48,245.75,291.84,246.89L291.84,246.89z"/>
	</g>
	<g>
		<path class="st18" d="M295.89,86.76c1.29,0.87,2.2,2.21,3.16,3.41c6.35,8.83,10.98,19.04,12.93,29.76
			c-2.24-10.64-6.79-20.79-13.02-29.69C298.03,89.01,297.15,87.66,295.89,86.76L295.89,86.76z"/>
	</g>
	<g>
		<path class="st18" d="M251.79,96.57c0.85,0.26,1.72,0.19,2.38-0.48C253.81,97.03,252.5,97.19,251.79,96.57L251.79,96.57z"/>
	</g>
</g>
</svg>
