<?xml version="1.0" encoding="utf-8"?>
<!-- Generator: Adobe Illustrator 26.0.3, SVG Export Plug-In . SVG Version: 6.00 Build 0)  -->
<svg version="1.1" id="Layer_1" xmlns="http://www.w3.org/2000/svg" xmlns:xlink="http://www.w3.org/1999/xlink" x="0px" y="0px"
	 viewBox="0 0 300 300" style="enable-background:new 0 0 300 300;" xml:space="preserve">
<style type="text/css">
	.st0{fill:#E4E6E3;}
	.st1{fill:none;stroke:#808184;stroke-width:2;stroke-miterlimit:10;}
	.st2{fill:none;stroke:#808184;stroke-miterlimit:10;}
	.st3{fill:none;stroke:#231F20;stroke-width:2;stroke-miterlimit:10;}
	.st4{fill:none;stroke:#231F20;stroke-miterlimit:10;}
</style>
<rect x="-0.19" y="-0.23" class="st0" width="300.19" height="301.23"/>
<g>
	<g>
		<path class="st1" d="M27.61,174.6c-0.36-0.91-0.66-1.85-0.93-2.8c-0.64-2.27-1.08-4.61-1.28-6.96c-0.26-3-0.13-6.05,0.59-8.98
			c0.81-3.29,2.39-6.36,4.71-8.84c2.97-3.19,6.94-5.27,11.06-6.56c6.31-1.98,13.08-2.35,19.65-2.13c5.64,0.18,11.24,1.02,16.89,1.16
			c5.63,0.14,11.26,0.18,16.89,0.05c0.23-0.01,0.46-0.01,0.69-0.02c7.68-0.21,15.36-0.69,23-1.56c8.3-0.94,16.57-2.31,24.65-4.42
			c2.84-0.74,5.66-1.58,8.44-2.54c3.52-1.22,6.96-2.7,10.58-3.61c1.79-0.45,3.58-0.88,5.38-1.29c5.32-1.22,10.67-2.3,16.04-3.24
			c6.98-1.23,13.99-2.23,21.04-2.95c7.83-0.8,15.69-1.27,23.56-1.25c7.9,0.03,15.82,0.54,23.62,1.87
			c7.28,1.25,14.51,3.22,21.19,6.41c0.45,0.21,0.89,0.43,1.33,0.65"/>
		<path class="st1" d="M274.72,127.58c-0.42-0.21-0.85-0.38-1.27-0.55c-6.48-2.6-13.34-4.19-20.5-4.98
			c-7.57-0.84-15.31-1.05-23.13-0.78c-7.73,0.26-15.53,0.92-23.35,1.87c-6.99,0.83-13.99,1.88-21.01,3.1
			c-5.36,0.93-10.71,1.97-16.06,3.12c-1.8,0.39-3.59,0.79-5.38,1.21c-3.62,0.85-7.07,2.23-10.61,3.35c-2.78,0.89-5.6,1.65-8.46,2.33
			c-8.05,1.92-16.31,3.1-24.63,3.83c-7.59,0.69-15.24,1-22.92,1.02c-0.23,0-0.46,0-0.69,0c-3.34,0.01-6.69-0.09-10.03-0.16
			c-2.15-0.04-4.41-0.17-6.75-0.3c-5.55-0.32-11.15-1.2-16.8-1.5c-6.58-0.34-13.36-0.1-19.64,1.82c-3.07,0.93-6.03,2.32-8.55,4.32
			c-0.88,0.69-1.72,1.44-2.49,2.27c-1.36,1.44-2.5,3.05-3.42,4.78c-0.69,1.3-1.25,2.66-1.68,4.05c-0.89,2.88-1.23,5.86-1.22,8.73
			c0,0.76,0.03,1.52,0.09,2.26c0.07,0.98,0.18,1.96,0.33,2.9c0.04,0.25,0.08,0.5,0.13,0.76c0.04,0.23,0.08,0.46,0.14,0.69
			c0.2,0.95,0.47,1.95,0.8,2.86"/>
		<path class="st1" d="M274.72,127.58c-0.39-0.2-0.81-0.31-1.22-0.44c-6.25-1.99-12.76-3.23-19.81-3.56
			c-7.34-0.34-14.9-0.26-22.64,0.3c-7.59,0.55-15.31,1.43-23.14,2.5c-6.93,0.95-13.92,2.04-20.98,3.26c-5.34,0.92-10.7,1.93-16.08,3
			c-1.8,0.36-3.59,0.74-5.39,1.13c-3.62,0.79-7.08,2.07-10.64,3.1c-2.78,0.81-5.61,1.5-8.47,2.11c-8.03,1.71-16.27,2.69-24.6,3.23
			c-7.55,0.5-15.17,0.66-22.84,0.48c-0.23,0-0.45-0.01-0.68-0.01c-3.32-0.07-6.65-0.28-9.99-0.39c-2.03-0.07-4.29-0.27-6.7-0.48
			c-5.45-0.49-11.05-1.42-16.71-1.83c-6.58-0.47-13.38-0.35-19.63,1.51c-3.09,0.91-6.05,2.3-8.53,4.33
			c-0.86,0.7-1.71,1.46-2.49,2.27c-1.4,1.47-2.6,3.09-3.6,4.8c-0.75,1.29-1.38,2.64-1.89,4.01c-1.06,2.84-1.62,5.74-1.85,8.49
			c-0.06,0.73-0.1,1.45-0.11,2.15c-0.02,0.93,0,1.85,0.06,2.72c0.02,0.23,0.03,0.46,0.05,0.71c0.02,0.22,0.04,0.45,0.08,0.69
			c0.14,0.95,0.37,2.02,0.68,2.93"/>
		<path class="st1" d="M274.72,127.58c-0.37-0.19-0.77-0.24-1.17-0.33c-5.99-1.37-12.17-2.27-19.12-2.13
			c-7.1,0.14-14.49,0.53-22.15,1.39c-7.45,0.84-15.1,1.92-22.93,3.12c-6.87,1.06-13.85,2.2-20.94,3.41
			c-5.32,0.91-10.69,1.88-16.09,2.88c-1.8,0.34-3.6,0.69-5.4,1.05c-3.61,0.73-7.1,1.9-10.67,2.84c-2.79,0.73-5.62,1.35-8.48,1.89
			c-8,1.5-16.23,2.29-24.58,2.64c-7.51,0.32-15.1,0.29-22.76-0.05c-0.23-0.01-0.45-0.02-0.68-0.03c-3.3-0.14-6.61-0.47-9.94-0.62
			c-1.91-0.08-4.16-0.37-6.65-0.67c-5.35-0.64-10.95-1.65-16.62-2.17c-6.59-0.6-13.4-0.58-19.62,1.2c-3.1,0.89-6.06,2.27-8.51,4.34
			c-0.85,0.71-1.71,1.47-2.49,2.27c-1.44,1.5-2.71,3.12-3.78,4.83c-0.81,1.29-1.51,2.62-2.1,3.97c-1.22,2.8-2,5.62-2.47,8.24
			c-0.12,0.7-0.23,1.38-0.31,2.05c-0.11,0.88-0.19,1.74-0.21,2.55c-0.01,0.21-0.02,0.43-0.02,0.66c0,0.21,0,0.44,0.02,0.68
			c0.08,0.96,0.28,2.08,0.56,3"/>
		<path class="st1" d="M274.72,127.58c-0.35-0.18-0.72-0.24-1.11-0.22c-5.43-1.85-11.56-1.32-18.43-0.71
			c-6.84,0.61-14.08,1.32-21.67,2.48c-7.31,1.12-14.89,2.41-22.72,3.75c-6.81,1.16-13.78,2.35-20.91,3.56
			c-5.31,0.9-10.68,1.83-16.11,2.76c-1.8,0.32-3.6,0.64-5.41,0.96c-3.61,0.67-7.11,1.74-10.7,2.59c-2.79,0.66-5.62,1.21-8.49,1.67
			c-7.97,1.3-16.19,1.89-24.55,2.04c-7.46,0.14-15.03-0.06-22.67-0.59c-0.22-0.02-0.45-0.03-0.67-0.04
			c-3.29-0.22-6.57-0.67-9.89-0.85c-1.79-0.1-4.04-0.46-6.59-0.85c-5.25-0.79-10.85-1.87-16.53-2.51
			c-6.59-0.73-13.42-0.83-19.61,0.89c-3.12,0.86-6.07,2.25-8.5,4.36c-0.84,0.72-1.7,1.48-2.48,2.28c-1.48,1.52-2.81,3.15-3.96,4.85
			c-0.86,1.28-1.64,2.6-2.31,3.93c-1.39,2.75-2.38,5.49-3.1,8c-0.19,0.66-0.36,1.31-0.51,1.94c-0.2,0.82-0.37,1.64-0.49,2.37
			c-0.03,0.19-0.07,0.39-0.09,0.62c-0.02,0.2-0.04,0.43-0.03,0.67c0.01,0.96,0.19,2.15,0.43,3.06"/>
		<path class="st1" d="M274.72,127.58c-0.32-0.16-0.67-0.19-1.06-0.11c-5.12-1.52-10.94-0.38-17.74,0.71
			c-6.58,1.06-13.67,2.11-21.18,3.57c-7.17,1.4-14.67,2.9-22.51,4.37c-6.75,1.27-13.71,2.51-20.88,3.71
			c-5.29,0.89-10.67,1.77-16.13,2.65c-1.8,0.29-3.6,0.58-5.41,0.88c-3.61,0.6-7.12,1.58-10.73,2.33c-2.79,0.58-5.63,1.06-8.5,1.46
			c-7.94,1.1-16.15,1.5-24.53,1.45c-7.42-0.04-14.95-0.42-22.59-1.12c-0.22-0.02-0.45-0.04-0.67-0.06c-3.27-0.3-6.53-0.86-9.84-1.08
			c-1.67-0.11-3.91-0.56-6.54-1.03c-5.15-0.93-10.75-2.09-16.44-2.84c-6.59-0.86-13.44-1.07-19.6,0.58
			c-3.13,0.84-6.07,2.23-8.48,4.37c-0.82,0.73-1.7,1.49-2.48,2.28c-1.52,1.55-2.91,3.19-4.14,4.88c-0.92,1.28-1.76,2.58-2.52,3.89
			c-1.56,2.71-2.76,5.37-3.72,7.75c-0.25,0.63-0.49,1.24-0.71,1.83c-0.28,0.77-0.55,1.53-0.76,2.19c-0.06,0.17-0.12,0.35-0.17,0.57
			c-0.04,0.19-0.08,0.42-0.09,0.67c-0.05,0.97,0.09,2.21,0.31,3.13"/>
		<path class="st1" d="M274.72,127.58c-0.3-0.15-0.63-0.14-1,0c-4.81-1.18-10.31,0.54-17.05,2.14c-6.31,1.5-13.26,2.89-20.69,4.66
			c-7.03,1.68-14.46,3.38-22.3,5c-6.7,1.38-13.64,2.67-20.84,3.86c-5.27,0.88-10.65,1.72-16.14,2.53c-1.8,0.27-3.61,0.53-5.42,0.8
			c-3.6,0.54-7.13,1.41-10.76,2.07c-2.79,0.51-5.63,0.91-8.51,1.24c-7.91,0.9-16.1,1.1-24.51,0.85c-7.37-0.22-14.88-0.77-22.51-1.66
			c-0.22-0.03-0.44-0.05-0.67-0.08c-3.25-0.37-6.48-1.05-9.79-1.31c-1.55-0.12-3.78-0.65-6.49-1.21
			c-5.05-1.06-10.65-2.32-16.35-3.18c-6.6-0.99-13.46-1.32-19.59,0.27c-3.15,0.82-6.08,2.2-8.46,4.39c-0.81,0.74-1.69,1.5-2.48,2.28
			c-1.56,1.57-3.01,3.22-4.32,4.91c-0.98,1.27-1.89,2.56-2.73,3.85c-1.73,2.66-3.15,5.25-4.35,7.51c-0.32,0.6-0.62,1.17-0.91,1.72
			c-0.37,0.72-0.73,1.42-1.03,2.01c-0.08,0.16-0.17,0.31-0.24,0.52c-0.07,0.18-0.12,0.41-0.14,0.66c-0.11,0.97,0,2.28,0.19,3.2"/>
		<path class="st1" d="M274.72,127.58c-0.28-0.14-0.59-0.09-0.95,0.11c-4.49-0.84-9.68,1.45-16.36,3.56
			c-6.03,1.91-12.85,3.67-20.2,5.75c-6.88,1.95-14.25,3.87-22.09,5.62c-6.64,1.48-13.57,2.82-20.81,4.02
			c-5.25,0.87-10.64,1.67-16.16,2.41c-1.8,0.24-3.61,0.48-5.43,0.72c-3.6,0.48-7.14,1.25-10.79,1.82c-2.79,0.43-5.64,0.76-8.53,1.02
			c-7.88,0.7-16.06,0.71-24.48,0.26c-7.32-0.39-14.81-1.12-22.43-2.19c-0.22-0.03-0.44-0.06-0.66-0.09
			c-3.23-0.45-6.44-1.24-9.75-1.54c-1.43-0.13-3.66-0.74-6.44-1.4c-4.95-1.18-10.55-2.54-16.26-3.52
			c-6.6-1.12-13.49-1.57-19.58-0.05c-3.16,0.79-6.09,2.18-8.44,4.4c-0.8,0.75-1.69,1.51-2.47,2.29c-1.6,1.6-3.11,3.25-4.5,4.93
			c-1.04,1.26-2.02,2.55-2.94,3.81c-1.9,2.62-3.53,5.13-4.97,7.26c-0.38,0.56-0.76,1.1-1.11,1.61c-0.46,0.66-0.92,1.32-1.31,1.83
			c-0.1,0.14-0.22,0.27-0.32,0.47c-0.09,0.17-0.16,0.4-0.2,0.65c-0.17,0.97-0.1,2.34,0.06,3.26"/>
		<path class="st1" d="M274.72,127.58c-0.25-0.13-0.55-0.04-0.9,0.22c-4.18-0.51-9.05,2.34-15.66,4.99
			c-5.76,2.31-12.44,4.44-19.71,6.84c-6.74,2.22-14.03,4.36-21.88,6.25c-6.58,1.59-13.5,2.98-20.78,4.17
			c-5.24,0.86-10.63,1.62-16.18,2.29c-1.8,0.22-3.61,0.43-5.44,0.64c-3.6,0.41-7.15,1.09-10.82,1.56c-2.79,0.36-5.64,0.62-8.54,0.8
			c-7.85,0.5-16.02,0.32-24.46-0.34c-7.28-0.57-14.73-1.47-22.35-2.73c-0.22-0.04-0.44-0.07-0.66-0.11
			c-3.21-0.52-6.39-1.43-9.7-1.78c-1.31-0.14-3.53-0.82-6.38-1.58c-4.85-1.29-10.46-2.76-16.17-3.85
			c-6.61-1.25-13.51-1.81-19.57-0.36c-3.18,0.76-6.1,2.15-8.43,4.42c-0.78,0.76-1.68,1.51-2.47,2.29c-1.64,1.62-3.21,3.28-4.68,4.96
			c-1.1,1.26-2.15,2.53-3.15,3.77c-2.07,2.58-3.91,5.01-5.6,7.02c-0.45,0.53-0.89,1.03-1.31,1.5c-0.55,0.61-1.1,1.21-1.58,1.65
			c-0.13,0.12-0.27,0.24-0.39,0.43c-0.11,0.16-0.2,0.39-0.26,0.64c-0.23,0.98-0.19,2.41-0.06,3.33"/>
		<path class="st1" d="M274.72,127.58c-0.23-0.12-0.51,0-0.84,0.32c-3.87-0.17-8.42,3.21-14.97,6.41
			c-5.49,2.69-12.02,5.22-19.23,7.93c-6.6,2.48-13.82,4.84-21.67,6.87c-6.52,1.69-13.43,3.14-20.75,4.32
			c-5.22,0.85-10.62,1.57-16.19,2.17c-1.8,0.19-3.61,0.38-5.45,0.56c-3.6,0.35-7.17,0.93-10.85,1.31c-2.79,0.29-5.65,0.47-8.55,0.58
			c-7.82,0.3-15.97-0.07-24.43-0.93c-7.23-0.74-14.66-1.81-22.27-3.27c-0.22-0.04-0.44-0.08-0.65-0.12
			c-3.19-0.6-6.35-1.62-9.65-2.01c-1.19-0.14-3.4-0.9-6.33-1.76c-4.75-1.4-10.36-2.99-16.08-4.19c-6.61-1.38-13.53-2.06-19.56-0.67
			c-3.2,0.74-6.11,2.12-8.41,4.43c-0.77,0.77-1.68,1.52-2.47,2.3c-1.68,1.65-3.31,3.32-4.86,4.98c-1.16,1.25-2.28,2.51-3.36,3.73
			c-2.23,2.53-4.29,4.89-6.23,6.77c-0.51,0.5-1.02,0.96-1.51,1.39c-0.63,0.56-1.28,1.1-1.85,1.48c-0.15,0.1-0.31,0.2-0.46,0.38
			c-0.13,0.15-0.23,0.37-0.31,0.64c-0.29,0.98-0.28,2.48-0.18,3.4"/>
		<path class="st1" d="M274.72,127.58c-0.21-0.11-0.46,0.05-0.79,0.43c-3.55,0.16-7.8,4.06-14.28,7.84
			c-5.23,3.05-11.61,5.98-18.74,9.02c-6.46,2.75-13.61,5.32-21.46,7.5c-6.46,1.79-13.36,3.29-20.71,4.47
			c-5.2,0.84-10.6,1.52-16.21,2.05c-1.8,0.17-3.62,0.33-5.45,0.48c-3.59,0.29-7.18,0.77-10.88,1.05c-2.79,0.21-5.65,0.33-8.56,0.37
			c-7.79,0.11-15.93-0.46-24.41-1.53c-7.19-0.91-14.59-2.16-22.19-3.8c-0.22-0.05-0.43-0.09-0.65-0.14c-3.17-0.67-6.3-1.81-9.6-2.24
			c-1.07-0.14-3.28-0.98-6.28-1.95c-4.66-1.5-10.26-3.21-15.99-4.53c-6.61-1.51-13.55-2.31-19.55-0.98
			c-3.21,0.71-6.12,2.1-8.39,4.44c-0.76,0.78-1.68,1.53-2.46,2.3c-1.72,1.67-3.42,3.35-5.04,5.01c-1.21,1.25-2.41,2.49-3.57,3.69
			c-2.4,2.49-4.68,4.77-6.85,6.53c-0.58,0.47-1.15,0.89-1.7,1.28c-0.72,0.51-1.47,1-2.13,1.3c-0.18,0.08-0.36,0.16-0.54,0.33
			c-0.15,0.15-0.27,0.36-0.37,0.63c-0.35,0.98-0.38,2.54-0.3,3.46"/>
		<path class="st1" d="M274.72,127.58c-0.19-0.09-0.42,0.1-0.73,0.54c-3.24,0.5-7.2,4.89-13.59,9.26
			c-4.98,3.4-11.21,6.75-18.25,10.1c-6.32,3.01-13.39,5.8-21.25,8.12c-6.41,1.89-13.29,3.45-20.68,4.62
			c-5.19,0.83-10.59,1.47-16.23,1.93c-1.8,0.15-3.62,0.28-5.46,0.4c-3.59,0.23-7.19,0.61-10.91,0.8c-2.8,0.14-5.65,0.18-8.57,0.15
			c-7.76-0.09-15.89-0.84-24.38-2.12c-7.14-1.08-14.51-2.51-22.11-4.34c-0.22-0.05-0.43-0.1-0.65-0.15c-3.15-0.75-6.25-2-9.55-2.47
			c-0.95-0.13-3.15-1.05-6.22-2.13c-4.56-1.6-10.16-3.43-15.9-4.86c-6.62-1.64-13.57-2.56-19.54-1.29
			c-3.23,0.69-6.13,2.07-8.38,4.46c-0.75,0.79-1.67,1.54-2.46,2.3c-1.76,1.7-3.52,3.38-5.22,5.03c-1.27,1.24-2.53,2.47-3.77,3.65
			c-2.57,2.44-5.06,4.65-7.48,6.28c-0.64,0.43-1.28,0.82-1.9,1.18c-0.81,0.45-1.65,0.89-2.4,1.12c-0.2,0.06-0.41,0.12-0.61,0.29
			c-0.17,0.14-0.31,0.35-0.42,0.62c-0.41,0.99-0.47,2.61-0.43,3.53"/>
		<path class="st1" d="M274.72,127.58c-0.16-0.08-0.38,0.15-0.68,0.65c-2.93,0.83-6.61,5.72-12.9,10.69
			c-4.75,3.75-10.8,7.51-17.76,11.19c-6.18,3.26-13.18,6.28-21.04,8.75c-6.35,1.99-13.22,3.61-20.65,4.78
			c-5.17,0.82-10.58,1.42-16.24,1.81c-1.8,0.12-3.62,0.23-5.47,0.32c-3.59,0.17-7.2,0.45-10.94,0.54c-2.8,0.07-5.66,0.04-8.58-0.07
			c-7.73-0.28-15.85-1.23-24.36-2.72c-7.1-1.25-14.44-2.85-22.03-4.87c-0.21-0.06-0.43-0.11-0.64-0.17
			c-3.13-0.83-6.19-2.19-9.51-2.7c-0.83-0.13-3.03-1.12-6.17-2.31c-4.47-1.69-10.06-3.65-15.81-5.2c-6.62-1.77-13.6-2.81-19.53-1.6
			c-3.24,0.66-6.15,2.05-8.36,4.47c-0.73,0.8-1.67,1.55-2.46,2.31c-1.81,1.72-3.62,3.41-5.4,5.06c-1.33,1.23-2.66,2.45-3.98,3.61
			c-2.74,2.4-5.44,4.52-8.1,6.03c-0.7,0.4-1.41,0.75-2.1,1.07c-0.89,0.4-1.84,0.78-2.67,0.94c-0.23,0.04-0.46,0.09-0.69,0.24
			c-0.19,0.13-0.35,0.34-0.48,0.62c-0.47,0.99-0.57,2.67-0.55,3.59"/>
		<path class="st1" d="M274.72,127.58c-0.14-0.07-0.34,0.2-0.62,0.76c-2.61,1.17-6.03,6.53-12.21,12.11
			c-4.52,4.09-10.39,8.27-17.28,12.28c-6.04,3.52-12.97,6.76-20.83,9.37c-6.29,2.09-13.15,3.77-20.62,4.93
			c-5.15,0.81-10.57,1.37-16.26,1.69c-1.8,0.1-3.63,0.18-5.48,0.24c-3.58,0.11-7.21,0.29-10.97,0.28c-2.8,0-5.66-0.11-8.59-0.29
			c-7.69-0.47-15.8-1.61-24.33-3.32c-7.05-1.41-14.37-3.2-21.95-5.41c-0.21-0.06-0.43-0.12-0.64-0.18c-3.11-0.9-6.14-2.38-9.46-2.93
			c-0.71-0.12-2.91-1.19-6.12-2.5c-4.38-1.78-9.96-3.88-15.73-5.54c-6.63-1.9-13.62-3.06-19.52-1.91c-3.26,0.63-6.16,2.02-8.34,4.49
			c-0.72,0.81-1.66,1.56-2.45,2.31c-1.85,1.75-3.72,3.45-5.58,5.09c-1.39,1.23-2.79,2.43-4.19,3.57c-2.91,2.35-5.82,4.4-8.73,5.79
			c-0.77,0.37-1.54,0.69-2.3,0.96c-0.98,0.35-2.02,0.68-2.95,0.76c-0.25,0.02-0.51,0.05-0.76,0.19c-0.21,0.12-0.39,0.33-0.54,0.61
			c-0.52,1-0.66,2.74-0.67,3.66"/>
		<path class="st1" d="M274.72,127.58c-0.12-0.06-0.3,0.25-0.57,0.87c-2.3,1.5-5.48,7.33-11.52,13.54
			c-4.3,4.42-9.99,9.03-16.79,13.37c-5.91,3.77-12.76,7.24-20.62,10c-6.24,2.19-13.08,3.92-20.58,5.08
			c-5.13,0.8-10.55,1.33-16.28,1.57c-1.8,0.08-3.63,0.13-5.48,0.16c-3.58,0.05-7.22,0.13-11,0.03c-2.8-0.08-5.67-0.25-8.61-0.51
			c-7.66-0.66-15.76-1.99-24.31-3.91c-7.01-1.58-14.3-3.54-21.87-5.95c-0.21-0.07-0.42-0.13-0.63-0.2
			c-3.09-0.98-6.09-2.57-9.41-3.16c-0.59-0.1-2.8-1.25-6.07-2.68c-4.29-1.87-9.87-4.1-15.64-5.87c-6.63-2.03-13.64-3.31-19.51-2.23
			c-3.28,0.61-6.17,1.99-8.32,4.5c-0.71,0.82-1.66,1.57-2.45,2.32c-1.89,1.77-3.82,3.48-5.76,5.11c-1.45,1.22-2.92,2.41-4.4,3.53
			c-3.07,2.31-6.21,4.28-9.36,5.54c-0.83,0.33-1.67,0.62-2.5,0.85c-1.07,0.3-2.2,0.57-3.22,0.59c-0.27,0-0.56,0.01-0.84,0.14
			c-0.23,0.11-0.43,0.32-0.59,0.6c-0.58,1-0.75,2.8-0.8,3.73"/>
		<path class="st1" d="M274.72,127.58c-0.09-0.05-0.26,0.3-0.52,0.98c-1.99,1.84-4.95,8.13-10.83,14.96
			c-4.1,4.76-9.59,9.79-16.3,14.46c-5.78,4.03-12.55,7.72-20.41,10.62c-6.18,2.28-13.01,4.08-20.55,5.23
			c-5.12,0.79-10.54,1.29-16.29,1.45c-1.8,0.06-3.63,0.08-5.49,0.08c-3.58,0-7.23-0.03-11.02-0.23c-2.8-0.15-5.67-0.39-8.62-0.72
			c-7.63-0.85-15.72-2.37-24.28-4.51c-6.97-1.74-14.23-3.88-21.79-6.48c-0.21-0.07-0.42-0.14-0.63-0.22
			c-3.07-1.05-6.2-2.18-9.36-3.39c-0.48,0-2.68-1.31-6.01-2.86c-4.21-1.95-9.77-4.32-15.55-6.21c-6.64-2.16-13.66-3.56-19.49-2.54
			c-3.29,0.58-6.18,1.96-8.31,4.52c-0.7,0.83-1.65,1.58-2.45,2.32c-1.93,1.79-3.92,3.51-5.94,5.14c-1.51,1.22-3.05,2.4-4.61,3.49
			c-3.24,2.27-6.59,4.16-9.98,5.3c-0.9,0.3-1.8,0.55-2.7,0.74c-1.15,0.25-2.39,0.46-3.49,0.41c-0.3-0.02-0.61-0.02-0.91,0.1
			c-0.25,0.1-0.47,0.31-0.65,0.59c-0.64,1.01-0.85,2.87-0.92,3.79"/>
		<path class="st1" d="M274.72,127.58c-0.07-0.04-0.1,0.4-0.46,1.09c-1.29,2.42-4.43,8.93-10.13,16.39
			c-3.91,5.1-9.2,10.54-15.81,15.55c-5.65,4.28-12.34,8.19-20.19,11.25c-6.12,2.38-12.94,4.24-20.52,5.38
			c-5.1,0.78-10.53,1.24-16.31,1.33c-1.8,0.03-3.63,0.03-5.5,0c-3.57-0.06-7.24-0.18-11.05-0.48c-2.8-0.22-5.68-0.54-8.63-0.94
			c-7.6-1.04-15.68-2.74-24.26-5.1c-6.92-1.9-14.16-4.22-21.71-7.02c-0.21-0.08-0.42-0.15-0.63-0.23c-3.06-1.13-6.16-2.34-9.32-3.62
			c-0.36,0-2.57-1.37-5.96-3.04c-4.13-2.04-9.67-4.55-15.46-6.55c-6.64-2.29-13.69-3.81-19.48-2.85c-3.31,0.55-6.2,1.94-8.29,4.53
			c-0.68,0.84-1.65,1.59-2.45,2.32c-1.97,1.82-4.02,3.54-6.12,5.16c-1.56,1.21-3.18,2.38-4.82,3.45c-3.41,2.22-6.97,4.04-10.61,5.05
			c-0.96,0.27-1.93,0.48-2.9,0.63c-1.24,0.2-2.57,0.35-3.77,0.23c-0.32-0.03-0.66-0.06-0.98,0.05c-0.27,0.09-0.51,0.3-0.7,0.59
			c-0.7,1.01-0.94,2.93-1.04,3.86"/>
		<path class="st1" d="M274.72,127.58c-0.05-0.02-0.09,0.43-0.41,1.2c-1.09,2.64-3.92,9.74-9.44,17.81
			c-3.72,5.45-8.8,11.29-15.33,16.64c-5.52,4.53-12.13,8.67-19.98,11.87c-6.07,2.48-12.87,4.39-20.49,5.54
			c-5.08,0.77-10.52,1.19-16.33,1.21c-1.8,0.01-3.64-0.02-5.51-0.09c-3.57-0.12-7.26-0.33-11.08-0.74c-2.8-0.29-5.68-0.68-8.64-1.16
			c-7.58-1.23-15.64-3.12-24.23-5.7c-6.88-2.07-14.09-4.55-21.63-7.55c-0.21-0.08-0.42-0.16-0.62-0.25
			c-3.04-1.2-6.13-2.49-9.27-3.85c-0.24,0-2.46-1.42-5.91-3.23c-4.05-2.12-9.57-4.77-15.37-6.89c-6.64-2.42-13.71-4.08-19.47-3.16
			c-3.32,0.52-6.21,1.91-8.27,4.54c-0.67,0.85-1.65,1.6-2.44,2.33c-2.02,1.84-4.12,3.58-6.3,5.19c-1.62,1.21-3.3,2.36-5.03,3.41
			c-3.58,2.18-7.35,3.92-11.23,4.81c-1.03,0.24-2.06,0.41-3.1,0.52c-1.33,0.14-2.75,0.25-4.04,0.05c-0.35-0.05-0.71-0.1-1.06,0
			c-0.3,0.09-0.55,0.29-0.76,0.58c-0.75,1.02-1.04,3-1.17,3.93"/>
		<path class="st1" d="M274.72,127.58c-0.02-0.01-0.09,0.46-0.35,1.3c-0.91,2.89-3.43,10.54-8.75,19.23
			c-3.55,5.8-8.41,12.04-14.84,17.73c-5.4,4.77-11.93,9.13-19.77,12.5c-6.02,2.56-12.8,4.55-20.45,5.69
			c-5.07,0.75-10.51,1.14-16.34,1.09c-1.8-0.01-3.64-0.07-5.52-0.17c-3.57-0.18-7.27-0.49-11.11-0.99
			c-2.81-0.36-5.69-0.82-8.65-1.38c-7.55-1.41-15.61-3.48-24.21-6.29c-6.84-2.21-14.02-4.9-21.55-8.09
			c-0.21-0.09-0.41-0.17-0.62-0.26c-3.02-1.28-6.09-2.64-9.22-4.09c-0.12,0-2.35-1.47-5.86-3.41c-3.97-2.2-9.47-4.99-15.28-7.22
			c-6.65-2.55-13.73-4.32-19.46-3.47c-3.34,0.49-6.22,1.89-8.25,4.56c-0.66,0.86-1.64,1.61-2.44,2.33
			c-2.06,1.86-4.23,3.61-6.48,5.21c-1.68,1.2-3.43,2.34-5.24,3.37c-3.75,2.13-7.74,3.8-11.86,4.56c-1.09,0.2-2.19,0.34-3.3,0.41
			c-1.42,0.09-2.93,0.14-4.31-0.13c-0.37-0.07-0.76-0.14-1.13-0.05c-0.32,0.08-0.59,0.28-0.82,0.57c-0.81,1.02-1.13,3.06-1.29,3.99"
			/>
		<path class="st1" d="M274.72,127.58c0,0-18.78,106.58-159.82,37.63c0,0-37.56-25.39-48.68-10.36c-0.65,0.87-1.64,1.62-2.44,2.33
			c-2.1,1.89-4.33,3.64-6.66,5.24c-6.3,4.32-13.67,7.75-21.43,7.95c-1.5,0.04-3.12,0.03-4.59-0.31c-0.4-0.09-0.81-0.17-1.21-0.09
			c-1.53,0.31-2.04,3.43-2.28,4.62"/>
	</g>
	<g>
		<path class="st2" d="M82.15,186.8c-0.15-0.39-0.27-0.79-0.38-1.19c-0.26-0.97-0.44-1.96-0.53-2.96c-0.11-1.27-0.05-2.57,0.24-3.81
			c0.33-1.4,0.98-2.7,1.93-3.76c1.22-1.36,2.84-2.24,4.53-2.79c2.59-0.84,5.36-1,8.05-0.91c2.31,0.08,4.6,0.43,6.92,0.49
			c2.31,0.06,4.61,0.08,6.92,0.02c0.09,0,0.19,0,0.28-0.01c3.15-0.09,6.29-0.29,9.42-0.66c3.4-0.4,6.79-0.98,10.1-1.88
			c1.17-0.32,2.32-0.67,3.46-1.08c1.44-0.52,2.85-1.15,4.33-1.53c0.73-0.19,1.47-0.37,2.2-0.55c2.18-0.52,4.37-0.98,6.57-1.38
			c2.86-0.52,5.73-0.95,8.62-1.25c3.21-0.34,6.43-0.54,9.65-0.53c3.24,0.01,6.48,0.23,9.67,0.8c2.98,0.53,5.94,1.37,8.68,2.72
			c0.18,0.09,0.36,0.18,0.54,0.28"/>
		<path class="st2" d="M183.36,166.84c-0.17-0.09-0.35-0.16-0.52-0.23c-2.65-1.12-5.46-1.79-8.39-2.13
			c-3.1-0.36-6.27-0.45-9.46-0.34c-3.17,0.11-6.36,0.4-9.56,0.8c-2.86,0.35-5.73,0.8-8.6,1.32c-2.19,0.4-4.39,0.84-6.58,1.33
			c-0.74,0.17-1.47,0.34-2.2,0.51c-1.48,0.36-2.9,0.95-4.35,1.43c-1.14,0.38-2.3,0.7-3.47,0.99c-3.3,0.82-6.69,1.32-10.09,1.63
			c-3.11,0.29-6.25,0.43-9.39,0.43c-0.09,0-0.19,0-0.28,0c-1.42,0-2.83-0.04-4.25-0.07c-0.83-0.02-1.71-0.07-2.62-0.12
			c-2.27-0.14-4.56-0.51-6.88-0.64c-2.69-0.15-5.47-0.04-8.05,0.77c-1.26,0.4-2.48,0.99-3.51,1.84c-0.36,0.29-0.7,0.61-1.02,0.96
			c-0.56,0.62-1.03,1.31-1.41,2.05c-0.28,0.55-0.5,1.12-0.68,1.7c-0.36,1.22-0.51,2.49-0.5,3.71c0,0.32,0.01,0.63,0.03,0.94
			c0.03,0.41,0.07,0.82,0.13,1.22c0.02,0.11,0.03,0.21,0.05,0.32c0.02,0.11,0.04,0.22,0.06,0.33c0.08,0.4,0.19,0.83,0.33,1.21"/>
		<path class="st2" d="M183.36,166.84c-0.16-0.09-0.33-0.13-0.5-0.19c-2.56-0.87-5.22-1.38-8.1-1.53c-3-0.15-6.09-0.12-9.26,0.12
			c-3.11,0.24-6.26,0.61-9.47,1.07c-2.84,0.41-5.7,0.87-8.59,1.4c-2.19,0.4-4.39,0.82-6.59,1.28c-0.74,0.16-1.47,0.31-2.21,0.48
			c-1.48,0.34-2.9,0.88-4.36,1.32c-1.14,0.35-2.3,0.64-3.47,0.9c-3.29,0.72-6.67,1.14-10.09,1.37c-3.09,0.21-6.22,0.27-9.36,0.21
			c-0.09,0-0.19,0-0.28-0.01c-1.41-0.03-2.82-0.13-4.24-0.17c-0.79-0.03-1.66-0.11-2.6-0.19c-2.23-0.21-4.52-0.61-6.85-0.78
			c-2.7-0.2-5.49-0.15-8.05,0.64c-1.27,0.39-2.48,0.98-3.5,1.84c-0.35,0.3-0.7,0.62-1.02,0.96c-0.58,0.63-1.07,1.32-1.48,2.06
			c-0.3,0.54-0.56,1.11-0.76,1.68c-0.43,1.21-0.66,2.44-0.76,3.61c-0.02,0.3-0.04,0.6-0.05,0.9c-0.01,0.39,0,0.78,0.02,1.15
			c0.01,0.1,0.01,0.2,0.02,0.3c0.01,0.1,0.02,0.21,0.04,0.32c0.06,0.41,0.16,0.85,0.28,1.24"/>
		<path class="st2" d="M183.36,166.84c-0.15-0.08-0.31-0.11-0.48-0.15c-2.45-0.62-4.98-0.98-7.82-0.93
			c-2.9,0.05-5.92,0.21-9.05,0.58c-3.05,0.36-6.17,0.82-9.37,1.34c-2.81,0.45-5.67,0.95-8.58,1.47c-2.18,0.39-4.38,0.8-6.6,1.24
			c-0.74,0.15-1.47,0.29-2.21,0.45c-1.48,0.31-2.91,0.81-4.37,1.21c-1.14,0.31-2.31,0.58-3.48,0.8c-3.28,0.64-6.66,0.97-10.08,1.12
			c-3.08,0.13-6.19,0.12-9.33-0.02c-0.09,0-0.19-0.01-0.28-0.01c-1.4-0.06-2.8-0.21-4.22-0.28c-0.74-0.03-1.61-0.15-2.58-0.27
			c-2.19-0.27-4.48-0.7-6.81-0.93c-2.7-0.26-5.5-0.25-8.05,0.5c-1.28,0.38-2.49,0.96-3.5,1.85c-0.35,0.3-0.7,0.62-1.01,0.96
			c-0.59,0.64-1.12,1.34-1.56,2.07c-0.33,0.54-0.61,1.1-0.85,1.67c-0.5,1.19-0.82,2.39-1.02,3.5c-0.05,0.29-0.09,0.57-0.13,0.85
			c-0.04,0.37-0.08,0.73-0.09,1.07c0,0.09-0.01,0.18-0.01,0.28c0,0.1,0,0.21,0.01,0.32c0.03,0.41,0.12,0.88,0.23,1.27"/>
		<path class="st2" d="M183.36,166.84c-0.14-0.08-0.29-0.11-0.45-0.1c-2.22-0.8-4.72-0.59-7.53-0.34c-2.79,0.25-5.75,0.54-8.84,1.04
			c-2.99,0.48-6.08,1.03-9.28,1.61c-2.79,0.5-5.64,1.02-8.56,1.54c-2.17,0.39-4.38,0.78-6.61,1.19c-0.74,0.13-1.47,0.27-2.21,0.41
			c-1.48,0.29-2.92,0.74-4.39,1.1c-1.14,0.28-2.31,0.51-3.49,0.71c-3.27,0.55-6.64,0.8-10.08,0.87c-3.06,0.06-6.16-0.03-9.3-0.25
			c-0.09-0.01-0.18-0.01-0.28-0.02c-1.39-0.1-2.79-0.29-4.2-0.38c-0.69-0.04-1.56-0.19-2.56-0.34c-2.15-0.33-4.44-0.8-6.77-1.07
			c-2.7-0.31-5.51-0.36-8.05,0.36c-1.28,0.37-2.49,0.96-3.5,1.86c-0.34,0.31-0.7,0.62-1.01,0.96c-0.61,0.65-1.16,1.35-1.63,2.08
			c-0.35,0.54-0.66,1.09-0.93,1.65c-0.57,1.17-0.98,2.34-1.28,3.4c-0.08,0.28-0.15,0.55-0.21,0.81c-0.08,0.35-0.15,0.69-0.2,1
			c-0.01,0.08-0.03,0.16-0.04,0.26c-0.01,0.09-0.02,0.2-0.01,0.32c0.01,0.41,0.08,0.91,0.18,1.29"/>
		<path class="st2" d="M183.36,166.84c-0.13-0.07-0.28-0.09-0.43-0.06c-2.09-0.66-4.47-0.2-7.24,0.26c-2.68,0.44-5.57,0.87-8.63,1.5
			c-2.93,0.6-5.99,1.24-9.19,1.88c-2.76,0.55-5.62,1.09-8.55,1.61c-2.17,0.39-4.37,0.76-6.62,1.14c-0.74,0.12-1.48,0.25-2.22,0.38
			c-1.48,0.26-2.92,0.68-4.4,1c-1.15,0.25-2.31,0.45-3.49,0.62c-3.26,0.47-6.63,0.64-10.07,0.62c-3.04-0.02-6.13-0.18-9.27-0.48
			c-0.09-0.01-0.18-0.02-0.27-0.03c-1.39-0.13-2.77-0.38-4.18-0.48c-0.65-0.05-1.51-0.22-2.53-0.41c-2.1-0.39-4.4-0.89-6.74-1.22
			c-2.71-0.37-5.52-0.47-8.05,0.23c-1.29,0.36-2.5,0.94-3.49,1.86c-0.34,0.31-0.69,0.63-1.01,0.97c-0.63,0.66-1.2,1.36-1.7,2.09
			c-0.37,0.54-0.71,1.08-1.02,1.63c-0.64,1.15-1.14,2.29-1.53,3.3c-0.1,0.26-0.2,0.52-0.29,0.76c-0.12,0.32-0.23,0.64-0.31,0.92
			c-0.02,0.07-0.05,0.15-0.07,0.24c-0.02,0.09-0.03,0.2-0.04,0.31c-0.01,0.41,0.04,0.93,0.13,1.32"/>
		<path class="st2" d="M183.36,166.84c-0.12-0.07-0.26-0.07-0.41-0.01c-1.96-0.52-4.21,0.19-6.95,0.85c-2.57,0.62-5.4,1.2-8.42,1.96
			c-2.87,0.72-5.9,1.45-9.1,2.15c-2.74,0.6-5.59,1.16-8.54,1.68c-2.16,0.38-4.37,0.74-6.62,1.1c-0.74,0.11-1.48,0.23-2.22,0.35
			c-1.48,0.23-2.93,0.61-4.42,0.89c-1.15,0.22-2.32,0.39-3.5,0.53c-3.25,0.38-6.61,0.47-10.07,0.36c-3.02-0.09-6.1-0.33-9.24-0.71
			c-0.09-0.01-0.18-0.02-0.27-0.03c-1.38-0.16-2.75-0.46-4.16-0.58c-0.6-0.05-1.46-0.26-2.51-0.49c-2.06-0.45-4.36-0.99-6.7-1.36
			c-2.71-0.43-5.53-0.57-8.05,0.09c-1.3,0.34-2.51,0.93-3.49,1.87c-0.33,0.32-0.69,0.63-1.01,0.97c-0.64,0.67-1.24,1.38-1.78,2.1
			c-0.4,0.53-0.77,1.08-1.1,1.62c-0.71,1.13-1.3,2.23-1.79,3.19c-0.13,0.25-0.25,0.49-0.37,0.72c-0.15,0.3-0.3,0.6-0.43,0.85
			c-0.03,0.07-0.07,0.13-0.1,0.22c-0.03,0.08-0.05,0.19-0.06,0.31c-0.04,0.42,0.01,0.96,0.09,1.35"/>
		<path class="st2" d="M183.36,166.84c-0.11-0.06-0.24-0.05-0.39,0.03c-1.83-0.38-3.94,0.57-6.66,1.45
			c-2.45,0.8-5.23,1.53-8.21,2.41c-2.8,0.83-5.81,1.66-9,2.42c-2.72,0.64-5.56,1.23-8.52,1.75c-2.16,0.38-4.37,0.73-6.63,1.05
			c-0.74,0.1-1.48,0.21-2.22,0.31c-1.48,0.21-2.93,0.54-4.43,0.78c-1.15,0.19-2.32,0.33-3.51,0.44c-3.24,0.3-6.6,0.3-10.06,0.11
			c-3.01-0.17-6.08-0.47-9.21-0.93c-0.09-0.01-0.18-0.03-0.27-0.04c-1.37-0.2-2.73-0.55-4.14-0.68c-0.55-0.05-1.41-0.29-2.49-0.56
			c-2.02-0.5-4.32-1.08-6.67-1.51c-2.71-0.48-5.54-0.68-8.05-0.04c-1.31,0.33-2.51,0.92-3.48,1.87c-0.33,0.32-0.69,0.64-1.01,0.97
			c-0.66,0.68-1.28,1.39-1.85,2.11c-0.42,0.53-0.82,1.07-1.19,1.6c-0.78,1.12-1.45,2.18-2.05,3.09c-0.16,0.24-0.31,0.46-0.45,0.67
			c-0.19,0.28-0.38,0.55-0.54,0.77c-0.04,0.06-0.09,0.12-0.13,0.2c-0.04,0.08-0.07,0.19-0.09,0.31c-0.06,0.42-0.03,0.99,0.04,1.37"
			/>
		<path class="st2" d="M183.36,166.84c-0.1-0.06-0.22-0.03-0.36,0.07c-1.71-0.24-3.68,0.94-6.37,2.05c-2.34,0.96-5.05,1.86-8,2.87
			c-2.74,0.95-5.71,1.87-8.91,2.69c-2.69,0.69-5.53,1.3-8.51,1.82c-2.15,0.38-4.36,0.71-6.64,1c-0.74,0.09-1.48,0.19-2.23,0.28
			c-1.48,0.18-2.94,0.47-4.44,0.68c-1.15,0.16-2.32,0.27-3.52,0.35c-3.23,0.21-6.59,0.14-10.06-0.14c-2.99-0.24-6.05-0.62-9.18-1.16
			c-0.09-0.02-0.18-0.03-0.27-0.05c-1.36-0.23-2.71-0.63-4.12-0.78c-0.51-0.06-1.36-0.33-2.47-0.63c-1.98-0.55-4.28-1.18-6.63-1.65
			c-2.71-0.54-5.55-0.79-8.05-0.18c-1.31,0.32-2.52,0.91-3.48,1.88c-0.32,0.32-0.69,0.64-1.01,0.97c-0.68,0.69-1.32,1.4-1.92,2.12
			c-0.44,0.53-0.87,1.06-1.27,1.58c-0.85,1.1-1.61,2.13-2.31,2.99c-0.18,0.22-0.36,0.43-0.53,0.63c-0.22,0.26-0.45,0.51-0.65,0.7
			c-0.05,0.05-0.11,0.1-0.16,0.18c-0.05,0.08-0.09,0.18-0.11,0.31c-0.09,0.42-0.07,1.01-0.01,1.4"/>
		<path class="st2" d="M183.36,166.84c-0.09-0.05-0.21-0.01-0.34,0.12c-1.58-0.1-3.42,1.3-6.08,2.64c-2.23,1.12-4.88,2.18-7.79,3.33
			c-2.68,1.06-5.62,2.08-8.82,2.96c-2.67,0.74-5.5,1.37-8.5,1.89c-2.14,0.37-4.36,0.69-6.65,0.95c-0.74,0.09-1.48,0.17-2.23,0.25
			c-1.48,0.16-2.94,0.41-4.46,0.57c-1.15,0.12-2.33,0.2-3.52,0.25c-3.22,0.13-6.57-0.02-10.05-0.39c-2.97-0.31-6.02-0.77-9.15-1.39
			c-0.09-0.02-0.18-0.03-0.27-0.05c-1.35-0.26-2.69-0.71-4.1-0.89c-0.46-0.06-1.31-0.36-2.45-0.71c-1.93-0.59-4.24-1.27-6.6-1.8
			c-2.72-0.6-5.56-0.9-8.05-0.31c-1.32,0.31-2.53,0.9-3.47,1.89c-0.31,0.33-0.69,0.65-1.01,0.97c-0.69,0.7-1.36,1.41-1.99,2.13
			c-0.47,0.53-0.92,1.05-1.36,1.57c-0.92,1.08-1.77,2.08-2.57,2.88c-0.21,0.21-0.41,0.4-0.61,0.58c-0.26,0.24-0.53,0.46-0.76,0.62
			c-0.06,0.04-0.13,0.08-0.19,0.16c-0.06,0.07-0.1,0.18-0.14,0.3c-0.11,0.42-0.1,1.04-0.06,1.43"/>
		<path class="st2" d="M183.36,166.84c-0.09-0.05-0.19,0.02-0.32,0.16c-1.45,0.04-3.16,1.65-5.8,3.24c-2.12,1.27-4.71,2.5-7.58,3.79
			c-2.62,1.17-5.53,2.29-8.73,3.23c-2.64,0.78-5.47,1.45-8.48,1.97c-2.14,0.37-4.35,0.67-6.66,0.91c-0.74,0.08-1.48,0.15-2.23,0.21
			c-1.48,0.13-2.95,0.34-4.47,0.46c-1.15,0.09-2.33,0.14-3.53,0.16c-3.2,0.05-6.56-0.19-10.05-0.65c-2.95-0.39-5.99-0.92-9.12-1.62
			c-0.09-0.02-0.18-0.04-0.27-0.06c-1.35-0.3-2.67-0.8-4.08-0.99c-0.41-0.06-1.26-0.39-2.42-0.78c-1.89-0.63-4.2-1.37-6.56-1.94
			c-2.72-0.65-5.58-1.01-8.05-0.45c-1.33,0.3-2.53,0.89-3.47,1.89c-0.31,0.33-0.68,0.65-1.01,0.97c-0.71,0.71-1.4,1.43-2.07,2.14
			c-0.49,0.52-0.97,1.05-1.44,1.55c-0.99,1.06-1.93,2.03-2.83,2.78c-0.23,0.19-0.47,0.37-0.69,0.54c-0.3,0.21-0.6,0.42-0.87,0.55
			c-0.07,0.03-0.15,0.07-0.22,0.14c-0.07,0.07-0.12,0.17-0.16,0.3c-0.13,0.42-0.14,1.07-0.11,1.45"/>
		<path class="st2" d="M183.36,166.84c-0.08-0.04-0.17,0.04-0.29,0.21c-1.32,0.18-2.91,2-5.51,3.83c-2.01,1.42-4.53,2.82-7.37,4.25
			c-2.56,1.29-5.44,2.49-8.63,3.5c-2.62,0.83-5.44,1.52-8.47,2.04c-2.13,0.37-4.35,0.65-6.67,0.86c-0.74,0.07-1.48,0.13-2.24,0.18
			c-1.48,0.11-2.95,0.27-4.48,0.35c-1.15,0.06-2.33,0.08-3.54,0.07c-3.19-0.03-6.54-0.35-10.04-0.9c-2.93-0.46-5.96-1.06-9.09-1.84
			c-0.09-0.02-0.18-0.04-0.27-0.06c-1.34-0.33-2.65-0.88-4.06-1.09c-0.37-0.05-1.21-0.42-2.4-0.85c-1.85-0.68-4.16-1.47-6.53-2.09
			c-2.72-0.71-5.59-1.11-8.05-0.58c-1.34,0.29-2.54,0.88-3.46,1.9c-0.3,0.34-0.68,0.65-1.01,0.98c-0.72,0.72-1.44,1.44-2.14,2.15
			c-0.52,0.52-1.03,1.04-1.53,1.53c-1.06,1.04-2.09,1.98-3.08,2.68c-0.26,0.18-0.52,0.34-0.77,0.49c-0.33,0.19-0.68,0.37-0.99,0.47
			c-0.08,0.03-0.17,0.05-0.25,0.12c-0.08,0.06-0.14,0.17-0.19,0.3c-0.16,0.43-0.18,1.09-0.16,1.48"/>
		<path class="st2" d="M183.36,166.84c-0.07-0.04-0.15,0.06-0.27,0.25c-1.19,0.32-2.67,2.34-5.22,4.43
			c-1.91,1.56-4.36,3.14-7.17,4.71c-2.51,1.4-5.35,2.7-8.54,3.77c-2.6,0.87-5.41,1.59-8.46,2.11c-2.12,0.36-4.35,0.64-6.68,0.81
			c-0.74,0.06-1.48,0.11-2.24,0.15c-1.47,0.08-2.96,0.2-4.5,0.25c-1.15,0.03-2.34,0.02-3.54-0.02c-3.18-0.11-6.53-0.51-10.04-1.15
			c-2.92-0.53-5.94-1.21-9.06-2.07c-0.09-0.02-0.18-0.05-0.26-0.07c-1.33-0.36-2.63-0.97-4.04-1.19c-0.32-0.05-1.17-0.45-2.38-0.92
			c-1.82-0.72-4.12-1.56-6.49-2.23c-2.72-0.76-5.6-1.22-8.05-0.72c-1.34,0.28-2.55,0.86-3.46,1.91c-0.3,0.34-0.68,0.66-1.01,0.98
			c-0.74,0.73-1.49,1.45-2.21,2.16c-0.54,0.52-1.08,1.03-1.61,1.52c-1.13,1.02-2.24,1.93-3.34,2.57c-0.29,0.17-0.57,0.31-0.85,0.45
			c-0.37,0.17-0.75,0.33-1.1,0.4c-0.09,0.02-0.19,0.04-0.28,0.1c-0.09,0.06-0.16,0.16-0.21,0.29c-0.18,0.43-0.22,1.12-0.21,1.5"/>
		<path class="st2" d="M183.36,166.84c-0.06-0.03-0.14,0.08-0.25,0.29c-1.06,0.46-2.43,2.68-4.93,5.02
			c-1.82,1.71-4.19,3.46-6.96,5.17c-2.45,1.51-5.26,2.91-8.45,4.04c-2.57,0.92-5.38,1.66-8.44,2.18c-2.12,0.36-4.34,0.62-6.69,0.77
			c-0.74,0.05-1.48,0.09-2.24,0.11c-1.47,0.06-2.97,0.14-4.51,0.14c-1.16,0-2.34-0.04-3.55-0.11c-3.17-0.2-6.51-0.67-10.03-1.4
			c-2.9-0.6-5.91-1.36-9.03-2.3c-0.09-0.03-0.17-0.05-0.26-0.08c-1.32-0.4-2.61-1.05-4.02-1.29c-0.27-0.05-1.12-0.47-2.36-1
			c-1.78-0.75-4.08-1.66-6.46-2.38c-2.73-0.82-5.61-1.33-8.04-0.86c-1.35,0.26-2.55,0.85-3.45,1.91c-0.29,0.35-0.68,0.66-1,0.98
			c-0.76,0.74-1.53,1.47-2.29,2.17c-0.56,0.52-1.13,1.02-1.7,1.5c-1.2,1.01-2.4,1.88-3.6,2.47c-0.31,0.15-0.62,0.29-0.93,0.4
			c-0.4,0.15-0.83,0.28-1.21,0.32c-0.1,0.01-0.21,0.02-0.31,0.08c-0.09,0.06-0.17,0.16-0.24,0.29c-0.2,0.43-0.25,1.15-0.26,1.53"/>
		<path class="st2" d="M183.36,166.84c-0.05-0.03-0.12,0.1-0.23,0.34c-0.93,0.6-2.21,3.02-4.64,5.62c-1.73,1.85-4.02,3.78-6.75,5.62
			c-2.39,1.61-5.17,3.11-8.36,4.31c-2.55,0.96-5.35,1.73-8.43,2.25c-2.11,0.36-4.34,0.6-6.69,0.72c-0.74,0.04-1.49,0.07-2.25,0.08
			c-1.47,0.03-2.97,0.07-4.53,0.03c-1.16-0.03-2.34-0.1-3.56-0.21c-3.16-0.28-6.5-0.84-10.03-1.65c-2.88-0.67-5.88-1.5-9-2.53
			c-0.09-0.03-0.17-0.06-0.26-0.08c-1.31-0.43-2.58-1.13-4-1.39c-0.23-0.04-1.07-0.5-2.34-1.07c-1.74-0.79-4.04-1.75-6.42-2.52
			c-2.73-0.88-5.62-1.44-8.04-0.99c-1.36,0.25-2.56,0.84-3.45,1.92c-0.29,0.35-0.68,0.67-1,0.98c-0.78,0.75-1.57,1.48-2.36,2.18
			c-0.59,0.51-1.18,1.01-1.78,1.48c-1.27,0.99-2.56,1.83-3.86,2.37c-0.34,0.14-0.68,0.26-1.02,0.35c-0.44,0.13-0.9,0.24-1.32,0.25
			c-0.11,0-0.23,0-0.34,0.06c-0.1,0.05-0.19,0.15-0.26,0.29c-0.22,0.43-0.29,1.17-0.31,1.56"/>
		<path class="st2" d="M183.36,166.84c-0.04-0.02-0.1,0.12-0.2,0.38c-0.8,0.74-1.98,3.35-4.35,6.22c-1.64,1.99-3.85,4.1-6.54,6.08
			c-2.34,1.72-5.08,3.32-8.26,4.59c-2.53,1-5.32,1.8-8.42,2.32c-2.1,0.36-4.33,0.58-6.7,0.67c-0.74,0.03-1.49,0.05-2.25,0.05
			c-1.47,0.01-2.98,0.01-4.54-0.07c-1.16-0.06-2.35-0.16-3.57-0.3c-3.15-0.36-6.48-1-10.02-1.91c-2.86-0.74-5.85-1.65-8.97-2.76
			c-0.09-0.03-0.17-0.06-0.26-0.09c-1.31-0.46-2.63-0.96-3.98-1.5c-0.19,0-1.03-0.52-2.31-1.14c-1.71-0.83-4-1.85-6.38-2.67
			c-2.73-0.93-5.63-1.55-8.04-1.13c-1.37,0.24-2.57,0.83-3.45,1.92c-0.28,0.35-0.68,0.67-1,0.98c-0.79,0.76-1.61,1.49-2.43,2.19
			c-0.61,0.51-1.24,1.01-1.87,1.47c-1.34,0.97-2.72,1.78-4.12,2.26c-0.36,0.13-0.73,0.23-1.1,0.31c-0.47,0.1-0.98,0.19-1.43,0.17
			c-0.12-0.01-0.25-0.01-0.37,0.04c-0.11,0.05-0.21,0.15-0.29,0.29c-0.25,0.44-0.33,1.2-0.36,1.58"/>
		<path class="st2" d="M183.36,166.84c-0.03-0.02-0.04,0.16-0.18,0.43c-0.52,0.98-1.77,3.68-4.06,6.81
			c-1.56,2.13-3.68,4.42-6.33,6.54c-2.28,1.83-4.99,3.52-8.17,4.86c-2.5,1.05-5.29,1.87-8.4,2.39c-2.1,0.35-4.33,0.57-6.71,0.63
			c-0.74,0.02-1.49,0.02-2.25,0.01c-1.47-0.02-2.98-0.06-4.55-0.18c-1.16-0.09-2.35-0.22-3.57-0.39c-3.14-0.44-6.47-1.15-10.02-2.16
			c-2.85-0.81-5.83-1.79-8.94-2.98c-0.09-0.03-0.17-0.07-0.26-0.1c-1.3-0.5-2.62-1.03-3.96-1.6c-0.14,0-0.98-0.54-2.29-1.22
			c-1.67-0.86-3.96-1.94-6.35-2.81c-2.73-0.99-5.65-1.66-8.04-1.26c-1.37,0.23-2.57,0.82-3.44,1.93c-0.28,0.36-0.68,0.67-1,0.99
			c-0.81,0.77-1.65,1.51-2.51,2.2c-0.63,0.51-1.29,1-1.95,1.45c-1.41,0.95-2.87,1.73-4.37,2.16c-0.39,0.11-0.78,0.2-1.18,0.26
			c-0.51,0.08-1.05,0.15-1.54,0.1c-0.13-0.01-0.27-0.03-0.4,0.02c-0.12,0.04-0.23,0.15-0.31,0.28c-0.27,0.44-0.36,1.23-0.4,1.61"/>
		<path class="st2" d="M183.36,166.84c-0.02-0.01-0.04,0.17-0.16,0.47c-0.43,1.07-1.56,4.02-3.77,7.41c-1.49,2.28-3.52,4.73-6.12,7
			c-2.23,1.94-4.9,3.73-8.08,5.13c-2.48,1.09-5.27,1.94-8.39,2.46c-2.09,0.35-4.33,0.55-6.72,0.58c-0.74,0.01-1.49,0-2.26-0.02
			c-1.47-0.04-2.99-0.12-4.57-0.29c-1.16-0.12-2.35-0.28-3.58-0.48c-3.13-0.51-6.46-1.31-10.01-2.41c-2.83-0.88-5.8-1.94-8.91-3.21
			c-0.09-0.03-0.17-0.07-0.26-0.1c-1.29-0.53-2.6-1.1-3.94-1.7c-0.09,0-0.94-0.56-2.27-1.29c-1.64-0.89-3.91-2.04-6.31-2.96
			c-2.74-1.04-5.66-1.77-8.04-1.4c-1.38,0.21-2.58,0.81-3.44,1.94c-0.27,0.36-0.67,0.68-1,0.99c-0.83,0.78-1.69,1.52-2.58,2.21
			c-0.66,0.51-1.34,0.99-2.04,1.43c-1.48,0.93-3.03,1.68-4.63,2.06c-0.42,0.1-0.84,0.17-1.26,0.22c-0.54,0.06-1.13,0.1-1.66,0.02
			c-0.14-0.02-0.29-0.04-0.43,0c-0.13,0.04-0.24,0.14-0.33,0.28c-0.29,0.44-0.4,1.25-0.45,1.64"/>
		<path class="st2" d="M183.36,166.84c-0.01-0.01-0.03,0.18-0.14,0.51c-0.36,1.18-1.36,4.36-3.49,8c-1.41,2.42-3.35,5.05-5.91,7.46
			c-2.17,2.05-4.81,3.93-7.99,5.4c-2.46,1.13-5.24,2.02-8.38,2.54c-2.08,0.35-4.32,0.53-6.73,0.53c-0.74,0-1.49-0.02-2.26-0.05
			c-1.47-0.07-2.99-0.19-4.58-0.4c-1.16-0.15-2.36-0.34-3.59-0.57c-3.12-0.59-6.45-1.47-10.01-2.66c-2.82-0.94-5.77-2.08-8.88-3.44
			c-0.08-0.04-0.17-0.07-0.25-0.11c-1.28-0.56-2.59-1.16-3.92-1.8c-0.05,0-0.9-0.58-2.25-1.36c-1.61-0.93-3.87-2.13-6.28-3.1
			c-2.74-1.1-5.67-1.88-8.04-1.53c-1.39,0.2-2.59,0.79-3.43,1.94c-0.27,0.37-0.67,0.68-1,0.99c-0.84,0.79-1.73,1.53-2.65,2.22
			c-0.68,0.5-1.39,0.98-2.12,1.42c-1.54,0.91-3.19,1.63-4.89,1.95c-0.44,0.08-0.89,0.14-1.34,0.17c-0.58,0.04-1.2,0.06-1.77-0.05
			c-0.15-0.03-0.31-0.06-0.46-0.02c-0.14,0.04-0.26,0.14-0.36,0.28c-0.31,0.44-0.44,1.28-0.5,1.66"/>
		<path class="st2" d="M183.36,166.84c0,0-7.69,45.26-65.46,15.98c0,0-15.38-10.78-19.94-4.4c-0.26,0.37-0.67,0.69-1,0.99
			c-0.86,0.8-1.77,1.55-2.73,2.23c-2.58,1.84-5.6,3.29-8.78,3.38c-0.62,0.02-1.28,0.01-1.88-0.13c-0.16-0.04-0.33-0.07-0.49-0.04
			c-0.63,0.13-0.84,1.46-0.94,1.96"/>
	</g>
</g>
<g>
	<path class="st3" d="M274.34,127c-0.51-0.3-1.03-0.58-1.56-0.86c-1.5-0.79-3.04-1.51-4.59-2.2c-2.46-1.09-4.97-2.09-7.51-3
		c-3.39-1.22-6.83-2.3-10.3-3.25c-4.28-1.17-8.61-2.15-12.97-2.96c-5.13-0.95-10.31-1.64-15.51-2.11
		c-5.96-0.54-11.95-0.77-17.94-0.72c-6.76,0.06-13.52,0.47-20.24,1.22c-7.53,0.84-15.02,2.09-22.42,3.71
		c-3.36,0.74-6.71,1.55-10.04,2.43c-3.42,0.91-6.93,1.94-10.24,3.26c-1.21,0.48-2.42,0.93-3.64,1.38c-3.51,1.3-7.06,2.51-10.63,3.64
		c-4.57,1.45-9.19,2.76-13.84,3.9c-5.14,1.26-10.33,2.31-15.56,3.05c-5.22,0.74-10.51,1.19-15.79,1.11
		c-4.88-0.07-9.8-0.58-14.51-1.92c-4.26-1.21-8.36-3.14-11.74-6.05c-0.54-0.47-1.07-0.96-1.57-1.47c-1.09-0.96-2.22-1.89-3.36-2.79
		c-2.5-2-5.09-3.9-7.78-5.63c-2.73-1.75-5.63-3.45-8.76-4.35c-1.03-0.3-2.06-0.42-3.12-0.46c-0.07,0-0.15-0.01-0.21-0.04
		c-0.06-0.03-0.11-0.09-0.16-0.14c-0.93-1.1-1.95-2.8-1.22-4.26"/>
	<path class="st3" d="M29.11,108.5c-0.13,0.24-0.2,0.49-0.25,0.74c-0.11,0.67,0.04,1.35,0.31,1.99c0.24,0.57,0.57,1.1,0.89,1.55
		c0.04,0.06,0.08,0.11,0.14,0.15c0.06,0.04,0.13,0.04,0.19,0.05c0.21,0.03,0.43,0.06,0.64,0.09c0.74,0.12,1.46,0.3,2.19,0.58
		c0.33,0.13,0.67,0.27,1,0.41c1.17,0.52,2.32,1.16,3.45,1.86c1.28,0.79,2.53,1.67,3.77,2.54c1.92,1.34,3.81,2.74,5.67,4.19
		c0.64,0.5,1.27,1,1.9,1.51c1.12,0.91,2.24,1.82,3.32,2.77c0.5,0.5,1.02,0.99,1.56,1.44c1.76,1.49,3.71,2.72,5.77,3.74
		c1.22,0.61,2.47,1.14,3.75,1.6c0.88,0.31,1.78,0.59,2.68,0.83c0.45,0.12,0.9,0.23,1.35,0.34c0.75,0.18,1.5,0.34,2.26,0.48
		c2.52,0.48,5.07,0.77,7.63,0.93c1.27,0.08,2.54,0.12,3.81,0.14c2.11,0.03,4.21-0.02,6.32-0.13c3.36-0.18,6.71-0.53,10.04-1
		c0.73-0.1,1.45-0.21,2.17-0.32c4.69-0.73,9.34-1.69,13.95-2.81c4.64-1.13,9.24-2.43,13.79-3.87c3.54-1.12,7.05-2.32,10.52-3.6
		c1.21-0.45,2.42-0.9,3.63-1.38c1.51-0.6,3.06-1.15,4.63-1.65c1.85-0.6,3.72-1.14,5.56-1.65c0.36-0.1,0.71-0.19,1.07-0.29
		c2.26-0.6,4.53-1.16,6.81-1.68c0.71-0.16,1.41-0.32,2.12-0.47c2.78-0.61,5.58-1.17,8.39-1.67c4.63-0.83,9.29-1.52,13.97-2.06
		c5.6-0.64,11.22-1.05,16.85-1.23c1.1-0.03,2.21-0.06,3.31-0.08c4.98-0.07,9.97,0.05,14.94,0.37c0.98,0.06,1.96,0.14,2.94,0.22
		c5.18,0.42,10.35,1.07,15.47,1.97c4.33,0.76,8.64,1.69,12.89,2.82c1.79,0.47,3.57,0.98,5.34,1.53c1.64,0.51,3.28,1.04,4.9,1.61
		c2.52,0.89,5.02,1.86,7.47,2.93c1.26,0.55,2.51,1.13,3.75,1.74c0.28,0.14,0.55,0.28,0.83,0.42c0.52,0.27,1.04,0.54,1.55,0.84"/>
	<path class="st3" d="M29.11,108.5c-0.13,0.24-0.22,0.49-0.27,0.74c-0.14,0.67-0.02,1.35,0.2,2c0.2,0.57,0.48,1.12,0.76,1.58
		c0.03,0.06,0.07,0.11,0.12,0.15c0.05,0.04,0.11,0.05,0.17,0.07c0.19,0.04,0.38,0.09,0.57,0.14c0.66,0.18,1.31,0.41,1.97,0.74
		c0.3,0.15,0.6,0.31,0.9,0.48c1.07,0.6,2.13,1.31,3.18,2.07c1.2,0.86,2.38,1.81,3.59,2.72c1.83,1.39,3.67,2.8,5.49,4.27
		c0.62,0.5,1.25,1.01,1.87,1.51c1.1,0.9,2.21,1.81,3.29,2.75c0.5,0.49,1.02,0.97,1.56,1.42c1.83,1.52,3.86,2.78,5.99,3.83
		c1.26,0.62,2.56,1.18,3.89,1.64c0.92,0.32,1.85,0.59,2.79,0.83c0.47,0.12,0.93,0.23,1.4,0.34c0.78,0.18,1.56,0.34,2.34,0.48
		c2.61,0.47,5.25,0.76,7.89,0.92c1.31,0.08,2.63,0.12,3.94,0.14c2.18,0.03,4.36-0.02,6.53-0.14c3.47-0.18,6.94-0.54,10.38-1.01
		c0.75-0.1,1.5-0.21,2.25-0.33c4.85-0.74,9.67-1.73,14.44-2.89c4.62-1.13,9.2-2.42,13.73-3.85c3.5-1.11,6.98-2.29,10.42-3.56
		c1.21-0.45,2.42-0.9,3.61-1.37c1.51-0.6,3.05-1.14,4.61-1.66c1.84-0.61,3.69-1.17,5.53-1.68c0.35-0.1,0.71-0.2,1.06-0.29
		c2.25-0.61,4.51-1.16,6.79-1.68c0.7-0.16,1.41-0.32,2.11-0.47c2.78-0.61,5.56-1.16,8.36-1.67c4.62-0.84,9.27-1.53,13.94-2.08
		c5.57-0.65,11.17-1.09,16.78-1.3c1.1-0.04,2.2-0.07,3.29-0.09c4.96-0.1,9.93-0.02,14.88,0.27c0.98,0.06,1.95,0.12,2.92,0.19
		c5.16,0.38,10.31,0.98,15.42,1.82c4.31,0.71,8.59,1.6,12.82,2.68c1.78,0.45,3.55,0.94,5.32,1.47c1.64,0.49,3.26,1.01,4.88,1.56
		c2.51,0.86,5,1.8,7.44,2.85c1.26,0.54,2.5,1.1,3.73,1.7c0.28,0.13,0.55,0.27,0.82,0.41c0.52,0.26,1.04,0.53,1.55,0.82"/>
	<path class="st3" d="M29.11,108.5c-0.13,0.24-0.23,0.49-0.29,0.74c-0.16,0.66-0.09,1.35,0.08,2c0.15,0.58,0.39,1.13,0.62,1.6
		c0.03,0.06,0.06,0.12,0.1,0.16c0.05,0.04,0.1,0.06,0.15,0.08c0.17,0.06,0.33,0.12,0.5,0.19c0.58,0.24,1.16,0.52,1.74,0.9
		c0.27,0.17,0.54,0.36,0.81,0.55c0.96,0.68,1.93,1.45,2.92,2.28c1.11,0.93,2.24,1.94,3.4,2.91c1.74,1.44,3.53,2.87,5.31,4.34
		c0.61,0.5,1.22,1.01,1.83,1.52c1.09,0.9,2.18,1.8,3.25,2.72c0.5,0.48,1.01,0.95,1.55,1.39c1.9,1.56,4.01,2.84,6.22,3.91
		c1.31,0.64,2.65,1.21,4.02,1.68c0.95,0.32,1.91,0.59,2.89,0.82c0.48,0.12,0.97,0.23,1.45,0.33c0.8,0.17,1.61,0.33,2.42,0.47
		c2.7,0.47,5.43,0.76,8.16,0.91c1.36,0.08,2.71,0.12,4.07,0.14c2.25,0.03,4.5-0.02,6.75-0.14c3.59-0.19,7.17-0.54,10.73-1.02
		c0.78-0.11,1.55-0.22,2.32-0.33c5.02-0.76,9.99-1.77,14.92-2.96c4.6-1.12,9.16-2.41,13.68-3.83c3.47-1.09,6.91-2.27,10.32-3.53
		c1.2-0.44,2.41-0.89,3.6-1.36c1.5-0.59,3.04-1.14,4.59-1.66c1.83-0.61,3.67-1.19,5.5-1.72c0.35-0.1,0.7-0.2,1.06-0.3
		c2.24-0.62,4.5-1.17,6.76-1.68c0.7-0.16,1.4-0.32,2.11-0.47c2.77-0.6,5.54-1.16,8.33-1.66c4.61-0.84,9.25-1.54,13.9-2.1
		c5.55-0.67,11.13-1.13,16.71-1.36c1.09-0.05,2.19-0.08,3.28-0.11c4.94-0.13,9.89-0.08,14.82,0.16c0.97,0.05,1.94,0.1,2.91,0.17
		c5.14,0.33,10.28,0.88,15.37,1.68c4.28,0.67,8.54,1.51,12.74,2.54c1.77,0.43,3.54,0.9,5.29,1.41c1.63,0.47,3.25,0.97,4.85,1.51
		c2.5,0.83,4.97,1.75,7.4,2.77c1.25,0.53,2.49,1.08,3.71,1.67c0.27,0.13,0.55,0.27,0.82,0.4c0.52,0.26,1.03,0.52,1.54,0.81"/>
	<path class="st3" d="M29.11,108.5c-0.14,0.24-0.24,0.49-0.3,0.74c-0.18,0.66-0.15,1.35-0.03,2c0.11,0.58,0.3,1.14,0.49,1.63
		c0.02,0.06,0.05,0.12,0.09,0.16c0.04,0.04,0.08,0.07,0.13,0.09c0.14,0.08,0.29,0.16,0.43,0.24c0.5,0.29,1,0.64,1.52,1.06
		c0.24,0.2,0.48,0.4,0.72,0.61c0.86,0.75,1.74,1.6,2.65,2.49c1.03,1.01,2.09,2.08,3.22,3.1c1.65,1.48,3.39,2.94,5.12,4.41
		c0.6,0.51,1.19,1.01,1.79,1.52c1.07,0.9,2.15,1.79,3.21,2.7c0.5,0.47,1.01,0.93,1.54,1.36c1.98,1.59,4.16,2.89,6.45,3.99
		c1.35,0.65,2.73,1.24,4.16,1.72c0.98,0.33,1.98,0.59,2.99,0.82c0.5,0.11,1,0.22,1.5,0.33c0.83,0.17,1.66,0.33,2.5,0.47
		c2.79,0.46,5.6,0.75,8.43,0.9c1.4,0.08,2.8,0.12,4.2,0.14c2.32,0.03,4.65-0.02,6.97-0.14c3.71-0.19,7.4-0.55,11.08-1.04
		c0.8-0.11,1.6-0.22,2.4-0.34c5.18-0.77,10.32-1.8,15.41-3.04c4.58-1.12,9.12-2.39,13.62-3.81c3.43-1.08,6.84-2.24,10.22-3.49
		c1.2-0.44,2.4-0.89,3.59-1.36c1.5-0.59,3.03-1.14,4.56-1.67c1.82-0.62,3.64-1.21,5.46-1.75c0.35-0.1,0.7-0.21,1.05-0.31
		c2.22-0.63,4.48-1.17,6.73-1.68c0.7-0.16,1.4-0.31,2.1-0.47c2.76-0.6,5.52-1.15,8.3-1.66c4.6-0.84,9.22-1.55,13.87-2.12
		c5.53-0.68,11.08-1.16,16.64-1.43c1.09-0.05,2.18-0.1,3.27-0.13c4.92-0.16,9.84-0.15,14.76,0.06c0.97,0.04,1.94,0.09,2.9,0.14
		c5.13,0.29,10.24,0.79,15.32,1.53c4.25,0.62,8.48,1.42,12.67,2.4c1.76,0.42,3.52,0.86,5.26,1.35c1.62,0.45,3.23,0.94,4.83,1.45
		c2.49,0.81,4.95,1.7,7.37,2.69c1.24,0.51,2.48,1.05,3.69,1.63c0.27,0.13,0.54,0.26,0.82,0.39c0.52,0.25,1.03,0.51,1.53,0.79"/>
	<path class="st3" d="M29.11,108.5c-0.14,0.24-0.25,0.49-0.32,0.74c-0.21,0.66-0.22,1.35-0.14,2c0.07,0.59,0.21,1.15,0.36,1.66
		c0.02,0.06,0.04,0.12,0.07,0.17c0.03,0.05,0.07,0.08,0.11,0.11c0.12,0.09,0.24,0.19,0.36,0.29c0.42,0.35,0.85,0.75,1.3,1.22
		c0.21,0.22,0.41,0.45,0.63,0.68c0.75,0.83,1.54,1.74,2.38,2.7c0.95,1.08,1.95,2.22,3.04,3.29c1.56,1.53,3.25,3,4.94,4.49
		c0.58,0.51,1.17,1.02,1.76,1.52c1.05,0.9,2.12,1.78,3.17,2.68c0.5,0.46,1.01,0.91,1.54,1.34c2.05,1.63,4.32,2.95,6.67,4.08
		c1.4,0.67,2.82,1.28,4.29,1.76c1.01,0.33,2.05,0.59,3.09,0.81c0.52,0.11,1.04,0.22,1.55,0.32c0.86,0.17,1.72,0.33,2.58,0.46
		c2.88,0.46,5.78,0.74,8.7,0.89c1.44,0.08,2.89,0.12,4.33,0.13c2.4,0.03,4.79-0.03,7.19-0.15c3.82-0.19,7.64-0.55,11.43-1.05
		c0.83-0.11,1.65-0.22,2.47-0.35c5.34-0.79,10.64-1.84,15.89-3.12c4.56-1.11,9.09-2.38,13.57-3.79c3.4-1.07,6.77-2.22,10.12-3.45
		c1.2-0.44,2.39-0.89,3.58-1.35c1.5-0.59,3.02-1.14,4.54-1.67c1.81-0.63,3.62-1.24,5.43-1.79c0.35-0.11,0.69-0.21,1.04-0.31
		c2.21-0.65,4.46-1.18,6.71-1.69c0.7-0.16,1.39-0.31,2.09-0.46c2.75-0.6,5.5-1.15,8.27-1.66c4.59-0.84,9.2-1.56,13.83-2.14
		c5.5-0.69,11.03-1.2,16.57-1.5c1.08-0.06,2.17-0.11,3.25-0.15c4.9-0.19,9.8-0.21,14.7-0.05c0.96,0.03,1.93,0.07,2.89,0.12
		c5.11,0.25,10.21,0.7,15.27,1.38c4.23,0.58,8.43,1.32,12.59,2.26c1.75,0.4,3.5,0.82,5.23,1.29c1.61,0.43,3.21,0.9,4.8,1.4
		c2.47,0.78,4.92,1.64,7.33,2.62c1.24,0.5,2.47,1.03,3.68,1.59c0.27,0.13,0.54,0.26,0.81,0.39c0.51,0.25,1.03,0.5,1.53,0.77"/>
	<path class="st3" d="M29.11,108.5c-0.14,0.24-0.26,0.49-0.34,0.74c-0.23,0.66-0.28,1.34-0.25,2.01c0.03,0.59,0.12,1.16,0.22,1.68
		c0.01,0.06,0.03,0.13,0.05,0.18c0.02,0.05,0.06,0.09,0.08,0.12c0.1,0.11,0.19,0.23,0.29,0.34c0.34,0.41,0.7,0.86,1.08,1.38
		c0.17,0.24,0.35,0.49,0.53,0.75c0.65,0.91,1.35,1.89,2.12,2.91c0.87,1.15,1.8,2.35,2.85,3.47c1.47,1.57,3.11,3.07,4.76,4.56
		c0.57,0.51,1.14,1.02,1.72,1.52c1.03,0.9,2.09,1.77,3.13,2.65c0.49,0.45,1,0.89,1.53,1.31c2.12,1.66,4.47,3.01,6.9,4.16
		c1.44,0.68,2.91,1.31,4.43,1.8c1.04,0.34,2.11,0.59,3.19,0.81c0.53,0.11,1.07,0.21,1.6,0.32c0.89,0.17,1.77,0.32,2.66,0.46
		c2.97,0.45,5.96,0.73,8.96,0.88c1.49,0.08,2.98,0.12,4.46,0.13c2.47,0.03,4.94-0.03,7.4-0.15c3.94-0.19,7.87-0.56,11.78-1.07
		c0.85-0.11,1.7-0.23,2.55-0.35c5.5-0.8,10.97-1.88,16.38-3.19c4.54-1.1,9.05-2.37,13.51-3.77c3.37-1.06,6.71-2.19,10.02-3.41
		c1.19-0.44,2.38-0.88,3.57-1.34c1.49-0.58,3.01-1.14,4.52-1.68c1.8-0.64,3.6-1.26,5.39-1.82c0.35-0.11,0.69-0.21,1.04-0.32
		c2.2-0.66,4.44-1.18,6.68-1.69c0.69-0.16,1.39-0.31,2.08-0.46c2.74-0.6,5.48-1.15,8.24-1.65c4.58-0.84,9.18-1.57,13.79-2.17
		c5.48-0.71,10.98-1.24,16.5-1.56c1.08-0.06,2.16-0.12,3.24-0.17c4.88-0.22,9.76-0.28,14.64-0.16c0.96,0.02,1.92,0.05,2.88,0.09
		c5.09,0.2,10.17,0.6,15.22,1.24c4.2,0.54,8.38,1.23,12.52,2.12c1.74,0.38,3.48,0.79,5.2,1.23c1.6,0.42,3.2,0.86,4.78,1.35
		c2.46,0.75,4.9,1.59,7.3,2.54c1.23,0.49,2.45,1,3.66,1.56c0.27,0.12,0.54,0.25,0.81,0.38c0.51,0.24,1.02,0.49,1.52,0.76"/>
	<path class="st3" d="M29.11,108.5c-0.15,0.24-0.27,0.49-0.36,0.73c-0.25,0.66-0.35,1.34-0.37,2.01c-0.02,0.59,0.03,1.17,0.09,1.71
		c0.01,0.06,0.02,0.13,0.03,0.18c0.02,0.05,0.04,0.09,0.06,0.13c0.07,0.13,0.15,0.26,0.22,0.4c0.26,0.47,0.54,0.98,0.85,1.54
		c0.14,0.26,0.29,0.54,0.44,0.81c0.54,0.98,1.15,2.04,1.85,3.11c0.79,1.22,1.66,2.48,2.67,3.66c1.39,1.61,2.96,3.14,4.58,4.64
		c0.56,0.51,1.12,1.02,1.69,1.53c1.01,0.89,2.06,1.76,3.1,2.63c0.49,0.45,1,0.88,1.53,1.28c2.2,1.7,4.62,3.07,7.13,4.25
		c1.49,0.7,3,1.35,4.56,1.84c1.08,0.34,2.18,0.59,3.29,0.81c0.55,0.11,1.1,0.21,1.65,0.31c0.91,0.17,1.83,0.32,2.75,0.45
		c3.06,0.45,6.14,0.72,9.23,0.87c1.53,0.07,3.06,0.12,4.6,0.13c2.54,0.02,5.08-0.03,7.62-0.15c4.05-0.19,8.1-0.57,12.12-1.08
		c0.88-0.11,1.75-0.23,2.63-0.36c5.67-0.82,11.29-1.92,16.86-3.27c4.53-1.1,9.01-2.35,13.46-3.75c3.33-1.05,6.64-2.17,9.92-3.37
		c1.19-0.44,2.38-0.88,3.56-1.34c1.49-0.58,2.99-1.14,4.5-1.68c1.79-0.64,3.57-1.28,5.36-1.86c0.34-0.11,0.69-0.22,1.03-0.32
		c2.19-0.67,4.42-1.19,6.66-1.69c0.69-0.16,1.38-0.31,2.08-0.46c2.73-0.59,5.46-1.14,8.21-1.65c4.57-0.85,9.15-1.58,13.76-2.19
		c5.46-0.72,10.94-1.27,16.43-1.63c1.07-0.07,2.15-0.13,3.23-0.19c4.86-0.25,9.72-0.34,14.59-0.26c0.96,0.02,1.91,0.04,2.87,0.07
		c5.07,0.16,10.14,0.51,15.17,1.09c4.17,0.49,8.33,1.14,12.44,1.99c1.73,0.36,3.46,0.75,5.18,1.17c1.59,0.4,3.18,0.83,4.76,1.29
		c2.45,0.73,4.88,1.54,7.26,2.46c1.23,0.48,2.44,0.98,3.64,1.52c0.27,0.12,0.54,0.24,0.8,0.37c0.51,0.24,1.02,0.48,1.52,0.74"/>
	<path class="st3" d="M29.11,108.5c-0.15,0.24-0.28,0.48-0.38,0.73c-0.28,0.66-0.41,1.34-0.48,2.01c-0.06,0.6-0.06,1.18-0.05,1.74
		c0,0.07,0.01,0.13,0.02,0.19c0.01,0.06,0.03,0.1,0.04,0.15c0.05,0.15,0.1,0.29,0.15,0.45c0.18,0.53,0.39,1.09,0.63,1.7
		c0.11,0.29,0.23,0.58,0.35,0.88c0.44,1.06,0.96,2.18,1.58,3.32c0.71,1.29,1.51,2.62,2.49,3.85c1.3,1.65,2.82,3.2,4.4,4.71
		c0.54,0.52,1.09,1.03,1.65,1.53c1,0.89,2.02,1.76,3.06,2.61c0.49,0.44,1,0.86,1.52,1.26c2.27,1.73,4.77,3.13,7.35,4.33
		c1.53,0.71,3.08,1.38,4.7,1.89c1.11,0.35,2.25,0.59,3.39,0.8c0.57,0.11,1.14,0.2,1.7,0.3c0.94,0.17,1.88,0.32,2.83,0.45
		c3.15,0.44,6.32,0.72,9.5,0.87c1.58,0.07,3.15,0.12,4.73,0.13c2.61,0.02,5.23-0.03,7.84-0.15c4.17-0.2,8.33-0.57,12.47-1.1
		c0.9-0.11,1.8-0.24,2.7-0.36c5.83-0.83,11.62-1.96,17.34-3.34c4.51-1.09,8.98-2.34,13.4-3.73c3.3-1.03,6.57-2.14,9.82-3.33
		c1.18-0.43,2.37-0.87,3.54-1.33c1.48-0.58,2.98-1.14,4.48-1.69c1.78-0.65,3.55-1.31,5.33-1.89c0.34-0.11,0.68-0.22,1.03-0.33
		c2.18-0.68,4.4-1.19,6.63-1.69c0.69-0.16,1.38-0.31,2.07-0.46c2.72-0.59,5.44-1.14,8.18-1.65c4.56-0.85,9.13-1.59,13.72-2.21
		c5.43-0.74,10.89-1.31,16.36-1.7c1.07-0.08,2.14-0.14,3.21-0.21c4.84-0.28,9.68-0.41,14.53-0.37c0.95,0.01,1.91,0.02,2.86,0.04
		c5.05,0.11,10.1,0.41,15.13,0.95c4.15,0.45,8.28,1.05,12.37,1.85c1.72,0.34,3.44,0.71,5.15,1.12c1.58,0.38,3.16,0.79,4.73,1.24
		c2.44,0.7,4.85,1.49,7.22,2.39c1.22,0.46,2.43,0.96,3.63,1.48c0.27,0.12,0.53,0.24,0.8,0.36c0.51,0.23,1.01,0.47,1.51,0.72"/>
	<path class="st3" d="M29.11,108.5c-0.16,0.24-0.29,0.48-0.4,0.73c-0.3,0.66-0.48,1.34-0.59,2.01c-0.1,0.6-0.15,1.19-0.18,1.76
		c0,0.07,0,0.13,0,0.19c0,0.06,0.01,0.11,0.02,0.16c0.02,0.16,0.05,0.33,0.08,0.5c0.1,0.58,0.24,1.2,0.41,1.87
		c0.08,0.31,0.16,0.63,0.26,0.95c0.33,1.13,0.76,2.33,1.31,3.53c0.62,1.36,1.37,2.75,2.31,4.04c1.22,1.69,2.68,3.27,4.22,4.78
		c0.53,0.52,1.07,1.03,1.62,1.53c0.98,0.89,1.99,1.75,3.02,2.58c0.49,0.43,1,0.84,1.52,1.23c2.35,1.76,4.92,3.19,7.58,4.41
		c1.57,0.73,3.17,1.42,4.83,1.93c1.14,0.35,2.31,0.59,3.49,0.8c0.58,0.1,1.17,0.2,1.75,0.3c0.97,0.16,1.94,0.31,2.91,0.44
		c3.24,0.43,6.5,0.71,9.76,0.86c1.62,0.07,3.24,0.12,4.86,0.13c2.69,0.02,5.37-0.03,8.06-0.16c4.29-0.2,8.56-0.58,12.82-1.11
		c0.93-0.12,1.85-0.24,2.78-0.37c5.99-0.85,11.95-2,17.83-3.42c4.49-1.09,8.94-2.33,13.35-3.71c3.26-1.02,6.5-2.12,9.72-3.29
		c1.18-0.43,2.36-0.87,3.53-1.32c1.48-0.57,2.97-1.14,4.46-1.69c1.76-0.66,3.52-1.33,5.29-1.93c0.34-0.11,0.68-0.23,1.02-0.33
		c2.17-0.69,4.39-1.2,6.6-1.7c0.69-0.15,1.37-0.31,2.06-0.46c2.71-0.59,5.43-1.13,8.15-1.64c4.54-0.85,9.11-1.6,13.69-2.23
		c5.41-0.75,10.84-1.34,16.29-1.76c1.07-0.08,2.13-0.16,3.2-0.23c4.82-0.31,9.64-0.47,14.47-0.48c0.95,0,1.9,0.01,2.85,0.02
		c5.03,0.07,10.07,0.32,15.08,0.8c4.12,0.4,8.22,0.96,12.29,1.71c1.71,0.32,3.42,0.67,5.12,1.06c1.58,0.36,3.15,0.76,4.71,1.19
		c2.43,0.67,4.83,1.43,7.19,2.31c1.22,0.45,2.42,0.93,3.61,1.45c0.27,0.12,0.53,0.23,0.8,0.35c0.5,0.23,1.01,0.46,1.5,0.71"/>
	<path class="st3" d="M29.11,108.5c-0.16,0.24-0.3,0.48-0.42,0.73c-0.33,0.66-0.54,1.34-0.7,2.01c-0.14,0.6-0.24,1.2-0.32,1.79
		c-0.01,0.07-0.02,0.14-0.02,0.2c0,0.06,0,0.12,0,0.18c0,0.18,0.01,0.36,0.01,0.55c0.02,0.64,0.08,1.31,0.18,2.03
		c0.05,0.33,0.1,0.67,0.16,1.01c0.23,1.21,0.57,2.47,1.05,3.74c0.54,1.43,1.23,2.88,2.12,4.22c1.14,1.73,2.54,3.33,4.04,4.86
		c0.51,0.52,1.04,1.03,1.58,1.53c0.96,0.89,1.96,1.74,2.98,2.56c0.49,0.42,0.99,0.82,1.51,1.2c2.42,1.79,5.07,3.25,7.81,4.5
		c1.62,0.74,3.26,1.45,4.97,1.97c1.17,0.35,2.38,0.59,3.59,0.79c0.6,0.1,1.2,0.2,1.8,0.29c0.99,0.16,1.99,0.31,2.99,0.44
		c3.33,0.43,6.68,0.7,10.03,0.85c1.66,0.07,3.33,0.11,4.99,0.13c2.76,0.02,5.52-0.03,8.28-0.16c4.4-0.2,8.8-0.58,13.17-1.12
		c0.95-0.12,1.9-0.24,2.85-0.38c6.16-0.86,12.27-2.04,18.31-3.5c4.47-1.08,8.9-2.31,13.29-3.68c3.23-1.01,6.44-2.09,9.61-3.25
		c1.18-0.43,2.35-0.87,3.52-1.32c1.48-0.57,2.96-1.13,4.44-1.7c1.75-0.67,3.5-1.35,5.26-1.96c0.34-0.12,0.68-0.23,1.01-0.34
		c2.15-0.7,4.37-1.2,6.58-1.7c0.68-0.15,1.37-0.3,2.06-0.45c2.7-0.58,5.41-1.13,8.12-1.64c4.53-0.85,9.08-1.61,13.65-2.26
		c5.39-0.76,10.79-1.38,16.22-1.83c1.06-0.09,2.12-0.17,3.19-0.24c4.8-0.34,9.6-0.54,14.41-0.58c0.95-0.01,1.89-0.01,2.84-0.01
		c5.02,0.02,10.03,0.23,15.03,0.65c4.09,0.36,8.17,0.87,12.22,1.57c1.7,0.3,3.4,0.63,5.09,1c1.57,0.34,3.13,0.72,4.68,1.13
		c2.41,0.64,4.8,1.38,7.15,2.23c1.21,0.44,2.41,0.91,3.59,1.41c0.27,0.11,0.53,0.23,0.79,0.35c0.5,0.22,1,0.45,1.5,0.69"/>
	<path class="st3" d="M29.11,108.5c-0.16,0.24-0.31,0.48-0.44,0.73c-0.35,0.66-0.61,1.34-0.82,2.02c-0.18,0.61-0.33,1.22-0.45,1.81
		c-0.01,0.07-0.03,0.14-0.03,0.2c-0.01,0.07-0.02,0.13-0.02,0.19c-0.02,0.2-0.04,0.4-0.06,0.6c-0.05,0.7-0.07,1.43-0.04,2.19
		c0.01,0.36,0.04,0.72,0.07,1.08c0.12,1.29,0.37,2.62,0.78,3.95c0.46,1.5,1.09,3.01,1.94,4.41c1.06,1.76,2.4,3.4,3.86,4.93
		c0.5,0.53,1.02,1.04,1.55,1.53c0.94,0.89,1.93,1.73,2.94,2.54c0.49,0.41,0.99,0.8,1.5,1.18c2.5,1.82,5.23,3.3,8.04,4.58
		c1.66,0.76,3.35,1.49,5.1,2.01c1.21,0.36,2.45,0.59,3.69,0.79c0.62,0.1,1.24,0.19,1.85,0.29c1.02,0.16,2.05,0.31,3.07,0.43
		c3.42,0.42,6.86,0.69,10.3,0.84c1.71,0.07,3.41,0.11,5.12,0.13c2.83,0.02,5.66-0.03,8.49-0.16c4.52-0.2,9.03-0.59,13.52-1.14
		c0.98-0.12,1.95-0.25,2.93-0.38c6.32-0.88,12.6-2.08,18.8-3.57c4.45-1.07,8.87-2.3,13.24-3.66c3.2-1,6.37-2.07,9.51-3.21
		c1.17-0.43,2.34-0.86,3.51-1.31c1.47-0.57,2.95-1.13,4.42-1.7c1.74-0.67,3.47-1.38,5.23-2c0.33-0.12,0.67-0.23,1.01-0.35
		c2.14-0.71,4.35-1.21,6.55-1.7c0.68-0.15,1.36-0.3,2.05-0.45c2.69-0.58,5.39-1.13,8.09-1.64c4.52-0.86,9.06-1.62,13.61-2.28
		c5.36-0.78,10.75-1.42,16.14-1.9c1.06-0.09,2.11-0.18,3.17-0.26c4.78-0.37,9.56-0.6,14.35-0.69c0.94-0.02,1.89-0.03,2.83-0.03
		c5-0.02,10,0.13,14.98,0.51c4.06,0.31,8.12,0.77,12.15,1.43c1.69,0.28,3.38,0.59,5.06,0.94c1.56,0.33,3.11,0.68,4.66,1.08
		c2.4,0.62,4.78,1.33,7.12,2.16c1.2,0.43,2.4,0.88,3.57,1.38c0.26,0.11,0.53,0.22,0.79,0.34c0.5,0.22,1,0.44,1.49,0.68"/>
	<path class="st3" d="M29.11,108.5c-0.17,0.24-0.32,0.48-0.46,0.73c-0.37,0.65-0.67,1.33-0.93,2.02c-0.23,0.61-0.42,1.23-0.58,1.84
		c-0.02,0.07-0.04,0.14-0.05,0.21c-0.02,0.07-0.03,0.14-0.04,0.2c-0.05,0.21-0.09,0.43-0.13,0.65c-0.13,0.76-0.22,1.54-0.26,2.35
		c-0.02,0.38-0.03,0.76-0.02,1.14c0.01,1.36,0.18,2.77,0.51,4.16c0.38,1.57,0.96,3.14,1.76,4.6c0.98,1.8,2.26,3.47,3.68,5
		c0.49,0.53,0.99,1.04,1.51,1.54c0.93,0.88,1.9,1.72,2.91,2.52c0.49,0.4,0.99,0.78,1.5,1.15c2.57,1.85,5.38,3.36,8.26,4.66
		c1.71,0.77,3.43,1.52,5.24,2.05c1.24,0.36,2.51,0.59,3.79,0.79c0.64,0.1,1.27,0.19,1.9,0.28c1.05,0.16,2.1,0.3,3.15,0.43
		c3.51,0.42,7.03,0.68,10.57,0.83c1.75,0.07,3.5,0.11,5.25,0.13c2.9,0.02,5.81-0.04,8.71-0.16c4.63-0.21,9.26-0.59,13.86-1.15
		c1-0.12,2-0.25,3-0.39c6.48-0.89,12.92-2.11,19.28-3.65c4.43-1.07,8.83-2.29,13.18-3.64c3.16-0.99,6.3-2.04,9.41-3.17
		c1.17-0.42,2.33-0.86,3.5-1.3c1.47-0.56,2.93-1.13,4.4-1.71c1.73-0.68,3.45-1.4,5.19-2.03c0.33-0.12,0.67-0.24,1-0.35
		c2.13-0.72,4.33-1.22,6.52-1.7c0.68-0.15,1.36-0.3,2.04-0.45c2.68-0.58,5.37-1.12,8.06-1.64c4.51-0.86,9.04-1.63,13.58-2.3
		c5.34-0.79,10.7-1.45,16.07-1.96c1.05-0.1,2.1-0.19,3.16-0.28c4.76-0.4,9.52-0.67,14.29-0.79c0.94-0.02,1.88-0.04,2.82-0.06
		c4.98-0.07,9.96,0.04,14.93,0.36c4.04,0.27,8.07,0.68,12.07,1.29c1.68,0.26,3.36,0.55,5.04,0.88c1.55,0.31,3.1,0.65,4.63,1.03
		c2.39,0.59,4.76,1.28,7.08,2.08c1.2,0.41,2.38,0.86,3.56,1.34c0.26,0.11,0.53,0.22,0.79,0.33c0.5,0.21,0.99,0.43,1.48,0.66"/>
	<path class="st3" d="M29.11,108.5c-0.17,0.23-0.33,0.48-0.48,0.73c-0.4,0.65-0.74,1.33-1.04,2.02c-0.27,0.61-0.51,1.24-0.72,1.87
		c-0.02,0.07-0.05,0.15-0.07,0.22c-0.02,0.07-0.04,0.15-0.07,0.22c-0.07,0.23-0.13,0.47-0.2,0.7c-0.21,0.82-0.38,1.65-0.48,2.51
		c-0.05,0.4-0.09,0.8-0.11,1.21c-0.09,1.44-0.01,2.91,0.25,4.37c0.3,1.65,0.82,3.27,1.57,4.79c0.91,1.84,2.12,3.53,3.5,5.08
		c0.47,0.53,0.97,1.04,1.48,1.54c0.91,0.88,1.87,1.71,2.87,2.49c0.49,0.39,0.99,0.76,1.49,1.12c2.65,1.88,5.53,3.42,8.49,4.75
		c1.75,0.79,3.52,1.56,5.37,2.09c1.27,0.37,2.58,0.59,3.89,0.78c0.65,0.1,1.31,0.18,1.95,0.28c1.08,0.16,2.16,0.3,3.24,0.42
		c3.6,0.41,7.21,0.68,10.83,0.82c1.79,0.07,3.59,0.11,5.38,0.12c2.98,0.02,5.96-0.04,8.93-0.17c4.75-0.21,9.49-0.6,14.21-1.17
		c1.03-0.12,2.05-0.25,3.08-0.39c6.65-0.91,13.25-2.15,19.77-3.72c4.41-1.06,8.79-2.27,13.13-3.62c3.13-0.97,6.23-2.02,9.31-3.14
		c1.16-0.42,2.33-0.85,3.48-1.3c1.46-0.56,2.92-1.13,4.38-1.71c1.72-0.69,3.42-1.42,5.16-2.07c0.33-0.12,0.66-0.24,1-0.36
		c2.12-0.73,4.31-1.22,6.5-1.71c0.68-0.15,1.36-0.3,2.03-0.45c2.67-0.58,5.35-1.12,8.03-1.63c4.5-0.86,9.01-1.64,13.54-2.32
		c5.32-0.81,10.65-1.49,16-2.03c1.05-0.11,2.1-0.21,3.14-0.3c4.74-0.43,9.48-0.73,14.24-0.9c0.94-0.03,1.87-0.06,2.81-0.08
		c4.96-0.11,9.93-0.06,14.88,0.22c4.01,0.22,8.02,0.59,12,1.15c1.68,0.24,3.35,0.51,5.01,0.82c1.54,0.29,3.08,0.61,4.61,0.97
		c2.38,0.56,4.73,1.22,7.05,2c1.19,0.4,2.37,0.83,3.54,1.3c0.26,0.1,0.52,0.21,0.78,0.32c0.5,0.21,0.99,0.42,1.48,0.64"/>
	<path class="st3" d="M29.11,108.5c-0.18,0.23-0.34,0.48-0.5,0.72c-0.42,0.65-0.8,1.33-1.15,2.02c-0.5,1-0.94,2.04-1.29,3.1
		c-0.43,1.28-0.74,2.61-0.91,3.95c-0.2,1.52-0.21,3.06-0.02,4.57c0.21,1.72,0.69,3.4,1.39,4.98c0.83,1.88,1.98,3.6,3.32,5.15
		c1.68,1.95,3.65,3.63,5.76,5.1c2.73,1.91,5.68,3.48,8.72,4.83c1.8,0.8,3.61,1.59,5.51,2.13c1.95,0.56,3.99,0.77,6,1.05
		c1.1,0.15,2.21,0.3,3.32,0.42c3.69,0.41,7.39,0.67,11.1,0.81c4.89,0.19,9.78,0.16,14.66-0.05c5.92-0.25,11.84-0.79,17.71-1.58
		c6.81-0.92,13.57-2.19,20.25-3.8c7.54-1.81,14.99-4.05,22.28-6.7c2.63-0.95,5.24-1.96,7.83-3.01c2.04-0.83,4.04-1.74,6.12-2.46
		c2.11-0.74,4.29-1.23,6.47-1.71c3.33-0.74,6.68-1.43,10.03-2.07c4.49-0.86,8.99-1.64,13.51-2.34c5.29-0.82,10.61-1.52,15.93-2.09
		c5.75-0.62,11.53-1.07,17.31-1.32c5.87-0.25,11.76-0.3,17.63-0.03c5.66,0.25,11.32,0.79,16.9,1.78c5.15,0.91,10.25,2.2,15.12,4.11
		c0.76,0.3,1.51,0.61,2.25,0.94"/>
</g>
<g>
	<path class="st4" d="M183.17,166.42c-0.21-0.13-0.42-0.25-0.64-0.36c-0.62-0.33-1.25-0.64-1.88-0.94
		c-1.01-0.46-2.04-0.89-3.07-1.27c-1.39-0.52-2.8-0.98-4.22-1.38c-1.75-0.5-3.53-0.91-5.31-1.26c-2.1-0.4-4.22-0.7-6.35-0.9
		c-2.44-0.23-4.9-0.33-7.35-0.31c-2.77,0.02-5.54,0.2-8.29,0.52c-3.09,0.36-6.15,0.89-9.19,1.57c-1.38,0.31-2.75,0.66-4.11,1.03
		c-1.4,0.39-2.84,0.82-4.2,1.38c-0.49,0.2-0.99,0.4-1.49,0.59c-1.44,0.55-2.89,1.07-4.35,1.55c-1.87,0.61-3.76,1.17-5.67,1.65
		c-2.1,0.53-4.23,0.98-6.37,1.3c-2.14,0.32-4.3,0.51-6.47,0.47c-2-0.03-4.02-0.25-5.94-0.81c-1.75-0.51-3.43-1.33-4.81-2.57
		c-0.22-0.2-0.44-0.41-0.64-0.62c-0.45-0.41-0.91-0.8-1.38-1.19c-1.03-0.85-2.08-1.66-3.19-2.39c-1.12-0.74-2.31-1.46-3.59-1.85
		c-0.42-0.13-0.84-0.18-1.28-0.19c-0.03,0-0.06,0-0.09-0.02c-0.03-0.01-0.05-0.04-0.06-0.06c-0.38-0.47-0.8-1.19-0.5-1.81"/>
	<path class="st4" d="M82.72,158.56c-0.05,0.1-0.08,0.2-0.1,0.31c-0.05,0.28,0.01,0.56,0.11,0.83c0.1,0.25,0.24,0.49,0.38,0.69
		c0.02,0.02,0.03,0.05,0.06,0.06c0.02,0.01,0.05,0.02,0.08,0.02c0.08,0.01,0.15,0.02,0.23,0.03c0.31,0.05,0.62,0.13,0.93,0.25
		c0.13,0.05,0.26,0.11,0.39,0.17c0.48,0.22,0.96,0.49,1.42,0.79c0.53,0.34,1.04,0.71,1.55,1.08c0.79,0.57,1.57,1.17,2.34,1.79
		c0.26,0.21,0.51,0.42,0.76,0.63c0.46,0.38,0.92,0.77,1.36,1.18c0.2,0.21,0.42,0.42,0.64,0.61c0.72,0.63,1.52,1.16,2.36,1.59
		c0.5,0.26,1.01,0.48,1.54,0.68c0.36,0.13,0.73,0.25,1.1,0.35c0.18,0.05,0.37,0.1,0.56,0.15c0.31,0.08,0.61,0.14,0.92,0.21
		c1.03,0.2,2.08,0.33,3.12,0.39c0.52,0.03,1.04,0.05,1.56,0.06c0.86,0.01,1.73-0.01,2.59-0.06c1.38-0.08,2.75-0.23,4.11-0.42
		c0.3-0.04,0.59-0.09,0.89-0.14c1.92-0.31,3.83-0.72,5.71-1.19c1.9-0.48,3.78-1.03,5.65-1.65c1.45-0.47,2.89-0.98,4.31-1.53
		c0.5-0.19,0.99-0.38,1.49-0.59c0.62-0.26,1.26-0.49,1.9-0.7c0.76-0.25,1.52-0.48,2.28-0.7c0.14-0.04,0.28-0.08,0.43-0.12
		c0.93-0.26,1.87-0.49,2.81-0.72c0.29-0.07,0.57-0.13,0.86-0.2c1.14-0.26,2.29-0.5,3.44-0.71c1.9-0.35,3.8-0.65,5.72-0.87
		c2.29-0.27,4.6-0.45,6.91-0.52c0.45-0.01,0.9-0.03,1.35-0.03c2.04-0.03,4.08,0.02,6.12,0.16c0.4,0.03,0.8,0.06,1.2,0.09
		c2.12,0.18,4.24,0.46,6.34,0.84c1.78,0.32,3.54,0.72,5.28,1.2c0.73,0.2,1.47,0.42,2.19,0.65c0.67,0.21,1.34,0.44,2,0.68
		c1.03,0.38,2.06,0.79,3.06,1.24c0.52,0.23,1.03,0.48,1.54,0.74c0.11,0.06,0.23,0.12,0.34,0.18c0.21,0.11,0.43,0.23,0.64,0.36"/>
	<path class="st4" d="M82.72,158.56c-0.05,0.1-0.09,0.2-0.11,0.31c-0.06,0.28-0.02,0.56,0.07,0.83c0.08,0.25,0.2,0.49,0.32,0.7
		c0.01,0.02,0.03,0.05,0.05,0.06c0.02,0.02,0.05,0.02,0.07,0.03c0.07,0.02,0.14,0.03,0.2,0.05c0.28,0.08,0.56,0.18,0.84,0.32
		c0.12,0.06,0.24,0.13,0.35,0.19c0.44,0.25,0.88,0.56,1.31,0.88c0.49,0.37,0.98,0.77,1.48,1.16c0.75,0.59,1.51,1.2,2.26,1.82
		c0.25,0.21,0.5,0.42,0.75,0.63c0.45,0.38,0.91,0.77,1.35,1.17c0.2,0.21,0.42,0.41,0.64,0.6c0.75,0.65,1.58,1.18,2.46,1.63
		c0.52,0.26,1.05,0.5,1.59,0.7c0.37,0.13,0.75,0.25,1.14,0.35c0.19,0.05,0.38,0.1,0.58,0.14c0.32,0.08,0.64,0.14,0.96,0.2
		c1.07,0.2,2.15,0.32,3.23,0.39c0.54,0.03,1.07,0.05,1.61,0.06c0.89,0.01,1.79-0.01,2.68-0.06c1.42-0.08,2.84-0.23,4.25-0.43
		c0.31-0.04,0.61-0.09,0.92-0.14c1.99-0.32,3.96-0.73,5.91-1.23c1.89-0.48,3.77-1.03,5.62-1.64c1.43-0.47,2.86-0.97,4.27-1.51
		c0.5-0.19,0.99-0.38,1.48-0.58c0.62-0.25,1.25-0.49,1.89-0.7c0.75-0.26,1.51-0.49,2.26-0.71c0.14-0.04,0.28-0.08,0.42-0.12
		c0.93-0.26,1.86-0.5,2.8-0.72c0.29-0.07,0.57-0.13,0.86-0.2c1.14-0.26,2.28-0.49,3.43-0.71c1.89-0.35,3.79-0.65,5.7-0.88
		c2.28-0.28,4.58-0.46,6.88-0.55c0.45-0.02,0.9-0.03,1.35-0.04c2.03-0.04,4.07-0.01,6.1,0.11c0.4,0.02,0.8,0.05,1.19,0.08
		c2.12,0.16,4.22,0.42,6.32,0.77c1.76,0.3,3.52,0.68,5.25,1.14c0.73,0.19,1.46,0.4,2.18,0.62c0.67,0.21,1.33,0.43,1.99,0.66
		c1.03,0.37,2.05,0.77,3.05,1.21c0.52,0.23,1.03,0.47,1.53,0.72c0.11,0.06,0.22,0.11,0.34,0.17c0.21,0.11,0.43,0.23,0.63,0.35"/>
	<path class="st4" d="M82.72,158.56c-0.05,0.1-0.09,0.2-0.12,0.31c-0.07,0.28-0.04,0.56,0.02,0.83c0.06,0.26,0.16,0.5,0.26,0.71
		c0.01,0.02,0.02,0.05,0.04,0.07c0.02,0.02,0.04,0.03,0.06,0.03c0.06,0.02,0.12,0.05,0.18,0.07c0.25,0.1,0.49,0.23,0.74,0.39
		c0.11,0.07,0.21,0.14,0.32,0.22c0.4,0.29,0.8,0.62,1.2,0.97c0.46,0.4,0.92,0.83,1.4,1.24c0.71,0.61,1.45,1.23,2.18,1.85
		c0.25,0.21,0.49,0.42,0.74,0.63c0.44,0.38,0.89,0.77,1.33,1.16c0.2,0.21,0.42,0.4,0.64,0.59c0.78,0.66,1.65,1.21,2.55,1.66
		c0.54,0.27,1.08,0.51,1.65,0.71c0.39,0.14,0.78,0.25,1.18,0.35c0.2,0.05,0.4,0.1,0.6,0.14c0.33,0.07,0.66,0.14,0.99,0.2
		c1.1,0.2,2.22,0.32,3.34,0.39c0.56,0.03,1.11,0.05,1.67,0.06c0.92,0.01,1.85-0.01,2.77-0.06c1.47-0.08,2.94-0.23,4.4-0.44
		c0.32-0.04,0.64-0.09,0.95-0.14c2.05-0.32,4.09-0.75,6.11-1.26c1.88-0.48,3.75-1.02,5.6-1.63c1.42-0.46,2.83-0.96,4.23-1.5
		c0.49-0.19,0.99-0.38,1.48-0.58c0.62-0.25,1.25-0.49,1.88-0.71c0.75-0.26,1.5-0.5,2.25-0.73c0.14-0.04,0.28-0.08,0.42-0.12
		c0.92-0.27,1.85-0.5,2.79-0.72c0.28-0.07,0.57-0.13,0.85-0.2c1.14-0.26,2.28-0.49,3.42-0.71c1.89-0.36,3.78-0.65,5.69-0.89
		c2.27-0.28,4.56-0.48,6.85-0.58c0.45-0.02,0.89-0.04,1.34-0.05c2.03-0.06,4.05-0.03,6.07,0.07c0.4,0.02,0.79,0.04,1.19,0.07
		c2.11,0.14,4.21,0.38,6.3,0.71c1.75,0.28,3.5,0.64,5.22,1.08c0.73,0.18,1.45,0.38,2.17,0.6c0.67,0.2,1.33,0.41,1.98,0.64
		c1.02,0.35,2.04,0.74,3.03,1.18c0.51,0.22,1.02,0.46,1.52,0.71c0.11,0.06,0.22,0.11,0.33,0.17c0.21,0.11,0.42,0.22,0.63,0.34"/>
	<path class="st4" d="M82.72,158.56c-0.06,0.1-0.1,0.2-0.12,0.31c-0.08,0.28-0.07,0.56-0.02,0.84c0.04,0.26,0.12,0.51,0.2,0.72
		c0.01,0.03,0.02,0.05,0.04,0.07c0.02,0.02,0.03,0.03,0.05,0.04c0.05,0.03,0.1,0.06,0.16,0.09c0.21,0.13,0.43,0.27,0.65,0.46
		c0.09,0.08,0.19,0.16,0.28,0.25c0.35,0.32,0.72,0.68,1.09,1.06c0.43,0.43,0.86,0.89,1.32,1.32c0.68,0.63,1.4,1.25,2.11,1.88
		c0.24,0.21,0.48,0.42,0.72,0.63c0.44,0.38,0.88,0.76,1.32,1.15c0.2,0.2,0.41,0.4,0.63,0.58c0.81,0.68,1.71,1.23,2.64,1.7
		c0.55,0.28,1.12,0.53,1.7,0.73c0.4,0.14,0.81,0.25,1.22,0.35c0.21,0.05,0.41,0.09,0.62,0.14c0.34,0.07,0.68,0.14,1.02,0.2
		c1.14,0.2,2.3,0.32,3.45,0.38c0.57,0.03,1.15,0.05,1.72,0.06c0.95,0.01,1.9-0.01,2.86-0.06c1.52-0.08,3.03-0.23,4.54-0.44
		c0.33-0.05,0.66-0.09,0.98-0.14c2.12-0.33,4.23-0.77,6.31-1.29c1.88-0.47,3.74-1.02,5.58-1.62c1.41-0.46,2.8-0.95,4.19-1.48
		c0.49-0.19,0.98-0.38,1.47-0.58c0.62-0.25,1.24-0.49,1.87-0.71c0.74-0.26,1.49-0.51,2.23-0.74c0.14-0.04,0.28-0.09,0.42-0.13
		c0.92-0.27,1.85-0.5,2.78-0.72c0.28-0.07,0.57-0.13,0.85-0.2c1.13-0.26,2.27-0.49,3.41-0.71c1.88-0.36,3.77-0.66,5.67-0.9
		c2.26-0.29,4.54-0.49,6.82-0.61c0.44-0.02,0.89-0.04,1.33-0.06c2.02-0.07,4.04-0.06,6.05,0.02c0.4,0.02,0.79,0.04,1.18,0.06
		c2.1,0.12,4.2,0.34,6.28,0.65c1.74,0.27,3.47,0.6,5.19,1.02c0.72,0.18,1.44,0.37,2.16,0.57c0.66,0.19,1.32,0.4,1.97,0.62
		c1.02,0.34,2.03,0.72,3.02,1.14c0.51,0.22,1.02,0.45,1.52,0.69c0.11,0.05,0.22,0.11,0.33,0.17c0.21,0.11,0.42,0.22,0.63,0.34"/>
	<path class="st4" d="M82.72,158.56c-0.06,0.1-0.1,0.2-0.13,0.31c-0.09,0.28-0.09,0.56-0.07,0.84c0.03,0.26,0.08,0.51,0.15,0.74
		c0.01,0.03,0.02,0.05,0.03,0.07c0.01,0.02,0.03,0.03,0.04,0.04c0.04,0.03,0.09,0.07,0.13,0.11c0.18,0.15,0.36,0.32,0.55,0.53
		c0.08,0.09,0.16,0.18,0.25,0.27c0.31,0.35,0.64,0.74,0.98,1.15c0.39,0.46,0.8,0.94,1.25,1.4c0.64,0.65,1.34,1.28,2.03,1.91
		c0.23,0.21,0.47,0.42,0.71,0.63c0.43,0.38,0.87,0.76,1.3,1.14c0.2,0.2,0.41,0.39,0.63,0.57c0.84,0.69,1.77,1.25,2.74,1.73
		c0.57,0.28,1.16,0.54,1.76,0.75c0.41,0.14,0.84,0.25,1.26,0.34c0.21,0.05,0.43,0.09,0.64,0.14c0.35,0.07,0.7,0.14,1.06,0.2
		c1.18,0.19,2.37,0.31,3.56,0.38c0.59,0.03,1.18,0.05,1.77,0.06c0.98,0.01,1.96-0.01,2.95-0.06c1.57-0.08,3.13-0.24,4.68-0.45
		c0.34-0.05,0.68-0.1,1.01-0.15c2.19-0.33,4.36-0.78,6.51-1.32c1.87-0.47,3.72-1.01,5.56-1.61c1.39-0.45,2.78-0.94,4.15-1.46
		c0.49-0.19,0.98-0.38,1.47-0.57c0.61-0.25,1.24-0.48,1.86-0.71c0.74-0.27,1.48-0.52,2.22-0.76c0.14-0.04,0.28-0.09,0.42-0.13
		c0.91-0.28,1.84-0.5,2.77-0.72c0.28-0.07,0.57-0.13,0.85-0.2c1.13-0.25,2.26-0.49,3.39-0.71c1.88-0.36,3.77-0.66,5.66-0.91
		c2.26-0.29,4.52-0.51,6.79-0.64c0.44-0.02,0.89-0.05,1.33-0.06c2.01-0.08,4.02-0.09,6.03-0.02c0.39,0.01,0.79,0.03,1.18,0.05
		c2.09,0.1,4.18,0.3,6.26,0.59c1.73,0.25,3.45,0.56,5.16,0.96c0.72,0.17,1.43,0.35,2.15,0.55c0.66,0.18,1.31,0.38,1.96,0.59
		c1.01,0.33,2.02,0.7,3,1.11c0.51,0.21,1.01,0.44,1.51,0.68c0.11,0.05,0.22,0.11,0.33,0.16c0.21,0.11,0.42,0.21,0.63,0.33"/>
	<path class="st4" d="M82.72,158.56c-0.06,0.1-0.1,0.2-0.14,0.31c-0.1,0.28-0.12,0.56-0.11,0.84c0.01,0.26,0.05,0.52,0.09,0.75
		c0.01,0.03,0.01,0.05,0.02,0.07c0.01,0.02,0.02,0.04,0.03,0.05c0.03,0.04,0.07,0.08,0.11,0.13c0.15,0.18,0.3,0.37,0.46,0.6
		c0.07,0.1,0.14,0.2,0.21,0.3c0.27,0.38,0.56,0.8,0.87,1.24c0.36,0.49,0.74,1,1.17,1.48c0.61,0.67,1.28,1.31,1.96,1.94
		c0.23,0.21,0.46,0.43,0.69,0.64c0.42,0.38,0.86,0.76,1.29,1.13c0.2,0.19,0.41,0.38,0.63,0.56c0.87,0.71,1.83,1.28,2.83,1.77
		c0.59,0.29,1.19,0.56,1.81,0.77c0.43,0.14,0.86,0.25,1.3,0.34c0.22,0.05,0.44,0.09,0.66,0.13c0.36,0.07,0.73,0.14,1.09,0.19
		c1.22,0.19,2.44,0.31,3.67,0.38c0.61,0.03,1.22,0.05,1.83,0.06c1.01,0.01,2.02-0.01,3.03-0.06c1.61-0.08,3.22-0.24,4.82-0.45
		c0.35-0.05,0.7-0.1,1.05-0.15c2.25-0.34,4.49-0.8,6.71-1.36c1.86-0.47,3.71-1.01,5.53-1.6c1.38-0.45,2.75-0.93,4.1-1.45
		c0.49-0.19,0.98-0.37,1.46-0.57c0.61-0.25,1.23-0.48,1.85-0.71c0.73-0.27,1.47-0.53,2.21-0.77c0.14-0.04,0.28-0.09,0.41-0.13
		c0.91-0.28,1.83-0.51,2.76-0.72c0.28-0.07,0.56-0.13,0.85-0.19c1.12-0.25,2.25-0.49,3.38-0.7c1.87-0.36,3.76-0.67,5.64-0.92
		c2.25-0.3,4.5-0.52,6.76-0.66c0.44-0.03,0.88-0.05,1.32-0.07c2-0.09,4-0.12,6-0.07c0.39,0.01,0.78,0.02,1.18,0.04
		c2.09,0.09,4.17,0.26,6.24,0.53c1.72,0.23,3.43,0.52,5.13,0.9c0.71,0.16,1.43,0.33,2.13,0.52c0.65,0.18,1.31,0.37,1.95,0.57
		c1.01,0.32,2.01,0.68,2.99,1.08c0.51,0.21,1.01,0.43,1.5,0.66c0.11,0.05,0.22,0.11,0.33,0.16c0.21,0.1,0.42,0.21,0.62,0.32"/>
	<path class="st4" d="M82.72,158.56c-0.06,0.1-0.11,0.2-0.15,0.31c-0.1,0.28-0.15,0.56-0.16,0.84c-0.01,0.26,0.01,0.52,0.03,0.76
		c0,0.03,0.01,0.05,0.01,0.08c0.01,0.02,0.02,0.04,0.03,0.06c0.03,0.05,0.05,0.1,0.08,0.15c0.11,0.2,0.23,0.42,0.36,0.67
		c0.06,0.11,0.11,0.22,0.17,0.33c0.22,0.42,0.48,0.87,0.76,1.32c0.32,0.52,0.68,1.06,1.1,1.56c0.57,0.69,1.22,1.34,1.88,1.97
		c0.22,0.21,0.45,0.43,0.68,0.64c0.42,0.38,0.84,0.75,1.27,1.12c0.2,0.19,0.41,0.37,0.63,0.55c0.9,0.72,1.89,1.3,2.92,1.8
		c0.61,0.3,1.23,0.57,1.87,0.78c0.44,0.14,0.89,0.25,1.34,0.34c0.23,0.05,0.45,0.09,0.68,0.13c0.37,0.07,0.75,0.14,1.12,0.19
		c1.25,0.19,2.52,0.31,3.78,0.37c0.63,0.03,1.25,0.05,1.88,0.06c1.04,0.01,2.08-0.01,3.12-0.06c1.66-0.08,3.32-0.24,4.96-0.46
		c0.36-0.05,0.72-0.1,1.08-0.15c2.32-0.35,4.63-0.82,6.91-1.39c1.85-0.47,3.69-1,5.51-1.59c1.36-0.44,2.72-0.92,4.06-1.43
		c0.49-0.18,0.97-0.37,1.46-0.57c0.61-0.25,1.23-0.48,1.85-0.71c0.73-0.27,1.46-0.54,2.19-0.79c0.14-0.05,0.27-0.09,0.41-0.13
		c0.9-0.28,1.82-0.51,2.74-0.72c0.28-0.07,0.56-0.13,0.84-0.19c1.12-0.25,2.24-0.49,3.37-0.7c1.87-0.36,3.75-0.67,5.63-0.93
		c2.24-0.31,4.48-0.54,6.73-0.69c0.44-0.03,0.88-0.06,1.32-0.08c1.99-0.11,3.99-0.15,5.98-0.11c0.39,0.01,0.78,0.02,1.17,0.03
		c2.08,0.07,4.15,0.22,6.22,0.46c1.71,0.21,3.41,0.48,5.1,0.84c0.71,0.15,1.42,0.32,2.12,0.5c0.65,0.17,1.3,0.35,1.94,0.55
		c1,0.31,2,0.65,2.97,1.05c0.5,0.2,1,0.42,1.49,0.65c0.11,0.05,0.22,0.1,0.33,0.16c0.21,0.1,0.42,0.21,0.62,0.31"/>
	<path class="st4" d="M82.72,158.56c-0.06,0.1-0.11,0.2-0.16,0.31c-0.11,0.28-0.17,0.56-0.2,0.85c-0.03,0.27-0.03,0.53-0.02,0.77
		c0,0.03,0,0.06,0.01,0.08c0,0.02,0.01,0.04,0.02,0.06c0.02,0.05,0.04,0.11,0.06,0.16c0.08,0.23,0.17,0.47,0.27,0.74
		c0.04,0.12,0.09,0.23,0.14,0.35c0.18,0.45,0.4,0.93,0.65,1.41c0.29,0.55,0.62,1.11,1.02,1.64c0.54,0.7,1.16,1.36,1.81,2
		c0.22,0.22,0.44,0.43,0.67,0.64c0.41,0.38,0.83,0.75,1.26,1.11c0.2,0.19,0.41,0.37,0.63,0.54c0.93,0.73,1.96,1.33,3.01,1.84
		c0.63,0.3,1.26,0.59,1.92,0.8c0.45,0.15,0.92,0.25,1.38,0.34c0.23,0.05,0.47,0.09,0.7,0.13c0.38,0.07,0.77,0.13,1.16,0.19
		c1.29,0.19,2.59,0.3,3.89,0.37c0.64,0.03,1.29,0.05,1.93,0.06c1.07,0.01,2.14-0.01,3.21-0.07c1.71-0.08,3.41-0.24,5.11-0.47
		c0.37-0.05,0.74-0.1,1.11-0.15c2.39-0.35,4.76-0.83,7.1-1.42c1.85-0.46,3.68-0.99,5.49-1.58c1.35-0.44,2.69-0.91,4.02-1.41
		c0.49-0.18,0.97-0.37,1.45-0.57c0.61-0.25,1.22-0.48,1.84-0.72c0.72-0.27,1.45-0.55,2.18-0.8c0.14-0.05,0.27-0.09,0.41-0.14
		c0.9-0.29,1.82-0.51,2.73-0.72c0.28-0.07,0.56-0.13,0.84-0.19c1.12-0.25,2.24-0.48,3.36-0.7c1.86-0.36,3.74-0.67,5.62-0.94
		c2.23-0.31,4.46-0.56,6.7-0.72c0.44-0.03,0.87-0.06,1.31-0.09c1.98-0.12,3.97-0.17,5.95-0.16c0.39,0,0.78,0.01,1.17,0.02
		c2.07,0.05,4.14,0.18,6.2,0.4c1.7,0.19,3.39,0.45,5.06,0.78c0.71,0.14,1.41,0.3,2.11,0.47c0.65,0.16,1.29,0.34,1.93,0.53
		c1,0.3,1.99,0.63,2.96,1.01c0.5,0.2,1,0.41,1.49,0.63c0.11,0.05,0.22,0.1,0.33,0.15c0.21,0.1,0.41,0.2,0.62,0.31"/>
	<path class="st4" d="M82.72,158.56c-0.06,0.1-0.12,0.2-0.16,0.31c-0.12,0.28-0.2,0.56-0.25,0.85c-0.04,0.27-0.07,0.53-0.08,0.79
		c0,0.03,0,0.06,0,0.08c0,0.03,0.01,0.05,0.01,0.07c0.01,0.06,0.02,0.12,0.03,0.18c0.05,0.25,0.1,0.52,0.18,0.81
		c0.03,0.13,0.06,0.25,0.1,0.38c0.14,0.48,0.32,0.99,0.54,1.5c0.26,0.58,0.56,1.17,0.95,1.72c0.5,0.72,1.1,1.39,1.73,2.04
		c0.21,0.22,0.43,0.43,0.65,0.64c0.4,0.38,0.82,0.74,1.24,1.1c0.2,0.18,0.41,0.36,0.62,0.52c0.96,0.75,2.02,1.35,3.11,1.87
		c0.64,0.31,1.3,0.6,1.98,0.82c0.47,0.15,0.95,0.25,1.43,0.34c0.24,0.04,0.48,0.09,0.72,0.13c0.4,0.07,0.79,0.13,1.19,0.19
		c1.33,0.18,2.66,0.3,4,0.36c0.66,0.03,1.33,0.05,1.99,0.06c1.1,0.01,2.2-0.01,3.3-0.07c1.76-0.08,3.51-0.24,5.25-0.47
		c0.38-0.05,0.76-0.1,1.14-0.16c2.46-0.36,4.89-0.85,7.3-1.45c1.84-0.46,3.66-0.99,5.47-1.57c1.34-0.43,2.66-0.9,3.98-1.4
		c0.48-0.18,0.97-0.37,1.45-0.56c0.61-0.24,1.22-0.48,1.83-0.72c0.72-0.28,1.44-0.56,2.16-0.82c0.14-0.05,0.27-0.09,0.41-0.14
		c0.89-0.29,1.81-0.51,2.72-0.73c0.28-0.06,0.56-0.13,0.84-0.19c1.11-0.25,2.23-0.48,3.35-0.7c1.86-0.36,3.73-0.68,5.6-0.95
		c2.22-0.32,4.44-0.57,6.67-0.75c0.44-0.03,0.87-0.07,1.31-0.1c1.97-0.13,3.95-0.2,5.93-0.2c0.39,0,0.78,0,1.16,0.01
		c2.06,0.03,4.12,0.14,6.18,0.34c1.69,0.17,3.37,0.41,5.03,0.73c0.7,0.13,1.4,0.28,2.1,0.45c0.64,0.15,1.29,0.32,1.92,0.5
		c0.99,0.29,1.98,0.61,2.95,0.98c0.5,0.19,0.99,0.4,1.48,0.62c0.11,0.05,0.22,0.1,0.33,0.15c0.21,0.1,0.41,0.2,0.62,0.3"/>
	<path class="st4" d="M82.72,158.56c-0.07,0.1-0.12,0.2-0.17,0.31c-0.13,0.28-0.23,0.56-0.29,0.85c-0.06,0.27-0.11,0.54-0.14,0.8
		c0,0.03-0.01,0.06-0.01,0.08c0,0.03,0,0.05,0,0.07c0,0.07,0,0.13,0.01,0.2c0.01,0.28,0.04,0.57,0.08,0.88
		c0.02,0.13,0.04,0.27,0.06,0.41c0.09,0.51,0.24,1.05,0.43,1.59c0.22,0.61,0.51,1.22,0.87,1.8c0.47,0.73,1.04,1.42,1.66,2.07
		c0.21,0.22,0.42,0.43,0.64,0.64c0.39,0.38,0.81,0.74,1.22,1.09c0.2,0.18,0.41,0.35,0.62,0.51c0.99,0.76,2.08,1.38,3.2,1.91
		c0.66,0.31,1.34,0.62,2.03,0.84c0.48,0.15,0.97,0.25,1.47,0.34c0.25,0.04,0.5,0.08,0.74,0.13c0.41,0.07,0.82,0.13,1.23,0.19
		c1.36,0.18,2.73,0.3,4.11,0.36c0.68,0.03,1.36,0.05,2.04,0.05c1.13,0.01,2.26-0.01,3.39-0.07c1.8-0.09,3.6-0.25,5.39-0.48
		c0.39-0.05,0.78-0.1,1.17-0.16c2.52-0.37,5.03-0.86,7.5-1.48c1.83-0.46,3.65-0.98,5.44-1.56c1.32-0.43,2.64-0.89,3.94-1.38
		c0.48-0.18,0.96-0.37,1.44-0.56c0.6-0.24,1.21-0.48,1.82-0.72c0.71-0.28,1.43-0.57,2.15-0.83c0.13-0.05,0.27-0.1,0.41-0.14
		c0.89-0.3,1.8-0.51,2.71-0.73c0.28-0.06,0.56-0.13,0.83-0.19c1.11-0.25,2.22-0.48,3.33-0.7c1.86-0.36,3.72-0.68,5.59-0.96
		c2.21-0.32,4.42-0.59,6.64-0.78c0.43-0.04,0.87-0.07,1.3-0.1c1.97-0.14,3.94-0.23,5.91-0.25c0.39,0,0.77,0,1.16,0
		c2.06,0.01,4.11,0.1,6.16,0.28c1.68,0.15,3.35,0.37,5,0.67c0.7,0.13,1.4,0.27,2.09,0.42c0.64,0.15,1.28,0.3,1.91,0.48
		c0.99,0.27,1.97,0.59,2.93,0.95c0.5,0.19,0.99,0.39,1.47,0.6c0.11,0.05,0.22,0.1,0.32,0.15c0.21,0.09,0.41,0.19,0.61,0.29"/>
	<path class="st4" d="M82.72,158.56c-0.07,0.1-0.13,0.2-0.18,0.31c-0.14,0.28-0.25,0.56-0.34,0.85c-0.08,0.27-0.14,0.54-0.19,0.81
		C82,160.56,82,160.59,82,160.62c0,0.03-0.01,0.05-0.01,0.08c-0.01,0.07-0.01,0.15-0.02,0.22c-0.02,0.3-0.03,0.62-0.01,0.95
		c0.01,0.14,0.02,0.29,0.03,0.44c0.05,0.55,0.16,1.11,0.32,1.68c0.19,0.64,0.45,1.28,0.8,1.87c0.44,0.75,0.99,1.45,1.58,2.1
		c0.2,0.22,0.41,0.43,0.62,0.64c0.39,0.38,0.79,0.74,1.21,1.08c0.2,0.17,0.41,0.34,0.62,0.5c1.02,0.77,2.14,1.4,3.29,1.95
		c0.68,0.32,1.37,0.63,2.09,0.85c0.49,0.15,1,0.25,1.51,0.34c0.25,0.04,0.51,0.08,0.76,0.12c0.42,0.07,0.84,0.13,1.26,0.18
		c1.4,0.18,2.81,0.29,4.22,0.36c0.7,0.03,1.4,0.05,2.1,0.05c1.16,0.01,2.32-0.01,3.48-0.07c1.85-0.09,3.7-0.25,5.53-0.48
		c0.4-0.05,0.8-0.11,1.2-0.16c2.59-0.37,5.16-0.88,7.7-1.52c1.82-0.46,3.63-0.98,5.42-1.56c1.31-0.42,2.61-0.88,3.9-1.36
		c0.48-0.18,0.96-0.37,1.44-0.56c0.6-0.24,1.21-0.48,1.81-0.72c0.71-0.28,1.42-0.58,2.13-0.85c0.13-0.05,0.27-0.1,0.4-0.14
		c0.88-0.3,1.79-0.52,2.7-0.73c0.28-0.06,0.55-0.13,0.83-0.19c1.1-0.25,2.21-0.48,3.32-0.7c1.85-0.36,3.71-0.69,5.57-0.97
		c2.2-0.33,4.4-0.6,6.61-0.8c0.43-0.04,0.86-0.08,1.3-0.11c1.96-0.16,3.92-0.26,5.88-0.29c0.38-0.01,0.77-0.01,1.15-0.01
		c2.05-0.01,4.1,0.06,6.14,0.22c1.66,0.13,3.32,0.33,4.97,0.61c0.7,0.12,1.39,0.25,2.08,0.4c0.64,0.14,1.27,0.29,1.9,0.46
		c0.98,0.26,1.96,0.56,2.92,0.92c0.49,0.18,0.98,0.38,1.47,0.59c0.11,0.05,0.22,0.09,0.32,0.14c0.21,0.09,0.41,0.19,0.61,0.29"/>
	<path class="st4" d="M82.72,158.56c-0.07,0.1-0.13,0.2-0.19,0.31c-0.15,0.28-0.28,0.56-0.38,0.85c-0.1,0.27-0.18,0.55-0.25,0.82
		c-0.01,0.03-0.01,0.06-0.02,0.09c-0.01,0.03-0.01,0.06-0.02,0.09c-0.02,0.08-0.03,0.16-0.04,0.24c-0.06,0.33-0.09,0.67-0.11,1.02
		c-0.01,0.15-0.01,0.31-0.01,0.46c0.01,0.58,0.07,1.17,0.21,1.77c0.15,0.67,0.39,1.33,0.72,1.95c0.4,0.77,0.93,1.47,1.51,2.13
		c0.2,0.22,0.4,0.43,0.61,0.64c0.38,0.38,0.78,0.73,1.19,1.07c0.2,0.17,0.41,0.33,0.62,0.49c1.05,0.79,2.2,1.43,3.38,1.98
		c0.7,0.33,1.41,0.65,2.14,0.87c0.51,0.15,1.03,0.25,1.55,0.33c0.26,0.04,0.52,0.08,0.78,0.12c0.43,0.07,0.86,0.13,1.29,0.18
		c1.44,0.18,2.88,0.29,4.33,0.35c0.72,0.03,1.43,0.05,2.15,0.05c1.19,0.01,2.38-0.01,3.57-0.07c1.9-0.09,3.79-0.25,5.68-0.49
		c0.41-0.05,0.82-0.11,1.23-0.17c2.66-0.38,5.29-0.9,7.9-1.55c1.82-0.45,3.62-0.97,5.4-1.55c1.3-0.42,2.58-0.87,3.86-1.35
		c0.48-0.18,0.96-0.36,1.43-0.55c0.6-0.24,1.2-0.48,1.8-0.73c0.7-0.29,1.41-0.59,2.12-0.86c0.13-0.05,0.27-0.1,0.4-0.15
		c0.88-0.31,1.79-0.52,2.69-0.73c0.28-0.06,0.55-0.13,0.83-0.19c1.1-0.25,2.2-0.48,3.31-0.7c1.85-0.36,3.7-0.69,5.56-0.98
		c2.19-0.34,4.38-0.62,6.58-0.83c0.43-0.04,0.86-0.08,1.29-0.12c1.95-0.17,3.9-0.28,5.86-0.34c0.38-0.01,0.77-0.02,1.15-0.02
		c2.04-0.03,4.08,0.02,6.12,0.15c1.65,0.11,3.3,0.29,4.94,0.55c0.69,0.11,1.38,0.23,2.07,0.37c0.63,0.13,1.27,0.27,1.89,0.44
		c0.98,0.25,1.95,0.54,2.9,0.88c0.49,0.18,0.98,0.37,1.46,0.57c0.11,0.05,0.21,0.09,0.32,0.14c0.2,0.09,0.41,0.18,0.61,0.28"/>
	<path class="st4" d="M82.72,158.56c-0.07,0.1-0.13,0.2-0.2,0.31c-0.16,0.28-0.3,0.56-0.43,0.86c-0.12,0.27-0.22,0.55-0.31,0.83
		c-0.01,0.03-0.02,0.06-0.03,0.09c-0.01,0.03-0.02,0.06-0.03,0.09c-0.02,0.09-0.05,0.17-0.07,0.26c-0.09,0.35-0.16,0.72-0.2,1.09
		c-0.02,0.16-0.03,0.32-0.04,0.49c-0.04,0.61-0.01,1.24,0.1,1.85c0.12,0.7,0.34,1.39,0.64,2.03c0.37,0.78,0.87,1.5,1.43,2.16
		c0.19,0.22,0.39,0.44,0.59,0.64c0.37,0.38,0.77,0.73,1.18,1.06c0.2,0.17,0.41,0.33,0.62,0.48c1.09,0.8,2.26,1.45,3.48,2.02
		c0.72,0.33,1.44,0.66,2.2,0.89c0.52,0.16,1.05,0.25,1.59,0.33c0.27,0.04,0.54,0.08,0.8,0.12c0.44,0.07,0.88,0.13,1.33,0.18
		c1.47,0.18,2.95,0.29,4.44,0.35c0.73,0.03,1.47,0.05,2.2,0.05c1.22,0.01,2.44-0.02,3.66-0.07c1.95-0.09,3.89-0.25,5.82-0.5
		c0.42-0.05,0.84-0.11,1.26-0.17c2.72-0.38,5.43-0.91,8.1-1.58c1.81-0.45,3.6-0.96,5.38-1.54c1.28-0.41,2.55-0.86,3.81-1.33
		c0.48-0.18,0.95-0.36,1.43-0.55c0.6-0.24,1.2-0.48,1.79-0.73c0.7-0.29,1.4-0.6,2.11-0.88c0.13-0.05,0.27-0.1,0.4-0.15
		c0.87-0.31,1.78-0.52,2.68-0.73c0.27-0.06,0.55-0.13,0.83-0.19c1.1-0.25,2.2-0.48,3.3-0.69c1.84-0.37,3.69-0.69,5.55-0.99
		c2.18-0.34,4.36-0.63,6.56-0.86c0.43-0.04,0.86-0.09,1.28-0.13c1.94-0.18,3.89-0.31,5.83-0.38c0.38-0.01,0.76-0.03,1.15-0.03
		c2.03-0.05,4.07-0.02,6.1,0.09c1.64,0.1,3.28,0.25,4.91,0.49c0.69,0.1,1.37,0.22,2.06,0.35c0.63,0.12,1.26,0.26,1.88,0.41
		c0.97,0.24,1.94,0.52,2.89,0.85c0.49,0.17,0.97,0.35,1.45,0.55c0.11,0.04,0.21,0.09,0.32,0.14c0.2,0.09,0.41,0.18,0.61,0.27"/>
	<path class="st4" d="M82.72,158.56c-0.07,0.1-0.14,0.2-0.2,0.31c-0.17,0.28-0.33,0.56-0.47,0.86c-0.21,0.42-0.38,0.86-0.53,1.32
		c-0.18,0.54-0.3,1.11-0.37,1.68c-0.08,0.64-0.09,1.3-0.01,1.94c0.09,0.73,0.28,1.44,0.57,2.11c0.34,0.8,0.81,1.53,1.36,2.19
		c0.69,0.83,1.5,1.54,2.36,2.17c1.12,0.81,2.33,1.48,3.57,2.05c0.74,0.34,1.48,0.68,2.26,0.91c0.8,0.24,1.64,0.33,2.46,0.45
		c0.45,0.07,0.91,0.13,1.36,0.18c1.51,0.17,3.03,0.28,4.55,0.34c2,0.08,4.01,0.07,6.01-0.02c2.43-0.11,4.85-0.33,7.26-0.67
		c2.79-0.39,5.56-0.93,8.3-1.61c3.09-0.77,6.14-1.72,9.13-2.84c1.08-0.4,2.15-0.83,3.21-1.28c0.82-0.35,1.64-0.74,2.49-1.04
		c0.87-0.32,1.77-0.52,2.67-0.73c1.36-0.31,2.73-0.61,4.11-0.88c1.84-0.37,3.68-0.7,5.53-1c2.17-0.35,4.34-0.65,6.53-0.89
		c2.36-0.26,4.72-0.46,7.09-0.56c2.41-0.11,4.82-0.13,7.22-0.01c2.32,0.11,4.64,0.34,6.92,0.76c2.11,0.39,4.2,0.93,6.19,1.75
		c0.31,0.13,0.62,0.26,0.92,0.4"/>
</g>
</svg>
